G04*
G04 #@! TF.GenerationSoftware,Altium Limited,Altium Designer,20.2.4 (192)*
G04*
G04 Layer_Physical_Order=1*
G04 Layer_Color=255*
%FSLAX44Y44*%
%MOMM*%
G71*
G04*
G04 #@! TF.SameCoordinates,742EB62A-7AE8-4A69-8DF3-B4F61E8DB2E3*
G04*
G04*
G04 #@! TF.FilePolarity,Positive*
G04*
G01*
G75*
%ADD10C,0.2540*%
%ADD13C,0.2500*%
%ADD14C,0.4000*%
%ADD16C,0.2000*%
%ADD17C,0.1524*%
%ADD20C,0.1500*%
%ADD29R,0.5334X0.6096*%
%ADD30R,0.6096X0.5334*%
%ADD31R,1.3970X1.0160*%
%ADD32R,0.9000X0.4000*%
%ADD33R,1.4224X1.2192*%
%ADD34R,1.1500X2.7000*%
%ADD35R,1.1000X1.4000*%
%ADD36R,0.9000X1.4000*%
%ADD37R,0.9000X0.8000*%
%ADD38R,0.5000X0.5000*%
%ADD39R,1.4500X2.8000*%
%ADD40R,2.7430X2.1590*%
%ADD41R,0.5000X0.5000*%
G04:AMPARAMS|DCode=42|XSize=0.4mm|YSize=0.85mm|CornerRadius=0.05mm|HoleSize=0mm|Usage=FLASHONLY|Rotation=270.000|XOffset=0mm|YOffset=0mm|HoleType=Round|Shape=RoundedRectangle|*
%AMROUNDEDRECTD42*
21,1,0.4000,0.7500,0,0,270.0*
21,1,0.3000,0.8500,0,0,270.0*
1,1,0.1000,-0.3750,-0.1500*
1,1,0.1000,-0.3750,0.1500*
1,1,0.1000,0.3750,0.1500*
1,1,0.1000,0.3750,-0.1500*
%
%ADD42ROUNDEDRECTD42*%
%ADD43R,1.0500X2.2000*%
%ADD44R,1.0000X1.0500*%
%ADD45R,0.8000X0.8000*%
%ADD46R,0.6500X1.1500*%
%ADD47R,0.6000X0.2000*%
%ADD48R,0.2000X0.6000*%
%ADD49R,1.7000X1.7000*%
%ADD50R,0.2200X0.7000*%
%ADD51R,0.7000X0.2200*%
%ADD52R,3.9878X3.1750*%
%ADD53R,0.9000X1.6000*%
%ADD54R,2.5000X0.9000*%
%ADD55R,2.0000X2.0000*%
G04:AMPARAMS|DCode=56|XSize=1.26mm|YSize=1.61mm|CornerRadius=0.252mm|HoleSize=0mm|Usage=FLASHONLY|Rotation=180.000|XOffset=0mm|YOffset=0mm|HoleType=Round|Shape=RoundedRectangle|*
%AMROUNDEDRECTD56*
21,1,1.2600,1.1060,0,0,180.0*
21,1,0.7560,1.6100,0,0,180.0*
1,1,0.5040,-0.3780,0.5530*
1,1,0.5040,0.3780,0.5530*
1,1,0.5040,0.3780,-0.5530*
1,1,0.5040,-0.3780,-0.5530*
%
%ADD56ROUNDEDRECTD56*%
G04:AMPARAMS|DCode=57|XSize=0.74mm|YSize=0.26mm|CornerRadius=0.0702mm|HoleSize=0mm|Usage=FLASHONLY|Rotation=270.000|XOffset=0mm|YOffset=0mm|HoleType=Round|Shape=RoundedRectangle|*
%AMROUNDEDRECTD57*
21,1,0.7400,0.1196,0,0,270.0*
21,1,0.5996,0.2600,0,0,270.0*
1,1,0.1404,-0.0598,-0.2998*
1,1,0.1404,-0.0598,0.2998*
1,1,0.1404,0.0598,0.2998*
1,1,0.1404,0.0598,-0.2998*
%
%ADD57ROUNDEDRECTD57*%
%ADD58R,2.0000X5.0000*%
%ADD59R,1.7000X4.0000*%
%ADD60C,2.0000*%
%ADD61R,0.6000X1.4000*%
%ADD62R,0.5000X1.5100*%
%ADD63R,0.3000X0.3250*%
%ADD64R,0.3250X0.3000*%
%ADD65R,0.6000X0.6000*%
%ADD66R,0.6000X0.5000*%
%ADD67R,0.7000X0.7500*%
%ADD68R,2.0000X2.7500*%
%ADD69R,0.7000X1.1000*%
%ADD70R,0.8000X0.8000*%
%ADD71R,0.9000X1.3000*%
%ADD72R,1.4700X1.2850*%
%ADD73R,1.6000X0.9000*%
%ADD74R,0.6000X1.1000*%
%ADD75R,0.6000X0.7000*%
%ADD76R,0.6000X0.4000*%
%ADD77R,0.6000X0.6000*%
%ADD78R,0.8000X1.5000*%
%ADD79R,0.6000X1.5000*%
%ADD80R,0.9000X1.5000*%
%ADD81R,1.5000X0.6000*%
%ADD82R,2.0828X1.2700*%
%ADD83R,6.0000X2.0000*%
G04:AMPARAMS|DCode=84|XSize=0.8mm|YSize=0.8mm|CornerRadius=0.28mm|HoleSize=0mm|Usage=FLASHONLY|Rotation=0.000|XOffset=0mm|YOffset=0mm|HoleType=Round|Shape=RoundedRectangle|*
%AMROUNDEDRECTD84*
21,1,0.8000,0.2400,0,0,0.0*
21,1,0.2400,0.8000,0,0,0.0*
1,1,0.5600,0.1200,-0.1200*
1,1,0.5600,-0.1200,-0.1200*
1,1,0.5600,-0.1200,0.1200*
1,1,0.5600,0.1200,0.1200*
%
%ADD84ROUNDEDRECTD84*%
%ADD85R,1.2200X0.9100*%
%ADD86R,1.7501X0.5001*%
%ADD87R,0.5001X1.7501*%
%ADD88C,1.0000*%
%ADD159R,1.5000X1.5000*%
%ADD160C,0.6350*%
%ADD161C,0.5080*%
%ADD162C,0.3048*%
%ADD163C,0.2620*%
%ADD164C,0.3810*%
%ADD165C,0.2032*%
%ADD166C,0.5000*%
%ADD167C,1.2700*%
%ADD168C,0.3000*%
%ADD169C,0.1778*%
%ADD170C,1.5000*%
%ADD171C,1.5300*%
%ADD172R,1.5300X1.5300*%
%ADD173C,1.6500*%
%ADD174R,1.6500X1.6500*%
%ADD175C,2.5000*%
G04:AMPARAMS|DCode=176|XSize=1.9mm|YSize=0.75mm|CornerRadius=0.3375mm|HoleSize=0mm|Usage=FLASHONLY|Rotation=0.000|XOffset=0mm|YOffset=0mm|HoleType=Round|Shape=RoundedRectangle|*
%AMROUNDEDRECTD176*
21,1,1.9000,0.0750,0,0,0.0*
21,1,1.2250,0.7500,0,0,0.0*
1,1,0.6750,0.6125,-0.0375*
1,1,0.6750,-0.6125,-0.0375*
1,1,0.6750,-0.6125,0.0375*
1,1,0.6750,0.6125,0.0375*
%
%ADD176ROUNDEDRECTD176*%
%ADD177C,4.5000*%
%ADD178C,0.5080*%
%ADD179C,0.6096*%
%ADD180C,0.5100*%
G36*
X403775Y531493D02*
X372438Y500156D01*
X372438Y475121D01*
X368285D01*
X367696Y476544D01*
X365773Y479050D01*
X363266Y480974D01*
X360347Y482183D01*
X357214Y482596D01*
X354081Y482183D01*
X351162Y480974D01*
X348656Y479050D01*
X346732Y476544D01*
X345523Y473625D01*
X345110Y470492D01*
X345523Y467359D01*
X346732Y464440D01*
X348656Y461934D01*
X351162Y460010D01*
X354081Y458801D01*
X357214Y458388D01*
X360347Y458801D01*
X363266Y460010D01*
X365773Y461934D01*
X367696Y464440D01*
X368285Y465863D01*
X372438D01*
X372438Y405813D01*
X378799Y399452D01*
X427103D01*
X428634Y397920D01*
Y335495D01*
X441720Y322410D01*
X530457D01*
X531355Y321512D01*
X531355Y318423D01*
X530435D01*
Y306423D01*
X542435D01*
Y309348D01*
X548215D01*
Y306423D01*
X560215D01*
Y309348D01*
X565995D01*
Y306423D01*
X577930D01*
Y294259D01*
X577461Y293946D01*
X576457Y292444D01*
X576105Y290672D01*
X576457Y288901D01*
X577461Y287399D01*
X578963Y286396D01*
X580734Y286043D01*
X582505Y286396D01*
X584007Y287399D01*
X585011Y288901D01*
X585363Y290672D01*
X585011Y292444D01*
X584007Y293946D01*
X583538Y294259D01*
Y310403D01*
X583324Y311476D01*
X582717Y312385D01*
X580696Y314405D01*
X579787Y315013D01*
X578714Y315227D01*
X577995D01*
Y318423D01*
X577075D01*
Y321423D01*
X577995D01*
Y322410D01*
X610223D01*
X619464Y331652D01*
X632550D01*
Y324268D01*
X697828D01*
Y261784D01*
X641694D01*
X640522Y260612D01*
X623911Y277222D01*
X622189Y278373D01*
X620157Y278777D01*
X620157Y278777D01*
X612919D01*
Y281850D01*
X588027D01*
Y278777D01*
X572617D01*
Y279564D01*
X571665D01*
Y282532D01*
X572585D01*
Y294532D01*
X560585D01*
Y291336D01*
X555059D01*
Y294532D01*
X543059D01*
Y291336D01*
X537787D01*
Y294532D01*
X525787D01*
Y291336D01*
X518617D01*
X514024Y295928D01*
X513115Y296536D01*
X512042Y296749D01*
X477858D01*
X476785Y296536D01*
X475875Y295928D01*
X466005Y286059D01*
X465398Y285149D01*
X465184Y284076D01*
Y263713D01*
X459209Y257738D01*
X408641D01*
X408115Y259008D01*
X411493Y262386D01*
X412103Y263300D01*
X412318Y264378D01*
Y280518D01*
X413588Y280771D01*
X414353Y278923D01*
X415900Y276908D01*
X417915Y275361D01*
X420263Y274388D01*
X422782Y274057D01*
X425301Y274388D01*
X427649Y275361D01*
X429664Y276908D01*
X431211Y278923D01*
X432184Y281271D01*
X432515Y283790D01*
X432184Y286309D01*
X431211Y288657D01*
X429664Y290672D01*
X427649Y292219D01*
X425301Y293192D01*
X422782Y293523D01*
X420263Y293192D01*
X417915Y292219D01*
X415900Y290672D01*
X414353Y288657D01*
X413588Y286810D01*
X412318Y287062D01*
Y300033D01*
X412103Y301111D01*
X411493Y302024D01*
X393672Y319846D01*
Y330591D01*
X395356D01*
X395356Y330591D01*
X396626Y330742D01*
X397999Y330469D01*
X399771Y330822D01*
X401273Y331825D01*
X402276Y333327D01*
X402628Y335098D01*
X402276Y336870D01*
X401273Y338371D01*
X399771Y339375D01*
X397999Y339727D01*
X396626Y339454D01*
X395356Y339591D01*
X395356Y340591D01*
X395356D01*
Y349591D01*
X393931D01*
Y362199D01*
X395883D01*
Y371199D01*
X385883D01*
Y362199D01*
X387780D01*
Y349591D01*
X386356D01*
Y349591D01*
X385295Y349598D01*
Y349598D01*
X385140Y349598D01*
X383870Y349723D01*
X383870Y358259D01*
X383870Y358259D01*
X383636Y359436D01*
X382970Y360434D01*
X382440Y360963D01*
X382966Y362233D01*
X383118D01*
Y371233D01*
X373118D01*
Y362233D01*
X375043D01*
Y360937D01*
X375043Y360936D01*
X375277Y359760D01*
X375944Y358762D01*
X377720Y356986D01*
X377720Y350150D01*
X376450Y349598D01*
X376295D01*
Y349598D01*
X375412Y349591D01*
Y349591D01*
X373987D01*
X373987Y355779D01*
X373987Y355780D01*
X373753Y356956D01*
X373086Y357954D01*
X369950Y361090D01*
X370412Y362206D01*
X370412D01*
Y371205D01*
X360412D01*
Y362206D01*
X361545D01*
X362337Y361279D01*
X362571Y360103D01*
X363238Y359105D01*
X367837Y354506D01*
X367836Y349591D01*
X366412D01*
Y340591D01*
X366412D01*
X366412Y339591D01*
X366412Y339591D01*
Y330591D01*
X368096D01*
Y317054D01*
X358132Y307090D01*
X357521Y306176D01*
X357307Y305098D01*
Y285989D01*
X356037Y285905D01*
X355984Y286309D01*
X355011Y288657D01*
X353465Y290672D01*
X351449Y292219D01*
X349101Y293192D01*
X346582Y293523D01*
X344063Y293192D01*
X341715Y292219D01*
X339700Y290672D01*
X338153Y288657D01*
X337180Y286309D01*
X336849Y283790D01*
X337180Y281271D01*
X338153Y278923D01*
X339700Y276908D01*
X341715Y275361D01*
X344063Y274389D01*
X346582Y274057D01*
X349101Y274389D01*
X351449Y275361D01*
X353465Y276908D01*
X355011Y278923D01*
X355984Y281271D01*
X356037Y281675D01*
X357307Y281591D01*
Y274948D01*
X353563Y271204D01*
X293321D01*
X292243Y270990D01*
X291329Y270379D01*
X280491Y259541D01*
X280378Y259563D01*
X278802Y259250D01*
X277467Y258357D01*
X276574Y257021D01*
X276261Y255446D01*
X276574Y253870D01*
X276939Y253323D01*
X277086Y252133D01*
X276639Y251661D01*
X275743Y250974D01*
X274702Y249617D01*
X273355D01*
X272313Y250974D01*
X271418Y251661D01*
X270970Y252133D01*
X271117Y253323D01*
X271483Y253870D01*
X271796Y255446D01*
X271771Y255573D01*
X327424Y311226D01*
X329885D01*
X329939Y310957D01*
X330999Y309369D01*
X332587Y308308D01*
X334460Y307936D01*
X336860D01*
X338733Y308308D01*
X340321Y309369D01*
X341381Y310957D01*
X341754Y312829D01*
Y315229D01*
X341381Y317102D01*
X340321Y318690D01*
X338733Y319751D01*
X338464Y319804D01*
Y327814D01*
X338486Y327817D01*
X341405Y329026D01*
X343912Y330950D01*
X345835Y333456D01*
X347044Y336375D01*
X347457Y339508D01*
X347044Y342641D01*
X345835Y345560D01*
X343912Y348066D01*
X341405Y349990D01*
X338486Y351199D01*
X335353Y351612D01*
X332221Y351199D01*
X329301Y349990D01*
X326795Y348066D01*
X324871Y345560D01*
X323662Y342641D01*
X323250Y339508D01*
X323662Y336375D01*
X324871Y333456D01*
X326795Y330950D01*
X329301Y329026D01*
X332221Y327817D01*
X332856Y327733D01*
Y319804D01*
X332587Y319751D01*
X330999Y318690D01*
X329939Y317102D01*
X329885Y316833D01*
X326262D01*
X325189Y316620D01*
X324280Y316012D01*
X267805Y259538D01*
X267678Y259563D01*
X266102Y259250D01*
X264767Y258357D01*
X263874Y257021D01*
X263561Y255446D01*
X263874Y253870D01*
X264239Y253323D01*
X264386Y252133D01*
X263939Y251661D01*
X263043Y250974D01*
X262002Y249617D01*
X260655Y249617D01*
X259613Y250974D01*
X258718Y251661D01*
X258270Y252133D01*
X258417Y253323D01*
X258783Y253870D01*
X259096Y255446D01*
X258783Y257021D01*
X257890Y258357D01*
X256554Y259250D01*
X254978Y259563D01*
X253403Y259250D01*
X252067Y258357D01*
X251174Y257021D01*
X250861Y255446D01*
X251174Y253870D01*
X251539Y253323D01*
X251686Y252133D01*
X251239Y251661D01*
X250343Y250974D01*
X249302Y249617D01*
X247955Y249617D01*
X246913Y250974D01*
X245556Y252016D01*
X243975Y252670D01*
X242278Y252894D01*
X240582Y252670D01*
X239001Y252016D01*
X237643Y250974D01*
X236602Y249616D01*
X235947Y248036D01*
X235724Y246339D01*
X235947Y244643D01*
X236602Y243062D01*
X237643Y241704D01*
X239001Y240663D01*
X240582Y240008D01*
X242278Y239784D01*
X243975Y240008D01*
X245556Y240663D01*
X246913Y241704D01*
X247955Y243062D01*
X249302Y243062D01*
X250343Y241704D01*
X251701Y240663D01*
X253282Y240008D01*
X254978Y239785D01*
X256675Y240008D01*
X258256Y240663D01*
X259613Y241704D01*
X260655Y243062D01*
X262002Y243062D01*
X263043Y241704D01*
X264401Y240663D01*
X265982Y240008D01*
X267678Y239785D01*
X269375Y240008D01*
X270956Y240663D01*
X272313Y241704D01*
X273355Y243062D01*
X274702D01*
X275743Y241704D01*
X277101Y240663D01*
X278682Y240008D01*
X280378Y239785D01*
X282075Y240008D01*
X283655Y240663D01*
X285013Y241704D01*
X286055Y243062D01*
X287402Y243062D01*
X288443Y241704D01*
X289801Y240663D01*
X291382Y240008D01*
X292857Y239814D01*
X301174Y231497D01*
X300648Y230227D01*
X293857D01*
X293724Y230227D01*
X292682Y229998D01*
Y229675D01*
X292682D01*
X292682Y228500D01*
X292682Y221686D01*
X292682Y221686D01*
Y221362D01*
X293724Y221133D01*
X293724Y221134D01*
X293857Y221134D01*
X294930D01*
X295320Y219864D01*
X292101Y216644D01*
X292077Y216628D01*
X290577Y215128D01*
X290564Y215109D01*
X290193Y215039D01*
X289098Y215200D01*
X288819Y215617D01*
X276384Y228052D01*
X275641Y228549D01*
X274763Y228724D01*
X240371D01*
X239811Y229561D01*
X238472Y230456D01*
X236892Y230770D01*
X235312Y230456D01*
X233973Y229561D01*
X233078Y228222D01*
X232764Y226642D01*
X233078Y225062D01*
X233973Y223723D01*
X235312Y222828D01*
X235469Y222797D01*
X235838Y221582D01*
X224788Y210532D01*
X222963Y210532D01*
X222555Y211517D01*
X221513Y212874D01*
X220156Y213916D01*
X220156Y215263D01*
X221513Y216304D01*
X222555Y217662D01*
X223210Y219243D01*
X223433Y220939D01*
X223210Y222636D01*
X222555Y224216D01*
X221513Y225574D01*
X220156Y226616D01*
X218575Y227271D01*
X216878Y227494D01*
X215182Y227271D01*
X213601Y226616D01*
X212243Y225574D01*
X211202Y224216D01*
X211073Y223907D01*
X210153Y223787D01*
X209090Y224765D01*
Y267435D01*
X210360Y268114D01*
X210867Y267775D01*
X212639Y267422D01*
X213124Y267519D01*
X214204Y266439D01*
X214188Y266356D01*
X214540Y264585D01*
X215543Y263083D01*
X217045Y262079D01*
X218817Y261727D01*
X220588Y262079D01*
X222090Y263083D01*
X222395Y263540D01*
X246786D01*
X247864Y263754D01*
X248777Y264365D01*
X263701Y279288D01*
X264311Y280201D01*
X264525Y281279D01*
Y320203D01*
X265795Y320634D01*
X266989Y319078D01*
X269131Y317435D01*
X271624Y316402D01*
X274300Y316050D01*
X276976Y316402D01*
X279469Y317435D01*
X281610Y319078D01*
X283253Y321219D01*
X284286Y323713D01*
X284638Y326388D01*
X284286Y329064D01*
X283253Y331558D01*
X281610Y333699D01*
X279469Y335342D01*
X276976Y336375D01*
X274300Y336727D01*
X271624Y336375D01*
X269131Y335342D01*
X266989Y333699D01*
X265795Y332142D01*
X264525Y332574D01*
Y338031D01*
X269271Y342777D01*
X271624Y341802D01*
X274300Y341450D01*
X276976Y341802D01*
X279469Y342835D01*
X281610Y344478D01*
X283253Y346619D01*
X284286Y349113D01*
X284638Y351788D01*
X284286Y354464D01*
X283253Y356958D01*
X281610Y359099D01*
X279469Y360742D01*
X276976Y361774D01*
X274300Y362127D01*
X271624Y361774D01*
X269131Y360742D01*
X266989Y359099D01*
X265347Y356958D01*
X264314Y354464D01*
X263961Y351788D01*
X264314Y349113D01*
X265288Y346759D01*
X259718Y341189D01*
X259107Y340275D01*
X258893Y339198D01*
Y332210D01*
X257623Y331857D01*
X256210Y333699D01*
X254069Y335342D01*
X251576Y336375D01*
X248900Y336727D01*
X246224Y336375D01*
X243731Y335342D01*
X241590Y333699D01*
X240510Y332293D01*
X239240Y332724D01*
Y338164D01*
X243859Y342782D01*
X246224Y341802D01*
X248900Y341450D01*
X251576Y341802D01*
X254069Y342835D01*
X256210Y344478D01*
X257853Y346619D01*
X258886Y349113D01*
X259238Y351788D01*
X258886Y354464D01*
X257853Y356958D01*
X256210Y359099D01*
X254069Y360742D01*
X251576Y361774D01*
X248900Y362127D01*
X246224Y361774D01*
X243731Y360742D01*
X241590Y359099D01*
X239946Y356958D01*
X238914Y354464D01*
X238561Y351788D01*
X238914Y349113D01*
X239893Y346747D01*
X234454Y341308D01*
X233846Y340398D01*
X233633Y339325D01*
Y332029D01*
X232759Y331680D01*
X232363Y331675D01*
X230810Y333699D01*
X228669Y335342D01*
X226176Y336375D01*
X223500Y336727D01*
X220824Y336375D01*
X218331Y335342D01*
X216189Y333699D01*
X214730Y331796D01*
X213739Y331983D01*
X213460Y332130D01*
Y337783D01*
X218459Y342782D01*
X220824Y341802D01*
X223500Y341450D01*
X226176Y341802D01*
X228669Y342835D01*
X230810Y344478D01*
X232453Y346619D01*
X233486Y349113D01*
X233838Y351788D01*
X233486Y354464D01*
X232453Y356958D01*
X230810Y359099D01*
X228669Y360742D01*
X226176Y361774D01*
X223500Y362127D01*
X220824Y361774D01*
X218331Y360742D01*
X216189Y359099D01*
X214547Y356958D01*
X213514Y354464D01*
X213161Y351788D01*
X213514Y349113D01*
X214494Y346747D01*
X208673Y340927D01*
X208066Y340018D01*
X207852Y338945D01*
Y332603D01*
X206582Y332172D01*
X205410Y333699D01*
X203269Y335342D01*
X200776Y336375D01*
X198100Y336727D01*
X195424Y336375D01*
X192931Y335342D01*
X190790Y333699D01*
X189146Y331558D01*
X189140Y331542D01*
X187870Y331794D01*
Y339422D01*
X187656Y340495D01*
X187049Y341405D01*
X181706Y346747D01*
X182686Y349113D01*
X183038Y351788D01*
X182686Y354464D01*
X181653Y356958D01*
X180010Y359099D01*
X177869Y360742D01*
X175376Y361774D01*
X172700Y362127D01*
X170024Y361774D01*
X167531Y360742D01*
X165389Y359099D01*
X163746Y356958D01*
X162714Y354464D01*
X162361Y351788D01*
X162714Y349113D01*
X163746Y346619D01*
X165389Y344478D01*
X167531Y342835D01*
X170024Y341802D01*
X172700Y341450D01*
X175376Y341802D01*
X177741Y342782D01*
X182262Y338261D01*
Y333737D01*
X180992Y333306D01*
X180395Y334084D01*
X178141Y335813D01*
X175517Y336901D01*
X174605Y337021D01*
Y326388D01*
X172700D01*
Y324483D01*
X162068D01*
X162188Y323572D01*
X163275Y320947D01*
X165004Y318693D01*
X167258Y316963D01*
X169883Y315876D01*
X170340Y315816D01*
X170257Y314546D01*
X150247D01*
X149697Y315816D01*
X150427Y316909D01*
X150779Y318680D01*
X150427Y320451D01*
X149423Y321953D01*
X147921Y322957D01*
X146150Y323309D01*
X144379Y322957D01*
X142877Y321953D01*
X142563Y321484D01*
X89221D01*
X88148Y321270D01*
X87239Y320663D01*
X74090Y307514D01*
X35904D01*
X34831Y307300D01*
X33921Y306693D01*
X28455Y301226D01*
X27847Y300316D01*
X27759Y299872D01*
X25412D01*
Y280872D01*
X34142D01*
X35412Y280872D01*
X36682Y280872D01*
X44142D01*
X45412Y280872D01*
X46682Y280872D01*
X54142D01*
X55412Y280872D01*
Y280872D01*
X55412D01*
Y280872D01*
X65412D01*
Y287568D01*
X73133D01*
X74206Y287782D01*
X75116Y288389D01*
X88632Y301906D01*
X124374D01*
X124792Y301281D01*
X126294Y300278D01*
X128065Y299925D01*
X129837Y300278D01*
X131338Y301281D01*
X131756Y301906D01*
X176422D01*
X177495Y302120D01*
X178404Y302727D01*
X193059Y317382D01*
X195424Y316402D01*
X198100Y316050D01*
X200776Y316402D01*
X203269Y317435D01*
X205410Y319078D01*
X206582Y320605D01*
X207852Y320174D01*
Y295898D01*
X204269Y292315D01*
X203661Y291405D01*
X203576Y290980D01*
X202250Y290340D01*
X201952Y290539D01*
X200180Y290891D01*
X199166Y290689D01*
X198113Y291752D01*
X198316Y292772D01*
X197963Y294543D01*
X196960Y296045D01*
X195458Y297049D01*
X193687Y297401D01*
X191915Y297049D01*
X190413Y296045D01*
X189410Y294543D01*
X189058Y292772D01*
X189410Y291001D01*
X190413Y289499D01*
X190883Y289185D01*
Y283111D01*
X189613Y282611D01*
X188460Y283381D01*
X186689Y283733D01*
X184918Y283381D01*
X183781Y282622D01*
X182866Y283537D01*
X183503Y284491D01*
X183855Y286262D01*
X183503Y288034D01*
X182499Y289535D01*
X180997Y290539D01*
X179226Y290891D01*
X177455Y290539D01*
X175953Y289535D01*
X174949Y288034D01*
X174597Y286262D01*
X174949Y284491D01*
X175953Y282989D01*
X176356Y282719D01*
Y189140D01*
X176570Y188067D01*
X177177Y187157D01*
X191034Y173301D01*
X190616Y171923D01*
X189835Y171768D01*
X188333Y170764D01*
X188019Y170295D01*
X174169D01*
X173570Y171415D01*
X173785Y171736D01*
X174137Y173507D01*
X173785Y175279D01*
X172781Y176780D01*
X171279Y177784D01*
X169508Y178136D01*
X169100Y178055D01*
X168020Y179135D01*
X168121Y179643D01*
X167769Y181415D01*
X166765Y182916D01*
X165263Y183920D01*
X163492Y184272D01*
X161721Y183920D01*
X160219Y182916D01*
X159215Y181415D01*
X158863Y179643D01*
X158973Y179090D01*
X149158Y169274D01*
X147942Y169643D01*
X147877Y169974D01*
X146873Y171475D01*
X145371Y172479D01*
X143600Y172831D01*
X141829Y172479D01*
X140327Y171475D01*
X139323Y169974D01*
X138971Y168202D01*
X139323Y166431D01*
X139545Y166099D01*
X138629Y165184D01*
X137497Y165940D01*
X135726Y166292D01*
X133955Y165940D01*
X132453Y164936D01*
X131449Y163435D01*
X131097Y161663D01*
X131436Y159957D01*
X131446Y159734D01*
X130795Y158687D01*
X72410D01*
X71337Y158474D01*
X71125Y158332D01*
X33586D01*
Y166423D01*
X33586Y166423D01*
X33514Y167693D01*
X33715Y168704D01*
X33363Y170475D01*
X32359Y171977D01*
X30857Y172980D01*
X29086Y173333D01*
X27315Y172980D01*
X25813Y171977D01*
X24809Y170475D01*
X24457Y168704D01*
X24631Y167831D01*
X24444Y167618D01*
X23360Y167236D01*
X23068Y167479D01*
Y171739D01*
X26170Y174841D01*
X27033Y176133D01*
X27336Y177657D01*
Y179140D01*
X35432D01*
Y203140D01*
X11432D01*
Y179140D01*
X17548D01*
X18033Y177967D01*
X16271Y176204D01*
X15408Y174912D01*
X15105Y173389D01*
Y166423D01*
X14586D01*
Y157423D01*
X15752D01*
Y151444D01*
X11368D01*
Y152550D01*
X2368D01*
Y143550D01*
X3058D01*
Y141780D01*
X10678D01*
Y143550D01*
X11368D01*
Y144776D01*
X15800D01*
X15943Y144058D01*
X16540Y143164D01*
X17434Y142567D01*
X18488Y142357D01*
X19684D01*
X20738Y142567D01*
X21586Y143133D01*
X22434Y142567D01*
X23488Y142357D01*
X24684D01*
X25738Y142567D01*
X26586Y143133D01*
X27434Y142567D01*
X28488Y142357D01*
X29684D01*
X30738Y142567D01*
X31586Y143133D01*
X32434Y142567D01*
X33488Y142357D01*
X34684D01*
X35738Y142567D01*
X36632Y143164D01*
X37229Y144058D01*
X37439Y145112D01*
Y145306D01*
X70127D01*
X70613Y144133D01*
X60163Y133683D01*
X59556Y132773D01*
X59342Y131700D01*
Y115547D01*
X58102Y115474D01*
X57102D01*
Y115474D01*
X48102D01*
Y113862D01*
X33595D01*
X31902Y115554D01*
Y115668D01*
X32229Y116158D01*
X32439Y117212D01*
Y123208D01*
X32229Y124262D01*
X31632Y125156D01*
X30738Y125753D01*
X29684Y125963D01*
X28488D01*
X27434Y125753D01*
X26586Y125187D01*
X25738Y125753D01*
X24684Y125963D01*
X23488D01*
X22434Y125753D01*
X21586Y125187D01*
X20738Y125753D01*
X19684Y125963D01*
X18488D01*
X17434Y125753D01*
X16540Y125156D01*
X15943Y124262D01*
X15733Y123208D01*
Y117212D01*
X15943Y116158D01*
X16270Y115668D01*
Y104939D01*
X15000Y104554D01*
X14803Y104849D01*
X13308Y105848D01*
X11544Y106199D01*
X3984D01*
X2220Y105848D01*
X725Y104849D01*
X-274Y103354D01*
X-624Y101590D01*
Y90530D01*
X-274Y88766D01*
X725Y87271D01*
X2220Y86272D01*
X3984Y85921D01*
X11544D01*
X13308Y86272D01*
X14803Y87271D01*
X15802Y88766D01*
X16152Y90530D01*
Y93244D01*
X16934D01*
X18012Y93458D01*
X18925Y94069D01*
X20772Y95915D01*
X21586Y96103D01*
X22400Y95915D01*
X24247Y94069D01*
X25160Y93458D01*
X26238Y93244D01*
X27875D01*
Y90530D01*
X28226Y88766D01*
X29225Y87271D01*
X30720Y86272D01*
X32484Y85921D01*
X40044D01*
X41808Y86272D01*
X43303Y87271D01*
X44302Y88766D01*
X44653Y90530D01*
Y101590D01*
X44302Y103354D01*
X43303Y104849D01*
X41808Y105848D01*
X40044Y106199D01*
X32484D01*
X30720Y105848D01*
X29225Y104849D01*
X28226Y103354D01*
X28172Y103081D01*
X26902Y103206D01*
Y110793D01*
X28172Y111319D01*
X30437Y109055D01*
X31350Y108444D01*
X32428Y108230D01*
X48102D01*
Y106474D01*
X57102D01*
Y106474D01*
X58102D01*
Y106474D01*
X67102D01*
Y115474D01*
X64950D01*
Y130539D01*
X80437Y146026D01*
X104405D01*
X105084Y144756D01*
X104696Y144174D01*
X104343Y142403D01*
X104696Y140632D01*
X105699Y139130D01*
X107201Y138126D01*
X108972Y137774D01*
X110744Y138126D01*
X112245Y139130D01*
X113249Y140632D01*
X113577Y142282D01*
X140019D01*
X140505Y141109D01*
X134167Y134771D01*
X133560Y133861D01*
X133346Y132788D01*
Y109918D01*
X131650D01*
Y100918D01*
X140650D01*
Y100918D01*
X141650D01*
Y100918D01*
X150650D01*
Y100918D01*
X151920Y101587D01*
X152587Y101142D01*
X154358Y100789D01*
X156130Y101142D01*
X157631Y102145D01*
X158635Y103647D01*
X158987Y105418D01*
X158635Y107190D01*
X157631Y108691D01*
X156130Y109695D01*
X154358Y110047D01*
X152587Y109695D01*
X151920Y109249D01*
X150749Y109866D01*
X151185Y111047D01*
X151626Y111706D01*
X151840Y112784D01*
Y114202D01*
X155024D01*
Y133202D01*
X143024D01*
Y114202D01*
X144663D01*
X145190Y112932D01*
X144159Y111901D01*
X143548Y110988D01*
X143336Y109918D01*
X141650D01*
Y109918D01*
X140650D01*
Y109918D01*
X138954D01*
Y131627D01*
X145544Y138217D01*
X160965D01*
X161009Y137888D01*
X162218Y134969D01*
X164141Y132463D01*
X166648Y130539D01*
X169567Y129330D01*
X172700Y128917D01*
X175833Y129330D01*
X178752Y130539D01*
X181258Y132463D01*
X183182Y134969D01*
X184391Y137888D01*
X184434Y138217D01*
X195704D01*
X196777Y138431D01*
X197686Y139038D01*
X200583Y141935D01*
X211006D01*
X211202Y141462D01*
X212243Y140104D01*
X213601Y139063D01*
X213601Y137716D01*
X212243Y136674D01*
X211815Y136116D01*
X208064D01*
X207821Y136278D01*
X206065Y136627D01*
X204309Y136278D01*
X202821Y135283D01*
X180010Y112473D01*
X179016Y110984D01*
X178666Y109228D01*
Y94951D01*
X173904D01*
Y91155D01*
X168951Y91155D01*
Y92892D01*
X148951D01*
Y92892D01*
X147932Y92470D01*
X145135Y95267D01*
X143646Y96262D01*
X141890Y96611D01*
X137514D01*
X137071Y96523D01*
X133014D01*
Y96523D01*
X132014D01*
Y96523D01*
X124333D01*
X123527Y97505D01*
X123601Y97878D01*
X123249Y99649D01*
X123472Y100918D01*
X123472D01*
Y108803D01*
X126439Y111770D01*
X127303Y113062D01*
X127529Y114202D01*
X129624D01*
Y133202D01*
X117624D01*
Y114216D01*
X116157Y112749D01*
X115294Y111457D01*
X115182Y110894D01*
X114479Y109928D01*
X113722Y109918D01*
X113472Y109918D01*
X113472Y109918D01*
X111635D01*
X111574Y110226D01*
X110963Y111139D01*
X109005Y113097D01*
X108542Y114202D01*
X108542D01*
X108542Y114202D01*
Y133202D01*
X96542D01*
Y117564D01*
X95486Y116858D01*
X94880Y117109D01*
X91747Y117522D01*
X88614Y117109D01*
X85695Y115900D01*
X83189Y113977D01*
X81265Y111470D01*
X80056Y108551D01*
X79644Y105418D01*
X80056Y102285D01*
X81265Y99366D01*
X83189Y96860D01*
X85695Y94936D01*
X88614Y93727D01*
X91747Y93315D01*
X94880Y93727D01*
X97799Y94936D01*
X100306Y96860D01*
X102229Y99366D01*
X102753Y100632D01*
X104301Y101049D01*
X104472Y100918D01*
X104725Y99693D01*
X104695Y99649D01*
X104343Y97878D01*
X104695Y96107D01*
X105699Y94605D01*
X107201Y93602D01*
X108972Y93249D01*
X110744Y93602D01*
X112245Y94605D01*
X113249Y96107D01*
X113325Y96489D01*
X114620D01*
X114696Y96107D01*
X115699Y94605D01*
X117201Y93602D01*
X118972Y93249D01*
X120744Y93602D01*
X121744Y94270D01*
X123014Y93644D01*
Y87523D01*
X124698D01*
Y81912D01*
X124912Y80834D01*
X125523Y79921D01*
X127261Y78183D01*
X128174Y77572D01*
X129252Y77358D01*
X135195D01*
X135501Y76901D01*
X137003Y75897D01*
X138774Y75545D01*
X140545Y75897D01*
X142047Y76901D01*
X143051Y78403D01*
X143403Y80174D01*
X143051Y81945D01*
X142047Y83447D01*
X140545Y84451D01*
X138774Y84803D01*
X137003Y84451D01*
X135501Y83447D01*
X135195Y82990D01*
X130419D01*
X130330Y83078D01*
Y87523D01*
X132014D01*
Y87523D01*
X133014D01*
Y87523D01*
X137071D01*
X137514Y87435D01*
X139990D01*
X142761Y84664D01*
X142877Y84490D01*
X144115Y83253D01*
X144115Y83253D01*
X145616Y82249D01*
X147388Y81897D01*
X147388Y81897D01*
X148951D01*
Y79892D01*
X151331D01*
Y63272D01*
X166571D01*
Y78512D01*
X166600D01*
Y79892D01*
X168951D01*
Y81897D01*
X173904Y81897D01*
Y78101D01*
X174687D01*
X175585Y77203D01*
X175585Y75545D01*
X174333Y75501D01*
X173904D01*
Y58651D01*
X174273D01*
Y54194D01*
X173754D01*
Y45194D01*
X173754D01*
X173999Y43924D01*
X173978Y43893D01*
X173626Y42122D01*
X173978Y40350D01*
X174981Y38849D01*
X176483Y37845D01*
X178254Y37493D01*
X180026Y37845D01*
X181528Y38849D01*
X182531Y40350D01*
X182883Y42122D01*
X182531Y43893D01*
X182510Y43924D01*
X182754Y45194D01*
X183739Y45884D01*
X184524D01*
Y53504D01*
X182754D01*
Y54194D01*
X182236D01*
Y58651D01*
X192604D01*
Y75501D01*
X192106D01*
X190854Y75545D01*
X190854Y77203D01*
X191752Y78101D01*
X192604D01*
Y94951D01*
X187843D01*
Y107328D01*
X208477Y127962D01*
X211815D01*
X212243Y127404D01*
X213601Y126363D01*
X215182Y125708D01*
X216878Y125484D01*
X218575Y125708D01*
X220156Y126363D01*
X221513Y127404D01*
X221941Y127962D01*
X224900D01*
X226454Y126407D01*
X227777Y125524D01*
X229337Y125213D01*
X235809D01*
Y122672D01*
X236037D01*
Y119090D01*
X250487D01*
X251293Y118109D01*
X251283Y118060D01*
X251597Y116480D01*
X252492Y115141D01*
X253832Y114246D01*
X255411Y113932D01*
X256763Y114201D01*
X258033Y113531D01*
Y102080D01*
X258207Y101203D01*
X258704Y100459D01*
X261156Y98007D01*
X261900Y97510D01*
X262777Y97335D01*
X271465D01*
X276241Y92559D01*
X276158Y91292D01*
X275743Y90974D01*
X274702Y89616D01*
X273355Y89616D01*
X272313Y90974D01*
X270956Y92016D01*
X269375Y92670D01*
X267678Y92894D01*
X265982Y92670D01*
X264401Y92016D01*
X263043Y90974D01*
X262002Y89616D01*
X260655D01*
X259613Y90974D01*
X258256Y92016D01*
X256675Y92670D01*
X254978Y92894D01*
X253282Y92670D01*
X251701Y92016D01*
X250343Y90974D01*
X249302Y89616D01*
X247955D01*
X246913Y90974D01*
X245556Y92016D01*
X243975Y92670D01*
X242278Y92894D01*
X240582Y92670D01*
X239001Y92016D01*
X237643Y90974D01*
X236602Y89616D01*
X235947Y88036D01*
X235724Y86339D01*
X235947Y84643D01*
X236602Y83062D01*
X237643Y81704D01*
X238539Y81017D01*
X238986Y80545D01*
X238839Y79355D01*
X238474Y78808D01*
X238161Y77233D01*
X238474Y75657D01*
X239367Y74321D01*
X240702Y73428D01*
X242278Y73115D01*
X243854Y73428D01*
X245190Y74321D01*
X246083Y75657D01*
X246396Y77233D01*
X246083Y78808D01*
X245717Y79355D01*
X245570Y80545D01*
X246018Y81017D01*
X246913Y81704D01*
X247955Y83062D01*
X249302D01*
X250343Y81704D01*
X251239Y81017D01*
X251686Y80545D01*
X251539Y79355D01*
X251174Y78808D01*
X250861Y77233D01*
X251174Y75657D01*
X252067Y74321D01*
X253402Y73428D01*
X254978Y73115D01*
X256554Y73428D01*
X257890Y74321D01*
X258783Y75657D01*
X259096Y77233D01*
X258783Y78808D01*
X258417Y79355D01*
X258270Y80545D01*
X258718Y81017D01*
X259613Y81704D01*
X260655Y83062D01*
X262002D01*
X263043Y81704D01*
X263932Y81022D01*
X264386Y80545D01*
X264231Y79358D01*
X263868Y78814D01*
X263554Y77239D01*
X263868Y75663D01*
X264761Y74327D01*
X266096Y73434D01*
X267672Y73121D01*
X269248Y73434D01*
X270584Y74327D01*
X271476Y75663D01*
X271790Y77239D01*
X271476Y78814D01*
X271116Y79354D01*
X270969Y80551D01*
X271416Y81016D01*
X272313Y81704D01*
X273355Y83062D01*
X274702Y83062D01*
X275743Y81704D01*
X277101Y80663D01*
X277574Y80466D01*
Y72839D01*
X277105Y72525D01*
X276102Y71023D01*
X275749Y69252D01*
X276102Y67481D01*
X277105Y65979D01*
X278274Y65198D01*
X277889Y63928D01*
X231016D01*
X229943Y63714D01*
X229033Y63107D01*
X216867Y50940D01*
X201532D01*
Y31640D01*
X220832D01*
Y46975D01*
X232177Y58320D01*
X273251D01*
X273777Y57050D01*
X266564Y49837D01*
X264501Y50692D01*
X261982Y51023D01*
X259463Y50692D01*
X257115Y49719D01*
X255100Y48172D01*
X253553Y46157D01*
X252580Y43809D01*
X252249Y41290D01*
X252580Y38771D01*
X253553Y36423D01*
X255100Y34408D01*
X257115Y32861D01*
X259463Y31888D01*
X261982Y31557D01*
X264501Y31888D01*
X266849Y32861D01*
X268864Y34408D01*
X270411Y36423D01*
X271384Y38771D01*
X271715Y41290D01*
X271384Y43809D01*
X270529Y45872D01*
X277623Y52966D01*
X299552D01*
X300625Y53180D01*
X301535Y53787D01*
X307800Y60052D01*
X308407Y60962D01*
X308621Y62035D01*
Y74275D01*
X308690Y74321D01*
X309583Y75657D01*
X309896Y77233D01*
X309583Y78808D01*
X309217Y79355D01*
X309070Y80545D01*
X309518Y81017D01*
X310413Y81704D01*
X311455Y83062D01*
X312802Y83062D01*
X313843Y81704D01*
X314739Y81017D01*
X315186Y80545D01*
X315039Y79355D01*
X314674Y78808D01*
X314361Y77233D01*
X314674Y75657D01*
X315567Y74321D01*
X315713Y74223D01*
Y60563D01*
X310799Y55649D01*
X310192Y54740D01*
X309978Y53667D01*
Y50574D01*
X307915Y49719D01*
X305900Y48172D01*
X304353Y46157D01*
X303380Y43809D01*
X303049Y41290D01*
X303380Y38771D01*
X304353Y36423D01*
X305900Y34408D01*
X307915Y32861D01*
X310263Y31888D01*
X312782Y31557D01*
X315301Y31888D01*
X317364Y32743D01*
X326961Y23145D01*
X327871Y22538D01*
X328944Y22324D01*
X374259D01*
X375332Y22538D01*
X376242Y23145D01*
X379486Y26389D01*
X380094Y27299D01*
X380307Y28372D01*
Y29257D01*
X382004D01*
Y38257D01*
X382004D01*
Y39258D01*
X382004D01*
Y48257D01*
X382004D01*
X381905Y48377D01*
X382132Y49518D01*
X381780Y51290D01*
X380777Y52791D01*
X379275Y53795D01*
X377504Y54147D01*
X375732Y53795D01*
X374230Y52791D01*
X373227Y51290D01*
X372875Y49518D01*
X372994Y48919D01*
X372121Y47649D01*
X370032D01*
X369117Y48919D01*
X369218Y49429D01*
X368866Y51200D01*
X367863Y52702D01*
X366361Y53705D01*
X364590Y54057D01*
X362818Y53705D01*
X361316Y52702D01*
X360313Y51200D01*
X359961Y49429D01*
X360188Y48287D01*
X360089Y48168D01*
X360090D01*
Y39168D01*
X360089D01*
X360089Y38168D01*
X360090D01*
Y36472D01*
X348006D01*
X347157Y37741D01*
X347584Y38771D01*
X347915Y41290D01*
X347584Y43809D01*
X346611Y46157D01*
X345065Y48172D01*
X343049Y49719D01*
X340701Y50692D01*
X338182Y51023D01*
X335663Y50692D01*
X335077Y50449D01*
X334021Y51154D01*
Y74275D01*
X334090Y74321D01*
X334982Y75657D01*
X335296Y77233D01*
X334982Y78808D01*
X334617Y79355D01*
X334470Y80545D01*
X334918Y81017D01*
X335813Y81704D01*
X336855Y83062D01*
X338202Y83062D01*
X339243Y81704D01*
X340139Y81017D01*
X340586Y80545D01*
X340439Y79355D01*
X340074Y78808D01*
X339761Y77233D01*
X340074Y75657D01*
X340967Y74321D01*
X342302Y73428D01*
X343878Y73115D01*
X345454Y73428D01*
X346790Y74321D01*
X347682Y75657D01*
X347996Y77233D01*
X347682Y78808D01*
X347317Y79355D01*
X347170Y80545D01*
X347618Y81017D01*
X348513Y81704D01*
X349555Y83062D01*
X350210Y84643D01*
X350433Y86339D01*
X350210Y88036D01*
X349555Y89616D01*
X348513Y90974D01*
X347156Y92016D01*
X345575Y92670D01*
X343878Y92894D01*
X342182Y92670D01*
X340601Y92016D01*
X339243Y90974D01*
X338202Y89616D01*
X336855Y89616D01*
X335813Y90974D01*
X334456Y92016D01*
X332875Y92670D01*
X331178Y92894D01*
X329482Y92670D01*
X327901Y92016D01*
X326543Y90974D01*
X325502Y89616D01*
X324155Y89616D01*
X323113Y90974D01*
X321755Y92016D01*
X320175Y92670D01*
X318478Y92894D01*
X316782Y92670D01*
X315201Y92016D01*
X313843Y90974D01*
X312802Y89616D01*
X311455Y89616D01*
X310413Y90974D01*
X309056Y92016D01*
X307475Y92670D01*
X305778Y92894D01*
X304082Y92670D01*
X302501Y92016D01*
X301143Y90974D01*
X300102Y89616D01*
X298755Y89616D01*
X297713Y90974D01*
X296356Y92016D01*
X294775Y92670D01*
X293078Y92894D01*
X291382Y92670D01*
X289801Y92016D01*
X288443Y90974D01*
X287402Y89616D01*
X286055Y89616D01*
X285013Y90974D01*
X283656Y92016D01*
X282506Y92492D01*
X282496Y92541D01*
X281999Y93285D01*
X275038Y100247D01*
X275564Y101517D01*
X289793D01*
Y112124D01*
X293679Y116011D01*
X294176Y116755D01*
X294574Y117519D01*
X311795D01*
Y118427D01*
X313581D01*
Y111846D01*
X313809D01*
Y110804D01*
X322445D01*
Y111846D01*
X322674D01*
Y113252D01*
X323847Y113738D01*
X324925Y112660D01*
Y109012D01*
X333256D01*
Y109240D01*
X334297Y109240D01*
Y117876D01*
X333256Y117876D01*
Y118105D01*
X326284D01*
X326284Y121919D01*
X327554Y122639D01*
X327635Y122590D01*
Y119497D01*
X335966D01*
Y119725D01*
X337007D01*
X337007Y126863D01*
X337007Y128038D01*
X337007D01*
Y128361D01*
X335966Y128590D01*
X335832Y128590D01*
X335219D01*
X334231Y129270D01*
Y129593D01*
X334231Y130768D01*
X334231Y137806D01*
X334472Y139076D01*
X341809Y139076D01*
X345697Y135188D01*
X346441Y134691D01*
X347318Y134516D01*
X349422D01*
Y129185D01*
X349650D01*
Y128143D01*
X358286D01*
Y129185D01*
X358515D01*
Y137516D01*
X356091D01*
X356086Y137536D01*
X356086Y137536D01*
Y137536D01*
X355950Y137741D01*
X355589Y138280D01*
X355439Y138430D01*
X355439Y138430D01*
X355439Y138430D01*
X355219Y138578D01*
X354696Y138927D01*
X354696Y138927D01*
X354696Y138927D01*
X354284Y139009D01*
X353818Y139102D01*
X353818Y139102D01*
X353818Y139102D01*
X348268Y139102D01*
X344549Y142821D01*
X344678Y143505D01*
X345018Y144091D01*
X345298D01*
Y144319D01*
X346339D01*
Y151607D01*
X347054Y151749D01*
X347963Y152356D01*
X347963Y152357D01*
X350867Y155260D01*
X350867Y155260D01*
X351098Y155607D01*
X353051D01*
Y156076D01*
X356596D01*
Y154281D01*
X356824D01*
Y153239D01*
X365460D01*
Y154281D01*
X365689D01*
Y162612D01*
X362699D01*
X362275Y163036D01*
X360952Y163920D01*
X359392Y164230D01*
X353051D01*
Y164700D01*
X345939D01*
X344720Y164700D01*
Y164700D01*
X344669D01*
Y164700D01*
X338298D01*
X337560Y165739D01*
X337671Y166184D01*
X337766Y166354D01*
X340583D01*
Y173466D01*
X340583Y174685D01*
X340583D01*
X340583Y174736D01*
X340583D01*
Y176037D01*
X344138D01*
X344587Y176127D01*
X345042Y176184D01*
X345132Y176235D01*
X345234Y176255D01*
X345615Y176510D01*
X346013Y176736D01*
X346273Y176962D01*
X351256D01*
Y183811D01*
X352322Y184302D01*
X360331D01*
X360412Y183899D01*
X361032Y182970D01*
X367479Y176523D01*
X368408Y175902D01*
X369504Y175685D01*
X372395D01*
Y174002D01*
X379507D01*
X380726Y174002D01*
Y174002D01*
X380777D01*
Y174002D01*
X384767D01*
X384767Y172368D01*
X382825D01*
Y164037D01*
X383053D01*
Y162995D01*
X391689D01*
Y164037D01*
X391918D01*
Y170014D01*
X392583Y171009D01*
X399314D01*
X400311Y171006D01*
X400583Y171006D01*
X400583Y170349D01*
D01*
Y170349D01*
X400583Y170349D01*
X400583Y170349D01*
Y162009D01*
X405580D01*
Y171006D01*
X402849D01*
X401852Y171008D01*
X401580Y171009D01*
X401580Y172843D01*
X401580Y176006D01*
X401580D01*
Y179009D01*
X401580D01*
Y187009D01*
X401580D01*
Y192006D01*
X401580D01*
Y196006D01*
X401580D01*
X401580Y196006D01*
X401580Y200006D01*
X402849Y200009D01*
X405580D01*
Y200009D01*
X419314D01*
X420583Y200006D01*
X420583Y199350D01*
Y195009D01*
X424835D01*
X425081Y194960D01*
X430363D01*
X431338Y195154D01*
X432165Y195706D01*
X438428Y201970D01*
X438429Y201970D01*
X438981Y202796D01*
X439175Y203771D01*
X439175Y214858D01*
X439749D01*
Y223055D01*
X439749Y223189D01*
X439520Y224230D01*
X439197D01*
Y224230D01*
X438022Y224230D01*
X430884Y224230D01*
Y223189D01*
X430656D01*
Y222764D01*
X428941D01*
Y222853D01*
X428712D01*
Y223894D01*
X420076D01*
Y223087D01*
X416865D01*
X415788Y223686D01*
X415559Y224727D01*
X414061Y224727D01*
X406923Y224727D01*
Y223686D01*
X406695D01*
Y215355D01*
X406695D01*
X407275Y214200D01*
X407033Y213745D01*
X405631Y213479D01*
X402402Y216709D01*
X401575Y217261D01*
X400600Y217455D01*
X392801Y217455D01*
X391826Y217261D01*
X391000Y216709D01*
X388177Y213886D01*
X383068D01*
Y212778D01*
X381249D01*
X380079Y212545D01*
X379087Y211882D01*
X376572Y209367D01*
X375910Y208375D01*
X375677Y207205D01*
Y204838D01*
X374188D01*
Y197726D01*
X374188Y196507D01*
X374188D01*
Y196456D01*
X374188D01*
Y188125D01*
X383281D01*
Y189743D01*
X385137D01*
X385816Y188472D01*
X385311Y187716D01*
X384996Y186136D01*
X385311Y184556D01*
X385438Y184365D01*
X384760Y183095D01*
X381996D01*
X380777Y183095D01*
Y183095D01*
X380726D01*
Y183095D01*
X372395D01*
Y181412D01*
X370690D01*
X365921Y186181D01*
Y188701D01*
X365703Y189797D01*
X365082Y190726D01*
X364274Y191534D01*
X363345Y192155D01*
X362249Y192373D01*
X361187D01*
Y193675D01*
X352094D01*
Y193675D01*
X351256Y193675D01*
Y193675D01*
X342163D01*
X342163Y193675D01*
Y193675D01*
X340893Y193372D01*
X340303Y193766D01*
X340057Y193815D01*
X339712Y195178D01*
X339988Y195592D01*
X340163Y196469D01*
Y222700D01*
X339988Y223577D01*
X339491Y224321D01*
X339181Y224631D01*
X339328Y225370D01*
X339014Y226950D01*
X338119Y228289D01*
X336780Y229184D01*
X335200Y229498D01*
X333722Y229204D01*
X333443Y229457D01*
X332933Y230243D01*
X333296Y230787D01*
X333471Y231664D01*
Y240255D01*
X334456Y240663D01*
X335813Y241704D01*
X336855Y243062D01*
X338202Y243062D01*
X339243Y241704D01*
X340601Y240663D01*
X342182Y240008D01*
X343878Y239785D01*
X345575Y240008D01*
X347156Y240663D01*
X348513Y241704D01*
X349555Y243062D01*
X350210Y244643D01*
X350433Y246339D01*
X350210Y248036D01*
X349555Y249617D01*
X348513Y250974D01*
X347618Y251661D01*
X347335Y251959D01*
X347387Y252519D01*
X347678Y253153D01*
X459363D01*
X459809Y252855D01*
X460882Y252642D01*
X461955Y252855D01*
X462865Y253463D01*
X469971Y260569D01*
X470578Y261479D01*
X470792Y262552D01*
Y282915D01*
X479019Y291142D01*
X510880D01*
X515473Y286549D01*
X516382Y285941D01*
X517455Y285728D01*
X525787D01*
Y282532D01*
X526707D01*
Y278492D01*
X536867D01*
Y282532D01*
X537787D01*
Y285728D01*
X543059D01*
Y282532D01*
X543979D01*
Y278492D01*
X554139D01*
Y282532D01*
X555059D01*
Y285728D01*
X560585D01*
Y282532D01*
X561505D01*
Y279564D01*
X560553D01*
Y267500D01*
X572617D01*
Y268159D01*
X588027D01*
Y265086D01*
X612919D01*
Y268159D01*
X617958D01*
X633014Y253104D01*
X632550Y252640D01*
Y217025D01*
X631280Y216248D01*
X629966Y216509D01*
X629965Y216509D01*
X545987D01*
X540459Y222037D01*
Y224130D01*
X543580D01*
Y255130D01*
X528080D01*
Y247086D01*
X526907Y246600D01*
X514751Y258756D01*
Y267750D01*
X516622D01*
Y279750D01*
X503622D01*
Y267750D01*
X505493D01*
Y256839D01*
X505493Y256838D01*
X505845Y255067D01*
X506849Y253565D01*
X524057Y236357D01*
X524057Y236357D01*
X525559Y235354D01*
X527330Y235001D01*
X528080D01*
Y224130D01*
X531202D01*
Y220120D01*
X531202Y220120D01*
X531554Y218348D01*
X532557Y216847D01*
X540797Y208607D01*
X540797Y208607D01*
X542298Y207604D01*
X544070Y207251D01*
X628048D01*
X632550Y202750D01*
Y180295D01*
X631377Y179809D01*
X623610Y187575D01*
X622108Y188579D01*
X620337Y188931D01*
X620337Y188931D01*
X598065D01*
Y199802D01*
X582565D01*
Y168802D01*
X585686D01*
Y163722D01*
X581653D01*
Y131722D01*
X600153D01*
Y163722D01*
X594944D01*
Y168802D01*
X598065D01*
Y179673D01*
X618420D01*
X632550Y165543D01*
Y126320D01*
X722499D01*
X728054Y120765D01*
Y99732D01*
X723482Y95160D01*
X635598D01*
X632550Y92112D01*
Y46721D01*
X611254D01*
X609995Y46749D01*
X609995Y47991D01*
Y52156D01*
X613077D01*
X614100Y51472D01*
X615871Y51120D01*
X617643Y51472D01*
X619144Y52476D01*
X620148Y53977D01*
X620500Y55749D01*
X620148Y57520D01*
X619144Y59022D01*
X617643Y60025D01*
X615871Y60378D01*
X614100Y60025D01*
X613077Y59342D01*
X609995D01*
Y64749D01*
X596995D01*
X596995Y46749D01*
X595737Y46721D01*
X592254D01*
X590995Y46749D01*
Y64749D01*
X577995D01*
Y46749D01*
X576737Y46721D01*
X499959D01*
X499567Y46983D01*
X498592Y47177D01*
X491092D01*
X490116Y46983D01*
X489289Y46430D01*
X488737Y45603D01*
X488543Y44628D01*
Y41628D01*
X488737Y40653D01*
X489254Y39878D01*
X488737Y39104D01*
X488543Y38128D01*
Y35128D01*
X488725Y34214D01*
X488729Y34139D01*
X488017Y32944D01*
X476142D01*
X470466Y38619D01*
X469553Y39230D01*
X468475Y39444D01*
X464167D01*
X463455Y40639D01*
X463459Y40714D01*
X463641Y41628D01*
Y44628D01*
X463447Y45603D01*
X462929Y46378D01*
X463447Y47153D01*
X463641Y48128D01*
Y51128D01*
X463447Y52104D01*
X462894Y52930D01*
X462067Y53483D01*
X461092Y53677D01*
X453592D01*
X452616Y53483D01*
X451789Y52930D01*
X451456Y52432D01*
X424987D01*
X423914Y52218D01*
X423005Y51611D01*
X421409Y50015D01*
X420801Y49105D01*
X420587Y48032D01*
Y35755D01*
X420118Y35441D01*
X419115Y33939D01*
X418762Y32168D01*
X419115Y30397D01*
X420118Y28895D01*
X421620Y27891D01*
X423391Y27539D01*
X425163Y27891D01*
X426082Y28506D01*
X427263Y28373D01*
X427581Y28096D01*
X428410Y26855D01*
X429912Y25851D01*
X431683Y25499D01*
X433455Y25851D01*
X434956Y26855D01*
X435489Y27652D01*
X436588Y28090D01*
X437059Y27890D01*
X438197Y27129D01*
X439969Y26777D01*
X441740Y27129D01*
X443242Y28133D01*
X444245Y29635D01*
X444598Y31406D01*
X444491Y31945D01*
X446357Y33812D01*
X450517D01*
X451229Y32617D01*
X451225Y32542D01*
X451043Y31628D01*
Y28628D01*
X451237Y27653D01*
X451789Y26826D01*
X452616Y26273D01*
X453045Y26188D01*
X453065Y26139D01*
X452713Y24367D01*
X453065Y22596D01*
X454068Y21094D01*
X455570Y20091D01*
X457342Y19738D01*
X459113Y20091D01*
X460615Y21094D01*
X461618Y22596D01*
X461971Y24367D01*
X461618Y26139D01*
X461639Y26188D01*
X462067Y26273D01*
X462894Y26826D01*
X463447Y27653D01*
X463641Y28628D01*
Y31628D01*
X463459Y32542D01*
X463455Y32617D01*
X464166Y33812D01*
X467309D01*
X472984Y28137D01*
X473898Y27526D01*
X474975Y27312D01*
X488964D01*
X489289Y26826D01*
X490116Y26273D01*
X491092Y26079D01*
X498592D01*
X499567Y26273D01*
X500394Y26826D01*
X500719Y27312D01*
X512377D01*
X512683Y26855D01*
X514185Y25851D01*
X515956Y25499D01*
X517727Y25851D01*
X519229Y26855D01*
X520233Y28357D01*
X520585Y30128D01*
X520259Y31765D01*
X520341Y32137D01*
X520821Y33035D01*
X613077D01*
X614100Y32351D01*
X615871Y31999D01*
X617643Y32351D01*
X618666Y33035D01*
X632550D01*
Y3334D01*
X3334D01*
Y25632D01*
X3345Y25645D01*
X3356Y25645D01*
X2974Y32446D01*
X1791Y39408D01*
X-164Y46194D01*
X-2867Y52719D01*
X-6283Y58900D01*
X-10369Y64659D01*
X-15075Y69925D01*
X-20341Y74630D01*
X-26100Y78717D01*
X-32281Y82133D01*
X-38806Y84836D01*
X-45592Y86791D01*
X-52554Y87974D01*
X-58596Y88313D01*
X-59605Y88370D01*
X-59855Y88356D01*
X-61118Y88334D01*
X-81666D01*
Y299552D01*
X-44588D01*
Y280872D01*
X-42574D01*
Y278142D01*
X-44128D01*
Y269142D01*
X-35128D01*
Y269142D01*
X-34273D01*
X-33003Y268792D01*
Y264946D01*
X-34128Y264596D01*
X-35128D01*
Y264596D01*
X-44128D01*
Y255596D01*
X-43003D01*
Y251388D01*
X-44208D01*
Y242388D01*
X-44208D01*
Y241388D01*
X-44208D01*
Y232388D01*
X-43083D01*
Y227742D01*
X-45708D01*
Y215742D01*
X-43083D01*
Y207412D01*
X-46708D01*
Y192912D01*
X-32708D01*
Y207412D01*
X-36333D01*
Y215742D01*
X-33708D01*
Y215764D01*
X-32810Y216662D01*
X-30708Y216662D01*
Y215742D01*
X-18708D01*
Y217113D01*
X-10595D01*
X-10595Y217113D01*
X-8824Y217465D01*
X-7322Y218469D01*
X720Y226511D01*
X11432D01*
Y219140D01*
X35432D01*
Y243140D01*
X28455D01*
X28143Y244410D01*
X28187Y244476D01*
X28579Y246446D01*
X28187Y248416D01*
X27071Y250085D01*
X25401Y251201D01*
X23432Y251593D01*
X21462Y251201D01*
X19792Y250085D01*
X18677Y248416D01*
X18285Y246446D01*
X18677Y244476D01*
X18721Y244410D01*
X18408Y243140D01*
X11432D01*
Y235769D01*
X-1197D01*
X-1197Y235769D01*
X-2969Y235417D01*
X-4470Y234413D01*
X-12513Y226371D01*
X-18708D01*
Y227742D01*
X-30708D01*
Y226822D01*
X-32810Y226822D01*
X-33708Y227720D01*
Y227742D01*
X-36333D01*
Y232388D01*
X-35208D01*
Y241388D01*
X-35208D01*
Y242388D01*
X-35208D01*
Y251388D01*
X-36253D01*
Y255246D01*
X-35128Y255596D01*
X-34128D01*
Y255596D01*
X-25128D01*
Y264596D01*
X-26253D01*
Y269142D01*
X-25128D01*
Y278142D01*
X-26213D01*
Y280872D01*
X-24588D01*
Y299552D01*
X-20188D01*
X-20188Y299552D01*
Y370602D01*
X-20188Y371552D01*
X-19051Y371872D01*
X-15858D01*
X-14588Y371872D01*
Y371872D01*
X-14588D01*
Y371872D01*
X-5858D01*
X-4588Y371872D01*
X-3318Y371872D01*
X4142D01*
X5412Y371872D01*
X6682Y371872D01*
X15412D01*
Y390872D01*
X6682D01*
X5412Y390872D01*
X4142Y390872D01*
X-3318D01*
X-4588Y390872D01*
X-5606Y391479D01*
Y392112D01*
X-5910Y393636D01*
X-6773Y394927D01*
X-8953Y397107D01*
X-10244Y397971D01*
X-11768Y398274D01*
X-15606D01*
Y403534D01*
X-7864D01*
Y405437D01*
X-6594Y405872D01*
X-5926Y405426D01*
X-4402Y405122D01*
X-2298D01*
Y404604D01*
X-1779D01*
Y401585D01*
X-2075Y401143D01*
X-2427Y399372D01*
X-2075Y397601D01*
X-1071Y396099D01*
X431Y395095D01*
X2202Y394743D01*
X3973Y395095D01*
X5475Y396099D01*
X6479Y397601D01*
X6831Y399372D01*
X6479Y401143D01*
X6184Y401585D01*
Y404604D01*
X6702D01*
Y413604D01*
X6012D01*
Y415374D01*
X-1608D01*
Y414588D01*
X-2298Y413604D01*
X-3568Y413552D01*
X-3808Y413713D01*
X-5332Y414016D01*
X-7864D01*
Y416534D01*
X-8981D01*
X-10244Y416551D01*
X-10244Y417804D01*
Y433154D01*
X-25484D01*
Y417914D01*
X-25484Y416551D01*
X-26747Y416534D01*
X-27864D01*
Y403534D01*
X-23570D01*
Y390872D01*
X-24588D01*
Y372822D01*
X-24588Y371872D01*
X-25726Y371552D01*
X-78613D01*
X-79790Y371552D01*
X-79883Y371552D01*
X-79883Y371552D01*
X-81666D01*
Y532666D01*
X403289D01*
X403775Y531493D01*
D02*
G37*
G36*
X442931Y526452D02*
Y511212D01*
Y502322D01*
Y487082D01*
Y457342D01*
X440391Y454802D01*
X380518D01*
X378290Y457030D01*
Y498207D01*
X412749Y532666D01*
X442931D01*
Y526452D01*
D02*
G37*
G36*
X564980Y527722D02*
X564980Y463399D01*
X563925Y462879D01*
X503559D01*
X502779Y462724D01*
X502117Y462282D01*
X502117Y462282D01*
X499127Y459291D01*
X499043D01*
Y459208D01*
X489878Y450043D01*
X489878Y450043D01*
X489550Y449552D01*
X489151Y449324D01*
X488088Y449113D01*
X487744Y449342D01*
X486964Y449497D01*
X382848Y449497D01*
X382848Y449497D01*
X382068Y449342D01*
X381406Y448900D01*
X379463Y446957D01*
X378290Y447443D01*
Y452425D01*
X379560Y453037D01*
X379738Y452918D01*
X380518Y452763D01*
X440391D01*
X440391Y452763D01*
X441172Y452918D01*
X441833Y453360D01*
X441833Y453360D01*
X444373Y455900D01*
X444815Y456562D01*
X444971Y457342D01*
Y487082D01*
X450551Y487082D01*
Y502322D01*
X444971Y502322D01*
Y511212D01*
X450551D01*
Y526452D01*
X444971D01*
Y532666D01*
X560036D01*
X564980Y527722D01*
D02*
G37*
G36*
X612540Y450172D02*
X612540Y437510D01*
X610470Y435440D01*
X599698Y435440D01*
X591864Y427606D01*
X568893Y427606D01*
X551247Y445252D01*
X516251Y445252D01*
X512162Y441164D01*
X512162Y397966D01*
X511108Y396912D01*
X505842D01*
X505656Y397009D01*
X504789Y397634D01*
Y400872D01*
X504740Y401117D01*
Y415385D01*
X504740Y415385D01*
X504585Y416165D01*
X504511Y416276D01*
Y418693D01*
X491320Y431884D01*
X491320Y448601D01*
X503559Y460840D01*
X601872D01*
X612540Y450172D01*
D02*
G37*
G36*
X563583Y422867D02*
Y399063D01*
X561432Y396912D01*
X517990D01*
X514920Y399982D01*
Y421628D01*
X529420D01*
Y439408D01*
X529420Y439408D01*
X547042Y439408D01*
X563583Y422867D01*
D02*
G37*
G36*
X486964Y447458D02*
X488100Y446322D01*
X488100Y429986D01*
X502701Y415385D01*
Y400872D01*
X502750D01*
Y397634D01*
X502028Y396912D01*
X478491D01*
Y396912D01*
X468331D01*
X467333Y397567D01*
X455288Y409612D01*
X381470Y409612D01*
X378435Y412647D01*
Y443045D01*
X382848Y447458D01*
X486964Y447458D01*
D02*
G37*
G36*
X567451Y426164D02*
X568112Y425722D01*
X568893Y425567D01*
X575089D01*
Y397051D01*
X568722Y390684D01*
X567718Y389182D01*
X567366Y387411D01*
X567366Y387411D01*
Y333840D01*
X518764D01*
X517511Y333882D01*
X517511Y335650D01*
X518409Y336548D01*
X524446D01*
X525722Y336802D01*
X526804Y337524D01*
X531778Y342499D01*
X532500Y343580D01*
X532754Y344856D01*
Y360781D01*
X532500Y362057D01*
X531777Y363139D01*
X522952Y371964D01*
X522201Y372872D01*
X522201D01*
X522201Y372872D01*
Y387872D01*
X512201D01*
Y372872D01*
X513893D01*
X514121Y371724D01*
X514844Y370643D01*
X526086Y359400D01*
Y346237D01*
X523065Y343216D01*
X517511D01*
Y345882D01*
X517489D01*
X516591Y346780D01*
X516591Y349922D01*
X506431D01*
X506431Y345882D01*
X505511D01*
Y343475D01*
X494657D01*
Y345882D01*
X493737D01*
Y348882D01*
X494657D01*
Y360882D01*
X482657D01*
Y358475D01*
X480692D01*
X479669Y359159D01*
X477898Y359511D01*
X476127Y359159D01*
X474625Y358155D01*
X473621Y356653D01*
X473269Y354882D01*
X473621Y353111D01*
X474625Y351609D01*
X476127Y350605D01*
X477898Y350253D01*
X479669Y350605D01*
X480692Y351289D01*
X482657D01*
Y348882D01*
X482679D01*
X483577Y347984D01*
X483577Y345882D01*
X482657D01*
X482657Y333882D01*
X481405Y333840D01*
X447627D01*
X438130Y343337D01*
Y366220D01*
X439303Y366706D01*
X440591Y365418D01*
X441253Y364976D01*
X442033Y364821D01*
X500122D01*
X500902Y364976D01*
X501564Y365418D01*
X501564Y365418D01*
X504104Y367958D01*
X504546Y368620D01*
X504701Y369400D01*
Y391832D01*
X504546Y392612D01*
X504104Y393274D01*
X503741Y393517D01*
X503475Y394379D01*
X503506Y394998D01*
X504086Y395364D01*
X504627Y395270D01*
X504711Y395202D01*
X504896Y395105D01*
X504985Y395079D01*
X505061Y395028D01*
X505364Y394968D01*
X505659Y394881D01*
X505751Y394891D01*
X505842Y394873D01*
X511108D01*
X511889Y395028D01*
X512550Y395470D01*
X512550Y395470D01*
X513604Y396524D01*
X513642Y396580D01*
X515174Y396844D01*
X516548Y395470D01*
X517210Y395028D01*
X517990Y394873D01*
X561432D01*
X561432Y394873D01*
X562212Y395028D01*
X562874Y395470D01*
X562874Y395470D01*
X565025Y397621D01*
X565467Y398283D01*
X565622Y399063D01*
Y422867D01*
X565467Y423647D01*
X565025Y424309D01*
X565025Y424309D01*
X548484Y440850D01*
X547822Y441292D01*
X547042Y441447D01*
X529420Y441447D01*
X529420Y441447D01*
X528640Y441292D01*
X527978Y440850D01*
X527978Y440850D01*
X527536Y440188D01*
X527381Y439408D01*
X515067D01*
X514560Y440678D01*
X517095Y443213D01*
X550402Y443213D01*
X567451Y426164D01*
D02*
G37*
G36*
X502662Y369400D02*
X500122Y366860D01*
X442033D01*
X439250Y369643D01*
Y384212D01*
X440520Y385482D01*
X455631D01*
X461981Y391832D01*
X502662D01*
Y369400D01*
D02*
G37*
G36*
X377979Y316131D02*
X378193Y315053D01*
X378804Y314140D01*
X382494Y310449D01*
Y271364D01*
X378271Y267140D01*
X359124D01*
X358638Y268313D01*
X362114Y271790D01*
X362725Y272704D01*
X362939Y273781D01*
Y303932D01*
X372903Y313896D01*
X373513Y314809D01*
X373728Y315887D01*
Y330591D01*
X375028D01*
X375412Y330591D01*
Y330591D01*
X376295Y330598D01*
Y330598D01*
X377979D01*
Y316131D01*
D02*
G37*
G36*
X385295Y330598D02*
X386356Y330591D01*
X386562Y330591D01*
X388040D01*
Y318679D01*
X388254Y317601D01*
X388864Y316688D01*
X406685Y298867D01*
Y265544D01*
X404259Y263117D01*
X383872D01*
X383386Y264291D01*
X387302Y268206D01*
X387912Y269119D01*
X388127Y270197D01*
Y311616D01*
X387912Y312693D01*
X387302Y313607D01*
X383611Y317298D01*
Y330598D01*
X385295D01*
Y330598D01*
D02*
G37*
G36*
X317406Y218428D02*
X317406Y203187D01*
X313700D01*
Y197990D01*
X313700D01*
Y188187D01*
X313700D01*
Y177990D01*
X313700D01*
Y172010D01*
X310802Y169112D01*
X310305Y168368D01*
X310131Y167491D01*
Y163431D01*
X310305Y162554D01*
X310802Y161810D01*
X313645Y158967D01*
X313700Y158931D01*
Y154087D01*
X309600D01*
Y154087D01*
X284600D01*
Y154087D01*
X265697D01*
Y158187D01*
X255700D01*
X255513Y159380D01*
Y161866D01*
X256636Y162990D01*
X265697D01*
Y168187D01*
X265697D01*
Y173187D01*
X265697D01*
Y177990D01*
X265697D01*
Y182990D01*
Y193187D01*
X265697D01*
Y197990D01*
X265697D01*
Y202090D01*
X274797D01*
Y202090D01*
X279797D01*
Y202090D01*
X284600D01*
Y202090D01*
X289797D01*
Y202090D01*
X294600D01*
Y202090D01*
X309797D01*
Y212087D01*
X310321Y213140D01*
X316136Y218954D01*
X317406Y218428D01*
D02*
G37*
G36*
X247012Y199350D02*
X247344Y198945D01*
X247614Y197589D01*
X248508Y196250D01*
X249848Y195355D01*
X250829Y195160D01*
X251280Y193816D01*
X237849Y180384D01*
X233014Y180384D01*
X232137Y180209D01*
X231393Y179712D01*
X224272Y172591D01*
X222773Y172889D01*
X222555Y173417D01*
X221513Y174774D01*
X220156Y175816D01*
X220156Y177163D01*
X221513Y178204D01*
X222555Y179562D01*
X222963Y180546D01*
X223604D01*
X224482Y180721D01*
X225225Y181218D01*
X237146Y193139D01*
X237643Y193883D01*
X237818Y194760D01*
X237818Y198670D01*
X239088Y199893D01*
X246148Y199893D01*
X247012Y199350D01*
D02*
G37*
G36*
X244386Y147775D02*
X240655Y145094D01*
X240285Y145249D01*
Y145249D01*
X239872Y145403D01*
X239447Y145519D01*
X239014Y145599D01*
X238575Y145640D01*
X238134Y145643D01*
X237695Y145607D01*
X237273Y145536D01*
X237144Y145515D01*
X237014Y145504D01*
X236883Y145505D01*
X236753Y145518D01*
X236624Y145542D01*
X236498Y145577D01*
X236375Y145623D01*
X236257Y145679D01*
X236144Y145745D01*
X236038Y145821D01*
X235938Y145906D01*
X235847Y145999D01*
X235763Y146100D01*
X235689Y146208D01*
X235625Y146322D01*
X235571Y146441D01*
X235527Y146565D01*
X235494Y146691D01*
X235478Y146788D01*
Y157674D01*
X244386D01*
Y147775D01*
D02*
G37*
G36*
X289766Y133608D02*
Y118582D01*
X287890Y116706D01*
X272572D01*
Y114722D01*
X271318Y114682D01*
Y114682D01*
X262682D01*
X262618Y115926D01*
Y122338D01*
X271805Y131524D01*
X275221D01*
X276099Y131699D01*
X276842Y132196D01*
X280184Y135538D01*
X280681Y136282D01*
X280856Y137159D01*
Y140722D01*
X281681Y141203D01*
X282096Y141278D01*
X289766Y133608D01*
D02*
G37*
%LPC*%
G36*
X113200Y507085D02*
X111429Y506733D01*
X109927Y505729D01*
X108923Y504227D01*
X108571Y502456D01*
X108826Y501174D01*
X108200Y499904D01*
X108200D01*
Y481904D01*
X118200D01*
Y499904D01*
X118200D01*
X117574Y501174D01*
X117829Y502456D01*
X117477Y504227D01*
X116473Y505729D01*
X114971Y506733D01*
X113200Y507085D01*
D02*
G37*
G36*
X172700Y527280D02*
X169567Y526867D01*
X166648Y525658D01*
X164141Y523735D01*
X162218Y521228D01*
X161092Y518510D01*
X144262D01*
X142986Y518256D01*
X141905Y517534D01*
X136243Y511871D01*
X135520Y510790D01*
X135266Y509514D01*
Y499904D01*
X133600D01*
Y481904D01*
X135266D01*
Y478754D01*
X134323Y477343D01*
X133971Y475572D01*
X134323Y473801D01*
X135327Y472299D01*
X136829Y471295D01*
X138600Y470943D01*
X140371Y471295D01*
X141873Y472299D01*
X142877Y473801D01*
X143229Y475572D01*
X142877Y477343D01*
X141934Y478754D01*
Y481904D01*
X143600D01*
Y499904D01*
X141934D01*
Y508133D01*
X145643Y511842D01*
X161092D01*
X162218Y509124D01*
X164141Y506618D01*
X166648Y504694D01*
X169366Y503568D01*
Y502686D01*
X169620Y501410D01*
X170342Y500329D01*
X177538Y493133D01*
X176699Y492176D01*
X176402Y492404D01*
X173483Y493613D01*
X170350Y494026D01*
X167217Y493613D01*
X164566Y492515D01*
X163819Y493262D01*
X162738Y493985D01*
X161462Y494238D01*
X156300D01*
Y499904D01*
X146300D01*
Y481904D01*
X156300D01*
Y487570D01*
X158558D01*
X159263Y486514D01*
X158659Y485055D01*
X158246Y481922D01*
X158659Y478789D01*
X159868Y475870D01*
X161791Y473363D01*
X164298Y471440D01*
X167217Y470231D01*
X170350Y469818D01*
X170943Y468615D01*
X167535Y465207D01*
X166672Y463916D01*
X166369Y462392D01*
Y453576D01*
X165850D01*
Y453058D01*
X163693D01*
X163251Y453353D01*
X161480Y453705D01*
X159708Y453353D01*
X158207Y452349D01*
X157203Y450847D01*
X156851Y449076D01*
X157203Y447305D01*
X158207Y445803D01*
X159708Y444799D01*
X161480Y444447D01*
X163251Y444799D01*
X163693Y445094D01*
X165850D01*
Y444576D01*
X166540D01*
Y442806D01*
X174160D01*
Y444576D01*
X174850D01*
Y453576D01*
X174331D01*
Y460743D01*
X175809Y462220D01*
X179976D01*
Y456652D01*
X208476D01*
Y462868D01*
X219574D01*
X220850Y463122D01*
X221931Y463844D01*
X224367Y466280D01*
X225540Y465794D01*
Y459610D01*
X226230D01*
Y457840D01*
X233850D01*
Y459610D01*
X234540D01*
Y460776D01*
X236193D01*
Y457432D01*
X235251Y456022D01*
X234898Y454250D01*
X235251Y452479D01*
X236254Y450977D01*
X237756Y449974D01*
X239527Y449621D01*
X241299Y449974D01*
X242800Y450977D01*
X243804Y452479D01*
X244156Y454250D01*
X243804Y456022D01*
X242861Y457432D01*
Y462491D01*
X242607Y463767D01*
X241885Y464849D01*
X240265Y466468D01*
X239184Y467191D01*
X237908Y467444D01*
X234540D01*
Y468610D01*
X233080D01*
Y478925D01*
X233246D01*
Y484050D01*
X238371D01*
X238371Y484050D01*
Y484050D01*
X239249Y483238D01*
X240676Y481811D01*
Y478764D01*
X240930Y477489D01*
X241653Y476407D01*
X243575Y474484D01*
X244534Y473844D01*
X244750Y472938D01*
X244801Y472495D01*
X243797Y470993D01*
X243445Y469222D01*
X243797Y467451D01*
X244801Y465949D01*
X246303Y464945D01*
X248074Y464593D01*
X249846Y464945D01*
X251347Y465949D01*
X252351Y467451D01*
X252682Y469114D01*
X254067Y470500D01*
X254790Y471582D01*
X254941Y472342D01*
X256210D01*
Y472342D01*
X257106D01*
X258376Y472091D01*
Y465544D01*
X257876Y465044D01*
X256412Y464752D01*
X254910Y463749D01*
X253906Y462247D01*
X253554Y460476D01*
X253906Y458704D01*
X254910Y457203D01*
X256412Y456199D01*
X258183Y455847D01*
X259954Y456199D01*
X261456Y457203D01*
X262460Y458704D01*
X262812Y460476D01*
X262800Y460537D01*
X264067Y461805D01*
X264790Y462887D01*
X265044Y464163D01*
Y472342D01*
X266210D01*
Y481342D01*
X265044D01*
Y488050D01*
X266210D01*
Y497050D01*
X265044D01*
Y506327D01*
X266297D01*
Y515327D01*
X257297D01*
Y515327D01*
X256297D01*
X256053Y516597D01*
X256074Y516628D01*
X256426Y518399D01*
X256074Y520171D01*
X255071Y521672D01*
X253569Y522676D01*
X251797Y523028D01*
X250026Y522676D01*
X248524Y521672D01*
X247521Y520171D01*
X247208Y518597D01*
X246591Y518313D01*
X245936Y518215D01*
X245779Y518449D01*
X244277Y519453D01*
X242506Y519805D01*
X240735Y519453D01*
X240516Y519307D01*
X239246Y519676D01*
X238556Y520660D01*
Y521446D01*
X230936D01*
Y519676D01*
X230246D01*
Y510676D01*
X231412D01*
Y501300D01*
X231246D01*
Y496050D01*
X231121D01*
Y486175D01*
X223371D01*
Y496050D01*
X223246D01*
Y501300D01*
X216246D01*
Y501009D01*
X208298D01*
Y502170D01*
X208192D01*
X207513Y503440D01*
X208075Y504281D01*
X208427Y506052D01*
X208075Y507823D01*
X207071Y509325D01*
X205569Y510329D01*
X203798Y510681D01*
X202027Y510329D01*
X200525Y509325D01*
X199521Y507823D01*
X199169Y506052D01*
X199521Y504281D01*
X200083Y503440D01*
X199941Y503174D01*
X199298Y502170D01*
X198298D01*
Y502170D01*
X189298D01*
Y502170D01*
X188028Y501841D01*
X187869Y501947D01*
X186098Y502299D01*
X184327Y501947D01*
X182825Y500943D01*
X182076Y499822D01*
X180631Y499470D01*
X177195Y502906D01*
X177443Y504152D01*
X178752Y504694D01*
X181258Y506618D01*
X183182Y509124D01*
X184391Y512043D01*
X184803Y515176D01*
X184391Y518309D01*
X183182Y521228D01*
X181258Y523735D01*
X178752Y525658D01*
X175833Y526867D01*
X172700Y527280D01*
D02*
G37*
G36*
X130900Y499904D02*
X120900D01*
Y481904D01*
X130900D01*
Y499904D01*
D02*
G37*
G36*
X-50000Y525619D02*
X-54803Y525145D01*
X-59421Y523745D01*
X-63677Y521470D01*
X-67408Y518408D01*
X-70470Y514677D01*
X-72745Y510421D01*
X-74145Y505803D01*
X-74619Y501000D01*
X-74145Y496197D01*
X-72745Y491579D01*
X-70470Y487323D01*
X-67408Y483592D01*
X-63677Y480530D01*
X-59421Y478256D01*
X-54803Y476855D01*
X-50000Y476381D01*
X-45197Y476855D01*
X-40579Y478256D01*
X-36323Y480530D01*
X-32592Y483592D01*
X-29530Y487323D01*
X-27255Y491579D01*
X-25854Y496197D01*
X-25382Y501000D01*
X-25854Y505803D01*
X-27255Y510421D01*
X-29530Y514677D01*
X-32592Y518408D01*
X-36323Y521470D01*
X-40579Y523745D01*
X-45197Y525145D01*
X-50000Y525619D01*
D02*
G37*
G36*
X-23251Y472528D02*
X-25022Y472176D01*
X-26524Y471172D01*
X-27527Y469671D01*
X-27880Y467899D01*
X-27527Y466128D01*
X-26524Y464626D01*
X-26326Y464494D01*
Y462402D01*
X-27751D01*
Y460977D01*
X-35911D01*
Y462402D01*
X-45911D01*
Y453402D01*
X-35911D01*
Y454827D01*
X-27751D01*
Y453402D01*
X-18751D01*
Y453402D01*
X-17751D01*
Y453402D01*
X-8751D01*
Y455086D01*
X10244D01*
X47596Y417733D01*
Y391770D01*
X46698Y390872D01*
X45412Y390872D01*
X44142Y390872D01*
X35412D01*
Y371872D01*
X44142D01*
X45412Y371872D01*
X46682Y371872D01*
X54142D01*
X55412Y371872D01*
X56682Y371872D01*
X65412D01*
Y390872D01*
X56682D01*
X55412Y390872D01*
X54126Y390872D01*
X53228Y391770D01*
Y418900D01*
X53014Y419978D01*
X52403Y420891D01*
X13401Y459893D01*
X12488Y460504D01*
X11410Y460718D01*
X-8751D01*
Y462402D01*
X-17751D01*
Y462402D01*
X-18751D01*
Y462402D01*
X-20176D01*
Y464494D01*
X-19978Y464626D01*
X-18974Y466128D01*
X-18622Y467899D01*
X-18974Y469671D01*
X-19978Y471172D01*
X-21479Y472176D01*
X-23251Y472528D01*
D02*
G37*
G36*
X-37676Y433211D02*
X-39447Y432859D01*
X-40949Y431855D01*
X-41953Y430353D01*
X-42305Y428582D01*
X-41953Y426811D01*
X-41337Y425890D01*
X-42016Y424620D01*
X-42176D01*
Y415620D01*
X-42176D01*
Y414620D01*
X-42176D01*
Y413195D01*
X-44702D01*
X-44702Y413195D01*
X-45879Y412961D01*
X-46646Y412448D01*
X-47429Y412696D01*
X-47916Y413051D01*
Y413342D01*
X-57916D01*
Y411917D01*
X-59152D01*
X-59284Y412115D01*
X-60786Y413119D01*
X-62558Y413471D01*
X-64329Y413119D01*
X-65831Y412115D01*
X-66834Y410613D01*
X-67186Y408842D01*
X-66834Y407071D01*
X-65831Y405569D01*
X-64329Y404565D01*
X-62558Y404213D01*
X-60786Y404565D01*
X-59284Y405569D01*
X-59152Y405767D01*
X-57916D01*
Y404342D01*
X-47916D01*
Y405767D01*
X-45980D01*
X-45980Y405767D01*
X-44803Y406001D01*
X-43806Y406668D01*
X-43446Y407027D01*
X-42176Y407002D01*
Y405620D01*
X-33176D01*
Y414620D01*
X-33176D01*
Y415620D01*
X-33176D01*
Y424620D01*
X-33336D01*
X-34014Y425890D01*
X-33399Y426811D01*
X-33047Y428582D01*
X-33399Y430353D01*
X-34403Y431855D01*
X-35905Y432859D01*
X-37676Y433211D01*
D02*
G37*
G36*
X201976Y415752D02*
X179976D01*
Y396652D01*
X201976D01*
Y415752D01*
D02*
G37*
G36*
X143600Y446904D02*
X133600D01*
Y428904D01*
X135525D01*
Y413864D01*
X134100D01*
Y404864D01*
X134100D01*
Y403864D01*
X134100D01*
Y394864D01*
X134619D01*
Y393329D01*
X134323Y392887D01*
X133971Y391116D01*
X134323Y389344D01*
X135327Y387842D01*
X136829Y386839D01*
X138600Y386487D01*
X140371Y386839D01*
X141873Y387842D01*
X142877Y389344D01*
X143229Y391116D01*
X142877Y392887D01*
X142582Y393329D01*
Y394864D01*
X143100D01*
Y403864D01*
X143100D01*
Y404864D01*
X143100D01*
Y413864D01*
X141675D01*
Y428904D01*
X143600D01*
Y446904D01*
D02*
G37*
G36*
X130900D02*
X120900D01*
Y428904D01*
X122825D01*
Y413864D01*
X121400D01*
Y404864D01*
X121400D01*
Y403864D01*
X121400D01*
Y394864D01*
X121918D01*
Y393329D01*
X121623Y392887D01*
X121271Y391116D01*
X121623Y389344D01*
X122627Y387842D01*
X124129Y386839D01*
X125900Y386487D01*
X127671Y386839D01*
X129173Y387842D01*
X130177Y389344D01*
X130529Y391116D01*
X130177Y392887D01*
X129881Y393329D01*
Y394864D01*
X130400D01*
Y403864D01*
X130400D01*
Y404864D01*
X130400D01*
Y413864D01*
X128975D01*
Y428904D01*
X130900D01*
Y446904D01*
D02*
G37*
G36*
X118200D02*
X108200D01*
Y428904D01*
X110125D01*
Y413864D01*
X108700D01*
Y404864D01*
X108700D01*
Y403864D01*
X108700D01*
Y394864D01*
X109219D01*
Y393329D01*
X108923Y392887D01*
X108571Y391116D01*
X108923Y389344D01*
X109927Y387842D01*
X111429Y386839D01*
X113200Y386487D01*
X114971Y386839D01*
X116473Y387842D01*
X117477Y389344D01*
X117829Y391116D01*
X117477Y392887D01*
X117182Y393329D01*
Y394864D01*
X117700D01*
Y403864D01*
X117700D01*
Y404864D01*
X117700D01*
Y413864D01*
X116275D01*
Y428904D01*
X118200D01*
Y446904D01*
D02*
G37*
G36*
X200005Y362421D02*
Y353693D01*
X208732D01*
X208612Y354605D01*
X207525Y357230D01*
X205795Y359484D01*
X203541Y361213D01*
X200917Y362301D01*
X200005Y362421D01*
D02*
G37*
G36*
X196195Y362421D02*
X195283Y362301D01*
X192658Y361213D01*
X190404Y359484D01*
X188675Y357230D01*
X187588Y354605D01*
X187467Y353693D01*
X196195D01*
Y362421D01*
D02*
G37*
G36*
X309950Y362038D02*
X289450D01*
Y341538D01*
X309950D01*
Y362038D01*
D02*
G37*
G36*
X208732Y349883D02*
X200005D01*
Y341156D01*
X200917Y341276D01*
X203541Y342363D01*
X205795Y344093D01*
X207525Y346347D01*
X208612Y348972D01*
X208732Y349883D01*
D02*
G37*
G36*
X196195D02*
X187467D01*
X187588Y348972D01*
X188675Y346347D01*
X190404Y344093D01*
X192658Y342363D01*
X195283Y341276D01*
X196195Y341156D01*
Y349883D01*
D02*
G37*
G36*
X76662Y350872D02*
X57662D01*
Y342142D01*
X57662Y340872D01*
X57662Y339602D01*
Y330872D01*
X76662D01*
Y332720D01*
X77932Y332846D01*
X78097Y332599D01*
X79599Y331595D01*
X81370Y331243D01*
X83141Y331595D01*
X84643Y332599D01*
X84957Y333068D01*
X148649D01*
X148963Y332599D01*
X150465Y331595D01*
X152236Y331243D01*
X154007Y331595D01*
X155509Y332599D01*
X156513Y334101D01*
X156865Y335872D01*
X156513Y337643D01*
X155509Y339145D01*
X154007Y340149D01*
X152236Y340501D01*
X150465Y340149D01*
X148963Y339145D01*
X148649Y338676D01*
X84957D01*
X84643Y339145D01*
X83141Y340149D01*
X81370Y340501D01*
X79599Y340149D01*
X78097Y339145D01*
X77932Y338899D01*
X76662Y339024D01*
X76662Y340872D01*
X76662Y342142D01*
Y350872D01*
D02*
G37*
G36*
X301605Y337021D02*
Y328293D01*
X310332D01*
X310212Y329205D01*
X309125Y331830D01*
X307395Y334084D01*
X305141Y335813D01*
X302517Y336901D01*
X301605Y337021D01*
D02*
G37*
G36*
X297795D02*
X296883Y336901D01*
X294258Y335813D01*
X292004Y334084D01*
X290275Y331830D01*
X289188Y329205D01*
X289068Y328293D01*
X297795D01*
Y337021D01*
D02*
G37*
G36*
X170795D02*
X169883Y336901D01*
X167258Y335813D01*
X165004Y334084D01*
X163275Y331830D01*
X162188Y329205D01*
X162068Y328293D01*
X170795D01*
Y337021D01*
D02*
G37*
G36*
X310332Y324483D02*
X301605D01*
Y315756D01*
X302517Y315876D01*
X305141Y316963D01*
X307395Y318693D01*
X309125Y320947D01*
X310212Y323572D01*
X310332Y324483D01*
D02*
G37*
G36*
X297795D02*
X289068D01*
X289188Y323572D01*
X290275Y320947D01*
X292004Y318693D01*
X294258Y316963D01*
X296883Y315876D01*
X297795Y315756D01*
Y324483D01*
D02*
G37*
G36*
X5412Y299872D02*
X-4588D01*
Y280872D01*
X5412D01*
Y299872D01*
D02*
G37*
G36*
X496622Y289250D02*
X483622D01*
Y286584D01*
X482124D01*
X480849Y286330D01*
X479767Y285607D01*
X474946Y280786D01*
X474223Y279705D01*
X473969Y278429D01*
X473994Y278306D01*
Y258481D01*
X473523Y257777D01*
X473210Y256201D01*
X473523Y254625D01*
X474416Y253290D01*
X475752Y252397D01*
X477328Y252083D01*
X478904Y252397D01*
X480239Y253290D01*
X481132Y254625D01*
X481446Y256201D01*
X481132Y257777D01*
X480662Y258481D01*
Y277072D01*
X482352Y278763D01*
X483622Y278237D01*
Y277250D01*
X496622D01*
Y289250D01*
D02*
G37*
G36*
X457832Y293440D02*
X438532D01*
Y274140D01*
X457832D01*
Y293440D01*
D02*
G37*
G36*
X321182Y293523D02*
X318663Y293192D01*
X316315Y292219D01*
X314300Y290672D01*
X312753Y288657D01*
X311780Y286309D01*
X311449Y283790D01*
X311780Y281271D01*
X312753Y278923D01*
X314300Y276908D01*
X316315Y275361D01*
X318663Y274389D01*
X321182Y274057D01*
X323701Y274389D01*
X326049Y275361D01*
X328064Y276908D01*
X329611Y278923D01*
X330584Y281271D01*
X330915Y283790D01*
X330584Y286309D01*
X329611Y288657D01*
X328064Y290672D01*
X326049Y292219D01*
X323701Y293192D01*
X321182Y293523D01*
D02*
G37*
G36*
X158203Y273400D02*
X156431Y273048D01*
X154930Y272045D01*
X153926Y270543D01*
X153574Y268771D01*
X153926Y267000D01*
X154930Y265498D01*
X156431Y264495D01*
X158203Y264142D01*
X159974Y264495D01*
X161476Y265498D01*
X162479Y267000D01*
X162832Y268771D01*
X162479Y270543D01*
X161476Y272045D01*
X159974Y273048D01*
X158203Y273400D01*
D02*
G37*
G36*
X91762Y263129D02*
X80762D01*
Y259611D01*
X77965D01*
X77523Y259906D01*
X75752Y260258D01*
X73980Y259906D01*
X72479Y258902D01*
X71475Y257401D01*
X71123Y255629D01*
X71475Y253858D01*
X72479Y252356D01*
X73980Y251353D01*
X75752Y251000D01*
X77523Y251353D01*
X77965Y251648D01*
X80762D01*
Y248129D01*
X82281D01*
Y247936D01*
X82584Y246412D01*
X83447Y245121D01*
X93621Y234947D01*
X94912Y234084D01*
X96436Y233781D01*
X99636D01*
Y233262D01*
X108636D01*
Y233262D01*
X109636D01*
Y233262D01*
X118636D01*
Y234946D01*
X136671D01*
X146208Y225410D01*
Y212454D01*
X140824D01*
Y214138D01*
X140134D01*
Y215908D01*
X132514D01*
Y214138D01*
X131824D01*
Y205138D01*
X140824D01*
Y206822D01*
X146208D01*
Y196202D01*
X143024D01*
Y177202D01*
X155024D01*
Y196202D01*
X151840D01*
Y209638D01*
Y226576D01*
X151626Y227654D01*
X151015Y228567D01*
X139829Y239753D01*
X138916Y240364D01*
X137838Y240578D01*
X137593D01*
X137468Y241848D01*
X137766Y241908D01*
X139267Y242911D01*
X140271Y244413D01*
X140623Y246184D01*
X140271Y247955D01*
X139267Y249457D01*
X137766Y250461D01*
X135994Y250813D01*
X134223Y250461D01*
X132721Y249457D01*
X131718Y247955D01*
X131365Y246184D01*
X131718Y244413D01*
X132721Y242911D01*
X134223Y241908D01*
X134520Y241848D01*
X134395Y240578D01*
X118636D01*
Y242262D01*
X109636D01*
Y242262D01*
X108636D01*
Y242262D01*
X99636D01*
Y241744D01*
X98085D01*
X92569Y247260D01*
X91762Y248129D01*
X91762D01*
X91762Y248129D01*
Y263129D01*
D02*
G37*
G36*
X113294Y298161D02*
X89230D01*
Y287041D01*
X85935D01*
X84151Y286686D01*
X82639Y285675D01*
X81628Y284163D01*
X81273Y282379D01*
X81628Y280595D01*
X82639Y279083D01*
X84151Y278072D01*
X85935Y277718D01*
X89230D01*
Y266597D01*
X95730D01*
Y259097D01*
Y248097D01*
X106794D01*
Y259097D01*
Y266597D01*
X113294D01*
Y298161D01*
D02*
G37*
G36*
X70998Y232202D02*
Y232202D01*
X60934D01*
Y221138D01*
X70998D01*
Y222008D01*
X71728D01*
X73512Y222363D01*
X75024Y223374D01*
X76035Y224886D01*
X76390Y226670D01*
X76035Y228454D01*
X75024Y229966D01*
X73512Y230977D01*
X71887Y231300D01*
X70998Y232202D01*
X70998Y232202D01*
D02*
G37*
G36*
X91366Y232649D02*
X89595Y232297D01*
X88093Y231293D01*
X87089Y229792D01*
X86737Y228020D01*
X87089Y226249D01*
X87385Y225807D01*
Y223630D01*
X86866D01*
Y214630D01*
X86866D01*
X86866Y213630D01*
X86866D01*
Y204630D01*
X88032D01*
Y202224D01*
X80466D01*
Y212170D01*
X70466D01*
Y203643D01*
X69196Y203117D01*
X63286Y209028D01*
X62204Y209750D01*
X61466Y209897D01*
Y212170D01*
X51466D01*
Y201170D01*
X61466D01*
X61466Y201170D01*
Y201170D01*
X62413Y200470D01*
X66350Y196532D01*
X67432Y195810D01*
X68708Y195556D01*
X88184D01*
X89595Y194613D01*
X91366Y194261D01*
X93137Y194613D01*
X94639Y195617D01*
X95643Y197119D01*
X95995Y198890D01*
X95643Y200662D01*
X94700Y202072D01*
Y204379D01*
X95866Y204630D01*
X96935Y204100D01*
X97016Y204018D01*
X98098Y203296D01*
X99374Y203042D01*
X100734D01*
Y201376D01*
X101051D01*
X101577Y200106D01*
X100184Y198714D01*
X99462Y197632D01*
X99208Y196356D01*
X97981Y196202D01*
X96542D01*
Y177202D01*
X108542D01*
Y184481D01*
X108730Y184555D01*
X109812Y184693D01*
X110672Y183406D01*
X112184Y182395D01*
X113968Y182041D01*
X117592D01*
Y177170D01*
X129656D01*
Y196234D01*
X117592D01*
Y191364D01*
X113968D01*
X112184Y191009D01*
X110672Y189998D01*
X109812Y188711D01*
X108730Y188849D01*
X108542Y188923D01*
Y195556D01*
X111352D01*
X112628Y195810D01*
X113709Y196532D01*
X117783Y200606D01*
X118734Y201376D01*
X128734D01*
Y209876D01*
Y217876D01*
X118734D01*
Y217210D01*
X118718D01*
X117442Y216956D01*
X116361Y216234D01*
X113392Y213266D01*
X112670Y212184D01*
X112416Y210908D01*
X112416Y205311D01*
X112004Y205004D01*
X110734Y205641D01*
Y211376D01*
X100734D01*
Y211376D01*
X99571Y210894D01*
X98978Y211488D01*
X97896Y212210D01*
X96620Y212464D01*
X96491Y212619D01*
X95971Y213461D01*
X96215Y214824D01*
X96898Y215204D01*
X98144Y215452D01*
X99435Y216315D01*
X99474Y216353D01*
X100734Y216376D01*
Y216376D01*
X110734D01*
Y226376D01*
X100734D01*
Y225358D01*
X98866D01*
X97342Y225054D01*
X97249Y224992D01*
X95855Y225541D01*
X95643Y226249D01*
X95995Y228020D01*
X95643Y229792D01*
X94639Y231293D01*
X93138Y232297D01*
X91366Y232649D01*
D02*
G37*
G36*
X429580Y192006D02*
X420583D01*
Y187009D01*
X429580D01*
Y192006D01*
D02*
G37*
G36*
X495289Y188295D02*
X482292D01*
Y184511D01*
X449095D01*
Y186194D01*
X441983D01*
X440764Y186194D01*
Y186194D01*
X440713D01*
Y186194D01*
X432382D01*
Y184371D01*
X425081D01*
X423985Y184153D01*
X423765Y184006D01*
X420583D01*
Y179009D01*
X423765D01*
X423985Y178861D01*
X425081Y178643D01*
X432382D01*
Y177101D01*
X433684D01*
X433684Y175066D01*
X432785Y174168D01*
X430244Y174168D01*
X429580Y175163D01*
Y176006D01*
X420583D01*
Y171009D01*
X428974D01*
X429580Y171009D01*
X430244Y170014D01*
Y165837D01*
X430472D01*
Y164795D01*
X438785D01*
Y164795D01*
X439108D01*
X439337Y165837D01*
X439337Y165837D01*
X439337Y165971D01*
Y171387D01*
X439411Y171759D01*
Y176203D01*
X440309Y177101D01*
X440713D01*
Y177101D01*
X440764D01*
Y177101D01*
X442066D01*
X442066Y174211D01*
X440801D01*
Y166014D01*
X440801Y165880D01*
X441029Y164838D01*
X441352D01*
X441352Y164838D01*
X442527Y164838D01*
X449665Y164838D01*
X449665Y165880D01*
X449894D01*
Y174211D01*
X447793D01*
X447793Y177101D01*
X449095D01*
Y178783D01*
X482292D01*
Y174797D01*
X495289D01*
Y188295D01*
D02*
G37*
G36*
X379990Y152520D02*
X378410Y152206D01*
X377071Y151311D01*
X376176Y149972D01*
X375862Y148392D01*
X376176Y146812D01*
X376839Y145822D01*
X376839Y140882D01*
X373089D01*
Y133884D01*
X373089D01*
Y127385D01*
X385086D01*
X385086Y127384D01*
Y127384D01*
X386274Y127188D01*
X386452Y127069D01*
X388031Y126755D01*
X389611Y127069D01*
X390950Y127964D01*
X390987Y128020D01*
X393876D01*
X395089Y127882D01*
X395089Y126749D01*
Y120885D01*
X400231D01*
Y117921D01*
X399859Y117673D01*
X398965Y116334D01*
X398650Y114754D01*
X398965Y113174D01*
X399859Y111835D01*
X401199Y110940D01*
X402778Y110626D01*
X404358Y110940D01*
X405697Y111835D01*
X406592Y113174D01*
X406906Y114754D01*
X406592Y116334D01*
X405697Y117673D01*
X405326Y117921D01*
Y120885D01*
X407086D01*
Y126048D01*
X407327Y127219D01*
X408356Y127219D01*
X419324D01*
Y132887D01*
X420594Y133565D01*
X420836Y133403D01*
X421470Y133278D01*
X425424Y129323D01*
X425484Y129015D01*
X425394Y128131D01*
X425251Y127799D01*
X424325Y127181D01*
X423430Y125842D01*
X423116Y124262D01*
X423430Y122682D01*
X424325Y121343D01*
X425665Y120448D01*
X427244Y120134D01*
X427923Y120269D01*
X428218Y120328D01*
X428219Y120328D01*
X428824Y120448D01*
X429118Y120645D01*
X430297Y120718D01*
X441324D01*
Y122036D01*
X441793Y123112D01*
X450886D01*
Y130224D01*
X450886Y131443D01*
X450886D01*
Y131494D01*
X450886D01*
Y139825D01*
X444760D01*
X444526Y139871D01*
X444212Y139986D01*
X443995Y139977D01*
X443781Y140020D01*
X441324D01*
Y140716D01*
X431761D01*
X425204Y147273D01*
X424295Y147880D01*
X423222Y148094D01*
X423222Y148094D01*
X409630Y148094D01*
X409552Y148210D01*
X408213Y149105D01*
X406633Y149419D01*
X405053Y149105D01*
X403714Y148210D01*
X402820Y146871D01*
X402505Y145291D01*
X402820Y143711D01*
X403091Y143306D01*
X400667Y140882D01*
X395089D01*
Y135017D01*
X393876Y133747D01*
X390987D01*
X390950Y133802D01*
X389611Y134697D01*
X388031Y135011D01*
X386452Y134697D01*
X386356Y134633D01*
X385086Y135312D01*
Y140882D01*
X381424D01*
X381424Y144549D01*
X381570Y144578D01*
X382909Y145473D01*
X383804Y146812D01*
X384118Y148392D01*
X383804Y149972D01*
X382909Y151311D01*
X381570Y152206D01*
X379990Y152520D01*
D02*
G37*
G36*
X550653Y163722D02*
X532153D01*
Y131722D01*
X549032D01*
Y125265D01*
X536651D01*
Y99675D01*
X568081D01*
Y109136D01*
X575880D01*
Y106317D01*
X588880D01*
Y118317D01*
X575880D01*
Y115804D01*
X568081D01*
Y125265D01*
X555700D01*
Y134151D01*
X555446Y135427D01*
X554724Y136509D01*
X553236Y137997D01*
X552154Y138720D01*
X550878Y138973D01*
X550653D01*
Y163722D01*
D02*
G37*
G36*
X608880Y108817D02*
X595880D01*
Y96817D01*
X607844D01*
X608880Y96817D01*
X608953Y95577D01*
Y88205D01*
X608953D01*
X609069Y88064D01*
X608824Y86831D01*
X609177Y85060D01*
X610180Y83558D01*
X611682Y82555D01*
X613453Y82202D01*
X615225Y82555D01*
X616726Y83558D01*
X617730Y85060D01*
X618082Y86831D01*
X617837Y88063D01*
X617953Y88205D01*
X617953D01*
Y97205D01*
X617953D01*
X617953Y98205D01*
X618924Y98927D01*
X619223Y99066D01*
X620178Y98428D01*
X621949Y98076D01*
X623721Y98428D01*
X625222Y99432D01*
X626226Y100934D01*
X626578Y102705D01*
X626226Y104476D01*
X625222Y105978D01*
X623721Y106982D01*
X621949Y107334D01*
X620178Y106982D01*
X619223Y106344D01*
X617953Y106933D01*
Y107205D01*
X608953D01*
X608880Y108445D01*
Y108817D01*
D02*
G37*
G36*
X-50000Y144619D02*
X-54803Y144145D01*
X-59421Y142745D01*
X-63677Y140470D01*
X-67408Y137408D01*
X-70470Y133677D01*
X-72745Y129421D01*
X-74145Y124803D01*
X-74619Y120000D01*
X-74145Y115197D01*
X-72745Y110579D01*
X-70470Y106323D01*
X-67408Y102592D01*
X-63677Y99530D01*
X-59421Y97255D01*
X-54803Y95855D01*
X-50000Y95381D01*
X-45197Y95855D01*
X-40579Y97255D01*
X-36323Y99530D01*
X-32592Y102592D01*
X-29530Y106323D01*
X-27255Y110579D01*
X-25854Y115197D01*
X-25382Y120000D01*
X-25854Y124803D01*
X-27255Y129421D01*
X-29530Y133677D01*
X-32592Y137408D01*
X-36323Y140470D01*
X-40579Y142745D01*
X-45197Y144145D01*
X-50000Y144619D01*
D02*
G37*
G36*
X590995Y86749D02*
X577995D01*
Y68749D01*
X590995D01*
Y86749D01*
D02*
G37*
G36*
X145282Y72578D02*
X137417D01*
Y53213D01*
X145282D01*
Y72578D01*
D02*
G37*
G36*
X131067D02*
X123202D01*
Y53213D01*
X131067D01*
Y72578D01*
D02*
G37*
G36*
X523330Y87086D02*
X521754Y86772D01*
X520418Y85880D01*
X519526Y84544D01*
X519212Y82968D01*
X519526Y81392D01*
X520418Y80056D01*
X520514Y79992D01*
Y61165D01*
X520057Y60859D01*
X519053Y59358D01*
X518701Y57586D01*
X519053Y55815D01*
X520057Y54313D01*
X521559Y53310D01*
X523330Y52957D01*
X525101Y53310D01*
X526603Y54313D01*
X527607Y55815D01*
X527959Y57586D01*
X527607Y59358D01*
X526603Y60859D01*
X526146Y61165D01*
Y79992D01*
X526242Y80056D01*
X527134Y81392D01*
X527448Y82968D01*
X527134Y84544D01*
X526242Y85880D01*
X524906Y86772D01*
X523330Y87086D01*
D02*
G37*
G36*
X145282Y46863D02*
X137417D01*
Y27498D01*
X145282D01*
Y46863D01*
D02*
G37*
G36*
X131067D02*
X123202D01*
Y27498D01*
X131067D01*
Y46863D01*
D02*
G37*
G36*
X390566Y67323D02*
X388794Y66970D01*
X387293Y65967D01*
X386289Y64465D01*
X385937Y62694D01*
X386289Y60922D01*
X387293Y59420D01*
X387762Y59107D01*
Y48562D01*
X385995D01*
Y39562D01*
X386685D01*
Y37792D01*
X394305D01*
Y39562D01*
X394995D01*
Y41329D01*
X398973D01*
Y39633D01*
X398973D01*
Y38633D01*
X398973D01*
Y29633D01*
X398973D01*
X399072Y29513D01*
X398844Y28372D01*
X399197Y26601D01*
X400200Y25099D01*
X401702Y24095D01*
X403473Y23743D01*
X405245Y24095D01*
X406747Y25099D01*
X407750Y26601D01*
X408102Y28372D01*
X407875Y29513D01*
X407973Y29633D01*
X407973D01*
Y38633D01*
X407974D01*
Y39633D01*
X407973D01*
Y48633D01*
X398973D01*
Y46937D01*
X394995D01*
Y48562D01*
X393369D01*
Y59107D01*
X393839Y59420D01*
X394842Y60922D01*
X395195Y62694D01*
X394842Y64465D01*
X393839Y65967D01*
X392337Y66970D01*
X390566Y67323D01*
D02*
G37*
G36*
X44742Y77038D02*
X20742D01*
Y54667D01*
X16974D01*
X15203Y54315D01*
X13701Y53311D01*
X12697Y51809D01*
X12345Y50038D01*
X12697Y48267D01*
X13701Y46765D01*
X15203Y45761D01*
X16974Y45409D01*
X20742D01*
Y23038D01*
X44742D01*
Y77038D01*
D02*
G37*
%LPD*%
G36*
X216121Y484050D02*
X221246D01*
Y478925D01*
X221412D01*
Y472755D01*
X218193Y469536D01*
X208476D01*
Y475752D01*
X209436Y476500D01*
X209851Y476777D01*
X210855Y478279D01*
X211207Y480050D01*
X210855Y481821D01*
X210103Y482946D01*
X210627Y484216D01*
X216121D01*
Y484050D01*
D02*
G37*
D10*
X477328Y256201D02*
Y278405D01*
X477303Y278429D02*
X477328Y278405D01*
X477303Y278429D02*
X482124Y283250D01*
X490122D01*
Y257326D02*
Y264250D01*
X601495Y77749D02*
X601866Y78120D01*
Y88847D01*
X602492Y102705D02*
X613453D01*
X602380Y102817D02*
X602492Y102705D01*
X582380Y93317D02*
X590352D01*
X541403Y141619D02*
X547383Y135639D01*
X552366Y112470D02*
Y134151D01*
X550878Y135639D02*
X552366Y134151D01*
X547383Y135639D02*
X550878D01*
X541403Y141619D02*
Y147722D01*
X457342Y24367D02*
Y30128D01*
X364590Y43668D02*
Y49429D01*
X377504Y43757D02*
Y49518D01*
X494842Y49628D02*
Y56552D01*
X552366Y112470D02*
X579792D01*
X258103Y460556D02*
X261710Y464163D01*
Y476842D01*
Y492550D01*
X258103Y460556D02*
X258183Y460476D01*
X213530Y473413D02*
Y480652D01*
X234746Y477216D02*
X238930Y473032D01*
X238967D01*
X239527Y454250D02*
Y462491D01*
X230040Y464110D02*
X237908D01*
X239527Y462491D01*
X229746Y464404D02*
Y482550D01*
Y464404D02*
X230040Y464110D01*
X138600Y475572D02*
Y490904D01*
X161462D02*
X170571Y481795D01*
X184066D01*
X68068Y186702D02*
X77142D01*
X390495Y28372D02*
Y34062D01*
X403473Y28372D02*
Y34133D01*
X613453Y102705D02*
X621949D01*
X187836Y487550D02*
X197476D01*
X172700Y502686D02*
Y515176D01*
Y502686D02*
X187836Y487550D01*
X138600Y490904D02*
Y509514D01*
X144262Y515176D02*
X172700D01*
X138600Y509514D02*
X144262Y515176D01*
X151300Y490904D02*
X161462D01*
X68708Y198890D02*
X91366D01*
Y209130D01*
X251710Y492550D02*
Y500892D01*
X248074Y469222D02*
X251710Y472858D01*
Y476842D01*
X203798Y497670D02*
Y506052D01*
X224746Y471374D02*
Y482550D01*
X219574Y466202D02*
X224746Y471374D01*
X203976Y466202D02*
X219574D01*
X221150Y506052D02*
X224746Y502456D01*
X-52916Y417842D02*
Y425534D01*
X-17864Y441034D02*
X-4154D01*
X2202Y419104D02*
Y427312D01*
X116262Y246666D02*
Y255629D01*
X136324Y219638D02*
X142420D01*
X129252Y221376D02*
X130990Y219638D01*
X136324D01*
X123734Y221376D02*
X129252D01*
X60928Y206670D02*
X68708Y198890D01*
X56466Y206670D02*
X60928Y206670D01*
X224746Y502456D02*
X228556D01*
X229746Y501266D01*
Y497550D02*
Y501266D01*
X224746Y497550D02*
Y502456D01*
X188254Y49694D02*
X188254Y41102D01*
X234746Y497675D02*
Y515176D01*
X213530Y480652D02*
X215303Y482425D01*
X219746D01*
X234746Y477216D02*
Y482425D01*
Y492550D02*
X251710D01*
X245932Y476842D02*
X251710D01*
X244010Y478764D02*
X245932Y476842D01*
X244010Y478764D02*
Y483192D01*
X239652Y487550D02*
X244010Y483192D01*
X234746Y487550D02*
X239652D01*
X203798Y497670D02*
X203803Y497675D01*
X219746D01*
X91366Y209130D02*
X96620Y209130D01*
X99374Y206376D01*
X105734D01*
X102542Y196356D02*
X102542Y186702D01*
X102542Y196356D02*
X105076Y198890D01*
X111352D01*
X115750Y203288D01*
X115750Y210908D02*
X115750Y203288D01*
X115750Y210908D02*
X118718Y213876D01*
X123734D01*
X20412Y363480D02*
Y381372D01*
X30412Y356872D02*
Y381372D01*
X50782Y355872D02*
X67162D01*
X57602Y325872D02*
X67162D01*
X46332Y337142D02*
X57602Y325872D01*
X41572Y337142D02*
X46332D01*
X56442Y315872D02*
X67162D01*
X47872Y324442D02*
X56442Y315872D01*
X36492Y324442D02*
X47872D01*
X-19588Y290372D02*
Y301382D01*
X-10498Y310472D01*
X-9588Y290372D02*
Y299952D01*
X-338Y309202D01*
X10412Y290372D02*
Y305392D01*
X20412Y290372D02*
Y311742D01*
X-61088Y381372D02*
Y396622D01*
X-49588Y381372D02*
Y396342D01*
X-39588Y381372D02*
Y396342D01*
X-29588Y381372D02*
Y396342D01*
X-61088Y278932D02*
Y290372D01*
X-65108Y274912D02*
X-61088Y278932D01*
X-49588Y279104D02*
Y290372D01*
X-53678Y275014D02*
X-49588Y279104D01*
X-53678Y274912D02*
Y275014D01*
X158951Y44118D02*
Y55392D01*
X77142Y123702D02*
X77142Y109482D01*
X507701Y367229D02*
Y380372D01*
Y367229D02*
X511511Y363419D01*
Y354882D02*
Y363419D01*
Y354882D02*
X520530D01*
X517201Y373000D02*
Y380372D01*
Y373000D02*
X529420Y360781D01*
Y344856D02*
Y360781D01*
X524446Y339882D02*
X529420Y344856D01*
X511511Y339882D02*
X524446D01*
X197476Y466202D02*
Y487550D01*
X219746D01*
X203976Y466202D02*
Y477448D01*
X206578Y480050D01*
X541612Y368130D02*
Y377249D01*
X549740Y368155D02*
Y377274D01*
X533484Y368105D02*
Y377225D01*
X19086Y148110D02*
Y161923D01*
X6928Y148110D02*
X19086D01*
X261710Y510739D02*
X261797Y510827D01*
X261710Y492550D02*
Y510739D01*
X716000Y512123D02*
G03*
X777123Y451000I61123J0D01*
G01*
X0Y23877D02*
G03*
X-61123Y85000I-61123J-0D01*
G01*
X-85000Y536000D02*
X716000D01*
X0Y0D02*
X801000D01*
X-85000Y85000D02*
X-61123D01*
X777123Y451000D02*
X801000D01*
X801000Y0D02*
Y451000D01*
X-85000Y85000D02*
Y536000D01*
X0Y0D02*
Y23877D01*
X716000Y512123D02*
Y536000D01*
D13*
X427744Y130966D02*
X439234D01*
X441622Y128578D02*
X445038D01*
X446339Y127277D01*
X439234Y130966D02*
X441622Y128578D01*
X422416Y137217D02*
X422416Y136294D01*
X427744Y130966D01*
X414116Y137217D02*
X422416D01*
X406633Y145291D02*
X406968Y143220D01*
X401131Y137383D02*
X406968Y143220D01*
X435312Y137217D02*
X443781Y137217D01*
X446339Y135659D01*
X431296Y137217D02*
X435312Y137217D01*
X423222Y145291D02*
X431296Y137217D01*
X406633Y145291D02*
X423222Y145291D01*
X316007Y141141D02*
X317679Y139469D01*
X310175Y141141D02*
X316007Y141141D01*
X308600Y142714D02*
X310175Y141141D01*
X307198Y144598D02*
X308600Y142714D01*
X307198Y144598D02*
Y149088D01*
X341132Y152400D02*
X341132Y148637D01*
X341132Y152400D02*
X343070Y154338D01*
X345981Y154338D01*
X348885Y157242D01*
X348885Y160153D01*
X327036Y158482D02*
X327036Y155287D01*
X333686Y148637D01*
X341132Y148637D01*
X319698Y170588D02*
X325768Y170588D01*
X326963Y171783D01*
X324930Y160588D02*
X327036Y158482D01*
X319698Y160588D02*
X324930Y160588D01*
D14*
X424394Y218517D02*
Y218687D01*
X423391Y219520D02*
X424394Y218517D01*
X411241Y219520D02*
X423391D01*
D16*
X402778Y114754D02*
Y122736D01*
X401131Y124383D02*
X402778Y122736D01*
X427244Y124262D02*
X435949D01*
X436010Y124323D01*
X411081Y204507D02*
Y211894D01*
Y219360D02*
X411241Y219520D01*
X411081Y211894D02*
Y219360D01*
X388789Y186136D02*
X389124Y186136D01*
X388789Y186136D02*
X393418Y181507D01*
X397081D01*
X435202Y219023D02*
X436627Y216045D01*
X436627Y203771D02*
X436627Y216045D01*
X430363Y197507D02*
X436627Y203771D01*
X425081Y197507D02*
X430363D01*
X318698Y195588D02*
X322839D01*
X324780Y197529D01*
Y208660D01*
X325202Y209082D01*
X395911Y208456D02*
X401147D01*
X403081Y206522D01*
Y204507D02*
Y206522D01*
X436010Y124323D02*
X436055Y124278D01*
X415081Y207946D02*
X418237Y211982D01*
X415081Y204507D02*
X415081Y207946D01*
X419081Y204507D02*
X424359Y204478D01*
X387614Y201338D02*
X387762Y201190D01*
Y199507D02*
Y201190D01*
Y199507D02*
X389762Y197507D01*
X397081D01*
X378734Y192290D02*
X391875Y192290D01*
X393092Y193507D01*
X397081D01*
X384942Y178548D02*
X385983Y177507D01*
X387614Y209720D02*
X392801Y214907D01*
X400600Y214907D01*
X407081Y208426D01*
Y204507D02*
Y208426D01*
D17*
X308720Y260301D02*
X405425D01*
X409501Y264378D01*
X390856Y318679D02*
X409501Y300033D01*
Y264378D02*
Y300033D01*
X299749Y264324D02*
X379437D01*
X385311Y270197D02*
Y311616D01*
X379437Y264324D02*
X385311Y270197D01*
X380795Y316131D02*
Y335098D01*
Y316131D02*
X385311Y311616D01*
X293321Y268388D02*
X354729D01*
X360123Y273781D01*
Y305098D01*
X370912Y315887D02*
Y335091D01*
X360123Y305098D02*
X370912Y315887D01*
X390856Y318679D02*
Y335091D01*
X261709Y339198D02*
X274300Y351788D01*
X261709Y281279D02*
Y339198D01*
X246786Y266356D02*
X261709Y281279D01*
X218817Y266356D02*
X246786D01*
X523330Y57586D02*
Y82968D01*
X390856Y335091D02*
X397992D01*
X397999Y335098D01*
X494842Y30128D02*
X515956D01*
X-13251Y457902D02*
X11410D01*
X50412Y381372D02*
Y418900D01*
X11410Y457902D02*
X50412Y418900D01*
X457342Y36628D02*
X468475D01*
X474975Y30128D01*
X494842D01*
X129252Y80174D02*
X138774D01*
X127514Y81912D02*
Y92023D01*
Y81912D02*
X129252Y80174D01*
X445191Y36628D02*
X457342D01*
X439969Y31406D02*
X445191Y36628D01*
X108972Y97878D02*
Y105418D01*
X280378Y255446D02*
X293321Y268388D01*
X293078Y257654D02*
X299749Y264324D01*
X305778Y257360D02*
X308720Y260301D01*
X305778Y246339D02*
Y257360D01*
X293078Y246339D02*
Y257654D01*
X136150Y105418D02*
X136314Y105582D01*
X137838Y237762D02*
X149024Y226576D01*
X120058Y237762D02*
X137838D01*
X91620Y105291D02*
X91747Y105418D01*
X108972Y105418D01*
X146150Y105418D02*
X154358D01*
X114136Y237762D02*
X120058Y237762D01*
X149024Y209638D02*
Y226576D01*
Y186702D02*
Y209638D01*
X136324D02*
X149024D01*
X102542Y115578D02*
X102542Y123702D01*
X102542Y115578D02*
X108972Y109148D01*
X108972Y105418D02*
X108972Y109148D01*
X149024Y123702D02*
X149024Y112784D01*
X146150Y109910D02*
X149024Y112784D01*
X146150Y109910D02*
X146150Y105418D01*
X-37676Y420120D02*
Y428582D01*
X6868Y148050D02*
X6928Y148110D01*
X19086Y98212D02*
Y120210D01*
X16934Y96060D02*
X19086Y98212D01*
X24086D02*
Y120210D01*
Y98212D02*
X26238Y96060D01*
X7764D02*
X16934D01*
X26238D02*
X36264D01*
X29086Y114388D02*
Y120210D01*
Y114388D02*
X32428Y111046D01*
X52146D01*
X67162Y335872D02*
X81370D01*
D20*
X284037Y109611D02*
X292058Y117632D01*
Y134558D01*
X281182Y109111D02*
X284037Y109611D01*
X282198Y144418D02*
X292058Y134558D01*
X267000Y109475D02*
X267136Y109611D01*
X441627Y43128D02*
X457342D01*
X531787Y288532D02*
X566585D01*
X566585Y288532D01*
X343878Y255446D02*
X460882D01*
X467988Y262552D02*
Y284076D01*
X460882Y255446D02*
X467988Y262552D01*
X477858Y293946D02*
X512042D01*
X467988Y284076D02*
X477858Y293946D01*
X517455Y288532D02*
X531787D01*
X512042Y293946D02*
X517455Y288532D01*
X578714Y312423D02*
X580734Y310403D01*
Y290672D02*
Y310403D01*
X267678Y255446D02*
X326262Y314030D01*
X335660D01*
X379131Y147533D02*
X379990Y148392D01*
X379131Y137383D02*
X379131Y147533D01*
X248900Y279645D02*
Y326388D01*
X212639Y272051D02*
X241306D01*
X248900Y279645D01*
X179160Y189140D02*
Y286196D01*
X179226Y286262D01*
X423391Y32168D02*
Y48032D01*
X424987Y49628D01*
X431683Y30128D02*
Y43783D01*
X431790Y43890D01*
X571995Y312423D02*
X578714D01*
X390566Y44133D02*
Y62694D01*
X390495Y44062D02*
X390566Y44133D01*
X343878Y77233D02*
Y86339D01*
X120932Y311742D02*
X177006D01*
X88620D02*
X120932D01*
X87471Y304710D02*
X176422D01*
X206286Y195539D02*
X226101D01*
X202528Y199297D02*
X206286Y195539D01*
X193687Y208138D02*
X202528Y199297D01*
X72410Y155883D02*
X139732D01*
X72055Y155528D02*
X72410Y155883D01*
X139732D02*
X163492Y179643D01*
X76259Y152339D02*
X144710D01*
X72031Y148110D02*
X76259Y152339D01*
X144710D02*
X165878Y173507D01*
X79275Y148829D02*
X147938D01*
X62146Y131700D02*
X79275Y148829D01*
X147938D02*
X166600Y167491D01*
X111655Y145086D02*
X150831D01*
X108972Y142403D02*
X111655Y145086D01*
X150831D02*
X167408Y161663D01*
X201942Y187183D02*
X206286Y182839D01*
X186689Y202436D02*
X201942Y187183D01*
X73133Y290372D02*
X87471Y304710D01*
X176422D02*
X198100Y326388D01*
X77872Y300994D02*
X88620Y311742D01*
X177006D02*
X185066Y319802D01*
X267672Y86345D02*
X267672Y86339D01*
X89221Y318680D02*
X146150D01*
X75251Y304710D02*
X89221Y318680D01*
X35904Y304710D02*
X75251D01*
X30437Y299243D02*
X35904Y304710D01*
X30412Y290372D02*
X30437Y290397D01*
Y299243D01*
X52541Y300994D02*
X77872D01*
X60412Y290372D02*
X73133D01*
X50790Y299243D02*
X52541Y300994D01*
X172700Y351788D02*
X185066Y339422D01*
Y319802D02*
Y339422D01*
X50412Y290372D02*
X50790Y290750D01*
Y299243D01*
X81370Y335872D02*
X152236D01*
X31518Y155528D02*
X72055D01*
X29086Y153096D02*
X31518Y155528D01*
X29086Y148110D02*
Y153096D01*
X165878Y173507D02*
X169508D01*
X34086Y148110D02*
X72031D01*
X166600Y167491D02*
X191606D01*
X62146Y111046D02*
Y131700D01*
X167408Y161663D02*
X197810D01*
X179160Y189140D02*
X210507Y157793D01*
X216524D02*
X216878Y157439D01*
X210507Y157793D02*
X216524D01*
X424987Y49628D02*
X457342D01*
X136150Y105418D02*
Y132788D01*
X144383Y141021D01*
X172700D01*
X195704D01*
X199422Y144739D01*
X216878D01*
X305817Y62035D02*
Y77194D01*
X276462Y55770D02*
X299552D01*
X305817Y62035D01*
X318517Y59402D02*
Y77194D01*
X312782Y53667D02*
X318517Y59402D01*
X312782Y41290D02*
Y53667D01*
Y41290D02*
X328944Y25128D01*
X374259D01*
X377504Y28372D02*
Y33757D01*
X374259Y25128D02*
X377504Y28372D01*
X345804Y33668D02*
X364590D01*
X338182Y41290D02*
X345804Y33668D01*
X390566Y44133D02*
X403473D01*
X280378Y69252D02*
Y86339D01*
X280378Y69252D02*
X280378Y69252D01*
X293117Y63575D02*
Y67076D01*
X293078Y67115D02*
Y77233D01*
Y67115D02*
X293117Y67076D01*
X305778Y77233D02*
X305817Y77194D01*
X318478Y77233D02*
X318517Y77194D01*
X331178Y77233D02*
X331217Y77194D01*
Y48255D02*
Y77194D01*
X236437Y279104D02*
Y339325D01*
X223500Y286262D02*
Y326388D01*
X193687Y208138D02*
Y292772D01*
X200180Y214345D02*
Y286262D01*
X206251Y290332D02*
X210656Y294737D01*
Y338945D02*
X223500Y351788D01*
X210656Y294737D02*
Y338945D01*
X236437Y339325D02*
X248900Y351788D01*
X186689Y202436D02*
Y279104D01*
X200180Y214345D02*
X206286Y208239D01*
X206286Y220939D02*
Y290297D01*
X206251Y290332D02*
X206286Y290297D01*
X335660Y314030D02*
Y339201D01*
X231016Y61124D02*
X290666D01*
X211182Y41290D02*
X231016Y61124D01*
X290666D02*
X293117Y63575D01*
X261982Y41290D02*
X276462Y55770D01*
X331217Y48255D02*
X338182Y41290D01*
X206286Y170139D02*
X216878Y170139D01*
X256295Y195588D02*
X260698D01*
X238798Y178091D02*
X256295Y195588D01*
X233014Y178091D02*
X238798Y178091D01*
X225145Y170222D02*
X233014Y178091D01*
X225145Y160820D02*
Y170222D01*
X221764Y157439D02*
X225145Y160820D01*
X216878Y157439D02*
X221764Y157439D01*
X206286Y182839D02*
X216878Y182839D01*
X206286Y208239D02*
X216878Y208239D01*
X206286Y220939D02*
X216878Y220939D01*
X318478Y246339D02*
Y255446D01*
X267672Y77239D02*
X267672Y86339D01*
X254978Y246339D02*
X254978Y255446D01*
X343878D02*
X343878Y246339D01*
X280378Y255446D02*
X280378Y246339D01*
X267678Y255446D02*
X267678Y246339D01*
X242278Y77233D02*
Y86339D01*
X254978Y77233D02*
Y86339D01*
X293078Y77233D02*
Y86339D01*
X305778Y77233D02*
Y86339D01*
X318478Y77233D02*
Y86339D01*
X331178Y77233D02*
Y86339D01*
X240211Y162883D02*
Y165510D01*
X255289Y180588D01*
X303184Y125113D02*
X308077Y120720D01*
X314726D01*
X318127Y117319D01*
Y116011D02*
Y117319D01*
X300661Y128136D02*
X303184Y125113D01*
X300661Y128136D02*
Y130990D01*
X287198Y144453D02*
X300661Y130990D01*
X287198Y144453D02*
X287198Y149088D01*
X267136Y109611D02*
X281182Y109111D01*
X282198Y144418D02*
Y149088D01*
X332494Y218283D02*
X334371Y216406D01*
X334371Y197291D01*
X322668Y185588D02*
X334371Y197291D01*
X318698Y185588D02*
X322668Y185588D01*
X335654Y189952D02*
X338723Y189952D01*
X329264Y183562D02*
X335654Y189952D01*
X329264Y181035D02*
Y183562D01*
X323817Y175588D02*
X329264Y181035D01*
X318698Y175588D02*
X323817Y175588D01*
X331178Y231664D02*
Y246339D01*
X319698Y220184D02*
X331178Y231664D01*
X319698Y220184D02*
X319698Y200588D01*
X318698D02*
X319698D01*
X305778Y238372D02*
Y246339D01*
Y238372D02*
X309188Y234962D01*
Y220490D02*
Y234962D01*
X302198Y213500D02*
X309188Y220490D01*
X302198Y207088D02*
X302198Y213500D01*
X293078Y242835D02*
Y246339D01*
Y242835D02*
X305600Y230313D01*
X305600Y221510D02*
X305600Y230313D01*
X297198Y213108D02*
X305600Y221510D01*
X297198Y207088D02*
Y213108D01*
X335200Y225370D02*
X337870Y222700D01*
Y196469D02*
Y222700D01*
X325887Y184486D02*
X337870Y196469D01*
X325887Y182445D02*
Y184486D01*
X324030Y180588D02*
X325887Y182445D01*
X318698Y180588D02*
X324030Y180588D01*
X318698Y190588D02*
X323116D01*
X330106Y197578D01*
Y211742D01*
X329841Y212772D02*
X330106Y211742D01*
X325246Y217367D02*
X329841Y212772D01*
X325246Y217367D02*
X325792Y217421D01*
X236892Y226642D02*
X237103Y226431D01*
X274763D01*
X287198Y213996D01*
X287198Y207088D02*
X287198Y213996D01*
X321088Y152271D02*
Y154198D01*
X319698Y155588D02*
X321088Y154198D01*
X318698Y155588D02*
X319698Y155588D01*
X226101Y195539D02*
X231841Y201279D01*
Y209777D01*
X240909Y218845D01*
X272636D01*
X277198Y214283D01*
X277198Y207088D02*
X277198Y214283D01*
X216878Y182839D02*
X223604D01*
X235525Y194760D01*
X235525Y208685D02*
X235525Y194760D01*
X235525Y208685D02*
X242669Y215829D01*
X271359D01*
X272198Y214990D01*
X272198Y207088D01*
X251427Y199169D02*
X252846Y200588D01*
X260698Y200588D01*
X216878Y144739D02*
X225116D01*
X228728Y148351D01*
X228728Y168803D01*
X234944Y175019D01*
X240163D01*
X255732Y190588D01*
X260698Y190588D01*
X233185Y136039D02*
X233185Y168533D01*
X236343Y171691D01*
X241614D01*
X255511Y185588D01*
X260698D01*
X255921Y175588D02*
X260698D01*
X246678Y166345D02*
X255921Y175588D01*
X246678Y146599D02*
Y166345D01*
X238323Y140594D02*
X246678Y146599D01*
X255531Y170588D02*
X260698Y170588D01*
X249977Y165034D02*
X255531Y170588D01*
X249977Y141118D02*
Y165034D01*
X249251Y140266D02*
X249977Y141118D01*
X318478Y224539D02*
Y246339D01*
X307198Y213259D02*
X318478Y224539D01*
X307198Y207088D02*
Y213259D01*
X255411Y118060D02*
X257230Y120832D01*
Y124800D01*
X261709Y129279D01*
Y137260D01*
X253220Y145749D02*
X261709Y137260D01*
X253220Y162816D02*
X253220Y145749D01*
X253220Y162816D02*
X255992Y165588D01*
X260698Y165588D01*
X259638Y151699D02*
X259638Y155528D01*
X259698Y155588D01*
X260698Y155588D01*
X267198Y142633D02*
X267428Y142403D01*
X267198Y149088D02*
X267198Y142633D01*
X273319Y138704D02*
Y142290D01*
X272198Y143411D02*
X273319Y142290D01*
X272198Y143411D02*
Y149088D01*
X353968Y133350D02*
X353968Y136659D01*
X353818Y136809D02*
X353968Y136659D01*
X347318Y136809D02*
X353818Y136809D01*
X342758Y141369D02*
X347318Y136809D01*
X331798Y141369D02*
X342758Y141369D01*
X325998Y147169D02*
X331798Y141369D01*
X317117Y147169D02*
X325998D01*
X312198Y148088D02*
X317117Y147169D01*
X312198Y148088D02*
Y149088D01*
X327269Y113558D02*
X329090Y113558D01*
X323991Y116836D02*
X327269Y113558D01*
X323991Y122963D02*
X323991Y116836D01*
X322672Y124282D02*
X323991Y122963D01*
X321534Y124282D02*
X322672D01*
X311416Y134400D02*
X321534Y124282D01*
X302712Y134400D02*
X311416Y134400D01*
X292198Y144914D02*
X302712Y134400D01*
X292198Y144914D02*
X292198Y149088D01*
X330492Y124043D02*
X331800D01*
X327103Y127432D02*
X330492Y124043D01*
X322964Y127432D02*
X327103Y127432D01*
X312924Y137472D02*
X322964Y127432D01*
X308003Y137472D02*
X312924Y137472D01*
X302198Y143277D02*
X308003Y137472D01*
X302198Y143277D02*
X302198Y149088D01*
X255289Y180588D02*
X260698Y180588D01*
X292198Y207088D02*
Y213507D01*
X293698Y215007D01*
X293706Y215007D01*
X297889Y219190D01*
Y225680D01*
X280378Y86339D02*
Y91664D01*
X272414Y99628D02*
X280378Y91664D01*
X262777Y99628D02*
X272414D01*
X260325Y102080D02*
X262777Y99628D01*
X260325Y102080D02*
Y123287D01*
X270855Y133817D01*
X275221D01*
X278563Y137159D01*
Y141056D01*
X277198Y142421D02*
X278563Y141056D01*
X277198Y142421D02*
Y149088D01*
X348885Y160153D02*
X350193D01*
X318698Y170588D02*
X319698Y170588D01*
X318698Y160588D02*
X319698Y160588D01*
X315266D02*
X318698Y160588D01*
X312423Y163431D02*
X315266Y160588D01*
X312423Y163431D02*
Y167491D01*
X315520Y170588D01*
X318698Y170588D01*
X326949Y165588D02*
X327077Y165588D01*
X328203Y166714D01*
X333718Y166714D01*
X336006Y169002D01*
X336006Y170489D02*
X336006Y169002D01*
X336006Y170489D02*
X336036Y170519D01*
X318698Y165588D02*
X326949Y165588D01*
X339195Y160153D02*
X340503Y160153D01*
X336490Y162858D02*
X339195Y160153D01*
X329679Y162858D02*
X336490Y162858D01*
X326949Y165588D02*
X329679Y162858D01*
X282198Y213961D02*
X282198Y207088D01*
X274130Y222029D02*
X282198Y213961D01*
X239527Y222029D02*
X274130D01*
X225737Y208239D02*
X239527Y222029D01*
X216878Y208239D02*
X225737Y208239D01*
D29*
X329090Y113558D02*
D03*
X337472Y113558D02*
D03*
X331800Y124043D02*
D03*
X340182D02*
D03*
X329024Y133588D02*
D03*
X337406D02*
D03*
X297889Y225680D02*
D03*
X289507D02*
D03*
X341132Y148637D02*
D03*
X349514Y148637D02*
D03*
X384942Y178548D02*
D03*
X376560D02*
D03*
X340503Y160153D02*
D03*
X348885D02*
D03*
X436547Y181647D02*
D03*
X444929D02*
D03*
D30*
X240211Y162883D02*
D03*
Y154501D02*
D03*
X242248Y205100D02*
D03*
Y196718D02*
D03*
X424394Y227069D02*
D03*
Y218687D02*
D03*
X411241Y227902D02*
D03*
Y219520D02*
D03*
X435202Y227405D02*
D03*
Y219023D02*
D03*
X361142Y150064D02*
D03*
Y158446D02*
D03*
X336036Y170519D02*
D03*
X336036Y178901D02*
D03*
X356640Y181127D02*
D03*
Y189509D02*
D03*
X434790Y170002D02*
D03*
X434790Y161620D02*
D03*
X445347Y170045D02*
D03*
X445347Y161663D02*
D03*
X267000Y117857D02*
D03*
Y109475D02*
D03*
X318127Y107629D02*
D03*
X318127Y116011D02*
D03*
X346709Y189509D02*
D03*
Y181127D02*
D03*
X387371Y159820D02*
D03*
Y168202D02*
D03*
X446339Y135659D02*
D03*
Y127277D02*
D03*
X353968Y133350D02*
D03*
Y124968D02*
D03*
X387614Y201338D02*
D03*
Y209720D02*
D03*
X378734Y192290D02*
D03*
Y200672D02*
D03*
D31*
X244292Y129250D02*
D03*
X244292Y114010D02*
D03*
D32*
X413325Y124217D02*
D03*
X435325Y137217D02*
D03*
X413325D02*
D03*
X413325Y130717D02*
D03*
X435325Y124217D02*
D03*
X401087Y124383D02*
D03*
X379087Y130883D02*
D03*
X379087Y137383D02*
D03*
X401087D02*
D03*
X379087Y124383D02*
D03*
D33*
X303184Y109111D02*
D03*
X281182Y125113D02*
D03*
Y109111D02*
D03*
X303184Y125113D02*
D03*
D34*
X560315Y184302D02*
D03*
X590315D02*
D03*
X565830Y239630D02*
D03*
X535830D02*
D03*
D35*
X601495Y77749D02*
D03*
D36*
X584495D02*
D03*
Y55749D02*
D03*
X603495D02*
D03*
D37*
X510122Y273750D02*
D03*
X490122Y264250D02*
D03*
Y283250D02*
D03*
X582380Y112317D02*
D03*
X582380Y93317D02*
D03*
X602380Y102817D02*
D03*
D38*
X-39628Y273642D02*
D03*
X-29628D02*
D03*
X-29628Y260096D02*
D03*
X-39628D02*
D03*
X431627Y43128D02*
D03*
X441627D02*
D03*
X127514Y92023D02*
D03*
X137514D02*
D03*
X62602Y110974D02*
D03*
X52602D02*
D03*
X29086Y161923D02*
D03*
X19086D02*
D03*
X178254Y49694D02*
D03*
X188254D02*
D03*
X108972Y105418D02*
D03*
X118972Y105418D02*
D03*
X114136Y237762D02*
D03*
X104136D02*
D03*
X136150Y105418D02*
D03*
X146150D02*
D03*
X193798Y497670D02*
D03*
X203798D02*
D03*
X-13251Y457902D02*
D03*
X-23251D02*
D03*
X251797Y510827D02*
D03*
X261797D02*
D03*
X261710Y476842D02*
D03*
X251710D02*
D03*
X261710Y492550D02*
D03*
X251710D02*
D03*
D39*
X541403Y147722D02*
D03*
X590903D02*
D03*
D40*
X552366Y112470D02*
D03*
Y68270D02*
D03*
D41*
X613453Y102705D02*
D03*
X613453Y92705D02*
D03*
X-39708Y246888D02*
D03*
Y236888D02*
D03*
X6868Y138050D02*
D03*
Y148050D02*
D03*
X138600Y409364D02*
D03*
Y399364D02*
D03*
X125900Y409364D02*
D03*
Y399364D02*
D03*
X113200Y409364D02*
D03*
Y399364D02*
D03*
X370912Y335091D02*
D03*
Y345091D02*
D03*
X403473Y34133D02*
D03*
Y44133D02*
D03*
X390495Y44062D02*
D03*
Y34062D02*
D03*
X364590Y43668D02*
D03*
X364590Y33668D02*
D03*
X91366Y219130D02*
D03*
X91366Y209130D02*
D03*
X136324Y209638D02*
D03*
X136324Y219638D02*
D03*
X2202Y409104D02*
D03*
Y419104D02*
D03*
X-37676Y420120D02*
D03*
Y410120D02*
D03*
X380795Y335098D02*
D03*
X380795Y345098D02*
D03*
X377504Y43757D02*
D03*
Y33757D02*
D03*
X230040Y464110D02*
D03*
Y454110D02*
D03*
X234746Y515176D02*
D03*
Y525176D02*
D03*
X170350Y449076D02*
D03*
Y439076D02*
D03*
X390856Y345091D02*
D03*
X390856Y335091D02*
D03*
D42*
X457342Y49628D02*
D03*
Y43128D02*
D03*
Y36628D02*
D03*
Y30128D02*
D03*
X494842Y49628D02*
D03*
Y43128D02*
D03*
Y36628D02*
D03*
Y30128D02*
D03*
D43*
X-24958Y184912D02*
D03*
X-54458D02*
D03*
X503540Y166296D02*
D03*
X474040Y166296D02*
D03*
D44*
X-39708Y200162D02*
D03*
X488790Y181546D02*
D03*
D45*
X-39708Y221742D02*
D03*
X-24708D02*
D03*
D46*
X406331Y192757D02*
D03*
X415831D02*
D03*
X415831Y178257D02*
D03*
X406331D02*
D03*
D47*
X425081Y173507D02*
D03*
X397081Y189507D02*
D03*
X397081Y185507D02*
D03*
Y173507D02*
D03*
X425081Y189507D02*
D03*
X425081Y193507D02*
D03*
Y185507D02*
D03*
X425081Y177507D02*
D03*
X397081Y181507D02*
D03*
X425081Y197507D02*
D03*
X397081D02*
D03*
X397081Y193507D02*
D03*
X397081Y177507D02*
D03*
X425081Y181507D02*
D03*
D48*
X403081Y166507D02*
D03*
X407081D02*
D03*
X411081Y166507D02*
D03*
X415081D02*
D03*
X419081D02*
D03*
X411081Y204507D02*
D03*
X403081Y204507D02*
D03*
X415081Y204507D02*
D03*
X419081D02*
D03*
X407081D02*
D03*
D49*
X278698Y167088D02*
D03*
Y189088D02*
D03*
X300698D02*
D03*
Y167088D02*
D03*
D50*
X287198Y149088D02*
D03*
X282198Y149088D02*
D03*
X312198Y207088D02*
D03*
X267198D02*
D03*
X307198Y149088D02*
D03*
X302198Y207088D02*
D03*
X297198D02*
D03*
X287198D02*
D03*
X277198Y207088D02*
D03*
X272198Y207088D02*
D03*
X307198D02*
D03*
X267198Y149088D02*
D03*
X272198D02*
D03*
X282198Y207088D02*
D03*
X312198Y149088D02*
D03*
X292198Y149088D02*
D03*
X302198D02*
D03*
X292198Y207088D02*
D03*
X277198Y149088D02*
D03*
X297198Y149088D02*
D03*
D51*
X260698Y160588D02*
D03*
X318698Y185588D02*
D03*
X318698Y175588D02*
D03*
X318698Y200588D02*
D03*
Y180588D02*
D03*
X318698Y190588D02*
D03*
Y195588D02*
D03*
Y155588D02*
D03*
X260698Y200588D02*
D03*
X260698Y195588D02*
D03*
X260698Y190588D02*
D03*
Y185588D02*
D03*
X260698Y175588D02*
D03*
X260698Y170588D02*
D03*
X260698Y165588D02*
D03*
Y155588D02*
D03*
Y180588D02*
D03*
X318698Y170588D02*
D03*
Y160588D02*
D03*
X318698Y165588D02*
D03*
D52*
X488790Y136578D02*
D03*
D53*
X536300Y430518D02*
D03*
X507300D02*
D03*
D54*
X541612Y377249D02*
D03*
Y408249D02*
D03*
X547833Y483791D02*
D03*
Y452791D02*
D03*
X513543Y483791D02*
D03*
Y452791D02*
D03*
D55*
X23432Y191140D02*
D03*
Y231140D02*
D03*
X468331Y430252D02*
D03*
Y470252D02*
D03*
X602996Y340548D02*
D03*
Y300548D02*
D03*
D56*
X7764Y96060D02*
D03*
X36264D02*
D03*
D57*
X19086Y120210D02*
D03*
X24086D02*
D03*
X29086D02*
D03*
X34086D02*
D03*
Y148110D02*
D03*
X29086D02*
D03*
X24086D02*
D03*
X19086D02*
D03*
D58*
X32742Y50038D02*
D03*
D59*
X134242D02*
D03*
D60*
X172700Y141021D02*
D03*
X335353Y339508D02*
D03*
X170350Y481922D02*
D03*
X172700Y515176D02*
D03*
X357214Y470492D02*
D03*
X604480Y383450D02*
D03*
X91747Y105418D02*
D03*
D61*
X113200Y437904D02*
D03*
X125900D02*
D03*
X138600D02*
D03*
X151300D02*
D03*
Y490904D02*
D03*
X138600D02*
D03*
X125900D02*
D03*
X113200D02*
D03*
D62*
X184476Y406202D02*
D03*
X190976D02*
D03*
X197476D02*
D03*
X203976D02*
D03*
Y466202D02*
D03*
X197476D02*
D03*
X190976D02*
D03*
X184476D02*
D03*
D63*
X234746Y497675D02*
D03*
X219746D02*
D03*
Y482425D02*
D03*
X234746D02*
D03*
X229746Y497550D02*
D03*
X224746D02*
D03*
X229746Y482550D02*
D03*
X224746D02*
D03*
D64*
X234746Y487550D02*
D03*
Y492550D02*
D03*
X219746Y487550D02*
D03*
Y492550D02*
D03*
D65*
X450651Y375522D02*
D03*
X450652Y400521D02*
D03*
D66*
X365412Y366706D02*
D03*
X365412Y375705D02*
D03*
X378118Y375733D02*
D03*
X378118Y366733D02*
D03*
X-52916Y417842D02*
D03*
Y408842D02*
D03*
X-40911Y448902D02*
D03*
Y457902D02*
D03*
X390883Y375699D02*
D03*
X390883Y366699D02*
D03*
D67*
X101262Y264879D02*
D03*
D68*
Y282379D02*
D03*
D69*
X86262Y255629D02*
D03*
X116262D02*
D03*
X101262Y255629D02*
D03*
D70*
X488657Y354882D02*
D03*
Y339882D02*
D03*
X511511Y339882D02*
D03*
Y354882D02*
D03*
X473411Y401872D02*
D03*
Y386872D02*
D03*
X571995Y312423D02*
D03*
Y327423D02*
D03*
X536435Y312423D02*
D03*
Y327423D02*
D03*
X566585Y273532D02*
D03*
Y288532D02*
D03*
X549059Y273532D02*
D03*
Y288532D02*
D03*
X554215Y327423D02*
D03*
Y312423D02*
D03*
X531787Y273532D02*
D03*
Y288532D02*
D03*
D71*
X456241Y494702D02*
D03*
X437241D02*
D03*
X456241Y518832D02*
D03*
X437241Y518832D02*
D03*
D72*
X183254Y67076D02*
D03*
X183254Y86526D02*
D03*
D73*
X158951Y86392D02*
D03*
Y55392D02*
D03*
X-17864Y410034D02*
D03*
Y441034D02*
D03*
D74*
X498201Y380372D02*
D03*
X507701D02*
D03*
X517201D02*
D03*
X498201Y408372D02*
D03*
X507701D02*
D03*
X517201D02*
D03*
D75*
X65966Y226670D02*
D03*
X75466Y206670D02*
D03*
X56466D02*
D03*
D76*
X123734Y213876D02*
D03*
D77*
Y221376D02*
D03*
Y206376D02*
D03*
X105734D02*
D03*
Y221376D02*
D03*
D78*
X102542Y123702D02*
D03*
X77142D02*
D03*
X102542Y186702D02*
D03*
X77142Y186702D02*
D03*
X149024Y123702D02*
D03*
X123624Y123702D02*
D03*
X149024Y186702D02*
D03*
X123624D02*
D03*
D79*
X60412Y381372D02*
D03*
X50412D02*
D03*
X40412D02*
D03*
X30412D02*
D03*
X20412D02*
D03*
X10412D02*
D03*
X412D02*
D03*
X-9588D02*
D03*
X-19588D02*
D03*
X-29588D02*
D03*
X-39588D02*
D03*
X-49588D02*
D03*
X60412Y290372D02*
D03*
X50412D02*
D03*
X40412D02*
D03*
X30412D02*
D03*
X20412D02*
D03*
X10412D02*
D03*
X412D02*
D03*
X-9588D02*
D03*
X-19588D02*
D03*
X-29588D02*
D03*
X-39588D02*
D03*
X-49588D02*
D03*
D80*
X-61088Y381372D02*
D03*
Y290372D02*
D03*
D81*
X67162Y335872D02*
D03*
Y325872D02*
D03*
Y355872D02*
D03*
Y315872D02*
D03*
Y345872D02*
D03*
D82*
X600473Y233844D02*
D03*
Y273468D02*
D03*
D83*
X409911Y470252D02*
D03*
Y430252D02*
D03*
D84*
X335660Y314030D02*
D03*
X345660Y314030D02*
D03*
D85*
X604040Y412580D02*
D03*
Y445280D02*
D03*
D86*
X450626Y234909D02*
D03*
X234556Y234909D02*
D03*
X234556Y97429D02*
D03*
X450626Y97429D02*
D03*
D87*
X456877Y228658D02*
D03*
X228308D02*
D03*
Y103680D02*
D03*
X456877Y103680D02*
D03*
D88*
X216878Y132039D02*
D03*
X216878Y144739D02*
D03*
X216878Y119339D02*
D03*
X216878Y182839D02*
D03*
X216878Y170139D02*
D03*
X254978Y86339D02*
D03*
X267678D02*
D03*
X216878Y157439D02*
D03*
X242278Y86339D02*
D03*
X216878Y195539D02*
D03*
X216878Y220939D02*
D03*
X216878Y208239D02*
D03*
X267678Y246339D02*
D03*
X280378D02*
D03*
X242278Y246339D02*
D03*
X254978Y246339D02*
D03*
X293078Y86339D02*
D03*
X280378Y86339D02*
D03*
X305778Y86339D02*
D03*
X318478Y86339D02*
D03*
X331178Y86339D02*
D03*
X343878Y86339D02*
D03*
X293078Y246339D02*
D03*
X305778Y246339D02*
D03*
X343878D02*
D03*
X318478Y246339D02*
D03*
X331178Y246339D02*
D03*
D159*
X26586Y134160D02*
D03*
D160*
X678515Y215110D02*
X712052D01*
X566585Y273468D02*
X600473D01*
X620157D02*
X678515Y215110D01*
X600473Y273468D02*
X620157D01*
X566585D02*
Y273532D01*
X712052Y215110D02*
X736600D01*
D161*
X510122Y256838D02*
Y273750D01*
Y256838D02*
X527330Y239630D01*
X535830D01*
X544070Y211880D02*
X629966D01*
X535830Y220120D02*
X544070Y211880D01*
X535830Y220120D02*
Y239630D01*
X590315Y148309D02*
Y184302D01*
Y148309D02*
X590903Y147722D01*
X659529Y145110D02*
X712052D01*
X590315Y184302D02*
X620337D01*
X659529Y145110D01*
X712052D02*
X736600D01*
X661736Y180110D02*
X686600D01*
X629966Y211880D02*
X661736Y180110D01*
X686600D02*
X711148D01*
X579718Y395134D02*
Y436134D01*
X578031Y437821D02*
X579718Y436134D01*
X571995Y327423D02*
Y387411D01*
X579718Y395134D01*
X450562Y400611D02*
X450652Y400521D01*
X444301Y400611D02*
X450562D01*
X-24708Y221742D02*
X-10595D01*
X-1197Y231140D02*
X8126D01*
X-10595Y221742D02*
X-1197Y231140D01*
X146150Y87764D02*
X147388Y86526D01*
X158817D02*
X158951Y86392D01*
X147388Y86526D02*
X158817D01*
X357214Y470492D02*
X409671D01*
X409911Y470252D01*
X65966Y226670D02*
X71728Y226670D01*
X113968Y186702D02*
X123624D01*
X85935Y282379D02*
X101262D01*
Y255629D02*
Y282379D01*
X23432Y231140D02*
Y246446D01*
X8126Y231140D02*
X23432Y231140D01*
X16974Y50038D02*
X32742D01*
X159085Y86526D02*
X183254Y86526D01*
D162*
X615871Y36628D02*
X658029D01*
X494842D02*
X615871D01*
X603495Y55749D02*
X615871D01*
X584495Y43128D02*
X646812D01*
X494842D02*
X584495D01*
Y55749D01*
X646812Y43128D02*
X678794Y75110D01*
X658029Y36628D02*
X661511Y40110D01*
X711148D01*
X678794Y75110D02*
X712052D01*
X736600D01*
X549059Y265030D02*
Y273532D01*
X531787Y265030D02*
Y273532D01*
X477898Y354882D02*
X488657D01*
X488657Y339882D02*
X511511D01*
X488657Y339882D02*
X488657Y339882D01*
X113200Y490904D02*
Y502456D01*
D163*
X379131Y130883D02*
X388031D01*
X-39708Y221742D02*
Y236888D01*
Y200162D02*
Y221742D01*
X-39628Y246888D02*
Y260096D01*
X-39708Y246888D02*
X-39628D01*
X-29628Y260096D02*
Y273642D01*
X444929Y181647D02*
X488743D01*
X444929Y170463D02*
X444929Y181647D01*
X488743D02*
X488989Y182739D01*
X413146Y130883D02*
X413312Y130717D01*
X388031Y130883D02*
X413146Y130883D01*
X336036Y178901D02*
X344138D01*
X346709Y181127D01*
X385776Y178548D02*
X387630Y176694D01*
X384942Y178548D02*
X385776D01*
X387371Y168202D02*
X387630Y168461D01*
X387630Y176694D02*
X387630Y168461D01*
X388443Y177507D02*
X397081D01*
X387630Y176694D02*
X388443Y177507D01*
X356640Y189509D02*
X362249Y189509D01*
X363057Y188701D01*
Y184995D02*
Y188701D01*
Y184995D02*
X369504Y178548D01*
X376560Y178548D01*
X346709Y189509D02*
X356640Y189509D01*
X436547Y181647D02*
X436547Y171759D01*
X434790Y170002D02*
X436547Y171759D01*
X436407Y181507D02*
X436547Y181647D01*
X425081Y181507D02*
X436407D01*
X444929Y170463D02*
X445347Y170045D01*
X-29588Y273682D02*
Y290372D01*
D164*
X29086Y161923D02*
Y168704D01*
X364590Y43668D02*
X377414D01*
X377504Y43757D01*
X178254Y49694D02*
Y62556D01*
X182774Y67076D01*
X183254D01*
X-49111Y448902D02*
X-40911D01*
X234746Y525176D02*
X242946D01*
X151300Y437904D02*
X159500D01*
X170350Y430876D02*
Y439076D01*
X203976Y394364D02*
Y406202D01*
X345660Y314030D02*
Y322229D01*
X536435Y327423D02*
Y335623D01*
X554215Y327423D02*
Y335623D01*
X390883Y375699D02*
X390883Y383899D01*
X378118Y383933D02*
X378118Y375733D01*
X365412Y383905D02*
X365412Y383905D01*
X365412Y375705D02*
Y383905D01*
X552366Y68270D02*
X572797D01*
X572831Y68236D01*
X613453Y92705D02*
X613453D01*
X613453Y86831D02*
Y92705D01*
X19086Y161923D02*
Y173389D01*
X23354Y191063D02*
X23432Y191140D01*
X23354Y177657D02*
Y191063D01*
X19086Y173389D02*
X23354Y177657D01*
X221721Y454110D02*
X230040D01*
X221687Y454076D02*
X221721Y454110D01*
X174160Y466202D02*
X184476D01*
X170350Y449076D02*
Y462392D01*
X174160Y466202D01*
X91366Y228020D02*
X91366Y219130D01*
X75752Y255629D02*
X86262D01*
X96436Y237762D02*
X104136Y237762D01*
X161480Y449076D02*
X170350D01*
X186098Y497670D02*
X193798D01*
X251797Y510827D02*
Y518399D01*
X118972Y97878D02*
Y105418D01*
Y109934D01*
X123624Y114586D01*
Y123702D01*
X178254Y42122D02*
Y49694D01*
X234746Y515176D02*
X242506D01*
X86262Y247936D02*
Y255629D01*
Y247936D02*
X96436Y237762D01*
X91366Y219130D02*
X96620Y219130D01*
X98866Y221376D01*
X105734Y221376D01*
X2202Y399372D02*
Y409104D01*
X-5332Y410034D02*
X-4402Y409104D01*
X-17864Y410034D02*
X-5332D01*
X-4402Y409104D02*
X2202D01*
X-19588Y394292D02*
Y408310D01*
Y381372D02*
Y394292D01*
X-11768D01*
X-9588Y392112D01*
Y381372D02*
Y392112D01*
X-19588Y408310D02*
X-17864Y410034D01*
X138600Y391116D02*
Y399364D01*
X125900Y391116D02*
Y399364D01*
X113200Y391116D02*
Y399364D01*
D165*
X554215Y312423D02*
X571995D01*
X536435D02*
X554215D01*
X390856Y345091D02*
Y366671D01*
X390883Y366699D01*
X-62558Y408842D02*
X-52916D01*
X-23251Y457902D02*
Y467899D01*
X-40911Y457902D02*
X-23251D01*
X-44702Y410120D02*
X-37676D01*
X-45980Y408842D02*
X-44702Y410120D01*
X-52916Y408842D02*
X-45980D01*
X113200Y409364D02*
Y437904D01*
X125900Y409364D02*
Y437904D01*
X138600Y409364D02*
Y437904D01*
X380795Y345098D02*
X380795Y358259D01*
X378118Y360936D02*
X380795Y358259D01*
X378118Y360936D02*
Y366733D01*
X370912Y345091D02*
X370912Y355780D01*
X365412Y361279D02*
X370912Y355780D01*
X365412Y361279D02*
Y366706D01*
D166*
X229337Y129290D02*
X254850Y129290D01*
X141890Y92023D02*
X146150Y87764D01*
X137514Y92023D02*
X141890D01*
X183254Y86526D02*
Y109228D01*
X206065Y132039D02*
X216878D01*
X183254Y109228D02*
X206065Y132039D01*
X244292Y129250D02*
X247798Y129288D01*
X254848Y129288D01*
X254850Y129290D01*
X255907Y130347D01*
X226588Y132039D02*
X229337Y129290D01*
X216878Y132039D02*
X226588Y132039D01*
X252690Y207408D02*
X252731Y207367D01*
X243248Y207408D02*
X252690D01*
X242248Y206408D02*
X243248Y207408D01*
X242248Y205100D02*
Y206408D01*
X435177Y219687D02*
X435202Y219023D01*
X435177Y219687D02*
X435177Y219245D01*
X434619Y218687D02*
X435177Y219245D01*
X424394Y218687D02*
X434619D01*
X361099Y158446D02*
X361142Y158446D01*
X359392Y160153D02*
X361099Y158446D01*
X350193Y160153D02*
X359392D01*
D167*
X604040Y383890D02*
Y412580D01*
Y383890D02*
X604480Y383450D01*
X669242Y392464D02*
X686600Y375106D01*
X649126Y412580D02*
X669242Y392464D01*
X604040Y412580D02*
X649126D01*
X736600Y340106D02*
X753958Y322748D01*
X602996Y340548D02*
X603438Y340106D01*
X736600D01*
D168*
X252731Y207367D02*
X252772Y207408D01*
X266518D01*
X267198Y208088D01*
X267198Y207088D01*
X317679Y139469D02*
X318759Y139469D01*
X324569Y133659D01*
X327716Y133588D01*
X329024Y133588D01*
X381249Y209720D02*
X387614D01*
X378734Y207205D02*
X381249Y209720D01*
X378734Y207205D02*
X378734Y200672D01*
D169*
X-39628Y273642D02*
Y290332D01*
X-39588Y290372D01*
X-29628Y273642D02*
X-29588Y273682D01*
D170*
X736600Y145110D02*
D03*
Y215110D02*
D03*
X686600Y180110D02*
D03*
Y40110D02*
D03*
X736600Y75110D02*
D03*
X686600Y110110D02*
D03*
X736600Y340106D02*
D03*
X686600Y305106D02*
D03*
Y375106D02*
D03*
X736600Y410106D02*
D03*
D171*
X321182Y283790D02*
D03*
X346582D02*
D03*
X371982D02*
D03*
X397382D02*
D03*
X422782Y283790D02*
D03*
X338182Y41290D02*
D03*
X312782D02*
D03*
X287382D02*
D03*
X261982D02*
D03*
X236582D02*
D03*
D172*
X448182Y283790D02*
D03*
X211182Y41290D02*
D03*
D173*
X248900Y351788D02*
D03*
X223500D02*
D03*
X198100D02*
D03*
X274300D02*
D03*
X172700D02*
D03*
X299700Y326388D02*
D03*
X172700D02*
D03*
X274300D02*
D03*
X198100D02*
D03*
X223500D02*
D03*
X248900D02*
D03*
D174*
X299700Y351788D02*
D03*
D175*
X669242Y287748D02*
D03*
X753958Y322748D02*
D03*
X669242Y392464D02*
D03*
X753958Y427464D02*
D03*
X711148Y40110D02*
D03*
X712052Y75110D02*
D03*
X711148Y110110D02*
D03*
X712052Y145110D02*
D03*
X711148Y180110D02*
D03*
X712052Y215110D02*
D03*
D176*
X234556Y97429D02*
D03*
X450626Y97429D02*
D03*
Y234909D02*
D03*
X234556Y234909D02*
D03*
D177*
X-50000Y501000D02*
D03*
Y120000D02*
D03*
X681000Y501000D02*
D03*
D178*
X477328Y256201D02*
D03*
X490122Y257326D02*
D03*
X580734Y290672D02*
D03*
X601866Y88847D02*
D03*
X615871Y36628D02*
D03*
Y55749D02*
D03*
X590352Y93317D02*
D03*
X457342Y24367D02*
D03*
X364590Y49429D02*
D03*
X377504Y49518D02*
D03*
X218817Y266356D02*
D03*
X212639Y272051D02*
D03*
X444301Y400611D02*
D03*
X525971Y99003D02*
D03*
Y113105D02*
D03*
Y128420D02*
D03*
X525862Y143711D02*
D03*
X525622Y157182D02*
D03*
Y170653D02*
D03*
Y184325D02*
D03*
Y198990D02*
D03*
X638392Y29062D02*
D03*
X624168Y298516D02*
D03*
X632550Y72513D02*
D03*
X97372Y33110D02*
D03*
Y55770D02*
D03*
Y76886D02*
D03*
X110924Y44118D02*
D03*
Y65950D02*
D03*
X408439Y327423D02*
D03*
X346709Y374073D02*
D03*
X408439Y373000D02*
D03*
X336308Y421628D02*
D03*
Y465412D02*
D03*
X338672Y512402D02*
D03*
X303620Y421409D02*
D03*
Y464650D02*
D03*
Y512402D02*
D03*
X98738Y517863D02*
D03*
X68162Y446188D02*
D03*
X-72808Y451268D02*
D03*
X-4798Y515577D02*
D03*
X1107Y182041D02*
D03*
X1298Y164502D02*
D03*
X-226Y202436D02*
D03*
X-672Y219783D02*
D03*
X-226Y239178D02*
D03*
X-36Y255096D02*
D03*
X60Y268642D02*
D03*
X-71538Y220382D02*
D03*
Y233952D02*
D03*
Y246464D02*
D03*
Y259936D02*
D03*
X-15276Y239178D02*
D03*
X-68490Y206376D02*
D03*
X-11006Y205748D02*
D03*
X-15466Y274912D02*
D03*
Y263054D02*
D03*
Y251878D02*
D03*
X-27087Y236540D02*
D03*
Y246888D02*
D03*
X-53678Y259667D02*
D03*
Y246464D02*
D03*
Y233952D02*
D03*
Y220382D02*
D03*
Y206376D02*
D03*
X-24420Y205748D02*
D03*
X-65696Y154596D02*
D03*
X-13372D02*
D03*
X-27087Y162978D02*
D03*
X-40612D02*
D03*
X-53250D02*
D03*
X-68490Y170222D02*
D03*
Y182041D02*
D03*
Y193204D02*
D03*
X-10894Y170222D02*
D03*
X-11006Y182395D02*
D03*
Y193204D02*
D03*
X494842Y56552D02*
D03*
X-52916Y425534D02*
D03*
X-49111Y448902D02*
D03*
X242946Y525176D02*
D03*
X159500Y437904D02*
D03*
X170350Y430876D02*
D03*
X203976Y394364D02*
D03*
X345660Y322229D02*
D03*
X536435Y335623D02*
D03*
X554215Y335623D02*
D03*
X390883Y383899D02*
D03*
X378118Y383933D02*
D03*
X365412Y383905D02*
D03*
X572831Y68236D02*
D03*
X613453Y86831D02*
D03*
X523330Y57586D02*
D03*
Y82968D02*
D03*
X397999Y335098D02*
D03*
X179226Y286262D02*
D03*
X423391Y32168D02*
D03*
X431683Y30128D02*
D03*
X439969Y31406D02*
D03*
X515956Y30128D02*
D03*
X213530Y473413D02*
D03*
X238967Y473032D02*
D03*
X221687Y454076D02*
D03*
X239527Y454250D02*
D03*
X138600Y475572D02*
D03*
X390566Y62694D02*
D03*
X343878Y77233D02*
D03*
X120932Y311742D02*
D03*
X128065Y304554D02*
D03*
X135994Y246184D02*
D03*
X202528Y199297D02*
D03*
X143600Y168202D02*
D03*
X135726Y161663D02*
D03*
X201942Y187183D02*
D03*
X158203Y268771D02*
D03*
X146150Y318680D02*
D03*
X184066Y481795D02*
D03*
X152236Y335872D02*
D03*
X68068Y186702D02*
D03*
X163492Y179643D02*
D03*
X169508Y173507D02*
D03*
X191606Y167491D02*
D03*
X197810Y161663D02*
D03*
X108972Y142403D02*
D03*
X138774Y80174D02*
D03*
X390495Y28372D02*
D03*
X403473D02*
D03*
X108972Y97878D02*
D03*
X280378Y69252D02*
D03*
X236437Y279104D02*
D03*
X186689D02*
D03*
X223500Y286262D02*
D03*
X200180D02*
D03*
X193687Y292772D02*
D03*
X621949Y102705D02*
D03*
X305778Y257360D02*
D03*
X206286Y170139D02*
D03*
X206286Y220939D02*
D03*
X318478Y255446D02*
D03*
X254978Y255446D02*
D03*
X343878D02*
D03*
X280378Y255446D02*
D03*
X267678Y255446D02*
D03*
X242278Y77233D02*
D03*
X254978D02*
D03*
X267672Y77239D02*
D03*
X293078Y77233D02*
D03*
X305778D02*
D03*
X318478D02*
D03*
X331178D02*
D03*
X258183Y460476D02*
D03*
X2202Y399372D02*
D03*
X-62558Y408842D02*
D03*
X-23251Y467899D02*
D03*
X91366Y228020D02*
D03*
X154358Y105418D02*
D03*
X75752Y255629D02*
D03*
X251710Y500892D02*
D03*
X248074Y469222D02*
D03*
X203798Y506052D02*
D03*
X23673Y341376D02*
D03*
Y326662D02*
D03*
X7282Y348572D02*
D03*
Y334076D02*
D03*
Y319362D02*
D03*
X-10498Y326982D02*
D03*
Y341696D02*
D03*
Y356192D02*
D03*
X221150Y506052D02*
D03*
X-4154Y441034D02*
D03*
X2202Y427312D02*
D03*
X116262Y246666D02*
D03*
X142420Y219638D02*
D03*
X161480Y449076D02*
D03*
X186098Y497670D02*
D03*
X188254Y41102D02*
D03*
X251797Y518399D02*
D03*
X118972Y97878D02*
D03*
X178254Y42122D02*
D03*
X242506Y515176D02*
D03*
X71728Y226670D02*
D03*
X113968Y186702D02*
D03*
X85935Y282379D02*
D03*
X549059Y265030D02*
D03*
X531787D02*
D03*
X-37676Y428582D02*
D03*
X20412Y363480D02*
D03*
X30412Y356872D02*
D03*
X50782Y355872D02*
D03*
X41572Y337142D02*
D03*
X36492Y324442D02*
D03*
X-10498Y310472D02*
D03*
X-338Y309202D02*
D03*
X10412Y305392D02*
D03*
X20412Y311742D02*
D03*
X-61088Y396622D02*
D03*
X-49588Y396342D02*
D03*
X-39588D02*
D03*
X-29588D02*
D03*
X-65108Y274912D02*
D03*
X-53678D02*
D03*
X158951Y44118D02*
D03*
X77142Y109482D02*
D03*
X91366Y198890D02*
D03*
X422812Y517990D02*
D03*
Y507830D02*
D03*
Y497670D02*
D03*
Y487510D02*
D03*
X412652D02*
D03*
Y497670D02*
D03*
Y507830D02*
D03*
Y517990D02*
D03*
X402492D02*
D03*
Y507830D02*
D03*
Y497670D02*
D03*
Y487510D02*
D03*
X392332Y507830D02*
D03*
Y497670D02*
D03*
X392332Y487510D02*
D03*
X481160Y499622D02*
D03*
Y509782D02*
D03*
Y519942D02*
D03*
X491320Y499622D02*
D03*
Y509782D02*
D03*
Y519942D02*
D03*
X501480D02*
D03*
Y509782D02*
D03*
X501480Y499622D02*
D03*
X511640D02*
D03*
Y509782D02*
D03*
Y519942D02*
D03*
X542120D02*
D03*
Y509782D02*
D03*
Y499622D02*
D03*
X531960D02*
D03*
X531960Y509782D02*
D03*
Y519942D02*
D03*
X521800D02*
D03*
X521800Y509782D02*
D03*
Y499622D02*
D03*
X552280D02*
D03*
Y509782D02*
D03*
Y519942D02*
D03*
X477898Y354882D02*
D03*
X520530Y354882D02*
D03*
X206578Y480050D02*
D03*
X138600Y391116D02*
D03*
X125900D02*
D03*
X113200D02*
D03*
Y502456D02*
D03*
X541612Y368130D02*
D03*
X549740Y368155D02*
D03*
X533484Y368105D02*
D03*
X16974Y50038D02*
D03*
X29086Y168704D02*
D03*
X81370Y335872D02*
D03*
X77935Y100592D02*
D03*
D179*
X582363Y437081D02*
D03*
X570373D02*
D03*
X577075Y443841D02*
D03*
X564980D02*
D03*
X591864Y451000D02*
D03*
X582363D02*
D03*
X572944D02*
D03*
X604040Y453554D02*
D03*
X23432Y246446D02*
D03*
D180*
X422416Y137217D02*
D03*
X406633Y145291D02*
D03*
X402778Y114754D02*
D03*
X379990Y148392D02*
D03*
X388031Y130883D02*
D03*
X427244Y124262D02*
D03*
X375183Y115542D02*
D03*
X281759Y186051D02*
D03*
X283809Y134477D02*
D03*
X269902Y124005D02*
D03*
X234548Y184166D02*
D03*
X289759Y194051D02*
D03*
X305759Y194051D02*
D03*
X297759Y194051D02*
D03*
X281759D02*
D03*
X273759Y194051D02*
D03*
X289759Y186051D02*
D03*
X305759D02*
D03*
X297759Y186051D02*
D03*
X273759D02*
D03*
X289759Y162051D02*
D03*
X305759D02*
D03*
X297759Y162051D02*
D03*
X281759Y162051D02*
D03*
X273759Y162051D02*
D03*
X289759Y170051D02*
D03*
X305759Y170051D02*
D03*
X297759Y170051D02*
D03*
X281759Y170051D02*
D03*
X273759Y170051D02*
D03*
X273759Y178051D02*
D03*
X281759Y178051D02*
D03*
X305759D02*
D03*
X297759D02*
D03*
X405388Y179725D02*
D03*
Y173856D02*
D03*
X416854Y179725D02*
D03*
Y173856D02*
D03*
Y191463D02*
D03*
Y197332D02*
D03*
X405388Y191463D02*
D03*
X405388Y197332D02*
D03*
X405388Y185594D02*
D03*
X411121Y197332D02*
D03*
X411121Y191463D02*
D03*
X411121Y173856D02*
D03*
Y179725D02*
D03*
X289759Y178051D02*
D03*
X416854Y185594D02*
D03*
X411121D02*
D03*
X503316Y97538D02*
D03*
X503819Y113037D02*
D03*
X493010Y112785D02*
D03*
X493597Y97286D02*
D03*
X483124Y97453D02*
D03*
X482538Y112953D02*
D03*
X470641Y97118D02*
D03*
X471563Y112785D02*
D03*
X464525Y175788D02*
D03*
X459331Y175704D02*
D03*
X453801Y176123D02*
D03*
X461677Y158948D02*
D03*
X445591Y154676D02*
D03*
X444837Y146298D02*
D03*
X462430Y144789D02*
D03*
X469384Y139427D02*
D03*
X462011Y131552D02*
D03*
X469049Y126525D02*
D03*
X457153Y118985D02*
D03*
X438386Y109015D02*
D03*
X447441Y106496D02*
D03*
X445256Y116388D02*
D03*
X431013Y113542D02*
D03*
X431683Y102062D02*
D03*
X419953Y91589D02*
D03*
X420456Y112199D02*
D03*
X375802Y97705D02*
D03*
X387783Y91421D02*
D03*
X380493Y160541D02*
D03*
X369987Y169706D02*
D03*
X358543Y169002D02*
D03*
X374754Y164980D02*
D03*
X364451Y135449D02*
D03*
X366544Y123006D02*
D03*
X351379Y99003D02*
D03*
X357369Y91086D02*
D03*
X357704Y108597D02*
D03*
X349159Y107340D02*
D03*
X337848Y99967D02*
D03*
X324863Y100637D02*
D03*
X312840Y99003D02*
D03*
X299560Y98794D02*
D03*
X249621Y99967D02*
D03*
X244292Y104949D02*
D03*
X238107Y148475D02*
D03*
X228598Y91086D02*
D03*
X221645Y106753D02*
D03*
X221644Y233346D02*
D03*
X229771Y242227D02*
D03*
X248706Y232675D02*
D03*
X261943Y231837D02*
D03*
X273169Y232886D02*
D03*
X352678Y229492D02*
D03*
X354940Y217428D02*
D03*
X351589Y208212D02*
D03*
X352091Y197069D02*
D03*
X374879Y227229D02*
D03*
X368847Y232843D02*
D03*
X360469Y226308D02*
D03*
X365747Y217427D02*
D03*
X360050Y212400D02*
D03*
X370606Y186680D02*
D03*
X370439Y194471D02*
D03*
X369182Y206284D02*
D03*
X374460Y212149D02*
D03*
X378733Y217511D02*
D03*
X387949Y219690D02*
D03*
X390798Y227230D02*
D03*
X382420Y230162D02*
D03*
X372450Y241054D02*
D03*
X383006Y239630D02*
D03*
X392138Y236614D02*
D03*
X397919Y227229D02*
D03*
X400516Y236613D02*
D03*
X409739Y236525D02*
D03*
X423982Y236525D02*
D03*
X435209Y236692D02*
D03*
X446429Y214916D02*
D03*
X440145Y198661D02*
D03*
X439978Y189403D02*
D03*
X447351Y189571D02*
D03*
X464358Y219440D02*
D03*
X447769Y203522D02*
D03*
X445179Y226051D02*
D03*
X464190Y236028D02*
D03*
X460253Y209720D02*
D03*
X456064Y198410D02*
D03*
X463771Y196902D02*
D03*
X453550Y188356D02*
D03*
X458661Y187267D02*
D03*
X464107Y187602D02*
D03*
X469887Y187518D02*
D03*
X476422Y187183D02*
D03*
X471898Y197153D02*
D03*
X473406Y207625D02*
D03*
X472904Y220779D02*
D03*
Y236530D02*
D03*
X502569Y193968D02*
D03*
X488158Y204316D02*
D03*
X489918Y236236D02*
D03*
X488745Y220402D02*
D03*
X502904Y204148D02*
D03*
X502820Y220653D02*
D03*
X502736Y236069D02*
D03*
X238653Y189276D02*
D03*
X389124Y186136D02*
D03*
X252731Y207367D02*
D03*
X255907Y130347D02*
D03*
X318759Y139469D02*
D03*
X411081Y211894D02*
D03*
X332494Y218283D02*
D03*
X338723Y189952D02*
D03*
X335200Y225370D02*
D03*
X325792Y217421D02*
D03*
X325202Y209082D02*
D03*
X395911Y208456D02*
D03*
X236892Y226642D02*
D03*
X321088Y152271D02*
D03*
X251427Y199169D02*
D03*
X233185Y136039D02*
D03*
X238323Y140594D02*
D03*
X249251Y140266D02*
D03*
X255411Y118060D02*
D03*
X259638Y151699D02*
D03*
X267428Y142403D02*
D03*
X273319Y138704D02*
D03*
X326963Y171783D02*
D03*
X327036Y158482D02*
D03*
X418237Y211982D02*
D03*
X424359Y204478D02*
D03*
M02*
