G04*
G04 #@! TF.GenerationSoftware,Altium Limited,Altium Designer,20.2.4 (192)*
G04*
G04 Layer_Physical_Order=2*
G04 Layer_Color=16440176*
%FSLAX44Y44*%
%MOMM*%
G71*
G04*
G04 #@! TF.SameCoordinates,742EB62A-7AE8-4A69-8DF3-B4F61E8DB2E3*
G04*
G04*
G04 #@! TF.FilePolarity,Positive*
G04*
G01*
G75*
%ADD10C,0.2540*%
%ADD162C,0.3048*%
%ADD170C,1.5000*%
%ADD171C,1.5300*%
%ADD173C,1.6500*%
%ADD175C,2.5000*%
G04:AMPARAMS|DCode=176|XSize=1.9mm|YSize=0.75mm|CornerRadius=0.3375mm|HoleSize=0mm|Usage=FLASHONLY|Rotation=0.000|XOffset=0mm|YOffset=0mm|HoleType=Round|Shape=RoundedRectangle|*
%AMROUNDEDRECTD176*
21,1,1.9000,0.0750,0,0,0.0*
21,1,1.2250,0.7500,0,0,0.0*
1,1,0.6750,0.6125,-0.0375*
1,1,0.6750,-0.6125,-0.0375*
1,1,0.6750,-0.6125,0.0375*
1,1,0.6750,0.6125,0.0375*
%
%ADD176ROUNDEDRECTD176*%
%ADD178C,0.5080*%
%ADD180C,0.5100*%
G36*
X638392Y324776D02*
X697828D01*
X697828Y261530D01*
X642900D01*
X638392Y257021D01*
Y126320D01*
X722499D01*
X728054Y120765D01*
Y99732D01*
X723482Y95160D01*
X641440D01*
X638392Y92112D01*
Y3334D01*
X3334D01*
Y25632D01*
X3345Y25645D01*
X3356Y25645D01*
X2974Y32446D01*
X1791Y39408D01*
X-164Y46194D01*
X-2867Y52719D01*
X-6283Y58900D01*
X-10369Y64659D01*
X-15075Y69925D01*
X-20341Y74630D01*
X-26100Y78717D01*
X-32281Y82133D01*
X-38806Y84836D01*
X-45592Y86791D01*
X-52554Y87974D01*
X-58596Y88313D01*
X-59605Y88370D01*
X-59855Y88356D01*
X-61118Y88334D01*
X-81666D01*
Y299552D01*
X-20188D01*
Y371432D01*
X-81666D01*
Y532666D01*
X638392D01*
Y324776D01*
D02*
G37*
%LPC*%
G36*
X422812Y522619D02*
X421040Y522267D01*
X419539Y521263D01*
X418535Y519761D01*
X418379Y518977D01*
X417085D01*
X416928Y519761D01*
X415925Y521263D01*
X414423Y522267D01*
X412652Y522619D01*
X410881Y522267D01*
X409379Y521263D01*
X408375Y519761D01*
X408219Y518977D01*
X406925D01*
X406768Y519761D01*
X405765Y521263D01*
X404263Y522267D01*
X402492Y522619D01*
X400720Y522267D01*
X399219Y521263D01*
X398215Y519761D01*
X397863Y517990D01*
X398215Y516219D01*
X399219Y514717D01*
X400720Y513713D01*
X401505Y513557D01*
Y512263D01*
X400720Y512107D01*
X399219Y511103D01*
X398215Y509601D01*
X398059Y508817D01*
X396764D01*
X396609Y509601D01*
X395605Y511103D01*
X394103Y512107D01*
X392332Y512459D01*
X390560Y512107D01*
X389059Y511103D01*
X388055Y509601D01*
X387703Y507830D01*
X388055Y506059D01*
X389059Y504557D01*
X390560Y503553D01*
X391345Y503397D01*
Y502103D01*
X390560Y501947D01*
X389059Y500943D01*
X388055Y499441D01*
X387703Y497670D01*
X388055Y495899D01*
X389059Y494397D01*
X390560Y493393D01*
X391345Y493237D01*
Y491943D01*
X390560Y491787D01*
X389059Y490783D01*
X388055Y489281D01*
X387703Y487510D01*
X388055Y485739D01*
X389059Y484237D01*
X390560Y483233D01*
X392332Y482881D01*
X394103Y483233D01*
X395605Y484237D01*
X396609Y485739D01*
X396764Y486523D01*
X398059D01*
X398215Y485739D01*
X399219Y484237D01*
X400720Y483233D01*
X402492Y482881D01*
X404263Y483233D01*
X405765Y484237D01*
X406768Y485739D01*
X406925Y486523D01*
X408219D01*
X408375Y485739D01*
X409379Y484237D01*
X410881Y483233D01*
X412652Y482881D01*
X414423Y483233D01*
X415925Y484237D01*
X416928Y485739D01*
X417085Y486523D01*
X418379D01*
X418535Y485739D01*
X419539Y484237D01*
X421040Y483233D01*
X422812Y482881D01*
X424583Y483233D01*
X426085Y484237D01*
X427089Y485739D01*
X427441Y487510D01*
X427089Y489281D01*
X426085Y490783D01*
X424583Y491787D01*
X423799Y491943D01*
Y493237D01*
X424583Y493393D01*
X426085Y494397D01*
X427089Y495899D01*
X427441Y497670D01*
X427089Y499441D01*
X426085Y500943D01*
X424583Y501947D01*
X423799Y502103D01*
Y503397D01*
X424583Y503553D01*
X426085Y504557D01*
X427089Y506059D01*
X427441Y507830D01*
X427089Y509601D01*
X426085Y511103D01*
X424583Y512107D01*
X423799Y512263D01*
Y513557D01*
X424583Y513713D01*
X426085Y514717D01*
X427089Y516219D01*
X427441Y517990D01*
X427089Y519761D01*
X426085Y521263D01*
X424583Y522267D01*
X422812Y522619D01*
D02*
G37*
G36*
X251797Y523028D02*
X250026Y522676D01*
X248524Y521672D01*
X247521Y520171D01*
X247208Y518597D01*
X246591Y518313D01*
X245936Y518215D01*
X245779Y518449D01*
X244277Y519453D01*
X242506Y519805D01*
X240735Y519453D01*
X239233Y518449D01*
X238229Y516948D01*
X237877Y515176D01*
X238229Y513405D01*
X239233Y511903D01*
X240735Y510900D01*
X242506Y510547D01*
X244277Y510900D01*
X245779Y511903D01*
X246782Y513405D01*
X247096Y514978D01*
X247712Y515262D01*
X248368Y515360D01*
X248524Y515126D01*
X250026Y514123D01*
X251797Y513770D01*
X253569Y514123D01*
X255071Y515126D01*
X256074Y516628D01*
X256426Y518399D01*
X256074Y520171D01*
X255071Y521672D01*
X253569Y522676D01*
X251797Y523028D01*
D02*
G37*
G36*
X203798Y510681D02*
X202027Y510329D01*
X200525Y509325D01*
X199521Y507823D01*
X199169Y506052D01*
X199521Y504281D01*
X200525Y502779D01*
X202027Y501775D01*
X203798Y501423D01*
X205569Y501775D01*
X207071Y502779D01*
X208075Y504281D01*
X208427Y506052D01*
X208075Y507823D01*
X207071Y509325D01*
X205569Y510329D01*
X203798Y510681D01*
D02*
G37*
G36*
X113200Y507085D02*
X111429Y506733D01*
X109927Y505729D01*
X108923Y504227D01*
X108571Y502456D01*
X108923Y500685D01*
X109927Y499183D01*
X111429Y498179D01*
X113200Y497827D01*
X114971Y498179D01*
X116473Y499183D01*
X117477Y500685D01*
X117829Y502456D01*
X117477Y504227D01*
X116473Y505729D01*
X114971Y506733D01*
X113200Y507085D01*
D02*
G37*
G36*
X251710Y505521D02*
X249939Y505169D01*
X248437Y504165D01*
X247433Y502663D01*
X247081Y500892D01*
X247433Y499121D01*
X248437Y497619D01*
X249939Y496615D01*
X251710Y496263D01*
X253481Y496615D01*
X254983Y497619D01*
X255987Y499121D01*
X256339Y500892D01*
X255987Y502663D01*
X254983Y504165D01*
X253481Y505169D01*
X251710Y505521D01*
D02*
G37*
G36*
X186098Y502299D02*
X184327Y501947D01*
X182825Y500943D01*
X181821Y499441D01*
X181469Y497670D01*
X181821Y495899D01*
X182825Y494397D01*
X184327Y493393D01*
X186098Y493041D01*
X187869Y493393D01*
X189371Y494397D01*
X190375Y495899D01*
X190727Y497670D01*
X190375Y499441D01*
X189371Y500943D01*
X187869Y501947D01*
X186098Y502299D01*
D02*
G37*
G36*
X184066Y486424D02*
X182295Y486072D01*
X180793Y485068D01*
X179789Y483566D01*
X179437Y481795D01*
X179789Y480024D01*
X180793Y478522D01*
X182295Y477518D01*
X184066Y477166D01*
X185837Y477518D01*
X187339Y478522D01*
X188343Y480024D01*
X188695Y481795D01*
X188343Y483566D01*
X187339Y485068D01*
X185837Y486072D01*
X184066Y486424D01*
D02*
G37*
G36*
X-50000Y525619D02*
X-54803Y525145D01*
X-59421Y523745D01*
X-63677Y521470D01*
X-67408Y518408D01*
X-70470Y514677D01*
X-72745Y510421D01*
X-74145Y505803D01*
X-74619Y501000D01*
X-74145Y496197D01*
X-72745Y491579D01*
X-70470Y487323D01*
X-67408Y483592D01*
X-63677Y480530D01*
X-59421Y478256D01*
X-54803Y476855D01*
X-50000Y476381D01*
X-45197Y476855D01*
X-40579Y478256D01*
X-36323Y480530D01*
X-32592Y483592D01*
X-29530Y487323D01*
X-27255Y491579D01*
X-25854Y496197D01*
X-25382Y501000D01*
X-25854Y505803D01*
X-27255Y510421D01*
X-29530Y514677D01*
X-32592Y518408D01*
X-36323Y521470D01*
X-40579Y523745D01*
X-45197Y525145D01*
X-50000Y525619D01*
D02*
G37*
G36*
X206578Y484679D02*
X204807Y484327D01*
X203305Y483323D01*
X202301Y481821D01*
X201949Y480050D01*
X202301Y478279D01*
X203305Y476777D01*
X204807Y475773D01*
X206578Y475421D01*
X208349Y475773D01*
X209851Y476777D01*
X210855Y478279D01*
X211207Y480050D01*
X210855Y481821D01*
X209851Y483323D01*
X208349Y484327D01*
X206578Y484679D01*
D02*
G37*
G36*
X138600Y480201D02*
X136829Y479849D01*
X135327Y478845D01*
X134323Y477343D01*
X133971Y475572D01*
X134323Y473801D01*
X135327Y472299D01*
X136829Y471295D01*
X138600Y470943D01*
X140371Y471295D01*
X141873Y472299D01*
X142877Y473801D01*
X143229Y475572D01*
X142877Y477343D01*
X141873Y478845D01*
X140371Y479849D01*
X138600Y480201D01*
D02*
G37*
G36*
X248074Y473851D02*
X246303Y473499D01*
X244801Y472495D01*
X243797Y470993D01*
X243445Y469222D01*
X243797Y467451D01*
X244801Y465949D01*
X246303Y464945D01*
X248074Y464593D01*
X249846Y464945D01*
X251347Y465949D01*
X252351Y467451D01*
X252703Y469222D01*
X252351Y470993D01*
X251347Y472495D01*
X249846Y473499D01*
X248074Y473851D01*
D02*
G37*
G36*
X-23251Y472528D02*
X-25022Y472176D01*
X-26524Y471172D01*
X-27527Y469671D01*
X-27880Y467899D01*
X-27527Y466128D01*
X-26524Y464626D01*
X-25022Y463623D01*
X-23251Y463270D01*
X-21479Y463623D01*
X-19978Y464626D01*
X-18974Y466128D01*
X-18622Y467899D01*
X-18974Y469671D01*
X-19978Y471172D01*
X-21479Y472176D01*
X-23251Y472528D01*
D02*
G37*
G36*
X258183Y465105D02*
X256412Y464752D01*
X254910Y463749D01*
X253906Y462247D01*
X253554Y460476D01*
X253906Y458704D01*
X254910Y457203D01*
X256412Y456199D01*
X258183Y455847D01*
X259954Y456199D01*
X261456Y457203D01*
X262460Y458704D01*
X262812Y460476D01*
X262460Y462247D01*
X261456Y463749D01*
X259954Y464752D01*
X258183Y465105D01*
D02*
G37*
G36*
X591864Y456147D02*
X589894Y455755D01*
X588225Y454639D01*
X587749Y453927D01*
X586479D01*
X586003Y454639D01*
X584333Y455755D01*
X582363Y456147D01*
X580394Y455755D01*
X578724Y454639D01*
X578289Y453988D01*
X577019D01*
X576584Y454639D01*
X574914Y455755D01*
X572944Y456147D01*
X570975Y455755D01*
X569305Y454639D01*
X568189Y452970D01*
X567798Y451000D01*
X568129Y449336D01*
X567342Y448615D01*
X567099Y448496D01*
X566950Y448596D01*
X564980Y448988D01*
X563010Y448596D01*
X561341Y447480D01*
X560225Y445810D01*
X559833Y443841D01*
X560225Y441871D01*
X561341Y440201D01*
X563010Y439086D01*
X564431Y438803D01*
X565323Y437566D01*
X565226Y437081D01*
X565618Y435111D01*
X566734Y433441D01*
X568404Y432326D01*
X570373Y431934D01*
X572343Y432326D01*
X574013Y433441D01*
X575128Y435111D01*
X575520Y437081D01*
X575390Y437734D01*
X576258Y438548D01*
X577396Y437983D01*
X577216Y437081D01*
X577608Y435111D01*
X578724Y433441D01*
X580394Y432326D01*
X582363Y431934D01*
X584333Y432326D01*
X586003Y433441D01*
X587118Y435111D01*
X587510Y437081D01*
X587118Y439050D01*
X586003Y440720D01*
X584333Y441836D01*
X582364Y442228D01*
X581978Y442613D01*
X582222Y443841D01*
X582067Y444617D01*
X582364Y445853D01*
X584333Y446245D01*
X586003Y447361D01*
X586479Y448073D01*
X587749D01*
X588225Y447361D01*
X589894Y446245D01*
X591864Y445853D01*
X593834Y446245D01*
X595504Y447361D01*
X596619Y449030D01*
X597011Y451000D01*
X596619Y452970D01*
X595504Y454639D01*
X593834Y455755D01*
X591864Y456147D01*
D02*
G37*
G36*
X239527Y458879D02*
X237756Y458527D01*
X236254Y457523D01*
X235251Y456022D01*
X234898Y454250D01*
X235251Y452479D01*
X236254Y450977D01*
X237756Y449974D01*
X239527Y449621D01*
X241299Y449974D01*
X242800Y450977D01*
X243804Y452479D01*
X244156Y454250D01*
X243804Y456022D01*
X242800Y457523D01*
X241299Y458527D01*
X239527Y458879D01*
D02*
G37*
G36*
X604040Y458701D02*
X602070Y458309D01*
X600401Y457193D01*
X599285Y455524D01*
X598893Y453554D01*
X599285Y451584D01*
X600401Y449915D01*
X602070Y448799D01*
X604040Y448407D01*
X606010Y448799D01*
X607679Y449915D01*
X608795Y451584D01*
X609187Y453554D01*
X608795Y455524D01*
X607679Y457193D01*
X606010Y458309D01*
X604040Y458701D01*
D02*
G37*
G36*
X161480Y453705D02*
X159708Y453353D01*
X158207Y452349D01*
X157203Y450847D01*
X156851Y449076D01*
X157203Y447305D01*
X158207Y445803D01*
X159708Y444799D01*
X161480Y444447D01*
X163251Y444799D01*
X164753Y445803D01*
X165756Y447305D01*
X166109Y449076D01*
X165756Y450847D01*
X164753Y452349D01*
X163251Y453353D01*
X161480Y453705D01*
D02*
G37*
G36*
X-37676Y433211D02*
X-39447Y432859D01*
X-40949Y431855D01*
X-41953Y430353D01*
X-42305Y428582D01*
X-41953Y426811D01*
X-40949Y425309D01*
X-39447Y424305D01*
X-37676Y423953D01*
X-35905Y424305D01*
X-34403Y425309D01*
X-33399Y426811D01*
X-33047Y428582D01*
X-33399Y430353D01*
X-34403Y431855D01*
X-35905Y432859D01*
X-37676Y433211D01*
D02*
G37*
G36*
X-62558Y413471D02*
X-64329Y413119D01*
X-65831Y412115D01*
X-66834Y410613D01*
X-67186Y408842D01*
X-66834Y407071D01*
X-65831Y405569D01*
X-64329Y404565D01*
X-62558Y404213D01*
X-60786Y404565D01*
X-59284Y405569D01*
X-58281Y407071D01*
X-57929Y408842D01*
X-58281Y410613D01*
X-59284Y412115D01*
X-60786Y413119D01*
X-62558Y413471D01*
D02*
G37*
G36*
X444301Y405240D02*
X442530Y404888D01*
X441028Y403884D01*
X440025Y402382D01*
X439672Y400611D01*
X440025Y398839D01*
X441028Y397338D01*
X442530Y396334D01*
X444301Y395982D01*
X446073Y396334D01*
X447574Y397338D01*
X448578Y398839D01*
X448930Y400611D01*
X448578Y402382D01*
X447574Y403884D01*
X446073Y404888D01*
X444301Y405240D01*
D02*
G37*
G36*
X2202Y404001D02*
X431Y403649D01*
X-1071Y402645D01*
X-2075Y401143D01*
X-2427Y399372D01*
X-2075Y397601D01*
X-1071Y396099D01*
X431Y395095D01*
X2202Y394743D01*
X3973Y395095D01*
X5475Y396099D01*
X6479Y397601D01*
X6831Y399372D01*
X6479Y401143D01*
X5475Y402645D01*
X3973Y403649D01*
X2202Y404001D01*
D02*
G37*
G36*
X138600Y395745D02*
X136829Y395392D01*
X135327Y394389D01*
X134323Y392887D01*
X133971Y391116D01*
X134323Y389344D01*
X135327Y387842D01*
X136829Y386839D01*
X138600Y386487D01*
X140371Y386839D01*
X141873Y387842D01*
X142877Y389344D01*
X143229Y391116D01*
X142877Y392887D01*
X141873Y394389D01*
X140371Y395392D01*
X138600Y395745D01*
D02*
G37*
G36*
X125900D02*
X124129Y395392D01*
X122627Y394389D01*
X121623Y392887D01*
X121271Y391116D01*
X121623Y389344D01*
X122627Y387842D01*
X124129Y386839D01*
X125900Y386487D01*
X127671Y386839D01*
X129173Y387842D01*
X130177Y389344D01*
X130529Y391116D01*
X130177Y392887D01*
X129173Y394389D01*
X127671Y395392D01*
X125900Y395745D01*
D02*
G37*
G36*
X113200D02*
X111429Y395392D01*
X109927Y394389D01*
X108923Y392887D01*
X108571Y391116D01*
X108923Y389344D01*
X109927Y387842D01*
X111429Y386839D01*
X113200Y386487D01*
X114971Y386839D01*
X116473Y387842D01*
X117477Y389344D01*
X117829Y391116D01*
X117477Y392887D01*
X116473Y394389D01*
X114971Y395392D01*
X113200Y395745D01*
D02*
G37*
G36*
X200005Y362421D02*
Y353693D01*
X208732D01*
X208612Y354605D01*
X207525Y357230D01*
X205795Y359484D01*
X203541Y361213D01*
X200917Y362301D01*
X200005Y362421D01*
D02*
G37*
G36*
X196195Y362421D02*
X195283Y362301D01*
X192658Y361213D01*
X190404Y359484D01*
X188675Y357230D01*
X187588Y354605D01*
X187467Y353693D01*
X196195D01*
Y362421D01*
D02*
G37*
G36*
X477898Y359511D02*
X476127Y359159D01*
X474625Y358155D01*
X473621Y356653D01*
X473269Y354882D01*
X473621Y353111D01*
X474625Y351609D01*
X476127Y350605D01*
X477898Y350253D01*
X479669Y350605D01*
X481171Y351609D01*
X482175Y353111D01*
X482527Y354882D01*
X482175Y356653D01*
X481171Y358155D01*
X479669Y359159D01*
X477898Y359511D01*
D02*
G37*
G36*
X309950Y362038D02*
X289450D01*
Y341538D01*
X309950D01*
Y362038D01*
D02*
G37*
G36*
X274300Y362127D02*
X271624Y361774D01*
X269131Y360742D01*
X266989Y359099D01*
X265347Y356958D01*
X264314Y354464D01*
X263961Y351788D01*
X264314Y349113D01*
X265347Y346619D01*
X266989Y344478D01*
X269131Y342835D01*
X271624Y341802D01*
X274300Y341450D01*
X276976Y341802D01*
X279469Y342835D01*
X281610Y344478D01*
X283253Y346619D01*
X284286Y349113D01*
X284638Y351788D01*
X284286Y354464D01*
X283253Y356958D01*
X281610Y359099D01*
X279469Y360742D01*
X276976Y361774D01*
X274300Y362127D01*
D02*
G37*
G36*
X248900D02*
X246224Y361774D01*
X243731Y360742D01*
X241590Y359099D01*
X239946Y356958D01*
X238914Y354464D01*
X238561Y351788D01*
X238914Y349113D01*
X239946Y346619D01*
X241590Y344478D01*
X243731Y342835D01*
X246224Y341802D01*
X248900Y341450D01*
X251576Y341802D01*
X254069Y342835D01*
X256210Y344478D01*
X257853Y346619D01*
X258886Y349113D01*
X259238Y351788D01*
X258886Y354464D01*
X257853Y356958D01*
X256210Y359099D01*
X254069Y360742D01*
X251576Y361774D01*
X248900Y362127D01*
D02*
G37*
G36*
X223500D02*
X220824Y361774D01*
X218331Y360742D01*
X216189Y359099D01*
X214547Y356958D01*
X213514Y354464D01*
X213161Y351788D01*
X213514Y349113D01*
X214547Y346619D01*
X216189Y344478D01*
X218331Y342835D01*
X220824Y341802D01*
X223500Y341450D01*
X226176Y341802D01*
X228669Y342835D01*
X230810Y344478D01*
X232453Y346619D01*
X233486Y349113D01*
X233838Y351788D01*
X233486Y354464D01*
X232453Y356958D01*
X230810Y359099D01*
X228669Y360742D01*
X226176Y361774D01*
X223500Y362127D01*
D02*
G37*
G36*
X172700D02*
X170024Y361774D01*
X167531Y360742D01*
X165389Y359099D01*
X163746Y356958D01*
X162714Y354464D01*
X162361Y351788D01*
X162714Y349113D01*
X163746Y346619D01*
X165389Y344478D01*
X167531Y342835D01*
X170024Y341802D01*
X172700Y341450D01*
X175376Y341802D01*
X177869Y342835D01*
X180010Y344478D01*
X181653Y346619D01*
X182686Y349113D01*
X183038Y351788D01*
X182686Y354464D01*
X181653Y356958D01*
X180010Y359099D01*
X177869Y360742D01*
X175376Y361774D01*
X172700Y362127D01*
D02*
G37*
G36*
X208732Y349883D02*
X200005D01*
Y341156D01*
X200917Y341276D01*
X203541Y342363D01*
X205795Y344093D01*
X207525Y346347D01*
X208612Y348972D01*
X208732Y349883D01*
D02*
G37*
G36*
X196195D02*
X187467D01*
X187588Y348972D01*
X188675Y346347D01*
X190404Y344093D01*
X192658Y342363D01*
X195283Y341276D01*
X196195Y341156D01*
Y349883D01*
D02*
G37*
G36*
X152236Y340501D02*
X150465Y340149D01*
X148963Y339145D01*
X147959Y337643D01*
X147607Y335872D01*
X147959Y334101D01*
X148963Y332599D01*
X150465Y331595D01*
X152236Y331243D01*
X154007Y331595D01*
X155509Y332599D01*
X156513Y334101D01*
X156865Y335872D01*
X156513Y337643D01*
X155509Y339145D01*
X154007Y340149D01*
X152236Y340501D01*
D02*
G37*
G36*
X81370D02*
X79599Y340149D01*
X78097Y339145D01*
X77093Y337643D01*
X76741Y335872D01*
X77093Y334101D01*
X78097Y332599D01*
X79599Y331595D01*
X81370Y331243D01*
X83141Y331595D01*
X84643Y332599D01*
X85647Y334101D01*
X85999Y335872D01*
X85647Y337643D01*
X84643Y339145D01*
X83141Y340149D01*
X81370Y340501D01*
D02*
G37*
G36*
X397999Y339727D02*
X396228Y339375D01*
X394726Y338371D01*
X393723Y336870D01*
X393371Y335098D01*
X393723Y333327D01*
X394726Y331825D01*
X396228Y330822D01*
X397999Y330469D01*
X399771Y330822D01*
X401273Y331825D01*
X402276Y333327D01*
X402628Y335098D01*
X402276Y336870D01*
X401273Y338371D01*
X399771Y339375D01*
X397999Y339727D01*
D02*
G37*
G36*
X301605Y337021D02*
Y328293D01*
X310332D01*
X310212Y329205D01*
X309125Y331830D01*
X307395Y334084D01*
X305141Y335813D01*
X302517Y336901D01*
X301605Y337021D01*
D02*
G37*
G36*
X297795D02*
X296883Y336901D01*
X294258Y335813D01*
X292004Y334084D01*
X290275Y331830D01*
X289188Y329205D01*
X289068Y328293D01*
X297795D01*
Y337021D01*
D02*
G37*
G36*
X174605Y337021D02*
Y328293D01*
X183332D01*
X183212Y329205D01*
X182125Y331830D01*
X180395Y334084D01*
X178141Y335813D01*
X175517Y336901D01*
X174605Y337021D01*
D02*
G37*
G36*
X170795Y337021D02*
X169883Y336901D01*
X167258Y335813D01*
X165004Y334084D01*
X163275Y331830D01*
X162188Y329205D01*
X162068Y328293D01*
X170795D01*
Y337021D01*
D02*
G37*
G36*
X274300Y336727D02*
X271624Y336375D01*
X269131Y335342D01*
X266989Y333699D01*
X265347Y331558D01*
X264314Y329064D01*
X263961Y326388D01*
X264314Y323713D01*
X265347Y321219D01*
X266989Y319078D01*
X269131Y317435D01*
X271624Y316402D01*
X274300Y316050D01*
X276976Y316402D01*
X279469Y317435D01*
X281610Y319078D01*
X283253Y321219D01*
X284286Y323713D01*
X284638Y326388D01*
X284286Y329064D01*
X283253Y331558D01*
X281610Y333699D01*
X279469Y335342D01*
X276976Y336375D01*
X274300Y336727D01*
D02*
G37*
G36*
X248900D02*
X246224Y336375D01*
X243731Y335342D01*
X241590Y333699D01*
X239946Y331558D01*
X238914Y329064D01*
X238561Y326388D01*
X238914Y323713D01*
X239946Y321219D01*
X241590Y319078D01*
X243731Y317435D01*
X246224Y316402D01*
X248900Y316050D01*
X251576Y316402D01*
X254069Y317435D01*
X256210Y319078D01*
X257853Y321219D01*
X258886Y323713D01*
X259238Y326388D01*
X258886Y329064D01*
X257853Y331558D01*
X256210Y333699D01*
X254069Y335342D01*
X251576Y336375D01*
X248900Y336727D01*
D02*
G37*
G36*
X223500D02*
X220824Y336375D01*
X218331Y335342D01*
X216189Y333699D01*
X214547Y331558D01*
X213514Y329064D01*
X213161Y326388D01*
X213514Y323713D01*
X214547Y321219D01*
X216189Y319078D01*
X218331Y317435D01*
X220824Y316402D01*
X223500Y316050D01*
X226176Y316402D01*
X228669Y317435D01*
X230810Y319078D01*
X232453Y321219D01*
X233486Y323713D01*
X233838Y326388D01*
X233486Y329064D01*
X232453Y331558D01*
X230810Y333699D01*
X228669Y335342D01*
X226176Y336375D01*
X223500Y336727D01*
D02*
G37*
G36*
X198100D02*
X195424Y336375D01*
X192931Y335342D01*
X190790Y333699D01*
X189146Y331558D01*
X188114Y329064D01*
X187761Y326388D01*
X188114Y323713D01*
X189146Y321219D01*
X190790Y319078D01*
X192931Y317435D01*
X195424Y316402D01*
X198100Y316050D01*
X200776Y316402D01*
X203269Y317435D01*
X205410Y319078D01*
X207053Y321219D01*
X208086Y323713D01*
X208438Y326388D01*
X208086Y329064D01*
X207053Y331558D01*
X205410Y333699D01*
X203269Y335342D01*
X200776Y336375D01*
X198100Y336727D01*
D02*
G37*
G36*
X183332Y324483D02*
X174605D01*
Y315756D01*
X175517Y315876D01*
X178141Y316963D01*
X180395Y318693D01*
X182125Y320947D01*
X183212Y323572D01*
X183332Y324483D01*
D02*
G37*
G36*
X310332Y324483D02*
X301605D01*
Y315756D01*
X302517Y315876D01*
X305141Y316963D01*
X307395Y318693D01*
X309125Y320947D01*
X310212Y323572D01*
X310332Y324483D01*
D02*
G37*
G36*
X297795D02*
X289068D01*
X289188Y323572D01*
X290275Y320947D01*
X292004Y318693D01*
X294258Y316963D01*
X296883Y315876D01*
X297795Y315756D01*
Y324483D01*
D02*
G37*
G36*
X170795Y324483D02*
X162068D01*
X162188Y323572D01*
X163275Y320947D01*
X165004Y318693D01*
X167258Y316963D01*
X169883Y315876D01*
X170795Y315756D01*
Y324483D01*
D02*
G37*
G36*
X146150Y323309D02*
X144379Y322957D01*
X142877Y321953D01*
X141874Y320451D01*
X141521Y318680D01*
X141874Y316909D01*
X142877Y315407D01*
X144379Y314403D01*
X146150Y314051D01*
X147921Y314403D01*
X149423Y315407D01*
X150427Y316909D01*
X150779Y318680D01*
X150427Y320451D01*
X149423Y321953D01*
X147921Y322957D01*
X146150Y323309D01*
D02*
G37*
G36*
X120932Y316371D02*
X119160Y316019D01*
X117659Y315015D01*
X116655Y313513D01*
X116303Y311742D01*
X116655Y309971D01*
X117659Y308469D01*
X119160Y307465D01*
X120932Y307113D01*
X122703Y307465D01*
X123280Y307851D01*
X124196Y306935D01*
X123788Y306326D01*
X123436Y304554D01*
X123788Y302783D01*
X124792Y301281D01*
X126294Y300278D01*
X128065Y299925D01*
X129837Y300278D01*
X131338Y301281D01*
X132342Y302783D01*
X132694Y304554D01*
X132342Y306326D01*
X131338Y307827D01*
X129837Y308831D01*
X128065Y309183D01*
X126294Y308831D01*
X125717Y308445D01*
X124801Y309361D01*
X125208Y309971D01*
X125561Y311742D01*
X125208Y313513D01*
X124205Y315015D01*
X122703Y316019D01*
X120932Y316371D01*
D02*
G37*
G36*
X580734Y295301D02*
X578963Y294949D01*
X577461Y293946D01*
X576457Y292444D01*
X576105Y290672D01*
X576457Y288901D01*
X577461Y287399D01*
X578963Y286396D01*
X580734Y286043D01*
X582505Y286396D01*
X584007Y287399D01*
X585011Y288901D01*
X585363Y290672D01*
X585011Y292444D01*
X584007Y293946D01*
X582505Y294949D01*
X580734Y295301D01*
D02*
G37*
G36*
X223500Y290891D02*
X221728Y290539D01*
X220227Y289535D01*
X219223Y288034D01*
X218871Y286262D01*
X219223Y284491D01*
X220227Y282989D01*
X221728Y281985D01*
X223500Y281633D01*
X225271Y281985D01*
X226773Y282989D01*
X227777Y284491D01*
X228129Y286262D01*
X227777Y288034D01*
X226773Y289535D01*
X225271Y290539D01*
X223500Y290891D01*
D02*
G37*
G36*
X193687Y297401D02*
X191915Y297049D01*
X190413Y296045D01*
X189410Y294543D01*
X189058Y292772D01*
X189410Y291001D01*
X190413Y289499D01*
X191915Y288495D01*
X193687Y288143D01*
X194700Y288345D01*
X195754Y287282D01*
X195551Y286262D01*
X195904Y284491D01*
X196907Y282989D01*
X198409Y281985D01*
X200180Y281633D01*
X201952Y281985D01*
X203453Y282989D01*
X204457Y284491D01*
X204809Y286262D01*
X204457Y288034D01*
X203453Y289535D01*
X201952Y290539D01*
X200180Y290891D01*
X199166Y290689D01*
X198113Y291752D01*
X198316Y292772D01*
X197963Y294543D01*
X196960Y296045D01*
X195458Y297049D01*
X193687Y297401D01*
D02*
G37*
G36*
X85935Y287041D02*
X84151Y286686D01*
X82639Y285675D01*
X81628Y284163D01*
X81273Y282379D01*
X81628Y280595D01*
X82639Y279083D01*
X84151Y278072D01*
X85935Y277718D01*
X87719Y278072D01*
X89231Y279083D01*
X90242Y280595D01*
X90597Y282379D01*
X90242Y284163D01*
X89231Y285675D01*
X87719Y286686D01*
X85935Y287041D01*
D02*
G37*
G36*
X236437Y283733D02*
X234665Y283381D01*
X233163Y282377D01*
X232160Y280876D01*
X231808Y279104D01*
X232160Y277333D01*
X233163Y275831D01*
X234665Y274828D01*
X236437Y274475D01*
X238208Y274828D01*
X239710Y275831D01*
X240713Y277333D01*
X241066Y279104D01*
X240713Y280876D01*
X239710Y282377D01*
X238208Y283381D01*
X236437Y283733D01*
D02*
G37*
G36*
X179226Y290891D02*
X177455Y290539D01*
X175953Y289535D01*
X174949Y288034D01*
X174597Y286262D01*
X174949Y284491D01*
X175953Y282989D01*
X177455Y281985D01*
X179226Y281633D01*
X180997Y281985D01*
X181971Y282636D01*
X182134Y282745D01*
X183049Y281829D01*
X182958Y281693D01*
X182412Y280876D01*
X182060Y279104D01*
X182412Y277333D01*
X183416Y275831D01*
X184918Y274828D01*
X186689Y274475D01*
X188460Y274828D01*
X189962Y275831D01*
X190965Y277333D01*
X191318Y279104D01*
X190965Y280876D01*
X189962Y282377D01*
X188460Y283381D01*
X186689Y283733D01*
X184918Y283381D01*
X183944Y282730D01*
X183781Y282622D01*
X182866Y283537D01*
X182957Y283674D01*
X183503Y284491D01*
X183855Y286262D01*
X183503Y288034D01*
X182499Y289535D01*
X180997Y290539D01*
X179226Y290891D01*
D02*
G37*
G36*
X457832Y293440D02*
X438532D01*
Y274140D01*
X457832D01*
Y293440D01*
D02*
G37*
G36*
X346582Y293523D02*
X344063Y293192D01*
X341715Y292219D01*
X339700Y290672D01*
X338153Y288657D01*
X337180Y286309D01*
X336849Y283790D01*
X337180Y281271D01*
X338153Y278923D01*
X339700Y276908D01*
X341715Y275361D01*
X344063Y274389D01*
X346582Y274057D01*
X349101Y274389D01*
X351449Y275361D01*
X353465Y276908D01*
X355011Y278923D01*
X355984Y281271D01*
X356315Y283790D01*
X355984Y286309D01*
X355011Y288657D01*
X353465Y290672D01*
X351449Y292219D01*
X349101Y293192D01*
X346582Y293523D01*
D02*
G37*
G36*
X321182D02*
X318663Y293192D01*
X316315Y292219D01*
X314300Y290672D01*
X312753Y288657D01*
X311780Y286309D01*
X311449Y283790D01*
X311780Y281271D01*
X312753Y278923D01*
X314300Y276908D01*
X316315Y275361D01*
X318663Y274389D01*
X321182Y274057D01*
X323701Y274389D01*
X326049Y275361D01*
X328064Y276908D01*
X329611Y278923D01*
X330584Y281271D01*
X330915Y283790D01*
X330584Y286309D01*
X329611Y288657D01*
X328064Y290672D01*
X326049Y292219D01*
X323701Y293192D01*
X321182Y293523D01*
D02*
G37*
G36*
X422782Y293523D02*
X420263Y293192D01*
X417915Y292219D01*
X415900Y290672D01*
X414353Y288657D01*
X413380Y286309D01*
X413049Y283790D01*
X413380Y281271D01*
X414353Y278923D01*
X415900Y276908D01*
X417915Y275361D01*
X420263Y274388D01*
X422782Y274057D01*
X425301Y274388D01*
X427649Y275361D01*
X429664Y276908D01*
X431211Y278923D01*
X432184Y281271D01*
X432515Y283790D01*
X432184Y286309D01*
X431211Y288657D01*
X429664Y290672D01*
X427649Y292219D01*
X425301Y293192D01*
X422782Y293523D01*
D02*
G37*
G36*
X158203Y273400D02*
X156431Y273048D01*
X154930Y272045D01*
X153926Y270543D01*
X153574Y268771D01*
X153926Y267000D01*
X154930Y265498D01*
X156431Y264495D01*
X158203Y264142D01*
X159974Y264495D01*
X161476Y265498D01*
X162479Y267000D01*
X162832Y268771D01*
X162479Y270543D01*
X161476Y272045D01*
X159974Y273048D01*
X158203Y273400D01*
D02*
G37*
G36*
X212639Y276680D02*
X210867Y276328D01*
X209365Y275324D01*
X208362Y273822D01*
X208010Y272051D01*
X208362Y270280D01*
X209365Y268778D01*
X210867Y267775D01*
X212639Y267422D01*
X213124Y267519D01*
X214204Y266439D01*
X214188Y266356D01*
X214540Y264585D01*
X215543Y263083D01*
X217045Y262079D01*
X218817Y261727D01*
X220588Y262079D01*
X222090Y263083D01*
X223093Y264585D01*
X223446Y266356D01*
X223093Y268127D01*
X222090Y269629D01*
X220588Y270633D01*
X218817Y270985D01*
X218331Y270888D01*
X217251Y271968D01*
X217268Y272051D01*
X216915Y273822D01*
X215912Y275324D01*
X214410Y276328D01*
X212639Y276680D01*
D02*
G37*
G36*
X305778Y261477D02*
X304202Y261164D01*
X302867Y260271D01*
X301974Y258935D01*
X301660Y257360D01*
X301974Y255784D01*
X302867Y254448D01*
X304202Y253555D01*
X305778Y253242D01*
X307354Y253555D01*
X308690Y254448D01*
X309583Y255784D01*
X309896Y257360D01*
X309583Y258935D01*
X308690Y260271D01*
X307354Y261164D01*
X305778Y261477D01*
D02*
G37*
G36*
X477328Y260319D02*
X475752Y260005D01*
X474416Y259113D01*
X473523Y257777D01*
X473210Y256201D01*
X473523Y254625D01*
X474416Y253290D01*
X475752Y252397D01*
X477328Y252083D01*
X478904Y252397D01*
X480239Y253290D01*
X481132Y254625D01*
X481446Y256201D01*
X481132Y257777D01*
X480239Y259113D01*
X478904Y260005D01*
X477328Y260319D01*
D02*
G37*
G36*
X343878Y259563D02*
X342302Y259250D01*
X340967Y258357D01*
X340074Y257021D01*
X339761Y255446D01*
X340074Y253870D01*
X340967Y252534D01*
X342302Y251641D01*
X343878Y251328D01*
X345454Y251641D01*
X346790Y252534D01*
X347682Y253870D01*
X347996Y255446D01*
X347682Y257021D01*
X346790Y258357D01*
X345454Y259250D01*
X343878Y259563D01*
D02*
G37*
G36*
X254978D02*
X253403Y259250D01*
X252067Y258357D01*
X251174Y257021D01*
X250861Y255446D01*
X251174Y253870D01*
X252067Y252534D01*
X253403Y251641D01*
X254978Y251328D01*
X256554Y251641D01*
X257890Y252534D01*
X258783Y253870D01*
X259096Y255446D01*
X258783Y257021D01*
X257890Y258357D01*
X256554Y259250D01*
X254978Y259563D01*
D02*
G37*
G36*
X267678Y259563D02*
X266102Y259250D01*
X264767Y258357D01*
X263874Y257021D01*
X263561Y255446D01*
X263874Y253870D01*
X264767Y252534D01*
X266102Y251641D01*
X267678Y251328D01*
X269254Y251641D01*
X270590Y252534D01*
X271483Y253870D01*
X271796Y255446D01*
X271483Y257021D01*
X270590Y258357D01*
X269254Y259250D01*
X267678Y259563D01*
D02*
G37*
G36*
X318478Y259563D02*
X316902Y259250D01*
X315567Y258357D01*
X314674Y257021D01*
X314361Y255446D01*
X314674Y253870D01*
X315567Y252534D01*
X316902Y251641D01*
X318478Y251328D01*
X320054Y251641D01*
X321390Y252534D01*
X322282Y253870D01*
X322596Y255446D01*
X322282Y257021D01*
X321390Y258357D01*
X320054Y259250D01*
X318478Y259563D01*
D02*
G37*
G36*
X280378D02*
X278802Y259250D01*
X277467Y258357D01*
X276574Y257021D01*
X276261Y255446D01*
X276574Y253870D01*
X277467Y252534D01*
X278802Y251641D01*
X280378Y251328D01*
X281954Y251641D01*
X283290Y252534D01*
X284182Y253870D01*
X284496Y255446D01*
X284182Y257021D01*
X283290Y258357D01*
X281954Y259250D01*
X280378Y259563D01*
D02*
G37*
G36*
X75752Y260258D02*
X73980Y259906D01*
X72479Y258902D01*
X71475Y257401D01*
X71123Y255629D01*
X71475Y253858D01*
X72479Y252356D01*
X73980Y251353D01*
X75752Y251000D01*
X77523Y251353D01*
X79025Y252356D01*
X80028Y253858D01*
X80381Y255629D01*
X80028Y257401D01*
X79025Y258902D01*
X77523Y259906D01*
X75752Y260258D01*
D02*
G37*
G36*
X135994Y250813D02*
X134223Y250461D01*
X132721Y249457D01*
X131718Y247955D01*
X131365Y246184D01*
X131718Y244413D01*
X132721Y242911D01*
X134223Y241908D01*
X135994Y241555D01*
X137766Y241908D01*
X139267Y242911D01*
X140271Y244413D01*
X140623Y246184D01*
X140271Y247955D01*
X139267Y249457D01*
X137766Y250461D01*
X135994Y250813D01*
D02*
G37*
G36*
X23432Y251593D02*
X21462Y251201D01*
X19792Y250085D01*
X18677Y248416D01*
X18285Y246446D01*
X18677Y244476D01*
X19792Y242807D01*
X21462Y241691D01*
X23432Y241299D01*
X25401Y241691D01*
X27071Y242807D01*
X28187Y244476D01*
X28579Y246446D01*
X28187Y248416D01*
X27071Y250085D01*
X25401Y251201D01*
X23432Y251593D01*
D02*
G37*
G36*
X91366Y232649D02*
X89595Y232297D01*
X88093Y231293D01*
X87089Y229792D01*
X86737Y228020D01*
X87089Y226249D01*
X88093Y224747D01*
X89595Y223743D01*
X91366Y223391D01*
X93138Y223743D01*
X94639Y224747D01*
X95643Y226249D01*
X95995Y228020D01*
X95643Y229792D01*
X94639Y231293D01*
X93138Y232297D01*
X91366Y232649D01*
D02*
G37*
G36*
X236892Y230770D02*
X235312Y230456D01*
X233973Y229561D01*
X233078Y228222D01*
X232764Y226642D01*
X233078Y225062D01*
X233973Y223723D01*
X235312Y222828D01*
X236892Y222514D01*
X238472Y222828D01*
X239811Y223723D01*
X240706Y225062D01*
X241020Y226642D01*
X240706Y228222D01*
X239811Y229561D01*
X238472Y230456D01*
X236892Y230770D01*
D02*
G37*
G36*
X71728Y231332D02*
X69944Y230977D01*
X68432Y229966D01*
X67421Y228454D01*
X67066Y226670D01*
X67421Y224886D01*
X68432Y223374D01*
X69944Y222363D01*
X71728Y222008D01*
X73512Y222363D01*
X75024Y223374D01*
X76035Y224886D01*
X76390Y226670D01*
X76035Y228454D01*
X75024Y229966D01*
X73512Y230977D01*
X71728Y231332D01*
D02*
G37*
G36*
X335200Y229498D02*
X333620Y229184D01*
X332281Y228289D01*
X331386Y226950D01*
X331072Y225370D01*
X331386Y223790D01*
X331566Y223521D01*
X330982Y222110D01*
X330914Y222097D01*
X329575Y221202D01*
X329561Y221180D01*
X327854Y220912D01*
X327372Y221235D01*
X325792Y221549D01*
X324213Y221235D01*
X322873Y220340D01*
X321979Y219001D01*
X321664Y217421D01*
X321979Y215841D01*
X322873Y214502D01*
X323405Y214147D01*
X323471Y213764D01*
X323307Y212685D01*
X322283Y212001D01*
X321389Y210662D01*
X321074Y209082D01*
X321389Y207502D01*
X322283Y206163D01*
X323623Y205268D01*
X325202Y204954D01*
X326782Y205268D01*
X328121Y206163D01*
X329016Y207502D01*
X329330Y209082D01*
X329016Y210662D01*
X328121Y212001D01*
X327590Y212356D01*
X327523Y212740D01*
X327687Y213818D01*
X328711Y214502D01*
X328726Y214524D01*
X330432Y214792D01*
X330914Y214469D01*
X332494Y214155D01*
X334074Y214469D01*
X335413Y215364D01*
X336308Y216703D01*
X336622Y218283D01*
X336308Y219863D01*
X336128Y220132D01*
X336713Y221543D01*
X336780Y221556D01*
X338119Y222451D01*
X339014Y223790D01*
X339328Y225370D01*
X339014Y226950D01*
X338119Y228289D01*
X336780Y229184D01*
X335200Y229498D01*
D02*
G37*
G36*
X206286Y225057D02*
X204710Y224743D01*
X203374Y223851D01*
X202481Y222515D01*
X202168Y220939D01*
X202481Y219363D01*
X203374Y218027D01*
X204710Y217135D01*
X206286Y216821D01*
X207862Y217135D01*
X209197Y218027D01*
X210090Y219363D01*
X210403Y220939D01*
X210090Y222515D01*
X209197Y223851D01*
X207862Y224743D01*
X206286Y225057D01*
D02*
G37*
G36*
X418237Y216110D02*
X416658Y215796D01*
X415318Y214901D01*
X415260Y214813D01*
X414000D01*
X412661Y215708D01*
X411081Y216022D01*
X409501Y215708D01*
X408162Y214813D01*
X407267Y213474D01*
X406953Y211894D01*
X407267Y210314D01*
X408162Y208975D01*
X409501Y208080D01*
X411081Y207766D01*
X412661Y208080D01*
X414000Y208975D01*
X414059Y209063D01*
X415318D01*
X416658Y208168D01*
X418237Y207854D01*
X419817Y208168D01*
X421156Y209063D01*
X422051Y210402D01*
X422365Y211982D01*
X422051Y213562D01*
X421156Y214901D01*
X419817Y215796D01*
X418237Y216110D01*
D02*
G37*
G36*
X395911Y212584D02*
X394332Y212270D01*
X392992Y211375D01*
X392098Y210036D01*
X391783Y208456D01*
X392098Y206876D01*
X392992Y205537D01*
X394332Y204642D01*
X395911Y204328D01*
X397491Y204642D01*
X398830Y205537D01*
X399725Y206876D01*
X400039Y208456D01*
X399725Y210036D01*
X398830Y211375D01*
X397491Y212270D01*
X395911Y212584D01*
D02*
G37*
G36*
X424359Y208606D02*
X422780Y208292D01*
X421440Y207397D01*
X420546Y206058D01*
X420231Y204478D01*
X420546Y202898D01*
X421440Y201559D01*
X422780Y200664D01*
X424359Y200350D01*
X425939Y200664D01*
X427278Y201559D01*
X428173Y202898D01*
X428487Y204478D01*
X428173Y206058D01*
X427278Y207397D01*
X425939Y208292D01*
X424359Y208606D01*
D02*
G37*
G36*
X252731Y211495D02*
X251152Y211181D01*
X249812Y210286D01*
X248918Y208947D01*
X248603Y207367D01*
X248918Y205787D01*
X249812Y204448D01*
X250017Y204311D01*
X249848Y202983D01*
X248508Y202088D01*
X247614Y200749D01*
X247299Y199169D01*
X247614Y197589D01*
X248508Y196250D01*
X249848Y195355D01*
X251427Y195041D01*
X253007Y195355D01*
X254346Y196250D01*
X255241Y197589D01*
X255555Y199169D01*
X255241Y200749D01*
X254346Y202088D01*
X254141Y202225D01*
X254311Y203553D01*
X255650Y204448D01*
X256545Y205787D01*
X256859Y207367D01*
X256545Y208947D01*
X255650Y210286D01*
X254311Y211181D01*
X252731Y211495D01*
D02*
G37*
G36*
X202528Y203925D02*
X200757Y203573D01*
X199255Y202570D01*
X198252Y201068D01*
X197899Y199297D01*
X198252Y197525D01*
X199255Y196023D01*
X200757Y195020D01*
X202528Y194668D01*
X204300Y195020D01*
X205801Y196023D01*
X206805Y197525D01*
X207157Y199297D01*
X206805Y201068D01*
X205801Y202570D01*
X204300Y203573D01*
X202528Y203925D01*
D02*
G37*
G36*
X91366Y203519D02*
X89595Y203167D01*
X88093Y202163D01*
X87089Y200662D01*
X86737Y198890D01*
X87089Y197119D01*
X88093Y195617D01*
X89595Y194613D01*
X91366Y194261D01*
X93137Y194613D01*
X94639Y195617D01*
X95643Y197119D01*
X95995Y198890D01*
X95643Y200662D01*
X94639Y202163D01*
X93137Y203167D01*
X91366Y203519D01*
D02*
G37*
G36*
X338723Y194080D02*
X337144Y193766D01*
X335804Y192871D01*
X334910Y191532D01*
X334595Y189952D01*
X334910Y188372D01*
X335804Y187033D01*
X337144Y186138D01*
X338723Y185824D01*
X340303Y186138D01*
X341642Y187033D01*
X342537Y188372D01*
X342851Y189952D01*
X342537Y191532D01*
X341642Y192871D01*
X340303Y193766D01*
X338723Y194080D01*
D02*
G37*
G36*
X201942Y191812D02*
X200171Y191459D01*
X198669Y190456D01*
X197666Y188954D01*
X197313Y187183D01*
X197666Y185411D01*
X198669Y183909D01*
X200171Y182906D01*
X201942Y182554D01*
X203714Y182906D01*
X205215Y183909D01*
X206219Y185411D01*
X206571Y187183D01*
X206219Y188954D01*
X205215Y190456D01*
X203714Y191459D01*
X201942Y191812D01*
D02*
G37*
G36*
X113968Y191364D02*
X112184Y191009D01*
X110672Y189998D01*
X109661Y188486D01*
X109306Y186702D01*
X109661Y184918D01*
X110672Y183406D01*
X112184Y182395D01*
X113968Y182041D01*
X115752Y182395D01*
X117264Y183406D01*
X118275Y184918D01*
X118630Y186702D01*
X118275Y188486D01*
X117264Y189998D01*
X115752Y191009D01*
X113968Y191364D01*
D02*
G37*
G36*
X389124Y190264D02*
X387545Y189950D01*
X386205Y189055D01*
X385311Y187716D01*
X384996Y186136D01*
X385311Y184556D01*
X386205Y183217D01*
X387545Y182322D01*
X389124Y182008D01*
X390704Y182322D01*
X392043Y183217D01*
X392938Y184556D01*
X393252Y186136D01*
X392938Y187716D01*
X392043Y189055D01*
X390704Y189950D01*
X389124Y190264D01*
D02*
G37*
G36*
X163492Y184272D02*
X161721Y183920D01*
X160219Y182916D01*
X159215Y181415D01*
X158863Y179643D01*
X159215Y177872D01*
X160219Y176370D01*
X161721Y175367D01*
X163492Y175014D01*
X163900Y175095D01*
X164980Y174015D01*
X164879Y173507D01*
X165231Y171736D01*
X166235Y170234D01*
X167737Y169231D01*
X169508Y168878D01*
X171279Y169231D01*
X172781Y170234D01*
X173785Y171736D01*
X174137Y173507D01*
X173785Y175279D01*
X172781Y176780D01*
X171279Y177784D01*
X169508Y178136D01*
X169100Y178055D01*
X168020Y179135D01*
X168121Y179643D01*
X167769Y181415D01*
X166765Y182916D01*
X165263Y183920D01*
X163492Y184272D01*
D02*
G37*
G36*
X206286Y174257D02*
X204710Y173944D01*
X203374Y173051D01*
X202481Y171715D01*
X202168Y170139D01*
X202481Y168563D01*
X203374Y167227D01*
X204710Y166335D01*
X206286Y166021D01*
X207861Y166335D01*
X209197Y167227D01*
X210090Y168563D01*
X210403Y170139D01*
X210090Y171715D01*
X209197Y173051D01*
X207861Y173944D01*
X206286Y174257D01*
D02*
G37*
G36*
X143600Y172831D02*
X141829Y172479D01*
X140327Y171475D01*
X139323Y169974D01*
X138971Y168202D01*
X139323Y166431D01*
X139545Y166099D01*
X138629Y165184D01*
X137497Y165940D01*
X135726Y166292D01*
X133955Y165940D01*
X132453Y164936D01*
X131449Y163435D01*
X131097Y161663D01*
X131449Y159892D01*
X132453Y158390D01*
X133955Y157387D01*
X135726Y157034D01*
X137497Y157387D01*
X138999Y158390D01*
X140003Y159892D01*
X140355Y161663D01*
X140003Y163435D01*
X139781Y163766D01*
X140697Y164682D01*
X141829Y163925D01*
X143600Y163573D01*
X145371Y163925D01*
X146873Y164929D01*
X147877Y166431D01*
X148229Y168202D01*
X147877Y169974D01*
X146873Y171475D01*
X145371Y172479D01*
X143600Y172831D01*
D02*
G37*
G36*
X29086Y173333D02*
X27315Y172980D01*
X25813Y171977D01*
X24809Y170475D01*
X24457Y168704D01*
X24809Y166933D01*
X25813Y165431D01*
X27315Y164427D01*
X29086Y164075D01*
X30857Y164427D01*
X32359Y165431D01*
X33363Y166933D01*
X33715Y168704D01*
X33363Y170475D01*
X32359Y171977D01*
X30857Y172980D01*
X29086Y173333D01*
D02*
G37*
G36*
X191606Y172120D02*
X189835Y171768D01*
X188333Y170764D01*
X187329Y169263D01*
X186977Y167491D01*
X187329Y165720D01*
X188333Y164218D01*
X189835Y163214D01*
X191606Y162862D01*
X192146Y162969D01*
X193226Y161889D01*
X193181Y161663D01*
X193533Y159892D01*
X194536Y158390D01*
X196038Y157387D01*
X197810Y157034D01*
X199581Y157387D01*
X201083Y158390D01*
X202086Y159892D01*
X202439Y161663D01*
X202086Y163435D01*
X201083Y164936D01*
X199581Y165940D01*
X197810Y166292D01*
X197270Y166185D01*
X196190Y167265D01*
X196235Y167491D01*
X195883Y169263D01*
X194879Y170764D01*
X193377Y171768D01*
X191606Y172120D01*
D02*
G37*
G36*
X326963Y175911D02*
X325384Y175597D01*
X324044Y174702D01*
X323149Y173363D01*
X322835Y171783D01*
X323149Y170203D01*
X323881Y169108D01*
Y161048D01*
X323223Y160062D01*
X322908Y158482D01*
X323167Y157182D01*
X323140Y157123D01*
X322559Y156446D01*
X322176Y156183D01*
X321088Y156399D01*
X319509Y156085D01*
X318169Y155190D01*
X317274Y153851D01*
X316960Y152271D01*
X317274Y150691D01*
X318169Y149352D01*
X319509Y148457D01*
X321088Y148143D01*
X322668Y148457D01*
X324007Y149352D01*
X324902Y150691D01*
X325216Y152271D01*
X324958Y153571D01*
X324984Y153630D01*
X325565Y154307D01*
X325948Y154571D01*
X327036Y154354D01*
X328616Y154668D01*
X329955Y155563D01*
X330850Y156902D01*
X331164Y158482D01*
X330850Y160062D01*
X330045Y161266D01*
Y169108D01*
X330777Y170203D01*
X331091Y171783D01*
X330777Y173363D01*
X329882Y174702D01*
X328543Y175597D01*
X326963Y175911D01*
D02*
G37*
G36*
X259638Y155827D02*
X258058Y155513D01*
X256719Y154618D01*
X255825Y153279D01*
X255510Y151699D01*
X255825Y150119D01*
X256719Y148780D01*
X258058Y147885D01*
X259638Y147571D01*
X261218Y147885D01*
X262557Y148780D01*
X263452Y150119D01*
X263766Y151699D01*
X263452Y153279D01*
X262557Y154618D01*
X261218Y155513D01*
X259638Y155827D01*
D02*
G37*
G36*
X379990Y152520D02*
X378410Y152206D01*
X377071Y151311D01*
X376176Y149972D01*
X375862Y148392D01*
X376176Y146812D01*
X377071Y145473D01*
X378410Y144578D01*
X379990Y144264D01*
X381570Y144578D01*
X382909Y145473D01*
X383804Y146812D01*
X384118Y148392D01*
X383804Y149972D01*
X382909Y151311D01*
X381570Y152206D01*
X379990Y152520D01*
D02*
G37*
G36*
X406633Y149419D02*
X405053Y149105D01*
X403714Y148210D01*
X402820Y146871D01*
X402505Y145291D01*
X402820Y143711D01*
X403714Y142372D01*
X405053Y141477D01*
X406633Y141163D01*
X408213Y141477D01*
X409552Y142372D01*
X410447Y143711D01*
X410761Y145291D01*
X410447Y146871D01*
X409552Y148210D01*
X408213Y149105D01*
X406633Y149419D01*
D02*
G37*
G36*
X108972Y147032D02*
X107201Y146680D01*
X105699Y145676D01*
X104696Y144174D01*
X104343Y142403D01*
X104696Y140632D01*
X105699Y139130D01*
X107201Y138126D01*
X108972Y137774D01*
X110744Y138126D01*
X112245Y139130D01*
X113249Y140632D01*
X113601Y142403D01*
X113249Y144174D01*
X112245Y145676D01*
X110744Y146680D01*
X108972Y147032D01*
D02*
G37*
G36*
X249251Y144394D02*
X247672Y144080D01*
X246332Y143185D01*
X245438Y141846D01*
X245123Y140266D01*
X245438Y138686D01*
X246332Y137347D01*
X247672Y136452D01*
X249251Y136138D01*
X250831Y136452D01*
X252170Y137347D01*
X253065Y138686D01*
X253379Y140266D01*
X253065Y141846D01*
X252170Y143185D01*
X250831Y144080D01*
X249251Y144394D01*
D02*
G37*
G36*
X318759Y143597D02*
X317180Y143283D01*
X315840Y142388D01*
X314946Y141049D01*
X314631Y139469D01*
X314946Y137889D01*
X315840Y136550D01*
X317180Y135655D01*
X318759Y135341D01*
X320339Y135655D01*
X321678Y136550D01*
X322573Y137889D01*
X322887Y139469D01*
X322573Y141049D01*
X321678Y142388D01*
X320339Y143283D01*
X318759Y143597D01*
D02*
G37*
G36*
X267428Y146531D02*
X265849Y146217D01*
X264509Y145322D01*
X263615Y143983D01*
X263300Y142403D01*
X263615Y140823D01*
X264509Y139484D01*
X265849Y138589D01*
X267428Y138275D01*
X269008Y138589D01*
X269435Y137478D01*
X269506Y137124D01*
X270400Y135785D01*
X271740Y134890D01*
X273319Y134576D01*
X274899Y134890D01*
X276238Y135785D01*
X277133Y137124D01*
X277447Y138704D01*
X277133Y140284D01*
X276238Y141623D01*
X274899Y142518D01*
X273319Y142832D01*
X271740Y142518D01*
X271312Y143629D01*
X271242Y143983D01*
X270347Y145322D01*
X269008Y146217D01*
X267428Y146531D01*
D02*
G37*
G36*
X422416Y141345D02*
X420836Y141031D01*
X419497Y140136D01*
X418602Y138797D01*
X418288Y137217D01*
X418602Y135637D01*
X419497Y134298D01*
X420836Y133403D01*
X422416Y133089D01*
X423996Y133403D01*
X425335Y134298D01*
X426230Y135637D01*
X426544Y137217D01*
X426230Y138797D01*
X425335Y140136D01*
X423996Y141031D01*
X422416Y141345D01*
D02*
G37*
G36*
X238323Y144722D02*
X236744Y144408D01*
X235404Y143513D01*
X234510Y142174D01*
X234323Y141236D01*
X233251Y140229D01*
X232993Y140129D01*
X231605Y139853D01*
X230266Y138958D01*
X229371Y137619D01*
X229057Y136039D01*
X229371Y134459D01*
X230266Y133120D01*
X231605Y132225D01*
X233185Y131911D01*
X234765Y132225D01*
X236104Y133120D01*
X236999Y134459D01*
X237185Y135398D01*
X238258Y136405D01*
X238515Y136504D01*
X239903Y136780D01*
X241242Y137675D01*
X242137Y139014D01*
X242451Y140594D01*
X242137Y142174D01*
X241242Y143513D01*
X239903Y144408D01*
X238323Y144722D01*
D02*
G37*
G36*
X388031Y135011D02*
X386452Y134697D01*
X385112Y133802D01*
X384217Y132463D01*
X383903Y130883D01*
X384217Y129303D01*
X385112Y127964D01*
X386452Y127069D01*
X388031Y126755D01*
X389611Y127069D01*
X390950Y127964D01*
X391845Y129303D01*
X392159Y130883D01*
X391845Y132463D01*
X390950Y133802D01*
X389611Y134697D01*
X388031Y135011D01*
D02*
G37*
G36*
X255907Y134475D02*
X254328Y134161D01*
X252988Y133266D01*
X252094Y131927D01*
X251779Y130347D01*
X252094Y128767D01*
X252988Y127428D01*
X254328Y126533D01*
X255907Y126219D01*
X257487Y126533D01*
X258826Y127428D01*
X259721Y128767D01*
X260035Y130347D01*
X259721Y131927D01*
X258826Y133266D01*
X257487Y134161D01*
X255907Y134475D01*
D02*
G37*
G36*
X427244Y128390D02*
X425665Y128076D01*
X424325Y127181D01*
X423430Y125842D01*
X423116Y124262D01*
X423430Y122682D01*
X424325Y121343D01*
X425665Y120448D01*
X427244Y120134D01*
X428824Y120448D01*
X430163Y121343D01*
X431058Y122682D01*
X431372Y124262D01*
X431058Y125842D01*
X430163Y127181D01*
X428824Y128076D01*
X427244Y128390D01*
D02*
G37*
G36*
X255411Y122188D02*
X253832Y121874D01*
X252492Y120979D01*
X251597Y119640D01*
X251283Y118060D01*
X251597Y116480D01*
X252492Y115141D01*
X253832Y114246D01*
X255411Y113932D01*
X256991Y114246D01*
X258330Y115141D01*
X259225Y116480D01*
X259539Y118060D01*
X259225Y119640D01*
X258330Y120979D01*
X256991Y121874D01*
X255411Y122188D01*
D02*
G37*
G36*
X402778Y118882D02*
X401199Y118568D01*
X399859Y117673D01*
X398965Y116334D01*
X398650Y114754D01*
X398965Y113174D01*
X399859Y111835D01*
X401199Y110940D01*
X402778Y110626D01*
X404358Y110940D01*
X405697Y111835D01*
X406592Y113174D01*
X406906Y114754D01*
X406592Y116334D01*
X405697Y117673D01*
X404358Y118568D01*
X402778Y118882D01*
D02*
G37*
G36*
X154358Y110047D02*
X152587Y109695D01*
X151085Y108691D01*
X150082Y107190D01*
X149729Y105418D01*
X150082Y103647D01*
X151085Y102145D01*
X152587Y101142D01*
X154358Y100789D01*
X156130Y101142D01*
X157631Y102145D01*
X158635Y103647D01*
X158987Y105418D01*
X158635Y107190D01*
X157631Y108691D01*
X156130Y109695D01*
X154358Y110047D01*
D02*
G37*
G36*
X118972Y102507D02*
X117201Y102155D01*
X115699Y101151D01*
X114696Y99649D01*
X114620Y99268D01*
X113325D01*
X113249Y99649D01*
X112245Y101151D01*
X110744Y102155D01*
X108972Y102507D01*
X107201Y102155D01*
X105699Y101151D01*
X104695Y99649D01*
X104343Y97878D01*
X104695Y96107D01*
X105699Y94605D01*
X107201Y93602D01*
X108972Y93249D01*
X110744Y93602D01*
X112245Y94605D01*
X113249Y96107D01*
X113325Y96489D01*
X114620D01*
X114696Y96107D01*
X115699Y94605D01*
X117201Y93602D01*
X118972Y93249D01*
X120744Y93602D01*
X122245Y94605D01*
X123249Y96107D01*
X123601Y97878D01*
X123249Y99649D01*
X122245Y101151D01*
X120744Y102155D01*
X118972Y102507D01*
D02*
G37*
G36*
X621949Y107334D02*
X620178Y106982D01*
X618676Y105978D01*
X617673Y104476D01*
X617320Y102705D01*
X617673Y100934D01*
X618676Y99432D01*
X620178Y98428D01*
X621949Y98076D01*
X623721Y98428D01*
X625222Y99432D01*
X626226Y100934D01*
X626578Y102705D01*
X626226Y104476D01*
X625222Y105978D01*
X623721Y106982D01*
X621949Y107334D01*
D02*
G37*
G36*
X-50000Y144619D02*
X-54803Y144145D01*
X-59421Y142745D01*
X-63677Y140470D01*
X-67408Y137408D01*
X-70470Y133677D01*
X-72745Y129421D01*
X-74145Y124803D01*
X-74619Y120000D01*
X-74145Y115197D01*
X-72745Y110579D01*
X-70470Y106323D01*
X-67408Y102592D01*
X-63677Y99530D01*
X-59421Y97255D01*
X-54803Y95855D01*
X-50000Y95381D01*
X-45197Y95855D01*
X-40579Y97255D01*
X-36323Y99530D01*
X-32592Y102592D01*
X-29530Y106323D01*
X-27255Y110579D01*
X-25854Y115197D01*
X-25382Y120000D01*
X-25854Y124803D01*
X-27255Y129421D01*
X-29530Y133677D01*
X-32592Y137408D01*
X-36323Y140470D01*
X-40579Y142745D01*
X-45197Y144145D01*
X-50000Y144619D01*
D02*
G37*
G36*
X613453Y91460D02*
X611682Y91108D01*
X610180Y90104D01*
X609177Y88603D01*
X608824Y86831D01*
X609177Y85060D01*
X610180Y83558D01*
X611682Y82555D01*
X613453Y82202D01*
X615225Y82555D01*
X616726Y83558D01*
X617730Y85060D01*
X618082Y86831D01*
X617730Y88603D01*
X616726Y90104D01*
X615225Y91108D01*
X613453Y91460D01*
D02*
G37*
G36*
X523330Y87086D02*
X521754Y86772D01*
X520418Y85880D01*
X519526Y84544D01*
X519212Y82968D01*
X519526Y81392D01*
X520418Y80056D01*
X521754Y79164D01*
X523330Y78850D01*
X524906Y79164D01*
X526242Y80056D01*
X527134Y81392D01*
X527448Y82968D01*
X527134Y84544D01*
X526242Y85880D01*
X524906Y86772D01*
X523330Y87086D01*
D02*
G37*
G36*
X138774Y84803D02*
X137003Y84451D01*
X135501Y83447D01*
X134497Y81945D01*
X134145Y80174D01*
X134497Y78403D01*
X135501Y76901D01*
X137003Y75897D01*
X138774Y75545D01*
X140545Y75897D01*
X142047Y76901D01*
X143051Y78403D01*
X143403Y80174D01*
X143051Y81945D01*
X142047Y83447D01*
X140545Y84451D01*
X138774Y84803D01*
D02*
G37*
G36*
X267672Y81356D02*
X266096Y81043D01*
X264761Y80150D01*
X263868Y78814D01*
X263554Y77239D01*
X263868Y75663D01*
X264761Y74327D01*
X266096Y73434D01*
X267672Y73121D01*
X269248Y73434D01*
X270584Y74327D01*
X271476Y75663D01*
X271790Y77239D01*
X271476Y78814D01*
X270584Y80150D01*
X269248Y81043D01*
X267672Y81356D01*
D02*
G37*
G36*
X254978Y81350D02*
X253402Y81037D01*
X252067Y80144D01*
X251174Y78808D01*
X250861Y77233D01*
X251174Y75657D01*
X252067Y74321D01*
X253402Y73428D01*
X254978Y73115D01*
X256554Y73428D01*
X257890Y74321D01*
X258783Y75657D01*
X259096Y77233D01*
X258783Y78808D01*
X257890Y80144D01*
X256554Y81037D01*
X254978Y81350D01*
D02*
G37*
G36*
X242278D02*
X240702Y81037D01*
X239367Y80144D01*
X238474Y78808D01*
X238161Y77233D01*
X238474Y75657D01*
X239367Y74321D01*
X240702Y73428D01*
X242278Y73115D01*
X243854Y73428D01*
X245190Y74321D01*
X246083Y75657D01*
X246396Y77233D01*
X246083Y78808D01*
X245190Y80144D01*
X243854Y81037D01*
X242278Y81350D01*
D02*
G37*
G36*
X343878Y81350D02*
X342302Y81037D01*
X340967Y80144D01*
X340074Y78808D01*
X339761Y77233D01*
X340074Y75657D01*
X340967Y74321D01*
X342302Y73428D01*
X343878Y73115D01*
X345454Y73428D01*
X346790Y74321D01*
X347682Y75657D01*
X347996Y77233D01*
X347682Y78808D01*
X346790Y80144D01*
X345454Y81037D01*
X343878Y81350D01*
D02*
G37*
G36*
X331178D02*
X329603Y81037D01*
X328267Y80144D01*
X327374Y78808D01*
X327061Y77233D01*
X327374Y75657D01*
X328267Y74321D01*
X329603Y73428D01*
X331178Y73115D01*
X332754Y73428D01*
X334090Y74321D01*
X334982Y75657D01*
X335296Y77233D01*
X334982Y78808D01*
X334090Y80144D01*
X332754Y81037D01*
X331178Y81350D01*
D02*
G37*
G36*
X318478D02*
X316902Y81037D01*
X315567Y80144D01*
X314674Y78808D01*
X314361Y77233D01*
X314674Y75657D01*
X315567Y74321D01*
X316902Y73428D01*
X318478Y73115D01*
X320054Y73428D01*
X321390Y74321D01*
X322282Y75657D01*
X322596Y77233D01*
X322282Y78808D01*
X321390Y80144D01*
X320054Y81037D01*
X318478Y81350D01*
D02*
G37*
G36*
X305778D02*
X304202Y81037D01*
X302867Y80144D01*
X301974Y78808D01*
X301660Y77233D01*
X301974Y75657D01*
X302867Y74321D01*
X304202Y73428D01*
X305778Y73115D01*
X307354Y73428D01*
X308690Y74321D01*
X309583Y75657D01*
X309896Y77233D01*
X309583Y78808D01*
X308690Y80144D01*
X307354Y81037D01*
X305778Y81350D01*
D02*
G37*
G36*
X293078D02*
X291502Y81037D01*
X290167Y80144D01*
X289274Y78808D01*
X288960Y77233D01*
X289274Y75657D01*
X290167Y74321D01*
X291502Y73428D01*
X293078Y73115D01*
X294654Y73428D01*
X295990Y74321D01*
X296882Y75657D01*
X297196Y77233D01*
X296882Y78808D01*
X295990Y80144D01*
X294654Y81037D01*
X293078Y81350D01*
D02*
G37*
G36*
X280378Y73881D02*
X278607Y73529D01*
X277105Y72525D01*
X276102Y71023D01*
X275749Y69252D01*
X276102Y67481D01*
X277105Y65979D01*
X278607Y64975D01*
X280378Y64623D01*
X282150Y64975D01*
X283651Y65979D01*
X284655Y67481D01*
X285007Y69252D01*
X284655Y71023D01*
X283651Y72525D01*
X282150Y73529D01*
X280378Y73881D01*
D02*
G37*
G36*
X390566Y67323D02*
X388794Y66970D01*
X387293Y65967D01*
X386289Y64465D01*
X385937Y62694D01*
X386289Y60922D01*
X387293Y59420D01*
X388794Y58417D01*
X390566Y58065D01*
X392337Y58417D01*
X393839Y59420D01*
X394842Y60922D01*
X395195Y62694D01*
X394842Y64465D01*
X393839Y65967D01*
X392337Y66970D01*
X390566Y67323D01*
D02*
G37*
G36*
X523330Y62215D02*
X521559Y61863D01*
X520057Y60859D01*
X519053Y59358D01*
X518701Y57586D01*
X519053Y55815D01*
X520057Y54313D01*
X521559Y53310D01*
X523330Y52957D01*
X525101Y53310D01*
X526603Y54313D01*
X527607Y55815D01*
X527959Y57586D01*
X527607Y59358D01*
X526603Y60859D01*
X525101Y61863D01*
X523330Y62215D01*
D02*
G37*
G36*
X615871Y60378D02*
X614100Y60025D01*
X612598Y59022D01*
X611595Y57520D01*
X611242Y55749D01*
X611595Y53977D01*
X612598Y52476D01*
X614100Y51472D01*
X615871Y51120D01*
X617643Y51472D01*
X619144Y52476D01*
X620148Y53977D01*
X620500Y55749D01*
X620148Y57520D01*
X619144Y59022D01*
X617643Y60025D01*
X615871Y60378D01*
D02*
G37*
G36*
X16974Y54667D02*
X15203Y54315D01*
X13701Y53311D01*
X12697Y51809D01*
X12345Y50038D01*
X12697Y48267D01*
X13701Y46765D01*
X15203Y45761D01*
X16974Y45409D01*
X18745Y45761D01*
X20247Y46765D01*
X21251Y48267D01*
X21603Y50038D01*
X21251Y51809D01*
X20247Y53311D01*
X18745Y54315D01*
X16974Y54667D01*
D02*
G37*
G36*
X377504Y54147D02*
X375732Y53795D01*
X374230Y52791D01*
X373227Y51290D01*
X372875Y49518D01*
X373227Y47747D01*
X374230Y46245D01*
X375732Y45242D01*
X377504Y44889D01*
X379275Y45242D01*
X380777Y46245D01*
X381780Y47747D01*
X382132Y49518D01*
X381780Y51290D01*
X380777Y52791D01*
X379275Y53795D01*
X377504Y54147D01*
D02*
G37*
G36*
X364590Y54057D02*
X362818Y53705D01*
X361316Y52702D01*
X360313Y51200D01*
X359961Y49429D01*
X360313Y47657D01*
X361316Y46155D01*
X362818Y45152D01*
X364590Y44799D01*
X366361Y45152D01*
X367863Y46155D01*
X368866Y47657D01*
X369218Y49429D01*
X368866Y51200D01*
X367863Y52702D01*
X366361Y53705D01*
X364590Y54057D01*
D02*
G37*
G36*
X178254Y46751D02*
X176483Y46398D01*
X174981Y45395D01*
X173978Y43893D01*
X173626Y42122D01*
X173978Y40350D01*
X174981Y38849D01*
X176483Y37845D01*
X178254Y37493D01*
X180026Y37845D01*
X181528Y38849D01*
X182531Y40350D01*
X182883Y42122D01*
X182531Y43893D01*
X181528Y45395D01*
X180026Y46398D01*
X178254Y46751D01*
D02*
G37*
G36*
X615871Y41257D02*
X614100Y40905D01*
X612598Y39901D01*
X611595Y38399D01*
X611242Y36628D01*
X611595Y34857D01*
X612598Y33355D01*
X614100Y32351D01*
X615871Y31999D01*
X617643Y32351D01*
X619144Y33355D01*
X620148Y34857D01*
X620500Y36628D01*
X620148Y38399D01*
X619144Y39901D01*
X617643Y40905D01*
X615871Y41257D01*
D02*
G37*
G36*
X220832Y50940D02*
X201532D01*
Y31640D01*
X220832D01*
Y50940D01*
D02*
G37*
G36*
X338182Y51023D02*
X335663Y50692D01*
X333315Y49719D01*
X331300Y48172D01*
X329753Y46157D01*
X328780Y43809D01*
X328449Y41290D01*
X328780Y38771D01*
X329753Y36423D01*
X331300Y34408D01*
X333315Y32861D01*
X335663Y31888D01*
X338182Y31557D01*
X340701Y31888D01*
X343049Y32861D01*
X345065Y34408D01*
X346611Y36423D01*
X347584Y38771D01*
X347915Y41290D01*
X347584Y43809D01*
X346611Y46157D01*
X345065Y48172D01*
X343049Y49719D01*
X340701Y50692D01*
X338182Y51023D01*
D02*
G37*
G36*
X312782D02*
X310263Y50692D01*
X307915Y49719D01*
X305900Y48172D01*
X304353Y46157D01*
X303380Y43809D01*
X303049Y41290D01*
X303380Y38771D01*
X304353Y36423D01*
X305900Y34408D01*
X307915Y32861D01*
X310263Y31888D01*
X312782Y31557D01*
X315301Y31888D01*
X317649Y32861D01*
X319664Y34408D01*
X321211Y36423D01*
X322184Y38771D01*
X322515Y41290D01*
X322184Y43809D01*
X321211Y46157D01*
X319664Y48172D01*
X317649Y49719D01*
X315301Y50692D01*
X312782Y51023D01*
D02*
G37*
G36*
X261982D02*
X259463Y50692D01*
X257115Y49719D01*
X255100Y48172D01*
X253553Y46157D01*
X252580Y43809D01*
X252249Y41290D01*
X252580Y38771D01*
X253553Y36423D01*
X255100Y34408D01*
X257115Y32861D01*
X259463Y31888D01*
X261982Y31557D01*
X264501Y31888D01*
X266849Y32861D01*
X268864Y34408D01*
X270411Y36423D01*
X271384Y38771D01*
X271715Y41290D01*
X271384Y43809D01*
X270411Y46157D01*
X268864Y48172D01*
X266849Y49719D01*
X264501Y50692D01*
X261982Y51023D01*
D02*
G37*
G36*
X423391Y36797D02*
X421620Y36445D01*
X420118Y35441D01*
X419115Y33939D01*
X418762Y32168D01*
X419115Y30397D01*
X420118Y28895D01*
X421620Y27891D01*
X423391Y27539D01*
X425163Y27891D01*
X426082Y28506D01*
X427263Y28373D01*
X427581Y28096D01*
X428410Y26855D01*
X429912Y25851D01*
X431683Y25499D01*
X433455Y25851D01*
X434956Y26855D01*
X435489Y27652D01*
X436588Y28090D01*
X437059Y27890D01*
X438197Y27129D01*
X439969Y26777D01*
X441740Y27129D01*
X443242Y28133D01*
X444245Y29635D01*
X444598Y31406D01*
X444245Y33177D01*
X443242Y34679D01*
X441740Y35683D01*
X439969Y36035D01*
X438197Y35683D01*
X436696Y34679D01*
X436163Y33882D01*
X435064Y33444D01*
X434593Y33644D01*
X433455Y34405D01*
X431683Y34757D01*
X429912Y34405D01*
X428992Y33790D01*
X427811Y33923D01*
X427494Y34200D01*
X426664Y35441D01*
X425163Y36445D01*
X423391Y36797D01*
D02*
G37*
G36*
X515956Y34757D02*
X514185Y34405D01*
X512683Y33401D01*
X511679Y31899D01*
X511327Y30128D01*
X511679Y28357D01*
X512683Y26855D01*
X514185Y25851D01*
X515956Y25499D01*
X517727Y25851D01*
X519229Y26855D01*
X520233Y28357D01*
X520585Y30128D01*
X520233Y31899D01*
X519229Y33401D01*
X517727Y34405D01*
X515956Y34757D01*
D02*
G37*
G36*
X403473Y33001D02*
X401702Y32649D01*
X400200Y31645D01*
X399197Y30143D01*
X398844Y28372D01*
X399197Y26601D01*
X400200Y25099D01*
X401702Y24095D01*
X403473Y23743D01*
X405245Y24095D01*
X406747Y25099D01*
X407750Y26601D01*
X408102Y28372D01*
X407750Y30143D01*
X406747Y31645D01*
X405245Y32649D01*
X403473Y33001D01*
D02*
G37*
G36*
X457342Y28996D02*
X455570Y28644D01*
X454068Y27640D01*
X453065Y26139D01*
X452713Y24367D01*
X453065Y22596D01*
X454068Y21094D01*
X455570Y20091D01*
X457342Y19738D01*
X459113Y20091D01*
X460615Y21094D01*
X461618Y22596D01*
X461971Y24367D01*
X461618Y26139D01*
X460615Y27640D01*
X459113Y28644D01*
X457342Y28996D01*
D02*
G37*
%LPD*%
D10*
X716000Y512123D02*
G03*
X777123Y451000I61123J0D01*
G01*
X0Y23877D02*
G03*
X-61123Y85000I-61123J-0D01*
G01*
X-85000Y536000D02*
X716000D01*
X0Y0D02*
X801000D01*
X-85000Y85000D02*
X-61123D01*
X777123Y451000D02*
X801000D01*
X801000Y0D02*
Y451000D01*
X-85000Y85000D02*
Y536000D01*
X0Y0D02*
Y23877D01*
X716000Y512123D02*
Y536000D01*
D162*
X326963Y158585D02*
Y171783D01*
D170*
X686600Y110110D02*
D03*
Y305106D02*
D03*
D171*
X371982Y283790D02*
D03*
X397382D02*
D03*
X287382Y41290D02*
D03*
X236582D02*
D03*
D173*
X198100Y351788D02*
D03*
X299700Y326388D02*
D03*
X172700D02*
D03*
D175*
X669242Y287748D02*
D03*
X711148Y110110D02*
D03*
D176*
X234556Y97429D02*
D03*
X450626Y97429D02*
D03*
Y234909D02*
D03*
X234556Y234909D02*
D03*
D178*
X490122Y257326D02*
D03*
X601866Y88847D02*
D03*
X590352Y93317D02*
D03*
X525971Y99003D02*
D03*
Y113105D02*
D03*
Y128420D02*
D03*
X525862Y143711D02*
D03*
X525622Y157182D02*
D03*
Y170653D02*
D03*
Y184325D02*
D03*
Y198990D02*
D03*
X638392Y29062D02*
D03*
X624168Y298516D02*
D03*
X632550Y72513D02*
D03*
X97372Y33110D02*
D03*
Y55770D02*
D03*
Y76886D02*
D03*
X110924Y44118D02*
D03*
Y65950D02*
D03*
X408439Y327423D02*
D03*
X346709Y374073D02*
D03*
X408439Y373000D02*
D03*
X336308Y421628D02*
D03*
Y465412D02*
D03*
X338672Y512402D02*
D03*
X303620Y421409D02*
D03*
Y464650D02*
D03*
Y512402D02*
D03*
X98738Y517863D02*
D03*
X68162Y446188D02*
D03*
X-72808Y451268D02*
D03*
X-4798Y515577D02*
D03*
X1107Y182041D02*
D03*
X1298Y164502D02*
D03*
X-226Y202436D02*
D03*
X-672Y219783D02*
D03*
X-226Y239178D02*
D03*
X-36Y255096D02*
D03*
X60Y268642D02*
D03*
X-71538Y220382D02*
D03*
Y233952D02*
D03*
Y246464D02*
D03*
Y259936D02*
D03*
X-15276Y239178D02*
D03*
X-68490Y206376D02*
D03*
X-11006Y205748D02*
D03*
X-15466Y274912D02*
D03*
Y263054D02*
D03*
Y251878D02*
D03*
X-27087Y236540D02*
D03*
Y246888D02*
D03*
X-53678Y259667D02*
D03*
Y246464D02*
D03*
Y233952D02*
D03*
Y220382D02*
D03*
Y206376D02*
D03*
X-24420Y205748D02*
D03*
X-65696Y154596D02*
D03*
X-13372D02*
D03*
X-27087Y162978D02*
D03*
X-40612D02*
D03*
X-53250D02*
D03*
X-68490Y170222D02*
D03*
Y182041D02*
D03*
Y193204D02*
D03*
X-10894Y170222D02*
D03*
X-11006Y182395D02*
D03*
Y193204D02*
D03*
X494842Y56552D02*
D03*
X-52916Y425534D02*
D03*
X-49111Y448902D02*
D03*
X242946Y525176D02*
D03*
X159500Y437904D02*
D03*
X170350Y430876D02*
D03*
X203976Y394364D02*
D03*
X345660Y322229D02*
D03*
X536435Y335623D02*
D03*
X554215Y335623D02*
D03*
X390883Y383899D02*
D03*
X378118Y383933D02*
D03*
X365412Y383905D02*
D03*
X572831Y68236D02*
D03*
X213530Y473413D02*
D03*
X238967Y473032D02*
D03*
X221687Y454076D02*
D03*
X68068Y186702D02*
D03*
X390495Y28372D02*
D03*
X23673Y341376D02*
D03*
Y326662D02*
D03*
X7282Y348572D02*
D03*
Y334076D02*
D03*
Y319362D02*
D03*
X-10498Y326982D02*
D03*
Y341696D02*
D03*
Y356192D02*
D03*
X221150Y506052D02*
D03*
X-4154Y441034D02*
D03*
X2202Y427312D02*
D03*
X116262Y246666D02*
D03*
X142420Y219638D02*
D03*
X188254Y41102D02*
D03*
X549059Y265030D02*
D03*
X531787D02*
D03*
X20412Y363480D02*
D03*
X30412Y356872D02*
D03*
X50782Y355872D02*
D03*
X41572Y337142D02*
D03*
X36492Y324442D02*
D03*
X-10498Y310472D02*
D03*
X-338Y309202D02*
D03*
X10412Y305392D02*
D03*
X20412Y311742D02*
D03*
X-61088Y396622D02*
D03*
X-49588Y396342D02*
D03*
X-39588D02*
D03*
X-29588D02*
D03*
X-65108Y274912D02*
D03*
X-53678D02*
D03*
X158951Y44118D02*
D03*
X77142Y109482D02*
D03*
X481160Y499622D02*
D03*
Y509782D02*
D03*
Y519942D02*
D03*
X491320Y499622D02*
D03*
Y509782D02*
D03*
Y519942D02*
D03*
X501480D02*
D03*
Y509782D02*
D03*
X501480Y499622D02*
D03*
X511640D02*
D03*
Y509782D02*
D03*
Y519942D02*
D03*
X542120D02*
D03*
Y509782D02*
D03*
Y499622D02*
D03*
X531960D02*
D03*
X531960Y509782D02*
D03*
Y519942D02*
D03*
X521800D02*
D03*
X521800Y509782D02*
D03*
Y499622D02*
D03*
X552280D02*
D03*
Y509782D02*
D03*
Y519942D02*
D03*
X520530Y354882D02*
D03*
X541612Y368130D02*
D03*
X549740Y368155D02*
D03*
X533484Y368105D02*
D03*
X77935Y100592D02*
D03*
D180*
X375183Y115542D02*
D03*
X281759Y186051D02*
D03*
X283809Y134477D02*
D03*
X269902Y124005D02*
D03*
X234548Y184166D02*
D03*
X289759Y194051D02*
D03*
X305759Y194051D02*
D03*
X297759Y194051D02*
D03*
X281759D02*
D03*
X273759Y194051D02*
D03*
X289759Y186051D02*
D03*
X305759D02*
D03*
X297759Y186051D02*
D03*
X273759D02*
D03*
X289759Y162051D02*
D03*
X305759D02*
D03*
X297759Y162051D02*
D03*
X281759Y162051D02*
D03*
X273759Y162051D02*
D03*
X289759Y170051D02*
D03*
X305759Y170051D02*
D03*
X297759Y170051D02*
D03*
X281759Y170051D02*
D03*
X273759Y170051D02*
D03*
X273759Y178051D02*
D03*
X281759Y178051D02*
D03*
X305759D02*
D03*
X297759D02*
D03*
X405388Y179725D02*
D03*
Y173856D02*
D03*
X416854Y179725D02*
D03*
Y173856D02*
D03*
Y191463D02*
D03*
Y197332D02*
D03*
X405388Y191463D02*
D03*
X405388Y197332D02*
D03*
X405388Y185594D02*
D03*
X411121Y197332D02*
D03*
X411121Y191463D02*
D03*
X411121Y173856D02*
D03*
Y179725D02*
D03*
X289759Y178051D02*
D03*
X416854Y185594D02*
D03*
X411121D02*
D03*
X503316Y97538D02*
D03*
X503819Y113037D02*
D03*
X493010Y112785D02*
D03*
X493597Y97286D02*
D03*
X483124Y97453D02*
D03*
X482538Y112953D02*
D03*
X470641Y97118D02*
D03*
X471563Y112785D02*
D03*
X464525Y175788D02*
D03*
X459331Y175704D02*
D03*
X453801Y176123D02*
D03*
X461677Y158948D02*
D03*
X445591Y154676D02*
D03*
X444837Y146298D02*
D03*
X462430Y144789D02*
D03*
X469384Y139427D02*
D03*
X462011Y131552D02*
D03*
X469049Y126525D02*
D03*
X457153Y118985D02*
D03*
X438386Y109015D02*
D03*
X447441Y106496D02*
D03*
X445256Y116388D02*
D03*
X431013Y113542D02*
D03*
X431683Y102062D02*
D03*
X419953Y91589D02*
D03*
X420456Y112199D02*
D03*
X375802Y97705D02*
D03*
X387783Y91421D02*
D03*
X380493Y160541D02*
D03*
X369987Y169706D02*
D03*
X358543Y169002D02*
D03*
X374754Y164980D02*
D03*
X364451Y135449D02*
D03*
X366544Y123006D02*
D03*
X351379Y99003D02*
D03*
X357369Y91086D02*
D03*
X357704Y108597D02*
D03*
X349159Y107340D02*
D03*
X337848Y99967D02*
D03*
X324863Y100637D02*
D03*
X312840Y99003D02*
D03*
X299560Y98794D02*
D03*
X249621Y99967D02*
D03*
X244292Y104949D02*
D03*
X238107Y148475D02*
D03*
X228598Y91086D02*
D03*
X221645Y106753D02*
D03*
X221644Y233346D02*
D03*
X229771Y242227D02*
D03*
X248706Y232675D02*
D03*
X261943Y231837D02*
D03*
X273169Y232886D02*
D03*
X352678Y229492D02*
D03*
X354940Y217428D02*
D03*
X351589Y208212D02*
D03*
X352091Y197069D02*
D03*
X374879Y227229D02*
D03*
X368847Y232843D02*
D03*
X360469Y226308D02*
D03*
X365747Y217427D02*
D03*
X360050Y212400D02*
D03*
X370606Y186680D02*
D03*
X370439Y194471D02*
D03*
X369182Y206284D02*
D03*
X374460Y212149D02*
D03*
X378733Y217511D02*
D03*
X387949Y219690D02*
D03*
X390798Y227230D02*
D03*
X382420Y230162D02*
D03*
X372450Y241054D02*
D03*
X383006Y239630D02*
D03*
X392138Y236614D02*
D03*
X397919Y227229D02*
D03*
X400516Y236613D02*
D03*
X409739Y236525D02*
D03*
X423982Y236525D02*
D03*
X435209Y236692D02*
D03*
X446429Y214916D02*
D03*
X440145Y198661D02*
D03*
X439978Y189403D02*
D03*
X447351Y189571D02*
D03*
X464358Y219440D02*
D03*
X447769Y203522D02*
D03*
X445179Y226051D02*
D03*
X464190Y236028D02*
D03*
X460253Y209720D02*
D03*
X456064Y198410D02*
D03*
X463771Y196902D02*
D03*
X453550Y188356D02*
D03*
X458661Y187267D02*
D03*
X464107Y187602D02*
D03*
X469887Y187518D02*
D03*
X476422Y187183D02*
D03*
X471898Y197153D02*
D03*
X473406Y207625D02*
D03*
X472904Y220779D02*
D03*
Y236530D02*
D03*
X502569Y193968D02*
D03*
X488158Y204316D02*
D03*
X489918Y236236D02*
D03*
X488745Y220402D02*
D03*
X502904Y204148D02*
D03*
X502820Y220653D02*
D03*
X502736Y236069D02*
D03*
X238653Y189276D02*
D03*
X326963Y171783D02*
D03*
X327036Y158482D02*
D03*
M02*
