G04*
G04 #@! TF.GenerationSoftware,Altium Limited,Altium Designer,20.2.4 (192)*
G04*
G04 Layer_Color=32896*
%FSLAX44Y44*%
%MOMM*%
G71*
G04*
G04 #@! TF.SameCoordinates,742EB62A-7AE8-4A69-8DF3-B4F61E8DB2E3*
G04*
G04*
G04 #@! TF.FilePolarity,Positive*
G04*
G01*
G75*
%ADD10C,0.2540*%
%ADD22C,0.0900*%
G36*
X105139Y438300D02*
X107806D01*
Y438109D01*
X108378D01*
Y437919D01*
X109140D01*
Y437728D01*
X109711D01*
Y437538D01*
X110283D01*
Y437347D01*
X110473D01*
Y437157D01*
X110854D01*
Y436966D01*
X111426D01*
Y436585D01*
X111997D01*
Y436395D01*
X112188D01*
Y436204D01*
X112569D01*
Y436014D01*
X112759D01*
Y435823D01*
X112950D01*
Y435633D01*
X113140D01*
Y435442D01*
X113521D01*
Y435252D01*
X113712D01*
Y435061D01*
X113902D01*
Y434871D01*
X114093D01*
Y434680D01*
X114283D01*
Y434490D01*
X114474D01*
Y433537D01*
X114283D01*
Y433347D01*
X114093D01*
Y433156D01*
X113902D01*
Y432966D01*
X113712D01*
Y432585D01*
X112950D01*
Y432775D01*
X112759D01*
Y432966D01*
X112569D01*
Y433156D01*
X112378D01*
Y433347D01*
X112188D01*
Y433537D01*
X111997D01*
Y433728D01*
X111616D01*
Y433918D01*
X111235D01*
Y434109D01*
X111045D01*
Y434299D01*
X110854D01*
Y434490D01*
X110473D01*
Y434680D01*
X110092D01*
Y434871D01*
X109902D01*
Y435061D01*
X109330D01*
Y435252D01*
X108949D01*
Y435442D01*
X108187D01*
Y435633D01*
X107806D01*
Y435823D01*
X107235D01*
Y436014D01*
X105711D01*
Y436204D01*
X104377D01*
Y436014D01*
X102472D01*
Y435823D01*
X102091D01*
Y435633D01*
X101710D01*
Y435442D01*
X100948D01*
Y435252D01*
X100758D01*
Y435061D01*
X100186D01*
Y434871D01*
X99805D01*
Y434680D01*
X99424D01*
Y434490D01*
X99234D01*
Y434299D01*
X99043D01*
Y434109D01*
X98472D01*
Y433728D01*
X98091D01*
Y433537D01*
X97900D01*
Y433347D01*
X97710D01*
Y433156D01*
X97519D01*
Y432966D01*
X97329D01*
Y432775D01*
X96948D01*
Y432585D01*
X96376D01*
Y432775D01*
X96186D01*
Y432966D01*
X95995D01*
Y433156D01*
X95805D01*
Y433347D01*
X95614D01*
Y433728D01*
X95424D01*
Y434299D01*
X95614D01*
Y434680D01*
X95805D01*
Y434871D01*
X96186D01*
Y435252D01*
X96567D01*
Y435442D01*
X96757D01*
Y435633D01*
X97138D01*
Y435823D01*
X97329D01*
Y436014D01*
X97519D01*
Y436204D01*
X97900D01*
Y436395D01*
X98091D01*
Y436585D01*
X98472D01*
Y436776D01*
X98853D01*
Y436966D01*
X99234D01*
Y437157D01*
X99615D01*
Y437347D01*
X99805D01*
Y437538D01*
X100567D01*
Y437728D01*
X100948D01*
Y437919D01*
X101901D01*
Y438109D01*
X102282D01*
X102472Y438300D01*
X104758Y438300D01*
Y438490D01*
X105139D01*
Y438300D01*
D02*
G37*
G36*
X105501Y434363D02*
X107216D01*
Y434172D01*
X107597D01*
Y433982D01*
X108359D01*
Y433791D01*
X108549D01*
Y433601D01*
X109121D01*
Y433410D01*
X109311D01*
Y433220D01*
X109502D01*
Y433029D01*
X109883D01*
Y432839D01*
X110073D01*
Y432648D01*
X110264D01*
Y432458D01*
X110454D01*
Y432267D01*
X110835D01*
Y432077D01*
X111026D01*
Y431886D01*
X111216D01*
Y431696D01*
X111597D01*
Y430934D01*
X111407D01*
Y430743D01*
X111216D01*
Y430553D01*
X111026D01*
Y430362D01*
X110835D01*
Y429981D01*
X110645D01*
Y429791D01*
X109883D01*
Y429981D01*
X109692D01*
Y430172D01*
X109502D01*
Y430362D01*
X109311D01*
Y430743D01*
X108740D01*
Y430934D01*
X108549D01*
Y431124D01*
X108168D01*
Y431315D01*
X107978D01*
Y431505D01*
X107406D01*
Y431696D01*
X107025D01*
Y431886D01*
X106454D01*
X106263Y432077D01*
X103025D01*
Y431886D01*
X102453D01*
Y431696D01*
X102263D01*
Y431505D01*
X101501D01*
Y431315D01*
X101310D01*
Y431124D01*
X100929D01*
Y430934D01*
X100739D01*
Y430743D01*
X100358D01*
Y430553D01*
X100167D01*
Y430172D01*
X99786D01*
Y429981D01*
X99596D01*
Y429791D01*
X99024D01*
Y430172D01*
X98643D01*
Y430362D01*
X98453D01*
Y430553D01*
X98262D01*
Y430743D01*
X98072D01*
Y431696D01*
X98262D01*
Y431886D01*
X98643D01*
Y432267D01*
X99024D01*
Y432648D01*
X99405D01*
Y432839D01*
X99596D01*
Y433029D01*
X99977D01*
Y433220D01*
X100358D01*
Y433601D01*
X100929D01*
Y433791D01*
X101310D01*
Y433982D01*
X102072D01*
Y434172D01*
X102644D01*
Y434363D01*
X104549D01*
Y434553D01*
X105501D01*
Y434363D01*
D02*
G37*
G36*
X104930Y430553D02*
X105882D01*
Y430362D01*
X106835D01*
Y430172D01*
X107025D01*
Y429981D01*
X107597D01*
Y429600D01*
X108168D01*
Y429219D01*
X108359D01*
Y429029D01*
X108549D01*
Y428648D01*
X108740D01*
Y428267D01*
X108549D01*
Y427886D01*
X108359D01*
Y427695D01*
X108168D01*
Y427314D01*
X107978D01*
Y427124D01*
X107597D01*
Y426933D01*
X107406D01*
Y427124D01*
X107025D01*
Y427314D01*
X106835D01*
Y427505D01*
X106454D01*
Y427695D01*
X106073D01*
Y427886D01*
X105882D01*
Y428076D01*
X103596D01*
Y427886D01*
X103406D01*
Y427695D01*
X103215D01*
Y427505D01*
X102834D01*
Y427124D01*
X102263D01*
Y426933D01*
X102072D01*
Y427124D01*
X101691D01*
Y427505D01*
X101310D01*
Y427695D01*
X101120D01*
Y427886D01*
X100929D01*
Y428076D01*
X100739D01*
Y428648D01*
X100929D01*
Y429029D01*
X101310D01*
Y429410D01*
X101501D01*
Y429600D01*
X101691D01*
Y429791D01*
X101882D01*
Y429981D01*
X102263D01*
Y430172D01*
X102644D01*
Y430362D01*
X103406D01*
Y430553D01*
X104739D01*
Y430743D01*
X104930D01*
Y430553D01*
D02*
G37*
G36*
X105501Y426933D02*
X105882D01*
Y426552D01*
X106073D01*
Y426362D01*
X106263D01*
Y425790D01*
X106454D01*
Y425028D01*
X106263D01*
Y424457D01*
X106073D01*
Y424266D01*
X105882D01*
Y424076D01*
X105501D01*
Y423885D01*
X104930D01*
Y423695D01*
X104549D01*
Y423885D01*
X103977D01*
Y424076D01*
X103596D01*
Y424266D01*
X103406D01*
Y424647D01*
X103215D01*
Y425028D01*
X103025D01*
Y425981D01*
X103215D01*
Y426171D01*
X103406D01*
Y426552D01*
X103596D01*
Y426743D01*
X103787D01*
Y426933D01*
X104168D01*
Y427124D01*
X105501D01*
Y426933D01*
D02*
G37*
G36*
X-3274Y424457D02*
X-3084D01*
Y424266D01*
X-2893D01*
Y424076D01*
X-2703D01*
Y423695D01*
X-2512D01*
Y423314D01*
X-2703D01*
Y422933D01*
X-2893D01*
Y422742D01*
X-3084D01*
Y422552D01*
X-3274D01*
Y422361D01*
X-4036D01*
Y422552D01*
X-4417D01*
Y422742D01*
X-4608D01*
Y423123D01*
X-4798D01*
Y423885D01*
X-4608D01*
Y424266D01*
X-4417D01*
Y424457D01*
X-3846D01*
Y424647D01*
X-3274D01*
Y424457D01*
D02*
G37*
G36*
X28158Y415503D02*
X27968D01*
Y414551D01*
X27777D01*
Y414170D01*
X27587D01*
Y413979D01*
X27396D01*
Y413598D01*
X27206D01*
Y413408D01*
X27015D01*
Y413027D01*
X26825D01*
Y412836D01*
X26634D01*
Y412646D01*
X26253D01*
Y412455D01*
X26063D01*
Y412265D01*
X25682D01*
Y412074D01*
X25491D01*
Y411884D01*
X24729D01*
Y411693D01*
X24348D01*
Y411503D01*
X22253D01*
Y411693D01*
X21681D01*
Y411884D01*
X21110D01*
Y412074D01*
X20729D01*
Y412265D01*
X20538D01*
Y412455D01*
X20157D01*
Y412836D01*
X19776D01*
Y413217D01*
X19395D01*
Y413598D01*
X19205D01*
Y413979D01*
X19014D01*
Y414170D01*
X18824D01*
Y414932D01*
X18633D01*
Y415313D01*
X18443D01*
Y418170D01*
X18633D01*
Y418551D01*
X18824D01*
Y419123D01*
X19014D01*
Y419313D01*
X19205D01*
Y419694D01*
X19395D01*
Y419885D01*
X19586D01*
Y420075D01*
X19776D01*
Y420266D01*
X19967D01*
Y420456D01*
X20157D01*
Y420647D01*
X20538D01*
Y421028D01*
X21300D01*
Y421218D01*
X21491D01*
Y421409D01*
X22062D01*
Y421599D01*
X24348D01*
Y421409D01*
X24729D01*
Y421218D01*
X25301D01*
Y421028D01*
X25682D01*
Y419123D01*
X25301D01*
Y419313D01*
X25110D01*
Y419504D01*
X24348D01*
Y419694D01*
X23777D01*
Y419885D01*
X23015D01*
Y419694D01*
X22253D01*
Y419504D01*
X21681D01*
Y419313D01*
X21491D01*
Y419123D01*
X21300D01*
Y418932D01*
X21110D01*
Y418742D01*
X20919D01*
Y418551D01*
X20729D01*
Y418170D01*
X20538D01*
Y417980D01*
X20348D01*
Y416646D01*
X20157D01*
Y416456D01*
X20348D01*
Y415313D01*
X20538D01*
Y414741D01*
X20729D01*
Y414360D01*
X21110D01*
Y414170D01*
X21300D01*
Y413979D01*
X21491D01*
Y413789D01*
X21681D01*
Y413598D01*
X21872D01*
Y413408D01*
X23015D01*
Y413217D01*
X23777D01*
Y413408D01*
X24539D01*
Y413598D01*
X24920D01*
Y413789D01*
X25110D01*
Y413979D01*
X25491D01*
Y414360D01*
X25682D01*
Y414551D01*
X25872D01*
Y415122D01*
X26063D01*
Y415313D01*
X26253D01*
Y415884D01*
X26444D01*
Y425790D01*
X28158D01*
Y415503D01*
D02*
G37*
G36*
X120932Y414551D02*
X120741D01*
Y413789D01*
X120551D01*
Y413217D01*
X120360D01*
Y413027D01*
X120170D01*
Y412646D01*
X119979D01*
Y412455D01*
X119789D01*
Y412265D01*
X119598D01*
Y412074D01*
X119217D01*
Y411884D01*
X118836D01*
Y411693D01*
X118265D01*
Y411503D01*
X116360D01*
Y411693D01*
X115979D01*
Y411884D01*
X115407D01*
Y412074D01*
X115217D01*
Y412265D01*
X115026D01*
Y412455D01*
X114836D01*
Y412646D01*
X114645D01*
Y412836D01*
X114455D01*
Y412646D01*
X114264D01*
Y412455D01*
X114074D01*
Y412265D01*
X113883D01*
Y412074D01*
X113693D01*
Y411884D01*
X113121D01*
Y411693D01*
X112740D01*
Y411503D01*
X110835D01*
Y411693D01*
X110454D01*
Y411884D01*
X109883D01*
Y412074D01*
X109692D01*
Y412265D01*
X109502D01*
Y412455D01*
X109311D01*
Y412646D01*
X109121D01*
Y412836D01*
X108930D01*
Y413027D01*
X108740D01*
Y413408D01*
X108549D01*
Y413789D01*
X108359D01*
Y421409D01*
X110073D01*
Y415503D01*
X110264D01*
Y413979D01*
X110645D01*
Y413789D01*
X110835D01*
Y413408D01*
X111407D01*
Y413217D01*
X112359D01*
Y413408D01*
X112931D01*
Y413598D01*
X113121D01*
Y413789D01*
X113312D01*
Y414170D01*
X113502D01*
Y414551D01*
X113693D01*
Y421409D01*
X115598D01*
Y415122D01*
X114169Y417123D01*
X115598Y414741D01*
Y414360D01*
X115788D01*
Y413979D01*
X115979D01*
Y413789D01*
X116169D01*
Y413598D01*
X116360D01*
Y413408D01*
X116931D01*
Y413217D01*
X117693D01*
Y413408D01*
X118265D01*
Y413598D01*
X118455D01*
Y413789D01*
X118646D01*
Y414170D01*
X118836D01*
Y414360D01*
X119027D01*
Y421409D01*
X120932D01*
Y414551D01*
D02*
G37*
G36*
X91785Y421409D02*
X92357D01*
Y421218D01*
X92738D01*
Y421028D01*
X93309D01*
Y420837D01*
X93500D01*
Y420647D01*
X93881D01*
Y420456D01*
X94071D01*
Y420266D01*
X94262D01*
Y420075D01*
X94452D01*
Y419885D01*
X94643D01*
Y419694D01*
X94833D01*
Y419504D01*
X95024D01*
Y419313D01*
X95214D01*
Y418742D01*
X95405D01*
Y418361D01*
X95595D01*
Y416646D01*
X95786D01*
Y416075D01*
X95595D01*
Y414741D01*
X95405D01*
Y414360D01*
X95214D01*
Y413789D01*
X94833D01*
Y413217D01*
X94452D01*
Y413027D01*
X94262D01*
Y412836D01*
X94071D01*
Y412646D01*
X93881D01*
Y412455D01*
X93500D01*
Y412265D01*
X93309D01*
Y412074D01*
X93119D01*
Y411884D01*
X92547D01*
Y411693D01*
X92166D01*
Y411503D01*
X89690D01*
Y411693D01*
X89118D01*
Y411884D01*
X88356D01*
Y412074D01*
X88166D01*
Y412265D01*
X87975D01*
Y412455D01*
X87594D01*
Y412646D01*
X87404D01*
Y412836D01*
X87213D01*
Y413027D01*
X87023D01*
Y413217D01*
X86832D01*
Y413408D01*
X86642D01*
Y413598D01*
X86451D01*
Y414170D01*
X86261D01*
Y414360D01*
X86070D01*
Y415122D01*
X85880D01*
Y415884D01*
X85689D01*
Y416075D01*
X87404D01*
Y416265D01*
X87594D01*
Y415694D01*
X87785D01*
Y415313D01*
X87975D01*
Y414741D01*
X88166D01*
Y414360D01*
X88547D01*
Y413979D01*
X88928D01*
Y413598D01*
X89309D01*
Y413408D01*
X90261D01*
Y413217D01*
X91214D01*
Y413408D01*
X92166D01*
Y413598D01*
X92357D01*
Y413789D01*
X92547D01*
Y413979D01*
X92928D01*
Y414360D01*
X93309D01*
Y414741D01*
X93500D01*
Y415122D01*
X93690D01*
Y416075D01*
X93881D01*
Y417218D01*
X93690D01*
Y418170D01*
X93500D01*
Y418361D01*
X93309D01*
Y418742D01*
X93119D01*
Y418932D01*
X92928D01*
Y419123D01*
X92738D01*
Y419313D01*
X92357D01*
Y419504D01*
X91976D01*
Y419694D01*
X91214D01*
Y419885D01*
X90452D01*
Y419694D01*
X89880D01*
Y419504D01*
X89309D01*
Y419313D01*
X88928D01*
Y419123D01*
X88737D01*
Y418742D01*
X89309D01*
Y418551D01*
X89499D01*
Y418361D01*
X89880D01*
Y418170D01*
X90261D01*
Y417980D01*
X90642D01*
Y417789D01*
X90833D01*
Y417599D01*
X91214D01*
Y417408D01*
X91595D01*
Y417218D01*
X91976D01*
Y417027D01*
X92357D01*
Y416837D01*
X92547D01*
Y416646D01*
X93119D01*
Y416456D01*
X93309D01*
Y415884D01*
X93119D01*
Y415694D01*
X92928D01*
Y415122D01*
X92738D01*
Y414932D01*
X92357D01*
Y415122D01*
X91976D01*
Y415313D01*
X91595D01*
Y415503D01*
X91214D01*
Y415694D01*
X91023D01*
Y415884D01*
X90452D01*
Y416075D01*
X90261D01*
Y416265D01*
X90071D01*
Y416456D01*
X89499D01*
Y416646D01*
X89118D01*
Y416837D01*
X88737D01*
Y417027D01*
X88547D01*
Y417218D01*
X87975D01*
Y417408D01*
X87785D01*
Y417599D01*
X87594D01*
Y417789D01*
X87023D01*
Y417980D01*
X86832D01*
Y418170D01*
X86451D01*
Y418361D01*
X86070D01*
Y418742D01*
X86451D01*
Y419313D01*
X86642D01*
Y419504D01*
X86832D01*
Y419694D01*
X87023D01*
Y420075D01*
X87404D01*
Y420456D01*
X87594D01*
Y420647D01*
X87975D01*
Y420837D01*
X88356D01*
Y421028D01*
X88737D01*
Y421218D01*
X89118D01*
Y421409D01*
X89690D01*
Y421599D01*
X91785D01*
Y421409D01*
D02*
G37*
G36*
X76355D02*
X76926D01*
Y421218D01*
X77307D01*
Y421028D01*
X77879D01*
Y420647D01*
X78260D01*
Y420456D01*
X78450D01*
Y420266D01*
X78641D01*
Y420075D01*
X79022D01*
Y419885D01*
X79212D01*
Y419504D01*
X79403D01*
Y419313D01*
X79593D01*
Y418742D01*
X79784D01*
Y418551D01*
X79974D01*
Y417599D01*
X80165D01*
Y415503D01*
X79974D01*
Y414551D01*
X79784D01*
Y414170D01*
X79593D01*
Y413789D01*
X79403D01*
Y413598D01*
X79212D01*
Y413217D01*
X79022D01*
Y413027D01*
X78831D01*
Y412836D01*
X78641D01*
Y412646D01*
X78260D01*
Y412455D01*
X78069D01*
Y412265D01*
X77879D01*
Y412074D01*
X77498D01*
Y411884D01*
X76926D01*
Y411693D01*
X76545D01*
Y411503D01*
X74069D01*
Y411693D01*
X73688D01*
Y411884D01*
X72926D01*
Y412074D01*
X72735D01*
Y412265D01*
X72354D01*
Y412455D01*
X72164D01*
Y412646D01*
X71783D01*
Y412836D01*
X71592D01*
Y413027D01*
X71402D01*
Y413217D01*
X71211D01*
Y413598D01*
X71021D01*
Y413979D01*
X70830D01*
Y414170D01*
X70640D01*
Y414551D01*
X70449D01*
Y415503D01*
X70259D01*
Y416075D01*
X71783D01*
Y416265D01*
X71973D01*
Y416075D01*
X72164D01*
Y415503D01*
X72354D01*
Y415122D01*
X72545D01*
Y414551D01*
X72735D01*
Y414360D01*
X72926D01*
Y413979D01*
X73307D01*
Y413789D01*
X73497D01*
Y413598D01*
X73878D01*
Y413408D01*
X74640D01*
Y413217D01*
X75783D01*
Y413408D01*
X76736D01*
Y413789D01*
X77117D01*
Y413979D01*
X77307D01*
Y414170D01*
X77498D01*
Y414360D01*
X77688D01*
Y414741D01*
X77879D01*
Y414932D01*
X78069D01*
Y415694D01*
X78260D01*
Y417599D01*
X78069D01*
Y418170D01*
X77879D01*
Y418551D01*
X77688D01*
Y418742D01*
X77498D01*
Y418932D01*
X77307D01*
Y419123D01*
X77117D01*
Y419313D01*
X76926D01*
Y419504D01*
X76355D01*
Y419694D01*
X75783D01*
Y419885D01*
X74831D01*
Y419694D01*
X74259D01*
Y419504D01*
X73688D01*
Y419313D01*
X73497D01*
Y419123D01*
X73116D01*
Y418932D01*
X73307D01*
Y418742D01*
X73688D01*
Y418551D01*
X73878D01*
Y418361D01*
X74450D01*
Y418170D01*
X74640D01*
Y417980D01*
X75212D01*
Y417789D01*
X75402D01*
Y417599D01*
X75593D01*
Y417408D01*
X75974D01*
Y417218D01*
X76355D01*
Y417027D01*
X76926D01*
Y416837D01*
X77117D01*
Y416646D01*
X77498D01*
Y416456D01*
X77879D01*
Y416075D01*
X77688D01*
Y415884D01*
X77498D01*
Y415503D01*
X77307D01*
Y415122D01*
X77117D01*
Y414932D01*
X76736D01*
Y415122D01*
X76355D01*
Y415313D01*
X76164D01*
Y415503D01*
X75593D01*
Y415694D01*
X75402D01*
Y415884D01*
X75021D01*
Y416075D01*
X74640D01*
Y416265D01*
X74450D01*
Y416456D01*
X74069D01*
Y416646D01*
X73688D01*
Y416837D01*
X73116D01*
Y417218D01*
X72545D01*
Y417408D01*
X72354D01*
Y417599D01*
X71973D01*
Y417789D01*
X71592D01*
Y417980D01*
X71402D01*
Y418170D01*
X70830D01*
Y418361D01*
X70640D01*
Y418742D01*
X70830D01*
Y418932D01*
X71021D01*
Y419313D01*
X71211D01*
Y419694D01*
X71402D01*
Y419885D01*
X71592D01*
Y420075D01*
X71783D01*
Y420266D01*
X71973D01*
Y420456D01*
X72164D01*
Y420647D01*
X72545D01*
Y420837D01*
X72735D01*
Y421028D01*
X73116D01*
Y421218D01*
X73688D01*
Y421409D01*
X74069D01*
Y421599D01*
X76355D01*
Y421409D01*
D02*
G37*
G36*
X17109Y415503D02*
X16919D01*
Y414551D01*
X16728D01*
Y413789D01*
X16538D01*
Y413408D01*
X16347D01*
Y413027D01*
X16157D01*
Y412836D01*
X15966D01*
Y412646D01*
X15776D01*
Y412455D01*
X15395D01*
Y412265D01*
X15204D01*
Y412074D01*
X15014D01*
Y411884D01*
X14252D01*
Y411693D01*
X13871D01*
Y411503D01*
X11775D01*
Y411693D01*
X11394D01*
Y411884D01*
X10823D01*
Y412074D01*
X10632D01*
Y412265D01*
X10442D01*
Y412455D01*
X10061D01*
Y412646D01*
X9870D01*
Y412836D01*
X9680D01*
Y413217D01*
X9489D01*
Y413598D01*
X9299D01*
Y413789D01*
X9108D01*
Y414551D01*
X8918D01*
Y421409D01*
X10632D01*
Y414932D01*
X10823D01*
Y414741D01*
X11013D01*
Y414360D01*
X11204D01*
Y413979D01*
X11394D01*
Y413789D01*
X11585D01*
Y413598D01*
X11966D01*
Y413408D01*
X12537D01*
Y413217D01*
X13299D01*
Y413408D01*
X13871D01*
Y413598D01*
X14252D01*
Y413789D01*
X14442D01*
Y413979D01*
X14633D01*
Y414170D01*
X14823D01*
Y414551D01*
X15014D01*
Y414741D01*
X15204D01*
Y421409D01*
X17109D01*
Y415503D01*
D02*
G37*
G36*
X-20800Y421409D02*
X-20419D01*
Y421218D01*
X-20038D01*
Y421028D01*
X-19467D01*
Y420837D01*
X-19276D01*
Y420647D01*
X-18895D01*
Y420456D01*
X-18705D01*
Y420266D01*
X-18514D01*
Y420075D01*
X-18324D01*
Y419885D01*
X-18133D01*
Y419694D01*
X-17943D01*
Y419504D01*
X-17752D01*
Y419313D01*
X-17562D01*
Y418742D01*
X-17371D01*
Y418361D01*
X-17181D01*
Y417980D01*
X-16990D01*
Y415122D01*
X-17181D01*
Y414741D01*
X-17371D01*
Y414360D01*
X-17562D01*
Y413789D01*
X-17943D01*
Y413217D01*
X-18324D01*
Y412836D01*
X-18705D01*
Y412646D01*
X-18895D01*
Y412455D01*
X-19276D01*
Y412074D01*
X-19657D01*
Y411884D01*
X-20229D01*
Y411693D01*
X-20610D01*
Y411503D01*
X-23086D01*
Y411693D01*
X-23658D01*
Y411884D01*
X-24420D01*
Y412074D01*
X-24610D01*
Y412265D01*
X-24801D01*
Y412455D01*
X-25182D01*
Y412646D01*
X-25372D01*
Y412836D01*
X-25563D01*
Y413027D01*
X-25753D01*
Y413217D01*
X-25944D01*
Y413408D01*
X-26134D01*
Y413789D01*
X-26325D01*
Y414170D01*
X-26515D01*
Y414360D01*
X-26706D01*
Y415122D01*
X-26896D01*
Y415884D01*
X-27087D01*
Y416075D01*
X-25372D01*
Y416265D01*
X-25182D01*
Y415694D01*
X-24991D01*
Y415313D01*
X-24801D01*
Y414932D01*
X-24610D01*
Y414360D01*
X-24229D01*
Y413979D01*
X-23848D01*
Y413598D01*
X-23467D01*
Y413408D01*
X-22515D01*
Y413217D01*
X-21562D01*
Y413408D01*
X-20610D01*
Y413598D01*
X-20419D01*
Y413789D01*
X-20229D01*
Y413979D01*
X-19848D01*
Y414170D01*
X-19657D01*
Y414360D01*
X-19467D01*
Y414741D01*
X-19276D01*
Y415122D01*
X-19086D01*
Y415884D01*
X-18895D01*
Y417218D01*
X-19086D01*
Y418170D01*
X-19276D01*
Y418361D01*
X-19467D01*
Y418742D01*
X-19657D01*
Y418932D01*
X-19848D01*
Y419123D01*
X-20038D01*
Y419313D01*
X-20419D01*
Y419504D01*
X-20800D01*
Y419694D01*
X-21562D01*
Y419885D01*
X-22324D01*
Y419694D01*
X-22896D01*
Y419504D01*
X-23467D01*
Y419313D01*
X-23848D01*
Y419123D01*
X-24039D01*
Y418742D01*
X-23467D01*
Y418551D01*
X-23277D01*
Y418361D01*
X-22896D01*
Y418170D01*
X-22515D01*
Y417980D01*
X-21943D01*
Y417789D01*
X-21753D01*
Y417599D01*
X-21562D01*
Y417408D01*
X-21181D01*
Y417218D01*
X-20800D01*
Y417027D01*
X-20419D01*
Y416837D01*
X-20229D01*
Y416646D01*
X-19657D01*
Y416456D01*
X-19276D01*
Y416265D01*
X-19467D01*
Y415884D01*
X-19657D01*
Y415503D01*
X-19848D01*
Y415122D01*
X-20038D01*
Y414932D01*
X-20419D01*
Y415122D01*
X-20800D01*
Y415313D01*
X-20991D01*
Y415503D01*
X-21562D01*
Y415694D01*
X-21753D01*
Y415884D01*
X-22134D01*
Y416075D01*
X-22515D01*
Y416265D01*
X-22705D01*
Y416456D01*
X-23277D01*
Y416646D01*
X-23467D01*
Y416837D01*
X-24039D01*
Y417027D01*
X-24229D01*
Y417218D01*
X-24610D01*
Y417408D01*
X-24801D01*
Y417599D01*
X-25182D01*
Y417789D01*
X-25753D01*
Y418170D01*
X-26325D01*
Y418361D01*
X-26706D01*
Y418742D01*
X-26325D01*
Y419123D01*
X-26134D01*
Y419504D01*
X-25944D01*
Y419694D01*
X-25753D01*
Y420075D01*
X-25372D01*
Y420456D01*
X-25182D01*
Y420647D01*
X-24801D01*
Y420837D01*
X-24420D01*
Y421028D01*
X-24039D01*
Y421218D01*
X-23658D01*
Y421409D01*
X-23086D01*
Y421599D01*
X-20800D01*
Y421409D01*
D02*
G37*
G36*
X105501Y411693D02*
X103787D01*
Y421409D01*
X105501D01*
Y411693D01*
D02*
G37*
G36*
X97691Y421409D02*
X98072D01*
Y421218D01*
X98262D01*
Y421028D01*
X98834D01*
Y420647D01*
X99215D01*
Y420266D01*
X99405D01*
Y421409D01*
X100929D01*
Y411693D01*
X99215D01*
Y417408D01*
X99024D01*
Y418361D01*
X98834D01*
Y418551D01*
X98643D01*
Y419123D01*
X98262D01*
Y419313D01*
X98072D01*
Y419504D01*
X97691D01*
Y419694D01*
X97119D01*
Y419885D01*
X96357D01*
Y421599D01*
X97691D01*
Y421409D01*
D02*
G37*
G36*
X83975Y411693D02*
X82260D01*
Y425790D01*
X83975D01*
Y411693D01*
D02*
G37*
G36*
X66258Y421218D02*
X67211D01*
Y421028D01*
X67973D01*
Y420837D01*
X68163D01*
Y420647D01*
X68544D01*
Y420456D01*
X68735D01*
Y420266D01*
X68925D01*
Y419694D01*
X69116D01*
Y417980D01*
X68925D01*
Y417408D01*
X68735D01*
Y417218D01*
X68544D01*
Y417027D01*
X68354D01*
Y416837D01*
X67973D01*
Y416646D01*
X67782D01*
Y416456D01*
X67211D01*
Y416265D01*
X67020D01*
Y416075D01*
X66639D01*
Y415884D01*
X65877D01*
Y415694D01*
X65306D01*
Y415503D01*
X64544D01*
Y415313D01*
X64163D01*
Y415122D01*
X63591D01*
Y414932D01*
X63401D01*
Y414741D01*
X63210D01*
Y413789D01*
X63401D01*
Y413598D01*
X63591D01*
Y413408D01*
X69116D01*
Y411693D01*
X63591D01*
Y411884D01*
X62639D01*
Y412074D01*
X62448D01*
Y412265D01*
X62067D01*
Y412455D01*
X61877D01*
Y412646D01*
X61686D01*
Y412836D01*
X61496D01*
Y413408D01*
X61305D01*
Y414170D01*
X61115D01*
Y414360D01*
X61305D01*
Y415313D01*
X61496D01*
Y415694D01*
X61686D01*
Y415884D01*
X61877D01*
Y416075D01*
X62067D01*
Y416265D01*
X62258D01*
Y416456D01*
X62448D01*
Y416646D01*
X63020D01*
Y416837D01*
X63210D01*
Y417027D01*
X63782D01*
Y417218D01*
X64353D01*
Y417408D01*
X65306D01*
Y417599D01*
X65687D01*
Y417789D01*
X66068D01*
Y417980D01*
X66830D01*
Y418170D01*
X67020D01*
Y418361D01*
X67211D01*
Y418742D01*
X67401D01*
Y418932D01*
X67211D01*
Y419313D01*
X67020D01*
Y419504D01*
X61686D01*
Y421409D01*
X66258D01*
Y421218D01*
D02*
G37*
G36*
X57495D02*
X58448D01*
Y421028D01*
X59019D01*
Y420837D01*
X59400D01*
Y420647D01*
X59781D01*
Y420456D01*
X59972D01*
Y420075D01*
X60162D01*
Y419694D01*
X60353D01*
Y417980D01*
X60162D01*
Y417789D01*
X59972D01*
Y417218D01*
X59781D01*
Y417027D01*
X59591D01*
Y416837D01*
X59019D01*
Y416456D01*
X58448D01*
Y416265D01*
X58067D01*
Y416075D01*
X57686D01*
Y415884D01*
X56924D01*
Y415694D01*
X56543D01*
Y415503D01*
X55781D01*
Y415313D01*
X55400D01*
Y415122D01*
X54638D01*
Y414741D01*
X54447D01*
Y414551D01*
X54257D01*
Y413979D01*
X54447D01*
Y413789D01*
X54638D01*
Y413408D01*
X60353D01*
Y411693D01*
X54828D01*
Y411884D01*
X53876D01*
Y412074D01*
X53495D01*
Y412265D01*
X53304D01*
Y412455D01*
X53114D01*
Y412646D01*
X52923D01*
Y412836D01*
X52733D01*
Y413408D01*
X52542D01*
Y414170D01*
X52352D01*
Y414741D01*
X52542D01*
Y415313D01*
X52733D01*
Y415694D01*
X52923D01*
Y415884D01*
X53114D01*
Y416075D01*
X53304D01*
Y416265D01*
X53495D01*
Y416646D01*
X54066D01*
Y416837D01*
X54447D01*
Y417027D01*
X55019D01*
Y417218D01*
X55400D01*
Y417408D01*
X56543D01*
Y417599D01*
X56924D01*
Y417789D01*
X57305D01*
Y417980D01*
X57876D01*
Y418170D01*
X58067D01*
Y418361D01*
X58448D01*
Y419123D01*
X58257D01*
Y419504D01*
X52923D01*
Y421409D01*
X57495D01*
Y421218D01*
D02*
G37*
G36*
X47208Y425600D02*
X48161D01*
Y425409D01*
X48351D01*
Y425219D01*
X48732D01*
Y425028D01*
X49113D01*
Y424838D01*
X49304D01*
Y424457D01*
X49494D01*
Y424266D01*
X49685D01*
Y423695D01*
X49875D01*
Y423314D01*
X50066D01*
Y411693D01*
X48161D01*
Y419504D01*
X45494D01*
Y421409D01*
X48161D01*
Y423314D01*
X47970D01*
Y423504D01*
X47780D01*
Y423695D01*
X47399D01*
Y423885D01*
X47208D01*
Y424076D01*
X45113D01*
Y425790D01*
X47208D01*
Y425600D01*
D02*
G37*
G36*
X30254Y421409D02*
X30635D01*
Y421218D01*
X31016D01*
Y421028D01*
X31397D01*
Y420647D01*
X31778D01*
Y420456D01*
X31968D01*
Y421409D01*
X33683D01*
Y411693D01*
X31778D01*
Y417980D01*
X31587D01*
Y418170D01*
X31397D01*
Y418551D01*
X31206D01*
Y419123D01*
X30825D01*
Y419504D01*
X30254D01*
Y419694D01*
X29682D01*
Y419885D01*
X28920D01*
Y421599D01*
X30254D01*
Y421409D01*
D02*
G37*
G36*
X4536Y421218D02*
X5298D01*
Y421028D01*
X6060D01*
Y420837D01*
X6441D01*
Y420647D01*
X6632D01*
Y420456D01*
X6822D01*
Y420266D01*
X7013D01*
Y419885D01*
X7203D01*
Y419504D01*
X7394D01*
Y418170D01*
X7203D01*
Y417789D01*
X7013D01*
Y417218D01*
X6632D01*
Y417027D01*
X6441D01*
Y416837D01*
X6060D01*
Y416456D01*
X5489D01*
Y416265D01*
X5108D01*
Y416075D01*
X4727D01*
Y415884D01*
X3965D01*
Y415694D01*
X3584D01*
Y415503D01*
X2822D01*
Y415313D01*
X2441D01*
Y415122D01*
X1679D01*
Y414741D01*
X1488D01*
Y414551D01*
X1298D01*
Y413979D01*
X1488D01*
Y413598D01*
X1679D01*
Y413408D01*
X7394D01*
Y411693D01*
X1869D01*
Y411884D01*
X917D01*
Y412074D01*
X536D01*
Y412265D01*
X345D01*
Y412455D01*
X155D01*
Y412646D01*
X-36D01*
Y412836D01*
X-226D01*
Y413027D01*
X-417D01*
Y413789D01*
X-607D01*
Y414932D01*
X-417D01*
Y415694D01*
X-36D01*
Y415884D01*
X155D01*
Y416075D01*
X345D01*
Y416265D01*
X536D01*
Y416646D01*
X1107D01*
Y416837D01*
X1488D01*
Y417027D01*
X2060D01*
Y417218D01*
X2441D01*
Y417408D01*
X3584D01*
Y417599D01*
X3965D01*
Y417789D01*
X4346D01*
Y417980D01*
X4917D01*
Y418170D01*
X5108D01*
Y418361D01*
X5489D01*
Y419123D01*
X5298D01*
Y419313D01*
X5108D01*
Y419504D01*
X-36D01*
Y421409D01*
X4536D01*
Y421218D01*
D02*
G37*
G36*
X-2893D02*
X-2703D01*
Y411884D01*
X-2893D01*
Y411693D01*
X-4417D01*
Y411884D01*
X-4608D01*
Y421218D01*
X-4417D01*
Y421409D01*
X-2893D01*
Y421218D01*
D02*
G37*
G36*
X-10323Y421409D02*
X-9942D01*
Y421218D01*
X-9561D01*
Y421028D01*
X-8989D01*
Y420647D01*
X-8608D01*
Y420456D01*
X-8418D01*
Y420266D01*
X-8227D01*
Y420075D01*
X-8037D01*
Y419694D01*
X-7656D01*
Y419123D01*
X-7465D01*
Y418742D01*
X-7275D01*
Y411693D01*
X-9180D01*
Y418551D01*
X-9370D01*
Y418742D01*
X-9561D01*
Y418932D01*
X-9751D01*
Y419313D01*
X-10132D01*
Y419504D01*
X-10513D01*
Y419694D01*
X-10894D01*
Y419885D01*
X-11847D01*
Y419694D01*
X-12228D01*
Y419504D01*
X-12609D01*
Y419313D01*
X-12990D01*
Y418932D01*
X-13180D01*
Y418742D01*
X-13371D01*
Y418551D01*
X-13561D01*
Y417789D01*
X-13752D01*
Y411693D01*
X-15466D01*
Y418742D01*
X-15276D01*
Y419123D01*
X-15085D01*
Y419694D01*
X-14895D01*
Y419885D01*
X-14704D01*
Y420075D01*
X-14514D01*
Y420266D01*
X-14323D01*
Y420456D01*
X-14133D01*
Y420647D01*
X-13942D01*
Y420837D01*
X-13752D01*
Y421028D01*
X-13180D01*
Y421218D01*
X-12799D01*
Y421409D01*
X-12418D01*
Y421599D01*
X-10323D01*
Y421409D01*
D02*
G37*
G36*
X-30897Y421218D02*
X-29944D01*
Y421028D01*
X-29182D01*
Y420837D01*
X-28992D01*
Y420647D01*
X-28611D01*
Y420266D01*
X-28420D01*
Y420075D01*
X-28230D01*
Y419504D01*
X-28039D01*
Y418170D01*
X-28230D01*
Y417599D01*
X-28420D01*
Y417218D01*
X-28611D01*
Y417027D01*
X-28801D01*
Y416837D01*
X-29182D01*
Y416646D01*
X-29563D01*
Y416456D01*
X-29944D01*
Y416265D01*
X-30325D01*
Y416075D01*
X-30516D01*
Y415884D01*
X-31278D01*
Y415694D01*
X-31849D01*
Y415503D01*
X-32611D01*
Y415313D01*
X-32992D01*
Y415122D01*
X-33564D01*
Y414932D01*
X-33945D01*
Y414360D01*
X-34135D01*
Y414170D01*
X-33945D01*
Y413598D01*
X-33564D01*
Y413408D01*
X-28039D01*
Y411693D01*
X-33564D01*
Y411884D01*
X-34707D01*
Y412265D01*
X-35088D01*
Y412455D01*
X-35278D01*
Y412646D01*
X-35469D01*
Y413027D01*
X-35659D01*
Y413217D01*
X-35850D01*
Y413789D01*
X-36040D01*
Y414932D01*
X-35850D01*
Y415313D01*
X-35659D01*
Y415694D01*
X-35469D01*
Y416075D01*
X-35088D01*
Y416265D01*
X-34897D01*
Y416456D01*
X-34707D01*
Y416646D01*
X-34326D01*
Y416837D01*
X-34135D01*
Y417027D01*
X-33373D01*
Y417218D01*
X-32802D01*
Y417408D01*
X-31849D01*
Y417599D01*
X-31468D01*
Y417789D01*
X-31087D01*
Y417980D01*
X-30516D01*
Y418170D01*
X-30135D01*
Y418551D01*
X-29944D01*
Y419123D01*
X-30135D01*
Y419504D01*
X-35469D01*
Y421409D01*
X-30897D01*
Y421218D01*
D02*
G37*
G36*
X-39850D02*
X-38898D01*
Y421028D01*
X-38136D01*
Y420837D01*
X-37945D01*
Y420647D01*
X-37564D01*
Y420456D01*
X-37374D01*
Y420266D01*
X-37183D01*
Y419885D01*
X-36993D01*
Y419313D01*
X-36802D01*
Y418361D01*
X-36993D01*
Y417789D01*
X-37183D01*
Y417218D01*
X-37564D01*
Y416837D01*
X-37945D01*
Y416646D01*
X-38326D01*
Y416456D01*
X-38898D01*
Y416265D01*
X-39088D01*
Y416075D01*
X-39279D01*
Y415884D01*
X-40231D01*
Y415694D01*
X-40612D01*
Y415503D01*
X-41374D01*
Y415313D01*
X-41755D01*
Y415122D01*
X-42517D01*
Y414932D01*
X-42708D01*
Y414741D01*
X-42898D01*
Y413789D01*
X-42708D01*
Y413598D01*
X-42517D01*
Y413408D01*
X-36802D01*
Y411693D01*
X-42327D01*
Y411884D01*
X-43470D01*
Y412074D01*
X-43660D01*
Y412265D01*
X-43851D01*
Y412455D01*
X-44041D01*
Y412646D01*
X-44232D01*
Y412836D01*
X-44422D01*
Y413217D01*
X-44613D01*
Y413598D01*
X-44803D01*
Y415122D01*
X-44613D01*
Y415313D01*
X-44422D01*
Y415884D01*
X-44232D01*
Y416075D01*
X-44041D01*
Y416265D01*
X-43660D01*
Y416456D01*
X-43470D01*
Y416646D01*
X-43089D01*
Y416837D01*
X-42898D01*
Y417027D01*
X-42136D01*
Y417218D01*
X-41755D01*
Y417408D01*
X-40803D01*
Y417599D01*
X-40422D01*
Y417789D01*
X-39850D01*
Y417980D01*
X-39279D01*
Y418170D01*
X-39088D01*
Y418361D01*
X-38898D01*
Y418551D01*
X-38707D01*
Y419123D01*
X-38898D01*
Y419313D01*
X-39088D01*
Y419504D01*
X-44232D01*
Y419694D01*
X-44422D01*
Y421218D01*
X-44232D01*
Y421409D01*
X-39850D01*
Y421218D01*
D02*
G37*
G36*
X41303Y421409D02*
X41684D01*
Y421218D01*
X42065D01*
Y421028D01*
X42636D01*
Y420647D01*
X43017D01*
Y420456D01*
X43398D01*
Y420266D01*
X43589D01*
Y420075D01*
X43779D01*
Y419885D01*
X43970D01*
Y419504D01*
X44160D01*
Y419313D01*
X44351D01*
Y418932D01*
X44541D01*
Y418742D01*
X44732D01*
Y418361D01*
X44922D01*
Y417408D01*
X45113D01*
Y415503D01*
X44922D01*
Y414551D01*
X44732D01*
Y414360D01*
X44541D01*
Y414170D01*
X44351D01*
Y413789D01*
X44160D01*
Y413598D01*
X43970D01*
Y413217D01*
X43779D01*
Y413027D01*
X43589D01*
Y412836D01*
X43398D01*
Y412646D01*
X43017D01*
Y412455D01*
X42827D01*
Y412265D01*
X42636D01*
Y412074D01*
X42255D01*
Y411884D01*
X41684D01*
Y411693D01*
X41112D01*
Y411503D01*
X38826D01*
Y411693D01*
X38445D01*
Y411884D01*
X37683D01*
Y412074D01*
X37493D01*
Y412265D01*
X37302D01*
Y412455D01*
X36921D01*
Y412646D01*
X36731D01*
Y412836D01*
X36540D01*
Y413027D01*
X36350D01*
Y413217D01*
X36159D01*
Y413598D01*
X35969D01*
Y413789D01*
X35778D01*
Y414170D01*
X35588D01*
Y414551D01*
X35397D01*
Y415503D01*
X35207D01*
Y416456D01*
X35016D01*
Y417027D01*
X35207D01*
Y417980D01*
X35397D01*
Y418742D01*
X35588D01*
Y418932D01*
X35778D01*
Y419313D01*
X35969D01*
Y419694D01*
X36159D01*
Y419885D01*
X36350D01*
Y420075D01*
X36731D01*
Y420456D01*
X37112D01*
Y420647D01*
X37493D01*
Y421028D01*
X38445D01*
Y421218D01*
X38636D01*
Y421409D01*
X39398D01*
Y421599D01*
X41303D01*
Y421409D01*
D02*
G37*
G36*
X82451Y404739D02*
X81308D01*
Y406072D01*
X82451D01*
Y404739D01*
D02*
G37*
G36*
X72545Y397119D02*
X71592D01*
Y397881D01*
X71211D01*
Y397500D01*
X71021D01*
Y397309D01*
X70640D01*
Y397119D01*
X70449D01*
Y396928D01*
X68735D01*
Y397119D01*
X68354D01*
Y397309D01*
X67973D01*
Y397500D01*
X67782D01*
Y397690D01*
X67592D01*
Y397881D01*
X67401D01*
Y398262D01*
X67020D01*
Y399214D01*
X66830D01*
Y400167D01*
X66639D01*
Y400548D01*
X66830D01*
Y401500D01*
X67020D01*
Y402453D01*
X67401D01*
Y402834D01*
X67592D01*
Y403024D01*
X67782D01*
Y403215D01*
X67973D01*
Y403405D01*
X68354D01*
Y403596D01*
X68735D01*
Y403786D01*
X70449D01*
Y403596D01*
X70640D01*
Y403405D01*
X71021D01*
Y403215D01*
X71211D01*
Y402834D01*
X71592D01*
Y406072D01*
X72545D01*
Y397119D01*
D02*
G37*
G36*
X60924Y403596D02*
X61305D01*
Y403405D01*
X61877D01*
Y403024D01*
X62258D01*
Y402643D01*
X62448D01*
Y402453D01*
X62829D01*
Y401691D01*
X63020D01*
Y401119D01*
X63210D01*
Y399595D01*
X63020D01*
Y399024D01*
X62829D01*
Y398262D01*
X62448D01*
Y398071D01*
X62258D01*
Y397690D01*
X61877D01*
Y397309D01*
X61496D01*
Y397119D01*
X60924D01*
Y396928D01*
X58829D01*
Y397119D01*
X58257D01*
Y397309D01*
X58067D01*
Y398071D01*
X57876D01*
Y397881D01*
X57686D01*
Y397690D01*
X57495D01*
Y397500D01*
X57305D01*
Y397309D01*
X56924D01*
Y397119D01*
X56543D01*
Y396928D01*
X54638D01*
Y397119D01*
X54066D01*
Y397309D01*
X53685D01*
Y397690D01*
X53495D01*
Y397881D01*
X53304D01*
Y398071D01*
X53114D01*
Y398262D01*
X52923D01*
Y398452D01*
X52733D01*
Y399405D01*
X52542D01*
Y401310D01*
X52733D01*
Y402262D01*
X52923D01*
Y402453D01*
X53114D01*
Y402643D01*
X53304D01*
Y402834D01*
X53495D01*
Y403024D01*
X53685D01*
Y403405D01*
X54066D01*
Y403596D01*
X54638D01*
Y403786D01*
X56543D01*
Y403596D01*
X56924D01*
Y403405D01*
X57305D01*
Y403215D01*
X57495D01*
Y403024D01*
X57686D01*
Y402834D01*
X57876D01*
Y402643D01*
X58067D01*
Y403405D01*
X58257D01*
Y403596D01*
X58829D01*
Y403786D01*
X60924D01*
Y403596D01*
D02*
G37*
G36*
X50065Y403786D02*
X50255D01*
Y403596D01*
X50636D01*
Y403405D01*
X50827D01*
Y403215D01*
X51017D01*
Y403024D01*
X51207D01*
Y403786D01*
X52351D01*
Y397309D01*
X51207D01*
Y401500D01*
X51017D01*
Y402072D01*
X50827D01*
Y402453D01*
X50445D01*
Y402834D01*
X49493D01*
Y403024D01*
X49303D01*
Y402834D01*
X48541D01*
Y402643D01*
X48350D01*
Y402072D01*
X48159D01*
Y401310D01*
X47969D01*
Y397309D01*
X46826D01*
Y402072D01*
X46635D01*
Y402262D01*
X46445D01*
Y402643D01*
X46064D01*
Y402834D01*
X45302D01*
Y403024D01*
X45111D01*
Y402834D01*
X44349D01*
Y402453D01*
X44159D01*
Y402262D01*
X43969D01*
Y397309D01*
X42825D01*
Y402643D01*
X43016D01*
Y403024D01*
X43397D01*
Y403596D01*
X43778D01*
Y403786D01*
X44159D01*
Y403977D01*
X45683D01*
Y403786D01*
X46255D01*
Y403596D01*
X46635D01*
Y403215D01*
X46826D01*
Y403024D01*
X47017D01*
Y402643D01*
X47207D01*
Y402834D01*
X47397D01*
Y403215D01*
X47588D01*
Y403405D01*
X47779D01*
Y403596D01*
X47969D01*
Y403786D01*
X48350D01*
Y403977D01*
X50065D01*
Y403786D01*
D02*
G37*
G36*
X103406Y403596D02*
X104358D01*
Y403405D01*
X104549D01*
Y402834D01*
X104739D01*
Y401881D01*
X104930D01*
Y401500D01*
X105120D01*
Y400357D01*
X105311D01*
Y399786D01*
X105501D01*
Y398833D01*
X105882D01*
Y399786D01*
X106073D01*
Y400357D01*
X106263D01*
Y401310D01*
X106454D01*
Y401881D01*
X106644D01*
Y402834D01*
X106835D01*
Y403405D01*
X107025D01*
Y403596D01*
X108359D01*
Y403024D01*
X108549D01*
Y402453D01*
X108740D01*
Y401500D01*
X108930D01*
Y401119D01*
X109121D01*
Y399976D01*
X109311D01*
Y399595D01*
X109502D01*
Y398643D01*
X109692D01*
Y399214D01*
X109883D01*
Y400167D01*
X110073D01*
Y400738D01*
X110264D01*
Y401691D01*
X110454D01*
Y402262D01*
X110645D01*
Y403215D01*
X110835D01*
Y403596D01*
X112931D01*
Y403405D01*
X113121D01*
Y402453D01*
X113312D01*
Y402072D01*
X113502D01*
Y400929D01*
X113693D01*
Y400357D01*
X113883D01*
Y399976D01*
X114074D01*
Y398833D01*
X114264D01*
Y399214D01*
X114455D01*
Y399786D01*
X114645D01*
Y400738D01*
X114836D01*
Y401310D01*
X115026D01*
Y401881D01*
X115217D01*
Y402834D01*
X115407D01*
Y403405D01*
X115598D01*
Y403596D01*
X116931D01*
Y403215D01*
X117122D01*
Y402072D01*
X117312D01*
Y401500D01*
X117503D01*
Y400738D01*
X117693D01*
Y400167D01*
X117884D01*
Y399595D01*
X118074D01*
Y398643D01*
X118265D01*
Y399595D01*
X118455D01*
Y400167D01*
X118646D01*
Y401119D01*
X118836D01*
Y401500D01*
X119027D01*
Y402072D01*
X119217D01*
Y403215D01*
X119408D01*
Y403596D01*
X120551D01*
Y403215D01*
X120360D01*
Y402643D01*
X120170D01*
Y401500D01*
X119979D01*
Y400929D01*
X119789D01*
Y399976D01*
X119598D01*
Y399595D01*
X119408D01*
Y398452D01*
X119217D01*
Y398071D01*
X119027D01*
Y397500D01*
X118836D01*
Y397119D01*
X117503D01*
Y397500D01*
X117312D01*
Y398452D01*
X117122D01*
Y399024D01*
X116931D01*
Y399976D01*
X116741D01*
Y400548D01*
X116550D01*
Y401500D01*
X116360D01*
Y402072D01*
X116169D01*
Y401881D01*
X115979D01*
Y401310D01*
X115788D01*
Y400167D01*
X115598D01*
Y399595D01*
X115407D01*
Y398643D01*
X115217D01*
Y398262D01*
X115026D01*
Y397690D01*
X114836D01*
Y397119D01*
X113502D01*
Y397309D01*
X113312D01*
Y398262D01*
X113121D01*
Y398833D01*
X112931D01*
Y399976D01*
X112740D01*
Y400548D01*
X112550D01*
Y401310D01*
X112359D01*
Y401881D01*
X112169D01*
Y402453D01*
X111978D01*
Y403215D01*
X111788D01*
Y402262D01*
X111597D01*
Y401691D01*
X111407D01*
Y400548D01*
X111216D01*
Y399976D01*
X111026D01*
Y399595D01*
X110835D01*
Y398643D01*
X110645D01*
Y398071D01*
X110454D01*
Y397119D01*
X108930D01*
Y397881D01*
X108740D01*
Y398452D01*
X108549D01*
Y399595D01*
X108359D01*
Y399976D01*
X108168D01*
Y400548D01*
X107978D01*
Y401500D01*
X107787D01*
Y402072D01*
X107597D01*
Y401881D01*
X107406D01*
Y400738D01*
X107216D01*
Y400357D01*
X107025D01*
Y399786D01*
X106835D01*
Y398643D01*
X106644D01*
Y398262D01*
X106454D01*
Y397309D01*
X106263D01*
Y397119D01*
X104930D01*
Y397881D01*
X104739D01*
Y398262D01*
X104549D01*
Y399214D01*
X104358D01*
Y399786D01*
X104168D01*
Y400357D01*
X103977D01*
Y401310D01*
X103787D01*
Y401881D01*
X103596D01*
Y402834D01*
X103406D01*
Y402643D01*
X103215D01*
Y402262D01*
X103025D01*
Y401691D01*
X102834D01*
Y400738D01*
X102644D01*
Y400167D01*
X102453D01*
Y399214D01*
X102263D01*
Y398643D01*
X102072D01*
Y397690D01*
X101882D01*
Y397119D01*
X100548D01*
Y397309D01*
X100358D01*
Y397881D01*
X100167D01*
Y398452D01*
X99977D01*
Y399405D01*
X99786D01*
Y399976D01*
X99596D01*
Y400929D01*
X99405D01*
Y401310D01*
X99215D01*
Y402262D01*
X99024D01*
Y401881D01*
X98834D01*
Y400929D01*
X98643D01*
Y400357D01*
X98453D01*
Y399214D01*
X98262D01*
Y398833D01*
X98072D01*
Y397881D01*
X97881D01*
Y397309D01*
X97691D01*
Y397119D01*
X96548D01*
Y397309D01*
X96357D01*
Y397881D01*
X96167D01*
Y398262D01*
X95976D01*
Y399214D01*
X95786D01*
Y399786D01*
X95595D01*
Y400738D01*
X95405D01*
Y401310D01*
X95214D01*
Y402262D01*
X95024D01*
Y402834D01*
X94833D01*
Y403405D01*
X94643D01*
Y403596D01*
X95786D01*
Y403405D01*
X95976D01*
Y402834D01*
X96167D01*
Y401881D01*
X96357D01*
Y401310D01*
X96548D01*
Y400738D01*
X96738D01*
Y399786D01*
X96929D01*
Y399405D01*
X97119D01*
Y398833D01*
X97310D01*
Y399786D01*
X97500D01*
Y400357D01*
X97691D01*
Y400929D01*
X97881D01*
Y401881D01*
X98072D01*
Y402453D01*
X98262D01*
Y403405D01*
X98453D01*
Y403596D01*
X99786D01*
Y403024D01*
X99977D01*
Y402453D01*
X100167D01*
Y401500D01*
X100358D01*
Y401119D01*
X100548D01*
Y400548D01*
X100739D01*
Y399405D01*
X100929D01*
Y398833D01*
X101120D01*
Y399214D01*
X101310D01*
Y400167D01*
X101501D01*
Y400738D01*
X101691D01*
Y401119D01*
X101882D01*
Y402262D01*
X102072D01*
Y402834D01*
X102263D01*
Y403596D01*
X103215D01*
Y403786D01*
X103406D01*
Y403596D01*
D02*
G37*
G36*
X91595Y403215D02*
X91404D01*
Y402643D01*
X91214D01*
Y401500D01*
X91023D01*
Y401119D01*
X90833D01*
Y399976D01*
X90642D01*
Y399595D01*
X90452D01*
Y398452D01*
X90261D01*
Y398071D01*
X90071D01*
Y397500D01*
X89880D01*
Y397119D01*
X88547D01*
Y397500D01*
X88356D01*
Y398452D01*
X88166D01*
Y399024D01*
X87975D01*
Y399976D01*
X87785D01*
Y400548D01*
X87594D01*
Y401500D01*
X87404D01*
Y402072D01*
X87213D01*
Y401881D01*
X87023D01*
Y401310D01*
X86832D01*
Y400167D01*
X86642D01*
Y399595D01*
X86451D01*
Y398643D01*
X86261D01*
Y398262D01*
X86070D01*
Y397690D01*
X85880D01*
Y397119D01*
X84546D01*
Y397309D01*
X84356D01*
Y398262D01*
X84165D01*
Y398833D01*
X83975D01*
Y399976D01*
X83784D01*
Y400357D01*
X83594D01*
Y401310D01*
X83403D01*
Y401881D01*
X83213D01*
Y402453D01*
X83022D01*
Y403405D01*
X82832D01*
Y403596D01*
X83975D01*
Y403405D01*
X84165D01*
Y402453D01*
X84356D01*
Y402072D01*
X84546D01*
Y400929D01*
X84737D01*
Y400357D01*
X84927D01*
Y399786D01*
X85118D01*
Y398833D01*
X85308D01*
Y399405D01*
X85499D01*
Y399786D01*
X85689D01*
Y400738D01*
X85880D01*
Y401310D01*
X86070D01*
Y401881D01*
X86261D01*
Y402834D01*
X86451D01*
Y403405D01*
X86642D01*
Y403596D01*
X87975D01*
Y403215D01*
X88166D01*
Y402072D01*
X88356D01*
Y401500D01*
X88547D01*
Y400548D01*
X88737D01*
Y400167D01*
X88928D01*
Y399595D01*
X89118D01*
Y398643D01*
X89309D01*
Y399595D01*
X89499D01*
Y400167D01*
X89690D01*
Y401119D01*
X89880D01*
Y401500D01*
X90071D01*
Y402072D01*
X90261D01*
Y403215D01*
X90452D01*
Y403596D01*
X91595D01*
Y403215D01*
D02*
G37*
G36*
X94071Y397119D02*
X92928D01*
Y398643D01*
X94071D01*
Y397119D01*
D02*
G37*
G36*
X82451D02*
X81308D01*
Y403596D01*
X82451D01*
Y397119D01*
D02*
G37*
G36*
X76164Y405501D02*
X76355D01*
Y405310D01*
X76545D01*
Y404929D01*
X76736D01*
Y404739D01*
X76926D01*
Y404548D01*
X77117D01*
Y404167D01*
X77307D01*
Y403786D01*
X77498D01*
Y403405D01*
X77879D01*
Y402834D01*
X78069D01*
Y402643D01*
X78260D01*
Y402453D01*
X78450D01*
Y402072D01*
X78641D01*
Y401881D01*
X78831D01*
Y401500D01*
X79022D01*
Y401119D01*
X79212D01*
Y400738D01*
X79593D01*
Y400357D01*
X79784D01*
Y399214D01*
X75783D01*
Y397119D01*
X74640D01*
Y399214D01*
X73307D01*
Y400167D01*
X74640D01*
Y405882D01*
X76164D01*
Y405501D01*
D02*
G37*
G36*
X65877Y397119D02*
X64544D01*
Y398643D01*
X65877D01*
Y397119D01*
D02*
G37*
G36*
X104062Y388610D02*
X104269Y388591D01*
X104419Y388554D01*
X104551Y388516D01*
X104645Y388460D01*
X104701Y388422D01*
X104739Y388403D01*
X104757Y388384D01*
X104833Y388272D01*
X104889Y388140D01*
X104964Y387858D01*
X104983Y387727D01*
X105002Y387614D01*
Y387539D01*
Y387520D01*
X104983Y387313D01*
X104964Y387144D01*
X104927Y387012D01*
X104889Y386899D01*
X104852Y386805D01*
X104814Y386749D01*
X104776Y386730D01*
Y386712D01*
X104663Y386636D01*
X104532Y386580D01*
X104212Y386524D01*
X104062Y386505D01*
X103949Y386486D01*
X103836D01*
X103611Y386505D01*
X103404Y386524D01*
X103254Y386561D01*
X103122Y386599D01*
X103028Y386636D01*
X102972Y386674D01*
X102934Y386712D01*
X102915D01*
X102822Y386824D01*
X102765Y386956D01*
X102690Y387219D01*
X102671Y387351D01*
X102652Y387463D01*
Y387539D01*
Y387557D01*
X102671Y387764D01*
X102690Y387933D01*
X102727Y388084D01*
X102765Y388196D01*
X102822Y388290D01*
X102859Y388347D01*
X102878Y388366D01*
X102897Y388384D01*
X103010Y388460D01*
X103141Y388535D01*
X103461Y388591D01*
X103611Y388610D01*
X103724Y388629D01*
X103836D01*
X104062Y388610D01*
D02*
G37*
G36*
X119907Y388159D02*
X120076D01*
X120133Y388140D01*
X120170D01*
X120321Y388121D01*
X120415Y388084D01*
X120490Y388046D01*
X120508Y388027D01*
X120565Y387952D01*
X120584Y387877D01*
X120603Y387821D01*
Y387783D01*
X120584Y387632D01*
X120546Y387501D01*
X120527Y387388D01*
X120508Y387351D01*
Y387332D01*
X118122Y378141D01*
X118084Y378009D01*
X118027Y377915D01*
X118009Y377840D01*
X117990Y377821D01*
X117915Y377746D01*
X117839Y377690D01*
X117783Y377671D01*
X117764Y377652D01*
X117614Y377633D01*
X117482Y377614D01*
X117351Y377595D01*
X117313D01*
X117069Y377577D01*
X116825Y377558D01*
X116261D01*
X116129Y377577D01*
X115960D01*
X115904Y377595D01*
X115847D01*
X115659Y377614D01*
X115528Y377633D01*
X115434Y377671D01*
X115415D01*
X115321Y377727D01*
X115246Y377783D01*
X115208Y377821D01*
X115189Y377840D01*
X115133Y377934D01*
X115095Y378028D01*
X115077Y378103D01*
Y378141D01*
X113479Y384813D01*
X113460D01*
X111787Y378141D01*
X111750Y378009D01*
X111712Y377915D01*
X111674Y377840D01*
Y377821D01*
X111599Y377746D01*
X111524Y377690D01*
X111449Y377671D01*
X111430Y377652D01*
X111280Y377633D01*
X111148Y377614D01*
X111017Y377595D01*
X110979D01*
X110753Y377577D01*
X110509Y377558D01*
X109964D01*
X109851Y377577D01*
X109682D01*
X109607Y377595D01*
X109569D01*
X109381Y377614D01*
X109231Y377633D01*
X109156Y377652D01*
X109118D01*
X109005Y377708D01*
X108930Y377765D01*
X108893Y377802D01*
X108874Y377821D01*
X108817Y377934D01*
X108761Y378028D01*
X108742Y378103D01*
X108723Y378141D01*
X106318Y387294D01*
X106280Y387501D01*
X106242Y387651D01*
Y387727D01*
Y387764D01*
Y387877D01*
X106280Y387971D01*
X106299Y388008D01*
X106318Y388027D01*
X106393Y388084D01*
X106487Y388121D01*
X106562Y388140D01*
X106600D01*
X106769Y388159D01*
X106938Y388178D01*
X107408D01*
X107596Y388159D01*
X107652D01*
X107709Y388140D01*
X107746D01*
X107878Y388121D01*
X107990Y388102D01*
X108047Y388084D01*
X108066Y388065D01*
X108141Y388027D01*
X108197Y387990D01*
X108216Y387952D01*
X108235Y387933D01*
X108272Y387783D01*
X108291Y387727D01*
Y387708D01*
X110133Y379663D01*
X110152D01*
X112144Y387670D01*
X112163Y387783D01*
X112182Y387858D01*
X112201Y387915D01*
X112219Y387933D01*
X112276Y387990D01*
X112332Y388046D01*
X112389Y388065D01*
X112408Y388084D01*
X112520Y388121D01*
X112633Y388140D01*
X112727Y388159D01*
X112765D01*
X112953Y388178D01*
X113629D01*
X113817Y388159D01*
X113892D01*
X113949Y388140D01*
X113986D01*
X114118Y388121D01*
X114231Y388102D01*
X114306Y388084D01*
X114325Y388065D01*
X114400Y388027D01*
X114456Y387971D01*
X114475Y387933D01*
X114494Y387915D01*
X114531Y387839D01*
X114569Y387764D01*
X114588Y387689D01*
Y387670D01*
X116505Y379663D01*
X118347Y387727D01*
X118366Y387821D01*
X118385Y387896D01*
X118403Y387933D01*
X118422Y387952D01*
X118460Y388008D01*
X118516Y388046D01*
X118554Y388084D01*
X118573D01*
X118666Y388121D01*
X118779Y388140D01*
X118873Y388159D01*
X118911D01*
X119099Y388178D01*
X119794D01*
X119907Y388159D01*
D02*
G37*
G36*
X96675Y388272D02*
X97051Y388234D01*
X97389Y388178D01*
X97690Y388102D01*
X97935Y388027D01*
X98123Y387971D01*
X98179Y387952D01*
X98235Y387933D01*
X98254Y387915D01*
X98273D01*
X98592Y387764D01*
X98874Y387595D01*
X99137Y387426D01*
X99363Y387238D01*
X99551Y387088D01*
X99683Y386956D01*
X99758Y386881D01*
X99795Y386843D01*
X100021Y386561D01*
X100228Y386260D01*
X100397Y385979D01*
X100528Y385697D01*
X100641Y385452D01*
X100716Y385264D01*
X100754Y385189D01*
X100773Y385133D01*
X100792Y385114D01*
Y385095D01*
X100904Y384700D01*
X100998Y384287D01*
X101055Y383892D01*
X101111Y383516D01*
X101130Y383197D01*
Y383065D01*
X101149Y382952D01*
Y382858D01*
Y382783D01*
Y382746D01*
Y382727D01*
X101130Y382257D01*
X101092Y381806D01*
X101055Y381411D01*
X100979Y381073D01*
X100923Y380791D01*
X100904Y380678D01*
X100885Y380584D01*
X100867Y380509D01*
X100848Y380452D01*
X100829Y380434D01*
Y380415D01*
X100698Y380058D01*
X100547Y379738D01*
X100397Y379456D01*
X100246Y379212D01*
X100115Y379024D01*
X100002Y378874D01*
X99927Y378798D01*
X99908Y378761D01*
X99664Y378535D01*
X99419Y378329D01*
X99156Y378159D01*
X98931Y378009D01*
X98724Y377915D01*
X98574Y377821D01*
X98461Y377783D01*
X98423Y377765D01*
X98085Y377652D01*
X97747Y377577D01*
X97408Y377520D01*
X97107Y377483D01*
X96844Y377464D01*
X96656Y377445D01*
X96468D01*
X96074Y377464D01*
X95886Y377483D01*
X95735Y377501D01*
X95604D01*
X95510Y377520D01*
X95454Y377539D01*
X95435D01*
X95096Y377595D01*
X94965Y377633D01*
X94833Y377671D01*
X94739Y377708D01*
X94645Y377727D01*
X94608Y377746D01*
X94589D01*
X94326Y377840D01*
X94138Y377934D01*
X94063Y377971D01*
X94006Y378009D01*
X93987Y378028D01*
X93969D01*
X93799Y378122D01*
X93706Y378216D01*
X93649Y378253D01*
X93630Y378272D01*
X93574Y378329D01*
X93536Y378385D01*
X93499Y378404D01*
Y378423D01*
X93442Y378535D01*
X93424Y378573D01*
Y378592D01*
X93405Y378686D01*
Y378761D01*
X93386Y378817D01*
Y378836D01*
X93367Y378949D01*
Y379080D01*
Y379156D01*
Y379193D01*
Y379381D01*
Y379532D01*
X93386Y379607D01*
Y379644D01*
X93405Y379776D01*
X93424Y379851D01*
X93442Y379907D01*
Y379926D01*
X93480Y379983D01*
X93499Y380020D01*
X93518Y380058D01*
X93536D01*
X93611Y380095D01*
X93649D01*
X93743Y380077D01*
X93837Y380039D01*
X93912Y379983D01*
X93950Y379964D01*
X94100Y379870D01*
X94269Y379757D01*
X94382Y379701D01*
X94420Y379663D01*
X94438D01*
X94683Y379550D01*
X94908Y379475D01*
X95002Y379437D01*
X95078Y379400D01*
X95134Y379381D01*
X95153D01*
X95472Y379306D01*
X95641Y379287D01*
X95792Y379268D01*
X95923Y379249D01*
X96130D01*
X96356Y379268D01*
X96562Y379287D01*
X96750Y379325D01*
X96920Y379362D01*
X97070Y379400D01*
X97164Y379419D01*
X97239Y379456D01*
X97258D01*
X97446Y379550D01*
X97615Y379644D01*
X97747Y379757D01*
X97878Y379851D01*
X97991Y379945D01*
X98066Y380020D01*
X98104Y380077D01*
X98123Y380095D01*
X98235Y380283D01*
X98348Y380471D01*
X98442Y380659D01*
X98517Y380828D01*
X98574Y380979D01*
X98611Y381110D01*
X98649Y381185D01*
Y381223D01*
X98705Y381486D01*
X98762Y381768D01*
X98799Y382031D01*
X98818Y382276D01*
Y382501D01*
X98837Y382670D01*
Y382783D01*
Y382802D01*
Y382821D01*
Y383121D01*
X98818Y383422D01*
X98780Y383667D01*
X98743Y383892D01*
X98724Y384080D01*
X98686Y384230D01*
X98668Y384306D01*
Y384343D01*
X98592Y384588D01*
X98498Y384813D01*
X98423Y385001D01*
X98329Y385170D01*
X98254Y385302D01*
X98198Y385415D01*
X98160Y385471D01*
X98141Y385490D01*
X98010Y385659D01*
X97859Y385809D01*
X97728Y385922D01*
X97596Y386035D01*
X97483Y386110D01*
X97389Y386166D01*
X97333Y386204D01*
X97314Y386223D01*
X97126Y386317D01*
X96920Y386373D01*
X96732Y386430D01*
X96562Y386448D01*
X96412Y386467D01*
X96299Y386486D01*
X95980D01*
X95792Y386467D01*
X95623Y386448D01*
X95491Y386411D01*
X95378Y386392D01*
X95284Y386354D01*
X95228Y386336D01*
X95209D01*
X94927Y386223D01*
X94814Y386166D01*
X94702Y386129D01*
X94627Y386073D01*
X94570Y386054D01*
X94532Y386016D01*
X94514D01*
X94307Y385903D01*
X94157Y385790D01*
X94063Y385715D01*
X94025Y385697D01*
X93893Y385621D01*
X93799Y385584D01*
X93724Y385565D01*
X93706D01*
X93630Y385584D01*
X93593Y385603D01*
X93518Y385697D01*
X93499Y385734D01*
Y385753D01*
X93461Y385847D01*
X93442Y385941D01*
X93424Y386016D01*
Y386035D01*
X93405Y386166D01*
Y386298D01*
Y386411D01*
Y386430D01*
Y386448D01*
Y386599D01*
Y386730D01*
X93424Y386805D01*
Y386824D01*
X93442Y386937D01*
Y387031D01*
X93461Y387088D01*
Y387106D01*
X93480Y387181D01*
X93499Y387238D01*
X93518Y387275D01*
X93536Y387294D01*
X93574Y387351D01*
X93630Y387407D01*
X93668Y387445D01*
X93687Y387463D01*
X93781Y387557D01*
X93912Y387632D01*
X94025Y387708D01*
X94044Y387727D01*
X94063D01*
X94288Y387839D01*
X94495Y387933D01*
X94570Y387971D01*
X94645Y387990D01*
X94683Y388008D01*
X94702D01*
X94965Y388102D01*
X95209Y388159D01*
X95303Y388178D01*
X95378Y388196D01*
X95435Y388215D01*
X95454D01*
X95754Y388253D01*
X96017Y388290D01*
X96280D01*
X96675Y388272D01*
D02*
G37*
G36*
X91149Y388159D02*
X91262Y388140D01*
X91300D01*
X91431Y388121D01*
X91544Y388102D01*
X91619Y388084D01*
X91638D01*
X91713Y388046D01*
X91770Y388008D01*
X91788Y387990D01*
X91807Y387971D01*
X91845Y387877D01*
Y387839D01*
Y387821D01*
Y378272D01*
Y378141D01*
X91826Y378047D01*
X91751Y377877D01*
X91694Y377802D01*
X91676Y377765D01*
X91525Y377671D01*
X91375Y377633D01*
X91262Y377614D01*
X86413D01*
X86300Y377633D01*
X86281Y377652D01*
X86262D01*
X86187Y377746D01*
X86168Y377783D01*
Y377802D01*
X86150Y377896D01*
X86131Y377990D01*
X86112Y378065D01*
Y378084D01*
X86093Y378216D01*
X86074Y378347D01*
Y378460D01*
Y378479D01*
Y378498D01*
Y378667D01*
X86093Y378798D01*
X86112Y378874D01*
Y378911D01*
X86131Y379024D01*
X86150Y379099D01*
X86168Y379156D01*
Y379174D01*
X86206Y379249D01*
X86225Y379287D01*
X86243Y379325D01*
X86262D01*
X86300Y379362D01*
X86356Y379381D01*
X89702D01*
Y387821D01*
Y387877D01*
X89721Y387933D01*
X89740Y387952D01*
X89758Y387971D01*
X89815Y388027D01*
X89871Y388065D01*
X89928Y388084D01*
X89946D01*
X90040Y388102D01*
X90153Y388121D01*
X90228Y388140D01*
X90266D01*
X90435Y388159D01*
X90604Y388178D01*
X90999D01*
X91149Y388159D01*
D02*
G37*
G36*
X104194Y385433D02*
X104306Y385415D01*
X104344D01*
X104476Y385396D01*
X104570Y385377D01*
X104626Y385358D01*
X104645Y385339D01*
X104720Y385302D01*
X104776Y385283D01*
X104795Y385264D01*
X104814Y385246D01*
X104852Y385151D01*
Y385114D01*
Y385095D01*
Y377877D01*
X104833Y377765D01*
X104814Y377746D01*
Y377727D01*
X104757Y377690D01*
X104701Y377652D01*
X104663Y377633D01*
X104645D01*
X104551Y377614D01*
X104457D01*
X104382Y377595D01*
X104344D01*
X104175Y377577D01*
X104006Y377558D01*
X103630D01*
X103479Y377577D01*
X103385Y377595D01*
X103348D01*
X103216Y377614D01*
X103104D01*
X103047Y377633D01*
X103028D01*
X102953Y377671D01*
X102897Y377690D01*
X102878Y377727D01*
X102859D01*
X102822Y377783D01*
X102803Y377821D01*
Y377859D01*
Y377877D01*
Y385095D01*
Y385151D01*
X102822Y385208D01*
X102840Y385227D01*
X102859Y385246D01*
X102915Y385283D01*
X102972Y385321D01*
X103010Y385339D01*
X103028D01*
X103122Y385377D01*
X103235Y385396D01*
X103310Y385415D01*
X103348D01*
X103498Y385433D01*
X103667Y385452D01*
X104043D01*
X104194Y385433D01*
D02*
G37*
G36*
X91826Y373954D02*
X92033D01*
X92089Y373935D01*
X92221D01*
X92258Y373916D01*
X92277D01*
X92352Y373878D01*
X92371Y373860D01*
X94627Y372394D01*
X94739Y372318D01*
X94758Y372300D01*
X94777Y372281D01*
X94852Y372187D01*
X94871Y372149D01*
Y372130D01*
X94908Y371980D01*
Y371924D01*
Y371905D01*
Y371811D01*
Y371698D01*
Y371623D01*
Y371604D01*
Y371585D01*
Y371379D01*
X94890Y371247D01*
Y371153D01*
Y371115D01*
X94871Y371003D01*
X94852Y370928D01*
X94814Y370890D01*
Y370871D01*
X94758Y370834D01*
X94627D01*
X94514Y370852D01*
X94420Y370890D01*
X94345Y370928D01*
X94307Y370946D01*
X92615Y371886D01*
Y365044D01*
X94645D01*
X94683Y365025D01*
X94702Y365007D01*
X94720Y364988D01*
X94758Y364950D01*
X94796Y364894D01*
X94814Y364856D01*
Y364838D01*
X94833Y364762D01*
X94852Y364668D01*
X94871Y364612D01*
Y364574D01*
X94890Y364462D01*
Y364330D01*
Y364236D01*
Y364217D01*
Y364198D01*
Y364048D01*
X94871Y363917D01*
Y363841D01*
Y363804D01*
X94852Y363710D01*
X94833Y363635D01*
X94814Y363578D01*
Y363559D01*
X94777Y363503D01*
X94739Y363465D01*
X94702Y363428D01*
X94627Y363390D01*
X88800D01*
X88706Y363409D01*
X88668Y363428D01*
X88631Y363465D01*
X88593Y363503D01*
X88574Y363541D01*
Y363559D01*
X88537Y363635D01*
X88518Y363710D01*
X88499Y363785D01*
Y363804D01*
X88480Y363935D01*
X88461Y364067D01*
Y364161D01*
Y364180D01*
Y364198D01*
Y364349D01*
X88480Y364480D01*
X88499Y364556D01*
Y364574D01*
X88518Y364687D01*
X88537Y364762D01*
X88555Y364819D01*
Y364838D01*
X88593Y364913D01*
X88631Y364950D01*
X88649Y364988D01*
X88668D01*
X88706Y365025D01*
X88762Y365044D01*
X90491D01*
Y373709D01*
X90510Y373803D01*
X90529Y373822D01*
X90567Y373860D01*
X90604Y373878D01*
X90642Y373897D01*
X90660D01*
X90754Y373916D01*
X90849Y373935D01*
X90924Y373954D01*
X90961D01*
X91112Y373972D01*
X91751D01*
X91826Y373954D01*
D02*
G37*
G36*
X103273Y371209D02*
X103310D01*
X103442Y371191D01*
X103536Y371172D01*
X103592Y371153D01*
X103611Y371134D01*
X103686Y371097D01*
X103743Y371078D01*
X103761Y371059D01*
X103780Y371040D01*
X103818Y370946D01*
Y370928D01*
Y370909D01*
Y370834D01*
Y370815D01*
Y370796D01*
Y370740D01*
X103799Y370683D01*
Y370627D01*
Y370608D01*
X103761Y370514D01*
X103743Y370420D01*
X103705Y370345D01*
Y370326D01*
X101525Y363766D01*
X101487Y363672D01*
X101468Y363597D01*
X101431Y363559D01*
Y363541D01*
X101355Y363484D01*
X101280Y363465D01*
X101224Y363428D01*
X101205D01*
X101074Y363409D01*
X100923Y363390D01*
X100810Y363372D01*
X100773D01*
X100547Y363353D01*
X100303Y363334D01*
X99645D01*
X99551Y363353D01*
X99363D01*
X99175Y363372D01*
X99044Y363390D01*
X98949Y363409D01*
X98931D01*
X98818Y363447D01*
X98762Y363484D01*
X98724Y363503D01*
X98705Y363522D01*
X98649Y363597D01*
X98611Y363672D01*
X98592Y363747D01*
Y363766D01*
X96412Y370326D01*
X96393Y370401D01*
X96375Y370458D01*
X96356Y370495D01*
Y370514D01*
X96337Y370627D01*
X96318Y370645D01*
Y370664D01*
X96299Y370758D01*
Y370796D01*
Y370871D01*
Y370909D01*
X96318Y371003D01*
X96337Y371040D01*
X96375Y371078D01*
X96431Y371115D01*
X96468Y371134D01*
X96487D01*
X96581Y371172D01*
X96675Y371191D01*
X96750Y371209D01*
X96788D01*
X96938Y371228D01*
X97483D01*
X97653Y371209D01*
X97747Y371191D01*
X97784D01*
X97916Y371172D01*
X98010Y371153D01*
X98066Y371134D01*
X98085D01*
X98160Y371097D01*
X98216Y371059D01*
X98235Y371040D01*
X98254Y371021D01*
X98310Y370928D01*
X98329Y370890D01*
Y370871D01*
X99946Y365552D01*
X100002Y365345D01*
X100058Y365552D01*
X101694Y370871D01*
X101750Y370984D01*
X101769Y371003D01*
X101788Y371021D01*
X101825Y371078D01*
X101882Y371115D01*
X101919Y371134D01*
X101938D01*
X102032Y371153D01*
X102145Y371172D01*
X102220Y371191D01*
X102258D01*
X102427Y371209D01*
X102615Y371228D01*
X103160D01*
X103273Y371209D01*
D02*
G37*
G36*
X108385Y371360D02*
X108686Y371341D01*
X108949Y371285D01*
X109175Y371228D01*
X109362Y371172D01*
X109494Y371134D01*
X109588Y371097D01*
X109626Y371078D01*
X109870Y370965D01*
X110096Y370834D01*
X110302Y370702D01*
X110471Y370552D01*
X110622Y370439D01*
X110716Y370345D01*
X110791Y370270D01*
X110810Y370251D01*
X110979Y370044D01*
X111110Y369818D01*
X111242Y369612D01*
X111336Y369405D01*
X111430Y369217D01*
X111487Y369067D01*
X111505Y368973D01*
X111524Y368935D01*
X111599Y368634D01*
X111656Y368334D01*
X111712Y368052D01*
X111731Y367789D01*
X111750Y367544D01*
X111768Y367375D01*
Y367300D01*
Y367243D01*
Y367225D01*
Y367206D01*
X111750Y366830D01*
X111731Y366492D01*
X111693Y366191D01*
X111656Y365928D01*
X111618Y365721D01*
X111580Y365552D01*
X111543Y365458D01*
Y365420D01*
X111449Y365157D01*
X111317Y364913D01*
X111205Y364687D01*
X111092Y364518D01*
X110979Y364368D01*
X110885Y364255D01*
X110829Y364180D01*
X110810Y364161D01*
X110622Y363992D01*
X110415Y363841D01*
X110208Y363710D01*
X110020Y363616D01*
X109851Y363541D01*
X109720Y363465D01*
X109644Y363447D01*
X109607Y363428D01*
X109325Y363353D01*
X109024Y363296D01*
X108742Y363259D01*
X108479Y363240D01*
X108235Y363221D01*
X108066Y363202D01*
X107896D01*
X107502Y363221D01*
X107333D01*
X107182Y363240D01*
X107051Y363259D01*
X106957D01*
X106900Y363278D01*
X106881D01*
X106562Y363334D01*
X106412Y363353D01*
X106299Y363390D01*
X106186Y363409D01*
X106111D01*
X106073Y363428D01*
X106054D01*
X105810Y363484D01*
X105603Y363541D01*
X105547Y363559D01*
X105491Y363578D01*
X105472Y363597D01*
X105453D01*
X105378Y363635D01*
X105303Y363672D01*
X105227Y363729D01*
X105171Y363747D01*
Y363766D01*
X105096Y363841D01*
X105077Y363879D01*
X105039Y363973D01*
X105021Y364011D01*
Y364029D01*
X105002Y364161D01*
Y364217D01*
Y364236D01*
X104983Y364349D01*
Y364443D01*
Y364518D01*
Y364556D01*
Y364687D01*
Y364781D01*
X105002Y364856D01*
Y364875D01*
X105021Y364969D01*
X105039Y365044D01*
X105058Y365063D01*
Y365082D01*
X105096Y365176D01*
X105115Y365195D01*
X105133D01*
X105209Y365232D01*
X105246D01*
X105359Y365214D01*
X105472Y365195D01*
X105547Y365157D01*
X105566Y365138D01*
X105584D01*
X105735Y365082D01*
X105904Y365025D01*
X106017Y364988D01*
X106054Y364969D01*
X106073D01*
X106299Y364913D01*
X106524Y364875D01*
X106618Y364856D01*
X106693Y364838D01*
X106750Y364819D01*
X106769D01*
X107088Y364781D01*
X107389Y364762D01*
X107521Y364744D01*
X107896D01*
X108066Y364762D01*
X108216Y364781D01*
X108348Y364819D01*
X108460Y364838D01*
X108535Y364856D01*
X108592Y364875D01*
X108611D01*
X108874Y364988D01*
X109062Y365120D01*
X109137Y365176D01*
X109193Y365232D01*
X109212Y365251D01*
X109231Y365270D01*
X109381Y365477D01*
X109494Y365683D01*
X109532Y365777D01*
X109569Y365853D01*
X109588Y365890D01*
Y365909D01*
X109644Y366210D01*
X109663Y366492D01*
X109682Y366604D01*
Y366698D01*
Y366755D01*
Y366774D01*
X105284D01*
X105077Y366792D01*
X104927Y366867D01*
X104852Y366924D01*
X104814Y366943D01*
X104720Y367112D01*
X104663Y367281D01*
X104645Y367356D01*
Y367431D01*
Y367469D01*
Y367488D01*
Y367826D01*
Y368108D01*
X104682Y368352D01*
X104701Y368597D01*
X104739Y368803D01*
X104776Y368973D01*
X104814Y369104D01*
X104833Y369179D01*
X104852Y369217D01*
X104927Y369461D01*
X105021Y369668D01*
X105115Y369856D01*
X105227Y370025D01*
X105303Y370157D01*
X105378Y370270D01*
X105434Y370326D01*
X105453Y370345D01*
X105622Y370514D01*
X105791Y370664D01*
X105979Y370796D01*
X106148Y370909D01*
X106299Y370984D01*
X106412Y371040D01*
X106487Y371078D01*
X106524Y371097D01*
X106769Y371191D01*
X107032Y371266D01*
X107295Y371303D01*
X107539Y371341D01*
X107765Y371360D01*
X107934Y371379D01*
X108084D01*
X108385Y371360D01*
D02*
G37*
G36*
X120151Y373878D02*
X120283Y373822D01*
X120377Y373747D01*
X120415Y373728D01*
X120471Y373672D01*
X120508Y373578D01*
X120565Y373427D01*
Y373333D01*
X120584Y373277D01*
Y373239D01*
Y373221D01*
Y363672D01*
X120565Y363559D01*
X120546Y363522D01*
Y363503D01*
X120490Y363465D01*
X120433Y363428D01*
X120396Y363409D01*
X120377D01*
X120264Y363390D01*
X120151D01*
X120076Y363372D01*
X120039D01*
X119869Y363353D01*
X119700Y363334D01*
X119306D01*
X119155Y363353D01*
X119043Y363372D01*
X119005D01*
X118873Y363390D01*
X118760D01*
X118704Y363409D01*
X118685D01*
X118591Y363447D01*
X118535Y363465D01*
X118516Y363503D01*
X118497D01*
X118460Y363559D01*
X118441Y363616D01*
Y363653D01*
Y363672D01*
Y367676D01*
X117783D01*
X117539Y367657D01*
X117351Y367619D01*
X117276Y367601D01*
X117219Y367582D01*
X117200Y367563D01*
X117182D01*
X116994Y367469D01*
X116862Y367356D01*
X116768Y367281D01*
X116731Y367262D01*
Y367243D01*
X116580Y367074D01*
X116467Y366905D01*
X116430Y366830D01*
X116392Y366774D01*
X116373Y366736D01*
Y366717D01*
X116242Y366492D01*
X116148Y366266D01*
X116091Y366172D01*
X116073Y366097D01*
X116035Y366040D01*
Y366022D01*
X115077Y363691D01*
X115058Y363616D01*
X115039Y363559D01*
X115020Y363522D01*
Y363503D01*
X114964Y363465D01*
X114907Y363428D01*
X114870Y363409D01*
X114851D01*
X114738Y363390D01*
X114644Y363372D01*
X114569Y363353D01*
X114531D01*
X114362Y363334D01*
X113704D01*
X113516Y363353D01*
X113347D01*
X113197Y363372D01*
X113084Y363390D01*
X113009Y363409D01*
X112990D01*
X112915Y363447D01*
X112859Y363465D01*
X112821Y363503D01*
X112783Y363597D01*
Y363635D01*
Y363653D01*
Y363710D01*
X112802Y363785D01*
X112821Y363841D01*
X112840Y363860D01*
X112877Y363992D01*
X112934Y364161D01*
X112971Y364274D01*
X112990Y364311D01*
Y364330D01*
X113874Y366398D01*
X114005Y366661D01*
X114099Y366867D01*
X114156Y366943D01*
X114174Y366999D01*
X114212Y367037D01*
Y367056D01*
X114325Y367262D01*
X114437Y367431D01*
X114513Y367544D01*
X114550Y367563D01*
Y367582D01*
X114682Y367751D01*
X114795Y367864D01*
X114888Y367958D01*
X114907Y367976D01*
X114926D01*
X115077Y368089D01*
X115227Y368183D01*
X115340Y368240D01*
X115358Y368258D01*
X115377D01*
X115039Y368390D01*
X114888Y368446D01*
X114757Y368522D01*
X114663Y368559D01*
X114569Y368616D01*
X114531Y368634D01*
X114513Y368653D01*
X114249Y368860D01*
X114043Y369048D01*
X113968Y369142D01*
X113911Y369198D01*
X113892Y369236D01*
X113874Y369255D01*
X113704Y369518D01*
X113573Y369762D01*
X113535Y369875D01*
X113498Y369950D01*
X113479Y370006D01*
Y370025D01*
X113385Y370364D01*
X113366Y370533D01*
X113347Y370683D01*
X113329Y370815D01*
Y370909D01*
Y370984D01*
Y371003D01*
Y371228D01*
X113366Y371435D01*
X113385Y371623D01*
X113422Y371792D01*
X113460Y371924D01*
X113479Y372018D01*
X113516Y372093D01*
Y372112D01*
X113686Y372450D01*
X113780Y372581D01*
X113855Y372713D01*
X113930Y372807D01*
X114005Y372882D01*
X114043Y372920D01*
X114061Y372939D01*
X114344Y373183D01*
X114625Y373371D01*
X114738Y373427D01*
X114832Y373484D01*
X114907Y373503D01*
X114926Y373521D01*
X115321Y373672D01*
X115509Y373709D01*
X115697Y373766D01*
X115847Y373784D01*
X115960Y373803D01*
X116035Y373822D01*
X116073D01*
X116242Y373841D01*
X116392Y373860D01*
X116505Y373878D01*
X116561D01*
X116768Y373897D01*
X119964D01*
X120151Y373878D01*
D02*
G37*
G36*
X85680Y365777D02*
X85886Y365759D01*
X86055Y365721D01*
X86168Y365665D01*
X86281Y365608D01*
X86337Y365571D01*
X86375Y365552D01*
X86394Y365533D01*
X86488Y365420D01*
X86544Y365270D01*
X86619Y364913D01*
X86638Y364762D01*
X86657Y364631D01*
Y364537D01*
Y364499D01*
X86638Y364255D01*
X86619Y364048D01*
X86582Y363879D01*
X86525Y363747D01*
X86488Y363635D01*
X86450Y363578D01*
X86431Y363541D01*
X86413Y363522D01*
X86300Y363447D01*
X86150Y363390D01*
X85849Y363315D01*
X85698Y363296D01*
X85586Y363278D01*
X85473D01*
X85229Y363296D01*
X85022Y363315D01*
X84871Y363353D01*
X84740Y363409D01*
X84627Y363447D01*
X84571Y363484D01*
X84533Y363503D01*
X84514Y363522D01*
X84420Y363635D01*
X84364Y363804D01*
X84289Y364142D01*
X84270Y364292D01*
X84251Y364424D01*
Y364518D01*
Y364556D01*
X84270Y364800D01*
X84289Y365007D01*
X84326Y365176D01*
X84383Y365308D01*
X84439Y365420D01*
X84477Y365477D01*
X84495Y365514D01*
X84514Y365533D01*
X84627Y365627D01*
X84777Y365683D01*
X85078Y365759D01*
X85229Y365777D01*
X85341Y365796D01*
X85454D01*
X85680Y365777D01*
D02*
G37*
G36*
X79289Y374066D02*
X79646Y374029D01*
X79947Y373954D01*
X80210Y373897D01*
X80417Y373822D01*
X80586Y373747D01*
X80680Y373709D01*
X80717Y373690D01*
X80981Y373540D01*
X81206Y373371D01*
X81413Y373183D01*
X81582Y373014D01*
X81714Y372845D01*
X81826Y372713D01*
X81883Y372638D01*
X81902Y372600D01*
X82052Y372318D01*
X82202Y372018D01*
X82315Y371736D01*
X82390Y371454D01*
X82465Y371209D01*
X82522Y371021D01*
X82541Y370946D01*
Y370890D01*
X82559Y370871D01*
Y370852D01*
X82635Y370458D01*
X82672Y370082D01*
X82710Y369687D01*
X82747Y369349D01*
Y369048D01*
X82766Y368916D01*
Y368803D01*
Y368709D01*
Y368653D01*
Y368616D01*
Y368597D01*
Y368127D01*
X82747Y367695D01*
X82710Y367319D01*
X82691Y366980D01*
X82653Y366698D01*
Y366586D01*
X82635Y366492D01*
Y366416D01*
X82616Y366360D01*
Y366341D01*
Y366323D01*
X82541Y365965D01*
X82447Y365646D01*
X82353Y365345D01*
X82259Y365101D01*
X82165Y364913D01*
X82108Y364762D01*
X82052Y364668D01*
X82033Y364631D01*
X81864Y364386D01*
X81676Y364180D01*
X81488Y363992D01*
X81319Y363841D01*
X81150Y363710D01*
X81018Y363635D01*
X80943Y363578D01*
X80905Y363559D01*
X80623Y363447D01*
X80323Y363353D01*
X80022Y363296D01*
X79740Y363240D01*
X79496Y363221D01*
X79289Y363202D01*
X79120D01*
X78725Y363221D01*
X78387Y363259D01*
X78086Y363315D01*
X77823Y363390D01*
X77597Y363465D01*
X77447Y363522D01*
X77353Y363559D01*
X77315Y363578D01*
X77052Y363729D01*
X76827Y363917D01*
X76620Y364086D01*
X76451Y364274D01*
X76319Y364424D01*
X76206Y364556D01*
X76150Y364631D01*
X76131Y364668D01*
X75962Y364950D01*
X75830Y365232D01*
X75718Y365533D01*
X75624Y365796D01*
X75549Y366040D01*
X75492Y366228D01*
X75473Y366304D01*
X75455Y366360D01*
Y366379D01*
Y366398D01*
X75379Y366792D01*
X75342Y367187D01*
X75304Y367563D01*
X75267Y367920D01*
Y368221D01*
X75248Y368352D01*
Y368465D01*
Y368540D01*
Y368616D01*
Y368653D01*
Y368672D01*
Y369142D01*
X75267Y369574D01*
X75304Y369950D01*
X75323Y370288D01*
X75361Y370570D01*
X75379Y370683D01*
X75398Y370777D01*
Y370852D01*
X75417Y370909D01*
Y370928D01*
Y370946D01*
X75492Y371303D01*
X75586Y371623D01*
X75680Y371924D01*
X75774Y372168D01*
X75868Y372375D01*
X75924Y372506D01*
X75981Y372600D01*
X76000Y372638D01*
X76169Y372882D01*
X76357Y373108D01*
X76545Y373277D01*
X76714Y373427D01*
X76883Y373559D01*
X77015Y373634D01*
X77090Y373690D01*
X77127Y373709D01*
X77409Y373841D01*
X77710Y373935D01*
X78011Y373991D01*
X78293Y374048D01*
X78537Y374066D01*
X78725Y374085D01*
X78913D01*
X79289Y374066D01*
D02*
G37*
%LPC*%
G36*
X40541Y419885D02*
X39779D01*
Y419694D01*
X39017D01*
Y419504D01*
X38445D01*
Y419313D01*
X38255D01*
Y419123D01*
X37874D01*
Y418932D01*
X37683D01*
Y418742D01*
Y418551D01*
X37493D01*
Y418361D01*
X37302D01*
Y418170D01*
Y417980D01*
Y417789D01*
X37112D01*
Y417599D01*
Y417408D01*
Y417218D01*
Y417027D01*
X36921D01*
Y416837D01*
Y416646D01*
Y416456D01*
Y416265D01*
X37112D01*
Y416075D01*
Y415884D01*
Y415694D01*
Y415503D01*
Y415313D01*
X37302D01*
Y415122D01*
Y414932D01*
Y414741D01*
X37493D01*
Y414551D01*
Y414360D01*
X37683D01*
Y414170D01*
Y413979D01*
X38255D01*
Y413789D01*
Y413598D01*
X38636D01*
Y413408D01*
X39588D01*
Y413217D01*
X40541D01*
Y413408D01*
X41493D01*
Y413598D01*
X41874D01*
Y413789D01*
X42065D01*
Y413979D01*
X42255D01*
Y414170D01*
X42446D01*
Y414360D01*
X42636D01*
Y414551D01*
Y414741D01*
X42827D01*
Y414932D01*
Y415122D01*
Y415313D01*
X43017D01*
Y415503D01*
Y415694D01*
X43208D01*
Y415884D01*
Y416075D01*
Y416265D01*
Y416456D01*
Y416646D01*
Y416837D01*
Y417027D01*
Y417218D01*
X43017D01*
Y417408D01*
Y417599D01*
Y417789D01*
X42827D01*
Y417980D01*
Y418170D01*
Y418361D01*
X42636D01*
Y418551D01*
X42446D01*
Y418742D01*
Y418932D01*
X42255D01*
Y419123D01*
X42065D01*
Y419313D01*
X41684D01*
Y419504D01*
X41112D01*
Y419694D01*
X40541D01*
Y419885D01*
D02*
G37*
G36*
X70068Y402834D02*
X69306D01*
Y402643D01*
X68735D01*
Y402453D01*
X68544D01*
Y402262D01*
X68354D01*
Y402072D01*
Y401881D01*
X68163D01*
Y401691D01*
Y401500D01*
Y401310D01*
X67973D01*
Y401119D01*
Y400929D01*
Y400738D01*
Y400548D01*
Y400357D01*
Y400167D01*
Y399976D01*
Y399786D01*
Y399595D01*
Y399405D01*
X68163D01*
Y399214D01*
Y399024D01*
Y398833D01*
X68354D01*
Y398643D01*
Y398452D01*
X68544D01*
Y398262D01*
X68735D01*
Y398071D01*
X69306D01*
Y397881D01*
X70068D01*
Y398071D01*
X70640D01*
Y398262D01*
X70830D01*
Y398452D01*
X71021D01*
Y398643D01*
Y398833D01*
X71211D01*
Y399024D01*
Y399214D01*
X71402D01*
Y399405D01*
Y399595D01*
Y399786D01*
X71592D01*
Y399976D01*
Y400167D01*
Y400357D01*
Y400548D01*
Y400738D01*
Y400929D01*
X71402D01*
Y401119D01*
Y401310D01*
Y401500D01*
X71211D01*
Y401691D01*
Y401881D01*
X71021D01*
Y402072D01*
Y402262D01*
X70830D01*
Y402453D01*
X70640D01*
Y402643D01*
X70068D01*
Y402834D01*
D02*
G37*
G36*
X60162D02*
X59400D01*
Y402643D01*
X58448D01*
Y402453D01*
X58257D01*
Y402262D01*
Y402072D01*
Y401881D01*
Y401691D01*
Y401500D01*
X58448D01*
Y401310D01*
Y401119D01*
Y400929D01*
Y400738D01*
Y400548D01*
Y400357D01*
Y400167D01*
Y399976D01*
Y399786D01*
Y399595D01*
Y399405D01*
Y399214D01*
X58257D01*
Y399024D01*
Y398833D01*
Y398643D01*
Y398452D01*
Y398262D01*
X58448D01*
Y398071D01*
X59400D01*
Y397881D01*
X60162D01*
Y398071D01*
X60924D01*
Y398262D01*
X61115D01*
Y398452D01*
X61496D01*
Y398643D01*
Y398833D01*
X61686D01*
Y399024D01*
Y399214D01*
Y399405D01*
X61877D01*
Y399595D01*
Y399786D01*
Y399976D01*
Y400167D01*
X62067D01*
Y400357D01*
Y400548D01*
X61877D01*
Y400738D01*
Y400929D01*
Y401119D01*
Y401310D01*
X61686D01*
Y401500D01*
Y401691D01*
Y401881D01*
X61496D01*
Y402072D01*
X61305D01*
Y402262D01*
X61115D01*
Y402453D01*
X60924D01*
Y402643D01*
X60162D01*
Y402834D01*
D02*
G37*
G36*
X55971D02*
X55209D01*
Y402643D01*
X54638D01*
Y402453D01*
X54447D01*
Y402262D01*
X54257D01*
Y402072D01*
X54066D01*
Y401881D01*
X53876D01*
Y401691D01*
Y401500D01*
Y401310D01*
Y401119D01*
Y400929D01*
Y400738D01*
X53685D01*
Y400548D01*
Y400357D01*
Y400167D01*
Y399976D01*
X53876D01*
Y399786D01*
Y399595D01*
Y399405D01*
Y399214D01*
Y399024D01*
Y398833D01*
X54066D01*
Y398643D01*
X54257D01*
Y398452D01*
X54447D01*
Y398262D01*
X54638D01*
Y398071D01*
X55209D01*
Y397881D01*
X55971D01*
Y398071D01*
X56352D01*
Y398262D01*
X56733D01*
Y398452D01*
Y398643D01*
X56924D01*
Y398833D01*
X57114D01*
Y399024D01*
X57305D01*
Y399214D01*
Y399405D01*
Y399595D01*
Y399786D01*
Y399976D01*
Y400167D01*
Y400357D01*
Y400548D01*
Y400738D01*
Y400929D01*
Y401119D01*
Y401310D01*
Y401500D01*
X57114D01*
Y401691D01*
Y401881D01*
X56924D01*
Y402072D01*
X56733D01*
Y402262D01*
Y402453D01*
X56352D01*
Y402643D01*
X55971D01*
Y402834D01*
D02*
G37*
G36*
X75974Y404548D02*
X75783D01*
Y404358D01*
Y404167D01*
Y403977D01*
Y403786D01*
Y403596D01*
Y403405D01*
Y403215D01*
Y403024D01*
Y402834D01*
Y402643D01*
Y402453D01*
Y402262D01*
Y402072D01*
Y401881D01*
Y401691D01*
Y401500D01*
Y401310D01*
Y401119D01*
Y400929D01*
Y400738D01*
Y400548D01*
Y400357D01*
Y400167D01*
X78641D01*
Y400357D01*
X78450D01*
Y400548D01*
X78260D01*
Y400738D01*
Y400929D01*
X78069D01*
Y401119D01*
Y401310D01*
X77688D01*
Y401500D01*
Y401691D01*
Y401881D01*
X77498D01*
Y402072D01*
X77307D01*
Y402262D01*
Y402453D01*
X77117D01*
Y402643D01*
X76926D01*
Y402834D01*
Y403024D01*
Y403215D01*
X76545D01*
Y403405D01*
Y403596D01*
X76355D01*
Y403786D01*
Y403977D01*
X76164D01*
Y404167D01*
X75974D01*
Y404358D01*
Y404548D01*
D02*
G37*
G36*
X108254Y369931D02*
X108122D01*
X107859Y369912D01*
X107614Y369856D01*
X107427Y369762D01*
X107257Y369687D01*
X107126Y369593D01*
X107051Y369499D01*
X106994Y369443D01*
X106975Y369424D01*
X106844Y369236D01*
X106769Y369010D01*
X106693Y368785D01*
X106656Y368578D01*
X106637Y368390D01*
X106618Y368221D01*
Y368127D01*
Y368108D01*
Y368089D01*
X109682D01*
X109663Y368352D01*
X109626Y368597D01*
Y368672D01*
X109607Y368747D01*
X109588Y368785D01*
Y368803D01*
X109494Y369029D01*
X109400Y369217D01*
X109344Y369292D01*
X109325Y369349D01*
X109287Y369367D01*
Y369386D01*
X109118Y369555D01*
X108968Y369668D01*
X108836Y369762D01*
X108817Y369781D01*
X108799D01*
X108573Y369875D01*
X108348Y369912D01*
X108254Y369931D01*
D02*
G37*
G36*
X118441Y372262D02*
X117257D01*
X117069Y372243D01*
X116956Y372224D01*
X116918D01*
X116768Y372206D01*
X116655Y372187D01*
X116580Y372168D01*
X116561D01*
X116373Y372112D01*
X116204Y372018D01*
X116073Y371942D01*
X115979Y371867D01*
X115885Y371773D01*
X115828Y371717D01*
X115809Y371679D01*
X115791Y371660D01*
X115716Y371529D01*
X115640Y371379D01*
X115584Y371078D01*
X115565Y370965D01*
X115546Y370871D01*
Y370796D01*
Y370777D01*
X115565Y370533D01*
X115603Y370345D01*
X115640Y370270D01*
X115659Y370213D01*
X115678Y370176D01*
Y370157D01*
X115772Y369969D01*
X115885Y369800D01*
X115979Y369706D01*
X115997Y369687D01*
X116016Y369668D01*
X116204Y369537D01*
X116373Y369443D01*
X116467Y369405D01*
X116524Y369386D01*
X116561Y369367D01*
X116580D01*
X116843Y369311D01*
X117107Y369292D01*
X117200Y369273D01*
X118441D01*
Y372262D01*
D02*
G37*
G36*
X79082Y372394D02*
X79007D01*
X78800Y372375D01*
X78650Y372356D01*
X78537Y372337D01*
X78518Y372318D01*
X78499D01*
X78349Y372243D01*
X78218Y372168D01*
X78142Y372093D01*
X78105Y372055D01*
X77973Y371905D01*
X77879Y371754D01*
X77823Y371642D01*
X77804Y371604D01*
Y371585D01*
X77710Y371360D01*
X77654Y371115D01*
X77635Y371021D01*
X77616Y370946D01*
X77597Y370890D01*
Y370871D01*
X77541Y370533D01*
X77522Y370382D01*
X77503Y370213D01*
X77484Y370082D01*
X77466Y369969D01*
Y369894D01*
Y369875D01*
X77428Y369424D01*
Y369217D01*
X77409Y369010D01*
Y368822D01*
Y368691D01*
Y368597D01*
Y368559D01*
Y368334D01*
Y368127D01*
X77428Y367939D01*
Y367770D01*
Y367619D01*
X77447Y367525D01*
Y367450D01*
Y367431D01*
X77484Y367074D01*
X77503Y366924D01*
X77522Y366774D01*
X77541Y366661D01*
Y366586D01*
X77560Y366529D01*
Y366510D01*
X77616Y366228D01*
X77691Y366003D01*
X77729Y365928D01*
X77748Y365853D01*
X77766Y365815D01*
Y365796D01*
X77860Y365589D01*
X77954Y365439D01*
X78030Y365326D01*
X78067Y365308D01*
Y365289D01*
X78199Y365157D01*
X78330Y365063D01*
X78443Y365007D01*
X78462Y364988D01*
X78481D01*
X78669Y364932D01*
X78857Y364913D01*
X78932Y364894D01*
X79045D01*
X79327Y364913D01*
X79458Y364950D01*
X79552Y364988D01*
X79646Y365007D01*
X79702Y365044D01*
X79740Y365063D01*
X79759D01*
X79872Y365138D01*
X79966Y365232D01*
X80116Y365420D01*
X80172Y365514D01*
X80210Y365589D01*
X80247Y365646D01*
Y365665D01*
X80304Y365834D01*
X80379Y366022D01*
X80417Y366228D01*
X80454Y366416D01*
X80492Y366567D01*
X80511Y366717D01*
X80529Y366792D01*
Y366830D01*
X80548Y367131D01*
X80567Y367431D01*
X80586Y367751D01*
Y368052D01*
X80605Y368296D01*
Y368503D01*
Y368578D01*
Y368634D01*
Y368672D01*
Y368691D01*
Y369029D01*
X80586Y369330D01*
Y369612D01*
X80567Y369837D01*
Y370044D01*
X80548Y370176D01*
Y370270D01*
Y370307D01*
X80511Y370552D01*
X80473Y370777D01*
X80435Y370984D01*
X80379Y371134D01*
X80342Y371266D01*
X80323Y371379D01*
X80285Y371435D01*
Y371454D01*
X80210Y371623D01*
X80135Y371754D01*
X80041Y371886D01*
X79966Y371980D01*
X79909Y372055D01*
X79853Y372112D01*
X79815Y372130D01*
X79796Y372149D01*
X79665Y372224D01*
X79533Y372300D01*
X79289Y372356D01*
X79176Y372375D01*
X79082Y372394D01*
D02*
G37*
%LPD*%
D10*
X716000Y512123D02*
G03*
X777123Y451000I61123J0D01*
G01*
X0Y23877D02*
G03*
X-61123Y85000I-61123J-0D01*
G01*
X-85000Y536000D02*
X716000D01*
X0Y0D02*
X801000D01*
X-85000Y85000D02*
X-61123D01*
X777123Y451000D02*
X801000D01*
X801000Y0D02*
Y451000D01*
X-85000Y85000D02*
Y536000D01*
X0Y0D02*
Y23877D01*
X716000Y512123D02*
Y536000D01*
D22*
X425803Y74891D02*
X423137D01*
X424470D01*
Y70892D01*
X421804D02*
Y74891D01*
X419805D01*
X419138Y74224D01*
Y72891D01*
X419805Y72225D01*
X421804D01*
X417806Y70892D02*
X416473D01*
X417139D01*
Y74891D01*
X417806Y74224D01*
X412474Y70892D02*
Y74891D01*
X414473Y72891D01*
X411808D01*
X255241Y408642D02*
X252575D01*
X253908D01*
Y404644D01*
X251242D02*
Y408642D01*
X249243D01*
X248576Y407976D01*
Y406643D01*
X249243Y405976D01*
X251242D01*
X247243Y404644D02*
X245911D01*
X246577D01*
Y408642D01*
X247243Y407976D01*
X243911D02*
X243245Y408642D01*
X241912D01*
X241245Y407976D01*
Y407309D01*
X241912Y406643D01*
X242578D01*
X241912D01*
X241245Y405976D01*
Y405310D01*
X241912Y404644D01*
X243245D01*
X243911Y405310D01*
X281759Y274874D02*
X279093D01*
X280426D01*
Y270876D01*
X277761D02*
Y274874D01*
X275761D01*
X275095Y274208D01*
Y272875D01*
X275761Y272209D01*
X277761D01*
X273762Y270876D02*
X272429D01*
X273095D01*
Y274874D01*
X273762Y274208D01*
X267764Y270876D02*
X270430D01*
X267764Y273542D01*
Y274208D01*
X268430Y274874D01*
X269763D01*
X270430Y274208D01*
X566949Y45289D02*
X564283D01*
X565616D01*
Y41290D01*
X562950D02*
Y45289D01*
X560950D01*
X560284Y44622D01*
Y43289D01*
X560950Y42623D01*
X562950D01*
X558951Y41290D02*
X557618D01*
X558285D01*
Y45289D01*
X558951Y44622D01*
X555619Y41290D02*
X554286D01*
X554952D01*
Y45289D01*
X555619Y44622D01*
X531013Y458837D02*
X528347D01*
X529680D01*
Y454838D01*
X527014D02*
Y458837D01*
X525014D01*
X524348Y458170D01*
Y456837D01*
X525014Y456171D01*
X527014D01*
X523015Y454838D02*
X521682D01*
X522349D01*
Y458837D01*
X523015Y458170D01*
X519683D02*
X519016Y458837D01*
X517684D01*
X517017Y458170D01*
Y455504D01*
X517684Y454838D01*
X519016D01*
X519683Y455504D01*
Y458170D01*
X448619Y459251D02*
X445953D01*
X447286D01*
Y455252D01*
X444620D02*
Y459251D01*
X442621D01*
X441954Y458584D01*
Y457251D01*
X442621Y456585D01*
X444620D01*
X440621Y455919D02*
X439955Y455252D01*
X438622D01*
X437955Y455919D01*
Y458584D01*
X438622Y459251D01*
X439955D01*
X440621Y458584D01*
Y457918D01*
X439955Y457251D01*
X437955D01*
X609944Y499717D02*
X607278D01*
X608611D01*
Y495718D01*
X605945D02*
Y499717D01*
X603946D01*
X603279Y499050D01*
Y497717D01*
X603946Y497051D01*
X605945D01*
X601947Y499050D02*
X601280Y499717D01*
X599947D01*
X599281Y499050D01*
Y498384D01*
X599947Y497717D01*
X599281Y497051D01*
Y496385D01*
X599947Y495718D01*
X601280D01*
X601947Y496385D01*
Y497051D01*
X601280Y497717D01*
X601947Y498384D01*
Y499050D01*
X601280Y497717D02*
X599947D01*
M02*
