G04*
G04 #@! TF.GenerationSoftware,Altium Limited,Altium Designer,20.2.4 (192)*
G04*
G04 Layer_Color=8388736*
%FSLAX44Y44*%
%MOMM*%
G71*
G04*
G04 #@! TF.SameCoordinates,742EB62A-7AE8-4A69-8DF3-B4F61E8DB2E3*
G04*
G04*
G04 #@! TF.FilePolarity,Positive*
G04*
G01*
G75*
%ADD10C,0.2540*%
%ADD186C,0.0500*%
G36*
X3440Y571612D02*
X3656Y571578D01*
X3906Y571528D01*
X4156Y571462D01*
X4423Y571379D01*
X4673Y571245D01*
X4706Y571228D01*
X4773Y571179D01*
X4889Y571095D01*
X5039Y570979D01*
X5189Y570812D01*
X5356Y570629D01*
X5506Y570412D01*
X5639Y570145D01*
X5656Y570129D01*
X5672Y570046D01*
X5706Y569912D01*
X5756Y569729D01*
X5806Y569496D01*
X5839Y569196D01*
X5856Y568829D01*
X5872Y568413D01*
Y563081D01*
X3656D01*
Y567846D01*
Y567863D01*
Y567896D01*
Y567963D01*
Y568046D01*
X3640Y568263D01*
X3623Y568513D01*
X3606Y568779D01*
X3556Y569046D01*
X3506Y569279D01*
X3456Y569362D01*
X3423Y569446D01*
X3406Y569462D01*
X3356Y569529D01*
X3290Y569596D01*
X3190Y569696D01*
X3056Y569779D01*
X2890Y569862D01*
X2690Y569912D01*
X2473Y569929D01*
X2390D01*
X2307Y569912D01*
X2190Y569896D01*
X2057Y569862D01*
X1907Y569812D01*
X1740Y569746D01*
X1590Y569646D01*
X1573Y569629D01*
X1523Y569596D01*
X1457Y569529D01*
X1373Y569429D01*
X1274Y569312D01*
X1173Y569179D01*
X1090Y569012D01*
X1007Y568812D01*
Y568779D01*
X974Y568713D01*
X957Y568579D01*
X924Y568396D01*
X890Y568146D01*
X874Y567846D01*
X840Y567496D01*
Y567080D01*
Y563081D01*
X-1376D01*
Y567646D01*
Y567663D01*
Y567696D01*
Y567763D01*
Y567846D01*
Y568046D01*
X-1392Y568296D01*
X-1409Y568563D01*
X-1426Y568812D01*
X-1459Y569046D01*
X-1493Y569146D01*
X-1509Y569212D01*
Y569229D01*
X-1526Y569279D01*
X-1559Y569346D01*
X-1592Y569412D01*
X-1709Y569596D01*
X-1792Y569679D01*
X-1876Y569746D01*
X-1892Y569762D01*
X-1926Y569779D01*
X-1976Y569812D01*
X-2042Y569846D01*
X-2142Y569879D01*
X-2259Y569896D01*
X-2392Y569929D01*
X-2625D01*
X-2725Y569912D01*
X-2842Y569896D01*
X-2992Y569862D01*
X-3142Y569812D01*
X-3292Y569746D01*
X-3459Y569646D01*
X-3475Y569629D01*
X-3525Y569596D01*
X-3592Y569529D01*
X-3675Y569446D01*
X-3775Y569329D01*
X-3875Y569196D01*
X-3959Y569029D01*
X-4042Y568846D01*
Y568829D01*
X-4075Y568746D01*
X-4092Y568613D01*
X-4125Y568446D01*
X-4158Y568196D01*
X-4175Y567913D01*
X-4208Y567546D01*
Y567130D01*
Y563081D01*
X-6424D01*
Y571445D01*
X-4392D01*
Y570295D01*
X-4375Y570312D01*
X-4342Y570345D01*
X-4275Y570412D01*
X-4192Y570512D01*
X-4092Y570612D01*
X-3975Y570712D01*
X-3825Y570845D01*
X-3659Y570962D01*
X-3475Y571079D01*
X-3275Y571212D01*
X-2842Y571428D01*
X-2592Y571512D01*
X-2342Y571578D01*
X-2076Y571612D01*
X-1792Y571628D01*
X-1659D01*
X-1509Y571612D01*
X-1326Y571595D01*
X-1109Y571545D01*
X-876Y571495D01*
X-643Y571412D01*
X-409Y571295D01*
X-376Y571278D01*
X-309Y571228D01*
X-193Y571162D01*
X-60Y571045D01*
X91Y570895D01*
X257Y570729D01*
X424Y570512D01*
X574Y570279D01*
X607Y570312D01*
X674Y570395D01*
X774Y570512D01*
X924Y570662D01*
X1107Y570829D01*
X1307Y570995D01*
X1523Y571162D01*
X1757Y571295D01*
X1790Y571312D01*
X1873Y571345D01*
X2007Y571395D01*
X2173Y571462D01*
X2373Y571528D01*
X2607Y571578D01*
X2856Y571612D01*
X3123Y571628D01*
X3273D01*
X3440Y571612D01*
D02*
G37*
G36*
X-10890D02*
X-10673Y571578D01*
X-10424Y571528D01*
X-10174Y571462D01*
X-9907Y571379D01*
X-9657Y571245D01*
X-9624Y571228D01*
X-9557Y571179D01*
X-9440Y571095D01*
X-9291Y570979D01*
X-9140Y570812D01*
X-8974Y570629D01*
X-8824Y570412D01*
X-8691Y570145D01*
X-8674Y570129D01*
X-8657Y570046D01*
X-8624Y569912D01*
X-8574Y569729D01*
X-8524Y569496D01*
X-8491Y569196D01*
X-8474Y568829D01*
X-8457Y568413D01*
Y563081D01*
X-10673D01*
Y567846D01*
Y567863D01*
Y567896D01*
Y567963D01*
Y568046D01*
X-10690Y568263D01*
X-10707Y568513D01*
X-10723Y568779D01*
X-10773Y569046D01*
X-10823Y569279D01*
X-10873Y569362D01*
X-10907Y569446D01*
X-10923Y569462D01*
X-10973Y569529D01*
X-11040Y569596D01*
X-11140Y569696D01*
X-11273Y569779D01*
X-11440Y569862D01*
X-11640Y569912D01*
X-11856Y569929D01*
X-11940D01*
X-12023Y569912D01*
X-12140Y569896D01*
X-12273Y569862D01*
X-12423Y569812D01*
X-12590Y569746D01*
X-12740Y569646D01*
X-12756Y569629D01*
X-12806Y569596D01*
X-12873Y569529D01*
X-12956Y569429D01*
X-13056Y569312D01*
X-13156Y569179D01*
X-13239Y569012D01*
X-13323Y568812D01*
Y568779D01*
X-13356Y568713D01*
X-13373Y568579D01*
X-13406Y568396D01*
X-13439Y568146D01*
X-13456Y567846D01*
X-13489Y567496D01*
Y567080D01*
Y563081D01*
X-15705D01*
Y567646D01*
Y567663D01*
Y567696D01*
Y567763D01*
Y567846D01*
Y568046D01*
X-15722Y568296D01*
X-15739Y568563D01*
X-15755Y568812D01*
X-15789Y569046D01*
X-15822Y569146D01*
X-15839Y569212D01*
Y569229D01*
X-15855Y569279D01*
X-15889Y569346D01*
X-15922Y569412D01*
X-16039Y569596D01*
X-16122Y569679D01*
X-16205Y569746D01*
X-16222Y569762D01*
X-16255Y569779D01*
X-16305Y569812D01*
X-16372Y569846D01*
X-16472Y569879D01*
X-16589Y569896D01*
X-16722Y569929D01*
X-16955D01*
X-17055Y569912D01*
X-17172Y569896D01*
X-17322Y569862D01*
X-17472Y569812D01*
X-17622Y569746D01*
X-17788Y569646D01*
X-17805Y569629D01*
X-17855Y569596D01*
X-17922Y569529D01*
X-18005Y569446D01*
X-18105Y569329D01*
X-18205Y569196D01*
X-18288Y569029D01*
X-18371Y568846D01*
Y568829D01*
X-18405Y568746D01*
X-18421Y568613D01*
X-18455Y568446D01*
X-18488Y568196D01*
X-18505Y567913D01*
X-18538Y567546D01*
Y567130D01*
Y563081D01*
X-20754D01*
Y571445D01*
X-18721D01*
Y570295D01*
X-18705Y570312D01*
X-18671Y570345D01*
X-18605Y570412D01*
X-18521Y570512D01*
X-18421Y570612D01*
X-18305Y570712D01*
X-18155Y570845D01*
X-17988Y570962D01*
X-17805Y571079D01*
X-17605Y571212D01*
X-17172Y571428D01*
X-16922Y571512D01*
X-16672Y571578D01*
X-16405Y571612D01*
X-16122Y571628D01*
X-15989D01*
X-15839Y571612D01*
X-15655Y571595D01*
X-15439Y571545D01*
X-15206Y571495D01*
X-14972Y571412D01*
X-14739Y571295D01*
X-14706Y571278D01*
X-14639Y571228D01*
X-14522Y571162D01*
X-14389Y571045D01*
X-14239Y570895D01*
X-14073Y570729D01*
X-13906Y570512D01*
X-13756Y570279D01*
X-13723Y570312D01*
X-13656Y570395D01*
X-13556Y570512D01*
X-13406Y570662D01*
X-13223Y570829D01*
X-13023Y570995D01*
X-12806Y571162D01*
X-12573Y571295D01*
X-12540Y571312D01*
X-12456Y571345D01*
X-12323Y571395D01*
X-12156Y571462D01*
X-11956Y571528D01*
X-11723Y571578D01*
X-11473Y571612D01*
X-11207Y571628D01*
X-11057D01*
X-10890Y571612D01*
D02*
G37*
G36*
X-39583Y574661D02*
X-39433Y574644D01*
X-39283Y574628D01*
X-39100Y574594D01*
X-38916Y574544D01*
X-38500Y574428D01*
X-38283Y574344D01*
X-38050Y574228D01*
X-37833Y574111D01*
X-37633Y573978D01*
X-37417Y573811D01*
X-37233Y573628D01*
X-37217Y573611D01*
X-37200Y573595D01*
X-37150Y573545D01*
X-37100Y573478D01*
X-36967Y573311D01*
X-36817Y573078D01*
X-36667Y572795D01*
X-36550Y572462D01*
X-36450Y572095D01*
X-36433Y571912D01*
X-36417Y571712D01*
Y571695D01*
Y571645D01*
X-36433Y571562D01*
X-36450Y571462D01*
X-36467Y571329D01*
X-36500Y571179D01*
X-36550Y571012D01*
X-36617Y570829D01*
X-36717Y570645D01*
X-36817Y570445D01*
X-36950Y570245D01*
X-37117Y570046D01*
X-37317Y569846D01*
X-37533Y569646D01*
X-37783Y569462D01*
X-38083Y569279D01*
X-38066D01*
X-38033Y569262D01*
X-37983D01*
X-37917Y569229D01*
X-37733Y569179D01*
X-37517Y569079D01*
X-37267Y568946D01*
X-37000Y568779D01*
X-36733Y568563D01*
X-36500Y568313D01*
X-36467Y568279D01*
X-36400Y568179D01*
X-36317Y568029D01*
X-36200Y567813D01*
X-36084Y567563D01*
X-36000Y567246D01*
X-35934Y566913D01*
X-35900Y566530D01*
Y566513D01*
Y566463D01*
Y566380D01*
X-35917Y566280D01*
X-35934Y566147D01*
X-35967Y565997D01*
X-36000Y565813D01*
X-36034Y565630D01*
X-36167Y565230D01*
X-36267Y565013D01*
X-36367Y564780D01*
X-36500Y564564D01*
X-36650Y564347D01*
X-36817Y564130D01*
X-37017Y563930D01*
X-37033Y563914D01*
X-37067Y563880D01*
X-37133Y563830D01*
X-37217Y563764D01*
X-37333Y563680D01*
X-37450Y563597D01*
X-37617Y563497D01*
X-37783Y563397D01*
X-37966Y563297D01*
X-38183Y563197D01*
X-38416Y563114D01*
X-38650Y563031D01*
X-38916Y562964D01*
X-39183Y562914D01*
X-39483Y562881D01*
X-39783Y562864D01*
X-39933D01*
X-40049Y562881D01*
X-40182Y562897D01*
X-40332Y562914D01*
X-40499Y562947D01*
X-40699Y562981D01*
X-41099Y563081D01*
X-41532Y563247D01*
X-41765Y563347D01*
X-41965Y563464D01*
X-42182Y563614D01*
X-42382Y563764D01*
X-42399Y563780D01*
X-42432Y563814D01*
X-42482Y563864D01*
X-42549Y563930D01*
X-42632Y564014D01*
X-42715Y564130D01*
X-42815Y564247D01*
X-42915Y564397D01*
X-43015Y564564D01*
X-43132Y564730D01*
X-43315Y565130D01*
X-43465Y565597D01*
X-43532Y565847D01*
X-43565Y566113D01*
X-41432Y566380D01*
Y566363D01*
Y566346D01*
X-41416Y566246D01*
X-41382Y566096D01*
X-41332Y565913D01*
X-41249Y565713D01*
X-41166Y565497D01*
X-41032Y565297D01*
X-40882Y565113D01*
X-40866Y565097D01*
X-40799Y565047D01*
X-40699Y564980D01*
X-40582Y564913D01*
X-40416Y564830D01*
X-40233Y564763D01*
X-40033Y564714D01*
X-39799Y564697D01*
X-39766D01*
X-39683Y564714D01*
X-39566Y564730D01*
X-39399Y564763D01*
X-39216Y564830D01*
X-39033Y564913D01*
X-38833Y565047D01*
X-38650Y565213D01*
X-38633Y565230D01*
X-38566Y565313D01*
X-38500Y565430D01*
X-38400Y565580D01*
X-38316Y565780D01*
X-38233Y566030D01*
X-38183Y566313D01*
X-38166Y566630D01*
Y566646D01*
Y566663D01*
Y566763D01*
X-38183Y566913D01*
X-38216Y567113D01*
X-38283Y567329D01*
X-38366Y567546D01*
X-38483Y567763D01*
X-38633Y567963D01*
X-38650Y567979D01*
X-38716Y568046D01*
X-38816Y568129D01*
X-38933Y568213D01*
X-39100Y568313D01*
X-39283Y568379D01*
X-39483Y568446D01*
X-39716Y568463D01*
X-39883D01*
X-39999Y568446D01*
X-40149Y568429D01*
X-40332Y568396D01*
X-40516Y568346D01*
X-40732Y568296D01*
X-40499Y570079D01*
X-40349D01*
X-40182Y570095D01*
X-39983Y570112D01*
X-39766Y570162D01*
X-39533Y570229D01*
X-39316Y570329D01*
X-39116Y570462D01*
X-39100Y570479D01*
X-39033Y570545D01*
X-38966Y570629D01*
X-38866Y570762D01*
X-38783Y570912D01*
X-38700Y571095D01*
X-38650Y571312D01*
X-38633Y571562D01*
Y571595D01*
Y571662D01*
X-38650Y571762D01*
X-38683Y571895D01*
X-38716Y572045D01*
X-38783Y572195D01*
X-38866Y572362D01*
X-38983Y572495D01*
X-39000Y572511D01*
X-39049Y572545D01*
X-39116Y572612D01*
X-39233Y572678D01*
X-39366Y572728D01*
X-39516Y572795D01*
X-39716Y572828D01*
X-39916Y572845D01*
X-40016D01*
X-40116Y572828D01*
X-40249Y572795D01*
X-40399Y572745D01*
X-40566Y572678D01*
X-40732Y572578D01*
X-40882Y572445D01*
X-40899Y572428D01*
X-40949Y572378D01*
X-41016Y572278D01*
X-41099Y572145D01*
X-41182Y571995D01*
X-41249Y571795D01*
X-41316Y571562D01*
X-41366Y571295D01*
X-43398Y571628D01*
Y571645D01*
X-43382Y571678D01*
Y571728D01*
X-43365Y571812D01*
X-43315Y571995D01*
X-43248Y572245D01*
X-43148Y572511D01*
X-43049Y572795D01*
X-42915Y573061D01*
X-42765Y573311D01*
X-42749Y573345D01*
X-42682Y573411D01*
X-42582Y573528D01*
X-42449Y573678D01*
X-42282Y573828D01*
X-42082Y573994D01*
X-41832Y574161D01*
X-41565Y574311D01*
X-41549D01*
X-41532Y574328D01*
X-41432Y574361D01*
X-41266Y574428D01*
X-41066Y574494D01*
X-40816Y574561D01*
X-40516Y574628D01*
X-40199Y574661D01*
X-39849Y574678D01*
X-39699D01*
X-39583Y574661D01*
D02*
G37*
G36*
X-22754Y572395D02*
X-26936D01*
X-27286Y570429D01*
X-27269D01*
X-27253Y570445D01*
X-27153Y570495D01*
X-27003Y570545D01*
X-26819Y570629D01*
X-26586Y570695D01*
X-26336Y570745D01*
X-26053Y570795D01*
X-25770Y570812D01*
X-25620D01*
X-25520Y570795D01*
X-25403Y570779D01*
X-25253Y570762D01*
X-25086Y570729D01*
X-24903Y570679D01*
X-24520Y570545D01*
X-24303Y570462D01*
X-24103Y570362D01*
X-23887Y570229D01*
X-23670Y570079D01*
X-23470Y569912D01*
X-23270Y569729D01*
X-23254Y569712D01*
X-23220Y569679D01*
X-23170Y569612D01*
X-23104Y569529D01*
X-23037Y569429D01*
X-22937Y569296D01*
X-22854Y569146D01*
X-22754Y568979D01*
X-22654Y568796D01*
X-22570Y568579D01*
X-22470Y568346D01*
X-22404Y568113D01*
X-22337Y567846D01*
X-22287Y567563D01*
X-22254Y567263D01*
X-22237Y566946D01*
Y566930D01*
Y566880D01*
Y566813D01*
X-22254Y566713D01*
Y566580D01*
X-22287Y566430D01*
X-22304Y566263D01*
X-22337Y566096D01*
X-22437Y565697D01*
X-22587Y565263D01*
X-22687Y565030D01*
X-22787Y564813D01*
X-22920Y564597D01*
X-23070Y564380D01*
X-23087Y564364D01*
X-23120Y564314D01*
X-23187Y564247D01*
X-23270Y564147D01*
X-23387Y564030D01*
X-23537Y563897D01*
X-23703Y563764D01*
X-23887Y563630D01*
X-24103Y563480D01*
X-24337Y563347D01*
X-24587Y563214D01*
X-24870Y563097D01*
X-25170Y562997D01*
X-25486Y562931D01*
X-25836Y562881D01*
X-26203Y562864D01*
X-26353D01*
X-26469Y562881D01*
X-26603Y562897D01*
X-26769Y562914D01*
X-26936Y562931D01*
X-27136Y562964D01*
X-27536Y563064D01*
X-27986Y563231D01*
X-28202Y563314D01*
X-28419Y563430D01*
X-28619Y563564D01*
X-28819Y563714D01*
X-28835Y563730D01*
X-28869Y563747D01*
X-28919Y563797D01*
X-28985Y563864D01*
X-29052Y563964D01*
X-29152Y564064D01*
X-29235Y564180D01*
X-29335Y564314D01*
X-29452Y564480D01*
X-29552Y564647D01*
X-29735Y565047D01*
X-29902Y565497D01*
X-29952Y565747D01*
X-30002Y566013D01*
X-27802Y566246D01*
Y566213D01*
X-27786Y566130D01*
X-27752Y565980D01*
X-27702Y565813D01*
X-27636Y565630D01*
X-27536Y565430D01*
X-27403Y565247D01*
X-27253Y565063D01*
X-27236Y565047D01*
X-27169Y564997D01*
X-27069Y564930D01*
X-26936Y564847D01*
X-26786Y564763D01*
X-26603Y564697D01*
X-26386Y564647D01*
X-26170Y564630D01*
X-26136D01*
X-26053Y564647D01*
X-25919Y564664D01*
X-25753Y564697D01*
X-25570Y564763D01*
X-25370Y564864D01*
X-25170Y565013D01*
X-24986Y565197D01*
X-24970Y565230D01*
X-24903Y565297D01*
X-24836Y565430D01*
X-24736Y565630D01*
X-24653Y565863D01*
X-24570Y566147D01*
X-24520Y566496D01*
X-24503Y566896D01*
Y566913D01*
Y566946D01*
Y566996D01*
Y567080D01*
X-24520Y567263D01*
X-24570Y567496D01*
X-24620Y567763D01*
X-24703Y568029D01*
X-24820Y568279D01*
X-24986Y568496D01*
X-25003Y568513D01*
X-25070Y568579D01*
X-25186Y568662D01*
X-25320Y568779D01*
X-25503Y568879D01*
X-25720Y568962D01*
X-25970Y569029D01*
X-26236Y569046D01*
X-26336D01*
X-26403Y569029D01*
X-26569Y568996D01*
X-26803Y568946D01*
X-27069Y568846D01*
X-27352Y568696D01*
X-27503Y568596D01*
X-27652Y568479D01*
X-27802Y568346D01*
X-27952Y568196D01*
X-29735Y568446D01*
X-28602Y574461D01*
X-22754D01*
Y572395D01*
D02*
G37*
G36*
X-31835Y563081D02*
X-34051D01*
Y565297D01*
X-31835D01*
Y563081D01*
D02*
G37*
G36*
X-97521Y554848D02*
X-97305Y554814D01*
X-97055Y554764D01*
X-96805Y554698D01*
X-96538Y554614D01*
X-96288Y554481D01*
X-96255Y554464D01*
X-96188Y554414D01*
X-96072Y554331D01*
X-95922Y554215D01*
X-95772Y554048D01*
X-95605Y553865D01*
X-95455Y553648D01*
X-95322Y553382D01*
X-95305Y553365D01*
X-95289Y553282D01*
X-95255Y553148D01*
X-95205Y552965D01*
X-95155Y552732D01*
X-95122Y552432D01*
X-95105Y552065D01*
X-95089Y551649D01*
Y546317D01*
X-97305D01*
Y551082D01*
Y551099D01*
Y551132D01*
Y551199D01*
Y551282D01*
X-97321Y551499D01*
X-97338Y551749D01*
X-97355Y552015D01*
X-97405Y552282D01*
X-97455Y552515D01*
X-97505Y552598D01*
X-97538Y552682D01*
X-97555Y552698D01*
X-97605Y552765D01*
X-97671Y552832D01*
X-97771Y552932D01*
X-97905Y553015D01*
X-98071Y553098D01*
X-98271Y553148D01*
X-98488Y553165D01*
X-98571D01*
X-98654Y553148D01*
X-98771Y553131D01*
X-98904Y553098D01*
X-99054Y553048D01*
X-99221Y552982D01*
X-99371Y552882D01*
X-99388Y552865D01*
X-99438Y552832D01*
X-99504Y552765D01*
X-99587Y552665D01*
X-99688Y552548D01*
X-99788Y552415D01*
X-99871Y552248D01*
X-99954Y552048D01*
Y552015D01*
X-99987Y551949D01*
X-100004Y551815D01*
X-100037Y551632D01*
X-100071Y551382D01*
X-100087Y551082D01*
X-100121Y550732D01*
Y550316D01*
Y546317D01*
X-102337D01*
Y550882D01*
Y550899D01*
Y550932D01*
Y550999D01*
Y551082D01*
Y551282D01*
X-102353Y551532D01*
X-102370Y551799D01*
X-102387Y552048D01*
X-102420Y552282D01*
X-102453Y552382D01*
X-102470Y552448D01*
Y552465D01*
X-102487Y552515D01*
X-102520Y552582D01*
X-102553Y552648D01*
X-102670Y552832D01*
X-102753Y552915D01*
X-102837Y552982D01*
X-102853Y552998D01*
X-102887Y553015D01*
X-102937Y553048D01*
X-103003Y553082D01*
X-103103Y553115D01*
X-103220Y553131D01*
X-103353Y553165D01*
X-103587D01*
X-103687Y553148D01*
X-103803Y553131D01*
X-103953Y553098D01*
X-104103Y553048D01*
X-104253Y552982D01*
X-104420Y552882D01*
X-104436Y552865D01*
X-104486Y552832D01*
X-104553Y552765D01*
X-104636Y552682D01*
X-104736Y552565D01*
X-104836Y552432D01*
X-104920Y552265D01*
X-105003Y552082D01*
Y552065D01*
X-105036Y551982D01*
X-105053Y551848D01*
X-105086Y551682D01*
X-105119Y551432D01*
X-105136Y551149D01*
X-105169Y550782D01*
Y550366D01*
Y546317D01*
X-107386D01*
Y554681D01*
X-105353D01*
Y553531D01*
X-105336Y553548D01*
X-105303Y553581D01*
X-105236Y553648D01*
X-105153Y553748D01*
X-105053Y553848D01*
X-104936Y553948D01*
X-104786Y554081D01*
X-104620Y554198D01*
X-104436Y554315D01*
X-104236Y554448D01*
X-103803Y554664D01*
X-103553Y554748D01*
X-103303Y554814D01*
X-103037Y554848D01*
X-102753Y554864D01*
X-102620D01*
X-102470Y554848D01*
X-102287Y554831D01*
X-102070Y554781D01*
X-101837Y554731D01*
X-101604Y554648D01*
X-101370Y554531D01*
X-101337Y554515D01*
X-101270Y554464D01*
X-101154Y554398D01*
X-101020Y554281D01*
X-100871Y554131D01*
X-100704Y553965D01*
X-100537Y553748D01*
X-100387Y553515D01*
X-100354Y553548D01*
X-100287Y553631D01*
X-100187Y553748D01*
X-100037Y553898D01*
X-99854Y554065D01*
X-99654Y554231D01*
X-99438Y554398D01*
X-99204Y554531D01*
X-99171Y554548D01*
X-99088Y554581D01*
X-98954Y554631D01*
X-98788Y554698D01*
X-98588Y554764D01*
X-98355Y554814D01*
X-98105Y554848D01*
X-97838Y554864D01*
X-97688D01*
X-97521Y554848D01*
D02*
G37*
G36*
X-111851D02*
X-111634Y554814D01*
X-111384Y554764D01*
X-111135Y554698D01*
X-110868Y554614D01*
X-110618Y554481D01*
X-110585Y554464D01*
X-110518Y554414D01*
X-110401Y554331D01*
X-110251Y554215D01*
X-110101Y554048D01*
X-109935Y553865D01*
X-109785Y553648D01*
X-109652Y553382D01*
X-109635Y553365D01*
X-109618Y553282D01*
X-109585Y553148D01*
X-109535Y552965D01*
X-109485Y552732D01*
X-109452Y552432D01*
X-109435Y552065D01*
X-109418Y551649D01*
Y546317D01*
X-111634D01*
Y551082D01*
Y551099D01*
Y551132D01*
Y551199D01*
Y551282D01*
X-111651Y551499D01*
X-111668Y551749D01*
X-111684Y552015D01*
X-111734Y552282D01*
X-111784Y552515D01*
X-111834Y552598D01*
X-111868Y552682D01*
X-111884Y552698D01*
X-111934Y552765D01*
X-112001Y552832D01*
X-112101Y552932D01*
X-112234Y553015D01*
X-112401Y553098D01*
X-112601Y553148D01*
X-112817Y553165D01*
X-112901D01*
X-112984Y553148D01*
X-113101Y553131D01*
X-113234Y553098D01*
X-113384Y553048D01*
X-113551Y552982D01*
X-113701Y552882D01*
X-113717Y552865D01*
X-113767Y552832D01*
X-113834Y552765D01*
X-113917Y552665D01*
X-114017Y552548D01*
X-114117Y552415D01*
X-114200Y552248D01*
X-114284Y552048D01*
Y552015D01*
X-114317Y551949D01*
X-114334Y551815D01*
X-114367Y551632D01*
X-114400Y551382D01*
X-114417Y551082D01*
X-114450Y550732D01*
Y550316D01*
Y546317D01*
X-116666D01*
Y550882D01*
Y550899D01*
Y550932D01*
Y550999D01*
Y551082D01*
Y551282D01*
X-116683Y551532D01*
X-116700Y551799D01*
X-116716Y552048D01*
X-116750Y552282D01*
X-116783Y552382D01*
X-116800Y552448D01*
Y552465D01*
X-116816Y552515D01*
X-116850Y552582D01*
X-116883Y552648D01*
X-117000Y552832D01*
X-117083Y552915D01*
X-117166Y552982D01*
X-117183Y552998D01*
X-117216Y553015D01*
X-117266Y553048D01*
X-117333Y553082D01*
X-117433Y553115D01*
X-117550Y553131D01*
X-117683Y553165D01*
X-117916D01*
X-118016Y553148D01*
X-118133Y553131D01*
X-118283Y553098D01*
X-118433Y553048D01*
X-118583Y552982D01*
X-118749Y552882D01*
X-118766Y552865D01*
X-118816Y552832D01*
X-118883Y552765D01*
X-118966Y552682D01*
X-119066Y552565D01*
X-119166Y552432D01*
X-119249Y552265D01*
X-119333Y552082D01*
Y552065D01*
X-119366Y551982D01*
X-119382Y551848D01*
X-119416Y551682D01*
X-119449Y551432D01*
X-119466Y551149D01*
X-119499Y550782D01*
Y550366D01*
Y546317D01*
X-121715D01*
Y554681D01*
X-119682D01*
Y553531D01*
X-119666Y553548D01*
X-119632Y553581D01*
X-119566Y553648D01*
X-119482Y553748D01*
X-119382Y553848D01*
X-119266Y553948D01*
X-119116Y554081D01*
X-118949Y554198D01*
X-118766Y554315D01*
X-118566Y554448D01*
X-118133Y554664D01*
X-117883Y554748D01*
X-117633Y554814D01*
X-117366Y554848D01*
X-117083Y554864D01*
X-116950D01*
X-116800Y554848D01*
X-116616Y554831D01*
X-116400Y554781D01*
X-116167Y554731D01*
X-115933Y554648D01*
X-115700Y554531D01*
X-115667Y554515D01*
X-115600Y554464D01*
X-115483Y554398D01*
X-115350Y554281D01*
X-115200Y554131D01*
X-115034Y553965D01*
X-114867Y553748D01*
X-114717Y553515D01*
X-114684Y553548D01*
X-114617Y553631D01*
X-114517Y553748D01*
X-114367Y553898D01*
X-114184Y554065D01*
X-113984Y554231D01*
X-113767Y554398D01*
X-113534Y554531D01*
X-113501Y554548D01*
X-113417Y554581D01*
X-113284Y554631D01*
X-113117Y554698D01*
X-112917Y554764D01*
X-112684Y554814D01*
X-112434Y554848D01*
X-112168Y554864D01*
X-112018D01*
X-111851Y554848D01*
D02*
G37*
G36*
X-140544Y557897D02*
X-140394Y557880D01*
X-140244Y557864D01*
X-140061Y557830D01*
X-139877Y557780D01*
X-139461Y557664D01*
X-139244Y557580D01*
X-139011Y557464D01*
X-138794Y557347D01*
X-138594Y557214D01*
X-138378Y557047D01*
X-138194Y556864D01*
X-138178Y556847D01*
X-138161Y556831D01*
X-138111Y556781D01*
X-138061Y556714D01*
X-137928Y556547D01*
X-137778Y556314D01*
X-137628Y556031D01*
X-137511Y555698D01*
X-137411Y555331D01*
X-137395Y555148D01*
X-137378Y554948D01*
Y554931D01*
Y554881D01*
X-137395Y554798D01*
X-137411Y554698D01*
X-137428Y554565D01*
X-137461Y554414D01*
X-137511Y554248D01*
X-137578Y554065D01*
X-137678Y553881D01*
X-137778Y553681D01*
X-137911Y553481D01*
X-138078Y553282D01*
X-138278Y553082D01*
X-138494Y552882D01*
X-138744Y552698D01*
X-139044Y552515D01*
X-139027D01*
X-138994Y552498D01*
X-138944D01*
X-138877Y552465D01*
X-138694Y552415D01*
X-138477Y552315D01*
X-138228Y552182D01*
X-137961Y552015D01*
X-137694Y551799D01*
X-137461Y551549D01*
X-137428Y551515D01*
X-137361Y551415D01*
X-137278Y551265D01*
X-137161Y551049D01*
X-137045Y550799D01*
X-136961Y550482D01*
X-136895Y550149D01*
X-136861Y549766D01*
Y549749D01*
Y549699D01*
Y549616D01*
X-136878Y549516D01*
X-136895Y549383D01*
X-136928Y549232D01*
X-136961Y549049D01*
X-136995Y548866D01*
X-137128Y548466D01*
X-137228Y548249D01*
X-137328Y548016D01*
X-137461Y547800D01*
X-137611Y547583D01*
X-137778Y547366D01*
X-137978Y547166D01*
X-137994Y547150D01*
X-138028Y547116D01*
X-138094Y547066D01*
X-138178Y547000D01*
X-138294Y546917D01*
X-138411Y546833D01*
X-138577Y546733D01*
X-138744Y546633D01*
X-138927Y546533D01*
X-139144Y546433D01*
X-139377Y546350D01*
X-139611Y546267D01*
X-139877Y546200D01*
X-140144Y546150D01*
X-140444Y546117D01*
X-140744Y546100D01*
X-140894D01*
X-141010Y546117D01*
X-141144Y546133D01*
X-141293Y546150D01*
X-141460Y546183D01*
X-141660Y546217D01*
X-142060Y546317D01*
X-142493Y546483D01*
X-142726Y546583D01*
X-142926Y546700D01*
X-143143Y546850D01*
X-143343Y547000D01*
X-143360Y547016D01*
X-143393Y547050D01*
X-143443Y547100D01*
X-143510Y547166D01*
X-143593Y547250D01*
X-143676Y547366D01*
X-143776Y547483D01*
X-143876Y547633D01*
X-143976Y547800D01*
X-144093Y547966D01*
X-144276Y548366D01*
X-144426Y548833D01*
X-144493Y549083D01*
X-144526Y549349D01*
X-142393Y549616D01*
Y549599D01*
Y549582D01*
X-142377Y549482D01*
X-142343Y549333D01*
X-142293Y549149D01*
X-142210Y548949D01*
X-142127Y548733D01*
X-141993Y548533D01*
X-141843Y548349D01*
X-141827Y548333D01*
X-141760Y548283D01*
X-141660Y548216D01*
X-141543Y548149D01*
X-141377Y548066D01*
X-141194Y547999D01*
X-140994Y547949D01*
X-140760Y547933D01*
X-140727D01*
X-140644Y547949D01*
X-140527Y547966D01*
X-140360Y547999D01*
X-140177Y548066D01*
X-139994Y548149D01*
X-139794Y548283D01*
X-139611Y548449D01*
X-139594Y548466D01*
X-139527Y548549D01*
X-139461Y548666D01*
X-139361Y548816D01*
X-139277Y549016D01*
X-139194Y549266D01*
X-139144Y549549D01*
X-139127Y549866D01*
Y549882D01*
Y549899D01*
Y549999D01*
X-139144Y550149D01*
X-139177Y550349D01*
X-139244Y550565D01*
X-139327Y550782D01*
X-139444Y550999D01*
X-139594Y551199D01*
X-139611Y551215D01*
X-139677Y551282D01*
X-139777Y551365D01*
X-139894Y551449D01*
X-140061Y551549D01*
X-140244Y551615D01*
X-140444Y551682D01*
X-140677Y551699D01*
X-140844D01*
X-140960Y551682D01*
X-141110Y551665D01*
X-141293Y551632D01*
X-141477Y551582D01*
X-141693Y551532D01*
X-141460Y553315D01*
X-141310D01*
X-141144Y553331D01*
X-140944Y553348D01*
X-140727Y553398D01*
X-140494Y553465D01*
X-140277Y553565D01*
X-140077Y553698D01*
X-140061Y553715D01*
X-139994Y553781D01*
X-139927Y553865D01*
X-139827Y553998D01*
X-139744Y554148D01*
X-139661Y554331D01*
X-139611Y554548D01*
X-139594Y554798D01*
Y554831D01*
Y554898D01*
X-139611Y554998D01*
X-139644Y555131D01*
X-139677Y555281D01*
X-139744Y555431D01*
X-139827Y555598D01*
X-139944Y555731D01*
X-139960Y555747D01*
X-140010Y555781D01*
X-140077Y555848D01*
X-140194Y555914D01*
X-140327Y555964D01*
X-140477Y556031D01*
X-140677Y556064D01*
X-140877Y556081D01*
X-140977D01*
X-141077Y556064D01*
X-141210Y556031D01*
X-141360Y555981D01*
X-141527Y555914D01*
X-141693Y555814D01*
X-141843Y555681D01*
X-141860Y555664D01*
X-141910Y555614D01*
X-141977Y555514D01*
X-142060Y555381D01*
X-142143Y555231D01*
X-142210Y555031D01*
X-142277Y554798D01*
X-142327Y554531D01*
X-144359Y554864D01*
Y554881D01*
X-144343Y554914D01*
Y554964D01*
X-144326Y555048D01*
X-144276Y555231D01*
X-144209Y555481D01*
X-144109Y555747D01*
X-144010Y556031D01*
X-143876Y556297D01*
X-143726Y556547D01*
X-143709Y556581D01*
X-143643Y556647D01*
X-143543Y556764D01*
X-143410Y556914D01*
X-143243Y557064D01*
X-143043Y557230D01*
X-142793Y557397D01*
X-142527Y557547D01*
X-142510D01*
X-142493Y557564D01*
X-142393Y557597D01*
X-142227Y557664D01*
X-142027Y557730D01*
X-141777Y557797D01*
X-141477Y557864D01*
X-141160Y557897D01*
X-140810Y557914D01*
X-140660D01*
X-140544Y557897D01*
D02*
G37*
G36*
X-123715Y555631D02*
X-127897D01*
X-128247Y553665D01*
X-128230D01*
X-128214Y553681D01*
X-128113Y553731D01*
X-127964Y553781D01*
X-127780Y553865D01*
X-127547Y553931D01*
X-127297Y553981D01*
X-127014Y554031D01*
X-126731Y554048D01*
X-126581D01*
X-126481Y554031D01*
X-126364Y554015D01*
X-126214Y553998D01*
X-126047Y553965D01*
X-125864Y553915D01*
X-125481Y553781D01*
X-125264Y553698D01*
X-125064Y553598D01*
X-124848Y553465D01*
X-124631Y553315D01*
X-124431Y553148D01*
X-124231Y552965D01*
X-124214Y552948D01*
X-124181Y552915D01*
X-124131Y552848D01*
X-124065Y552765D01*
X-123998Y552665D01*
X-123898Y552532D01*
X-123815Y552382D01*
X-123715Y552215D01*
X-123615Y552032D01*
X-123531Y551815D01*
X-123431Y551582D01*
X-123365Y551349D01*
X-123298Y551082D01*
X-123248Y550799D01*
X-123215Y550499D01*
X-123198Y550182D01*
Y550166D01*
Y550116D01*
Y550049D01*
X-123215Y549949D01*
Y549816D01*
X-123248Y549666D01*
X-123265Y549499D01*
X-123298Y549333D01*
X-123398Y548933D01*
X-123548Y548499D01*
X-123648Y548266D01*
X-123748Y548050D01*
X-123881Y547833D01*
X-124031Y547616D01*
X-124048Y547600D01*
X-124081Y547550D01*
X-124148Y547483D01*
X-124231Y547383D01*
X-124348Y547266D01*
X-124498Y547133D01*
X-124664Y547000D01*
X-124848Y546866D01*
X-125064Y546716D01*
X-125298Y546583D01*
X-125548Y546450D01*
X-125831Y546333D01*
X-126131Y546233D01*
X-126447Y546167D01*
X-126797Y546117D01*
X-127164Y546100D01*
X-127314D01*
X-127430Y546117D01*
X-127564Y546133D01*
X-127730Y546150D01*
X-127897Y546167D01*
X-128097Y546200D01*
X-128497Y546300D01*
X-128947Y546467D01*
X-129163Y546550D01*
X-129380Y546666D01*
X-129580Y546800D01*
X-129780Y546950D01*
X-129796Y546966D01*
X-129830Y546983D01*
X-129880Y547033D01*
X-129946Y547100D01*
X-130013Y547200D01*
X-130113Y547300D01*
X-130196Y547416D01*
X-130296Y547550D01*
X-130413Y547716D01*
X-130513Y547883D01*
X-130696Y548283D01*
X-130863Y548733D01*
X-130913Y548983D01*
X-130963Y549249D01*
X-128763Y549482D01*
Y549449D01*
X-128747Y549366D01*
X-128713Y549216D01*
X-128663Y549049D01*
X-128597Y548866D01*
X-128497Y548666D01*
X-128364Y548483D01*
X-128214Y548299D01*
X-128197Y548283D01*
X-128130Y548233D01*
X-128030Y548166D01*
X-127897Y548083D01*
X-127747Y547999D01*
X-127564Y547933D01*
X-127347Y547883D01*
X-127130Y547866D01*
X-127097D01*
X-127014Y547883D01*
X-126881Y547900D01*
X-126714Y547933D01*
X-126531Y547999D01*
X-126331Y548100D01*
X-126131Y548249D01*
X-125947Y548433D01*
X-125931Y548466D01*
X-125864Y548533D01*
X-125798Y548666D01*
X-125697Y548866D01*
X-125614Y549099D01*
X-125531Y549383D01*
X-125481Y549732D01*
X-125464Y550132D01*
Y550149D01*
Y550182D01*
Y550232D01*
Y550316D01*
X-125481Y550499D01*
X-125531Y550732D01*
X-125581Y550999D01*
X-125664Y551265D01*
X-125781Y551515D01*
X-125947Y551732D01*
X-125964Y551749D01*
X-126031Y551815D01*
X-126147Y551898D01*
X-126281Y552015D01*
X-126464Y552115D01*
X-126681Y552198D01*
X-126931Y552265D01*
X-127197Y552282D01*
X-127297D01*
X-127364Y552265D01*
X-127530Y552232D01*
X-127764Y552182D01*
X-128030Y552082D01*
X-128314Y551932D01*
X-128463Y551832D01*
X-128613Y551715D01*
X-128763Y551582D01*
X-128913Y551432D01*
X-130696Y551682D01*
X-129563Y557697D01*
X-123715D01*
Y555631D01*
D02*
G37*
G36*
X-132796Y546317D02*
X-135012D01*
Y548533D01*
X-132796D01*
Y546317D01*
D02*
G37*
G36*
X790040Y508129D02*
X790157D01*
X790290Y508112D01*
X790590Y508046D01*
X790923Y507962D01*
X791290Y507829D01*
X791656Y507646D01*
X791823Y507529D01*
X791990Y507396D01*
X792006D01*
X792023Y507362D01*
X792073Y507312D01*
X792123Y507262D01*
X792206Y507179D01*
X792273Y507096D01*
X792456Y506863D01*
X792639Y506546D01*
X792823Y506179D01*
X792989Y505763D01*
X793106Y505263D01*
X790973Y505030D01*
Y505063D01*
X790957Y505130D01*
X790923Y505246D01*
X790890Y505396D01*
X790840Y505546D01*
X790757Y505713D01*
X790673Y505863D01*
X790557Y505996D01*
X790540Y506013D01*
X790490Y506046D01*
X790423Y506096D01*
X790323Y506163D01*
X790207Y506213D01*
X790057Y506263D01*
X789874Y506296D01*
X789690Y506313D01*
X789657D01*
X789574Y506296D01*
X789440Y506279D01*
X789274Y506229D01*
X789090Y506163D01*
X788891Y506046D01*
X788690Y505896D01*
X788507Y505680D01*
X788491Y505646D01*
X788457Y505613D01*
X788424Y505546D01*
X788391Y505480D01*
X788341Y505380D01*
X788307Y505263D01*
X788257Y505113D01*
X788191Y504946D01*
X788141Y504763D01*
X788091Y504547D01*
X788041Y504313D01*
X787991Y504047D01*
X787957Y503747D01*
X787924Y503413D01*
X787891Y503064D01*
X787907Y503080D01*
X787924Y503114D01*
X787974Y503147D01*
X788041Y503214D01*
X788124Y503297D01*
X788224Y503380D01*
X788457Y503563D01*
X788757Y503730D01*
X789107Y503897D01*
X789307Y503963D01*
X789507Y503997D01*
X789724Y504030D01*
X789957Y504047D01*
X790090D01*
X790190Y504030D01*
X790307Y504013D01*
X790440Y503997D01*
X790607Y503963D01*
X790773Y503913D01*
X791140Y503780D01*
X791340Y503697D01*
X791540Y503597D01*
X791740Y503480D01*
X791940Y503330D01*
X792140Y503163D01*
X792323Y502980D01*
X792340Y502964D01*
X792373Y502930D01*
X792423Y502880D01*
X792473Y502797D01*
X792556Y502680D01*
X792639Y502564D01*
X792723Y502414D01*
X792823Y502247D01*
X792923Y502064D01*
X793006Y501847D01*
X793089Y501631D01*
X793173Y501381D01*
X793223Y501131D01*
X793273Y500847D01*
X793306Y500564D01*
X793323Y500248D01*
Y500231D01*
Y500164D01*
Y500081D01*
X793306Y499948D01*
X793289Y499798D01*
X793273Y499631D01*
X793239Y499431D01*
X793189Y499231D01*
X793073Y498765D01*
X792989Y498531D01*
X792873Y498298D01*
X792756Y498065D01*
X792623Y497831D01*
X792456Y497598D01*
X792273Y497398D01*
X792256Y497382D01*
X792223Y497348D01*
X792173Y497298D01*
X792090Y497232D01*
X791990Y497148D01*
X791856Y497065D01*
X791723Y496965D01*
X791556Y496865D01*
X791373Y496765D01*
X791173Y496665D01*
X790957Y496582D01*
X790707Y496498D01*
X790457Y496432D01*
X790190Y496382D01*
X789907Y496349D01*
X789607Y496332D01*
X789524D01*
X789440Y496349D01*
X789324D01*
X789174Y496382D01*
X788990Y496399D01*
X788807Y496449D01*
X788591Y496498D01*
X788374Y496565D01*
X788141Y496665D01*
X787891Y496765D01*
X787657Y496898D01*
X787408Y497048D01*
X787174Y497232D01*
X786941Y497448D01*
X786724Y497682D01*
X786708Y497698D01*
X786674Y497748D01*
X786624Y497831D01*
X786558Y497948D01*
X786458Y498098D01*
X786375Y498281D01*
X786274Y498498D01*
X786174Y498748D01*
X786058Y499048D01*
X785958Y499365D01*
X785875Y499731D01*
X785791Y500148D01*
X785708Y500581D01*
X785658Y501064D01*
X785625Y501581D01*
X785608Y502147D01*
Y502164D01*
Y502180D01*
Y502230D01*
Y502280D01*
Y502447D01*
X785625Y502664D01*
X785641Y502930D01*
X785675Y503230D01*
X785708Y503563D01*
X785758Y503913D01*
X785808Y504280D01*
X785891Y504663D01*
X785991Y505046D01*
X786108Y505430D01*
X786241Y505779D01*
X786391Y506129D01*
X786574Y506446D01*
X786774Y506729D01*
X786791Y506746D01*
X786824Y506796D01*
X786891Y506863D01*
X786991Y506946D01*
X787108Y507062D01*
X787241Y507179D01*
X787408Y507312D01*
X787591Y507446D01*
X787807Y507562D01*
X788024Y507696D01*
X788291Y507812D01*
X788557Y507929D01*
X788840Y508012D01*
X789157Y508079D01*
X789474Y508129D01*
X789824Y508146D01*
X789957D01*
X790040Y508129D01*
D02*
G37*
G36*
X841494Y505080D02*
X841710Y505046D01*
X841960Y504996D01*
X842210Y504930D01*
X842477Y504846D01*
X842727Y504713D01*
X842760Y504697D01*
X842827Y504646D01*
X842943Y504563D01*
X843093Y504446D01*
X843243Y504280D01*
X843410Y504097D01*
X843560Y503880D01*
X843693Y503613D01*
X843710Y503597D01*
X843727Y503513D01*
X843760Y503380D01*
X843810Y503197D01*
X843860Y502964D01*
X843893Y502664D01*
X843910Y502297D01*
X843926Y501880D01*
Y496549D01*
X841710D01*
Y501314D01*
Y501331D01*
Y501364D01*
Y501431D01*
Y501514D01*
X841694Y501730D01*
X841677Y501981D01*
X841660Y502247D01*
X841610Y502514D01*
X841560Y502747D01*
X841510Y502830D01*
X841477Y502914D01*
X841460Y502930D01*
X841410Y502997D01*
X841344Y503064D01*
X841244Y503163D01*
X841111Y503247D01*
X840944Y503330D01*
X840744Y503380D01*
X840527Y503397D01*
X840444D01*
X840361Y503380D01*
X840244Y503363D01*
X840111Y503330D01*
X839961Y503280D01*
X839794Y503214D01*
X839644Y503114D01*
X839628Y503097D01*
X839577Y503064D01*
X839511Y502997D01*
X839428Y502897D01*
X839328Y502780D01*
X839228Y502647D01*
X839144Y502480D01*
X839061Y502280D01*
Y502247D01*
X839028Y502180D01*
X839011Y502047D01*
X838978Y501864D01*
X838944Y501614D01*
X838928Y501314D01*
X838894Y500964D01*
Y500547D01*
Y496549D01*
X836678D01*
Y501114D01*
Y501131D01*
Y501164D01*
Y501231D01*
Y501314D01*
Y501514D01*
X836662Y501764D01*
X836645Y502030D01*
X836628Y502280D01*
X836595Y502514D01*
X836562Y502614D01*
X836545Y502680D01*
Y502697D01*
X836528Y502747D01*
X836495Y502814D01*
X836462Y502880D01*
X836345Y503064D01*
X836262Y503147D01*
X836178Y503214D01*
X836162Y503230D01*
X836128Y503247D01*
X836078Y503280D01*
X836012Y503313D01*
X835912Y503347D01*
X835795Y503363D01*
X835662Y503397D01*
X835429D01*
X835329Y503380D01*
X835212Y503363D01*
X835062Y503330D01*
X834912Y503280D01*
X834762Y503214D01*
X834595Y503114D01*
X834579Y503097D01*
X834529Y503064D01*
X834462Y502997D01*
X834379Y502914D01*
X834279Y502797D01*
X834179Y502664D01*
X834096Y502497D01*
X834012Y502314D01*
Y502297D01*
X833979Y502214D01*
X833962Y502080D01*
X833929Y501914D01*
X833896Y501664D01*
X833879Y501381D01*
X833846Y501014D01*
Y500597D01*
Y496549D01*
X831630D01*
Y504913D01*
X833662D01*
Y503763D01*
X833679Y503780D01*
X833712Y503813D01*
X833779Y503880D01*
X833862Y503980D01*
X833962Y504080D01*
X834079Y504180D01*
X834229Y504313D01*
X834396Y504430D01*
X834579Y504547D01*
X834779Y504680D01*
X835212Y504896D01*
X835462Y504980D01*
X835712Y505046D01*
X835978Y505080D01*
X836262Y505096D01*
X836395D01*
X836545Y505080D01*
X836728Y505063D01*
X836945Y505013D01*
X837178Y504963D01*
X837411Y504880D01*
X837645Y504763D01*
X837678Y504746D01*
X837745Y504697D01*
X837861Y504630D01*
X837995Y504513D01*
X838145Y504363D01*
X838311Y504197D01*
X838478Y503980D01*
X838628Y503747D01*
X838661Y503780D01*
X838728Y503863D01*
X838828Y503980D01*
X838978Y504130D01*
X839161Y504297D01*
X839361Y504463D01*
X839577Y504630D01*
X839811Y504763D01*
X839844Y504780D01*
X839927Y504813D01*
X840061Y504863D01*
X840227Y504930D01*
X840427Y504996D01*
X840661Y505046D01*
X840910Y505080D01*
X841177Y505096D01*
X841327D01*
X841494Y505080D01*
D02*
G37*
G36*
X827164D02*
X827381Y505046D01*
X827631Y504996D01*
X827880Y504930D01*
X828147Y504846D01*
X828397Y504713D01*
X828430Y504697D01*
X828497Y504646D01*
X828614Y504563D01*
X828764Y504446D01*
X828914Y504280D01*
X829080Y504097D01*
X829230Y503880D01*
X829363Y503613D01*
X829380Y503597D01*
X829397Y503513D01*
X829430Y503380D01*
X829480Y503197D01*
X829530Y502964D01*
X829563Y502664D01*
X829580Y502297D01*
X829597Y501880D01*
Y496549D01*
X827381D01*
Y501314D01*
Y501331D01*
Y501364D01*
Y501431D01*
Y501514D01*
X827364Y501730D01*
X827347Y501981D01*
X827331Y502247D01*
X827281Y502514D01*
X827231Y502747D01*
X827181Y502830D01*
X827147Y502914D01*
X827131Y502930D01*
X827081Y502997D01*
X827014Y503064D01*
X826914Y503163D01*
X826781Y503247D01*
X826614Y503330D01*
X826414Y503380D01*
X826198Y503397D01*
X826114D01*
X826031Y503380D01*
X825914Y503363D01*
X825781Y503330D01*
X825631Y503280D01*
X825464Y503214D01*
X825314Y503114D01*
X825298Y503097D01*
X825248Y503064D01*
X825181Y502997D01*
X825098Y502897D01*
X824998Y502780D01*
X824898Y502647D01*
X824815Y502480D01*
X824731Y502280D01*
Y502247D01*
X824698Y502180D01*
X824681Y502047D01*
X824648Y501864D01*
X824615Y501614D01*
X824598Y501314D01*
X824565Y500964D01*
Y500547D01*
Y496549D01*
X822349D01*
Y501114D01*
Y501131D01*
Y501164D01*
Y501231D01*
Y501314D01*
Y501514D01*
X822332Y501764D01*
X822315Y502030D01*
X822299Y502280D01*
X822265Y502514D01*
X822232Y502614D01*
X822215Y502680D01*
Y502697D01*
X822199Y502747D01*
X822165Y502814D01*
X822132Y502880D01*
X822015Y503064D01*
X821932Y503147D01*
X821849Y503214D01*
X821832Y503230D01*
X821799Y503247D01*
X821749Y503280D01*
X821682Y503313D01*
X821582Y503347D01*
X821466Y503363D01*
X821332Y503397D01*
X821099D01*
X820999Y503380D01*
X820882Y503363D01*
X820732Y503330D01*
X820582Y503280D01*
X820432Y503214D01*
X820266Y503114D01*
X820249Y503097D01*
X820199Y503064D01*
X820133Y502997D01*
X820049Y502914D01*
X819949Y502797D01*
X819849Y502664D01*
X819766Y502497D01*
X819683Y502314D01*
Y502297D01*
X819649Y502214D01*
X819633Y502080D01*
X819599Y501914D01*
X819566Y501664D01*
X819549Y501381D01*
X819516Y501014D01*
Y500597D01*
Y496549D01*
X817300D01*
Y504913D01*
X819333D01*
Y503763D01*
X819349Y503780D01*
X819383Y503813D01*
X819449Y503880D01*
X819533Y503980D01*
X819633Y504080D01*
X819749Y504180D01*
X819899Y504313D01*
X820066Y504430D01*
X820249Y504547D01*
X820449Y504680D01*
X820882Y504896D01*
X821132Y504980D01*
X821382Y505046D01*
X821649Y505080D01*
X821932Y505096D01*
X822065D01*
X822215Y505080D01*
X822399Y505063D01*
X822615Y505013D01*
X822849Y504963D01*
X823082Y504880D01*
X823315Y504763D01*
X823348Y504746D01*
X823415Y504697D01*
X823532Y504630D01*
X823665Y504513D01*
X823815Y504363D01*
X823981Y504197D01*
X824148Y503980D01*
X824298Y503747D01*
X824331Y503780D01*
X824398Y503863D01*
X824498Y503980D01*
X824648Y504130D01*
X824831Y504297D01*
X825031Y504463D01*
X825248Y504630D01*
X825481Y504763D01*
X825515Y504780D01*
X825598Y504813D01*
X825731Y504863D01*
X825898Y504930D01*
X826098Y504996D01*
X826331Y505046D01*
X826581Y505080D01*
X826847Y505096D01*
X826997D01*
X827164Y505080D01*
D02*
G37*
G36*
X813668Y496549D02*
X811451D01*
Y504896D01*
X811435Y504880D01*
X811401Y504846D01*
X811335Y504796D01*
X811235Y504713D01*
X811118Y504613D01*
X810985Y504513D01*
X810818Y504397D01*
X810635Y504263D01*
X810435Y504130D01*
X810218Y503997D01*
X809985Y503847D01*
X809735Y503713D01*
X809202Y503463D01*
X808602Y503230D01*
Y505230D01*
X808619D01*
X808635Y505246D01*
X808685Y505263D01*
X808752Y505280D01*
X808919Y505363D01*
X809152Y505463D01*
X809435Y505596D01*
X809752Y505779D01*
X810102Y506013D01*
X810468Y506279D01*
X810485Y506296D01*
X810518Y506313D01*
X810568Y506363D01*
X810635Y506429D01*
X810818Y506596D01*
X811018Y506813D01*
X811251Y507079D01*
X811485Y507412D01*
X811701Y507762D01*
X811868Y508146D01*
X813668D01*
Y496549D01*
D02*
G37*
G36*
X804703D02*
X802487D01*
Y504896D01*
X802470Y504880D01*
X802437Y504846D01*
X802370Y504796D01*
X802270Y504713D01*
X802154Y504613D01*
X802020Y504513D01*
X801854Y504397D01*
X801671Y504263D01*
X801471Y504130D01*
X801254Y503997D01*
X801021Y503847D01*
X800771Y503713D01*
X800238Y503463D01*
X799638Y503230D01*
Y505230D01*
X799654D01*
X799671Y505246D01*
X799721Y505263D01*
X799788Y505280D01*
X799954Y505363D01*
X800188Y505463D01*
X800471Y505596D01*
X800788Y505779D01*
X801137Y506013D01*
X801504Y506279D01*
X801521Y506296D01*
X801554Y506313D01*
X801604Y506363D01*
X801671Y506429D01*
X801854Y506596D01*
X802054Y506813D01*
X802287Y507079D01*
X802520Y507412D01*
X802737Y507762D01*
X802904Y508146D01*
X804703D01*
Y496549D01*
D02*
G37*
G36*
X797255D02*
X795039D01*
Y498765D01*
X797255D01*
Y496549D01*
D02*
G37*
G36*
X775344Y508062D02*
X775527D01*
X775711Y508046D01*
X775927D01*
X776360Y507996D01*
X776810Y507946D01*
X777227Y507862D01*
X777410Y507812D01*
X777577Y507762D01*
X777593D01*
X777610Y507746D01*
X777710Y507696D01*
X777860Y507612D01*
X778060Y507512D01*
X778277Y507346D01*
X778493Y507163D01*
X778710Y506929D01*
X778910Y506646D01*
Y506629D01*
X778926Y506613D01*
X778960Y506563D01*
X778993Y506513D01*
X779076Y506346D01*
X779176Y506129D01*
X779260Y505863D01*
X779343Y505563D01*
X779410Y505213D01*
X779426Y504846D01*
Y504830D01*
Y504796D01*
Y504713D01*
X779410Y504630D01*
Y504513D01*
X779393Y504397D01*
X779326Y504097D01*
X779243Y503747D01*
X779110Y503397D01*
X778910Y503030D01*
X778793Y502864D01*
X778660Y502697D01*
X778643Y502680D01*
X778626Y502664D01*
X778577Y502614D01*
X778510Y502564D01*
X778443Y502497D01*
X778343Y502414D01*
X778227Y502330D01*
X778093Y502247D01*
X777943Y502147D01*
X777760Y502064D01*
X777577Y501981D01*
X777377Y501897D01*
X777143Y501814D01*
X776910Y501747D01*
X776660Y501681D01*
X776377Y501631D01*
X776394D01*
X776410Y501614D01*
X776510Y501547D01*
X776644Y501464D01*
X776810Y501347D01*
X777010Y501197D01*
X777210Y501047D01*
X777427Y500864D01*
X777610Y500664D01*
X777627Y500648D01*
X777710Y500564D01*
X777810Y500431D01*
X777960Y500231D01*
X778160Y499981D01*
X778260Y499814D01*
X778376Y499648D01*
X778510Y499464D01*
X778643Y499264D01*
X778793Y499031D01*
X778943Y498798D01*
X780359Y496549D01*
X777560D01*
X775894Y499048D01*
X775877Y499065D01*
X775861Y499114D01*
X775810Y499181D01*
X775744Y499264D01*
X775677Y499365D01*
X775594Y499498D01*
X775411Y499764D01*
X775194Y500064D01*
X774994Y500331D01*
X774811Y500581D01*
X774727Y500664D01*
X774661Y500747D01*
X774644Y500764D01*
X774611Y500797D01*
X774544Y500864D01*
X774461Y500947D01*
X774344Y501014D01*
X774228Y501097D01*
X774094Y501164D01*
X773961Y501231D01*
X773944D01*
X773894Y501247D01*
X773811Y501281D01*
X773678Y501297D01*
X773511Y501331D01*
X773311Y501347D01*
X773078Y501364D01*
X772328D01*
Y496549D01*
X769995D01*
Y508079D01*
X775194D01*
X775344Y508062D01*
D02*
G37*
G36*
X765003Y551860D02*
X764153Y550877D01*
X764170Y550843D01*
X764236Y550777D01*
X764320Y550660D01*
X764420Y550493D01*
X764536Y550310D01*
X764653Y550077D01*
X764786Y549827D01*
X764886Y549544D01*
X764903Y549510D01*
X764936Y549410D01*
X764969Y549260D01*
X765036Y549060D01*
X765086Y548811D01*
X765119Y548544D01*
X765153Y548261D01*
X765170Y547944D01*
Y547927D01*
Y547861D01*
Y547761D01*
X765153Y547627D01*
X765136Y547477D01*
X765103Y547277D01*
X765070Y547078D01*
X765020Y546844D01*
X764953Y546611D01*
X764870Y546361D01*
X764770Y546095D01*
X764636Y545828D01*
X764503Y545578D01*
X764336Y545311D01*
X764136Y545061D01*
X763920Y544828D01*
X763903Y544812D01*
X763870Y544778D01*
X763786Y544711D01*
X763703Y544628D01*
X763570Y544545D01*
X763437Y544445D01*
X763270Y544328D01*
X763070Y544212D01*
X762853Y544095D01*
X762620Y543978D01*
X762370Y543878D01*
X762087Y543795D01*
X761804Y543712D01*
X761487Y543645D01*
X761171Y543612D01*
X760821Y543595D01*
X760687D01*
X760587Y543612D01*
X760471D01*
X760337Y543629D01*
X760187Y543645D01*
X760021Y543679D01*
X759638Y543762D01*
X759238Y543862D01*
X758821Y544028D01*
X758405Y544245D01*
X757505Y543212D01*
X756638Y543945D01*
X757555Y544995D01*
X757538Y545028D01*
X757471Y545095D01*
X757388Y545211D01*
X757288Y545378D01*
X757155Y545578D01*
X757038Y545811D01*
X756922Y546078D01*
X756805Y546361D01*
Y546378D01*
X756788Y546394D01*
X756772Y546494D01*
X756722Y546661D01*
X756672Y546861D01*
X756622Y547111D01*
X756588Y547394D01*
X756555Y547677D01*
X756538Y547994D01*
Y548011D01*
Y548077D01*
X756555Y548177D01*
Y548311D01*
X756572Y548461D01*
X756605Y548661D01*
X756638Y548861D01*
X756688Y549094D01*
X756755Y549327D01*
X756838Y549577D01*
X756922Y549844D01*
X757038Y550093D01*
X757188Y550360D01*
X757338Y550610D01*
X757521Y550860D01*
X757738Y551093D01*
X757755Y551110D01*
X757788Y551143D01*
X757871Y551210D01*
X757955Y551293D01*
X758071Y551376D01*
X758221Y551477D01*
X758388Y551593D01*
X758588Y551710D01*
X758788Y551826D01*
X759038Y551943D01*
X759288Y552043D01*
X759554Y552126D01*
X759854Y552210D01*
X760171Y552276D01*
X760487Y552310D01*
X760837Y552326D01*
X760971D01*
X761070Y552310D01*
X761204D01*
X761337Y552293D01*
X761504Y552260D01*
X761670Y552243D01*
X762070Y552160D01*
X762470Y552026D01*
X762903Y551843D01*
X763103Y551743D01*
X763303Y551610D01*
X764136Y552576D01*
X765003Y551860D01*
D02*
G37*
G36*
X826754Y552310D02*
X826970Y552276D01*
X827220Y552226D01*
X827470Y552160D01*
X827737Y552076D01*
X827987Y551943D01*
X828020Y551926D01*
X828087Y551876D01*
X828203Y551793D01*
X828353Y551676D01*
X828503Y551510D01*
X828670Y551326D01*
X828820Y551110D01*
X828953Y550843D01*
X828970Y550827D01*
X828987Y550743D01*
X829020Y550610D01*
X829070Y550427D01*
X829120Y550193D01*
X829153Y549893D01*
X829170Y549527D01*
X829186Y549110D01*
Y543778D01*
X826970D01*
Y548544D01*
Y548560D01*
Y548594D01*
Y548661D01*
Y548744D01*
X826954Y548960D01*
X826937Y549210D01*
X826920Y549477D01*
X826870Y549744D01*
X826820Y549977D01*
X826770Y550060D01*
X826737Y550144D01*
X826720Y550160D01*
X826670Y550227D01*
X826604Y550293D01*
X826504Y550393D01*
X826370Y550477D01*
X826204Y550560D01*
X826004Y550610D01*
X825787Y550627D01*
X825704D01*
X825621Y550610D01*
X825504Y550593D01*
X825371Y550560D01*
X825221Y550510D01*
X825054Y550443D01*
X824904Y550343D01*
X824887Y550327D01*
X824837Y550293D01*
X824771Y550227D01*
X824688Y550127D01*
X824588Y550010D01*
X824488Y549877D01*
X824404Y549710D01*
X824321Y549510D01*
Y549477D01*
X824288Y549410D01*
X824271Y549277D01*
X824238Y549094D01*
X824204Y548844D01*
X824188Y548544D01*
X824154Y548194D01*
Y547777D01*
Y543778D01*
X821938D01*
Y548344D01*
Y548361D01*
Y548394D01*
Y548461D01*
Y548544D01*
Y548744D01*
X821922Y548994D01*
X821905Y549260D01*
X821888Y549510D01*
X821855Y549744D01*
X821822Y549844D01*
X821805Y549910D01*
Y549927D01*
X821788Y549977D01*
X821755Y550043D01*
X821722Y550110D01*
X821605Y550293D01*
X821522Y550377D01*
X821438Y550443D01*
X821422Y550460D01*
X821388Y550477D01*
X821338Y550510D01*
X821272Y550543D01*
X821172Y550577D01*
X821055Y550593D01*
X820922Y550627D01*
X820689D01*
X820589Y550610D01*
X820472Y550593D01*
X820322Y550560D01*
X820172Y550510D01*
X820022Y550443D01*
X819855Y550343D01*
X819839Y550327D01*
X819789Y550293D01*
X819722Y550227D01*
X819639Y550144D01*
X819539Y550027D01*
X819439Y549893D01*
X819356Y549727D01*
X819272Y549544D01*
Y549527D01*
X819239Y549444D01*
X819222Y549310D01*
X819189Y549144D01*
X819156Y548894D01*
X819139Y548610D01*
X819106Y548244D01*
Y547827D01*
Y543778D01*
X816890D01*
Y552143D01*
X818922D01*
Y550993D01*
X818939Y551010D01*
X818972Y551043D01*
X819039Y551110D01*
X819122Y551210D01*
X819222Y551310D01*
X819339Y551410D01*
X819489Y551543D01*
X819656Y551660D01*
X819839Y551776D01*
X820039Y551910D01*
X820472Y552126D01*
X820722Y552210D01*
X820972Y552276D01*
X821238Y552310D01*
X821522Y552326D01*
X821655D01*
X821805Y552310D01*
X821988Y552293D01*
X822205Y552243D01*
X822438Y552193D01*
X822671Y552110D01*
X822905Y551993D01*
X822938Y551976D01*
X823005Y551926D01*
X823121Y551860D01*
X823255Y551743D01*
X823405Y551593D01*
X823571Y551427D01*
X823738Y551210D01*
X823888Y550977D01*
X823921Y551010D01*
X823988Y551093D01*
X824088Y551210D01*
X824238Y551360D01*
X824421Y551526D01*
X824621Y551693D01*
X824837Y551860D01*
X825071Y551993D01*
X825104Y552010D01*
X825188Y552043D01*
X825321Y552093D01*
X825487Y552160D01*
X825687Y552226D01*
X825921Y552276D01*
X826171Y552310D01*
X826437Y552326D01*
X826587D01*
X826754Y552310D01*
D02*
G37*
G36*
X812424D02*
X812641Y552276D01*
X812891Y552226D01*
X813140Y552160D01*
X813407Y552076D01*
X813657Y551943D01*
X813690Y551926D01*
X813757Y551876D01*
X813874Y551793D01*
X814024Y551676D01*
X814174Y551510D01*
X814340Y551326D01*
X814490Y551110D01*
X814623Y550843D01*
X814640Y550827D01*
X814657Y550743D01*
X814690Y550610D01*
X814740Y550427D01*
X814790Y550193D01*
X814823Y549893D01*
X814840Y549527D01*
X814857Y549110D01*
Y543778D01*
X812641D01*
Y548544D01*
Y548560D01*
Y548594D01*
Y548661D01*
Y548744D01*
X812624Y548960D01*
X812607Y549210D01*
X812591Y549477D01*
X812541Y549744D01*
X812491Y549977D01*
X812441Y550060D01*
X812407Y550144D01*
X812391Y550160D01*
X812341Y550227D01*
X812274Y550293D01*
X812174Y550393D01*
X812041Y550477D01*
X811874Y550560D01*
X811674Y550610D01*
X811458Y550627D01*
X811374D01*
X811291Y550610D01*
X811174Y550593D01*
X811041Y550560D01*
X810891Y550510D01*
X810724Y550443D01*
X810574Y550343D01*
X810558Y550327D01*
X810508Y550293D01*
X810441Y550227D01*
X810358Y550127D01*
X810258Y550010D01*
X810158Y549877D01*
X810075Y549710D01*
X809991Y549510D01*
Y549477D01*
X809958Y549410D01*
X809941Y549277D01*
X809908Y549094D01*
X809875Y548844D01*
X809858Y548544D01*
X809825Y548194D01*
Y547777D01*
Y543778D01*
X807609D01*
Y548344D01*
Y548361D01*
Y548394D01*
Y548461D01*
Y548544D01*
Y548744D01*
X807592Y548994D01*
X807575Y549260D01*
X807559Y549510D01*
X807525Y549744D01*
X807492Y549844D01*
X807475Y549910D01*
Y549927D01*
X807459Y549977D01*
X807425Y550043D01*
X807392Y550110D01*
X807275Y550293D01*
X807192Y550377D01*
X807109Y550443D01*
X807092Y550460D01*
X807059Y550477D01*
X807009Y550510D01*
X806942Y550543D01*
X806842Y550577D01*
X806725Y550593D01*
X806592Y550627D01*
X806359D01*
X806259Y550610D01*
X806142Y550593D01*
X805992Y550560D01*
X805842Y550510D01*
X805692Y550443D01*
X805526Y550343D01*
X805509Y550327D01*
X805459Y550293D01*
X805393Y550227D01*
X805309Y550144D01*
X805209Y550027D01*
X805109Y549893D01*
X805026Y549727D01*
X804943Y549544D01*
Y549527D01*
X804909Y549444D01*
X804893Y549310D01*
X804859Y549144D01*
X804826Y548894D01*
X804809Y548610D01*
X804776Y548244D01*
Y547827D01*
Y543778D01*
X802560D01*
Y552143D01*
X804593D01*
Y550993D01*
X804609Y551010D01*
X804643Y551043D01*
X804709Y551110D01*
X804793Y551210D01*
X804893Y551310D01*
X805009Y551410D01*
X805159Y551543D01*
X805326Y551660D01*
X805509Y551776D01*
X805709Y551910D01*
X806142Y552126D01*
X806392Y552210D01*
X806642Y552276D01*
X806909Y552310D01*
X807192Y552326D01*
X807325D01*
X807475Y552310D01*
X807659Y552293D01*
X807875Y552243D01*
X808109Y552193D01*
X808342Y552110D01*
X808575Y551993D01*
X808608Y551976D01*
X808675Y551926D01*
X808792Y551860D01*
X808925Y551743D01*
X809075Y551593D01*
X809241Y551427D01*
X809408Y551210D01*
X809558Y550977D01*
X809591Y551010D01*
X809658Y551093D01*
X809758Y551210D01*
X809908Y551360D01*
X810091Y551526D01*
X810291Y551693D01*
X810508Y551860D01*
X810741Y551993D01*
X810775Y552010D01*
X810858Y552043D01*
X810991Y552093D01*
X811158Y552160D01*
X811358Y552226D01*
X811591Y552276D01*
X811841Y552310D01*
X812107Y552326D01*
X812257D01*
X812424Y552310D01*
D02*
G37*
G36*
X774767Y555359D02*
X774917Y555342D01*
X775067Y555326D01*
X775250Y555292D01*
X775434Y555242D01*
X775850Y555126D01*
X776067Y555042D01*
X776300Y554926D01*
X776517Y554809D01*
X776717Y554676D01*
X776933Y554509D01*
X777116Y554326D01*
X777133Y554309D01*
X777150Y554292D01*
X777200Y554242D01*
X777250Y554176D01*
X777383Y554009D01*
X777533Y553776D01*
X777683Y553493D01*
X777800Y553159D01*
X777900Y552793D01*
X777916Y552609D01*
X777933Y552410D01*
Y552393D01*
Y552343D01*
X777916Y552260D01*
X777900Y552160D01*
X777883Y552026D01*
X777850Y551876D01*
X777800Y551710D01*
X777733Y551526D01*
X777633Y551343D01*
X777533Y551143D01*
X777400Y550943D01*
X777233Y550743D01*
X777033Y550543D01*
X776816Y550343D01*
X776567Y550160D01*
X776267Y549977D01*
X776283D01*
X776317Y549960D01*
X776367D01*
X776433Y549927D01*
X776617Y549877D01*
X776833Y549777D01*
X777083Y549644D01*
X777350Y549477D01*
X777616Y549260D01*
X777850Y549010D01*
X777883Y548977D01*
X777950Y548877D01*
X778033Y548727D01*
X778149Y548511D01*
X778266Y548261D01*
X778349Y547944D01*
X778416Y547611D01*
X778449Y547228D01*
Y547211D01*
Y547161D01*
Y547078D01*
X778433Y546978D01*
X778416Y546844D01*
X778383Y546694D01*
X778349Y546511D01*
X778316Y546328D01*
X778183Y545928D01*
X778083Y545711D01*
X777983Y545478D01*
X777850Y545261D01*
X777700Y545045D01*
X777533Y544828D01*
X777333Y544628D01*
X777316Y544612D01*
X777283Y544578D01*
X777216Y544528D01*
X777133Y544462D01*
X777017Y544378D01*
X776900Y544295D01*
X776733Y544195D01*
X776567Y544095D01*
X776383Y543995D01*
X776167Y543895D01*
X775933Y543812D01*
X775700Y543728D01*
X775434Y543662D01*
X775167Y543612D01*
X774867Y543578D01*
X774567Y543562D01*
X774417D01*
X774301Y543578D01*
X774167Y543595D01*
X774017Y543612D01*
X773851Y543645D01*
X773651Y543679D01*
X773251Y543778D01*
X772818Y543945D01*
X772584Y544045D01*
X772384Y544162D01*
X772168Y544312D01*
X771968Y544462D01*
X771951Y544478D01*
X771918Y544512D01*
X771868Y544562D01*
X771801Y544628D01*
X771718Y544711D01*
X771635Y544828D01*
X771535Y544945D01*
X771435Y545095D01*
X771335Y545261D01*
X771218Y545428D01*
X771035Y545828D01*
X770885Y546295D01*
X770818Y546544D01*
X770785Y546811D01*
X772917Y547078D01*
Y547061D01*
Y547044D01*
X772934Y546944D01*
X772968Y546794D01*
X773018Y546611D01*
X773101Y546411D01*
X773184Y546194D01*
X773317Y545994D01*
X773467Y545811D01*
X773484Y545795D01*
X773551Y545745D01*
X773651Y545678D01*
X773767Y545611D01*
X773934Y545528D01*
X774117Y545461D01*
X774317Y545411D01*
X774550Y545395D01*
X774584D01*
X774667Y545411D01*
X774784Y545428D01*
X774950Y545461D01*
X775134Y545528D01*
X775317Y545611D01*
X775517Y545745D01*
X775700Y545911D01*
X775717Y545928D01*
X775783Y546011D01*
X775850Y546128D01*
X775950Y546278D01*
X776033Y546478D01*
X776117Y546728D01*
X776167Y547011D01*
X776183Y547327D01*
Y547344D01*
Y547361D01*
Y547461D01*
X776167Y547611D01*
X776133Y547811D01*
X776067Y548027D01*
X775983Y548244D01*
X775867Y548461D01*
X775717Y548661D01*
X775700Y548677D01*
X775633Y548744D01*
X775534Y548827D01*
X775417Y548910D01*
X775250Y549010D01*
X775067Y549077D01*
X774867Y549144D01*
X774634Y549160D01*
X774467D01*
X774351Y549144D01*
X774201Y549127D01*
X774017Y549094D01*
X773834Y549044D01*
X773617Y548994D01*
X773851Y550777D01*
X774001D01*
X774167Y550793D01*
X774367Y550810D01*
X774584Y550860D01*
X774817Y550927D01*
X775034Y551027D01*
X775234Y551160D01*
X775250Y551176D01*
X775317Y551243D01*
X775384Y551326D01*
X775483Y551460D01*
X775567Y551610D01*
X775650Y551793D01*
X775700Y552010D01*
X775717Y552260D01*
Y552293D01*
Y552360D01*
X775700Y552460D01*
X775667Y552593D01*
X775633Y552743D01*
X775567Y552893D01*
X775483Y553059D01*
X775367Y553193D01*
X775350Y553209D01*
X775300Y553243D01*
X775234Y553309D01*
X775117Y553376D01*
X774984Y553426D01*
X774834Y553493D01*
X774634Y553526D01*
X774434Y553543D01*
X774334D01*
X774234Y553526D01*
X774100Y553493D01*
X773951Y553443D01*
X773784Y553376D01*
X773617Y553276D01*
X773467Y553143D01*
X773451Y553126D01*
X773401Y553076D01*
X773334Y552976D01*
X773251Y552843D01*
X773167Y552693D01*
X773101Y552493D01*
X773034Y552260D01*
X772984Y551993D01*
X770951Y552326D01*
Y552343D01*
X770968Y552376D01*
Y552426D01*
X770985Y552509D01*
X771035Y552693D01*
X771101Y552943D01*
X771201Y553209D01*
X771301Y553493D01*
X771435Y553759D01*
X771584Y554009D01*
X771601Y554043D01*
X771668Y554109D01*
X771768Y554226D01*
X771901Y554376D01*
X772068Y554526D01*
X772268Y554692D01*
X772518Y554859D01*
X772784Y555009D01*
X772801D01*
X772818Y555026D01*
X772917Y555059D01*
X773084Y555126D01*
X773284Y555192D01*
X773534Y555259D01*
X773834Y555326D01*
X774150Y555359D01*
X774500Y555376D01*
X774650D01*
X774767Y555359D01*
D02*
G37*
G36*
X788397D02*
X788547Y555342D01*
X788714Y555326D01*
X788897Y555292D01*
X789097Y555259D01*
X789530Y555142D01*
X789963Y554976D01*
X790196Y554876D01*
X790396Y554759D01*
X790613Y554609D01*
X790796Y554442D01*
X790813Y554426D01*
X790846Y554409D01*
X790880Y554342D01*
X790946Y554276D01*
X791030Y554192D01*
X791113Y554076D01*
X791196Y553959D01*
X791296Y553809D01*
X791463Y553476D01*
X791629Y553093D01*
X791696Y552876D01*
X791729Y552643D01*
X791763Y552393D01*
X791779Y552143D01*
Y552110D01*
Y552010D01*
X791763Y551860D01*
X791746Y551676D01*
X791713Y551443D01*
X791663Y551193D01*
X791596Y550927D01*
X791496Y550660D01*
X791479Y550627D01*
X791446Y550543D01*
X791379Y550393D01*
X791280Y550210D01*
X791163Y549994D01*
X791013Y549744D01*
X790830Y549477D01*
X790613Y549194D01*
X790596Y549177D01*
X790530Y549094D01*
X790430Y548977D01*
X790280Y548811D01*
X790080Y548610D01*
X789830Y548344D01*
X789530Y548061D01*
X789163Y547711D01*
X789147Y547694D01*
X789113Y547677D01*
X789063Y547627D01*
X788997Y547561D01*
X788813Y547394D01*
X788597Y547194D01*
X788380Y546978D01*
X788164Y546761D01*
X787964Y546578D01*
X787897Y546494D01*
X787830Y546428D01*
X787814Y546411D01*
X787780Y546378D01*
X787730Y546311D01*
X787664Y546228D01*
X787514Y546045D01*
X787381Y545828D01*
X791779D01*
Y543778D01*
X784031D01*
Y543795D01*
Y543828D01*
X784048Y543895D01*
X784065Y543978D01*
X784081Y544078D01*
X784098Y544195D01*
X784165Y544495D01*
X784265Y544828D01*
X784398Y545195D01*
X784565Y545595D01*
X784781Y545978D01*
Y545994D01*
X784815Y546028D01*
X784848Y546095D01*
X784914Y546161D01*
X784981Y546278D01*
X785081Y546394D01*
X785198Y546544D01*
X785331Y546711D01*
X785481Y546911D01*
X785664Y547111D01*
X785864Y547344D01*
X786097Y547594D01*
X786347Y547844D01*
X786631Y548127D01*
X786931Y548427D01*
X787264Y548744D01*
X787281Y548760D01*
X787330Y548811D01*
X787397Y548877D01*
X787497Y548977D01*
X787630Y549077D01*
X787764Y549210D01*
X788064Y549510D01*
X788363Y549827D01*
X788663Y550144D01*
X788797Y550277D01*
X788930Y550427D01*
X789030Y550543D01*
X789097Y550643D01*
X789113Y550677D01*
X789163Y550760D01*
X789247Y550893D01*
X789330Y551077D01*
X789413Y551277D01*
X789497Y551510D01*
X789547Y551743D01*
X789563Y551993D01*
Y552010D01*
Y552026D01*
Y552110D01*
X789547Y552260D01*
X789513Y552426D01*
X789463Y552609D01*
X789397Y552793D01*
X789297Y552976D01*
X789163Y553143D01*
X789147Y553159D01*
X789097Y553209D01*
X788997Y553276D01*
X788880Y553343D01*
X788714Y553409D01*
X788530Y553476D01*
X788314Y553526D01*
X788064Y553543D01*
X787947D01*
X787814Y553526D01*
X787664Y553493D01*
X787480Y553443D01*
X787297Y553359D01*
X787114Y553259D01*
X786947Y553126D01*
X786931Y553109D01*
X786881Y553043D01*
X786814Y552943D01*
X786747Y552793D01*
X786664Y552609D01*
X786597Y552360D01*
X786531Y552076D01*
X786497Y551743D01*
X784298Y551960D01*
Y551976D01*
X784315Y552043D01*
Y552126D01*
X784348Y552260D01*
X784365Y552410D01*
X784415Y552576D01*
X784464Y552760D01*
X784514Y552976D01*
X784681Y553393D01*
X784881Y553826D01*
X785014Y554043D01*
X785164Y554242D01*
X785331Y554409D01*
X785514Y554576D01*
X785531Y554592D01*
X785564Y554609D01*
X785614Y554642D01*
X785698Y554709D01*
X785798Y554759D01*
X785931Y554826D01*
X786064Y554909D01*
X786231Y554976D01*
X786414Y555059D01*
X786614Y555126D01*
X787047Y555259D01*
X787564Y555342D01*
X787830Y555359D01*
X788114Y555376D01*
X788280D01*
X788397Y555359D01*
D02*
G37*
G36*
X782515Y543778D02*
X780299D01*
Y545994D01*
X782515D01*
Y543778D01*
D02*
G37*
G36*
X797295Y555359D02*
X797428Y555342D01*
X797595Y555309D01*
X797761Y555275D01*
X797961Y555225D01*
X798178Y555159D01*
X798378Y555075D01*
X798594Y554992D01*
X798811Y554876D01*
X799027Y554726D01*
X799244Y554576D01*
X799444Y554392D01*
X799627Y554176D01*
X799644Y554159D01*
X799677Y554109D01*
X799727Y554026D01*
X799811Y553909D01*
X799894Y553743D01*
X799994Y553543D01*
X800094Y553326D01*
X800194Y553043D01*
X800294Y552743D01*
X800411Y552393D01*
X800494Y552010D01*
X800577Y551576D01*
X800660Y551110D01*
X800710Y550610D01*
X800744Y550060D01*
X800760Y549460D01*
Y549444D01*
Y549427D01*
Y549377D01*
Y549310D01*
Y549144D01*
X800744Y548927D01*
X800727Y548661D01*
X800694Y548344D01*
X800660Y548011D01*
X800627Y547644D01*
X800560Y547261D01*
X800477Y546861D01*
X800394Y546478D01*
X800277Y546095D01*
X800161Y545711D01*
X799994Y545361D01*
X799827Y545028D01*
X799627Y544745D01*
X799611Y544728D01*
X799577Y544695D01*
X799527Y544628D01*
X799461Y544562D01*
X799361Y544478D01*
X799244Y544378D01*
X799094Y544262D01*
X798944Y544162D01*
X798761Y544045D01*
X798578Y543928D01*
X798361Y543828D01*
X798128Y543745D01*
X797878Y543679D01*
X797595Y543612D01*
X797311Y543578D01*
X797011Y543562D01*
X796945D01*
X796845Y543578D01*
X796728D01*
X796595Y543595D01*
X796428Y543629D01*
X796245Y543662D01*
X796045Y543728D01*
X795828Y543795D01*
X795612Y543878D01*
X795378Y543978D01*
X795162Y544112D01*
X794929Y544245D01*
X794712Y544428D01*
X794495Y544612D01*
X794295Y544845D01*
X794279Y544861D01*
X794245Y544911D01*
X794195Y544995D01*
X794145Y545095D01*
X794062Y545245D01*
X793979Y545428D01*
X793879Y545661D01*
X793795Y545911D01*
X793696Y546211D01*
X793596Y546544D01*
X793512Y546928D01*
X793446Y547344D01*
X793379Y547811D01*
X793329Y548327D01*
X793296Y548877D01*
X793279Y549477D01*
Y549494D01*
Y549510D01*
Y549560D01*
Y549627D01*
Y549794D01*
X793296Y550010D01*
X793312Y550277D01*
X793346Y550593D01*
X793379Y550927D01*
X793412Y551293D01*
X793479Y551676D01*
X793546Y552060D01*
X793645Y552460D01*
X793745Y552843D01*
X793879Y553209D01*
X794029Y553559D01*
X794195Y553893D01*
X794395Y554176D01*
X794412Y554192D01*
X794445Y554226D01*
X794495Y554292D01*
X794579Y554359D01*
X794662Y554459D01*
X794779Y554559D01*
X794929Y554659D01*
X795079Y554776D01*
X795262Y554892D01*
X795445Y554992D01*
X795662Y555092D01*
X795895Y555192D01*
X796145Y555259D01*
X796428Y555326D01*
X796711Y555359D01*
X797011Y555376D01*
X797178D01*
X797295Y555359D01*
D02*
G37*
G36*
X-140397Y62438D02*
X-145163D01*
X-145179D01*
X-145213D01*
X-145279D01*
X-145363D01*
X-145579Y62421D01*
X-145829Y62404D01*
X-146096Y62388D01*
X-146362Y62338D01*
X-146596Y62288D01*
X-146679Y62238D01*
X-146762Y62204D01*
X-146779Y62188D01*
X-146846Y62138D01*
X-146912Y62071D01*
X-147012Y61971D01*
X-147095Y61838D01*
X-147179Y61671D01*
X-147229Y61471D01*
X-147245Y61255D01*
Y61171D01*
X-147229Y61088D01*
X-147212Y60971D01*
X-147179Y60838D01*
X-147129Y60688D01*
X-147062Y60521D01*
X-146962Y60371D01*
X-146945Y60355D01*
X-146912Y60305D01*
X-146846Y60238D01*
X-146746Y60155D01*
X-146629Y60055D01*
X-146496Y59955D01*
X-146329Y59872D01*
X-146129Y59788D01*
X-146096D01*
X-146029Y59755D01*
X-145896Y59738D01*
X-145712Y59705D01*
X-145463Y59672D01*
X-145163Y59655D01*
X-144813Y59622D01*
X-144396D01*
X-140397D01*
Y57406D01*
X-144963D01*
X-144979D01*
X-145013D01*
X-145079D01*
X-145163D01*
X-145363D01*
X-145612Y57389D01*
X-145879Y57372D01*
X-146129Y57355D01*
X-146362Y57322D01*
X-146462Y57289D01*
X-146529Y57272D01*
X-146546D01*
X-146596Y57256D01*
X-146662Y57222D01*
X-146729Y57189D01*
X-146912Y57072D01*
X-146995Y56989D01*
X-147062Y56906D01*
X-147079Y56889D01*
X-147095Y56856D01*
X-147129Y56806D01*
X-147162Y56739D01*
X-147195Y56639D01*
X-147212Y56522D01*
X-147245Y56389D01*
Y56156D01*
X-147229Y56056D01*
X-147212Y55939D01*
X-147179Y55789D01*
X-147129Y55639D01*
X-147062Y55489D01*
X-146962Y55323D01*
X-146945Y55306D01*
X-146912Y55256D01*
X-146846Y55189D01*
X-146762Y55106D01*
X-146646Y55006D01*
X-146512Y54906D01*
X-146346Y54823D01*
X-146162Y54739D01*
X-146146D01*
X-146062Y54706D01*
X-145929Y54690D01*
X-145763Y54656D01*
X-145513Y54623D01*
X-145229Y54606D01*
X-144863Y54573D01*
X-144446D01*
X-140397D01*
Y52357D01*
X-148762D01*
Y54390D01*
X-147612D01*
X-147629Y54406D01*
X-147662Y54440D01*
X-147729Y54506D01*
X-147829Y54590D01*
X-147929Y54690D01*
X-148029Y54806D01*
X-148162Y54956D01*
X-148279Y55123D01*
X-148395Y55306D01*
X-148528Y55506D01*
X-148745Y55939D01*
X-148828Y56189D01*
X-148895Y56439D01*
X-148928Y56706D01*
X-148945Y56989D01*
Y57122D01*
X-148928Y57272D01*
X-148912Y57456D01*
X-148862Y57672D01*
X-148812Y57905D01*
X-148728Y58139D01*
X-148612Y58372D01*
X-148595Y58405D01*
X-148545Y58472D01*
X-148478Y58589D01*
X-148362Y58722D01*
X-148212Y58872D01*
X-148045Y59038D01*
X-147829Y59205D01*
X-147595Y59355D01*
X-147629Y59388D01*
X-147712Y59455D01*
X-147829Y59555D01*
X-147979Y59705D01*
X-148145Y59888D01*
X-148312Y60088D01*
X-148478Y60305D01*
X-148612Y60538D01*
X-148628Y60571D01*
X-148662Y60655D01*
X-148712Y60788D01*
X-148778Y60955D01*
X-148845Y61155D01*
X-148895Y61388D01*
X-148928Y61638D01*
X-148945Y61904D01*
Y62054D01*
X-148928Y62221D01*
X-148895Y62438D01*
X-148845Y62688D01*
X-148778Y62937D01*
X-148695Y63204D01*
X-148562Y63454D01*
X-148545Y63487D01*
X-148495Y63554D01*
X-148412Y63671D01*
X-148295Y63821D01*
X-148128Y63970D01*
X-147945Y64137D01*
X-147729Y64287D01*
X-147462Y64420D01*
X-147445Y64437D01*
X-147362Y64454D01*
X-147229Y64487D01*
X-147045Y64537D01*
X-146812Y64587D01*
X-146512Y64620D01*
X-146146Y64637D01*
X-145729Y64654D01*
X-140397D01*
Y62438D01*
D02*
G37*
G36*
Y48108D02*
X-145163D01*
X-145179D01*
X-145213D01*
X-145279D01*
X-145363D01*
X-145579Y48091D01*
X-145829Y48075D01*
X-146096Y48058D01*
X-146362Y48008D01*
X-146596Y47958D01*
X-146679Y47908D01*
X-146762Y47875D01*
X-146779Y47858D01*
X-146846Y47808D01*
X-146912Y47741D01*
X-147012Y47641D01*
X-147095Y47508D01*
X-147179Y47341D01*
X-147229Y47141D01*
X-147245Y46925D01*
Y46842D01*
X-147229Y46758D01*
X-147212Y46642D01*
X-147179Y46508D01*
X-147129Y46358D01*
X-147062Y46192D01*
X-146962Y46042D01*
X-146945Y46025D01*
X-146912Y45975D01*
X-146846Y45908D01*
X-146746Y45825D01*
X-146629Y45725D01*
X-146496Y45625D01*
X-146329Y45542D01*
X-146129Y45459D01*
X-146096D01*
X-146029Y45425D01*
X-145896Y45409D01*
X-145712Y45375D01*
X-145463Y45342D01*
X-145163Y45325D01*
X-144813Y45292D01*
X-144396D01*
X-140397D01*
Y43076D01*
X-144963D01*
X-144979D01*
X-145013D01*
X-145079D01*
X-145163D01*
X-145363D01*
X-145612Y43059D01*
X-145879Y43042D01*
X-146129Y43026D01*
X-146362Y42993D01*
X-146462Y42959D01*
X-146529Y42943D01*
X-146546D01*
X-146596Y42926D01*
X-146662Y42893D01*
X-146729Y42859D01*
X-146912Y42743D01*
X-146995Y42659D01*
X-147062Y42576D01*
X-147079Y42559D01*
X-147095Y42526D01*
X-147129Y42476D01*
X-147162Y42409D01*
X-147195Y42309D01*
X-147212Y42193D01*
X-147245Y42059D01*
Y41826D01*
X-147229Y41726D01*
X-147212Y41610D01*
X-147179Y41460D01*
X-147129Y41310D01*
X-147062Y41160D01*
X-146962Y40993D01*
X-146945Y40976D01*
X-146912Y40926D01*
X-146846Y40860D01*
X-146762Y40776D01*
X-146646Y40676D01*
X-146512Y40577D01*
X-146346Y40493D01*
X-146162Y40410D01*
X-146146D01*
X-146062Y40377D01*
X-145929Y40360D01*
X-145763Y40327D01*
X-145513Y40293D01*
X-145229Y40277D01*
X-144863Y40243D01*
X-144446D01*
X-140397D01*
Y38027D01*
X-148762D01*
Y40060D01*
X-147612D01*
X-147629Y40077D01*
X-147662Y40110D01*
X-147729Y40177D01*
X-147829Y40260D01*
X-147929Y40360D01*
X-148029Y40476D01*
X-148162Y40627D01*
X-148279Y40793D01*
X-148395Y40976D01*
X-148528Y41176D01*
X-148745Y41610D01*
X-148828Y41859D01*
X-148895Y42109D01*
X-148928Y42376D01*
X-148945Y42659D01*
Y42793D01*
X-148928Y42943D01*
X-148912Y43126D01*
X-148862Y43342D01*
X-148812Y43576D01*
X-148728Y43809D01*
X-148612Y44042D01*
X-148595Y44076D01*
X-148545Y44142D01*
X-148478Y44259D01*
X-148362Y44392D01*
X-148212Y44542D01*
X-148045Y44709D01*
X-147829Y44875D01*
X-147595Y45025D01*
X-147629Y45059D01*
X-147712Y45125D01*
X-147829Y45225D01*
X-147979Y45375D01*
X-148145Y45559D01*
X-148312Y45759D01*
X-148478Y45975D01*
X-148612Y46208D01*
X-148628Y46242D01*
X-148662Y46325D01*
X-148712Y46458D01*
X-148778Y46625D01*
X-148845Y46825D01*
X-148895Y47058D01*
X-148928Y47308D01*
X-148945Y47575D01*
Y47725D01*
X-148928Y47891D01*
X-148895Y48108D01*
X-148845Y48358D01*
X-148778Y48608D01*
X-148695Y48874D01*
X-148562Y49124D01*
X-148545Y49158D01*
X-148495Y49224D01*
X-148412Y49341D01*
X-148295Y49491D01*
X-148128Y49641D01*
X-147945Y49808D01*
X-147729Y49957D01*
X-147462Y50091D01*
X-147445Y50107D01*
X-147362Y50124D01*
X-147229Y50157D01*
X-147045Y50207D01*
X-146812Y50257D01*
X-146512Y50291D01*
X-146146Y50307D01*
X-145729Y50324D01*
X-140397D01*
Y48108D01*
D02*
G37*
G36*
X-144030Y36528D02*
X-143896D01*
X-143746Y36494D01*
X-143580Y36477D01*
X-143413Y36444D01*
X-143013Y36344D01*
X-142580Y36194D01*
X-142347Y36094D01*
X-142130Y35994D01*
X-141913Y35861D01*
X-141697Y35711D01*
X-141680Y35694D01*
X-141630Y35661D01*
X-141564Y35594D01*
X-141464Y35511D01*
X-141347Y35394D01*
X-141214Y35245D01*
X-141080Y35078D01*
X-140947Y34895D01*
X-140797Y34678D01*
X-140664Y34445D01*
X-140531Y34195D01*
X-140414Y33911D01*
X-140314Y33612D01*
X-140247Y33295D01*
X-140197Y32945D01*
X-140181Y32578D01*
Y32429D01*
X-140197Y32312D01*
X-140214Y32179D01*
X-140231Y32012D01*
X-140247Y31845D01*
X-140281Y31646D01*
X-140380Y31246D01*
X-140547Y30796D01*
X-140631Y30579D01*
X-140747Y30362D01*
X-140880Y30162D01*
X-141030Y29963D01*
X-141047Y29946D01*
X-141064Y29913D01*
X-141114Y29863D01*
X-141180Y29796D01*
X-141280Y29729D01*
X-141380Y29629D01*
X-141497Y29546D01*
X-141630Y29446D01*
X-141797Y29329D01*
X-141963Y29229D01*
X-142363Y29046D01*
X-142813Y28879D01*
X-143063Y28830D01*
X-143330Y28779D01*
X-143563Y30979D01*
X-143530D01*
X-143446Y30996D01*
X-143296Y31029D01*
X-143130Y31079D01*
X-142947Y31146D01*
X-142747Y31246D01*
X-142563Y31379D01*
X-142380Y31529D01*
X-142363Y31546D01*
X-142313Y31612D01*
X-142247Y31712D01*
X-142163Y31845D01*
X-142080Y31995D01*
X-142013Y32179D01*
X-141963Y32395D01*
X-141947Y32612D01*
Y32645D01*
X-141963Y32729D01*
X-141980Y32862D01*
X-142013Y33028D01*
X-142080Y33212D01*
X-142180Y33412D01*
X-142330Y33612D01*
X-142513Y33795D01*
X-142547Y33812D01*
X-142613Y33878D01*
X-142747Y33945D01*
X-142947Y34045D01*
X-143180Y34128D01*
X-143463Y34211D01*
X-143813Y34262D01*
X-144213Y34278D01*
X-144229D01*
X-144263D01*
X-144313D01*
X-144396D01*
X-144579Y34262D01*
X-144813Y34211D01*
X-145079Y34162D01*
X-145346Y34078D01*
X-145596Y33962D01*
X-145813Y33795D01*
X-145829Y33778D01*
X-145896Y33712D01*
X-145979Y33595D01*
X-146096Y33462D01*
X-146196Y33278D01*
X-146279Y33062D01*
X-146346Y32812D01*
X-146362Y32545D01*
Y32445D01*
X-146346Y32379D01*
X-146312Y32212D01*
X-146262Y31979D01*
X-146162Y31712D01*
X-146012Y31429D01*
X-145912Y31279D01*
X-145796Y31129D01*
X-145662Y30979D01*
X-145513Y30829D01*
X-145763Y29046D01*
X-151778Y30179D01*
Y36028D01*
X-149712D01*
Y31845D01*
X-147745Y31495D01*
Y31512D01*
X-147762Y31529D01*
X-147812Y31629D01*
X-147862Y31779D01*
X-147945Y31962D01*
X-148012Y32195D01*
X-148062Y32445D01*
X-148112Y32729D01*
X-148128Y33012D01*
Y33162D01*
X-148112Y33262D01*
X-148095Y33378D01*
X-148078Y33528D01*
X-148045Y33695D01*
X-147995Y33878D01*
X-147862Y34262D01*
X-147779Y34478D01*
X-147679Y34678D01*
X-147545Y34895D01*
X-147395Y35111D01*
X-147229Y35311D01*
X-147045Y35511D01*
X-147029Y35528D01*
X-146995Y35561D01*
X-146929Y35611D01*
X-146846Y35678D01*
X-146746Y35744D01*
X-146612Y35844D01*
X-146462Y35928D01*
X-146296Y36028D01*
X-146112Y36128D01*
X-145896Y36211D01*
X-145662Y36311D01*
X-145429Y36378D01*
X-145163Y36444D01*
X-144879Y36494D01*
X-144579Y36528D01*
X-144263Y36544D01*
X-144246D01*
X-144196D01*
X-144130D01*
X-144030Y36528D01*
D02*
G37*
G36*
X-140397Y24731D02*
X-142613D01*
Y26947D01*
X-140397D01*
Y24731D01*
D02*
G37*
G36*
X-143513Y22848D02*
X-143380Y22831D01*
X-143213Y22814D01*
X-143047Y22781D01*
X-142863Y22731D01*
X-142447Y22614D01*
X-142230Y22531D01*
X-142013Y22431D01*
X-141797Y22315D01*
X-141580Y22164D01*
X-141380Y22015D01*
X-141180Y21831D01*
X-141164Y21815D01*
X-141130Y21781D01*
X-141080Y21731D01*
X-141030Y21648D01*
X-140947Y21548D01*
X-140864Y21415D01*
X-140780Y21281D01*
X-140680Y21115D01*
X-140581Y20931D01*
X-140497Y20715D01*
X-140414Y20498D01*
X-140330Y20265D01*
X-140281Y19998D01*
X-140231Y19715D01*
X-140197Y19432D01*
X-140181Y19115D01*
Y18965D01*
X-140197Y18849D01*
X-140214Y18715D01*
X-140231Y18565D01*
X-140247Y18399D01*
X-140281Y18199D01*
X-140380Y17782D01*
X-140531Y17349D01*
X-140614Y17133D01*
X-140730Y16916D01*
X-140847Y16699D01*
X-140997Y16499D01*
X-141014Y16483D01*
X-141047Y16449D01*
X-141097Y16383D01*
X-141180Y16299D01*
X-141280Y16216D01*
X-141397Y16116D01*
X-141547Y15999D01*
X-141697Y15883D01*
X-141880Y15766D01*
X-142080Y15649D01*
X-142297Y15550D01*
X-142547Y15466D01*
X-142797Y15383D01*
X-143080Y15316D01*
X-143363Y15283D01*
X-143680Y15266D01*
X-143696D01*
X-143730D01*
X-143780D01*
X-143846D01*
X-144030Y15283D01*
X-144246Y15316D01*
X-144513Y15383D01*
X-144813Y15450D01*
X-145113Y15566D01*
X-145413Y15716D01*
X-145429D01*
X-145446Y15733D01*
X-145546Y15799D01*
X-145679Y15916D01*
X-145862Y16083D01*
X-146062Y16283D01*
X-146262Y16533D01*
X-146446Y16833D01*
X-146629Y17183D01*
Y17166D01*
X-146646Y17149D01*
X-146696Y17049D01*
X-146779Y16899D01*
X-146879Y16716D01*
X-147029Y16499D01*
X-147195Y16299D01*
X-147395Y16099D01*
X-147612Y15933D01*
X-147645Y15916D01*
X-147729Y15866D01*
X-147845Y15816D01*
X-148029Y15749D01*
X-148229Y15666D01*
X-148478Y15616D01*
X-148728Y15566D01*
X-149012Y15550D01*
X-149028D01*
X-149062D01*
X-149128D01*
X-149228Y15566D01*
X-149328Y15583D01*
X-149461Y15600D01*
X-149761Y15666D01*
X-150095Y15766D01*
X-150461Y15933D01*
X-150628Y16033D01*
X-150811Y16149D01*
X-150978Y16299D01*
X-151144Y16449D01*
X-151161Y16466D01*
X-151178Y16499D01*
X-151228Y16549D01*
X-151278Y16616D01*
X-151344Y16716D01*
X-151411Y16816D01*
X-151494Y16949D01*
X-151578Y17116D01*
X-151644Y17283D01*
X-151728Y17466D01*
X-151794Y17682D01*
X-151861Y17916D01*
X-151911Y18166D01*
X-151961Y18432D01*
X-151978Y18715D01*
X-151994Y19015D01*
Y19182D01*
X-151978Y19282D01*
X-151961Y19432D01*
X-151944Y19582D01*
X-151928Y19765D01*
X-151894Y19948D01*
X-151794Y20365D01*
X-151644Y20798D01*
X-151544Y20998D01*
X-151428Y21215D01*
X-151294Y21398D01*
X-151144Y21581D01*
X-151128Y21598D01*
X-151111Y21615D01*
X-151061Y21665D01*
X-150995Y21731D01*
X-150911Y21798D01*
X-150811Y21865D01*
X-150561Y22048D01*
X-150245Y22215D01*
X-149895Y22348D01*
X-149478Y22464D01*
X-149245Y22481D01*
X-149012Y22498D01*
X-148995D01*
X-148978D01*
X-148878D01*
X-148728Y22481D01*
X-148528Y22448D01*
X-148312Y22398D01*
X-148078Y22315D01*
X-147829Y22215D01*
X-147579Y22065D01*
X-147545Y22048D01*
X-147479Y21981D01*
X-147362Y21898D01*
X-147229Y21765D01*
X-147062Y21598D01*
X-146912Y21398D01*
X-146762Y21165D01*
X-146629Y20898D01*
Y20915D01*
X-146612Y20948D01*
X-146596Y20998D01*
X-146562Y21065D01*
X-146462Y21232D01*
X-146329Y21448D01*
X-146179Y21681D01*
X-145979Y21931D01*
X-145746Y22164D01*
X-145479Y22364D01*
X-145446Y22381D01*
X-145346Y22448D01*
X-145196Y22531D01*
X-144996Y22614D01*
X-144746Y22714D01*
X-144446Y22781D01*
X-144130Y22848D01*
X-143780Y22864D01*
X-143763D01*
X-143713D01*
X-143630D01*
X-143513Y22848D01*
D02*
G37*
G36*
X353161Y-83989D02*
X353277D01*
X353410Y-84005D01*
X353710Y-84072D01*
X354044Y-84155D01*
X354410Y-84288D01*
X354777Y-84472D01*
X354944Y-84588D01*
X355110Y-84722D01*
X355127D01*
X355143Y-84755D01*
X355193Y-84805D01*
X355243Y-84855D01*
X355327Y-84938D01*
X355393Y-85021D01*
X355577Y-85255D01*
X355760Y-85571D01*
X355943Y-85938D01*
X356110Y-86355D01*
X356227Y-86854D01*
X354094Y-87088D01*
Y-87054D01*
X354077Y-86988D01*
X354044Y-86871D01*
X354010Y-86721D01*
X353960Y-86571D01*
X353877Y-86404D01*
X353794Y-86255D01*
X353677Y-86121D01*
X353661Y-86105D01*
X353610Y-86071D01*
X353544Y-86021D01*
X353444Y-85955D01*
X353327Y-85905D01*
X353177Y-85855D01*
X352994Y-85821D01*
X352811Y-85805D01*
X352777D01*
X352694Y-85821D01*
X352561Y-85838D01*
X352394Y-85888D01*
X352211Y-85955D01*
X352011Y-86071D01*
X351811Y-86221D01*
X351628Y-86438D01*
X351611Y-86471D01*
X351578Y-86504D01*
X351544Y-86571D01*
X351511Y-86638D01*
X351461Y-86738D01*
X351428Y-86854D01*
X351378Y-87004D01*
X351311Y-87171D01*
X351261Y-87354D01*
X351211Y-87571D01*
X351161Y-87804D01*
X351111Y-88071D01*
X351078Y-88371D01*
X351045Y-88704D01*
X351011Y-89054D01*
X351028Y-89037D01*
X351045Y-89004D01*
X351094Y-88970D01*
X351161Y-88904D01*
X351244Y-88820D01*
X351344Y-88737D01*
X351578Y-88554D01*
X351878Y-88387D01*
X352228Y-88221D01*
X352427Y-88154D01*
X352627Y-88121D01*
X352844Y-88087D01*
X353077Y-88071D01*
X353211D01*
X353311Y-88087D01*
X353427Y-88104D01*
X353560Y-88121D01*
X353727Y-88154D01*
X353894Y-88204D01*
X354260Y-88337D01*
X354460Y-88421D01*
X354660Y-88521D01*
X354860Y-88637D01*
X355060Y-88787D01*
X355260Y-88954D01*
X355443Y-89137D01*
X355460Y-89154D01*
X355493Y-89187D01*
X355543Y-89237D01*
X355593Y-89320D01*
X355677Y-89437D01*
X355760Y-89554D01*
X355843Y-89704D01*
X355943Y-89870D01*
X356043Y-90054D01*
X356127Y-90270D01*
X356210Y-90487D01*
X356293Y-90737D01*
X356343Y-90987D01*
X356393Y-91270D01*
X356426Y-91553D01*
X356443Y-91870D01*
Y-91886D01*
Y-91953D01*
Y-92036D01*
X356426Y-92170D01*
X356410Y-92320D01*
X356393Y-92486D01*
X356360Y-92686D01*
X356310Y-92886D01*
X356193Y-93353D01*
X356110Y-93586D01*
X355993Y-93819D01*
X355877Y-94052D01*
X355743Y-94286D01*
X355577Y-94519D01*
X355393Y-94719D01*
X355377Y-94736D01*
X355343Y-94769D01*
X355293Y-94819D01*
X355210Y-94886D01*
X355110Y-94969D01*
X354977Y-95052D01*
X354843Y-95152D01*
X354677Y-95252D01*
X354494Y-95352D01*
X354294Y-95452D01*
X354077Y-95535D01*
X353827Y-95619D01*
X353577Y-95686D01*
X353311Y-95735D01*
X353027Y-95769D01*
X352727Y-95785D01*
X352644D01*
X352561Y-95769D01*
X352444D01*
X352294Y-95735D01*
X352111Y-95719D01*
X351928Y-95669D01*
X351711Y-95619D01*
X351494Y-95552D01*
X351261Y-95452D01*
X351011Y-95352D01*
X350778Y-95219D01*
X350528Y-95069D01*
X350295Y-94886D01*
X350061Y-94669D01*
X349845Y-94436D01*
X349828Y-94419D01*
X349795Y-94369D01*
X349745Y-94286D01*
X349678Y-94169D01*
X349578Y-94019D01*
X349495Y-93836D01*
X349395Y-93619D01*
X349295Y-93369D01*
X349178Y-93069D01*
X349078Y-92753D01*
X348995Y-92386D01*
X348912Y-91970D01*
X348828Y-91537D01*
X348778Y-91053D01*
X348745Y-90537D01*
X348728Y-89970D01*
Y-89954D01*
Y-89937D01*
Y-89887D01*
Y-89837D01*
Y-89670D01*
X348745Y-89454D01*
X348762Y-89187D01*
X348795Y-88887D01*
X348828Y-88554D01*
X348878Y-88204D01*
X348928Y-87837D01*
X349012Y-87454D01*
X349112Y-87071D01*
X349228Y-86688D01*
X349362Y-86338D01*
X349511Y-85988D01*
X349695Y-85671D01*
X349895Y-85388D01*
X349911Y-85371D01*
X349945Y-85321D01*
X350011Y-85255D01*
X350111Y-85171D01*
X350228Y-85055D01*
X350361Y-84938D01*
X350528Y-84805D01*
X350711Y-84672D01*
X350928Y-84555D01*
X351144Y-84422D01*
X351411Y-84305D01*
X351678Y-84188D01*
X351961Y-84105D01*
X352277Y-84038D01*
X352594Y-83989D01*
X352944Y-83972D01*
X353077D01*
X353161Y-83989D01*
D02*
G37*
G36*
X382203Y-87038D02*
X382420Y-87071D01*
X382670Y-87121D01*
X382920Y-87188D01*
X383186Y-87271D01*
X383436Y-87404D01*
X383470Y-87421D01*
X383536Y-87471D01*
X383653Y-87554D01*
X383803Y-87671D01*
X383953Y-87837D01*
X384119Y-88021D01*
X384269Y-88237D01*
X384403Y-88504D01*
X384419Y-88521D01*
X384436Y-88604D01*
X384469Y-88737D01*
X384519Y-88920D01*
X384569Y-89154D01*
X384603Y-89454D01*
X384619Y-89820D01*
X384636Y-90237D01*
Y-95569D01*
X382420D01*
Y-90803D01*
Y-90787D01*
Y-90753D01*
Y-90687D01*
Y-90603D01*
X382403Y-90387D01*
X382386Y-90137D01*
X382370Y-89870D01*
X382320Y-89604D01*
X382270Y-89370D01*
X382220Y-89287D01*
X382187Y-89204D01*
X382170Y-89187D01*
X382120Y-89121D01*
X382053Y-89054D01*
X381953Y-88954D01*
X381820Y-88870D01*
X381653Y-88787D01*
X381453Y-88737D01*
X381237Y-88721D01*
X381153D01*
X381070Y-88737D01*
X380953Y-88754D01*
X380820Y-88787D01*
X380670Y-88837D01*
X380504Y-88904D01*
X380354Y-89004D01*
X380337Y-89021D01*
X380287Y-89054D01*
X380220Y-89121D01*
X380137Y-89220D01*
X380037Y-89337D01*
X379937Y-89470D01*
X379854Y-89637D01*
X379770Y-89837D01*
Y-89870D01*
X379737Y-89937D01*
X379720Y-90070D01*
X379687Y-90253D01*
X379654Y-90504D01*
X379637Y-90803D01*
X379604Y-91153D01*
Y-91570D01*
Y-95569D01*
X377388D01*
Y-91003D01*
Y-90987D01*
Y-90953D01*
Y-90887D01*
Y-90803D01*
Y-90603D01*
X377371Y-90353D01*
X377354Y-90087D01*
X377338Y-89837D01*
X377304Y-89604D01*
X377271Y-89504D01*
X377254Y-89437D01*
Y-89420D01*
X377238Y-89370D01*
X377204Y-89304D01*
X377171Y-89237D01*
X377054Y-89054D01*
X376971Y-88970D01*
X376888Y-88904D01*
X376871Y-88887D01*
X376838Y-88870D01*
X376788Y-88837D01*
X376721Y-88804D01*
X376621Y-88771D01*
X376505Y-88754D01*
X376371Y-88721D01*
X376138D01*
X376038Y-88737D01*
X375921Y-88754D01*
X375771Y-88787D01*
X375621Y-88837D01*
X375471Y-88904D01*
X375305Y-89004D01*
X375288Y-89021D01*
X375238Y-89054D01*
X375172Y-89121D01*
X375088Y-89204D01*
X374988Y-89320D01*
X374888Y-89454D01*
X374805Y-89620D01*
X374722Y-89804D01*
Y-89820D01*
X374688Y-89904D01*
X374672Y-90037D01*
X374638Y-90204D01*
X374605Y-90454D01*
X374588Y-90737D01*
X374555Y-91103D01*
Y-91520D01*
Y-95569D01*
X372339D01*
Y-87204D01*
X374372D01*
Y-88354D01*
X374389Y-88337D01*
X374422Y-88304D01*
X374488Y-88237D01*
X374572Y-88137D01*
X374672Y-88037D01*
X374788Y-87937D01*
X374938Y-87804D01*
X375105Y-87688D01*
X375288Y-87571D01*
X375488Y-87438D01*
X375921Y-87221D01*
X376171Y-87138D01*
X376421Y-87071D01*
X376688Y-87038D01*
X376971Y-87021D01*
X377104D01*
X377254Y-87038D01*
X377438Y-87054D01*
X377654Y-87104D01*
X377888Y-87154D01*
X378121Y-87238D01*
X378354Y-87354D01*
X378387Y-87371D01*
X378454Y-87421D01*
X378571Y-87488D01*
X378704Y-87604D01*
X378854Y-87754D01*
X379021Y-87921D01*
X379187Y-88137D01*
X379337Y-88371D01*
X379370Y-88337D01*
X379437Y-88254D01*
X379537Y-88137D01*
X379687Y-87987D01*
X379870Y-87821D01*
X380070Y-87654D01*
X380287Y-87488D01*
X380520Y-87354D01*
X380554Y-87338D01*
X380637Y-87304D01*
X380770Y-87254D01*
X380937Y-87188D01*
X381137Y-87121D01*
X381370Y-87071D01*
X381620Y-87038D01*
X381887Y-87021D01*
X382037D01*
X382203Y-87038D01*
D02*
G37*
G36*
X367873D02*
X368090Y-87071D01*
X368340Y-87121D01*
X368590Y-87188D01*
X368857Y-87271D01*
X369106Y-87404D01*
X369140Y-87421D01*
X369207Y-87471D01*
X369323Y-87554D01*
X369473Y-87671D01*
X369623Y-87837D01*
X369790Y-88021D01*
X369940Y-88237D01*
X370073Y-88504D01*
X370090Y-88521D01*
X370106Y-88604D01*
X370140Y-88737D01*
X370190Y-88920D01*
X370239Y-89154D01*
X370273Y-89454D01*
X370289Y-89820D01*
X370306Y-90237D01*
Y-95569D01*
X368090D01*
Y-90803D01*
Y-90787D01*
Y-90753D01*
Y-90687D01*
Y-90603D01*
X368073Y-90387D01*
X368057Y-90137D01*
X368040Y-89870D01*
X367990Y-89604D01*
X367940Y-89370D01*
X367890Y-89287D01*
X367857Y-89204D01*
X367840Y-89187D01*
X367790Y-89121D01*
X367724Y-89054D01*
X367623Y-88954D01*
X367490Y-88870D01*
X367324Y-88787D01*
X367124Y-88737D01*
X366907Y-88721D01*
X366824D01*
X366740Y-88737D01*
X366624Y-88754D01*
X366491Y-88787D01*
X366340Y-88837D01*
X366174Y-88904D01*
X366024Y-89004D01*
X366007Y-89021D01*
X365957Y-89054D01*
X365891Y-89121D01*
X365807Y-89220D01*
X365707Y-89337D01*
X365607Y-89470D01*
X365524Y-89637D01*
X365441Y-89837D01*
Y-89870D01*
X365407Y-89937D01*
X365391Y-90070D01*
X365358Y-90253D01*
X365324Y-90504D01*
X365308Y-90803D01*
X365274Y-91153D01*
Y-91570D01*
Y-95569D01*
X363058D01*
Y-91003D01*
Y-90987D01*
Y-90953D01*
Y-90887D01*
Y-90803D01*
Y-90603D01*
X363041Y-90353D01*
X363025Y-90087D01*
X363008Y-89837D01*
X362975Y-89604D01*
X362941Y-89504D01*
X362925Y-89437D01*
Y-89420D01*
X362908Y-89370D01*
X362875Y-89304D01*
X362841Y-89237D01*
X362725Y-89054D01*
X362641Y-88970D01*
X362558Y-88904D01*
X362542Y-88887D01*
X362508Y-88870D01*
X362458Y-88837D01*
X362392Y-88804D01*
X362292Y-88771D01*
X362175Y-88754D01*
X362042Y-88721D01*
X361808D01*
X361708Y-88737D01*
X361592Y-88754D01*
X361442Y-88787D01*
X361292Y-88837D01*
X361142Y-88904D01*
X360975Y-89004D01*
X360959Y-89021D01*
X360909Y-89054D01*
X360842Y-89121D01*
X360759Y-89204D01*
X360659Y-89320D01*
X360559Y-89454D01*
X360475Y-89620D01*
X360392Y-89804D01*
Y-89820D01*
X360359Y-89904D01*
X360342Y-90037D01*
X360309Y-90204D01*
X360275Y-90454D01*
X360259Y-90737D01*
X360225Y-91103D01*
Y-91520D01*
Y-95569D01*
X358009D01*
Y-87204D01*
X360042D01*
Y-88354D01*
X360059Y-88337D01*
X360092Y-88304D01*
X360159Y-88237D01*
X360242Y-88137D01*
X360342Y-88037D01*
X360459Y-87937D01*
X360609Y-87804D01*
X360775Y-87688D01*
X360959Y-87571D01*
X361158Y-87438D01*
X361592Y-87221D01*
X361842Y-87138D01*
X362092Y-87071D01*
X362358Y-87038D01*
X362641Y-87021D01*
X362775D01*
X362925Y-87038D01*
X363108Y-87054D01*
X363325Y-87104D01*
X363558Y-87154D01*
X363791Y-87238D01*
X364025Y-87354D01*
X364058Y-87371D01*
X364124Y-87421D01*
X364241Y-87488D01*
X364374Y-87604D01*
X364524Y-87754D01*
X364691Y-87921D01*
X364858Y-88137D01*
X365008Y-88371D01*
X365041Y-88337D01*
X365107Y-88254D01*
X365207Y-88137D01*
X365358Y-87987D01*
X365541Y-87821D01*
X365741Y-87654D01*
X365957Y-87488D01*
X366191Y-87354D01*
X366224Y-87338D01*
X366307Y-87304D01*
X366441Y-87254D01*
X366607Y-87188D01*
X366807Y-87121D01*
X367040Y-87071D01*
X367290Y-87038D01*
X367557Y-87021D01*
X367707D01*
X367873Y-87038D01*
D02*
G37*
G36*
X346929Y-95569D02*
X344713D01*
Y-93353D01*
X346929D01*
Y-95569D01*
D02*
G37*
G36*
X339264Y-83989D02*
X339414Y-84005D01*
X339564Y-84022D01*
X339747Y-84038D01*
X339931Y-84072D01*
X340347Y-84172D01*
X340780Y-84322D01*
X340980Y-84422D01*
X341197Y-84538D01*
X341380Y-84672D01*
X341564Y-84822D01*
X341580Y-84838D01*
X341597Y-84855D01*
X341647Y-84905D01*
X341713Y-84972D01*
X341780Y-85055D01*
X341847Y-85155D01*
X342030Y-85405D01*
X342197Y-85721D01*
X342330Y-86071D01*
X342447Y-86488D01*
X342463Y-86721D01*
X342480Y-86954D01*
Y-86971D01*
Y-86988D01*
Y-87088D01*
X342463Y-87238D01*
X342430Y-87438D01*
X342380Y-87654D01*
X342297Y-87887D01*
X342197Y-88137D01*
X342047Y-88387D01*
X342030Y-88421D01*
X341964Y-88487D01*
X341880Y-88604D01*
X341747Y-88737D01*
X341580Y-88904D01*
X341380Y-89054D01*
X341147Y-89204D01*
X340880Y-89337D01*
X340897D01*
X340930Y-89354D01*
X340980Y-89370D01*
X341047Y-89404D01*
X341214Y-89504D01*
X341430Y-89637D01*
X341664Y-89787D01*
X341913Y-89987D01*
X342147Y-90220D01*
X342347Y-90487D01*
X342363Y-90520D01*
X342430Y-90620D01*
X342513Y-90770D01*
X342597Y-90970D01*
X342697Y-91220D01*
X342763Y-91520D01*
X342830Y-91836D01*
X342847Y-92186D01*
Y-92203D01*
Y-92253D01*
Y-92336D01*
X342830Y-92453D01*
X342813Y-92586D01*
X342797Y-92753D01*
X342763Y-92920D01*
X342713Y-93103D01*
X342597Y-93519D01*
X342513Y-93736D01*
X342413Y-93953D01*
X342297Y-94169D01*
X342147Y-94386D01*
X341997Y-94586D01*
X341814Y-94786D01*
X341797Y-94802D01*
X341763Y-94836D01*
X341713Y-94886D01*
X341630Y-94936D01*
X341530Y-95019D01*
X341397Y-95102D01*
X341264Y-95186D01*
X341097Y-95286D01*
X340914Y-95386D01*
X340697Y-95469D01*
X340480Y-95552D01*
X340247Y-95635D01*
X339981Y-95686D01*
X339697Y-95735D01*
X339414Y-95769D01*
X339098Y-95785D01*
X338948D01*
X338831Y-95769D01*
X338698Y-95752D01*
X338548Y-95735D01*
X338381Y-95719D01*
X338181Y-95686D01*
X337765Y-95585D01*
X337331Y-95435D01*
X337115Y-95352D01*
X336898Y-95236D01*
X336682Y-95119D01*
X336482Y-94969D01*
X336465Y-94952D01*
X336432Y-94919D01*
X336365Y-94869D01*
X336282Y-94786D01*
X336198Y-94686D01*
X336098Y-94569D01*
X335982Y-94419D01*
X335865Y-94269D01*
X335748Y-94086D01*
X335632Y-93886D01*
X335532Y-93669D01*
X335448Y-93419D01*
X335365Y-93169D01*
X335299Y-92886D01*
X335265Y-92603D01*
X335248Y-92286D01*
Y-92270D01*
Y-92236D01*
Y-92186D01*
Y-92120D01*
X335265Y-91936D01*
X335299Y-91720D01*
X335365Y-91453D01*
X335432Y-91153D01*
X335548Y-90853D01*
X335698Y-90553D01*
Y-90537D01*
X335715Y-90520D01*
X335782Y-90420D01*
X335898Y-90287D01*
X336065Y-90104D01*
X336265Y-89904D01*
X336515Y-89704D01*
X336815Y-89520D01*
X337165Y-89337D01*
X337148D01*
X337131Y-89320D01*
X337031Y-89270D01*
X336881Y-89187D01*
X336698Y-89087D01*
X336482Y-88937D01*
X336282Y-88771D01*
X336082Y-88571D01*
X335915Y-88354D01*
X335898Y-88321D01*
X335848Y-88237D01*
X335798Y-88121D01*
X335732Y-87937D01*
X335648Y-87738D01*
X335598Y-87488D01*
X335548Y-87238D01*
X335532Y-86954D01*
Y-86938D01*
Y-86904D01*
Y-86838D01*
X335548Y-86738D01*
X335565Y-86638D01*
X335582Y-86504D01*
X335648Y-86205D01*
X335748Y-85871D01*
X335915Y-85505D01*
X336015Y-85338D01*
X336132Y-85155D01*
X336282Y-84988D01*
X336432Y-84822D01*
X336448Y-84805D01*
X336482Y-84788D01*
X336531Y-84738D01*
X336598Y-84688D01*
X336698Y-84622D01*
X336798Y-84555D01*
X336931Y-84472D01*
X337098Y-84388D01*
X337265Y-84322D01*
X337448Y-84238D01*
X337665Y-84172D01*
X337898Y-84105D01*
X338148Y-84055D01*
X338414Y-84005D01*
X338698Y-83989D01*
X338997Y-83972D01*
X339164D01*
X339264Y-83989D01*
D02*
G37*
G36*
X330300D02*
X330450Y-84005D01*
X330600Y-84022D01*
X330783Y-84038D01*
X330966Y-84072D01*
X331383Y-84172D01*
X331816Y-84322D01*
X332016Y-84422D01*
X332233Y-84538D01*
X332416Y-84672D01*
X332599Y-84822D01*
X332616Y-84838D01*
X332632Y-84855D01*
X332682Y-84905D01*
X332749Y-84972D01*
X332816Y-85055D01*
X332882Y-85155D01*
X333066Y-85405D01*
X333232Y-85721D01*
X333366Y-86071D01*
X333482Y-86488D01*
X333499Y-86721D01*
X333516Y-86954D01*
Y-86971D01*
Y-86988D01*
Y-87088D01*
X333499Y-87238D01*
X333466Y-87438D01*
X333416Y-87654D01*
X333332Y-87887D01*
X333232Y-88137D01*
X333082Y-88387D01*
X333066Y-88421D01*
X332999Y-88487D01*
X332916Y-88604D01*
X332783Y-88737D01*
X332616Y-88904D01*
X332416Y-89054D01*
X332183Y-89204D01*
X331916Y-89337D01*
X331933D01*
X331966Y-89354D01*
X332016Y-89370D01*
X332083Y-89404D01*
X332249Y-89504D01*
X332466Y-89637D01*
X332699Y-89787D01*
X332949Y-89987D01*
X333182Y-90220D01*
X333382Y-90487D01*
X333399Y-90520D01*
X333466Y-90620D01*
X333549Y-90770D01*
X333632Y-90970D01*
X333732Y-91220D01*
X333799Y-91520D01*
X333866Y-91836D01*
X333882Y-92186D01*
Y-92203D01*
Y-92253D01*
Y-92336D01*
X333866Y-92453D01*
X333849Y-92586D01*
X333832Y-92753D01*
X333799Y-92920D01*
X333749Y-93103D01*
X333632Y-93519D01*
X333549Y-93736D01*
X333449Y-93953D01*
X333332Y-94169D01*
X333182Y-94386D01*
X333032Y-94586D01*
X332849Y-94786D01*
X332832Y-94802D01*
X332799Y-94836D01*
X332749Y-94886D01*
X332666Y-94936D01*
X332566Y-95019D01*
X332433Y-95102D01*
X332299Y-95186D01*
X332133Y-95286D01*
X331949Y-95386D01*
X331733Y-95469D01*
X331516Y-95552D01*
X331283Y-95635D01*
X331016Y-95686D01*
X330733Y-95735D01*
X330450Y-95769D01*
X330133Y-95785D01*
X329983D01*
X329866Y-95769D01*
X329733Y-95752D01*
X329583Y-95735D01*
X329417Y-95719D01*
X329217Y-95686D01*
X328800Y-95585D01*
X328367Y-95435D01*
X328150Y-95352D01*
X327934Y-95236D01*
X327717Y-95119D01*
X327517Y-94969D01*
X327500Y-94952D01*
X327467Y-94919D01*
X327401Y-94869D01*
X327317Y-94786D01*
X327234Y-94686D01*
X327134Y-94569D01*
X327017Y-94419D01*
X326901Y-94269D01*
X326784Y-94086D01*
X326667Y-93886D01*
X326567Y-93669D01*
X326484Y-93419D01*
X326401Y-93169D01*
X326334Y-92886D01*
X326301Y-92603D01*
X326284Y-92286D01*
Y-92270D01*
Y-92236D01*
Y-92186D01*
Y-92120D01*
X326301Y-91936D01*
X326334Y-91720D01*
X326401Y-91453D01*
X326467Y-91153D01*
X326584Y-90853D01*
X326734Y-90553D01*
Y-90537D01*
X326751Y-90520D01*
X326817Y-90420D01*
X326934Y-90287D01*
X327101Y-90104D01*
X327300Y-89904D01*
X327551Y-89704D01*
X327850Y-89520D01*
X328200Y-89337D01*
X328184D01*
X328167Y-89320D01*
X328067Y-89270D01*
X327917Y-89187D01*
X327734Y-89087D01*
X327517Y-88937D01*
X327317Y-88771D01*
X327117Y-88571D01*
X326951Y-88354D01*
X326934Y-88321D01*
X326884Y-88237D01*
X326834Y-88121D01*
X326767Y-87937D01*
X326684Y-87738D01*
X326634Y-87488D01*
X326584Y-87238D01*
X326567Y-86954D01*
Y-86938D01*
Y-86904D01*
Y-86838D01*
X326584Y-86738D01*
X326601Y-86638D01*
X326617Y-86504D01*
X326684Y-86205D01*
X326784Y-85871D01*
X326951Y-85505D01*
X327051Y-85338D01*
X327167Y-85155D01*
X327317Y-84988D01*
X327467Y-84822D01*
X327484Y-84805D01*
X327517Y-84788D01*
X327567Y-84738D01*
X327634Y-84688D01*
X327734Y-84622D01*
X327834Y-84555D01*
X327967Y-84472D01*
X328134Y-84388D01*
X328300Y-84322D01*
X328484Y-84238D01*
X328700Y-84172D01*
X328933Y-84105D01*
X329183Y-84055D01*
X329450Y-84005D01*
X329733Y-83989D01*
X330033Y-83972D01*
X330200D01*
X330300Y-83989D01*
D02*
G37*
G36*
X424703Y-54272D02*
X424920Y-54305D01*
X425170Y-54355D01*
X425420Y-54422D01*
X425686Y-54505D01*
X425936Y-54638D01*
X425970Y-54655D01*
X426036Y-54705D01*
X426153Y-54788D01*
X426303Y-54905D01*
X426453Y-55072D01*
X426619Y-55255D01*
X426769Y-55471D01*
X426903Y-55738D01*
X426919Y-55755D01*
X426936Y-55838D01*
X426969Y-55971D01*
X427019Y-56154D01*
X427069Y-56388D01*
X427103Y-56688D01*
X427119Y-57054D01*
X427136Y-57471D01*
Y-62803D01*
X424920D01*
Y-58037D01*
Y-58021D01*
Y-57987D01*
Y-57921D01*
Y-57837D01*
X424903Y-57621D01*
X424886Y-57371D01*
X424870Y-57104D01*
X424820Y-56838D01*
X424770Y-56604D01*
X424720Y-56521D01*
X424687Y-56438D01*
X424670Y-56421D01*
X424620Y-56354D01*
X424553Y-56288D01*
X424453Y-56188D01*
X424320Y-56104D01*
X424153Y-56021D01*
X423953Y-55971D01*
X423737Y-55955D01*
X423653D01*
X423570Y-55971D01*
X423453Y-55988D01*
X423320Y-56021D01*
X423170Y-56071D01*
X423004Y-56138D01*
X422854Y-56238D01*
X422837Y-56255D01*
X422787Y-56288D01*
X422720Y-56354D01*
X422637Y-56454D01*
X422537Y-56571D01*
X422437Y-56704D01*
X422354Y-56871D01*
X422270Y-57071D01*
Y-57104D01*
X422237Y-57171D01*
X422220Y-57304D01*
X422187Y-57488D01*
X422154Y-57737D01*
X422137Y-58037D01*
X422104Y-58387D01*
Y-58804D01*
Y-62803D01*
X419888D01*
Y-58237D01*
Y-58221D01*
Y-58187D01*
Y-58121D01*
Y-58037D01*
Y-57837D01*
X419871Y-57587D01*
X419854Y-57321D01*
X419838Y-57071D01*
X419804Y-56838D01*
X419771Y-56738D01*
X419754Y-56671D01*
Y-56654D01*
X419738Y-56604D01*
X419704Y-56538D01*
X419671Y-56471D01*
X419554Y-56288D01*
X419471Y-56205D01*
X419388Y-56138D01*
X419371Y-56121D01*
X419338Y-56104D01*
X419288Y-56071D01*
X419221Y-56038D01*
X419121Y-56005D01*
X419005Y-55988D01*
X418871Y-55955D01*
X418638D01*
X418538Y-55971D01*
X418421Y-55988D01*
X418271Y-56021D01*
X418121Y-56071D01*
X417971Y-56138D01*
X417805Y-56238D01*
X417788Y-56255D01*
X417738Y-56288D01*
X417672Y-56354D01*
X417588Y-56438D01*
X417488Y-56554D01*
X417388Y-56688D01*
X417305Y-56854D01*
X417222Y-57038D01*
Y-57054D01*
X417188Y-57138D01*
X417172Y-57271D01*
X417138Y-57438D01*
X417105Y-57688D01*
X417088Y-57971D01*
X417055Y-58337D01*
Y-58754D01*
Y-62803D01*
X414839D01*
Y-54438D01*
X416872D01*
Y-55588D01*
X416889Y-55571D01*
X416922Y-55538D01*
X416988Y-55471D01*
X417072Y-55371D01*
X417172Y-55271D01*
X417288Y-55171D01*
X417438Y-55038D01*
X417605Y-54921D01*
X417788Y-54805D01*
X417988Y-54672D01*
X418421Y-54455D01*
X418671Y-54372D01*
X418921Y-54305D01*
X419188Y-54272D01*
X419471Y-54255D01*
X419604D01*
X419754Y-54272D01*
X419938Y-54288D01*
X420154Y-54338D01*
X420388Y-54388D01*
X420621Y-54472D01*
X420854Y-54588D01*
X420887Y-54605D01*
X420954Y-54655D01*
X421071Y-54722D01*
X421204Y-54838D01*
X421354Y-54988D01*
X421521Y-55155D01*
X421687Y-55371D01*
X421837Y-55605D01*
X421870Y-55571D01*
X421937Y-55488D01*
X422037Y-55371D01*
X422187Y-55221D01*
X422370Y-55055D01*
X422570Y-54888D01*
X422787Y-54722D01*
X423020Y-54588D01*
X423054Y-54572D01*
X423137Y-54538D01*
X423270Y-54488D01*
X423437Y-54422D01*
X423637Y-54355D01*
X423870Y-54305D01*
X424120Y-54272D01*
X424387Y-54255D01*
X424537D01*
X424703Y-54272D01*
D02*
G37*
G36*
X410373D02*
X410590Y-54305D01*
X410840Y-54355D01*
X411090Y-54422D01*
X411357Y-54505D01*
X411606Y-54638D01*
X411640Y-54655D01*
X411707Y-54705D01*
X411823Y-54788D01*
X411973Y-54905D01*
X412123Y-55072D01*
X412290Y-55255D01*
X412440Y-55471D01*
X412573Y-55738D01*
X412590Y-55755D01*
X412606Y-55838D01*
X412640Y-55971D01*
X412690Y-56154D01*
X412739Y-56388D01*
X412773Y-56688D01*
X412789Y-57054D01*
X412806Y-57471D01*
Y-62803D01*
X410590D01*
Y-58037D01*
Y-58021D01*
Y-57987D01*
Y-57921D01*
Y-57837D01*
X410573Y-57621D01*
X410557Y-57371D01*
X410540Y-57104D01*
X410490Y-56838D01*
X410440Y-56604D01*
X410390Y-56521D01*
X410357Y-56438D01*
X410340Y-56421D01*
X410290Y-56354D01*
X410224Y-56288D01*
X410123Y-56188D01*
X409990Y-56104D01*
X409824Y-56021D01*
X409624Y-55971D01*
X409407Y-55955D01*
X409324D01*
X409240Y-55971D01*
X409124Y-55988D01*
X408991Y-56021D01*
X408840Y-56071D01*
X408674Y-56138D01*
X408524Y-56238D01*
X408507Y-56255D01*
X408457Y-56288D01*
X408391Y-56354D01*
X408307Y-56454D01*
X408207Y-56571D01*
X408107Y-56704D01*
X408024Y-56871D01*
X407941Y-57071D01*
Y-57104D01*
X407907Y-57171D01*
X407891Y-57304D01*
X407858Y-57488D01*
X407824Y-57737D01*
X407808Y-58037D01*
X407774Y-58387D01*
Y-58804D01*
Y-62803D01*
X405558D01*
Y-58237D01*
Y-58221D01*
Y-58187D01*
Y-58121D01*
Y-58037D01*
Y-57837D01*
X405541Y-57587D01*
X405525Y-57321D01*
X405508Y-57071D01*
X405475Y-56838D01*
X405441Y-56738D01*
X405425Y-56671D01*
Y-56654D01*
X405408Y-56604D01*
X405375Y-56538D01*
X405341Y-56471D01*
X405225Y-56288D01*
X405141Y-56205D01*
X405058Y-56138D01*
X405042Y-56121D01*
X405008Y-56104D01*
X404958Y-56071D01*
X404892Y-56038D01*
X404792Y-56005D01*
X404675Y-55988D01*
X404542Y-55955D01*
X404308D01*
X404208Y-55971D01*
X404092Y-55988D01*
X403942Y-56021D01*
X403792Y-56071D01*
X403642Y-56138D01*
X403475Y-56238D01*
X403459Y-56255D01*
X403409Y-56288D01*
X403342Y-56354D01*
X403259Y-56438D01*
X403159Y-56554D01*
X403059Y-56688D01*
X402975Y-56854D01*
X402892Y-57038D01*
Y-57054D01*
X402859Y-57138D01*
X402842Y-57271D01*
X402809Y-57438D01*
X402775Y-57688D01*
X402759Y-57971D01*
X402725Y-58337D01*
Y-58754D01*
Y-62803D01*
X400509D01*
Y-54438D01*
X402542D01*
Y-55588D01*
X402559Y-55571D01*
X402592Y-55538D01*
X402659Y-55471D01*
X402742Y-55371D01*
X402842Y-55271D01*
X402959Y-55171D01*
X403109Y-55038D01*
X403275Y-54921D01*
X403459Y-54805D01*
X403658Y-54672D01*
X404092Y-54455D01*
X404342Y-54372D01*
X404592Y-54305D01*
X404858Y-54272D01*
X405141Y-54255D01*
X405275D01*
X405425Y-54272D01*
X405608Y-54288D01*
X405825Y-54338D01*
X406058Y-54388D01*
X406291Y-54472D01*
X406525Y-54588D01*
X406558Y-54605D01*
X406624Y-54655D01*
X406741Y-54722D01*
X406874Y-54838D01*
X407024Y-54988D01*
X407191Y-55155D01*
X407358Y-55371D01*
X407508Y-55605D01*
X407541Y-55571D01*
X407607Y-55488D01*
X407707Y-55371D01*
X407858Y-55221D01*
X408041Y-55055D01*
X408241Y-54888D01*
X408457Y-54722D01*
X408691Y-54588D01*
X408724Y-54572D01*
X408807Y-54538D01*
X408941Y-54488D01*
X409107Y-54422D01*
X409307Y-54355D01*
X409540Y-54305D01*
X409790Y-54272D01*
X410057Y-54255D01*
X410207D01*
X410373Y-54272D01*
D02*
G37*
G36*
X396877Y-62803D02*
X394661D01*
Y-54455D01*
X394644Y-54472D01*
X394611Y-54505D01*
X394544Y-54555D01*
X394444Y-54638D01*
X394328Y-54738D01*
X394194Y-54838D01*
X394028Y-54955D01*
X393844Y-55088D01*
X393644Y-55221D01*
X393428Y-55355D01*
X393195Y-55505D01*
X392945Y-55638D01*
X392411Y-55888D01*
X391812Y-56121D01*
Y-54122D01*
X391828D01*
X391845Y-54105D01*
X391895Y-54088D01*
X391962Y-54072D01*
X392128Y-53988D01*
X392361Y-53888D01*
X392645Y-53755D01*
X392961Y-53572D01*
X393311Y-53339D01*
X393678Y-53072D01*
X393694Y-53055D01*
X393728Y-53039D01*
X393778Y-52989D01*
X393844Y-52922D01*
X394028Y-52755D01*
X394228Y-52539D01*
X394461Y-52272D01*
X394694Y-51939D01*
X394911Y-51589D01*
X395077Y-51206D01*
X396877D01*
Y-62803D01*
D02*
G37*
G36*
X389429D02*
X387213D01*
Y-60587D01*
X389429D01*
Y-62803D01*
D02*
G37*
G36*
X381797Y-51223D02*
X381931Y-51239D01*
X382097Y-51272D01*
X382264Y-51306D01*
X382464Y-51356D01*
X382681Y-51422D01*
X382881Y-51506D01*
X383097Y-51589D01*
X383314Y-51706D01*
X383530Y-51856D01*
X383747Y-52006D01*
X383947Y-52189D01*
X384130Y-52406D01*
X384147Y-52422D01*
X384180Y-52472D01*
X384230Y-52555D01*
X384314Y-52672D01*
X384397Y-52839D01*
X384497Y-53039D01*
X384597Y-53255D01*
X384697Y-53538D01*
X384797Y-53838D01*
X384913Y-54188D01*
X384997Y-54572D01*
X385080Y-55005D01*
X385163Y-55471D01*
X385213Y-55971D01*
X385247Y-56521D01*
X385263Y-57121D01*
Y-57138D01*
Y-57154D01*
Y-57204D01*
Y-57271D01*
Y-57438D01*
X385247Y-57654D01*
X385230Y-57921D01*
X385197Y-58237D01*
X385163Y-58571D01*
X385130Y-58937D01*
X385063Y-59320D01*
X384980Y-59720D01*
X384897Y-60104D01*
X384780Y-60487D01*
X384663Y-60870D01*
X384497Y-61220D01*
X384330Y-61553D01*
X384130Y-61836D01*
X384114Y-61853D01*
X384080Y-61886D01*
X384030Y-61953D01*
X383964Y-62020D01*
X383864Y-62103D01*
X383747Y-62203D01*
X383597Y-62320D01*
X383447Y-62420D01*
X383264Y-62536D01*
X383080Y-62653D01*
X382864Y-62753D01*
X382631Y-62836D01*
X382381Y-62903D01*
X382097Y-62969D01*
X381814Y-63003D01*
X381514Y-63019D01*
X381447D01*
X381348Y-63003D01*
X381231D01*
X381098Y-62986D01*
X380931Y-62953D01*
X380748Y-62920D01*
X380548Y-62853D01*
X380331Y-62786D01*
X380115Y-62703D01*
X379881Y-62603D01*
X379665Y-62470D01*
X379431Y-62336D01*
X379215Y-62153D01*
X378998Y-61970D01*
X378798Y-61736D01*
X378782Y-61720D01*
X378748Y-61670D01*
X378698Y-61586D01*
X378648Y-61487D01*
X378565Y-61336D01*
X378482Y-61153D01*
X378382Y-60920D01*
X378298Y-60670D01*
X378198Y-60370D01*
X378098Y-60037D01*
X378015Y-59654D01*
X377948Y-59237D01*
X377882Y-58770D01*
X377832Y-58254D01*
X377799Y-57704D01*
X377782Y-57104D01*
Y-57088D01*
Y-57071D01*
Y-57021D01*
Y-56954D01*
Y-56788D01*
X377799Y-56571D01*
X377815Y-56304D01*
X377849Y-55988D01*
X377882Y-55655D01*
X377915Y-55288D01*
X377982Y-54905D01*
X378048Y-54522D01*
X378148Y-54122D01*
X378248Y-53738D01*
X378382Y-53372D01*
X378532Y-53022D01*
X378698Y-52689D01*
X378898Y-52406D01*
X378915Y-52389D01*
X378948Y-52355D01*
X378998Y-52289D01*
X379081Y-52222D01*
X379165Y-52122D01*
X379281Y-52022D01*
X379431Y-51922D01*
X379581Y-51806D01*
X379765Y-51689D01*
X379948Y-51589D01*
X380164Y-51489D01*
X380398Y-51389D01*
X380648Y-51322D01*
X380931Y-51256D01*
X381214Y-51223D01*
X381514Y-51206D01*
X381681D01*
X381797Y-51223D01*
D02*
G37*
G36*
X372800D02*
X372950Y-51239D01*
X373100Y-51256D01*
X373283Y-51272D01*
X373466Y-51306D01*
X373883Y-51406D01*
X374316Y-51556D01*
X374516Y-51656D01*
X374733Y-51772D01*
X374916Y-51906D01*
X375099Y-52056D01*
X375116Y-52072D01*
X375132Y-52089D01*
X375182Y-52139D01*
X375249Y-52206D01*
X375316Y-52289D01*
X375382Y-52389D01*
X375566Y-52639D01*
X375732Y-52955D01*
X375866Y-53305D01*
X375982Y-53722D01*
X375999Y-53955D01*
X376016Y-54188D01*
Y-54205D01*
Y-54222D01*
Y-54322D01*
X375999Y-54472D01*
X375966Y-54672D01*
X375916Y-54888D01*
X375832Y-55121D01*
X375732Y-55371D01*
X375582Y-55621D01*
X375566Y-55655D01*
X375499Y-55721D01*
X375416Y-55838D01*
X375283Y-55971D01*
X375116Y-56138D01*
X374916Y-56288D01*
X374683Y-56438D01*
X374416Y-56571D01*
X374433D01*
X374466Y-56588D01*
X374516Y-56604D01*
X374583Y-56638D01*
X374749Y-56738D01*
X374966Y-56871D01*
X375199Y-57021D01*
X375449Y-57221D01*
X375682Y-57454D01*
X375882Y-57721D01*
X375899Y-57754D01*
X375966Y-57854D01*
X376049Y-58004D01*
X376132Y-58204D01*
X376232Y-58454D01*
X376299Y-58754D01*
X376366Y-59070D01*
X376382Y-59420D01*
Y-59437D01*
Y-59487D01*
Y-59570D01*
X376366Y-59687D01*
X376349Y-59820D01*
X376332Y-59987D01*
X376299Y-60153D01*
X376249Y-60337D01*
X376132Y-60753D01*
X376049Y-60970D01*
X375949Y-61187D01*
X375832Y-61403D01*
X375682Y-61620D01*
X375532Y-61820D01*
X375349Y-62020D01*
X375332Y-62036D01*
X375299Y-62070D01*
X375249Y-62120D01*
X375166Y-62170D01*
X375066Y-62253D01*
X374933Y-62336D01*
X374799Y-62420D01*
X374633Y-62520D01*
X374449Y-62620D01*
X374233Y-62703D01*
X374016Y-62786D01*
X373783Y-62870D01*
X373516Y-62920D01*
X373233Y-62969D01*
X372950Y-63003D01*
X372633Y-63019D01*
X372483D01*
X372366Y-63003D01*
X372233Y-62986D01*
X372083Y-62969D01*
X371917Y-62953D01*
X371717Y-62920D01*
X371300Y-62819D01*
X370867Y-62670D01*
X370650Y-62586D01*
X370434Y-62470D01*
X370217Y-62353D01*
X370017Y-62203D01*
X370000Y-62186D01*
X369967Y-62153D01*
X369901Y-62103D01*
X369817Y-62020D01*
X369734Y-61920D01*
X369634Y-61803D01*
X369517Y-61653D01*
X369401Y-61503D01*
X369284Y-61320D01*
X369167Y-61120D01*
X369067Y-60903D01*
X368984Y-60653D01*
X368901Y-60403D01*
X368834Y-60120D01*
X368801Y-59837D01*
X368784Y-59520D01*
Y-59504D01*
Y-59470D01*
Y-59420D01*
Y-59354D01*
X368801Y-59170D01*
X368834Y-58954D01*
X368901Y-58687D01*
X368967Y-58387D01*
X369084Y-58087D01*
X369234Y-57787D01*
Y-57771D01*
X369251Y-57754D01*
X369317Y-57654D01*
X369434Y-57521D01*
X369601Y-57338D01*
X369800Y-57138D01*
X370051Y-56938D01*
X370350Y-56754D01*
X370700Y-56571D01*
X370684D01*
X370667Y-56554D01*
X370567Y-56504D01*
X370417Y-56421D01*
X370234Y-56321D01*
X370017Y-56171D01*
X369817Y-56005D01*
X369617Y-55805D01*
X369451Y-55588D01*
X369434Y-55555D01*
X369384Y-55471D01*
X369334Y-55355D01*
X369267Y-55171D01*
X369184Y-54971D01*
X369134Y-54722D01*
X369084Y-54472D01*
X369067Y-54188D01*
Y-54172D01*
Y-54138D01*
Y-54072D01*
X369084Y-53972D01*
X369101Y-53872D01*
X369117Y-53738D01*
X369184Y-53439D01*
X369284Y-53105D01*
X369451Y-52739D01*
X369551Y-52572D01*
X369667Y-52389D01*
X369817Y-52222D01*
X369967Y-52056D01*
X369984Y-52039D01*
X370017Y-52022D01*
X370067Y-51972D01*
X370134Y-51922D01*
X370234Y-51856D01*
X370334Y-51789D01*
X370467Y-51706D01*
X370634Y-51622D01*
X370800Y-51556D01*
X370984Y-51472D01*
X371200Y-51406D01*
X371433Y-51339D01*
X371683Y-51289D01*
X371950Y-51239D01*
X372233Y-51223D01*
X372533Y-51206D01*
X372700D01*
X372800Y-51223D01*
D02*
G37*
G36*
X-22779Y-54272D02*
X-22562Y-54305D01*
X-22313Y-54355D01*
X-22063Y-54422D01*
X-21796Y-54505D01*
X-21546Y-54638D01*
X-21513Y-54655D01*
X-21446Y-54705D01*
X-21329Y-54788D01*
X-21179Y-54905D01*
X-21030Y-55072D01*
X-20863Y-55255D01*
X-20713Y-55471D01*
X-20580Y-55738D01*
X-20563Y-55755D01*
X-20546Y-55838D01*
X-20513Y-55971D01*
X-20463Y-56154D01*
X-20413Y-56388D01*
X-20380Y-56688D01*
X-20363Y-57054D01*
X-20346Y-57471D01*
Y-62803D01*
X-22562D01*
Y-58037D01*
Y-58021D01*
Y-57987D01*
Y-57921D01*
Y-57837D01*
X-22579Y-57621D01*
X-22596Y-57371D01*
X-22612Y-57104D01*
X-22662Y-56838D01*
X-22712Y-56604D01*
X-22762Y-56521D01*
X-22796Y-56438D01*
X-22812Y-56421D01*
X-22862Y-56354D01*
X-22929Y-56288D01*
X-23029Y-56188D01*
X-23162Y-56104D01*
X-23329Y-56021D01*
X-23529Y-55971D01*
X-23746Y-55955D01*
X-23829D01*
X-23912Y-55971D01*
X-24029Y-55988D01*
X-24162Y-56021D01*
X-24312Y-56071D01*
X-24479Y-56138D01*
X-24629Y-56238D01*
X-24645Y-56255D01*
X-24695Y-56288D01*
X-24762Y-56354D01*
X-24845Y-56454D01*
X-24945Y-56571D01*
X-25045Y-56704D01*
X-25128Y-56871D01*
X-25212Y-57071D01*
Y-57104D01*
X-25245Y-57171D01*
X-25262Y-57304D01*
X-25295Y-57488D01*
X-25328Y-57737D01*
X-25345Y-58037D01*
X-25378Y-58387D01*
Y-58804D01*
Y-62803D01*
X-27594D01*
Y-58237D01*
Y-58221D01*
Y-58187D01*
Y-58121D01*
Y-58037D01*
Y-57837D01*
X-27611Y-57587D01*
X-27628Y-57321D01*
X-27645Y-57071D01*
X-27678Y-56838D01*
X-27711Y-56738D01*
X-27728Y-56671D01*
Y-56654D01*
X-27744Y-56604D01*
X-27778Y-56538D01*
X-27811Y-56471D01*
X-27928Y-56288D01*
X-28011Y-56205D01*
X-28094Y-56138D01*
X-28111Y-56121D01*
X-28144Y-56104D01*
X-28194Y-56071D01*
X-28261Y-56038D01*
X-28361Y-56005D01*
X-28478Y-55988D01*
X-28611Y-55955D01*
X-28844D01*
X-28944Y-55971D01*
X-29061Y-55988D01*
X-29211Y-56021D01*
X-29361Y-56071D01*
X-29511Y-56138D01*
X-29677Y-56238D01*
X-29694Y-56255D01*
X-29744Y-56288D01*
X-29811Y-56354D01*
X-29894Y-56438D01*
X-29994Y-56554D01*
X-30094Y-56688D01*
X-30177Y-56854D01*
X-30261Y-57038D01*
Y-57054D01*
X-30294Y-57138D01*
X-30310Y-57271D01*
X-30344Y-57438D01*
X-30377Y-57688D01*
X-30394Y-57971D01*
X-30427Y-58337D01*
Y-58754D01*
Y-62803D01*
X-32643D01*
Y-54438D01*
X-30610D01*
Y-55588D01*
X-30594Y-55571D01*
X-30560Y-55538D01*
X-30494Y-55471D01*
X-30410Y-55371D01*
X-30310Y-55271D01*
X-30194Y-55171D01*
X-30044Y-55038D01*
X-29877Y-54921D01*
X-29694Y-54805D01*
X-29494Y-54672D01*
X-29061Y-54455D01*
X-28811Y-54372D01*
X-28561Y-54305D01*
X-28294Y-54272D01*
X-28011Y-54255D01*
X-27878D01*
X-27728Y-54272D01*
X-27545Y-54288D01*
X-27328Y-54338D01*
X-27095Y-54388D01*
X-26861Y-54472D01*
X-26628Y-54588D01*
X-26595Y-54605D01*
X-26528Y-54655D01*
X-26411Y-54722D01*
X-26278Y-54838D01*
X-26128Y-54988D01*
X-25962Y-55155D01*
X-25795Y-55371D01*
X-25645Y-55605D01*
X-25612Y-55571D01*
X-25545Y-55488D01*
X-25445Y-55371D01*
X-25295Y-55221D01*
X-25112Y-55055D01*
X-24912Y-54888D01*
X-24695Y-54722D01*
X-24462Y-54588D01*
X-24429Y-54572D01*
X-24345Y-54538D01*
X-24212Y-54488D01*
X-24045Y-54422D01*
X-23845Y-54355D01*
X-23612Y-54305D01*
X-23362Y-54272D01*
X-23096Y-54255D01*
X-22946D01*
X-22779Y-54272D01*
D02*
G37*
G36*
X-37109D02*
X-36892Y-54305D01*
X-36642Y-54355D01*
X-36392Y-54422D01*
X-36126Y-54505D01*
X-35876Y-54638D01*
X-35842Y-54655D01*
X-35776Y-54705D01*
X-35659Y-54788D01*
X-35509Y-54905D01*
X-35359Y-55072D01*
X-35192Y-55255D01*
X-35043Y-55471D01*
X-34909Y-55738D01*
X-34893Y-55755D01*
X-34876Y-55838D01*
X-34843Y-55971D01*
X-34793Y-56154D01*
X-34743Y-56388D01*
X-34709Y-56688D01*
X-34693Y-57054D01*
X-34676Y-57471D01*
Y-62803D01*
X-36892D01*
Y-58037D01*
Y-58021D01*
Y-57987D01*
Y-57921D01*
Y-57837D01*
X-36909Y-57621D01*
X-36925Y-57371D01*
X-36942Y-57104D01*
X-36992Y-56838D01*
X-37042Y-56604D01*
X-37092Y-56521D01*
X-37125Y-56438D01*
X-37142Y-56421D01*
X-37192Y-56354D01*
X-37259Y-56288D01*
X-37359Y-56188D01*
X-37492Y-56104D01*
X-37659Y-56021D01*
X-37859Y-55971D01*
X-38075Y-55955D01*
X-38158D01*
X-38242Y-55971D01*
X-38358Y-55988D01*
X-38492Y-56021D01*
X-38642Y-56071D01*
X-38808Y-56138D01*
X-38958Y-56238D01*
X-38975Y-56255D01*
X-39025Y-56288D01*
X-39091Y-56354D01*
X-39175Y-56454D01*
X-39275Y-56571D01*
X-39375Y-56704D01*
X-39458Y-56871D01*
X-39541Y-57071D01*
Y-57104D01*
X-39575Y-57171D01*
X-39591Y-57304D01*
X-39625Y-57488D01*
X-39658Y-57737D01*
X-39675Y-58037D01*
X-39708Y-58387D01*
Y-58804D01*
Y-62803D01*
X-41924D01*
Y-58237D01*
Y-58221D01*
Y-58187D01*
Y-58121D01*
Y-58037D01*
Y-57837D01*
X-41941Y-57587D01*
X-41958Y-57321D01*
X-41974Y-57071D01*
X-42007Y-56838D01*
X-42041Y-56738D01*
X-42057Y-56671D01*
Y-56654D01*
X-42074Y-56604D01*
X-42107Y-56538D01*
X-42141Y-56471D01*
X-42257Y-56288D01*
X-42341Y-56205D01*
X-42424Y-56138D01*
X-42441Y-56121D01*
X-42474Y-56104D01*
X-42524Y-56071D01*
X-42591Y-56038D01*
X-42691Y-56005D01*
X-42807Y-55988D01*
X-42941Y-55955D01*
X-43174D01*
X-43274Y-55971D01*
X-43390Y-55988D01*
X-43540Y-56021D01*
X-43690Y-56071D01*
X-43840Y-56138D01*
X-44007Y-56238D01*
X-44024Y-56255D01*
X-44074Y-56288D01*
X-44140Y-56354D01*
X-44224Y-56438D01*
X-44324Y-56554D01*
X-44423Y-56688D01*
X-44507Y-56854D01*
X-44590Y-57038D01*
Y-57054D01*
X-44623Y-57138D01*
X-44640Y-57271D01*
X-44673Y-57438D01*
X-44707Y-57688D01*
X-44723Y-57971D01*
X-44757Y-58337D01*
Y-58754D01*
Y-62803D01*
X-46973D01*
Y-54438D01*
X-44940D01*
Y-55588D01*
X-44923Y-55571D01*
X-44890Y-55538D01*
X-44823Y-55471D01*
X-44740Y-55371D01*
X-44640Y-55271D01*
X-44524Y-55171D01*
X-44373Y-55038D01*
X-44207Y-54921D01*
X-44024Y-54805D01*
X-43824Y-54672D01*
X-43390Y-54455D01*
X-43141Y-54372D01*
X-42891Y-54305D01*
X-42624Y-54272D01*
X-42341Y-54255D01*
X-42207D01*
X-42057Y-54272D01*
X-41874Y-54288D01*
X-41658Y-54338D01*
X-41424Y-54388D01*
X-41191Y-54472D01*
X-40958Y-54588D01*
X-40924Y-54605D01*
X-40858Y-54655D01*
X-40741Y-54722D01*
X-40608Y-54838D01*
X-40458Y-54988D01*
X-40291Y-55155D01*
X-40125Y-55371D01*
X-39975Y-55605D01*
X-39941Y-55571D01*
X-39875Y-55488D01*
X-39775Y-55371D01*
X-39625Y-55221D01*
X-39441Y-55055D01*
X-39241Y-54888D01*
X-39025Y-54722D01*
X-38792Y-54588D01*
X-38758Y-54572D01*
X-38675Y-54538D01*
X-38542Y-54488D01*
X-38375Y-54422D01*
X-38175Y-54355D01*
X-37942Y-54305D01*
X-37692Y-54272D01*
X-37425Y-54255D01*
X-37275D01*
X-37109Y-54272D01*
D02*
G37*
G36*
X-48972Y-53488D02*
X-53155D01*
X-53505Y-55455D01*
X-53488D01*
X-53471Y-55438D01*
X-53371Y-55388D01*
X-53221Y-55338D01*
X-53038Y-55255D01*
X-52805Y-55188D01*
X-52555Y-55138D01*
X-52271Y-55088D01*
X-51988Y-55072D01*
X-51838D01*
X-51738Y-55088D01*
X-51622Y-55105D01*
X-51472Y-55121D01*
X-51305Y-55155D01*
X-51122Y-55205D01*
X-50739Y-55338D01*
X-50522Y-55421D01*
X-50322Y-55521D01*
X-50105Y-55655D01*
X-49889Y-55805D01*
X-49689Y-55971D01*
X-49489Y-56154D01*
X-49472Y-56171D01*
X-49439Y-56205D01*
X-49389Y-56271D01*
X-49322Y-56354D01*
X-49256Y-56454D01*
X-49156Y-56588D01*
X-49072Y-56738D01*
X-48972Y-56904D01*
X-48872Y-57088D01*
X-48789Y-57304D01*
X-48689Y-57537D01*
X-48622Y-57771D01*
X-48556Y-58037D01*
X-48506Y-58321D01*
X-48472Y-58621D01*
X-48456Y-58937D01*
Y-58954D01*
Y-59004D01*
Y-59070D01*
X-48472Y-59170D01*
Y-59304D01*
X-48506Y-59454D01*
X-48523Y-59620D01*
X-48556Y-59787D01*
X-48656Y-60187D01*
X-48806Y-60620D01*
X-48906Y-60853D01*
X-49006Y-61070D01*
X-49139Y-61287D01*
X-49289Y-61503D01*
X-49306Y-61520D01*
X-49339Y-61570D01*
X-49406Y-61637D01*
X-49489Y-61736D01*
X-49605Y-61853D01*
X-49756Y-61986D01*
X-49922Y-62120D01*
X-50105Y-62253D01*
X-50322Y-62403D01*
X-50555Y-62536D01*
X-50805Y-62670D01*
X-51089Y-62786D01*
X-51388Y-62886D01*
X-51705Y-62953D01*
X-52055Y-63003D01*
X-52421Y-63019D01*
X-52571D01*
X-52688Y-63003D01*
X-52821Y-62986D01*
X-52988Y-62969D01*
X-53155Y-62953D01*
X-53355Y-62920D01*
X-53755Y-62819D01*
X-54204Y-62653D01*
X-54421Y-62569D01*
X-54638Y-62453D01*
X-54837Y-62320D01*
X-55037Y-62170D01*
X-55054Y-62153D01*
X-55087Y-62136D01*
X-55137Y-62086D01*
X-55204Y-62020D01*
X-55271Y-61920D01*
X-55371Y-61820D01*
X-55454Y-61703D01*
X-55554Y-61570D01*
X-55671Y-61403D01*
X-55771Y-61237D01*
X-55954Y-60837D01*
X-56121Y-60387D01*
X-56171Y-60137D01*
X-56220Y-59870D01*
X-54021Y-59637D01*
Y-59670D01*
X-54004Y-59754D01*
X-53971Y-59904D01*
X-53921Y-60070D01*
X-53854Y-60254D01*
X-53755Y-60453D01*
X-53621Y-60637D01*
X-53471Y-60820D01*
X-53454Y-60837D01*
X-53388Y-60887D01*
X-53288Y-60953D01*
X-53155Y-61037D01*
X-53005Y-61120D01*
X-52821Y-61187D01*
X-52605Y-61237D01*
X-52388Y-61253D01*
X-52355D01*
X-52271Y-61237D01*
X-52138Y-61220D01*
X-51972Y-61187D01*
X-51788Y-61120D01*
X-51588Y-61020D01*
X-51388Y-60870D01*
X-51205Y-60687D01*
X-51188Y-60653D01*
X-51122Y-60587D01*
X-51055Y-60453D01*
X-50955Y-60254D01*
X-50872Y-60020D01*
X-50788Y-59737D01*
X-50739Y-59387D01*
X-50722Y-58987D01*
Y-58970D01*
Y-58937D01*
Y-58887D01*
Y-58804D01*
X-50739Y-58621D01*
X-50788Y-58387D01*
X-50838Y-58121D01*
X-50922Y-57854D01*
X-51038Y-57604D01*
X-51205Y-57387D01*
X-51222Y-57371D01*
X-51288Y-57304D01*
X-51405Y-57221D01*
X-51538Y-57104D01*
X-51722Y-57004D01*
X-51938Y-56921D01*
X-52188Y-56854D01*
X-52455Y-56838D01*
X-52555D01*
X-52621Y-56854D01*
X-52788Y-56888D01*
X-53021Y-56938D01*
X-53288Y-57038D01*
X-53571Y-57188D01*
X-53721Y-57288D01*
X-53871Y-57404D01*
X-54021Y-57537D01*
X-54171Y-57688D01*
X-55954Y-57438D01*
X-54821Y-51422D01*
X-48972D01*
Y-53488D01*
D02*
G37*
G36*
X-58053Y-62803D02*
X-60269D01*
Y-60587D01*
X-58053D01*
Y-62803D01*
D02*
G37*
G36*
X-65718Y-51223D02*
X-65568Y-51239D01*
X-65418Y-51256D01*
X-65235Y-51272D01*
X-65052Y-51306D01*
X-64635Y-51406D01*
X-64202Y-51556D01*
X-64002Y-51656D01*
X-63785Y-51772D01*
X-63602Y-51906D01*
X-63419Y-52056D01*
X-63402Y-52072D01*
X-63385Y-52089D01*
X-63335Y-52139D01*
X-63269Y-52206D01*
X-63202Y-52289D01*
X-63135Y-52389D01*
X-62952Y-52639D01*
X-62786Y-52955D01*
X-62652Y-53305D01*
X-62536Y-53722D01*
X-62519Y-53955D01*
X-62502Y-54188D01*
Y-54205D01*
Y-54222D01*
Y-54322D01*
X-62519Y-54472D01*
X-62552Y-54672D01*
X-62602Y-54888D01*
X-62685Y-55121D01*
X-62786Y-55371D01*
X-62935Y-55621D01*
X-62952Y-55655D01*
X-63019Y-55721D01*
X-63102Y-55838D01*
X-63235Y-55971D01*
X-63402Y-56138D01*
X-63602Y-56288D01*
X-63835Y-56438D01*
X-64102Y-56571D01*
X-64085D01*
X-64052Y-56588D01*
X-64002Y-56604D01*
X-63935Y-56638D01*
X-63769Y-56738D01*
X-63552Y-56871D01*
X-63319Y-57021D01*
X-63069Y-57221D01*
X-62835Y-57454D01*
X-62635Y-57721D01*
X-62619Y-57754D01*
X-62552Y-57854D01*
X-62469Y-58004D01*
X-62386Y-58204D01*
X-62286Y-58454D01*
X-62219Y-58754D01*
X-62152Y-59070D01*
X-62136Y-59420D01*
Y-59437D01*
Y-59487D01*
Y-59570D01*
X-62152Y-59687D01*
X-62169Y-59820D01*
X-62186Y-59987D01*
X-62219Y-60153D01*
X-62269Y-60337D01*
X-62386Y-60753D01*
X-62469Y-60970D01*
X-62569Y-61187D01*
X-62685Y-61403D01*
X-62835Y-61620D01*
X-62985Y-61820D01*
X-63169Y-62020D01*
X-63185Y-62036D01*
X-63219Y-62070D01*
X-63269Y-62120D01*
X-63352Y-62170D01*
X-63452Y-62253D01*
X-63585Y-62336D01*
X-63719Y-62420D01*
X-63885Y-62520D01*
X-64068Y-62620D01*
X-64285Y-62703D01*
X-64502Y-62786D01*
X-64735Y-62870D01*
X-65002Y-62920D01*
X-65285Y-62969D01*
X-65568Y-63003D01*
X-65885Y-63019D01*
X-66035D01*
X-66151Y-63003D01*
X-66285Y-62986D01*
X-66434Y-62969D01*
X-66601Y-62953D01*
X-66801Y-62920D01*
X-67218Y-62819D01*
X-67651Y-62670D01*
X-67867Y-62586D01*
X-68084Y-62470D01*
X-68301Y-62353D01*
X-68501Y-62203D01*
X-68517Y-62186D01*
X-68551Y-62153D01*
X-68617Y-62103D01*
X-68701Y-62020D01*
X-68784Y-61920D01*
X-68884Y-61803D01*
X-69001Y-61653D01*
X-69117Y-61503D01*
X-69234Y-61320D01*
X-69351Y-61120D01*
X-69450Y-60903D01*
X-69534Y-60653D01*
X-69617Y-60403D01*
X-69684Y-60120D01*
X-69717Y-59837D01*
X-69734Y-59520D01*
Y-59504D01*
Y-59470D01*
Y-59420D01*
Y-59354D01*
X-69717Y-59170D01*
X-69684Y-58954D01*
X-69617Y-58687D01*
X-69550Y-58387D01*
X-69434Y-58087D01*
X-69284Y-57787D01*
Y-57771D01*
X-69267Y-57754D01*
X-69201Y-57654D01*
X-69084Y-57521D01*
X-68917Y-57338D01*
X-68717Y-57138D01*
X-68467Y-56938D01*
X-68167Y-56754D01*
X-67818Y-56571D01*
X-67834D01*
X-67851Y-56554D01*
X-67951Y-56504D01*
X-68101Y-56421D01*
X-68284Y-56321D01*
X-68501Y-56171D01*
X-68701Y-56005D01*
X-68901Y-55805D01*
X-69067Y-55588D01*
X-69084Y-55555D01*
X-69134Y-55471D01*
X-69184Y-55355D01*
X-69250Y-55171D01*
X-69334Y-54971D01*
X-69384Y-54722D01*
X-69434Y-54472D01*
X-69450Y-54188D01*
Y-54172D01*
Y-54138D01*
Y-54072D01*
X-69434Y-53972D01*
X-69417Y-53872D01*
X-69400Y-53738D01*
X-69334Y-53439D01*
X-69234Y-53105D01*
X-69067Y-52739D01*
X-68967Y-52572D01*
X-68851Y-52389D01*
X-68701Y-52222D01*
X-68551Y-52056D01*
X-68534Y-52039D01*
X-68501Y-52022D01*
X-68451Y-51972D01*
X-68384Y-51922D01*
X-68284Y-51856D01*
X-68184Y-51789D01*
X-68051Y-51706D01*
X-67884Y-51622D01*
X-67717Y-51556D01*
X-67534Y-51472D01*
X-67318Y-51406D01*
X-67084Y-51339D01*
X-66834Y-51289D01*
X-66568Y-51239D01*
X-66285Y-51223D01*
X-65985Y-51206D01*
X-65818D01*
X-65718Y-51223D01*
D02*
G37*
G36*
X-140397Y335095D02*
X-145163D01*
X-145179D01*
X-145213D01*
X-145279D01*
X-145363D01*
X-145579Y335078D01*
X-145829Y335061D01*
X-146096Y335045D01*
X-146362Y334995D01*
X-146596Y334945D01*
X-146679Y334895D01*
X-146762Y334861D01*
X-146779Y334845D01*
X-146846Y334795D01*
X-146912Y334728D01*
X-147012Y334628D01*
X-147095Y334495D01*
X-147179Y334328D01*
X-147229Y334128D01*
X-147245Y333912D01*
Y333828D01*
X-147229Y333745D01*
X-147212Y333628D01*
X-147179Y333495D01*
X-147129Y333345D01*
X-147062Y333179D01*
X-146962Y333029D01*
X-146945Y333012D01*
X-146912Y332962D01*
X-146846Y332895D01*
X-146746Y332812D01*
X-146629Y332712D01*
X-146496Y332612D01*
X-146329Y332529D01*
X-146129Y332445D01*
X-146096D01*
X-146029Y332412D01*
X-145896Y332395D01*
X-145712Y332362D01*
X-145463Y332329D01*
X-145163Y332312D01*
X-144813Y332279D01*
X-144396D01*
X-140397D01*
Y330063D01*
X-144963D01*
X-144979D01*
X-145013D01*
X-145079D01*
X-145163D01*
X-145363D01*
X-145612Y330046D01*
X-145879Y330029D01*
X-146129Y330013D01*
X-146362Y329979D01*
X-146462Y329946D01*
X-146529Y329929D01*
X-146546D01*
X-146596Y329913D01*
X-146662Y329879D01*
X-146729Y329846D01*
X-146912Y329729D01*
X-146995Y329646D01*
X-147062Y329563D01*
X-147079Y329546D01*
X-147095Y329513D01*
X-147129Y329463D01*
X-147162Y329396D01*
X-147195Y329296D01*
X-147212Y329180D01*
X-147245Y329046D01*
Y328813D01*
X-147229Y328713D01*
X-147212Y328596D01*
X-147179Y328446D01*
X-147129Y328297D01*
X-147062Y328147D01*
X-146962Y327980D01*
X-146945Y327963D01*
X-146912Y327913D01*
X-146846Y327847D01*
X-146762Y327763D01*
X-146646Y327663D01*
X-146512Y327563D01*
X-146346Y327480D01*
X-146162Y327397D01*
X-146146D01*
X-146062Y327363D01*
X-145929Y327347D01*
X-145763Y327313D01*
X-145513Y327280D01*
X-145229Y327263D01*
X-144863Y327230D01*
X-144446D01*
X-140397D01*
Y325014D01*
X-148762D01*
Y327047D01*
X-147612D01*
X-147629Y327063D01*
X-147662Y327097D01*
X-147729Y327163D01*
X-147829Y327247D01*
X-147929Y327347D01*
X-148029Y327463D01*
X-148162Y327613D01*
X-148279Y327780D01*
X-148395Y327963D01*
X-148528Y328163D01*
X-148745Y328596D01*
X-148828Y328846D01*
X-148895Y329096D01*
X-148928Y329363D01*
X-148945Y329646D01*
Y329779D01*
X-148928Y329929D01*
X-148912Y330113D01*
X-148862Y330329D01*
X-148812Y330563D01*
X-148728Y330796D01*
X-148612Y331029D01*
X-148595Y331062D01*
X-148545Y331129D01*
X-148478Y331246D01*
X-148362Y331379D01*
X-148212Y331529D01*
X-148045Y331696D01*
X-147829Y331862D01*
X-147595Y332012D01*
X-147629Y332046D01*
X-147712Y332112D01*
X-147829Y332212D01*
X-147979Y332362D01*
X-148145Y332545D01*
X-148312Y332745D01*
X-148478Y332962D01*
X-148612Y333195D01*
X-148628Y333228D01*
X-148662Y333312D01*
X-148712Y333445D01*
X-148778Y333612D01*
X-148845Y333812D01*
X-148895Y334045D01*
X-148928Y334295D01*
X-148945Y334562D01*
Y334711D01*
X-148928Y334878D01*
X-148895Y335095D01*
X-148845Y335345D01*
X-148778Y335595D01*
X-148695Y335861D01*
X-148562Y336111D01*
X-148545Y336144D01*
X-148495Y336211D01*
X-148412Y336328D01*
X-148295Y336478D01*
X-148128Y336628D01*
X-147945Y336794D01*
X-147729Y336944D01*
X-147462Y337078D01*
X-147445Y337094D01*
X-147362Y337111D01*
X-147229Y337144D01*
X-147045Y337194D01*
X-146812Y337244D01*
X-146512Y337277D01*
X-146146Y337294D01*
X-145729Y337311D01*
X-140397D01*
Y335095D01*
D02*
G37*
G36*
Y320765D02*
X-145163D01*
X-145179D01*
X-145213D01*
X-145279D01*
X-145363D01*
X-145579Y320748D01*
X-145829Y320732D01*
X-146096Y320715D01*
X-146362Y320665D01*
X-146596Y320615D01*
X-146679Y320565D01*
X-146762Y320532D01*
X-146779Y320515D01*
X-146846Y320465D01*
X-146912Y320398D01*
X-147012Y320299D01*
X-147095Y320165D01*
X-147179Y319999D01*
X-147229Y319799D01*
X-147245Y319582D01*
Y319499D01*
X-147229Y319415D01*
X-147212Y319299D01*
X-147179Y319165D01*
X-147129Y319016D01*
X-147062Y318849D01*
X-146962Y318699D01*
X-146945Y318682D01*
X-146912Y318632D01*
X-146846Y318566D01*
X-146746Y318482D01*
X-146629Y318382D01*
X-146496Y318282D01*
X-146329Y318199D01*
X-146129Y318116D01*
X-146096D01*
X-146029Y318082D01*
X-145896Y318066D01*
X-145712Y318032D01*
X-145463Y317999D01*
X-145163Y317982D01*
X-144813Y317949D01*
X-144396D01*
X-140397D01*
Y315733D01*
X-144963D01*
X-144979D01*
X-145013D01*
X-145079D01*
X-145163D01*
X-145363D01*
X-145612Y315716D01*
X-145879Y315700D01*
X-146129Y315683D01*
X-146362Y315650D01*
X-146462Y315616D01*
X-146529Y315600D01*
X-146546D01*
X-146596Y315583D01*
X-146662Y315550D01*
X-146729Y315516D01*
X-146912Y315400D01*
X-146995Y315317D01*
X-147062Y315233D01*
X-147079Y315217D01*
X-147095Y315183D01*
X-147129Y315133D01*
X-147162Y315067D01*
X-147195Y314967D01*
X-147212Y314850D01*
X-147245Y314717D01*
Y314483D01*
X-147229Y314383D01*
X-147212Y314267D01*
X-147179Y314117D01*
X-147129Y313967D01*
X-147062Y313817D01*
X-146962Y313650D01*
X-146945Y313634D01*
X-146912Y313584D01*
X-146846Y313517D01*
X-146762Y313434D01*
X-146646Y313334D01*
X-146512Y313234D01*
X-146346Y313150D01*
X-146162Y313067D01*
X-146146D01*
X-146062Y313034D01*
X-145929Y313017D01*
X-145763Y312984D01*
X-145513Y312950D01*
X-145229Y312934D01*
X-144863Y312900D01*
X-144446D01*
X-140397D01*
Y310684D01*
X-148762D01*
Y312717D01*
X-147612D01*
X-147629Y312734D01*
X-147662Y312767D01*
X-147729Y312834D01*
X-147829Y312917D01*
X-147929Y313017D01*
X-148029Y313134D01*
X-148162Y313284D01*
X-148279Y313450D01*
X-148395Y313634D01*
X-148528Y313834D01*
X-148745Y314267D01*
X-148828Y314517D01*
X-148895Y314767D01*
X-148928Y315033D01*
X-148945Y315317D01*
Y315450D01*
X-148928Y315600D01*
X-148912Y315783D01*
X-148862Y316000D01*
X-148812Y316233D01*
X-148728Y316466D01*
X-148612Y316699D01*
X-148595Y316733D01*
X-148545Y316799D01*
X-148478Y316916D01*
X-148362Y317049D01*
X-148212Y317199D01*
X-148045Y317366D01*
X-147829Y317533D01*
X-147595Y317682D01*
X-147629Y317716D01*
X-147712Y317782D01*
X-147829Y317882D01*
X-147979Y318032D01*
X-148145Y318216D01*
X-148312Y318416D01*
X-148478Y318632D01*
X-148612Y318866D01*
X-148628Y318899D01*
X-148662Y318982D01*
X-148712Y319116D01*
X-148778Y319282D01*
X-148845Y319482D01*
X-148895Y319715D01*
X-148928Y319965D01*
X-148945Y320232D01*
Y320382D01*
X-148928Y320549D01*
X-148895Y320765D01*
X-148845Y321015D01*
X-148778Y321265D01*
X-148695Y321531D01*
X-148562Y321782D01*
X-148545Y321815D01*
X-148495Y321881D01*
X-148412Y321998D01*
X-148295Y322148D01*
X-148128Y322298D01*
X-147945Y322465D01*
X-147729Y322615D01*
X-147462Y322748D01*
X-147445Y322765D01*
X-147362Y322781D01*
X-147229Y322814D01*
X-147045Y322864D01*
X-146812Y322915D01*
X-146512Y322948D01*
X-146146Y322965D01*
X-145729Y322981D01*
X-140397D01*
Y320765D01*
D02*
G37*
G36*
Y304836D02*
X-148745D01*
X-148728Y304819D01*
X-148695Y304786D01*
X-148645Y304719D01*
X-148562Y304619D01*
X-148462Y304503D01*
X-148362Y304369D01*
X-148245Y304203D01*
X-148112Y304019D01*
X-147979Y303819D01*
X-147845Y303603D01*
X-147695Y303370D01*
X-147562Y303120D01*
X-147312Y302586D01*
X-147079Y301987D01*
X-149078D01*
Y302003D01*
X-149095Y302020D01*
X-149112Y302070D01*
X-149128Y302136D01*
X-149212Y302303D01*
X-149312Y302536D01*
X-149445Y302820D01*
X-149628Y303136D01*
X-149861Y303486D01*
X-150128Y303853D01*
X-150145Y303869D01*
X-150161Y303903D01*
X-150211Y303953D01*
X-150278Y304019D01*
X-150445Y304203D01*
X-150661Y304403D01*
X-150928Y304636D01*
X-151261Y304869D01*
X-151611Y305086D01*
X-151994Y305252D01*
Y307052D01*
X-140397D01*
Y304836D01*
D02*
G37*
G36*
Y297388D02*
X-142613D01*
Y299604D01*
X-140397D01*
Y297388D01*
D02*
G37*
G36*
X-144030Y295738D02*
X-143896D01*
X-143746Y295705D01*
X-143580Y295688D01*
X-143413Y295655D01*
X-143013Y295555D01*
X-142580Y295405D01*
X-142347Y295305D01*
X-142130Y295205D01*
X-141913Y295072D01*
X-141697Y294922D01*
X-141680Y294905D01*
X-141630Y294872D01*
X-141564Y294805D01*
X-141464Y294722D01*
X-141347Y294605D01*
X-141214Y294455D01*
X-141080Y294289D01*
X-140947Y294105D01*
X-140797Y293889D01*
X-140664Y293655D01*
X-140531Y293405D01*
X-140414Y293122D01*
X-140314Y292822D01*
X-140247Y292506D01*
X-140197Y292156D01*
X-140181Y291789D01*
Y291639D01*
X-140197Y291523D01*
X-140214Y291389D01*
X-140231Y291223D01*
X-140247Y291056D01*
X-140281Y290856D01*
X-140380Y290456D01*
X-140547Y290006D01*
X-140631Y289790D01*
X-140747Y289573D01*
X-140880Y289373D01*
X-141030Y289173D01*
X-141047Y289156D01*
X-141064Y289123D01*
X-141114Y289073D01*
X-141180Y289007D01*
X-141280Y288940D01*
X-141380Y288840D01*
X-141497Y288757D01*
X-141630Y288657D01*
X-141797Y288540D01*
X-141963Y288440D01*
X-142363Y288257D01*
X-142813Y288090D01*
X-143063Y288040D01*
X-143330Y287990D01*
X-143563Y290190D01*
X-143530D01*
X-143446Y290206D01*
X-143296Y290240D01*
X-143130Y290289D01*
X-142947Y290356D01*
X-142747Y290456D01*
X-142563Y290590D01*
X-142380Y290739D01*
X-142363Y290756D01*
X-142313Y290823D01*
X-142247Y290923D01*
X-142163Y291056D01*
X-142080Y291206D01*
X-142013Y291389D01*
X-141963Y291606D01*
X-141947Y291822D01*
Y291856D01*
X-141963Y291939D01*
X-141980Y292072D01*
X-142013Y292239D01*
X-142080Y292422D01*
X-142180Y292622D01*
X-142330Y292822D01*
X-142513Y293006D01*
X-142547Y293022D01*
X-142613Y293089D01*
X-142747Y293155D01*
X-142947Y293255D01*
X-143180Y293339D01*
X-143463Y293422D01*
X-143813Y293472D01*
X-144213Y293489D01*
X-144229D01*
X-144263D01*
X-144313D01*
X-144396D01*
X-144579Y293472D01*
X-144813Y293422D01*
X-145079Y293372D01*
X-145346Y293289D01*
X-145596Y293172D01*
X-145813Y293006D01*
X-145829Y292989D01*
X-145896Y292922D01*
X-145979Y292806D01*
X-146096Y292672D01*
X-146196Y292489D01*
X-146279Y292272D01*
X-146346Y292022D01*
X-146362Y291756D01*
Y291656D01*
X-146346Y291589D01*
X-146312Y291423D01*
X-146262Y291189D01*
X-146162Y290923D01*
X-146012Y290639D01*
X-145912Y290490D01*
X-145796Y290340D01*
X-145662Y290190D01*
X-145513Y290040D01*
X-145763Y288257D01*
X-151778Y289390D01*
Y295238D01*
X-149712D01*
Y291056D01*
X-147745Y290706D01*
Y290723D01*
X-147762Y290739D01*
X-147812Y290839D01*
X-147862Y290989D01*
X-147945Y291173D01*
X-148012Y291406D01*
X-148062Y291656D01*
X-148112Y291939D01*
X-148128Y292222D01*
Y292372D01*
X-148112Y292472D01*
X-148095Y292589D01*
X-148078Y292739D01*
X-148045Y292906D01*
X-147995Y293089D01*
X-147862Y293472D01*
X-147779Y293689D01*
X-147679Y293889D01*
X-147545Y294105D01*
X-147395Y294322D01*
X-147229Y294522D01*
X-147045Y294722D01*
X-147029Y294738D01*
X-146995Y294772D01*
X-146929Y294822D01*
X-146846Y294888D01*
X-146746Y294955D01*
X-146612Y295055D01*
X-146462Y295138D01*
X-146296Y295238D01*
X-146112Y295338D01*
X-145896Y295422D01*
X-145662Y295522D01*
X-145429Y295588D01*
X-145163Y295655D01*
X-144879Y295705D01*
X-144579Y295738D01*
X-144263Y295755D01*
X-144246D01*
X-144196D01*
X-144130D01*
X-144030Y295738D01*
D02*
G37*
G36*
X-142713Y285474D02*
X-140397D01*
Y283341D01*
X-142713D01*
Y278609D01*
X-144629D01*
X-151978Y283608D01*
Y285474D01*
X-144646D01*
Y286907D01*
X-142713D01*
Y285474D01*
D02*
G37*
G36*
X-170369Y292386D02*
X-175135D01*
X-175151D01*
X-175185D01*
X-175251D01*
X-175335D01*
X-175551Y292370D01*
X-175801Y292353D01*
X-176068Y292336D01*
X-176334Y292286D01*
X-176568Y292236D01*
X-176651Y292187D01*
X-176734Y292153D01*
X-176751Y292136D01*
X-176817Y292087D01*
X-176884Y292020D01*
X-176984Y291920D01*
X-177068Y291787D01*
X-177151Y291620D01*
X-177201Y291420D01*
X-177217Y291203D01*
Y291120D01*
X-177201Y291037D01*
X-177184Y290920D01*
X-177151Y290787D01*
X-177101Y290637D01*
X-177034Y290470D01*
X-176934Y290320D01*
X-176917Y290304D01*
X-176884Y290254D01*
X-176817Y290187D01*
X-176718Y290104D01*
X-176601Y290004D01*
X-176468Y289904D01*
X-176301Y289820D01*
X-176101Y289737D01*
X-176068D01*
X-176001Y289704D01*
X-175868Y289687D01*
X-175685Y289654D01*
X-175434Y289620D01*
X-175135Y289604D01*
X-174785Y289571D01*
X-174368D01*
X-170369D01*
Y287354D01*
X-174935D01*
X-174951D01*
X-174985D01*
X-175051D01*
X-175135D01*
X-175335D01*
X-175585Y287338D01*
X-175851Y287321D01*
X-176101Y287304D01*
X-176334Y287271D01*
X-176434Y287238D01*
X-176501Y287221D01*
X-176518D01*
X-176568Y287204D01*
X-176634Y287171D01*
X-176701Y287138D01*
X-176884Y287021D01*
X-176968Y286938D01*
X-177034Y286854D01*
X-177051Y286838D01*
X-177068Y286805D01*
X-177101Y286754D01*
X-177134Y286688D01*
X-177167Y286588D01*
X-177184Y286471D01*
X-177217Y286338D01*
Y286105D01*
X-177201Y286005D01*
X-177184Y285888D01*
X-177151Y285738D01*
X-177101Y285588D01*
X-177034Y285438D01*
X-176934Y285272D01*
X-176917Y285255D01*
X-176884Y285205D01*
X-176817Y285138D01*
X-176734Y285055D01*
X-176618Y284955D01*
X-176484Y284855D01*
X-176318Y284772D01*
X-176134Y284688D01*
X-176118D01*
X-176034Y284655D01*
X-175901Y284638D01*
X-175735Y284605D01*
X-175485Y284572D01*
X-175201Y284555D01*
X-174835Y284522D01*
X-174418D01*
X-170369D01*
Y282306D01*
X-178734D01*
Y284338D01*
X-177584D01*
X-177601Y284355D01*
X-177634Y284389D01*
X-177701Y284455D01*
X-177801Y284538D01*
X-177901Y284638D01*
X-178001Y284755D01*
X-178134Y284905D01*
X-178251Y285072D01*
X-178367Y285255D01*
X-178500Y285455D01*
X-178717Y285888D01*
X-178800Y286138D01*
X-178867Y286388D01*
X-178900Y286655D01*
X-178917Y286938D01*
Y287071D01*
X-178900Y287221D01*
X-178884Y287404D01*
X-178834Y287621D01*
X-178784Y287854D01*
X-178700Y288088D01*
X-178584Y288321D01*
X-178567Y288354D01*
X-178517Y288421D01*
X-178450Y288537D01*
X-178334Y288671D01*
X-178184Y288821D01*
X-178017Y288987D01*
X-177801Y289154D01*
X-177567Y289304D01*
X-177601Y289337D01*
X-177684Y289404D01*
X-177801Y289504D01*
X-177951Y289654D01*
X-178117Y289837D01*
X-178284Y290037D01*
X-178450Y290254D01*
X-178584Y290487D01*
X-178600Y290520D01*
X-178634Y290604D01*
X-178684Y290737D01*
X-178750Y290903D01*
X-178817Y291103D01*
X-178867Y291337D01*
X-178900Y291587D01*
X-178917Y291853D01*
Y292003D01*
X-178900Y292170D01*
X-178867Y292386D01*
X-178817Y292636D01*
X-178750Y292886D01*
X-178667Y293153D01*
X-178534Y293403D01*
X-178517Y293436D01*
X-178467Y293503D01*
X-178384Y293619D01*
X-178267Y293769D01*
X-178100Y293919D01*
X-177917Y294086D01*
X-177701Y294236D01*
X-177434Y294369D01*
X-177417Y294386D01*
X-177334Y294403D01*
X-177201Y294436D01*
X-177017Y294486D01*
X-176784Y294536D01*
X-176484Y294569D01*
X-176118Y294586D01*
X-175701Y294603D01*
X-170369D01*
Y292386D01*
D02*
G37*
G36*
Y278057D02*
X-175135D01*
X-175151D01*
X-175185D01*
X-175251D01*
X-175335D01*
X-175551Y278040D01*
X-175801Y278023D01*
X-176068Y278007D01*
X-176334Y277957D01*
X-176568Y277907D01*
X-176651Y277857D01*
X-176734Y277824D01*
X-176751Y277807D01*
X-176817Y277757D01*
X-176884Y277690D01*
X-176984Y277590D01*
X-177068Y277457D01*
X-177151Y277290D01*
X-177201Y277090D01*
X-177217Y276874D01*
Y276790D01*
X-177201Y276707D01*
X-177184Y276590D01*
X-177151Y276457D01*
X-177101Y276307D01*
X-177034Y276141D01*
X-176934Y275991D01*
X-176917Y275974D01*
X-176884Y275924D01*
X-176817Y275857D01*
X-176718Y275774D01*
X-176601Y275674D01*
X-176468Y275574D01*
X-176301Y275491D01*
X-176101Y275408D01*
X-176068D01*
X-176001Y275374D01*
X-175868Y275357D01*
X-175685Y275324D01*
X-175434Y275291D01*
X-175135Y275274D01*
X-174785Y275241D01*
X-174368D01*
X-170369D01*
Y273025D01*
X-174935D01*
X-174951D01*
X-174985D01*
X-175051D01*
X-175135D01*
X-175335D01*
X-175585Y273008D01*
X-175851Y272991D01*
X-176101Y272975D01*
X-176334Y272941D01*
X-176434Y272908D01*
X-176501Y272891D01*
X-176518D01*
X-176568Y272875D01*
X-176634Y272841D01*
X-176701Y272808D01*
X-176884Y272691D01*
X-176968Y272608D01*
X-177034Y272525D01*
X-177051Y272508D01*
X-177068Y272475D01*
X-177101Y272425D01*
X-177134Y272358D01*
X-177167Y272258D01*
X-177184Y272142D01*
X-177217Y272008D01*
Y271775D01*
X-177201Y271675D01*
X-177184Y271558D01*
X-177151Y271409D01*
X-177101Y271259D01*
X-177034Y271109D01*
X-176934Y270942D01*
X-176917Y270925D01*
X-176884Y270875D01*
X-176817Y270809D01*
X-176734Y270725D01*
X-176618Y270625D01*
X-176484Y270525D01*
X-176318Y270442D01*
X-176134Y270359D01*
X-176118D01*
X-176034Y270325D01*
X-175901Y270309D01*
X-175735Y270275D01*
X-175485Y270242D01*
X-175201Y270225D01*
X-174835Y270192D01*
X-174418D01*
X-170369D01*
Y267976D01*
X-178734D01*
Y270009D01*
X-177584D01*
X-177601Y270026D01*
X-177634Y270059D01*
X-177701Y270126D01*
X-177801Y270209D01*
X-177901Y270309D01*
X-178001Y270425D01*
X-178134Y270575D01*
X-178251Y270742D01*
X-178367Y270925D01*
X-178500Y271125D01*
X-178717Y271558D01*
X-178800Y271808D01*
X-178867Y272058D01*
X-178900Y272325D01*
X-178917Y272608D01*
Y272742D01*
X-178900Y272891D01*
X-178884Y273075D01*
X-178834Y273291D01*
X-178784Y273525D01*
X-178700Y273758D01*
X-178584Y273991D01*
X-178567Y274025D01*
X-178517Y274091D01*
X-178450Y274208D01*
X-178334Y274341D01*
X-178184Y274491D01*
X-178017Y274658D01*
X-177801Y274824D01*
X-177567Y274974D01*
X-177601Y275008D01*
X-177684Y275074D01*
X-177801Y275174D01*
X-177951Y275324D01*
X-178117Y275507D01*
X-178284Y275707D01*
X-178450Y275924D01*
X-178584Y276157D01*
X-178600Y276191D01*
X-178634Y276274D01*
X-178684Y276407D01*
X-178750Y276574D01*
X-178817Y276774D01*
X-178867Y277007D01*
X-178900Y277257D01*
X-178917Y277524D01*
Y277673D01*
X-178900Y277840D01*
X-178867Y278057D01*
X-178817Y278307D01*
X-178750Y278557D01*
X-178667Y278823D01*
X-178534Y279073D01*
X-178517Y279107D01*
X-178467Y279173D01*
X-178384Y279290D01*
X-178267Y279440D01*
X-178100Y279590D01*
X-177917Y279756D01*
X-177701Y279906D01*
X-177434Y280040D01*
X-177417Y280056D01*
X-177334Y280073D01*
X-177201Y280106D01*
X-177017Y280156D01*
X-176784Y280206D01*
X-176484Y280240D01*
X-176118Y280256D01*
X-175701Y280273D01*
X-170369D01*
Y278057D01*
D02*
G37*
G36*
X-173768Y266393D02*
X-173618Y266376D01*
X-173452Y266360D01*
X-173252Y266326D01*
X-173052Y266276D01*
X-172585Y266160D01*
X-172352Y266077D01*
X-172119Y265960D01*
X-171886Y265843D01*
X-171652Y265710D01*
X-171419Y265543D01*
X-171219Y265360D01*
X-171202Y265343D01*
X-171169Y265310D01*
X-171119Y265260D01*
X-171052Y265177D01*
X-170969Y265077D01*
X-170886Y264944D01*
X-170786Y264810D01*
X-170686Y264643D01*
X-170586Y264460D01*
X-170486Y264260D01*
X-170403Y264044D01*
X-170319Y263794D01*
X-170252Y263544D01*
X-170203Y263277D01*
X-170169Y262994D01*
X-170153Y262694D01*
Y262611D01*
X-170169Y262527D01*
Y262411D01*
X-170203Y262261D01*
X-170219Y262078D01*
X-170269Y261894D01*
X-170319Y261678D01*
X-170386Y261461D01*
X-170486Y261228D01*
X-170586Y260978D01*
X-170719Y260744D01*
X-170869Y260495D01*
X-171052Y260261D01*
X-171269Y260028D01*
X-171502Y259811D01*
X-171519Y259795D01*
X-171569Y259762D01*
X-171652Y259711D01*
X-171769Y259645D01*
X-171919Y259545D01*
X-172102Y259461D01*
X-172319Y259362D01*
X-172569Y259262D01*
X-172868Y259145D01*
X-173185Y259045D01*
X-173552Y258962D01*
X-173968Y258878D01*
X-174401Y258795D01*
X-174885Y258745D01*
X-175401Y258712D01*
X-175968Y258695D01*
X-175984D01*
X-176001D01*
X-176051D01*
X-176101D01*
X-176268D01*
X-176484Y258712D01*
X-176751Y258728D01*
X-177051Y258762D01*
X-177384Y258795D01*
X-177734Y258845D01*
X-178100Y258895D01*
X-178484Y258978D01*
X-178867Y259078D01*
X-179250Y259195D01*
X-179600Y259328D01*
X-179950Y259478D01*
X-180267Y259662D01*
X-180550Y259861D01*
X-180567Y259878D01*
X-180617Y259911D01*
X-180683Y259978D01*
X-180767Y260078D01*
X-180883Y260195D01*
X-181000Y260328D01*
X-181133Y260495D01*
X-181266Y260678D01*
X-181383Y260895D01*
X-181516Y261111D01*
X-181633Y261378D01*
X-181750Y261644D01*
X-181833Y261928D01*
X-181900Y262244D01*
X-181950Y262561D01*
X-181966Y262911D01*
Y263044D01*
X-181950Y263127D01*
Y263244D01*
X-181933Y263377D01*
X-181866Y263677D01*
X-181783Y264010D01*
X-181650Y264377D01*
X-181466Y264743D01*
X-181350Y264910D01*
X-181216Y265077D01*
Y265093D01*
X-181183Y265110D01*
X-181133Y265160D01*
X-181083Y265210D01*
X-181000Y265293D01*
X-180917Y265360D01*
X-180683Y265543D01*
X-180367Y265727D01*
X-180000Y265910D01*
X-179583Y266077D01*
X-179084Y266193D01*
X-178850Y264060D01*
X-178884D01*
X-178950Y264044D01*
X-179067Y264010D01*
X-179217Y263977D01*
X-179367Y263927D01*
X-179534Y263844D01*
X-179683Y263760D01*
X-179817Y263644D01*
X-179833Y263627D01*
X-179867Y263577D01*
X-179917Y263510D01*
X-179983Y263410D01*
X-180033Y263294D01*
X-180083Y263144D01*
X-180117Y262961D01*
X-180133Y262777D01*
Y262744D01*
X-180117Y262661D01*
X-180100Y262527D01*
X-180050Y262361D01*
X-179983Y262178D01*
X-179867Y261978D01*
X-179717Y261778D01*
X-179500Y261594D01*
X-179467Y261578D01*
X-179433Y261544D01*
X-179367Y261511D01*
X-179300Y261478D01*
X-179200Y261428D01*
X-179084Y261394D01*
X-178934Y261344D01*
X-178767Y261278D01*
X-178584Y261228D01*
X-178367Y261178D01*
X-178134Y261128D01*
X-177867Y261078D01*
X-177567Y261045D01*
X-177234Y261011D01*
X-176884Y260978D01*
X-176901Y260994D01*
X-176934Y261011D01*
X-176968Y261061D01*
X-177034Y261128D01*
X-177118Y261211D01*
X-177201Y261311D01*
X-177384Y261544D01*
X-177551Y261844D01*
X-177717Y262194D01*
X-177784Y262394D01*
X-177817Y262594D01*
X-177851Y262811D01*
X-177867Y263044D01*
Y263177D01*
X-177851Y263277D01*
X-177834Y263394D01*
X-177817Y263527D01*
X-177784Y263694D01*
X-177734Y263860D01*
X-177601Y264227D01*
X-177517Y264427D01*
X-177417Y264627D01*
X-177301Y264827D01*
X-177151Y265027D01*
X-176984Y265227D01*
X-176801Y265410D01*
X-176784Y265427D01*
X-176751Y265460D01*
X-176701Y265510D01*
X-176618Y265560D01*
X-176501Y265643D01*
X-176384Y265727D01*
X-176234Y265810D01*
X-176068Y265910D01*
X-175884Y266010D01*
X-175668Y266093D01*
X-175451Y266176D01*
X-175201Y266260D01*
X-174951Y266310D01*
X-174668Y266360D01*
X-174385Y266393D01*
X-174068Y266410D01*
X-174052D01*
X-173985D01*
X-173902D01*
X-173768Y266393D01*
D02*
G37*
G36*
X-170369Y254679D02*
X-172585D01*
Y256896D01*
X-170369D01*
Y254679D01*
D02*
G37*
G36*
X-173568Y252813D02*
X-173435Y252797D01*
X-173285Y252763D01*
X-173102Y252730D01*
X-172918Y252697D01*
X-172519Y252563D01*
X-172302Y252463D01*
X-172069Y252363D01*
X-171852Y252230D01*
X-171635Y252080D01*
X-171419Y251914D01*
X-171219Y251714D01*
X-171202Y251697D01*
X-171169Y251663D01*
X-171119Y251597D01*
X-171052Y251514D01*
X-170969Y251397D01*
X-170886Y251280D01*
X-170786Y251114D01*
X-170686Y250947D01*
X-170586Y250764D01*
X-170486Y250547D01*
X-170403Y250314D01*
X-170319Y250081D01*
X-170252Y249814D01*
X-170203Y249547D01*
X-170169Y249247D01*
X-170153Y248948D01*
Y248798D01*
X-170169Y248681D01*
X-170186Y248548D01*
X-170203Y248398D01*
X-170236Y248231D01*
X-170269Y248031D01*
X-170369Y247631D01*
X-170536Y247198D01*
X-170636Y246965D01*
X-170752Y246765D01*
X-170902Y246548D01*
X-171052Y246348D01*
X-171069Y246332D01*
X-171102Y246298D01*
X-171152Y246248D01*
X-171219Y246182D01*
X-171302Y246098D01*
X-171419Y246015D01*
X-171535Y245915D01*
X-171686Y245815D01*
X-171852Y245715D01*
X-172019Y245598D01*
X-172419Y245415D01*
X-172885Y245265D01*
X-173135Y245198D01*
X-173402Y245165D01*
X-173668Y247298D01*
X-173652D01*
X-173635D01*
X-173535Y247315D01*
X-173385Y247348D01*
X-173202Y247398D01*
X-173002Y247481D01*
X-172785Y247565D01*
X-172585Y247698D01*
X-172402Y247848D01*
X-172385Y247864D01*
X-172335Y247931D01*
X-172269Y248031D01*
X-172202Y248148D01*
X-172119Y248314D01*
X-172052Y248498D01*
X-172002Y248698D01*
X-171985Y248931D01*
Y248964D01*
X-172002Y249048D01*
X-172019Y249164D01*
X-172052Y249331D01*
X-172119Y249514D01*
X-172202Y249697D01*
X-172335Y249897D01*
X-172502Y250081D01*
X-172519Y250097D01*
X-172602Y250164D01*
X-172719Y250231D01*
X-172868Y250331D01*
X-173069Y250414D01*
X-173318Y250497D01*
X-173602Y250547D01*
X-173918Y250564D01*
X-173935D01*
X-173952D01*
X-174052D01*
X-174202Y250547D01*
X-174401Y250514D01*
X-174618Y250447D01*
X-174835Y250364D01*
X-175051Y250247D01*
X-175251Y250097D01*
X-175268Y250081D01*
X-175335Y250014D01*
X-175418Y249914D01*
X-175501Y249797D01*
X-175601Y249631D01*
X-175668Y249447D01*
X-175735Y249247D01*
X-175751Y249014D01*
Y248848D01*
X-175735Y248731D01*
X-175718Y248581D01*
X-175685Y248398D01*
X-175634Y248214D01*
X-175585Y247998D01*
X-177367Y248231D01*
Y248381D01*
X-177384Y248548D01*
X-177401Y248748D01*
X-177451Y248964D01*
X-177517Y249198D01*
X-177617Y249414D01*
X-177751Y249614D01*
X-177767Y249631D01*
X-177834Y249697D01*
X-177917Y249764D01*
X-178050Y249864D01*
X-178200Y249947D01*
X-178384Y250031D01*
X-178600Y250081D01*
X-178850Y250097D01*
X-178884D01*
X-178950D01*
X-179050Y250081D01*
X-179184Y250047D01*
X-179334Y250014D01*
X-179484Y249947D01*
X-179650Y249864D01*
X-179783Y249747D01*
X-179800Y249731D01*
X-179833Y249681D01*
X-179900Y249614D01*
X-179967Y249497D01*
X-180017Y249364D01*
X-180083Y249214D01*
X-180117Y249014D01*
X-180133Y248814D01*
Y248714D01*
X-180117Y248614D01*
X-180083Y248481D01*
X-180033Y248331D01*
X-179967Y248164D01*
X-179867Y247998D01*
X-179733Y247848D01*
X-179717Y247831D01*
X-179667Y247781D01*
X-179567Y247715D01*
X-179433Y247631D01*
X-179284Y247548D01*
X-179084Y247481D01*
X-178850Y247415D01*
X-178584Y247365D01*
X-178917Y245332D01*
X-178934D01*
X-178967Y245348D01*
X-179017D01*
X-179100Y245365D01*
X-179284Y245415D01*
X-179534Y245482D01*
X-179800Y245582D01*
X-180083Y245682D01*
X-180350Y245815D01*
X-180600Y245965D01*
X-180633Y245982D01*
X-180700Y246048D01*
X-180816Y246148D01*
X-180966Y246282D01*
X-181116Y246448D01*
X-181283Y246648D01*
X-181450Y246898D01*
X-181600Y247165D01*
Y247181D01*
X-181616Y247198D01*
X-181650Y247298D01*
X-181716Y247465D01*
X-181783Y247665D01*
X-181850Y247915D01*
X-181916Y248214D01*
X-181950Y248531D01*
X-181966Y248881D01*
Y249031D01*
X-181950Y249147D01*
X-181933Y249298D01*
X-181916Y249447D01*
X-181883Y249631D01*
X-181833Y249814D01*
X-181716Y250231D01*
X-181633Y250447D01*
X-181516Y250680D01*
X-181400Y250897D01*
X-181266Y251097D01*
X-181100Y251314D01*
X-180917Y251497D01*
X-180900Y251514D01*
X-180883Y251530D01*
X-180833Y251580D01*
X-180767Y251630D01*
X-180600Y251763D01*
X-180367Y251914D01*
X-180083Y252063D01*
X-179750Y252180D01*
X-179384Y252280D01*
X-179200Y252297D01*
X-179000Y252313D01*
X-178984D01*
X-178934D01*
X-178850Y252297D01*
X-178750Y252280D01*
X-178617Y252263D01*
X-178467Y252230D01*
X-178300Y252180D01*
X-178117Y252113D01*
X-177934Y252013D01*
X-177734Y251914D01*
X-177534Y251780D01*
X-177334Y251614D01*
X-177134Y251414D01*
X-176934Y251197D01*
X-176751Y250947D01*
X-176568Y250647D01*
Y250664D01*
X-176551Y250697D01*
Y250747D01*
X-176518Y250814D01*
X-176468Y250997D01*
X-176368Y251214D01*
X-176234Y251464D01*
X-176068Y251730D01*
X-175851Y251997D01*
X-175601Y252230D01*
X-175568Y252263D01*
X-175468Y252330D01*
X-175318Y252413D01*
X-175101Y252530D01*
X-174851Y252647D01*
X-174535Y252730D01*
X-174202Y252797D01*
X-173818Y252830D01*
X-173802D01*
X-173752D01*
X-173668D01*
X-173568Y252813D01*
D02*
G37*
G36*
X-174002Y244065D02*
X-173868D01*
X-173718Y244032D01*
X-173552Y244016D01*
X-173385Y243982D01*
X-172985Y243882D01*
X-172552Y243732D01*
X-172319Y243632D01*
X-172102Y243532D01*
X-171886Y243399D01*
X-171669Y243249D01*
X-171652Y243232D01*
X-171602Y243199D01*
X-171535Y243132D01*
X-171436Y243049D01*
X-171319Y242932D01*
X-171186Y242782D01*
X-171052Y242616D01*
X-170919Y242433D01*
X-170769Y242216D01*
X-170636Y241983D01*
X-170502Y241733D01*
X-170386Y241450D01*
X-170286Y241150D01*
X-170219Y240833D01*
X-170169Y240483D01*
X-170153Y240117D01*
Y239967D01*
X-170169Y239850D01*
X-170186Y239717D01*
X-170203Y239550D01*
X-170219Y239383D01*
X-170252Y239183D01*
X-170352Y238783D01*
X-170519Y238334D01*
X-170602Y238117D01*
X-170719Y237900D01*
X-170852Y237700D01*
X-171002Y237500D01*
X-171019Y237484D01*
X-171036Y237451D01*
X-171086Y237400D01*
X-171152Y237334D01*
X-171252Y237267D01*
X-171352Y237167D01*
X-171469Y237084D01*
X-171602Y236984D01*
X-171769Y236867D01*
X-171935Y236767D01*
X-172335Y236584D01*
X-172785Y236417D01*
X-173035Y236367D01*
X-173302Y236318D01*
X-173535Y238517D01*
X-173502D01*
X-173418Y238534D01*
X-173268Y238567D01*
X-173102Y238617D01*
X-172918Y238683D01*
X-172719Y238783D01*
X-172535Y238917D01*
X-172352Y239067D01*
X-172335Y239083D01*
X-172285Y239150D01*
X-172219Y239250D01*
X-172135Y239383D01*
X-172052Y239533D01*
X-171985Y239717D01*
X-171935Y239933D01*
X-171919Y240150D01*
Y240183D01*
X-171935Y240266D01*
X-171952Y240400D01*
X-171985Y240566D01*
X-172052Y240750D01*
X-172152Y240950D01*
X-172302Y241150D01*
X-172485Y241333D01*
X-172519Y241350D01*
X-172585Y241416D01*
X-172719Y241483D01*
X-172918Y241583D01*
X-173152Y241666D01*
X-173435Y241749D01*
X-173785Y241799D01*
X-174185Y241816D01*
X-174202D01*
X-174235D01*
X-174285D01*
X-174368D01*
X-174551Y241799D01*
X-174785Y241749D01*
X-175051Y241699D01*
X-175318Y241616D01*
X-175568Y241500D01*
X-175784Y241333D01*
X-175801Y241316D01*
X-175868Y241250D01*
X-175951Y241133D01*
X-176068Y241000D01*
X-176168Y240816D01*
X-176251Y240600D01*
X-176318Y240350D01*
X-176334Y240083D01*
Y239983D01*
X-176318Y239916D01*
X-176284Y239750D01*
X-176234Y239517D01*
X-176134Y239250D01*
X-175984Y238967D01*
X-175884Y238817D01*
X-175768Y238667D01*
X-175634Y238517D01*
X-175485Y238367D01*
X-175735Y236584D01*
X-181750Y237717D01*
Y243566D01*
X-179683D01*
Y239383D01*
X-177717Y239033D01*
Y239050D01*
X-177734Y239067D01*
X-177784Y239167D01*
X-177834Y239317D01*
X-177917Y239500D01*
X-177984Y239733D01*
X-178034Y239983D01*
X-178084Y240266D01*
X-178100Y240550D01*
Y240700D01*
X-178084Y240800D01*
X-178067Y240916D01*
X-178050Y241066D01*
X-178017Y241233D01*
X-177967Y241416D01*
X-177834Y241799D01*
X-177751Y242016D01*
X-177651Y242216D01*
X-177517Y242433D01*
X-177367Y242649D01*
X-177201Y242849D01*
X-177017Y243049D01*
X-177001Y243066D01*
X-176968Y243099D01*
X-176901Y243149D01*
X-176817Y243216D01*
X-176718Y243282D01*
X-176584Y243382D01*
X-176434Y243466D01*
X-176268Y243566D01*
X-176084Y243666D01*
X-175868Y243749D01*
X-175634Y243849D01*
X-175401Y243916D01*
X-175135Y243982D01*
X-174851Y244032D01*
X-174551Y244065D01*
X-174235Y244082D01*
X-174218D01*
X-174168D01*
X-174102D01*
X-174002Y244065D01*
D02*
G37*
%LPC*%
G36*
X789607Y502414D02*
X789507D01*
X789374Y502380D01*
X789224Y502347D01*
X789057Y502280D01*
X788874Y502197D01*
X788690Y502064D01*
X788524Y501897D01*
X788507Y501880D01*
X788457Y501797D01*
X788391Y501681D01*
X788307Y501531D01*
X788224Y501314D01*
X788157Y501064D01*
X788107Y500764D01*
X788091Y500414D01*
Y500398D01*
Y500364D01*
Y500314D01*
Y500231D01*
X788124Y500048D01*
X788157Y499798D01*
X788207Y499531D01*
X788291Y499248D01*
X788407Y498981D01*
X788574Y498748D01*
X788591Y498731D01*
X788657Y498665D01*
X788774Y498565D01*
X788907Y498465D01*
X789074Y498348D01*
X789257Y498265D01*
X789474Y498198D01*
X789707Y498165D01*
X789807D01*
X789924Y498198D01*
X790073Y498231D01*
X790223Y498281D01*
X790407Y498365D01*
X790573Y498481D01*
X790740Y498631D01*
X790757Y498648D01*
X790807Y498731D01*
X790873Y498848D01*
X790957Y499015D01*
X791023Y499231D01*
X791090Y499498D01*
X791140Y499831D01*
X791157Y500214D01*
Y500231D01*
Y500264D01*
Y500331D01*
Y500398D01*
X791140Y500597D01*
X791107Y500847D01*
X791040Y501114D01*
X790973Y501397D01*
X790857Y501664D01*
X790707Y501880D01*
X790690Y501897D01*
X790623Y501964D01*
X790540Y502047D01*
X790407Y502147D01*
X790240Y502247D01*
X790057Y502330D01*
X789840Y502397D01*
X789607Y502414D01*
D02*
G37*
G36*
X774994Y506129D02*
X772328D01*
Y503197D01*
X774594D01*
X774927Y503214D01*
X775277Y503230D01*
X775627Y503247D01*
X775777Y503264D01*
X775910Y503280D01*
X776044Y503313D01*
X776127Y503330D01*
X776144D01*
X776194Y503363D01*
X776277Y503397D01*
X776360Y503447D01*
X776577Y503597D01*
X776677Y503697D01*
X776777Y503813D01*
X776794Y503830D01*
X776810Y503880D01*
X776860Y503947D01*
X776910Y504047D01*
X776944Y504180D01*
X776993Y504330D01*
X777010Y504496D01*
X777027Y504680D01*
Y504713D01*
Y504780D01*
X777010Y504880D01*
X776993Y505013D01*
X776944Y505163D01*
X776894Y505313D01*
X776810Y505480D01*
X776710Y505613D01*
X776694Y505630D01*
X776660Y505680D01*
X776577Y505729D01*
X776477Y505813D01*
X776360Y505896D01*
X776210Y505963D01*
X776027Y506029D01*
X775827Y506079D01*
X775810D01*
X775760Y506096D01*
X775661D01*
X775511Y506113D01*
X775144D01*
X774994Y506129D01*
D02*
G37*
G36*
X760854Y550627D02*
X760771D01*
X760704Y550610D01*
X760537Y550593D01*
X760337Y550543D01*
X760104Y550460D01*
X759854Y550327D01*
X759604Y550160D01*
X759354Y549927D01*
X759321Y549893D01*
X759254Y549794D01*
X759154Y549644D01*
X759054Y549427D01*
X758938Y549160D01*
X758838Y548827D01*
X758771Y548444D01*
X758738Y548011D01*
Y547977D01*
Y547877D01*
X758755Y547727D01*
X758771Y547544D01*
X758788Y547327D01*
X758838Y547094D01*
X758888Y546861D01*
X758954Y546611D01*
X762054Y550193D01*
X762037Y550210D01*
X761970Y550260D01*
X761854Y550327D01*
X761704Y550410D01*
X761537Y550493D01*
X761337Y550560D01*
X761104Y550610D01*
X760854Y550627D01*
D02*
G37*
G36*
X762737Y549227D02*
X759654Y545678D01*
X759671Y545661D01*
X759754Y545628D01*
X759854Y545561D01*
X760004Y545495D01*
X760171Y545428D01*
X760371Y545361D01*
X760587Y545328D01*
X760837Y545311D01*
X760921D01*
X760987Y545328D01*
X761154Y545345D01*
X761370Y545395D01*
X761604Y545478D01*
X761854Y545595D01*
X762104Y545761D01*
X762354Y545978D01*
X762387Y546011D01*
X762454Y546111D01*
X762553Y546261D01*
X762670Y546478D01*
X762770Y546744D01*
X762870Y547061D01*
X762937Y547444D01*
X762970Y547877D01*
Y547894D01*
Y547911D01*
Y548011D01*
X762953Y548144D01*
X762937Y548327D01*
X762920Y548544D01*
X762870Y548760D01*
X762820Y548994D01*
X762737Y549227D01*
D02*
G37*
G36*
X797011Y553543D02*
X796945D01*
X796861Y553526D01*
X796778Y553509D01*
X796661Y553476D01*
X796545Y553426D01*
X796412Y553359D01*
X796295Y553276D01*
X796278Y553259D01*
X796245Y553226D01*
X796195Y553159D01*
X796128Y553076D01*
X796045Y552943D01*
X795978Y552793D01*
X795895Y552593D01*
X795828Y552360D01*
Y552343D01*
X795812Y552326D01*
Y552260D01*
X795795Y552193D01*
X795778Y552093D01*
X795762Y551976D01*
X795745Y551843D01*
X795728Y551676D01*
X795695Y551477D01*
X795678Y551277D01*
X795662Y551027D01*
X795645Y550777D01*
X795628Y550477D01*
Y550177D01*
X795612Y549827D01*
Y549460D01*
Y549444D01*
Y549377D01*
Y549260D01*
Y549127D01*
Y548960D01*
X795628Y548777D01*
Y548560D01*
X795645Y548344D01*
X795662Y547877D01*
X795695Y547411D01*
X795712Y547194D01*
X795745Y546994D01*
X795778Y546811D01*
X795812Y546644D01*
X795828Y546611D01*
X795845Y546528D01*
X795895Y546394D01*
X795945Y546245D01*
X796028Y546078D01*
X796112Y545911D01*
X796211Y545761D01*
X796311Y545645D01*
X796328Y545628D01*
X796361Y545611D01*
X796428Y545561D01*
X796512Y545528D01*
X796611Y545478D01*
X796728Y545428D01*
X796861Y545411D01*
X797011Y545395D01*
X797078D01*
X797161Y545411D01*
X797245Y545428D01*
X797361Y545461D01*
X797478Y545495D01*
X797595Y545561D01*
X797711Y545645D01*
X797728Y545661D01*
X797761Y545695D01*
X797828Y545761D01*
X797894Y545861D01*
X797961Y545978D01*
X798044Y546144D01*
X798128Y546328D01*
X798194Y546561D01*
Y546578D01*
X798211Y546594D01*
Y546661D01*
X798228Y546728D01*
X798244Y546828D01*
X798261Y546944D01*
X798294Y547078D01*
X798311Y547244D01*
X798328Y547427D01*
X798361Y547644D01*
X798378Y547877D01*
X798394Y548144D01*
X798411Y548427D01*
Y548744D01*
X798428Y549094D01*
Y549460D01*
Y549477D01*
Y549544D01*
Y549660D01*
Y549794D01*
Y549960D01*
X798411Y550144D01*
Y550360D01*
X798394Y550577D01*
X798378Y551043D01*
X798344Y551493D01*
X798311Y551710D01*
X798278Y551926D01*
X798244Y552110D01*
X798211Y552260D01*
Y552276D01*
X798194Y552293D01*
X798178Y552376D01*
X798128Y552509D01*
X798078Y552676D01*
X797994Y552843D01*
X797911Y553009D01*
X797811Y553159D01*
X797711Y553276D01*
X797694Y553293D01*
X797661Y553326D01*
X797595Y553359D01*
X797511Y553409D01*
X797411Y553459D01*
X797295Y553509D01*
X797161Y553526D01*
X797011Y553543D01*
D02*
G37*
G36*
X-148862Y20415D02*
X-148895D01*
X-148962D01*
X-149078Y20398D01*
X-149212Y20365D01*
X-149378Y20315D01*
X-149545Y20248D01*
X-149712Y20165D01*
X-149861Y20032D01*
X-149878Y20015D01*
X-149928Y19965D01*
X-149978Y19882D01*
X-150061Y19765D01*
X-150128Y19615D01*
X-150178Y19449D01*
X-150228Y19249D01*
X-150245Y19032D01*
Y18932D01*
X-150228Y18815D01*
X-150195Y18665D01*
X-150145Y18499D01*
X-150078Y18332D01*
X-149995Y18166D01*
X-149861Y18016D01*
X-149845Y17999D01*
X-149795Y17966D01*
X-149712Y17899D01*
X-149595Y17832D01*
X-149445Y17766D01*
X-149278Y17699D01*
X-149078Y17666D01*
X-148845Y17649D01*
X-148812D01*
X-148728D01*
X-148612Y17666D01*
X-148462Y17699D01*
X-148295Y17732D01*
X-148128Y17799D01*
X-147962Y17899D01*
X-147812Y18016D01*
X-147795Y18032D01*
X-147762Y18082D01*
X-147695Y18166D01*
X-147629Y18282D01*
X-147562Y18432D01*
X-147495Y18599D01*
X-147462Y18799D01*
X-147445Y19015D01*
Y19115D01*
X-147462Y19232D01*
X-147495Y19382D01*
X-147529Y19549D01*
X-147595Y19715D01*
X-147695Y19882D01*
X-147812Y20032D01*
X-147829Y20048D01*
X-147879Y20098D01*
X-147962Y20148D01*
X-148095Y20232D01*
X-148245Y20298D01*
X-148412Y20348D01*
X-148628Y20398D01*
X-148862Y20415D01*
D02*
G37*
G36*
X-143880Y20682D02*
X-143896D01*
X-143913D01*
X-144013D01*
X-144163Y20665D01*
X-144346Y20632D01*
X-144563Y20565D01*
X-144779Y20482D01*
X-144996Y20365D01*
X-145196Y20215D01*
X-145213Y20198D01*
X-145279Y20132D01*
X-145363Y20032D01*
X-145446Y19899D01*
X-145546Y19732D01*
X-145612Y19532D01*
X-145679Y19299D01*
X-145696Y19049D01*
Y18915D01*
X-145662Y18765D01*
X-145629Y18599D01*
X-145562Y18399D01*
X-145463Y18199D01*
X-145313Y17999D01*
X-145129Y17832D01*
X-145096Y17816D01*
X-145029Y17766D01*
X-144913Y17716D01*
X-144763Y17649D01*
X-144579Y17566D01*
X-144380Y17516D01*
X-144146Y17466D01*
X-143913Y17449D01*
X-143896D01*
X-143880D01*
X-143830D01*
X-143763D01*
X-143596Y17482D01*
X-143380Y17516D01*
X-143146Y17566D01*
X-142913Y17649D01*
X-142680Y17766D01*
X-142463Y17916D01*
X-142447Y17932D01*
X-142380Y17999D01*
X-142313Y18099D01*
X-142213Y18232D01*
X-142130Y18399D01*
X-142047Y18599D01*
X-141980Y18832D01*
X-141963Y19082D01*
Y19199D01*
X-141997Y19315D01*
X-142030Y19482D01*
X-142080Y19665D01*
X-142163Y19849D01*
X-142280Y20032D01*
X-142447Y20215D01*
X-142463Y20232D01*
X-142547Y20282D01*
X-142647Y20365D01*
X-142813Y20448D01*
X-143013Y20532D01*
X-143263Y20615D01*
X-143546Y20665D01*
X-143880Y20682D01*
D02*
G37*
G36*
X352727Y-89704D02*
X352627D01*
X352494Y-89737D01*
X352344Y-89770D01*
X352178Y-89837D01*
X351994Y-89920D01*
X351811Y-90054D01*
X351644Y-90220D01*
X351628Y-90237D01*
X351578Y-90320D01*
X351511Y-90437D01*
X351428Y-90587D01*
X351344Y-90803D01*
X351278Y-91053D01*
X351228Y-91353D01*
X351211Y-91703D01*
Y-91720D01*
Y-91753D01*
Y-91803D01*
Y-91886D01*
X351244Y-92070D01*
X351278Y-92320D01*
X351328Y-92586D01*
X351411Y-92870D01*
X351528Y-93136D01*
X351694Y-93369D01*
X351711Y-93386D01*
X351778Y-93453D01*
X351894Y-93553D01*
X352028Y-93653D01*
X352194Y-93769D01*
X352378Y-93853D01*
X352594Y-93919D01*
X352827Y-93953D01*
X352927D01*
X353044Y-93919D01*
X353194Y-93886D01*
X353344Y-93836D01*
X353527Y-93753D01*
X353694Y-93636D01*
X353860Y-93486D01*
X353877Y-93469D01*
X353927Y-93386D01*
X353994Y-93269D01*
X354077Y-93103D01*
X354144Y-92886D01*
X354210Y-92620D01*
X354260Y-92286D01*
X354277Y-91903D01*
Y-91886D01*
Y-91853D01*
Y-91786D01*
Y-91720D01*
X354260Y-91520D01*
X354227Y-91270D01*
X354160Y-91003D01*
X354094Y-90720D01*
X353977Y-90454D01*
X353827Y-90237D01*
X353810Y-90220D01*
X353744Y-90154D01*
X353661Y-90070D01*
X353527Y-89970D01*
X353360Y-89870D01*
X353177Y-89787D01*
X352961Y-89720D01*
X352727Y-89704D01*
D02*
G37*
G36*
X339014Y-85721D02*
X338914D01*
X338798Y-85738D01*
X338648Y-85771D01*
X338481Y-85821D01*
X338314Y-85888D01*
X338148Y-85971D01*
X337998Y-86105D01*
X337981Y-86121D01*
X337948Y-86171D01*
X337881Y-86255D01*
X337814Y-86371D01*
X337748Y-86521D01*
X337681Y-86688D01*
X337648Y-86888D01*
X337631Y-87121D01*
Y-87154D01*
Y-87238D01*
X337648Y-87354D01*
X337681Y-87504D01*
X337715Y-87671D01*
X337781Y-87837D01*
X337881Y-88004D01*
X337998Y-88154D01*
X338014Y-88171D01*
X338064Y-88204D01*
X338148Y-88271D01*
X338264Y-88337D01*
X338414Y-88404D01*
X338581Y-88471D01*
X338781Y-88504D01*
X338997Y-88521D01*
X339098D01*
X339214Y-88504D01*
X339364Y-88471D01*
X339531Y-88437D01*
X339697Y-88371D01*
X339864Y-88271D01*
X340014Y-88154D01*
X340031Y-88137D01*
X340081Y-88087D01*
X340131Y-88004D01*
X340214Y-87871D01*
X340280Y-87721D01*
X340331Y-87554D01*
X340381Y-87338D01*
X340397Y-87104D01*
Y-87071D01*
Y-87004D01*
X340381Y-86888D01*
X340347Y-86754D01*
X340297Y-86588D01*
X340231Y-86421D01*
X340147Y-86255D01*
X340014Y-86105D01*
X339997Y-86088D01*
X339947Y-86038D01*
X339864Y-85988D01*
X339747Y-85905D01*
X339597Y-85838D01*
X339431Y-85788D01*
X339231Y-85738D01*
X339014Y-85721D01*
D02*
G37*
G36*
X339031Y-90270D02*
X338898D01*
X338748Y-90303D01*
X338581Y-90337D01*
X338381Y-90403D01*
X338181Y-90504D01*
X337981Y-90653D01*
X337814Y-90837D01*
X337798Y-90870D01*
X337748Y-90937D01*
X337698Y-91053D01*
X337631Y-91203D01*
X337548Y-91387D01*
X337498Y-91587D01*
X337448Y-91820D01*
X337431Y-92053D01*
Y-92070D01*
Y-92086D01*
Y-92136D01*
Y-92203D01*
X337465Y-92370D01*
X337498Y-92586D01*
X337548Y-92819D01*
X337631Y-93053D01*
X337748Y-93286D01*
X337898Y-93503D01*
X337915Y-93519D01*
X337981Y-93586D01*
X338081Y-93653D01*
X338214Y-93753D01*
X338381Y-93836D01*
X338581Y-93919D01*
X338814Y-93986D01*
X339064Y-94003D01*
X339181D01*
X339297Y-93969D01*
X339464Y-93936D01*
X339647Y-93886D01*
X339831Y-93803D01*
X340014Y-93686D01*
X340197Y-93519D01*
X340214Y-93503D01*
X340264Y-93419D01*
X340347Y-93319D01*
X340430Y-93153D01*
X340514Y-92953D01*
X340597Y-92703D01*
X340647Y-92420D01*
X340664Y-92086D01*
Y-92070D01*
Y-92053D01*
Y-91953D01*
X340647Y-91803D01*
X340614Y-91620D01*
X340547Y-91403D01*
X340464Y-91187D01*
X340347Y-90970D01*
X340197Y-90770D01*
X340181Y-90753D01*
X340114Y-90687D01*
X340014Y-90603D01*
X339881Y-90520D01*
X339714Y-90420D01*
X339514Y-90353D01*
X339281Y-90287D01*
X339031Y-90270D01*
D02*
G37*
G36*
X330050Y-85721D02*
X329950D01*
X329833Y-85738D01*
X329683Y-85771D01*
X329517Y-85821D01*
X329350Y-85888D01*
X329183Y-85971D01*
X329033Y-86105D01*
X329017Y-86121D01*
X328983Y-86171D01*
X328917Y-86255D01*
X328850Y-86371D01*
X328783Y-86521D01*
X328717Y-86688D01*
X328684Y-86888D01*
X328667Y-87121D01*
Y-87154D01*
Y-87238D01*
X328684Y-87354D01*
X328717Y-87504D01*
X328750Y-87671D01*
X328817Y-87837D01*
X328917Y-88004D01*
X329033Y-88154D01*
X329050Y-88171D01*
X329100Y-88204D01*
X329183Y-88271D01*
X329300Y-88337D01*
X329450Y-88404D01*
X329617Y-88471D01*
X329817Y-88504D01*
X330033Y-88521D01*
X330133D01*
X330250Y-88504D01*
X330400Y-88471D01*
X330566Y-88437D01*
X330733Y-88371D01*
X330900Y-88271D01*
X331050Y-88154D01*
X331066Y-88137D01*
X331116Y-88087D01*
X331166Y-88004D01*
X331250Y-87871D01*
X331316Y-87721D01*
X331366Y-87554D01*
X331416Y-87338D01*
X331433Y-87104D01*
Y-87071D01*
Y-87004D01*
X331416Y-86888D01*
X331383Y-86754D01*
X331333Y-86588D01*
X331266Y-86421D01*
X331183Y-86255D01*
X331050Y-86105D01*
X331033Y-86088D01*
X330983Y-86038D01*
X330900Y-85988D01*
X330783Y-85905D01*
X330633Y-85838D01*
X330466Y-85788D01*
X330266Y-85738D01*
X330050Y-85721D01*
D02*
G37*
G36*
X330066Y-90270D02*
X329933D01*
X329783Y-90303D01*
X329617Y-90337D01*
X329417Y-90403D01*
X329217Y-90504D01*
X329017Y-90653D01*
X328850Y-90837D01*
X328834Y-90870D01*
X328783Y-90937D01*
X328733Y-91053D01*
X328667Y-91203D01*
X328583Y-91387D01*
X328534Y-91587D01*
X328484Y-91820D01*
X328467Y-92053D01*
Y-92070D01*
Y-92086D01*
Y-92136D01*
Y-92203D01*
X328500Y-92370D01*
X328534Y-92586D01*
X328583Y-92819D01*
X328667Y-93053D01*
X328783Y-93286D01*
X328933Y-93503D01*
X328950Y-93519D01*
X329017Y-93586D01*
X329117Y-93653D01*
X329250Y-93753D01*
X329417Y-93836D01*
X329617Y-93919D01*
X329850Y-93986D01*
X330100Y-94003D01*
X330216D01*
X330333Y-93969D01*
X330500Y-93936D01*
X330683Y-93886D01*
X330866Y-93803D01*
X331050Y-93686D01*
X331233Y-93519D01*
X331250Y-93503D01*
X331300Y-93419D01*
X331383Y-93319D01*
X331466Y-93153D01*
X331549Y-92953D01*
X331633Y-92703D01*
X331683Y-92420D01*
X331699Y-92086D01*
Y-92070D01*
Y-92053D01*
Y-91953D01*
X331683Y-91803D01*
X331649Y-91620D01*
X331583Y-91403D01*
X331499Y-91187D01*
X331383Y-90970D01*
X331233Y-90770D01*
X331216Y-90753D01*
X331150Y-90687D01*
X331050Y-90603D01*
X330916Y-90520D01*
X330750Y-90420D01*
X330550Y-90353D01*
X330316Y-90287D01*
X330066Y-90270D01*
D02*
G37*
G36*
X381514Y-53039D02*
X381447D01*
X381364Y-53055D01*
X381281Y-53072D01*
X381164Y-53105D01*
X381048Y-53155D01*
X380914Y-53222D01*
X380798Y-53305D01*
X380781Y-53322D01*
X380748Y-53355D01*
X380698Y-53422D01*
X380631Y-53505D01*
X380548Y-53639D01*
X380481Y-53788D01*
X380398Y-53988D01*
X380331Y-54222D01*
Y-54238D01*
X380314Y-54255D01*
Y-54322D01*
X380298Y-54388D01*
X380281Y-54488D01*
X380265Y-54605D01*
X380248Y-54738D01*
X380231Y-54905D01*
X380198Y-55105D01*
X380181Y-55305D01*
X380164Y-55555D01*
X380148Y-55805D01*
X380131Y-56104D01*
Y-56405D01*
X380115Y-56754D01*
Y-57121D01*
Y-57138D01*
Y-57204D01*
Y-57321D01*
Y-57454D01*
Y-57621D01*
X380131Y-57804D01*
Y-58021D01*
X380148Y-58237D01*
X380164Y-58704D01*
X380198Y-59170D01*
X380215Y-59387D01*
X380248Y-59587D01*
X380281Y-59770D01*
X380314Y-59937D01*
X380331Y-59970D01*
X380348Y-60054D01*
X380398Y-60187D01*
X380448Y-60337D01*
X380531Y-60503D01*
X380614Y-60670D01*
X380714Y-60820D01*
X380814Y-60937D01*
X380831Y-60953D01*
X380864Y-60970D01*
X380931Y-61020D01*
X381014Y-61053D01*
X381114Y-61103D01*
X381231Y-61153D01*
X381364Y-61170D01*
X381514Y-61187D01*
X381581D01*
X381664Y-61170D01*
X381748Y-61153D01*
X381864Y-61120D01*
X381981Y-61087D01*
X382097Y-61020D01*
X382214Y-60937D01*
X382231Y-60920D01*
X382264Y-60887D01*
X382331Y-60820D01*
X382397Y-60720D01*
X382464Y-60603D01*
X382547Y-60437D01*
X382631Y-60254D01*
X382697Y-60020D01*
Y-60003D01*
X382714Y-59987D01*
Y-59920D01*
X382731Y-59854D01*
X382747Y-59754D01*
X382764Y-59637D01*
X382797Y-59504D01*
X382814Y-59337D01*
X382831Y-59154D01*
X382864Y-58937D01*
X382881Y-58704D01*
X382897Y-58437D01*
X382914Y-58154D01*
Y-57837D01*
X382930Y-57488D01*
Y-57121D01*
Y-57104D01*
Y-57038D01*
Y-56921D01*
Y-56788D01*
Y-56621D01*
X382914Y-56438D01*
Y-56221D01*
X382897Y-56005D01*
X382881Y-55538D01*
X382847Y-55088D01*
X382814Y-54872D01*
X382780Y-54655D01*
X382747Y-54472D01*
X382714Y-54322D01*
Y-54305D01*
X382697Y-54288D01*
X382681Y-54205D01*
X382631Y-54072D01*
X382581Y-53905D01*
X382497Y-53738D01*
X382414Y-53572D01*
X382314Y-53422D01*
X382214Y-53305D01*
X382197Y-53289D01*
X382164Y-53255D01*
X382097Y-53222D01*
X382014Y-53172D01*
X381914Y-53122D01*
X381797Y-53072D01*
X381664Y-53055D01*
X381514Y-53039D01*
D02*
G37*
G36*
X372550Y-52955D02*
X372450D01*
X372333Y-52972D01*
X372183Y-53005D01*
X372017Y-53055D01*
X371850Y-53122D01*
X371683Y-53205D01*
X371533Y-53339D01*
X371517Y-53355D01*
X371483Y-53405D01*
X371417Y-53488D01*
X371350Y-53605D01*
X371283Y-53755D01*
X371217Y-53922D01*
X371184Y-54122D01*
X371167Y-54355D01*
Y-54388D01*
Y-54472D01*
X371184Y-54588D01*
X371217Y-54738D01*
X371250Y-54905D01*
X371317Y-55072D01*
X371417Y-55238D01*
X371533Y-55388D01*
X371550Y-55405D01*
X371600Y-55438D01*
X371683Y-55505D01*
X371800Y-55571D01*
X371950Y-55638D01*
X372117Y-55705D01*
X372317Y-55738D01*
X372533Y-55755D01*
X372633D01*
X372750Y-55738D01*
X372900Y-55705D01*
X373066Y-55671D01*
X373233Y-55605D01*
X373400Y-55505D01*
X373550Y-55388D01*
X373566Y-55371D01*
X373616Y-55321D01*
X373666Y-55238D01*
X373750Y-55105D01*
X373816Y-54955D01*
X373866Y-54788D01*
X373916Y-54572D01*
X373933Y-54338D01*
Y-54305D01*
Y-54238D01*
X373916Y-54122D01*
X373883Y-53988D01*
X373833Y-53822D01*
X373766Y-53655D01*
X373683Y-53488D01*
X373550Y-53339D01*
X373533Y-53322D01*
X373483Y-53272D01*
X373400Y-53222D01*
X373283Y-53139D01*
X373133Y-53072D01*
X372966Y-53022D01*
X372766Y-52972D01*
X372550Y-52955D01*
D02*
G37*
G36*
X372566Y-57504D02*
X372433D01*
X372283Y-57537D01*
X372117Y-57571D01*
X371917Y-57638D01*
X371717Y-57737D01*
X371517Y-57887D01*
X371350Y-58071D01*
X371334Y-58104D01*
X371283Y-58171D01*
X371233Y-58287D01*
X371167Y-58437D01*
X371083Y-58621D01*
X371034Y-58821D01*
X370984Y-59054D01*
X370967Y-59287D01*
Y-59304D01*
Y-59320D01*
Y-59370D01*
Y-59437D01*
X371000Y-59604D01*
X371034Y-59820D01*
X371083Y-60054D01*
X371167Y-60287D01*
X371283Y-60520D01*
X371433Y-60737D01*
X371450Y-60753D01*
X371517Y-60820D01*
X371617Y-60887D01*
X371750Y-60987D01*
X371917Y-61070D01*
X372117Y-61153D01*
X372350Y-61220D01*
X372600Y-61237D01*
X372716D01*
X372833Y-61203D01*
X373000Y-61170D01*
X373183Y-61120D01*
X373366Y-61037D01*
X373550Y-60920D01*
X373733Y-60753D01*
X373750Y-60737D01*
X373800Y-60653D01*
X373883Y-60553D01*
X373966Y-60387D01*
X374049Y-60187D01*
X374133Y-59937D01*
X374183Y-59654D01*
X374199Y-59320D01*
Y-59304D01*
Y-59287D01*
Y-59187D01*
X374183Y-59037D01*
X374149Y-58854D01*
X374083Y-58637D01*
X373999Y-58421D01*
X373883Y-58204D01*
X373733Y-58004D01*
X373716Y-57987D01*
X373649Y-57921D01*
X373550Y-57837D01*
X373416Y-57754D01*
X373250Y-57654D01*
X373050Y-57587D01*
X372816Y-57521D01*
X372566Y-57504D01*
D02*
G37*
G36*
X-65968Y-52955D02*
X-66068D01*
X-66185Y-52972D01*
X-66335Y-53005D01*
X-66501Y-53055D01*
X-66668Y-53122D01*
X-66834Y-53205D01*
X-66984Y-53339D01*
X-67001Y-53355D01*
X-67034Y-53405D01*
X-67101Y-53488D01*
X-67168Y-53605D01*
X-67234Y-53755D01*
X-67301Y-53922D01*
X-67334Y-54122D01*
X-67351Y-54355D01*
Y-54388D01*
Y-54472D01*
X-67334Y-54588D01*
X-67301Y-54738D01*
X-67268Y-54905D01*
X-67201Y-55072D01*
X-67101Y-55238D01*
X-66984Y-55388D01*
X-66968Y-55405D01*
X-66918Y-55438D01*
X-66834Y-55505D01*
X-66718Y-55571D01*
X-66568Y-55638D01*
X-66401Y-55705D01*
X-66201Y-55738D01*
X-65985Y-55755D01*
X-65885D01*
X-65768Y-55738D01*
X-65618Y-55705D01*
X-65451Y-55671D01*
X-65285Y-55605D01*
X-65118Y-55505D01*
X-64968Y-55388D01*
X-64952Y-55371D01*
X-64902Y-55321D01*
X-64852Y-55238D01*
X-64768Y-55105D01*
X-64702Y-54955D01*
X-64652Y-54788D01*
X-64602Y-54572D01*
X-64585Y-54338D01*
Y-54305D01*
Y-54238D01*
X-64602Y-54122D01*
X-64635Y-53988D01*
X-64685Y-53822D01*
X-64752Y-53655D01*
X-64835Y-53488D01*
X-64968Y-53339D01*
X-64985Y-53322D01*
X-65035Y-53272D01*
X-65118Y-53222D01*
X-65235Y-53139D01*
X-65385Y-53072D01*
X-65551Y-53022D01*
X-65751Y-52972D01*
X-65968Y-52955D01*
D02*
G37*
G36*
X-65951Y-57504D02*
X-66085D01*
X-66235Y-57537D01*
X-66401Y-57571D01*
X-66601Y-57638D01*
X-66801Y-57737D01*
X-67001Y-57887D01*
X-67168Y-58071D01*
X-67184Y-58104D01*
X-67234Y-58171D01*
X-67284Y-58287D01*
X-67351Y-58437D01*
X-67434Y-58621D01*
X-67484Y-58821D01*
X-67534Y-59054D01*
X-67551Y-59287D01*
Y-59304D01*
Y-59320D01*
Y-59370D01*
Y-59437D01*
X-67518Y-59604D01*
X-67484Y-59820D01*
X-67434Y-60054D01*
X-67351Y-60287D01*
X-67234Y-60520D01*
X-67084Y-60737D01*
X-67068Y-60753D01*
X-67001Y-60820D01*
X-66901Y-60887D01*
X-66768Y-60987D01*
X-66601Y-61070D01*
X-66401Y-61153D01*
X-66168Y-61220D01*
X-65918Y-61237D01*
X-65801D01*
X-65685Y-61203D01*
X-65518Y-61170D01*
X-65335Y-61120D01*
X-65152Y-61037D01*
X-64968Y-60920D01*
X-64785Y-60753D01*
X-64768Y-60737D01*
X-64718Y-60653D01*
X-64635Y-60553D01*
X-64552Y-60387D01*
X-64468Y-60187D01*
X-64385Y-59937D01*
X-64335Y-59654D01*
X-64318Y-59320D01*
Y-59304D01*
Y-59287D01*
Y-59187D01*
X-64335Y-59037D01*
X-64368Y-58854D01*
X-64435Y-58637D01*
X-64518Y-58421D01*
X-64635Y-58204D01*
X-64785Y-58004D01*
X-64802Y-57987D01*
X-64868Y-57921D01*
X-64968Y-57837D01*
X-65101Y-57754D01*
X-65268Y-57654D01*
X-65468Y-57587D01*
X-65701Y-57521D01*
X-65951Y-57504D01*
D02*
G37*
G36*
X-144646Y283341D02*
X-148612D01*
X-144646Y280659D01*
Y283341D01*
D02*
G37*
G36*
X-174035Y264244D02*
X-174052D01*
X-174085D01*
X-174151D01*
X-174218D01*
X-174418Y264227D01*
X-174668Y264194D01*
X-174935Y264127D01*
X-175218Y264060D01*
X-175485Y263944D01*
X-175701Y263794D01*
X-175718Y263777D01*
X-175784Y263710D01*
X-175868Y263627D01*
X-175968Y263494D01*
X-176068Y263327D01*
X-176151Y263144D01*
X-176218Y262927D01*
X-176234Y262694D01*
Y262594D01*
X-176201Y262461D01*
X-176168Y262311D01*
X-176101Y262144D01*
X-176018Y261961D01*
X-175884Y261778D01*
X-175718Y261611D01*
X-175701Y261594D01*
X-175618Y261544D01*
X-175501Y261478D01*
X-175351Y261394D01*
X-175135Y261311D01*
X-174885Y261244D01*
X-174585Y261194D01*
X-174235Y261178D01*
X-174218D01*
X-174185D01*
X-174135D01*
X-174052D01*
X-173868Y261211D01*
X-173618Y261244D01*
X-173352Y261294D01*
X-173069Y261378D01*
X-172802Y261494D01*
X-172569Y261661D01*
X-172552Y261678D01*
X-172485Y261744D01*
X-172385Y261861D01*
X-172285Y261994D01*
X-172169Y262161D01*
X-172085Y262344D01*
X-172019Y262561D01*
X-171985Y262794D01*
Y262894D01*
X-172019Y263011D01*
X-172052Y263161D01*
X-172102Y263311D01*
X-172185Y263494D01*
X-172302Y263661D01*
X-172452Y263827D01*
X-172469Y263844D01*
X-172552Y263894D01*
X-172669Y263960D01*
X-172835Y264044D01*
X-173052Y264110D01*
X-173318Y264177D01*
X-173652Y264227D01*
X-174035Y264244D01*
D02*
G37*
%LPD*%
D10*
X-34000Y120000D02*
G03*
X-34000Y120000I-16000J0D01*
G01*
Y501000D02*
G03*
X-34000Y501000I-16000J0D01*
G01*
X697000D02*
G03*
X697000Y501000I-16000J0D01*
G01*
X-34000Y120000D02*
G03*
X-34000Y120000I-16000J0D01*
G01*
Y501000D02*
G03*
X-34000Y501000I-16000J0D01*
G01*
Y120000D02*
G03*
X-34000Y120000I-16000J0D01*
G01*
X697000Y501000D02*
G03*
X697000Y501000I-16000J0D01*
G01*
X-34000D02*
G03*
X-34000Y501000I-16000J0D01*
G01*
X750679Y485679D02*
X767455Y502455D01*
X733903Y468903D02*
X750679Y485679D01*
X733903Y468903D02*
X748271Y476087D01*
X733903Y468903D02*
X741087Y483271D01*
X651726Y471726D02*
X669686Y489686D01*
X655318Y482502D02*
X669686Y489686D01*
X662502Y475318D02*
X669686Y489686D01*
X729860Y549860D02*
X753998D01*
X692314Y512314D02*
X729860Y549860D01*
X692314Y512314D02*
X706682Y519498D01*
X692314Y512314D02*
X699498Y526682D01*
X716000Y512123D02*
G03*
X777123Y451000I61123J0D01*
G01*
X0Y23877D02*
G03*
X-61123Y85000I-61123J-0D01*
G01*
X-85000Y536000D02*
X716000D01*
X0Y0D02*
X801000D01*
X-85000Y85000D02*
X-61123D01*
X777123Y451000D02*
X801000D01*
X801000Y0D02*
Y451000D01*
X-85000Y85000D02*
Y536000D01*
X0Y0D02*
Y23877D01*
X716000Y512123D02*
Y536000D01*
D186*
X-85000Y539810D02*
Y569976D01*
X-50000Y527056D02*
Y569976D01*
X-85000Y567436D02*
X-67500D01*
X-50000D01*
X-85000D02*
X-81000Y566103D01*
X-85000Y567436D02*
X-81000Y568769D01*
X-54000D02*
X-50000Y567436D01*
X-54000Y566103D02*
X-50000Y567436D01*
X-127254Y536000D02*
X-88810D01*
X-127254Y501000D02*
X-76056D01*
X-124714Y518500D02*
Y536000D01*
Y501000D02*
Y518500D01*
X-126047Y532000D02*
X-124714Y536000D01*
X-123381Y532000D01*
X-124714Y501000D02*
X-123381Y505000D01*
X-126047D02*
X-124714Y501000D01*
X-148844Y85000D02*
X-88810D01*
X-148844Y0D02*
X-3810D01*
X-146304Y67194D02*
Y85000D01*
Y0D02*
Y12726D01*
X-147637Y81000D02*
X-146304Y85000D01*
X-144971Y81000D01*
X-146304Y0D02*
X-144971Y4000D01*
X-147637D02*
X-146304Y0D01*
X801000Y-92202D02*
Y-3810D01*
X-85000Y-92202D02*
Y81190D01*
X387176Y-89662D02*
X801000D01*
X-85000D02*
X323744D01*
X797000Y-88329D02*
X801000Y-89662D01*
X797000Y-90995D02*
X801000Y-89662D01*
X-85000D02*
X-81000Y-90995D01*
X-85000Y-89662D02*
X-81000Y-88329D01*
X801000Y-59436D02*
Y-3810D01*
X0Y-59436D02*
Y-3810D01*
X429676Y-56896D02*
X801000D01*
X0D02*
X366244D01*
X797000Y-55563D02*
X801000Y-56896D01*
X797000Y-58229D02*
X801000Y-56896D01*
X0D02*
X4000Y-58229D01*
X0Y-56896D02*
X4000Y-55563D01*
X0Y-59436D02*
Y-3810D01*
X-85000Y-59436D02*
Y81190D01*
X-17806Y-56896D02*
X0D01*
X-85000D02*
X-72274D01*
X-4000Y-55563D02*
X0Y-56896D01*
X-4000Y-58229D02*
X0Y-56896D01*
X-85000D02*
X-81000Y-58229D01*
X-85000Y-56896D02*
X-81000Y-55563D01*
X-148844Y536000D02*
X-88810D01*
X-148844Y85000D02*
X-88810D01*
X-146304Y339851D02*
Y536000D01*
Y85000D02*
Y276069D01*
X-147637Y532000D02*
X-146304Y536000D01*
X-144971Y532000D01*
X-146304Y85000D02*
X-144971Y89000D01*
X-147637D02*
X-146304Y85000D01*
X-178816Y536000D02*
X-88810D01*
X-178816Y0D02*
X-3810D01*
X-176276Y297143D02*
Y536000D01*
Y0D02*
Y233778D01*
X-177609Y532000D02*
X-176276Y536000D01*
X-174943Y532000D01*
X-176276Y0D02*
X-174943Y4000D01*
X-177609D02*
X-176276Y0D01*
M02*
