G04*
G04 #@! TF.GenerationSoftware,Altium Limited,Altium Designer,20.2.4 (192)*
G04*
G04 Layer_Physical_Order=4*
G04 Layer_Color=16711680*
%FSLAX44Y44*%
%MOMM*%
G71*
G04*
G04 #@! TF.SameCoordinates,742EB62A-7AE8-4A69-8DF3-B4F61E8DB2E3*
G04*
G04*
G04 #@! TF.FilePolarity,Positive*
G04*
G01*
G75*
%ADD10C,0.2540*%
%ADD16C,0.2000*%
%ADD17C,0.1524*%
%ADD20C,0.1500*%
%ADD161C,0.5080*%
%ADD162C,0.3048*%
%ADD170C,1.5000*%
%ADD171C,1.5300*%
%ADD172R,1.5300X1.5300*%
%ADD173C,1.6500*%
%ADD174R,1.6500X1.6500*%
%ADD175C,2.5000*%
%ADD177C,4.5000*%
%ADD178C,0.5080*%
%ADD179C,0.6096*%
%ADD180C,0.5100*%
%ADD181C,3.0000*%
G04:AMPARAMS|DCode=182|XSize=2.1mm|YSize=0.8mm|CornerRadius=0.36mm|HoleSize=0mm|Usage=FLASHONLY|Rotation=0.000|XOffset=0mm|YOffset=0mm|HoleType=Round|Shape=RoundedRectangle|*
%AMROUNDEDRECTD182*
21,1,2.1000,0.0800,0,0,0.0*
21,1,1.3800,0.8000,0,0,0.0*
1,1,0.7200,0.6900,-0.0400*
1,1,0.7200,-0.6900,-0.0400*
1,1,0.7200,-0.6900,0.0400*
1,1,0.7200,0.6900,0.0400*
%
%ADD182ROUNDEDRECTD182*%
%ADD183C,0.7620*%
G36*
X770017Y431239D02*
Y421296D01*
X740553Y391832D01*
X716640D01*
X691531Y366723D01*
X660251D01*
X653974Y373000D01*
X653974Y436607D01*
X659202Y441836D01*
X759420D01*
X770017Y431239D01*
D02*
G37*
G36*
X638392Y324268D02*
X697320D01*
X697828Y324058D01*
Y261530D01*
X697828Y261530D01*
X645798D01*
X638392Y253870D01*
Y126320D01*
X722499D01*
X728054Y120765D01*
Y99732D01*
X723482Y95160D01*
X641440D01*
X638392Y92112D01*
Y3334D01*
X3334D01*
Y25632D01*
X3345Y25645D01*
X3356Y25645D01*
X2974Y32446D01*
X1791Y39408D01*
X-164Y46194D01*
X-2867Y52719D01*
X-6283Y58900D01*
X-10369Y64659D01*
X-15075Y69925D01*
X-20341Y74630D01*
X-26100Y78717D01*
X-32281Y82133D01*
X-38806Y84836D01*
X-45592Y86791D01*
X-52554Y87974D01*
X-58596Y88313D01*
X-59605Y88370D01*
X-59855Y88356D01*
X-61118Y88334D01*
X-81666D01*
Y299552D01*
X-20188D01*
Y371432D01*
X-81666D01*
Y532666D01*
X638392D01*
Y324268D01*
D02*
G37*
%LPC*%
G36*
X422812Y522619D02*
X421040Y522267D01*
X419539Y521263D01*
X418535Y519761D01*
X418379Y518977D01*
X417085D01*
X416928Y519761D01*
X415925Y521263D01*
X414423Y522267D01*
X412652Y522619D01*
X410881Y522267D01*
X409379Y521263D01*
X408375Y519761D01*
X408219Y518977D01*
X406925D01*
X406768Y519761D01*
X405765Y521263D01*
X404263Y522267D01*
X402492Y522619D01*
X400720Y522267D01*
X399219Y521263D01*
X398215Y519761D01*
X397863Y517990D01*
X398215Y516219D01*
X399219Y514717D01*
X400720Y513713D01*
X401505Y513557D01*
Y512263D01*
X400720Y512107D01*
X399219Y511103D01*
X398215Y509601D01*
X398059Y508817D01*
X396764D01*
X396609Y509601D01*
X395605Y511103D01*
X394103Y512107D01*
X392332Y512459D01*
X390560Y512107D01*
X389059Y511103D01*
X388055Y509601D01*
X387703Y507830D01*
X388055Y506059D01*
X389059Y504557D01*
X390560Y503553D01*
X391345Y503397D01*
Y502103D01*
X390560Y501947D01*
X389059Y500943D01*
X388055Y499441D01*
X387703Y497670D01*
X388055Y495899D01*
X389059Y494397D01*
X390560Y493393D01*
X391345Y493237D01*
Y491943D01*
X390560Y491787D01*
X389059Y490783D01*
X388055Y489281D01*
X387703Y487510D01*
X388055Y485739D01*
X389059Y484237D01*
X390560Y483233D01*
X392332Y482881D01*
X394103Y483233D01*
X395605Y484237D01*
X396609Y485739D01*
X396764Y486523D01*
X398059D01*
X398215Y485739D01*
X399219Y484237D01*
X400720Y483233D01*
X402492Y482881D01*
X404263Y483233D01*
X405765Y484237D01*
X406768Y485739D01*
X406925Y486523D01*
X408219D01*
X408375Y485739D01*
X409379Y484237D01*
X410881Y483233D01*
X412652Y482881D01*
X414423Y483233D01*
X415925Y484237D01*
X416928Y485739D01*
X417085Y486523D01*
X418379D01*
X418535Y485739D01*
X419539Y484237D01*
X421040Y483233D01*
X422812Y482881D01*
X426221D01*
X427310Y481791D01*
X426820Y480175D01*
X426492Y476842D01*
X426820Y473509D01*
X427792Y470305D01*
X429371Y467352D01*
X431495Y464763D01*
X434084Y462639D01*
X437037Y461060D01*
X440241Y460088D01*
X443574Y459760D01*
X446907Y460088D01*
X450111Y461060D01*
X453064Y462639D01*
X455653Y464763D01*
X457777Y467352D01*
X459356Y470305D01*
X460328Y473509D01*
X460656Y476842D01*
X460328Y480175D01*
X459356Y483379D01*
X457777Y486332D01*
X455653Y488921D01*
X453064Y491045D01*
X450111Y492624D01*
X446907Y493596D01*
X443574Y493924D01*
X440241Y493596D01*
X437037Y492624D01*
X434084Y491045D01*
X432472Y489723D01*
X431411Y490783D01*
X429910Y491787D01*
X428138Y492139D01*
X428138Y492139D01*
X424787D01*
X424583Y493393D01*
X426085Y494397D01*
X427089Y495899D01*
X427441Y497670D01*
X427089Y499441D01*
X426085Y500943D01*
X424583Y501947D01*
X423799Y502103D01*
Y503397D01*
X424583Y503553D01*
X426085Y504557D01*
X427089Y506059D01*
X427441Y507830D01*
X427089Y509601D01*
X426085Y511103D01*
X424583Y512107D01*
X423799Y512263D01*
Y513557D01*
X424583Y513713D01*
X426085Y514717D01*
X427089Y516219D01*
X427441Y517990D01*
X427089Y519761D01*
X426085Y521263D01*
X424583Y522267D01*
X422812Y522619D01*
D02*
G37*
G36*
X251797Y523028D02*
X250026Y522676D01*
X248524Y521672D01*
X247521Y520171D01*
X247208Y518597D01*
X246591Y518313D01*
X245936Y518215D01*
X245779Y518449D01*
X244277Y519453D01*
X242506Y519805D01*
X240735Y519453D01*
X239233Y518449D01*
X238229Y516948D01*
X237877Y515176D01*
X238229Y513405D01*
X239233Y511903D01*
X240735Y510900D01*
X242506Y510547D01*
X244277Y510900D01*
X245779Y511903D01*
X246782Y513405D01*
X247096Y514978D01*
X247712Y515262D01*
X248368Y515360D01*
X248524Y515126D01*
X250026Y514123D01*
X251797Y513770D01*
X253569Y514123D01*
X255071Y515126D01*
X256074Y516628D01*
X256426Y518399D01*
X256074Y520171D01*
X255071Y521672D01*
X253569Y522676D01*
X251797Y523028D01*
D02*
G37*
G36*
X203798Y511976D02*
X201531Y511525D01*
X199609Y510241D01*
X198325Y508319D01*
X197874Y506052D01*
X198325Y503785D01*
X199609Y501863D01*
X201531Y500579D01*
X203798Y500128D01*
X206065Y500579D01*
X207987Y501863D01*
X209271Y503785D01*
X209722Y506052D01*
X209271Y508319D01*
X207987Y510241D01*
X206065Y511525D01*
X203798Y511976D01*
D02*
G37*
G36*
X113200Y507085D02*
X111429Y506733D01*
X109927Y505729D01*
X108923Y504227D01*
X108571Y502456D01*
X108923Y500685D01*
X109927Y499183D01*
X111429Y498179D01*
X113200Y497827D01*
X114971Y498179D01*
X116473Y499183D01*
X117477Y500685D01*
X117829Y502456D01*
X117477Y504227D01*
X116473Y505729D01*
X114971Y506733D01*
X113200Y507085D01*
D02*
G37*
G36*
X251710Y506816D02*
X249443Y506365D01*
X247521Y505081D01*
X246237Y503159D01*
X245786Y500892D01*
X246237Y498625D01*
X247521Y496703D01*
X249443Y495419D01*
X251710Y494968D01*
X253977Y495419D01*
X255899Y496703D01*
X257183Y498625D01*
X257634Y500892D01*
X257183Y503159D01*
X255899Y505081D01*
X253977Y506365D01*
X251710Y506816D01*
D02*
G37*
G36*
X186098Y502299D02*
X184327Y501947D01*
X182825Y500943D01*
X181821Y499441D01*
X181469Y497670D01*
X181821Y495899D01*
X182825Y494397D01*
X184327Y493393D01*
X186098Y493041D01*
X187869Y493393D01*
X189371Y494397D01*
X190375Y495899D01*
X190727Y497670D01*
X190375Y499441D01*
X189371Y500943D01*
X187869Y501947D01*
X186098Y502299D01*
D02*
G37*
G36*
X-50000Y525619D02*
X-54803Y525145D01*
X-59421Y523745D01*
X-63677Y521470D01*
X-67408Y518408D01*
X-70470Y514677D01*
X-72745Y510421D01*
X-74145Y505803D01*
X-74619Y501000D01*
X-74145Y496197D01*
X-72745Y491579D01*
X-70470Y487323D01*
X-67408Y483592D01*
X-63677Y480530D01*
X-59421Y478256D01*
X-54803Y476855D01*
X-50000Y476381D01*
X-45197Y476855D01*
X-40579Y478256D01*
X-36323Y480530D01*
X-32592Y483592D01*
X-29530Y487323D01*
X-27255Y491579D01*
X-25854Y496197D01*
X-25382Y501000D01*
X-25854Y505803D01*
X-27255Y510421D01*
X-29530Y514677D01*
X-32592Y518408D01*
X-36323Y521470D01*
X-40579Y523745D01*
X-45197Y525145D01*
X-50000Y525619D01*
D02*
G37*
G36*
X604040Y493924D02*
X600707Y493596D01*
X597503Y492624D01*
X594550Y491045D01*
X591961Y488921D01*
X589837Y486332D01*
X588258Y483379D01*
X587286Y480175D01*
X586958Y476842D01*
X587286Y473509D01*
X588258Y470305D01*
X589837Y467352D01*
X591961Y464763D01*
X594550Y462639D01*
X597503Y461060D01*
X599411Y460481D01*
Y459069D01*
X572945Y459069D01*
X572944Y459069D01*
X572164Y458914D01*
X571503Y458472D01*
X571502Y458472D01*
X559773Y446742D01*
X559773Y446742D01*
X559331Y446080D01*
X559175Y445300D01*
X559176Y357663D01*
X539449Y337936D01*
X539337Y337769D01*
X539195Y337627D01*
X539118Y337442D01*
X539006Y337275D01*
X538967Y337078D01*
X538890Y336892D01*
Y336691D01*
X538851Y336494D01*
X538890Y336297D01*
Y336097D01*
X538985Y335623D01*
X538791Y334647D01*
X538238Y333820D01*
X537411Y333267D01*
X536435Y333073D01*
X535961Y333167D01*
X535760D01*
X535563Y333206D01*
X535366Y333167D01*
X535165D01*
X534980Y333090D01*
X534783Y333051D01*
X534616Y332940D01*
X534430Y332863D01*
X534288Y332721D01*
X534121Y332609D01*
X517240Y315728D01*
X421383D01*
X420602Y315572D01*
X419941Y315130D01*
X409799Y304989D01*
X409357Y304327D01*
X409202Y303547D01*
Y268977D01*
X409357Y268197D01*
X409554Y267902D01*
X409078Y266729D01*
X408992Y266632D01*
X357207D01*
X353460Y270379D01*
X352546Y270990D01*
X351468Y271204D01*
X316807D01*
X315729Y270990D01*
X314815Y270379D01*
X305891Y261455D01*
X305778Y261477D01*
X304202Y261164D01*
X302867Y260271D01*
X302626Y259911D01*
X301356Y260297D01*
Y304710D01*
X301142Y305788D01*
X300531Y306701D01*
X289590Y317643D01*
Y319753D01*
X290860Y320185D01*
X292004Y318693D01*
X294258Y316963D01*
X296883Y315876D01*
X297795Y315756D01*
Y326388D01*
Y337021D01*
X296883Y336901D01*
X294258Y335813D01*
X292004Y334084D01*
X290860Y332592D01*
X289590Y333023D01*
Y339314D01*
X289396Y340291D01*
X289430Y340474D01*
X290137Y341538D01*
X290356Y341538D01*
X309950D01*
Y362038D01*
X289450D01*
X289450Y342524D01*
Y342490D01*
Y342490D01*
X289450Y342417D01*
X289166Y342299D01*
D01*
X289166Y342299D01*
Y342299D01*
X288017Y342054D01*
X283311Y346759D01*
X284286Y349113D01*
X284638Y351788D01*
X284286Y354464D01*
X283253Y356958D01*
X281610Y359099D01*
X279469Y360742D01*
X276976Y361774D01*
X274300Y362127D01*
X271624Y361774D01*
X269131Y360742D01*
X266989Y359099D01*
X265347Y356958D01*
X264314Y354464D01*
X263961Y351788D01*
X264314Y349113D01*
X265347Y346619D01*
X266989Y344478D01*
X269131Y342835D01*
X271624Y341802D01*
X274300Y341450D01*
X276976Y341802D01*
X279329Y342777D01*
X283958Y338148D01*
Y332726D01*
X282688Y332295D01*
X281610Y333699D01*
X279469Y335342D01*
X276976Y336375D01*
X274300Y336727D01*
X271624Y336375D01*
X269131Y335342D01*
X266989Y333699D01*
X265347Y331558D01*
X264314Y329064D01*
X263961Y326388D01*
X264314Y323713D01*
X265347Y321219D01*
X266989Y319078D01*
X269131Y317435D01*
X271624Y316402D01*
X272328Y316310D01*
Y309578D01*
X271799Y309526D01*
X268595Y308554D01*
X265641Y306975D01*
X263053Y304851D01*
X260928Y302262D01*
X259350Y299309D01*
X258378Y296105D01*
X258326Y295576D01*
X197273D01*
X196960Y296045D01*
X195458Y297049D01*
X193687Y297401D01*
X191915Y297049D01*
X190413Y296045D01*
X189410Y294543D01*
X189058Y292772D01*
X189410Y291001D01*
X190413Y289499D01*
X191915Y288495D01*
X193687Y288143D01*
X194700Y288345D01*
X195754Y287282D01*
X195551Y286262D01*
X195904Y284491D01*
X196781Y283178D01*
X196566Y282437D01*
X196239Y281908D01*
X190276D01*
X189962Y282377D01*
X188460Y283381D01*
X186689Y283733D01*
X184918Y283381D01*
X183781Y282622D01*
X182866Y283537D01*
X183503Y284491D01*
X183855Y286262D01*
X183503Y288034D01*
X182499Y289535D01*
X180997Y290539D01*
X179226Y290891D01*
X177455Y290539D01*
X175953Y289535D01*
X174949Y288034D01*
X174597Y286262D01*
X174949Y284491D01*
X175953Y282989D01*
X176422Y282675D01*
Y278621D01*
X175152Y278095D01*
X160628Y292619D01*
Y325003D01*
X161588Y325752D01*
X161898Y325772D01*
X161899Y325766D01*
X162188Y323572D01*
X163275Y320947D01*
X165004Y318693D01*
X167258Y316963D01*
X169883Y315876D01*
X170795Y315756D01*
Y326388D01*
X172700D01*
D01*
X170795D01*
Y337021D01*
X169883Y336901D01*
X167258Y335813D01*
X165004Y334084D01*
X163275Y331830D01*
X162188Y329205D01*
X161899Y327011D01*
X161898Y327005D01*
X161588Y327025D01*
X160628Y327773D01*
Y372129D01*
X187049Y398549D01*
X187656Y399459D01*
X187870Y400532D01*
Y453901D01*
X191641Y457672D01*
X234826D01*
X235505Y456402D01*
X235251Y456022D01*
X234898Y454250D01*
X235251Y452479D01*
X236254Y450977D01*
X237756Y449974D01*
X239527Y449621D01*
X241299Y449974D01*
X242800Y450977D01*
X243804Y452479D01*
X244156Y454250D01*
X243804Y456022D01*
X243550Y456402D01*
X244229Y457672D01*
X253069D01*
X253994Y456287D01*
X255916Y455003D01*
X258183Y454552D01*
X260450Y455003D01*
X262372Y456287D01*
X263656Y458209D01*
X264107Y460476D01*
X263656Y462743D01*
X262372Y464664D01*
X260450Y465949D01*
X258183Y466400D01*
X255916Y465949D01*
X253994Y464664D01*
X253109Y463340D01*
X251893Y463383D01*
X251539Y464550D01*
X252263Y465033D01*
X253547Y466955D01*
X253998Y469222D01*
X253547Y471489D01*
X252263Y473411D01*
X250341Y474695D01*
X248074Y475146D01*
X245807Y474695D01*
X243885Y473411D01*
X242601Y471489D01*
X242150Y469222D01*
X242601Y466955D01*
X243885Y465033D01*
X244609Y464550D01*
X244224Y463280D01*
X190480D01*
X189407Y463066D01*
X188497Y462458D01*
X184661Y458623D01*
X183488Y459109D01*
Y475986D01*
X184066Y477166D01*
X185837Y477518D01*
X187248Y478461D01*
X202265D01*
X202301Y478279D01*
X203305Y476777D01*
X204807Y475773D01*
X206578Y475421D01*
X208349Y475773D01*
X209851Y476777D01*
X210855Y478279D01*
X211207Y480050D01*
X210855Y481821D01*
X209851Y483323D01*
X208349Y484327D01*
X206578Y484679D01*
X205913Y484547D01*
X205422Y484875D01*
X204146Y485129D01*
X187248D01*
X185837Y486072D01*
X184066Y486424D01*
X182295Y486072D01*
X180793Y485068D01*
X179789Y483566D01*
X179437Y481795D01*
X179547Y481241D01*
X178701Y480396D01*
X178094Y479486D01*
X177880Y478413D01*
Y404071D01*
X150135Y376327D01*
X149138Y376761D01*
X148944Y376931D01*
Y468032D01*
X148730Y469105D01*
X148123Y470015D01*
X143119Y475018D01*
X143229Y475572D01*
X142877Y477343D01*
X141873Y478845D01*
X140371Y479849D01*
X138600Y480201D01*
X136829Y479849D01*
X135327Y478845D01*
X134323Y477343D01*
X133971Y475572D01*
X134323Y473801D01*
X135327Y472299D01*
X136829Y471295D01*
X138600Y470943D01*
X139154Y471053D01*
X143336Y466871D01*
Y394485D01*
X142066Y394100D01*
X141873Y394389D01*
X140371Y395392D01*
X138600Y395745D01*
X136829Y395392D01*
X135327Y394389D01*
X134323Y392887D01*
X133971Y391116D01*
X134323Y389344D01*
X135327Y387842D01*
X136829Y386839D01*
X138600Y386487D01*
X140371Y386839D01*
X141873Y387842D01*
X142066Y388131D01*
X143336Y387746D01*
Y378007D01*
X132807Y367479D01*
X132200Y366569D01*
X131986Y365496D01*
Y308922D01*
X130716Y308243D01*
X129837Y308831D01*
X128065Y309183D01*
X126294Y308831D01*
X125717Y308445D01*
X124801Y309361D01*
X125208Y309971D01*
X125561Y311742D01*
X125208Y313513D01*
X124205Y315015D01*
X122703Y316019D01*
X120932Y316371D01*
X119160Y316019D01*
X117659Y315015D01*
X116655Y313513D01*
X116303Y311742D01*
X116655Y309971D01*
X117659Y308469D01*
X118128Y308155D01*
Y272858D01*
X118341Y271785D01*
X118949Y270876D01*
X138268Y251557D01*
X138124Y251244D01*
X137519Y250510D01*
X135994Y250813D01*
X134223Y250461D01*
X132721Y249457D01*
X131718Y247955D01*
X131365Y246184D01*
X131718Y244413D01*
X132721Y242911D01*
X133178Y242605D01*
Y175339D01*
X127587Y169748D01*
X126976Y168834D01*
X126762Y167756D01*
Y144652D01*
X126976Y143574D01*
X127587Y142661D01*
X135958Y134290D01*
Y83753D01*
X135501Y83447D01*
X134497Y81945D01*
X134145Y80174D01*
X134497Y78403D01*
X135501Y76901D01*
X135958Y76595D01*
Y42836D01*
X136172Y41758D01*
X136783Y40845D01*
X170311Y7317D01*
X171224Y6706D01*
X172302Y6492D01*
X425286D01*
X426364Y6706D01*
X427277Y7317D01*
X441960Y21999D01*
X442571Y22913D01*
X442785Y23991D01*
Y27827D01*
X443242Y28133D01*
X444245Y29635D01*
X444598Y31406D01*
X444245Y33177D01*
X443242Y34679D01*
X441740Y35683D01*
X439969Y36035D01*
X438197Y35683D01*
X436696Y34679D01*
X436163Y33882D01*
X435064Y33444D01*
X434593Y33644D01*
X433455Y34405D01*
X431683Y34757D01*
X429912Y34405D01*
X428992Y33790D01*
X427811Y33923D01*
X427494Y34200D01*
X426664Y35441D01*
X425628Y36133D01*
X425803Y37514D01*
X426490Y37722D01*
X429444Y39301D01*
X432032Y41425D01*
X434157Y44014D01*
X435735Y46967D01*
X436707Y50171D01*
X437035Y53504D01*
X436707Y56837D01*
X435735Y60041D01*
X434157Y62994D01*
X432032Y65583D01*
X429444Y67707D01*
X426490Y69286D01*
X423286Y70258D01*
X422586Y70327D01*
X422648Y71597D01*
X568654D01*
X569727Y71810D01*
X570636Y72418D01*
X582575Y84356D01*
X583182Y85266D01*
X583396Y86339D01*
Y286991D01*
X584007Y287399D01*
X585011Y288901D01*
X585254Y290124D01*
X585691Y290395D01*
X585959Y290376D01*
X586223Y290324D01*
X586353Y290350D01*
X586485Y290341D01*
X586740Y290427D01*
X587003Y290479D01*
X587113Y290553D01*
X587239Y290595D01*
X587441Y290772D01*
X587665Y290921D01*
X631407Y334664D01*
X631850Y335325D01*
X632005Y336106D01*
Y452786D01*
X631850Y453567D01*
X631407Y454228D01*
X631407Y454228D01*
X627164Y458472D01*
X627164Y458472D01*
X626502Y458914D01*
X625722Y459069D01*
X608669Y459069D01*
Y460481D01*
X610577Y461060D01*
X613530Y462639D01*
X616119Y464763D01*
X618243Y467352D01*
X619822Y470305D01*
X620794Y473509D01*
X621122Y476842D01*
X620794Y480175D01*
X619822Y483379D01*
X618243Y486332D01*
X616119Y488921D01*
X613530Y491045D01*
X610577Y492624D01*
X607373Y493596D01*
X604040Y493924D01*
D02*
G37*
G36*
X-23251Y473823D02*
X-25518Y473372D01*
X-27439Y472088D01*
X-28724Y470166D01*
X-29174Y467899D01*
X-28724Y465632D01*
X-27439Y463711D01*
X-25518Y462426D01*
X-23251Y461976D01*
X-20984Y462426D01*
X-19062Y463711D01*
X-17778Y465632D01*
X-17327Y467899D01*
X-17778Y470166D01*
X-19062Y472088D01*
X-20984Y473372D01*
X-23251Y473823D01*
D02*
G37*
G36*
X161480Y453705D02*
X159708Y453353D01*
X158207Y452349D01*
X157203Y450847D01*
X156851Y449076D01*
X157203Y447305D01*
X158207Y445803D01*
X159708Y444799D01*
X161480Y444447D01*
X163251Y444799D01*
X164753Y445803D01*
X165756Y447305D01*
X166109Y449076D01*
X165756Y450847D01*
X164753Y452349D01*
X163251Y453353D01*
X161480Y453705D01*
D02*
G37*
G36*
X-62558Y414766D02*
X-64825Y414315D01*
X-66746Y413031D01*
X-68031Y411109D01*
X-68481Y408842D01*
X-68031Y406575D01*
X-66746Y404653D01*
X-64825Y403369D01*
X-62558Y402918D01*
X-60291Y403369D01*
X-58369Y404653D01*
X-57085Y406575D01*
X-56634Y408842D01*
X-57085Y411109D01*
X-58369Y413031D01*
X-60291Y414315D01*
X-62558Y414766D01*
D02*
G37*
G36*
X444301Y405240D02*
X442530Y404888D01*
X441028Y403884D01*
X440025Y402382D01*
X439672Y400611D01*
X440025Y398839D01*
X441028Y397338D01*
X442530Y396334D01*
X444301Y395982D01*
X446073Y396334D01*
X447574Y397338D01*
X448578Y398839D01*
X448930Y400611D01*
X448578Y402382D01*
X447574Y403884D01*
X446073Y404888D01*
X444301Y405240D01*
D02*
G37*
G36*
X2202Y405296D02*
X-65Y404845D01*
X-1987Y403561D01*
X-3271Y401639D01*
X-3722Y399372D01*
X-3271Y397105D01*
X-1987Y395183D01*
X-65Y393899D01*
X2202Y393448D01*
X4469Y393899D01*
X6391Y395183D01*
X7675Y397105D01*
X8126Y399372D01*
X7675Y401639D01*
X6391Y403561D01*
X4469Y404845D01*
X2202Y405296D01*
D02*
G37*
G36*
X125900Y395745D02*
X124129Y395392D01*
X122627Y394389D01*
X121623Y392887D01*
X121271Y391116D01*
X121623Y389344D01*
X122627Y387842D01*
X124129Y386839D01*
X125900Y386487D01*
X127671Y386839D01*
X129173Y387842D01*
X130177Y389344D01*
X130529Y391116D01*
X130177Y392887D01*
X129173Y394389D01*
X127671Y395392D01*
X125900Y395745D01*
D02*
G37*
G36*
X113200D02*
X111429Y395392D01*
X109927Y394389D01*
X108923Y392887D01*
X108571Y391116D01*
X108923Y389344D01*
X109927Y387842D01*
X111429Y386839D01*
X113200Y386487D01*
X114971Y386839D01*
X116473Y387842D01*
X117477Y389344D01*
X117829Y391116D01*
X117477Y392887D01*
X116473Y394389D01*
X114971Y395392D01*
X113200Y395745D01*
D02*
G37*
G36*
X200005Y362421D02*
Y353693D01*
X208732D01*
X208612Y354605D01*
X207525Y357230D01*
X205795Y359484D01*
X203541Y361213D01*
X200917Y362301D01*
X200005Y362421D01*
D02*
G37*
G36*
X196195Y362421D02*
X195283Y362301D01*
X192658Y361213D01*
X190404Y359484D01*
X188675Y357230D01*
X187588Y354605D01*
X187467Y353693D01*
X196195D01*
Y362421D01*
D02*
G37*
G36*
X477898Y359511D02*
X476127Y359159D01*
X474625Y358155D01*
X473621Y356653D01*
X473269Y354882D01*
X473621Y353111D01*
X474625Y351609D01*
X476127Y350605D01*
X477898Y350253D01*
X479669Y350605D01*
X481171Y351609D01*
X482175Y353111D01*
X482527Y354882D01*
X482175Y356653D01*
X481171Y358155D01*
X479669Y359159D01*
X477898Y359511D01*
D02*
G37*
G36*
X249082Y401911D02*
X245750Y401583D01*
X242545Y400611D01*
X239592Y399032D01*
X237003Y396908D01*
X234879Y394319D01*
X233300Y391366D01*
X232328Y388162D01*
X232000Y384829D01*
X232328Y381496D01*
X233300Y378292D01*
X234879Y375339D01*
X237003Y372750D01*
X239592Y370626D01*
X242545Y369047D01*
X245750Y368075D01*
X246278Y368023D01*
Y361782D01*
X246224Y361774D01*
X243731Y360742D01*
X241590Y359099D01*
X239946Y356958D01*
X238914Y354464D01*
X238561Y351788D01*
X238914Y349113D01*
X239946Y346619D01*
X241590Y344478D01*
X243731Y342835D01*
X246224Y341802D01*
X248900Y341450D01*
X251576Y341802D01*
X254069Y342835D01*
X256210Y344478D01*
X257853Y346619D01*
X258886Y349113D01*
X259238Y351788D01*
X258886Y354464D01*
X257853Y356958D01*
X256210Y359099D01*
X254069Y360742D01*
X251886Y361646D01*
Y368023D01*
X252415Y368075D01*
X255619Y369047D01*
X258573Y370626D01*
X261161Y372750D01*
X263286Y375339D01*
X264864Y378292D01*
X265836Y381496D01*
X266165Y384829D01*
X265836Y388162D01*
X264864Y391366D01*
X263286Y394319D01*
X261161Y396908D01*
X258573Y399032D01*
X255619Y400611D01*
X252415Y401583D01*
X249082Y401911D01*
D02*
G37*
G36*
X223500Y362127D02*
X220824Y361774D01*
X218331Y360742D01*
X216189Y359099D01*
X214547Y356958D01*
X213514Y354464D01*
X213161Y351788D01*
X213514Y349113D01*
X214547Y346619D01*
X216189Y344478D01*
X218331Y342835D01*
X220824Y341802D01*
X223500Y341450D01*
X226176Y341802D01*
X228669Y342835D01*
X230810Y344478D01*
X232453Y346619D01*
X233486Y349113D01*
X233838Y351788D01*
X233486Y354464D01*
X232453Y356958D01*
X230810Y359099D01*
X228669Y360742D01*
X226176Y361774D01*
X223500Y362127D01*
D02*
G37*
G36*
X172700D02*
X170024Y361774D01*
X167531Y360742D01*
X165389Y359099D01*
X163746Y356958D01*
X162714Y354464D01*
X162361Y351788D01*
X162714Y349113D01*
X163746Y346619D01*
X165389Y344478D01*
X167531Y342835D01*
X170024Y341802D01*
X172700Y341450D01*
X175376Y341802D01*
X177869Y342835D01*
X180010Y344478D01*
X181653Y346619D01*
X182686Y349113D01*
X183038Y351788D01*
X182686Y354464D01*
X181653Y356958D01*
X180010Y359099D01*
X177869Y360742D01*
X175376Y361774D01*
X172700Y362127D01*
D02*
G37*
G36*
X208732Y349883D02*
X200005D01*
Y341156D01*
X200917Y341276D01*
X203541Y342363D01*
X205795Y344093D01*
X207525Y346347D01*
X208612Y348972D01*
X208732Y349883D01*
D02*
G37*
G36*
X196195D02*
X187467D01*
X187588Y348972D01*
X188675Y346347D01*
X190404Y344093D01*
X192658Y342363D01*
X195283Y341276D01*
X196195Y341156D01*
Y349883D01*
D02*
G37*
G36*
X397999Y339727D02*
X396228Y339375D01*
X394726Y338371D01*
X393723Y336870D01*
X393371Y335098D01*
X393723Y333327D01*
X394726Y331825D01*
X396228Y330822D01*
X397999Y330469D01*
X399771Y330822D01*
X401273Y331825D01*
X402276Y333327D01*
X402628Y335098D01*
X402276Y336870D01*
X401273Y338371D01*
X399771Y339375D01*
X397999Y339727D01*
D02*
G37*
G36*
X-37676Y433211D02*
X-39447Y432859D01*
X-40949Y431855D01*
X-41953Y430353D01*
X-42305Y428582D01*
X-41953Y426811D01*
X-40949Y425309D01*
X-40492Y425003D01*
Y417660D01*
X-40278Y416582D01*
X-39667Y415669D01*
X-11219Y387221D01*
X-10306Y386610D01*
X-9228Y386396D01*
X69278D01*
X78554Y377119D01*
Y340978D01*
X77181Y340061D01*
X75897Y338139D01*
X75446Y335872D01*
X75897Y333605D01*
X77181Y331683D01*
X79103Y330399D01*
X81370Y329948D01*
X83637Y330399D01*
X85559Y331683D01*
X86843Y333605D01*
X87294Y335872D01*
X86843Y338139D01*
X85559Y340061D01*
X84186Y340978D01*
Y378286D01*
X83972Y379364D01*
X83361Y380277D01*
X72435Y391203D01*
X71522Y391814D01*
X70444Y392028D01*
X-8062D01*
X-34860Y418826D01*
Y425003D01*
X-34403Y425309D01*
X-33399Y426811D01*
X-33047Y428582D01*
X-33399Y430353D01*
X-34403Y431855D01*
X-35905Y432859D01*
X-37676Y433211D01*
D02*
G37*
G36*
X301605Y337021D02*
Y328293D01*
X310332D01*
X310212Y329205D01*
X309125Y331830D01*
X307395Y334084D01*
X305141Y335813D01*
X302517Y336901D01*
X301605Y337021D01*
D02*
G37*
G36*
X174605Y337021D02*
Y328293D01*
X183332D01*
X183212Y329205D01*
X182125Y331830D01*
X180395Y334084D01*
X178141Y335813D01*
X175517Y336901D01*
X174605Y337021D01*
D02*
G37*
G36*
X248900Y336727D02*
X246224Y336375D01*
X243731Y335342D01*
X241590Y333699D01*
X239946Y331558D01*
X238914Y329064D01*
X238561Y326388D01*
X238914Y323713D01*
X239946Y321219D01*
X241590Y319078D01*
X243731Y317435D01*
X246224Y316402D01*
X248900Y316050D01*
X251576Y316402D01*
X254069Y317435D01*
X256210Y319078D01*
X257853Y321219D01*
X258886Y323713D01*
X259238Y326388D01*
X258886Y329064D01*
X257853Y331558D01*
X256210Y333699D01*
X254069Y335342D01*
X251576Y336375D01*
X248900Y336727D01*
D02*
G37*
G36*
X223500D02*
X220824Y336375D01*
X218331Y335342D01*
X216189Y333699D01*
X214547Y331558D01*
X213514Y329064D01*
X213161Y326388D01*
X213514Y323713D01*
X214547Y321219D01*
X216189Y319078D01*
X218331Y317435D01*
X220824Y316402D01*
X223500Y316050D01*
X226176Y316402D01*
X228669Y317435D01*
X230810Y319078D01*
X232453Y321219D01*
X233486Y323713D01*
X233838Y326388D01*
X233486Y329064D01*
X232453Y331558D01*
X230810Y333699D01*
X228669Y335342D01*
X226176Y336375D01*
X223500Y336727D01*
D02*
G37*
G36*
X198100D02*
X195424Y336375D01*
X192931Y335342D01*
X190790Y333699D01*
X189146Y331558D01*
X188114Y329064D01*
X187761Y326388D01*
X188114Y323713D01*
X189146Y321219D01*
X190790Y319078D01*
X192931Y317435D01*
X195424Y316402D01*
X198100Y316050D01*
X200776Y316402D01*
X203269Y317435D01*
X205410Y319078D01*
X207053Y321219D01*
X208086Y323713D01*
X208438Y326388D01*
X208086Y329064D01*
X207053Y331558D01*
X205410Y333699D01*
X203269Y335342D01*
X200776Y336375D01*
X198100Y336727D01*
D02*
G37*
G36*
X183332Y324483D02*
X174605D01*
Y315756D01*
X175517Y315876D01*
X178141Y316963D01*
X180395Y318693D01*
X182125Y320947D01*
X183212Y323572D01*
X183332Y324483D01*
D02*
G37*
G36*
X310332Y324483D02*
X301605D01*
Y315756D01*
X302517Y315876D01*
X305141Y316963D01*
X307395Y318693D01*
X309125Y320947D01*
X310212Y323572D01*
X310332Y324483D01*
D02*
G37*
G36*
X85935Y287041D02*
X84151Y286686D01*
X82639Y285675D01*
X81628Y284163D01*
X81273Y282379D01*
X81628Y280595D01*
X82639Y279083D01*
X84151Y278072D01*
X85935Y277718D01*
X87719Y278072D01*
X89231Y279083D01*
X90242Y280595D01*
X90597Y282379D01*
X90242Y284163D01*
X89231Y285675D01*
X87719Y286686D01*
X85935Y287041D01*
D02*
G37*
G36*
X346582Y293523D02*
X344063Y293192D01*
X341715Y292219D01*
X339700Y290672D01*
X338153Y288657D01*
X337180Y286309D01*
X336849Y283790D01*
X337180Y281271D01*
X338153Y278923D01*
X339700Y276908D01*
X341715Y275361D01*
X344063Y274389D01*
X346582Y274057D01*
X349101Y274389D01*
X351449Y275361D01*
X353465Y276908D01*
X355011Y278923D01*
X355984Y281271D01*
X356315Y283790D01*
X355984Y286309D01*
X355011Y288657D01*
X353465Y290672D01*
X351449Y292219D01*
X349101Y293192D01*
X346582Y293523D01*
D02*
G37*
G36*
X321182D02*
X318663Y293192D01*
X316315Y292219D01*
X314300Y290672D01*
X312753Y288657D01*
X311780Y286309D01*
X311449Y283790D01*
X311780Y281271D01*
X312753Y278923D01*
X314300Y276908D01*
X316315Y275361D01*
X318663Y274389D01*
X321182Y274057D01*
X323701Y274389D01*
X326049Y275361D01*
X328064Y276908D01*
X329611Y278923D01*
X330584Y281271D01*
X330915Y283790D01*
X330584Y286309D01*
X329611Y288657D01*
X328064Y290672D01*
X326049Y292219D01*
X323701Y293192D01*
X321182Y293523D01*
D02*
G37*
G36*
X75752Y261553D02*
X73485Y261102D01*
X71563Y259818D01*
X70279Y257896D01*
X69828Y255629D01*
X70279Y253362D01*
X71563Y251440D01*
X73485Y250156D01*
X75752Y249705D01*
X78019Y250156D01*
X79941Y251440D01*
X81225Y253362D01*
X81676Y255629D01*
X81225Y257896D01*
X79941Y259818D01*
X78019Y261102D01*
X75752Y261553D01*
D02*
G37*
G36*
X23432Y251593D02*
X21462Y251201D01*
X19792Y250085D01*
X18677Y248416D01*
X18285Y246446D01*
X18677Y244476D01*
X19792Y242807D01*
X21462Y241691D01*
X23432Y241299D01*
X25401Y241691D01*
X27071Y242807D01*
X28187Y244476D01*
X28579Y246446D01*
X28187Y248416D01*
X27071Y250085D01*
X25401Y251201D01*
X23432Y251593D01*
D02*
G37*
G36*
X91366Y233944D02*
X89099Y233493D01*
X87177Y232209D01*
X85893Y230287D01*
X85442Y228020D01*
X85893Y225753D01*
X87177Y223831D01*
X89099Y222547D01*
X91366Y222096D01*
X93633Y222547D01*
X95555Y223831D01*
X96839Y225753D01*
X97290Y228020D01*
X96839Y230287D01*
X95555Y232209D01*
X93633Y233493D01*
X91366Y233944D01*
D02*
G37*
G36*
X71728Y231332D02*
X69944Y230977D01*
X68432Y229966D01*
X67421Y228454D01*
X67066Y226670D01*
X67421Y224886D01*
X68432Y223374D01*
X69944Y222363D01*
X71728Y222008D01*
X73512Y222363D01*
X75024Y223374D01*
X76035Y224886D01*
X76390Y226670D01*
X76035Y228454D01*
X75024Y229966D01*
X73512Y230977D01*
X71728Y231332D01*
D02*
G37*
G36*
X91366Y204814D02*
X89099Y204363D01*
X87177Y203079D01*
X85893Y201157D01*
X85442Y198890D01*
X85893Y196623D01*
X87177Y194701D01*
X89099Y193417D01*
X91366Y192966D01*
X93633Y193417D01*
X95555Y194701D01*
X96839Y196623D01*
X97290Y198890D01*
X96839Y201157D01*
X95555Y203079D01*
X93633Y204363D01*
X91366Y204814D01*
D02*
G37*
G36*
X113968Y191364D02*
X112184Y191009D01*
X110672Y189998D01*
X109661Y188486D01*
X109306Y186702D01*
X109661Y184918D01*
X110672Y183406D01*
X112184Y182395D01*
X113968Y182041D01*
X115752Y182395D01*
X117264Y183406D01*
X118275Y184918D01*
X118630Y186702D01*
X118275Y188486D01*
X117264Y189998D01*
X115752Y191009D01*
X113968Y191364D01*
D02*
G37*
G36*
X-50000Y144619D02*
X-54803Y144145D01*
X-59421Y142745D01*
X-63677Y140470D01*
X-67408Y137408D01*
X-70470Y133677D01*
X-72745Y129421D01*
X-74145Y124803D01*
X-74619Y120000D01*
X-74145Y115197D01*
X-72745Y110579D01*
X-70470Y106323D01*
X-67408Y102592D01*
X-63677Y99530D01*
X-59421Y97255D01*
X-54803Y95855D01*
X-50000Y95381D01*
X-45197Y95855D01*
X-40579Y97255D01*
X-36323Y99530D01*
X-32592Y102592D01*
X-29530Y106323D01*
X-27255Y110579D01*
X-25854Y115197D01*
X-25382Y120000D01*
X-25854Y124803D01*
X-27255Y129421D01*
X-29530Y133677D01*
X-32592Y137408D01*
X-36323Y140470D01*
X-40579Y142745D01*
X-45197Y144145D01*
X-50000Y144619D01*
D02*
G37*
G36*
X108972Y147032D02*
X107201Y146680D01*
X105699Y145676D01*
X104696Y144174D01*
X104343Y142403D01*
X104696Y140632D01*
X105699Y139130D01*
X106168Y138816D01*
Y103754D01*
X106156Y103692D01*
Y101457D01*
X105699Y101151D01*
X104695Y99649D01*
X104343Y97878D01*
X104695Y96107D01*
X105699Y94605D01*
X107201Y93602D01*
X108972Y93249D01*
X110744Y93602D01*
X112245Y94605D01*
X113249Y96107D01*
X113325Y96489D01*
X114620D01*
X114696Y96107D01*
X115699Y94605D01*
X117201Y93602D01*
X118972Y93249D01*
X120744Y93602D01*
X122245Y94605D01*
X123249Y96107D01*
X123601Y97878D01*
X123249Y99649D01*
X122245Y101151D01*
X120744Y102155D01*
X118972Y102507D01*
X117201Y102155D01*
X115699Y101151D01*
X114696Y99649D01*
X114620Y99268D01*
X113325D01*
X113249Y99649D01*
X112245Y101151D01*
X111788Y101457D01*
Y103692D01*
X111776Y103754D01*
Y138816D01*
X112245Y139130D01*
X113249Y140632D01*
X113601Y142403D01*
X113249Y144174D01*
X112245Y145676D01*
X110744Y146680D01*
X108972Y147032D01*
D02*
G37*
G36*
X621949Y107334D02*
X620178Y106982D01*
X618676Y105978D01*
X617673Y104476D01*
X617320Y102705D01*
X617673Y100934D01*
X618676Y99432D01*
X619133Y99127D01*
Y88058D01*
X617863Y87933D01*
X617730Y88603D01*
X616726Y90104D01*
X615225Y91108D01*
X613453Y91460D01*
X611682Y91108D01*
X610180Y90104D01*
X609177Y88603D01*
X608824Y86831D01*
X609177Y85060D01*
X610180Y83558D01*
X611682Y82555D01*
X613453Y82202D01*
X615225Y82555D01*
X616726Y83558D01*
X617730Y85060D01*
X617863Y85729D01*
X619133Y85604D01*
Y81942D01*
X597593Y60402D01*
X526909D01*
X526603Y60859D01*
X525101Y61863D01*
X523330Y62215D01*
X521559Y61863D01*
X520057Y60859D01*
X519053Y59358D01*
X518701Y57586D01*
X519053Y55815D01*
X520057Y54313D01*
X521559Y53310D01*
X523330Y52957D01*
X525101Y53310D01*
X526603Y54313D01*
X526909Y54770D01*
X598759D01*
X599837Y54984D01*
X600751Y55595D01*
X623940Y78784D01*
X624551Y79698D01*
X624765Y80776D01*
Y99127D01*
X625222Y99432D01*
X626226Y100934D01*
X626578Y102705D01*
X626226Y104476D01*
X625222Y105978D01*
X623721Y106982D01*
X621949Y107334D01*
D02*
G37*
G36*
X29086Y173333D02*
X27315Y172980D01*
X25813Y171977D01*
X25813Y171977D01*
X13701Y159865D01*
X12697Y158363D01*
X12345Y156592D01*
X12345Y156592D01*
Y50038D01*
X12697Y48267D01*
X13701Y46765D01*
X15203Y45761D01*
X16974Y45409D01*
X18745Y45761D01*
X20247Y46765D01*
X21251Y48267D01*
X21603Y50038D01*
Y154675D01*
X32359Y165431D01*
X32359Y165431D01*
X33363Y166933D01*
X33715Y168704D01*
X33363Y170475D01*
X32359Y171977D01*
X30857Y172980D01*
X29086Y173333D01*
D02*
G37*
G36*
X615871Y60378D02*
X614100Y60025D01*
X612598Y59022D01*
X611595Y57520D01*
X611242Y55749D01*
X611595Y53977D01*
X612278Y52954D01*
Y39423D01*
X611595Y38399D01*
X611242Y36628D01*
X611595Y34857D01*
X612598Y33355D01*
X614100Y32351D01*
X615871Y31999D01*
X617643Y32351D01*
X619144Y33355D01*
X620148Y34857D01*
X620500Y36628D01*
X620148Y38399D01*
X619464Y39423D01*
Y52954D01*
X620148Y53977D01*
X620500Y55749D01*
X620148Y57520D01*
X619144Y59022D01*
X617643Y60025D01*
X615871Y60378D01*
D02*
G37*
G36*
X561944Y39377D02*
X558611Y39049D01*
X555407Y38077D01*
X552454Y36498D01*
X549865Y34374D01*
X547741Y31785D01*
X546162Y28832D01*
X545190Y25627D01*
X545139Y25111D01*
X524956D01*
X520478Y29589D01*
X520585Y30128D01*
X520233Y31899D01*
X519229Y33401D01*
X517727Y34405D01*
X515956Y34757D01*
X514185Y34405D01*
X512683Y33401D01*
X511679Y31899D01*
X511327Y30128D01*
X511679Y28357D01*
X512683Y26855D01*
X514185Y25851D01*
X515956Y25499D01*
X516495Y25606D01*
X521798Y20303D01*
X522712Y19693D01*
X523789Y19479D01*
X545139D01*
X545190Y18962D01*
X546162Y15758D01*
X547741Y12804D01*
X549865Y10216D01*
X552454Y8091D01*
X555407Y6513D01*
X558611Y5541D01*
X561944Y5213D01*
X565277Y5541D01*
X568481Y6513D01*
X571434Y8091D01*
X574023Y10216D01*
X576147Y12804D01*
X577726Y15758D01*
X578698Y18962D01*
X579026Y22295D01*
X578698Y25627D01*
X577726Y28832D01*
X576147Y31785D01*
X574023Y34374D01*
X571434Y36498D01*
X568481Y38077D01*
X565277Y39049D01*
X561944Y39377D01*
D02*
G37*
G36*
X457342Y28996D02*
X455570Y28644D01*
X454068Y27640D01*
X453065Y26139D01*
X452713Y24367D01*
X453065Y22596D01*
X454068Y21094D01*
X455570Y20091D01*
X457342Y19738D01*
X459113Y20091D01*
X460615Y21094D01*
X461618Y22596D01*
X461971Y24367D01*
X461618Y26139D01*
X460615Y27640D01*
X459113Y28644D01*
X457342Y28996D01*
D02*
G37*
%LPD*%
G36*
X629966Y452786D02*
Y336106D01*
X586223Y292363D01*
X584809Y292745D01*
X584007Y293946D01*
X582505Y294949D01*
X580734Y295301D01*
X578963Y294949D01*
X577461Y293946D01*
X576457Y292444D01*
X576105Y290672D01*
X576457Y288901D01*
X577461Y287399D01*
X577788Y287181D01*
Y283928D01*
X562837Y268977D01*
X551323D01*
X550830Y269306D01*
X549059Y269659D01*
X547288Y269306D01*
X546795Y268977D01*
X534051D01*
X533558Y269306D01*
X531787Y269659D01*
X530016Y269306D01*
X529523Y268977D01*
X411241D01*
Y303547D01*
X421383Y313688D01*
X518084D01*
X535563Y331167D01*
X536435Y330994D01*
X538206Y331346D01*
X539708Y332350D01*
X540711Y333851D01*
X541064Y335623D01*
X540890Y336494D01*
X561215Y356819D01*
X561215Y445300D01*
X572944Y457030D01*
X625722Y457030D01*
X629966Y452786D01*
D02*
G37*
G36*
X577788Y279385D02*
Y87500D01*
X567492Y77205D01*
X348019D01*
X347996Y77233D01*
X347682Y78808D01*
X346790Y80144D01*
X346171Y80558D01*
Y105716D01*
X345996Y106594D01*
X345499Y107337D01*
X338829Y114008D01*
X338829Y130558D01*
X338654Y131435D01*
X338157Y132179D01*
X331072Y139265D01*
Y149546D01*
X330897Y150423D01*
X330400Y151167D01*
X328264Y153303D01*
X328616Y154668D01*
X329955Y155563D01*
X330850Y156902D01*
X331164Y158482D01*
X330850Y160062D01*
X329955Y161401D01*
X328616Y162296D01*
X327036Y162610D01*
X325457Y162296D01*
X324117Y161401D01*
X323223Y160062D01*
X322908Y158482D01*
X323167Y157182D01*
X323140Y157123D01*
X322559Y156446D01*
X322176Y156183D01*
X321088Y156399D01*
X319509Y156085D01*
X318169Y155190D01*
X317274Y153851D01*
X316960Y152271D01*
X317274Y150691D01*
X318169Y149352D01*
X319509Y148457D01*
X321088Y148143D01*
X322668Y148457D01*
X324007Y149352D01*
X324093Y149481D01*
X325536Y149547D01*
X326487Y148596D01*
Y138315D01*
X326661Y137438D01*
X327158Y136694D01*
X334244Y129608D01*
X334244Y113058D01*
X334418Y112181D01*
X334915Y111437D01*
X341586Y104767D01*
Y80558D01*
X340967Y80144D01*
X340074Y78808D01*
X339761Y77233D01*
X340074Y75657D01*
X340967Y74321D01*
X342302Y73428D01*
X342818Y73326D01*
X342692Y72056D01*
X332364D01*
X332239Y73326D01*
X332754Y73428D01*
X334090Y74321D01*
X334982Y75657D01*
X335296Y77233D01*
X334982Y78808D01*
X334090Y80144D01*
X333471Y80558D01*
X333471Y103603D01*
X333296Y104480D01*
X332799Y105224D01*
X329136Y108888D01*
Y114239D01*
X328961Y115117D01*
X328464Y115860D01*
X313738Y130586D01*
X312994Y131083D01*
X312117Y131258D01*
X306873D01*
X295825Y142305D01*
X295082Y142802D01*
X294204Y142977D01*
X275299D01*
X274422Y142802D01*
X274203Y142656D01*
X273319Y142832D01*
X271740Y142518D01*
X271312Y143629D01*
X271242Y143983D01*
X270347Y145322D01*
X269008Y146217D01*
X267428Y146531D01*
X265849Y146217D01*
X264509Y145322D01*
X263615Y143983D01*
X263300Y142403D01*
X262145Y141700D01*
X261931Y141828D01*
X261931Y148362D01*
X262557Y148780D01*
X263452Y150119D01*
X263766Y151699D01*
X263452Y153279D01*
X262557Y154618D01*
X261218Y155513D01*
X259638Y155827D01*
X258058Y155513D01*
X256719Y154618D01*
X255825Y153279D01*
X255510Y151699D01*
X255825Y150119D01*
X256719Y148780D01*
X257346Y148362D01*
X257346Y140098D01*
X257520Y139221D01*
X258017Y138477D01*
X267757Y128737D01*
X268501Y128240D01*
X269378Y128066D01*
X271656Y128065D01*
X282239Y117482D01*
X282983Y116985D01*
X283860Y116811D01*
X294118Y116810D01*
X298773Y112156D01*
X298773Y105986D01*
X298947Y105109D01*
X299444Y104365D01*
X303486Y100323D01*
Y80558D01*
X302867Y80144D01*
X301974Y78808D01*
X301660Y77233D01*
X301974Y75657D01*
X302867Y74321D01*
X304202Y73428D01*
X304718Y73326D01*
X304592Y72056D01*
X294264D01*
X294139Y73326D01*
X294654Y73428D01*
X295990Y74321D01*
X296882Y75657D01*
X297196Y77233D01*
X296882Y78808D01*
X295990Y80144D01*
X295371Y80558D01*
X295371Y101481D01*
X295196Y102359D01*
X294699Y103102D01*
X288297Y109504D01*
X287554Y110001D01*
X286676Y110176D01*
X276906Y110176D01*
X266590Y120491D01*
X266509Y120546D01*
X266448Y120622D01*
X266139Y120793D01*
X265847Y120988D01*
X265750Y121007D01*
X265665Y121055D01*
X265315Y121094D01*
X264969Y121163D01*
X264873Y121144D01*
X264776Y121154D01*
X258564Y120628D01*
X258330Y120979D01*
X256991Y121874D01*
X255411Y122188D01*
X253832Y121874D01*
X252492Y120979D01*
X251705Y119801D01*
X250421Y119288D01*
X247249Y122461D01*
Y135135D01*
X248417Y136304D01*
X249251Y136138D01*
X250831Y136452D01*
X252170Y137347D01*
X253065Y138686D01*
X253379Y140266D01*
X253065Y141846D01*
X252170Y143185D01*
X250831Y144080D01*
X249251Y144394D01*
X247672Y144080D01*
X246332Y143185D01*
X245438Y141846D01*
X245123Y140266D01*
X245251Y139622D01*
X243335Y137706D01*
X242838Y136962D01*
X242664Y136085D01*
Y134527D01*
X241396Y134448D01*
X241014Y137523D01*
X241242Y137675D01*
X242137Y139014D01*
X242451Y140594D01*
X242137Y142174D01*
X241242Y143513D01*
X239903Y144408D01*
X238323Y144722D01*
X236744Y144408D01*
X235404Y143513D01*
X234510Y142174D01*
X234323Y141236D01*
X233251Y140229D01*
X232993Y140129D01*
X231605Y139853D01*
X230266Y138958D01*
X229371Y137619D01*
X229057Y136039D01*
X229371Y134459D01*
X230266Y133120D01*
X231605Y132225D01*
X233185Y131911D01*
X234765Y132225D01*
X235695Y132847D01*
X237030Y132395D01*
X238493Y120607D01*
X238590Y120314D01*
X238650Y120012D01*
X238729Y119893D01*
X238774Y119758D01*
X238976Y119524D01*
X239147Y119268D01*
X254934Y103481D01*
Y92149D01*
X253357Y90572D01*
X252860Y89828D01*
X252686Y88951D01*
Y80558D01*
X252067Y80144D01*
X251174Y78808D01*
X250861Y77233D01*
X250886Y77105D01*
X247479Y73698D01*
X246247Y73794D01*
X245621Y74966D01*
X246083Y75657D01*
X246396Y77233D01*
X246083Y78808D01*
X245190Y80144D01*
X243854Y81037D01*
X242278Y81350D01*
X240702Y81037D01*
X239367Y80144D01*
X238953Y79525D01*
X224711D01*
X210064Y94172D01*
Y141320D01*
X210362Y141765D01*
X210576Y142838D01*
X210362Y143911D01*
X209754Y144821D01*
X198666Y155910D01*
X199084Y157288D01*
X199581Y157387D01*
X201083Y158390D01*
X202086Y159892D01*
X202439Y161663D01*
X202328Y162217D01*
X206158Y166047D01*
X206286Y166021D01*
X207861Y166335D01*
X209197Y167227D01*
X209611Y167847D01*
X235349D01*
X236227Y168021D01*
X236970Y168518D01*
X246474Y178022D01*
X246971Y178766D01*
X247146Y179643D01*
Y195238D01*
X248311Y196255D01*
X248508Y196250D01*
X249848Y195355D01*
X251427Y195041D01*
X253007Y195355D01*
X254346Y196250D01*
X255241Y197589D01*
X255555Y199169D01*
X255241Y200749D01*
X254346Y202088D01*
X254141Y202225D01*
X254311Y203553D01*
X255650Y204448D01*
X256545Y205787D01*
X256859Y207367D01*
X256545Y208947D01*
X255650Y210286D01*
X254311Y211181D01*
X252731Y211495D01*
X251152Y211181D01*
X249812Y210286D01*
X248918Y208947D01*
X248603Y207367D01*
X248918Y205787D01*
X249812Y204448D01*
X250017Y204311D01*
X249848Y202983D01*
X248508Y202088D01*
X248090Y201462D01*
X246786D01*
X245909Y201287D01*
X245165Y200790D01*
X243232Y198857D01*
X242735Y198113D01*
X242561Y197236D01*
Y180593D01*
X234400Y172432D01*
X209611D01*
X209197Y173051D01*
X207861Y173944D01*
X206286Y174257D01*
X204710Y173944D01*
X203374Y173051D01*
X202481Y171715D01*
X202168Y170139D01*
X202193Y170012D01*
X198363Y166182D01*
X197810Y166292D01*
X197270Y166185D01*
X196190Y167265D01*
X196235Y167491D01*
X195883Y169263D01*
X194879Y170764D01*
X194410Y171078D01*
Y256235D01*
X195680Y256761D01*
X195767Y256674D01*
X196677Y256066D01*
X197750Y255852D01*
X232972D01*
X234045Y256066D01*
X234954Y256674D01*
X240608Y262327D01*
X284046D01*
X289389Y256984D01*
Y248401D01*
X289564Y247524D01*
X290061Y246780D01*
X296890Y239951D01*
X297634Y239454D01*
X298511Y239279D01*
X315249D01*
X315694Y238982D01*
X316767Y238768D01*
X317840Y238982D01*
X318750Y239590D01*
X338711Y259550D01*
X340466D01*
X340826Y258693D01*
X340915Y258280D01*
X340074Y257021D01*
X339761Y255446D01*
X340074Y253870D01*
X340967Y252534D01*
X341586Y252120D01*
X341586Y246339D01*
X341760Y245462D01*
X342257Y244718D01*
X342762Y244214D01*
Y213276D01*
X337102Y207616D01*
X336605Y206873D01*
X336431Y205995D01*
X336431Y193686D01*
X335723Y193156D01*
X334453Y193678D01*
Y206051D01*
X334444Y206095D01*
X334451Y206138D01*
X334357Y206532D01*
X334278Y206928D01*
X334254Y206965D01*
X334243Y207008D01*
X331460Y213066D01*
X332343Y214185D01*
X332494Y214155D01*
X334074Y214469D01*
X335413Y215364D01*
X336308Y216703D01*
X336622Y218283D01*
X336308Y219863D01*
X336128Y220132D01*
X336713Y221543D01*
X336780Y221556D01*
X338119Y222451D01*
X339014Y223790D01*
X339328Y225370D01*
X339014Y226950D01*
X338119Y228289D01*
X336780Y229184D01*
X335200Y229498D01*
X333620Y229184D01*
X333377Y229021D01*
X304152D01*
X303275Y228846D01*
X302531Y228349D01*
X296284Y222102D01*
X290324Y222102D01*
X282671Y229755D01*
X282671Y252120D01*
X283290Y252534D01*
X284182Y253870D01*
X284496Y255446D01*
X284182Y257021D01*
X283290Y258357D01*
X281954Y259250D01*
X280378Y259563D01*
X278802Y259250D01*
X277467Y258357D01*
X276574Y257021D01*
X276261Y255446D01*
X276574Y253870D01*
X277467Y252534D01*
X278086Y252120D01*
X278086Y228805D01*
X278260Y227928D01*
X278757Y227184D01*
X286737Y219204D01*
X286211Y217934D01*
X283364D01*
X269971Y231327D01*
Y252120D01*
X270590Y252534D01*
X271483Y253870D01*
X271796Y255446D01*
X271483Y257021D01*
X270590Y258357D01*
X269254Y259250D01*
X267678Y259563D01*
X266102Y259250D01*
X264767Y258357D01*
X263874Y257021D01*
X263561Y255446D01*
X263874Y253870D01*
X264767Y252534D01*
X265386Y252120D01*
Y230377D01*
X265560Y229500D01*
X266057Y228756D01*
X280793Y214020D01*
X281537Y213523D01*
X282414Y213349D01*
X297663D01*
X298541Y213523D01*
X299284Y214020D01*
X305511Y220246D01*
X321464Y220247D01*
X322062Y219126D01*
X321979Y219001D01*
X321664Y217421D01*
X321979Y215841D01*
X322873Y214502D01*
X323405Y214147D01*
X323471Y213764D01*
X323307Y212685D01*
X322283Y212001D01*
X321389Y210662D01*
X321074Y209082D01*
X321389Y207502D01*
X322283Y206163D01*
X323623Y205268D01*
X325202Y204954D01*
X326782Y205268D01*
X328121Y206163D01*
X328266Y206380D01*
X329532Y206280D01*
X329868Y205550D01*
Y181721D01*
X330042Y180844D01*
X330539Y180100D01*
X333539Y177100D01*
X334283Y176603D01*
X335160Y176429D01*
X367814Y176429D01*
X370158Y174084D01*
X370902Y173587D01*
X371779Y173412D01*
X380549Y173412D01*
X384987Y168974D01*
Y156631D01*
X380729Y152373D01*
X379990Y152520D01*
X378410Y152206D01*
X377071Y151311D01*
X376176Y149972D01*
X375862Y148392D01*
X376176Y146812D01*
X377071Y145473D01*
X378410Y144578D01*
X379990Y144264D01*
X381570Y144578D01*
X382909Y145473D01*
X383804Y146812D01*
X384118Y148392D01*
X383971Y149131D01*
X388900Y154060D01*
X389397Y154804D01*
X389572Y155681D01*
Y169924D01*
X389397Y170801D01*
X388900Y171545D01*
X383119Y177326D01*
X382376Y177823D01*
X381498Y177998D01*
X372729Y177998D01*
X370384Y180342D01*
X369641Y180839D01*
X368763Y181014D01*
X336110Y181014D01*
X334453Y182671D01*
Y186770D01*
X335723Y187155D01*
X335804Y187033D01*
X337144Y186138D01*
X338723Y185824D01*
X340303Y186138D01*
X341642Y187033D01*
X342537Y188372D01*
X342851Y189952D01*
X342537Y191532D01*
X341642Y192871D01*
X341016Y193289D01*
X341016Y205046D01*
X346675Y210705D01*
X347172Y211449D01*
X347347Y212326D01*
Y245163D01*
X347172Y246040D01*
X346675Y246784D01*
X346171Y247289D01*
X346171Y252120D01*
X346790Y252534D01*
X347682Y253870D01*
X347996Y255446D01*
X347756Y256652D01*
X348914Y257290D01*
X351986Y254219D01*
X352895Y253611D01*
X353968Y253397D01*
X355041Y253611D01*
X355487Y253909D01*
X474002D01*
X474416Y253290D01*
X475752Y252397D01*
X477328Y252083D01*
X478904Y252397D01*
X480239Y253290D01*
X481132Y254625D01*
X481446Y256201D01*
X481132Y257777D01*
X480239Y259113D01*
X479316Y259730D01*
X479701Y261000D01*
X514471D01*
X537895Y237576D01*
Y101516D01*
X523443Y87063D01*
X523330Y87086D01*
X521754Y86772D01*
X520418Y85880D01*
X519526Y84544D01*
X519212Y82968D01*
X519526Y81392D01*
X520418Y80056D01*
X521754Y79164D01*
X523330Y78850D01*
X524906Y79164D01*
X526242Y80056D01*
X527134Y81392D01*
X527448Y82968D01*
X527425Y83081D01*
X542703Y98358D01*
X543313Y99272D01*
X543527Y100349D01*
Y238742D01*
X543313Y239820D01*
X542703Y240733D01*
X517768Y265668D01*
X517857Y266242D01*
X518223Y266938D01*
X529523D01*
X529720Y266977D01*
X529921D01*
X530106Y267054D01*
X530303Y267093D01*
X530470Y267205D01*
X530656Y267282D01*
X530811Y267386D01*
X531787Y267580D01*
X532763Y267386D01*
X532918Y267282D01*
X533104Y267205D01*
X533271Y267093D01*
X533468Y267054D01*
X533653Y266977D01*
X533854D01*
X534051Y266938D01*
X546795D01*
X546992Y266977D01*
X547193D01*
X547378Y267054D01*
X547575Y267093D01*
X547742Y267205D01*
X547928Y267282D01*
X548083Y267386D01*
X549059Y267580D01*
X550035Y267386D01*
X550190Y267282D01*
X550376Y267205D01*
X550543Y267093D01*
X550740Y267054D01*
X550925Y266977D01*
X551126D01*
X551323Y266938D01*
X562837D01*
X562837Y266938D01*
X563618Y267093D01*
X564279Y267535D01*
X564279Y267535D01*
X576615Y279871D01*
X577788Y279385D01*
D02*
G37*
G36*
X148346Y241479D02*
Y171557D01*
X147076Y171171D01*
X146873Y171475D01*
X145371Y172479D01*
X143600Y172831D01*
X141829Y172479D01*
X140327Y171475D01*
X139323Y169974D01*
X138971Y168202D01*
X139323Y166431D01*
X139545Y166099D01*
X138629Y165184D01*
X137497Y165940D01*
X135726Y166292D01*
X134706Y166089D01*
X133368Y166874D01*
X133287Y167003D01*
X133225Y167421D01*
X137985Y172181D01*
X138596Y173095D01*
X138810Y174172D01*
Y242605D01*
X139267Y242911D01*
X140271Y244413D01*
X140623Y246184D01*
X140320Y247709D01*
X141054Y248314D01*
X141367Y248458D01*
X148346Y241479D01*
D02*
G37*
G36*
X162640Y123245D02*
Y33801D01*
X161370Y33275D01*
X148436Y46209D01*
Y101538D01*
X149706Y101923D01*
X150169Y101229D01*
X152091Y99945D01*
X154358Y99494D01*
X156625Y99945D01*
X158547Y101229D01*
X159831Y103151D01*
X160282Y105418D01*
X159831Y107685D01*
X158547Y109607D01*
X156625Y110891D01*
X154358Y111342D01*
X152091Y110891D01*
X150169Y109607D01*
X149706Y108913D01*
X148436Y109298D01*
Y135653D01*
X149412Y136179D01*
X149668Y136217D01*
X162640Y123245D01*
D02*
G37*
G36*
X304302Y127344D02*
X305046Y126847D01*
X305923Y126672D01*
X311168D01*
X324551Y113289D01*
Y107938D01*
X324725Y107061D01*
X325222Y106317D01*
X328886Y102653D01*
X328886Y80558D01*
X328267Y80144D01*
X327374Y78808D01*
X327061Y77233D01*
X327374Y75657D01*
X328267Y74321D01*
X329603Y73428D01*
X330118Y73326D01*
X329992Y72056D01*
X319664D01*
X319539Y73326D01*
X320054Y73428D01*
X321390Y74321D01*
X322282Y75657D01*
X322596Y77233D01*
X322282Y78808D01*
X321390Y80144D01*
X320771Y80558D01*
X320771Y110134D01*
X320596Y111011D01*
X320099Y111755D01*
X313845Y118009D01*
X313102Y118506D01*
X312224Y118681D01*
X304050D01*
X298556Y124174D01*
X297813Y124671D01*
X296935Y124846D01*
X287308Y124846D01*
X276887Y135266D01*
X276694Y135395D01*
X276238Y135785D01*
X277133Y137124D01*
X277385Y138392D01*
X293255D01*
X304302Y127344D01*
D02*
G37*
G36*
X316186Y109185D02*
X316186Y80558D01*
X315567Y80144D01*
X314674Y78808D01*
X314361Y77233D01*
X314674Y75657D01*
X315567Y74321D01*
X316902Y73428D01*
X317418Y73326D01*
X317292Y72056D01*
X306964D01*
X306839Y73326D01*
X307354Y73428D01*
X308690Y74321D01*
X309583Y75657D01*
X309896Y77233D01*
X309583Y78808D01*
X308690Y80144D01*
X308071Y80558D01*
Y101273D01*
X307896Y102150D01*
X307399Y102894D01*
X303358Y106936D01*
X303358Y113105D01*
X304456Y114095D01*
X311275D01*
X316186Y109185D01*
D02*
G37*
G36*
X206860Y52113D02*
X206374Y50940D01*
X201532D01*
Y31640D01*
X220832D01*
Y50940D01*
X215153D01*
X214983Y51096D01*
X214902Y51475D01*
X215814Y52588D01*
X297519D01*
X304235Y45872D01*
X303380Y43809D01*
X303049Y41290D01*
X303380Y38771D01*
X304353Y36423D01*
X305900Y34408D01*
X307915Y32861D01*
X310263Y31888D01*
X312782Y31557D01*
X315301Y31888D01*
X317649Y32861D01*
X319664Y34408D01*
X321211Y36423D01*
X322184Y38771D01*
X322515Y41290D01*
X322184Y43809D01*
X321211Y46157D01*
X319664Y48172D01*
X317649Y49719D01*
X315301Y50692D01*
X312782Y51023D01*
X310263Y50692D01*
X308200Y49837D01*
X302613Y55425D01*
X303099Y56598D01*
X318909D01*
X329635Y45872D01*
X328780Y43809D01*
X328449Y41290D01*
X328780Y38771D01*
X329753Y36423D01*
X331300Y34408D01*
X333315Y32861D01*
X335663Y31888D01*
X338182Y31557D01*
X340701Y31888D01*
X343049Y32861D01*
X345065Y34408D01*
X346611Y36423D01*
X347584Y38771D01*
X347915Y41290D01*
X347584Y43809D01*
X346611Y46157D01*
X345065Y48172D01*
X343049Y49719D01*
X340701Y50692D01*
X338182Y51023D01*
X335663Y50692D01*
X333600Y49837D01*
X322053Y61384D01*
X321143Y61992D01*
X320070Y62206D01*
X268727D01*
X268241Y63379D01*
X271310Y66448D01*
X276791D01*
X277105Y65979D01*
X278607Y64975D01*
X280378Y64623D01*
X282150Y64975D01*
X283651Y65979D01*
X283965Y66448D01*
X382846D01*
X386047Y63247D01*
X385937Y62694D01*
X386289Y60922D01*
X387293Y59420D01*
X388794Y58417D01*
X390566Y58065D01*
X391119Y58175D01*
X397773Y51521D01*
X398682Y50914D01*
X399755Y50700D01*
X403147D01*
X403199Y50171D01*
X404171Y46967D01*
X405750Y44014D01*
X407874Y41425D01*
X410463Y39301D01*
X413416Y37722D01*
X416621Y36750D01*
X419399Y36476D01*
X419651Y36114D01*
X419954Y35197D01*
X419954Y35195D01*
X419115Y33939D01*
X418762Y32168D01*
X419115Y30397D01*
X420118Y28895D01*
X419718Y27634D01*
X415372Y23288D01*
X406322D01*
X405937Y24558D01*
X406747Y25099D01*
X407750Y26601D01*
X408102Y28372D01*
X407750Y30143D01*
X406747Y31645D01*
X405245Y32649D01*
X403473Y33001D01*
X401702Y32649D01*
X400200Y31645D01*
X399197Y30143D01*
X398844Y28372D01*
X399197Y26601D01*
X400200Y25099D01*
X401010Y24558D01*
X400625Y23288D01*
X248082D01*
X248034Y24538D01*
X249107Y24752D01*
X250017Y25359D01*
X257400Y32743D01*
X259463Y31888D01*
X261982Y31557D01*
X264501Y31888D01*
X266849Y32861D01*
X268864Y34408D01*
X270411Y36423D01*
X271384Y38771D01*
X271715Y41290D01*
X271384Y43809D01*
X270411Y46157D01*
X268864Y48172D01*
X266849Y49719D01*
X264501Y50692D01*
X261982Y51023D01*
X259463Y50692D01*
X257115Y49719D01*
X255100Y48172D01*
X253553Y46157D01*
X252580Y43809D01*
X252249Y41290D01*
X252580Y38771D01*
X253435Y36708D01*
X246873Y30146D01*
X179813D01*
X173836Y36123D01*
Y38277D01*
X174528Y38622D01*
X175106Y38765D01*
X176483Y37845D01*
X178254Y37493D01*
X180026Y37845D01*
X181528Y38849D01*
X182531Y40350D01*
X182883Y42122D01*
X182531Y43893D01*
X181528Y45395D01*
X180026Y46398D01*
X178254Y46751D01*
X176483Y46398D01*
X175106Y45478D01*
X174528Y45621D01*
X173836Y45967D01*
Y83342D01*
X175106Y83868D01*
X206860Y52113D01*
D02*
G37*
%LPC*%
G36*
X554215Y340252D02*
X552443Y339899D01*
X550942Y338896D01*
X549938Y337394D01*
X549586Y335623D01*
X549938Y333851D01*
X550942Y332350D01*
X552443Y331346D01*
X554215Y330994D01*
X555986Y331346D01*
X557488Y332350D01*
X558491Y333851D01*
X558844Y335623D01*
X558491Y337394D01*
X557488Y338896D01*
X555986Y339899D01*
X554215Y340252D01*
D02*
G37*
G36*
X254978Y259563D02*
X253403Y259250D01*
X252067Y258357D01*
X251174Y257021D01*
X250861Y255446D01*
X251174Y253870D01*
X252067Y252534D01*
X253403Y251641D01*
X254978Y251328D01*
X256554Y251641D01*
X257890Y252534D01*
X258783Y253870D01*
X259096Y255446D01*
X258783Y257021D01*
X257890Y258357D01*
X256554Y259250D01*
X254978Y259563D01*
D02*
G37*
G36*
X236892Y230770D02*
X235312Y230456D01*
X233973Y229561D01*
X233078Y228222D01*
X233004Y227847D01*
X228389Y223232D01*
X209611D01*
X209197Y223851D01*
X207862Y224743D01*
X206286Y225057D01*
X204710Y224743D01*
X203374Y223851D01*
X202481Y222515D01*
X202168Y220939D01*
X202481Y219363D01*
X203374Y218027D01*
X204710Y217135D01*
X206286Y216821D01*
X207862Y217135D01*
X209197Y218027D01*
X209611Y218647D01*
X229338D01*
X230216Y218821D01*
X230959Y219318D01*
X234807Y223166D01*
X235312Y222828D01*
X236892Y222514D01*
X238472Y222828D01*
X239811Y223723D01*
X240706Y225062D01*
X241020Y226642D01*
X240706Y228222D01*
X239811Y229561D01*
X238472Y230456D01*
X236892Y230770D01*
D02*
G37*
G36*
X418237Y216110D02*
X416658Y215796D01*
X415318Y214901D01*
X415260Y214813D01*
X414000D01*
X412661Y215708D01*
X411081Y216022D01*
X409501Y215708D01*
X408162Y214813D01*
X407267Y213474D01*
X406953Y211894D01*
X407267Y210314D01*
X408162Y208975D01*
X409501Y208080D01*
X411081Y207766D01*
X412661Y208080D01*
X414000Y208975D01*
X414059Y209063D01*
X415318D01*
X416658Y208168D01*
X418237Y207854D01*
X419817Y208168D01*
X421156Y209063D01*
X421185Y209106D01*
X421671Y209079D01*
X422023Y207786D01*
X421440Y207397D01*
X420546Y206058D01*
X420231Y204478D01*
X420546Y202898D01*
X421440Y201559D01*
X422780Y200664D01*
X424359Y200350D01*
X424797Y200437D01*
X426790Y198445D01*
Y156735D01*
X413796Y143742D01*
X413244Y142915D01*
X413050Y141940D01*
Y128628D01*
X403216Y118795D01*
X402778Y118882D01*
X401199Y118568D01*
X399859Y117673D01*
X398965Y116334D01*
X398650Y114754D01*
X398965Y113174D01*
X399859Y111835D01*
X401199Y110940D01*
X402778Y110626D01*
X404358Y110940D01*
X405697Y111835D01*
X406592Y113174D01*
X406906Y114754D01*
X406819Y115192D01*
X417399Y125772D01*
X417951Y126598D01*
X418145Y127573D01*
X418145Y127573D01*
Y134037D01*
X419415Y134422D01*
X419497Y134298D01*
X420836Y133403D01*
X422416Y133089D01*
X423996Y133403D01*
X425335Y134298D01*
X426230Y135637D01*
X426544Y137217D01*
X426230Y138797D01*
X425335Y140136D01*
X423996Y141031D01*
X422416Y141345D01*
X420836Y141031D01*
X420311Y140680D01*
X418862Y141239D01*
X418789Y141529D01*
X430463Y153203D01*
X431733Y152677D01*
Y132353D01*
X427682Y128303D01*
X427244Y128390D01*
X425665Y128076D01*
X424325Y127181D01*
X423430Y125842D01*
X423116Y124262D01*
X423430Y122682D01*
X424325Y121343D01*
X425665Y120448D01*
X427244Y120134D01*
X428824Y120448D01*
X430163Y121343D01*
X431058Y122682D01*
X431372Y124262D01*
X431285Y124700D01*
X436082Y129497D01*
X436082Y129497D01*
X436634Y130323D01*
X436828Y131298D01*
X436828Y131298D01*
X436828Y203185D01*
X436828Y203185D01*
X436634Y204160D01*
X436082Y204986D01*
X436082Y204986D01*
X427285Y213783D01*
X426458Y214336D01*
X425483Y214530D01*
X421404D01*
X421156Y214901D01*
X419817Y215796D01*
X418237Y216110D01*
D02*
G37*
G36*
X202528Y203925D02*
X200757Y203573D01*
X199255Y202570D01*
X198252Y201068D01*
X197899Y199297D01*
X198252Y197525D01*
X199255Y196023D01*
X200757Y195020D01*
X202528Y194668D01*
X204300Y195020D01*
X205801Y196023D01*
X206805Y197525D01*
X207157Y199297D01*
X206805Y201068D01*
X205801Y202570D01*
X204300Y203573D01*
X202528Y203925D01*
D02*
G37*
G36*
X201942Y191812D02*
X200171Y191459D01*
X198669Y190456D01*
X197666Y188954D01*
X197313Y187183D01*
X197666Y185411D01*
X198669Y183909D01*
X200171Y182906D01*
X201942Y182554D01*
X203714Y182906D01*
X205215Y183909D01*
X206219Y185411D01*
X206571Y187183D01*
X206219Y188954D01*
X205215Y190456D01*
X203714Y191459D01*
X201942Y191812D01*
D02*
G37*
G36*
X389124Y190264D02*
X387545Y189950D01*
X386205Y189055D01*
X385311Y187716D01*
X384996Y186136D01*
X385311Y184556D01*
X386205Y183217D01*
X387545Y182322D01*
X389124Y182008D01*
X390704Y182322D01*
X392043Y183217D01*
X392938Y184556D01*
X393252Y186136D01*
X392938Y187716D01*
X392043Y189055D01*
X390704Y189950D01*
X389124Y190264D01*
D02*
G37*
G36*
X326963Y175911D02*
X325384Y175597D01*
X324044Y174702D01*
X323149Y173363D01*
X322835Y171783D01*
X323149Y170203D01*
X324044Y168864D01*
X325384Y167969D01*
X326963Y167655D01*
X328543Y167969D01*
X329882Y168864D01*
X330777Y170203D01*
X331091Y171783D01*
X330777Y173363D01*
X329882Y174702D01*
X328543Y175597D01*
X326963Y175911D01*
D02*
G37*
G36*
X406633Y149419D02*
X405053Y149105D01*
X403714Y148210D01*
X402820Y146871D01*
X402505Y145291D01*
X402820Y143711D01*
X403714Y142372D01*
X405053Y141477D01*
X406633Y141163D01*
X408213Y141477D01*
X409552Y142372D01*
X410447Y143711D01*
X410761Y145291D01*
X410447Y146871D01*
X409552Y148210D01*
X408213Y149105D01*
X406633Y149419D01*
D02*
G37*
G36*
X318759Y143597D02*
X317180Y143283D01*
X315840Y142388D01*
X314946Y141049D01*
X314631Y139469D01*
X314946Y137889D01*
X315840Y136550D01*
X317180Y135655D01*
X318759Y135341D01*
X320339Y135655D01*
X321678Y136550D01*
X322573Y137889D01*
X322887Y139469D01*
X322573Y141049D01*
X321678Y142388D01*
X320339Y143283D01*
X318759Y143597D01*
D02*
G37*
G36*
X395911Y212584D02*
X394332Y212270D01*
X392992Y211375D01*
X392098Y210036D01*
X391783Y208456D01*
X392098Y206876D01*
X392992Y205537D01*
X393111Y205458D01*
X393035Y204528D01*
X393047Y204424D01*
X393027Y204321D01*
Y198157D01*
X393221Y197182D01*
X393773Y196356D01*
X397216Y192913D01*
Y156987D01*
X391595Y151367D01*
X391043Y150540D01*
X390849Y149565D01*
Y137633D01*
X388194Y134979D01*
X388031Y135011D01*
X386452Y134697D01*
X385112Y133802D01*
X384217Y132463D01*
X383903Y130883D01*
X384217Y129303D01*
X385112Y127964D01*
X386452Y127069D01*
X388031Y126755D01*
X389611Y127069D01*
X390950Y127964D01*
X391845Y129303D01*
X392159Y130883D01*
X392017Y131596D01*
X395198Y134777D01*
X395750Y135603D01*
X395944Y136578D01*
Y148510D01*
X401564Y154131D01*
X401565Y154131D01*
X402117Y154957D01*
X402311Y155932D01*
Y193968D01*
X402311Y193968D01*
X402117Y194943D01*
X401565Y195770D01*
X401564Y195770D01*
X398122Y199212D01*
Y204217D01*
X398195Y205113D01*
X398830Y205537D01*
X399725Y206876D01*
X400039Y208456D01*
X399725Y210036D01*
X398830Y211375D01*
X397491Y212270D01*
X395911Y212584D01*
D02*
G37*
G36*
X255907Y134475D02*
X254328Y134161D01*
X252988Y133266D01*
X252094Y131927D01*
X251779Y130347D01*
X252094Y128767D01*
X252988Y127428D01*
X254328Y126533D01*
X255907Y126219D01*
X257487Y126533D01*
X258826Y127428D01*
X259721Y128767D01*
X260035Y130347D01*
X259721Y131927D01*
X258826Y133266D01*
X257487Y134161D01*
X255907Y134475D01*
D02*
G37*
G36*
X377504Y54147D02*
X375732Y53795D01*
X374230Y52791D01*
X373227Y51290D01*
X372875Y49518D01*
X373227Y47747D01*
X374230Y46245D01*
X375732Y45242D01*
X377504Y44889D01*
X379275Y45242D01*
X380777Y46245D01*
X381780Y47747D01*
X382132Y49518D01*
X381780Y51290D01*
X380777Y52791D01*
X379275Y53795D01*
X377504Y54147D01*
D02*
G37*
G36*
X364590Y54057D02*
X362818Y53705D01*
X361316Y52702D01*
X360313Y51200D01*
X359961Y49429D01*
X360313Y47657D01*
X361316Y46155D01*
X362818Y45152D01*
X364590Y44799D01*
X366361Y45152D01*
X367863Y46155D01*
X368866Y47657D01*
X369218Y49429D01*
X368866Y51200D01*
X367863Y52702D01*
X366361Y53705D01*
X364590Y54057D01*
D02*
G37*
%LPD*%
D10*
X204146Y481795D02*
X205891Y480050D01*
X184066Y481795D02*
X204146D01*
X716000Y512123D02*
G03*
X777123Y451000I61123J0D01*
G01*
X0Y23877D02*
G03*
X-61123Y85000I-61123J-0D01*
G01*
X-85000Y536000D02*
X716000D01*
X0Y0D02*
X801000D01*
X-85000Y85000D02*
X-61123D01*
X777123Y451000D02*
X801000D01*
X801000Y0D02*
Y451000D01*
X-85000Y85000D02*
Y536000D01*
X0Y0D02*
Y23877D01*
X716000Y512123D02*
Y536000D01*
D16*
X388031Y131213D02*
X393396Y136578D01*
X388031Y130883D02*
Y131213D01*
X393396Y136578D02*
Y149565D01*
X395574Y204321D02*
X395911Y208456D01*
X395574Y198157D02*
Y204321D01*
Y198157D02*
X399763Y193968D01*
Y155932D02*
Y193968D01*
X393396Y149565D02*
X399763Y155932D01*
X427244Y124262D02*
X434280Y131298D01*
X434280Y203185D02*
X434280Y131298D01*
X425483Y211982D02*
X434280Y203185D01*
X418237Y211982D02*
X425483D01*
X424359Y204478D02*
X429337Y199500D01*
Y155680D02*
Y199500D01*
X415597Y141940D02*
X429337Y155680D01*
X415597Y127573D02*
Y141940D01*
X402778Y114754D02*
X415597Y127573D01*
D17*
X621949Y80776D02*
Y102705D01*
X598759Y57586D02*
X621949Y80776D01*
X523330Y57586D02*
X598759D01*
X305778Y257360D02*
X316807Y268388D01*
X351468D01*
X356040Y263816D01*
X515638D01*
X540711Y238742D01*
Y100349D02*
Y238742D01*
X298540Y252603D02*
Y304710D01*
X523330Y82968D02*
X540711Y100349D01*
X425286Y9308D02*
X439969Y23991D01*
Y31406D01*
X172302Y9308D02*
X425286D01*
X523789Y22295D02*
X561944D01*
X515956Y30128D02*
X523789Y22295D01*
X129578Y167756D02*
X135994Y174172D01*
Y246184D01*
X129578Y144652D02*
X138774Y135456D01*
X129578Y144652D02*
Y167756D01*
X138774Y80174D02*
Y135456D01*
X108972Y97878D02*
Y103692D01*
X138774Y42836D02*
Y80174D01*
Y42836D02*
X172302Y9308D01*
X286774Y316476D02*
X298540Y304710D01*
Y252603D02*
X302059Y249084D01*
X312117D02*
X318478Y255446D01*
X302059Y249084D02*
X312117D01*
X286774Y316476D02*
Y339314D01*
X274300Y351788D02*
X286774Y339314D01*
X-37676Y417660D02*
Y428582D01*
Y417660D02*
X-9228Y389212D01*
X70444D01*
X81370Y378286D01*
Y335872D02*
Y378286D01*
D20*
X353968Y256201D02*
X477328D01*
X337549Y262354D02*
X347815D01*
X353968Y256201D01*
X580592Y86339D02*
Y290530D01*
X580734Y290672D01*
X179226Y277180D02*
X197750Y258656D01*
X232972D02*
X239447Y265131D01*
X285207D02*
X291682Y258656D01*
X197750D02*
X232972D01*
X239447Y265131D02*
X285207D01*
X316767Y241572D02*
X337549Y262354D01*
X298511Y241572D02*
X316767D01*
X291682Y248401D02*
Y258656D01*
Y248401D02*
X298511Y241572D01*
X179226Y277180D02*
Y286262D01*
X191606Y167491D02*
Y257676D01*
X157824Y291458D02*
Y373290D01*
Y291458D02*
X191606Y257676D01*
X185782Y157225D02*
Y257435D01*
X152236Y290981D02*
Y335872D01*
Y290981D02*
X185782Y257435D01*
X423391Y27342D02*
Y32168D01*
X416533Y20484D02*
X423391Y27342D01*
X431683Y25711D02*
Y30128D01*
X420614Y14642D02*
X431683Y25711D01*
X176038Y14642D02*
X420614D01*
X178070Y20484D02*
X416533D01*
X146140Y376846D02*
Y468032D01*
X138600Y475572D02*
X146140Y468032D01*
X134790Y275166D02*
Y365496D01*
X146140Y376846D01*
X180684Y478413D02*
X184066Y481795D01*
X180684Y402910D02*
Y478413D01*
X140134Y362360D02*
X180684Y402910D01*
X140134Y278370D02*
Y362360D01*
X190480Y460476D02*
X258183D01*
X185066Y455062D02*
X190480Y460476D01*
X185066Y400532D02*
Y455062D01*
X157824Y373290D02*
X185066Y400532D01*
X568654Y74401D02*
X580592Y86339D01*
X346710Y74401D02*
X568654D01*
X343878Y77233D02*
X346710Y74401D01*
X399755Y53504D02*
X419953D01*
X390566Y62694D02*
X399755Y53504D01*
X384007Y69252D02*
X390566Y62694D01*
X280378Y69252D02*
X384007D01*
X343878Y77233D02*
Y105716D01*
X128065Y273709D02*
X157824Y243950D01*
X128065Y273709D02*
Y304554D01*
X120932Y272858D02*
Y311742D01*
Y272858D02*
X151150Y242640D01*
Y146009D02*
Y242640D01*
X157824Y146493D02*
Y243950D01*
X134790Y275166D02*
X163492Y246464D01*
Y179643D02*
Y246464D01*
X140134Y278370D02*
X169508Y248996D01*
Y173507D02*
Y248996D01*
X143600Y146250D02*
Y168202D01*
X135726Y145941D02*
Y161663D01*
Y145941D02*
X145632Y136034D01*
X143600Y146250D02*
X165444Y124406D01*
X175096Y152153D02*
Y251878D01*
X158203Y268771D02*
X175096Y251878D01*
X244956Y136085D02*
X249388Y140517D01*
X257536Y67115D02*
X267666Y77245D01*
X146150Y290476D02*
Y318680D01*
Y290476D02*
X180684Y255942D01*
X163492Y148057D02*
Y179643D01*
X169508Y149132D02*
Y173507D01*
X163492Y148057D02*
X181984Y129565D01*
X157824Y146493D02*
X175858Y128459D01*
X151150Y146009D02*
X171032Y126127D01*
X191606Y159004D02*
Y167491D01*
Y159004D02*
X207772Y142838D01*
X165444Y33110D02*
Y124406D01*
X171032Y34962D02*
Y126127D01*
X181984Y87764D02*
Y129565D01*
X187288Y88556D02*
Y131352D01*
X169508Y149132D02*
X187288Y131352D01*
X193254Y88834D02*
Y133994D01*
X175096Y152153D02*
X193254Y133994D01*
X180684Y154132D02*
X198100Y136716D01*
X180684Y154132D02*
Y255942D01*
X185782Y157225D02*
X202782Y140225D01*
X207772Y93222D02*
Y142838D01*
X197810Y161663D02*
X206286Y170139D01*
X108972Y103692D02*
Y142403D01*
X108972Y103692D02*
X108972Y103692D01*
X145632Y45048D02*
Y136034D01*
Y45048D02*
X176038Y14642D01*
X165444Y33110D02*
X178070Y20484D01*
X171032Y34962D02*
X178652Y27342D01*
X175858Y87081D02*
Y128459D01*
X211182Y41290D02*
Y51757D01*
X175858Y87081D02*
X211182Y51757D01*
X248034Y27342D02*
X261982Y41290D01*
X178652Y27342D02*
X248034D01*
X181984Y87764D02*
X214356Y55392D01*
X298680D02*
X312782Y41290D01*
X214356Y55392D02*
X298680D01*
X187288Y88556D02*
X216442Y59402D01*
X320070D02*
X338182Y41290D01*
X216442Y59402D02*
X320070D01*
X193254Y88834D02*
X218817Y63272D01*
X264168D01*
X270149Y69252D02*
X280378D01*
X264168Y63272D02*
X270149Y69252D01*
X198100Y89936D02*
Y136716D01*
Y89936D02*
X220921Y67115D01*
X257536D01*
X267666Y77245D02*
X267672Y77239D01*
X202782Y90558D02*
Y140225D01*
Y90558D02*
X222449Y70892D01*
X248638D02*
X254978Y77233D01*
X222449Y70892D02*
X248638D01*
X207772Y93222D02*
X223761Y77233D01*
X242278D01*
X186689Y279104D02*
X236437D01*
X200180Y286262D02*
X223500D01*
X193687Y292772D02*
X275132D01*
Y325556D01*
X274300Y326388D02*
X275132Y325556D01*
X249082Y351971D02*
Y384829D01*
X248900Y351788D02*
X249082Y351971D01*
X246786Y199169D02*
X251427D01*
X244853Y197236D02*
X246786Y199169D01*
X244853Y179643D02*
Y197236D01*
X235349Y170139D02*
X244853Y179643D01*
X206286Y170139D02*
X235349D01*
X293078Y77233D02*
X293078Y77233D01*
X318478D02*
X318478Y77233D01*
X343878Y255446D02*
X343878Y246339D01*
X280378Y255446D02*
X280378Y228805D01*
X267678Y230377D02*
Y255446D01*
X207772Y220939D02*
X229338D01*
X267678Y230377D02*
X282414Y215641D01*
X297663D01*
X304561Y222539D01*
X328238Y222539D01*
X332494Y218283D01*
X343878Y246339D02*
X345054Y245163D01*
Y212326D02*
Y245163D01*
X338723Y205995D02*
X345054Y212326D01*
X338723Y205995D02*
X338723Y189952D01*
X280378Y228805D02*
X289374Y219809D01*
X297233Y219809D01*
X304152Y226728D01*
X333842D01*
X335200Y225370D01*
X325792Y217421D02*
X326935Y217421D01*
X332160Y206051D01*
Y181721D02*
Y206051D01*
Y181721D02*
X335160Y178721D01*
X368763Y178721D01*
X371779Y175705D01*
X381498Y175705D01*
X387279Y169924D01*
Y155681D02*
Y169924D01*
X379990Y148392D02*
X387279Y155681D01*
X236026Y227627D02*
X236892Y226642D01*
X229338Y220939D02*
X236026Y227627D01*
X321088Y152271D02*
X325088D01*
X325099Y152282D01*
X325204D01*
X325332Y152154D01*
X325501D01*
X325523Y152132D01*
X326193D01*
X328779Y149546D01*
Y138315D02*
Y149546D01*
Y138315D02*
X336536Y130558D01*
X336536Y113058D02*
X336536Y130558D01*
X336536Y113058D02*
X343878Y105716D01*
X254978Y77233D02*
Y88951D01*
X257226Y91199D01*
Y104431D01*
X240768Y120889D02*
X257226Y104431D01*
X238323Y140594D02*
X240768Y120889D01*
X267666Y77245D02*
Y98801D01*
X244956Y121511D02*
X267666Y98801D01*
X244956Y121511D02*
Y136085D01*
X249251Y140266D02*
X249388Y140517D01*
X255411Y118060D02*
X264969Y118870D01*
X275956Y107883D01*
X286676Y107883D01*
X293078Y101481D01*
X293078Y77233D02*
X293078Y101481D01*
X259638Y151699D02*
X259638Y140098D01*
X269378Y130358D01*
X272605Y130358D01*
X283860Y119103D01*
X295067Y119103D01*
X301065Y113105D01*
X301065Y105986D02*
X301065Y113105D01*
X301065Y105986D02*
X305778Y101273D01*
Y77233D02*
Y101273D01*
X318478Y77233D02*
X318478Y110134D01*
X312224Y116388D02*
X318478Y110134D01*
X303100Y116388D02*
X312224D01*
X296935Y122553D02*
X303100Y116388D01*
X286358Y122553D02*
X296935Y122553D01*
X275266Y133645D02*
X286358Y122553D01*
X270615Y133645D02*
X275266Y133645D01*
X267428Y136832D02*
X270615Y133645D01*
X267428Y136832D02*
Y142403D01*
X331178Y103603D02*
X331178Y77233D01*
X326843Y107938D02*
X331178Y103603D01*
X326843Y107938D02*
Y114239D01*
X312117Y128965D02*
X326843Y114239D01*
X305923Y128965D02*
X312117D01*
X294204Y140684D02*
X305923Y128965D01*
X275299Y140684D02*
X294204D01*
X273319Y138704D02*
X275299Y140684D01*
D161*
X438806Y476842D02*
X443574D01*
X428138Y487510D02*
X438806Y476842D01*
X422812Y487510D02*
X428138D01*
X604040Y453554D02*
Y476842D01*
X16974Y50038D02*
Y156592D01*
X29086Y168704D01*
D162*
X615871Y36628D02*
Y55749D01*
D170*
X736600Y145110D02*
D03*
Y215110D02*
D03*
X686600Y180110D02*
D03*
Y40110D02*
D03*
X736600Y75110D02*
D03*
X686600Y110110D02*
D03*
X736600Y340106D02*
D03*
X686600Y305106D02*
D03*
Y375106D02*
D03*
X736600Y410106D02*
D03*
D171*
X321182Y283790D02*
D03*
X346582D02*
D03*
X371982D02*
D03*
X397382D02*
D03*
X422782Y283790D02*
D03*
X338182Y41290D02*
D03*
X312782D02*
D03*
X287382D02*
D03*
X261982D02*
D03*
X236582D02*
D03*
D172*
X448182Y283790D02*
D03*
X211182Y41290D02*
D03*
D173*
X248900Y351788D02*
D03*
X223500D02*
D03*
X198100D02*
D03*
X274300D02*
D03*
X172700D02*
D03*
X299700Y326388D02*
D03*
X172700D02*
D03*
X274300D02*
D03*
X198100D02*
D03*
X223500D02*
D03*
X248900D02*
D03*
D174*
X299700Y351788D02*
D03*
D175*
X669242Y287748D02*
D03*
X753958Y322748D02*
D03*
X669242Y392464D02*
D03*
X753958Y427464D02*
D03*
X711148Y40110D02*
D03*
X712052Y75110D02*
D03*
X711148Y110110D02*
D03*
X712052Y145110D02*
D03*
X711148Y180110D02*
D03*
X712052Y215110D02*
D03*
D177*
X-50000Y501000D02*
D03*
Y120000D02*
D03*
X681000Y501000D02*
D03*
D178*
X477328Y256201D02*
D03*
X490122Y257326D02*
D03*
X580734Y290672D02*
D03*
X601866Y88847D02*
D03*
X615871Y36628D02*
D03*
Y55749D02*
D03*
X590352Y93317D02*
D03*
X457342Y24367D02*
D03*
X364590Y49429D02*
D03*
X377504Y49518D02*
D03*
X218817Y266356D02*
D03*
X212639Y272051D02*
D03*
X444301Y400611D02*
D03*
X525971Y99003D02*
D03*
Y113105D02*
D03*
Y128420D02*
D03*
X525862Y143711D02*
D03*
X525622Y157182D02*
D03*
Y170653D02*
D03*
Y184325D02*
D03*
Y198990D02*
D03*
X638392Y29062D02*
D03*
X624168Y298516D02*
D03*
X632550Y72513D02*
D03*
X97372Y33110D02*
D03*
Y55770D02*
D03*
Y76886D02*
D03*
X110924Y44118D02*
D03*
Y65950D02*
D03*
X408439Y327423D02*
D03*
X346709Y374073D02*
D03*
X408439Y373000D02*
D03*
X336308Y421628D02*
D03*
Y465412D02*
D03*
X338672Y512402D02*
D03*
X303620Y421409D02*
D03*
Y464650D02*
D03*
Y512402D02*
D03*
X98738Y517863D02*
D03*
X68162Y446188D02*
D03*
X-72808Y451268D02*
D03*
X-4798Y515577D02*
D03*
X1107Y182041D02*
D03*
X1298Y164502D02*
D03*
X-226Y202436D02*
D03*
X-672Y219783D02*
D03*
X-226Y239178D02*
D03*
X-36Y255096D02*
D03*
X60Y268642D02*
D03*
X-71538Y220382D02*
D03*
Y233952D02*
D03*
Y246464D02*
D03*
Y259936D02*
D03*
X-15276Y239178D02*
D03*
X-68490Y206376D02*
D03*
X-11006Y205748D02*
D03*
X-15466Y274912D02*
D03*
Y263054D02*
D03*
Y251878D02*
D03*
X-27087Y236540D02*
D03*
Y246888D02*
D03*
X-53678Y259667D02*
D03*
Y246464D02*
D03*
Y233952D02*
D03*
Y220382D02*
D03*
Y206376D02*
D03*
X-24420Y205748D02*
D03*
X-65696Y154596D02*
D03*
X-13372D02*
D03*
X-27087Y162978D02*
D03*
X-40612D02*
D03*
X-53250D02*
D03*
X-68490Y170222D02*
D03*
Y182041D02*
D03*
Y193204D02*
D03*
X-10894Y170222D02*
D03*
X-11006Y182395D02*
D03*
Y193204D02*
D03*
X494842Y56552D02*
D03*
X-52916Y425534D02*
D03*
X-49111Y448902D02*
D03*
X242946Y525176D02*
D03*
X159500Y437904D02*
D03*
X170350Y430876D02*
D03*
X203976Y394364D02*
D03*
X345660Y322229D02*
D03*
X536435Y335623D02*
D03*
X554215Y335623D02*
D03*
X390883Y383899D02*
D03*
X378118Y383933D02*
D03*
X365412Y383905D02*
D03*
X572831Y68236D02*
D03*
X613453Y86831D02*
D03*
X523330Y57586D02*
D03*
Y82968D02*
D03*
X397999Y335098D02*
D03*
X179226Y286262D02*
D03*
X423391Y32168D02*
D03*
X431683Y30128D02*
D03*
X439969Y31406D02*
D03*
X515956Y30128D02*
D03*
X213530Y473413D02*
D03*
X238967Y473032D02*
D03*
X221687Y454076D02*
D03*
X239527Y454250D02*
D03*
X138600Y475572D02*
D03*
X390566Y62694D02*
D03*
X343878Y77233D02*
D03*
X120932Y311742D02*
D03*
X128065Y304554D02*
D03*
X135994Y246184D02*
D03*
X202528Y199297D02*
D03*
X143600Y168202D02*
D03*
X135726Y161663D02*
D03*
X201942Y187183D02*
D03*
X158203Y268771D02*
D03*
X146150Y318680D02*
D03*
X184066Y481795D02*
D03*
X152236Y335872D02*
D03*
X68068Y186702D02*
D03*
X163492Y179643D02*
D03*
X169508Y173507D02*
D03*
X191606Y167491D02*
D03*
X197810Y161663D02*
D03*
X108972Y142403D02*
D03*
X138774Y80174D02*
D03*
X390495Y28372D02*
D03*
X403473D02*
D03*
X108972Y97878D02*
D03*
X280378Y69252D02*
D03*
X236437Y279104D02*
D03*
X186689D02*
D03*
X223500Y286262D02*
D03*
X200180D02*
D03*
X193687Y292772D02*
D03*
X621949Y102705D02*
D03*
X305778Y257360D02*
D03*
X206286Y170139D02*
D03*
X206286Y220939D02*
D03*
X318478Y255446D02*
D03*
X254978Y255446D02*
D03*
X343878D02*
D03*
X280378Y255446D02*
D03*
X267678Y255446D02*
D03*
X242278Y77233D02*
D03*
X254978D02*
D03*
X267672Y77239D02*
D03*
X293078Y77233D02*
D03*
X305778D02*
D03*
X318478D02*
D03*
X331178D02*
D03*
X23673Y341376D02*
D03*
Y326662D02*
D03*
X7282Y348572D02*
D03*
Y334076D02*
D03*
Y319362D02*
D03*
X-10498Y326982D02*
D03*
Y341696D02*
D03*
Y356192D02*
D03*
X221150Y506052D02*
D03*
X-4154Y441034D02*
D03*
X2202Y427312D02*
D03*
X116262Y246666D02*
D03*
X142420Y219638D02*
D03*
X161480Y449076D02*
D03*
X186098Y497670D02*
D03*
X188254Y41102D02*
D03*
X251797Y518399D02*
D03*
X118972Y97878D02*
D03*
X178254Y42122D02*
D03*
X242506Y515176D02*
D03*
X71728Y226670D02*
D03*
X113968Y186702D02*
D03*
X85935Y282379D02*
D03*
X549059Y265030D02*
D03*
X531787D02*
D03*
X-37676Y428582D02*
D03*
X20412Y363480D02*
D03*
X30412Y356872D02*
D03*
X50782Y355872D02*
D03*
X41572Y337142D02*
D03*
X36492Y324442D02*
D03*
X-10498Y310472D02*
D03*
X-338Y309202D02*
D03*
X10412Y305392D02*
D03*
X20412Y311742D02*
D03*
X-61088Y396622D02*
D03*
X-49588Y396342D02*
D03*
X-39588D02*
D03*
X-29588D02*
D03*
X-65108Y274912D02*
D03*
X-53678D02*
D03*
X158951Y44118D02*
D03*
X77142Y109482D02*
D03*
X422812Y517990D02*
D03*
Y507830D02*
D03*
Y497670D02*
D03*
Y487510D02*
D03*
X412652D02*
D03*
Y497670D02*
D03*
Y507830D02*
D03*
Y517990D02*
D03*
X402492D02*
D03*
Y507830D02*
D03*
Y497670D02*
D03*
Y487510D02*
D03*
X392332Y507830D02*
D03*
Y497670D02*
D03*
X392332Y487510D02*
D03*
X481160Y499622D02*
D03*
Y509782D02*
D03*
Y519942D02*
D03*
X491320Y499622D02*
D03*
Y509782D02*
D03*
Y519942D02*
D03*
X501480D02*
D03*
Y509782D02*
D03*
X501480Y499622D02*
D03*
X511640D02*
D03*
Y509782D02*
D03*
Y519942D02*
D03*
X542120D02*
D03*
Y509782D02*
D03*
Y499622D02*
D03*
X531960D02*
D03*
X531960Y509782D02*
D03*
Y519942D02*
D03*
X521800D02*
D03*
X521800Y509782D02*
D03*
Y499622D02*
D03*
X552280D02*
D03*
Y509782D02*
D03*
Y519942D02*
D03*
X477898Y354882D02*
D03*
X520530Y354882D02*
D03*
X206578Y480050D02*
D03*
X138600Y391116D02*
D03*
X125900D02*
D03*
X113200D02*
D03*
Y502456D02*
D03*
X541612Y368130D02*
D03*
X549740Y368155D02*
D03*
X533484Y368105D02*
D03*
X16974Y50038D02*
D03*
X29086Y168704D02*
D03*
X77935Y100592D02*
D03*
D179*
X582363Y437081D02*
D03*
X570373D02*
D03*
X577075Y443841D02*
D03*
X564980D02*
D03*
X591864Y451000D02*
D03*
X582363D02*
D03*
X572944D02*
D03*
X604040Y453554D02*
D03*
X23432Y246446D02*
D03*
D180*
X422416Y137217D02*
D03*
X406633Y145291D02*
D03*
X402778Y114754D02*
D03*
X379990Y148392D02*
D03*
X388031Y130883D02*
D03*
X427244Y124262D02*
D03*
X375183Y115542D02*
D03*
X281759Y186051D02*
D03*
X283809Y134477D02*
D03*
X269902Y124005D02*
D03*
X234548Y184166D02*
D03*
X289759Y194051D02*
D03*
X305759Y194051D02*
D03*
X297759Y194051D02*
D03*
X281759D02*
D03*
X273759Y194051D02*
D03*
X289759Y186051D02*
D03*
X305759D02*
D03*
X297759Y186051D02*
D03*
X273759D02*
D03*
X289759Y162051D02*
D03*
X305759D02*
D03*
X297759Y162051D02*
D03*
X281759Y162051D02*
D03*
X273759Y162051D02*
D03*
X289759Y170051D02*
D03*
X305759Y170051D02*
D03*
X297759Y170051D02*
D03*
X281759Y170051D02*
D03*
X273759Y170051D02*
D03*
X273759Y178051D02*
D03*
X281759Y178051D02*
D03*
X305759D02*
D03*
X297759D02*
D03*
X405388Y179725D02*
D03*
Y173856D02*
D03*
X416854Y179725D02*
D03*
Y173856D02*
D03*
Y191463D02*
D03*
Y197332D02*
D03*
X405388Y191463D02*
D03*
X405388Y197332D02*
D03*
X405388Y185594D02*
D03*
X411121Y197332D02*
D03*
X411121Y191463D02*
D03*
X411121Y173856D02*
D03*
Y179725D02*
D03*
X289759Y178051D02*
D03*
X416854Y185594D02*
D03*
X411121D02*
D03*
X503316Y97538D02*
D03*
X503819Y113037D02*
D03*
X493010Y112785D02*
D03*
X493597Y97286D02*
D03*
X483124Y97453D02*
D03*
X482538Y112953D02*
D03*
X470641Y97118D02*
D03*
X471563Y112785D02*
D03*
X464525Y175788D02*
D03*
X459331Y175704D02*
D03*
X453801Y176123D02*
D03*
X461677Y158948D02*
D03*
X445591Y154676D02*
D03*
X444837Y146298D02*
D03*
X462430Y144789D02*
D03*
X469384Y139427D02*
D03*
X462011Y131552D02*
D03*
X469049Y126525D02*
D03*
X457153Y118985D02*
D03*
X438386Y109015D02*
D03*
X447441Y106496D02*
D03*
X445256Y116388D02*
D03*
X431013Y113542D02*
D03*
X431683Y102062D02*
D03*
X419953Y91589D02*
D03*
X420456Y112199D02*
D03*
X375802Y97705D02*
D03*
X387783Y91421D02*
D03*
X380493Y160541D02*
D03*
X369987Y169706D02*
D03*
X358543Y169002D02*
D03*
X374754Y164980D02*
D03*
X364451Y135449D02*
D03*
X366544Y123006D02*
D03*
X351379Y99003D02*
D03*
X357369Y91086D02*
D03*
X357704Y108597D02*
D03*
X349159Y107340D02*
D03*
X337848Y99967D02*
D03*
X324863Y100637D02*
D03*
X312840Y99003D02*
D03*
X299560Y98794D02*
D03*
X249621Y99967D02*
D03*
X244292Y104949D02*
D03*
X238107Y148475D02*
D03*
X228598Y91086D02*
D03*
X221645Y106753D02*
D03*
X221644Y233346D02*
D03*
X229771Y242227D02*
D03*
X248706Y232675D02*
D03*
X261943Y231837D02*
D03*
X273169Y232886D02*
D03*
X352678Y229492D02*
D03*
X354940Y217428D02*
D03*
X351589Y208212D02*
D03*
X352091Y197069D02*
D03*
X374879Y227229D02*
D03*
X368847Y232843D02*
D03*
X360469Y226308D02*
D03*
X365747Y217427D02*
D03*
X360050Y212400D02*
D03*
X370606Y186680D02*
D03*
X370439Y194471D02*
D03*
X369182Y206284D02*
D03*
X374460Y212149D02*
D03*
X378733Y217511D02*
D03*
X387949Y219690D02*
D03*
X390798Y227230D02*
D03*
X382420Y230162D02*
D03*
X372450Y241054D02*
D03*
X383006Y239630D02*
D03*
X392138Y236614D02*
D03*
X397919Y227229D02*
D03*
X400516Y236613D02*
D03*
X409739Y236525D02*
D03*
X423982Y236525D02*
D03*
X435209Y236692D02*
D03*
X446429Y214916D02*
D03*
X440145Y198661D02*
D03*
X439978Y189403D02*
D03*
X447351Y189571D02*
D03*
X464358Y219440D02*
D03*
X447769Y203522D02*
D03*
X445179Y226051D02*
D03*
X464190Y236028D02*
D03*
X460253Y209720D02*
D03*
X456064Y198410D02*
D03*
X463771Y196902D02*
D03*
X453550Y188356D02*
D03*
X458661Y187267D02*
D03*
X464107Y187602D02*
D03*
X469887Y187518D02*
D03*
X476422Y187183D02*
D03*
X471898Y197153D02*
D03*
X473406Y207625D02*
D03*
X472904Y220779D02*
D03*
Y236530D02*
D03*
X502569Y193968D02*
D03*
X488158Y204316D02*
D03*
X489918Y236236D02*
D03*
X488745Y220402D02*
D03*
X502904Y204148D02*
D03*
X502820Y220653D02*
D03*
X502736Y236069D02*
D03*
X238653Y189276D02*
D03*
X389124Y186136D02*
D03*
X252731Y207367D02*
D03*
X255907Y130347D02*
D03*
X318759Y139469D02*
D03*
X411081Y211894D02*
D03*
X332494Y218283D02*
D03*
X338723Y189952D02*
D03*
X335200Y225370D02*
D03*
X325792Y217421D02*
D03*
X325202Y209082D02*
D03*
X395911Y208456D02*
D03*
X236892Y226642D02*
D03*
X321088Y152271D02*
D03*
X251427Y199169D02*
D03*
X233185Y136039D02*
D03*
X238323Y140594D02*
D03*
X249251Y140266D02*
D03*
X255411Y118060D02*
D03*
X259638Y151699D02*
D03*
X267428Y142403D02*
D03*
X273319Y138704D02*
D03*
X326963Y171783D02*
D03*
X327036Y158482D02*
D03*
X418237Y211982D02*
D03*
X424359Y204478D02*
D03*
D181*
X561944Y22295D02*
D03*
X604040Y476842D02*
D03*
X419953Y53504D02*
D03*
X249082Y384829D02*
D03*
X275132Y292772D02*
D03*
X524446Y476842D02*
D03*
X443574D02*
D03*
D182*
X234556Y97429D02*
D03*
X450626Y97429D02*
D03*
Y234909D02*
D03*
X234556Y234909D02*
D03*
D183*
X258183Y460476D02*
D03*
X2202Y399372D02*
D03*
X-62558Y408842D02*
D03*
X-23251Y467899D02*
D03*
X91366Y228020D02*
D03*
X154358Y105418D02*
D03*
X75752Y255629D02*
D03*
X251710Y500892D02*
D03*
X248074Y469222D02*
D03*
X203798Y506052D02*
D03*
X91366Y198890D02*
D03*
X81370Y335872D02*
D03*
M02*
