G04*
G04 #@! TF.GenerationSoftware,Altium Limited,Altium Designer,20.2.4 (192)*
G04*
G04 Layer_Color=8421504*
%FSLAX44Y44*%
%MOMM*%
G71*
G04*
G04 #@! TF.SameCoordinates,742EB62A-7AE8-4A69-8DF3-B4F61E8DB2E3*
G04*
G04*
G04 #@! TF.FilePolarity,Positive*
G04*
G01*
G75*
%ADD10C,0.2540*%
%ADD29R,0.5334X0.6096*%
%ADD30R,0.6096X0.5334*%
%ADD31R,1.3970X1.0160*%
%ADD32R,0.9000X0.4000*%
%ADD33R,1.4224X1.2192*%
%ADD34R,1.1500X2.7000*%
%ADD35R,1.1000X1.4000*%
%ADD36R,0.9000X1.4000*%
%ADD37R,0.9000X0.8000*%
%ADD38R,0.5000X0.5000*%
%ADD39R,1.4500X2.8000*%
%ADD40R,2.7430X2.1590*%
%ADD41R,0.5000X0.5000*%
G04:AMPARAMS|DCode=42|XSize=0.4mm|YSize=0.85mm|CornerRadius=0.05mm|HoleSize=0mm|Usage=FLASHONLY|Rotation=270.000|XOffset=0mm|YOffset=0mm|HoleType=Round|Shape=RoundedRectangle|*
%AMROUNDEDRECTD42*
21,1,0.4000,0.7500,0,0,270.0*
21,1,0.3000,0.8500,0,0,270.0*
1,1,0.1000,-0.3750,-0.1500*
1,1,0.1000,-0.3750,0.1500*
1,1,0.1000,0.3750,0.1500*
1,1,0.1000,0.3750,-0.1500*
%
%ADD42ROUNDEDRECTD42*%
%ADD43R,1.0500X2.2000*%
%ADD44R,1.0000X1.0500*%
%ADD45R,0.8000X0.8000*%
%ADD46R,0.6500X1.1500*%
%ADD47R,0.6000X0.2000*%
%ADD48R,0.2000X0.6000*%
%ADD49R,1.7000X1.7000*%
%ADD50R,0.2200X0.7000*%
%ADD51R,0.7000X0.2200*%
%ADD52R,3.9878X3.1750*%
%ADD53R,0.9000X1.6000*%
%ADD54R,2.5000X0.9000*%
%ADD55R,2.0000X2.0000*%
G04:AMPARAMS|DCode=56|XSize=1.26mm|YSize=1.61mm|CornerRadius=0.252mm|HoleSize=0mm|Usage=FLASHONLY|Rotation=180.000|XOffset=0mm|YOffset=0mm|HoleType=Round|Shape=RoundedRectangle|*
%AMROUNDEDRECTD56*
21,1,1.2600,1.1060,0,0,180.0*
21,1,0.7560,1.6100,0,0,180.0*
1,1,0.5040,-0.3780,0.5530*
1,1,0.5040,0.3780,0.5530*
1,1,0.5040,0.3780,-0.5530*
1,1,0.5040,-0.3780,-0.5530*
%
%ADD56ROUNDEDRECTD56*%
G04:AMPARAMS|DCode=57|XSize=0.74mm|YSize=0.26mm|CornerRadius=0.0702mm|HoleSize=0mm|Usage=FLASHONLY|Rotation=270.000|XOffset=0mm|YOffset=0mm|HoleType=Round|Shape=RoundedRectangle|*
%AMROUNDEDRECTD57*
21,1,0.7400,0.1196,0,0,270.0*
21,1,0.5996,0.2600,0,0,270.0*
1,1,0.1404,-0.0598,-0.2998*
1,1,0.1404,-0.0598,0.2998*
1,1,0.1404,0.0598,0.2998*
1,1,0.1404,0.0598,-0.2998*
%
%ADD57ROUNDEDRECTD57*%
%ADD58R,2.0000X5.0000*%
%ADD59R,1.7000X4.0000*%
%ADD60C,2.0000*%
%ADD61R,0.6000X1.4000*%
%ADD62R,0.5000X1.5100*%
%ADD63R,0.3000X0.3250*%
%ADD64R,0.3250X0.3000*%
%ADD65R,0.6000X0.6000*%
%ADD66R,0.6000X0.5000*%
%ADD67R,0.7000X0.7500*%
%ADD68R,2.0000X2.7500*%
%ADD69R,0.7000X1.1000*%
%ADD70R,0.8000X0.8000*%
%ADD71R,0.9000X1.3000*%
%ADD72R,1.4700X1.2850*%
%ADD73R,1.6000X0.9000*%
%ADD74R,0.6000X1.1000*%
%ADD75R,0.6000X0.7000*%
%ADD76R,0.6000X0.4000*%
%ADD77R,0.6000X0.6000*%
%ADD78R,0.8000X1.5000*%
%ADD79R,0.6000X1.5000*%
%ADD80R,0.9000X1.5000*%
%ADD81R,1.5000X0.6000*%
%ADD82R,2.0828X1.2700*%
%ADD83R,6.0000X2.0000*%
G04:AMPARAMS|DCode=84|XSize=0.8mm|YSize=0.8mm|CornerRadius=0.28mm|HoleSize=0mm|Usage=FLASHONLY|Rotation=0.000|XOffset=0mm|YOffset=0mm|HoleType=Round|Shape=RoundedRectangle|*
%AMROUNDEDRECTD84*
21,1,0.8000,0.2400,0,0,0.0*
21,1,0.2400,0.8000,0,0,0.0*
1,1,0.5600,0.1200,-0.1200*
1,1,0.5600,-0.1200,-0.1200*
1,1,0.5600,-0.1200,0.1200*
1,1,0.5600,0.1200,0.1200*
%
%ADD84ROUNDEDRECTD84*%
%ADD85R,1.2200X0.9100*%
%ADD86R,1.7501X0.5001*%
%ADD87R,0.5001X1.7501*%
%ADD88C,1.0000*%
G36*
X25486Y127760D02*
X20186D01*
Y133060D01*
X25486D01*
Y127760D01*
D01*
D02*
G37*
G36*
Y135260D02*
X20186D01*
Y140560D01*
X25486D01*
Y135260D01*
D01*
D02*
G37*
G36*
X32986Y127760D02*
X27686D01*
Y133060D01*
X32986D01*
Y127760D01*
D01*
D02*
G37*
G36*
Y135260D02*
X27686D01*
Y140560D01*
X32986D01*
Y135260D01*
D01*
D02*
G37*
D10*
X716000Y512123D02*
G03*
X777123Y451000I61123J0D01*
G01*
X0Y23877D02*
G03*
X-61123Y85000I-61123J-0D01*
G01*
X-85000Y536000D02*
X716000D01*
X0Y0D02*
X801000D01*
X-85000Y85000D02*
X-61123D01*
X777123Y451000D02*
X801000D01*
X801000Y0D02*
Y451000D01*
X-85000Y85000D02*
Y536000D01*
X0Y0D02*
Y23877D01*
X716000Y512123D02*
Y536000D01*
D29*
X329090Y113558D02*
D03*
X337472Y113558D02*
D03*
X331800Y124043D02*
D03*
X340182D02*
D03*
X329024Y133588D02*
D03*
X337406D02*
D03*
X297889Y225680D02*
D03*
X289507D02*
D03*
X341132Y148637D02*
D03*
X349514Y148637D02*
D03*
X384942Y178548D02*
D03*
X376560D02*
D03*
X340503Y160153D02*
D03*
X348885D02*
D03*
X436547Y181647D02*
D03*
X444929D02*
D03*
D30*
X240211Y162883D02*
D03*
Y154501D02*
D03*
X242248Y205100D02*
D03*
Y196718D02*
D03*
X424394Y227069D02*
D03*
Y218687D02*
D03*
X411241Y227902D02*
D03*
Y219520D02*
D03*
X435202Y227405D02*
D03*
Y219023D02*
D03*
X361142Y150064D02*
D03*
Y158446D02*
D03*
X336036Y170519D02*
D03*
X336036Y178901D02*
D03*
X356640Y181127D02*
D03*
Y189509D02*
D03*
X434790Y170002D02*
D03*
X434790Y161620D02*
D03*
X445347Y170045D02*
D03*
X445347Y161663D02*
D03*
X267000Y117857D02*
D03*
Y109475D02*
D03*
X318127Y107629D02*
D03*
X318127Y116011D02*
D03*
X346709Y189509D02*
D03*
Y181127D02*
D03*
X387371Y159820D02*
D03*
Y168202D02*
D03*
X446339Y135659D02*
D03*
Y127277D02*
D03*
X353968Y133350D02*
D03*
Y124968D02*
D03*
X387614Y201338D02*
D03*
Y209720D02*
D03*
X378734Y192290D02*
D03*
Y200672D02*
D03*
D31*
X244292Y129250D02*
D03*
X244292Y114010D02*
D03*
D32*
X413325Y124217D02*
D03*
X435325Y137217D02*
D03*
X413325D02*
D03*
X413325Y130717D02*
D03*
X435325Y124217D02*
D03*
X401087Y124383D02*
D03*
X379087Y130883D02*
D03*
X379087Y137383D02*
D03*
X401087D02*
D03*
X379087Y124383D02*
D03*
D33*
X303184Y109111D02*
D03*
X281182Y125113D02*
D03*
Y109111D02*
D03*
X303184Y125113D02*
D03*
D34*
X560315Y184302D02*
D03*
X590315D02*
D03*
X565830Y239630D02*
D03*
X535830D02*
D03*
D35*
X601495Y77749D02*
D03*
D36*
X584495D02*
D03*
Y55749D02*
D03*
X603495D02*
D03*
D37*
X510122Y273750D02*
D03*
X490122Y264250D02*
D03*
Y283250D02*
D03*
X582380Y112317D02*
D03*
X582380Y93317D02*
D03*
X602380Y102817D02*
D03*
D38*
X-39628Y273642D02*
D03*
X-29628D02*
D03*
X-29628Y260096D02*
D03*
X-39628D02*
D03*
X431627Y43128D02*
D03*
X441627D02*
D03*
X127514Y92023D02*
D03*
X137514D02*
D03*
X62602Y110974D02*
D03*
X52602D02*
D03*
X29086Y161923D02*
D03*
X19086D02*
D03*
X178254Y49694D02*
D03*
X188254D02*
D03*
X108972Y105418D02*
D03*
X118972Y105418D02*
D03*
X114136Y237762D02*
D03*
X104136D02*
D03*
X136150Y105418D02*
D03*
X146150D02*
D03*
X193798Y497670D02*
D03*
X203798D02*
D03*
X-13251Y457902D02*
D03*
X-23251D02*
D03*
X251797Y510827D02*
D03*
X261797D02*
D03*
X261710Y476842D02*
D03*
X251710D02*
D03*
X261710Y492550D02*
D03*
X251710D02*
D03*
D39*
X541403Y147722D02*
D03*
X590903D02*
D03*
D40*
X552366Y112470D02*
D03*
Y68270D02*
D03*
D41*
X613453Y102705D02*
D03*
X613453Y92705D02*
D03*
X-39708Y246888D02*
D03*
Y236888D02*
D03*
X6868Y138050D02*
D03*
Y148050D02*
D03*
X138600Y409364D02*
D03*
Y399364D02*
D03*
X125900Y409364D02*
D03*
Y399364D02*
D03*
X113200Y409364D02*
D03*
Y399364D02*
D03*
X370912Y335091D02*
D03*
Y345091D02*
D03*
X403473Y34133D02*
D03*
Y44133D02*
D03*
X390495Y44062D02*
D03*
Y34062D02*
D03*
X364590Y43668D02*
D03*
X364590Y33668D02*
D03*
X91366Y219130D02*
D03*
X91366Y209130D02*
D03*
X136324Y209638D02*
D03*
X136324Y219638D02*
D03*
X2202Y409104D02*
D03*
Y419104D02*
D03*
X-37676Y420120D02*
D03*
Y410120D02*
D03*
X380795Y335098D02*
D03*
X380795Y345098D02*
D03*
X377504Y43757D02*
D03*
Y33757D02*
D03*
X230040Y464110D02*
D03*
Y454110D02*
D03*
X234746Y515176D02*
D03*
Y525176D02*
D03*
X170350Y449076D02*
D03*
Y439076D02*
D03*
X390856Y345091D02*
D03*
X390856Y335091D02*
D03*
D42*
X457342Y49628D02*
D03*
Y43128D02*
D03*
Y36628D02*
D03*
Y30128D02*
D03*
X494842Y49628D02*
D03*
Y43128D02*
D03*
Y36628D02*
D03*
Y30128D02*
D03*
D43*
X-24958Y184912D02*
D03*
X-54458D02*
D03*
X503540Y166296D02*
D03*
X474040Y166296D02*
D03*
D44*
X-39708Y200162D02*
D03*
X488790Y181546D02*
D03*
D45*
X-39708Y221742D02*
D03*
X-24708D02*
D03*
D46*
X406331Y192757D02*
D03*
X415831D02*
D03*
X415831Y178257D02*
D03*
X406331D02*
D03*
D47*
X425081Y173507D02*
D03*
X397081Y189507D02*
D03*
X397081Y185507D02*
D03*
Y173507D02*
D03*
X425081Y189507D02*
D03*
X425081Y193507D02*
D03*
Y185507D02*
D03*
X425081Y177507D02*
D03*
X397081Y181507D02*
D03*
X425081Y197507D02*
D03*
X397081D02*
D03*
X397081Y193507D02*
D03*
X397081Y177507D02*
D03*
X425081Y181507D02*
D03*
D48*
X403081Y166507D02*
D03*
X407081D02*
D03*
X411081Y166507D02*
D03*
X415081D02*
D03*
X419081D02*
D03*
X411081Y204507D02*
D03*
X403081Y204507D02*
D03*
X415081Y204507D02*
D03*
X419081D02*
D03*
X407081D02*
D03*
D49*
X278698Y167088D02*
D03*
Y189088D02*
D03*
X300698D02*
D03*
Y167088D02*
D03*
D50*
X287198Y149088D02*
D03*
X282198Y149088D02*
D03*
X312198Y207088D02*
D03*
X267198D02*
D03*
X307198Y149088D02*
D03*
X302198Y207088D02*
D03*
X297198D02*
D03*
X287198D02*
D03*
X277198Y207088D02*
D03*
X272198Y207088D02*
D03*
X307198D02*
D03*
X267198Y149088D02*
D03*
X272198D02*
D03*
X282198Y207088D02*
D03*
X312198Y149088D02*
D03*
X292198Y149088D02*
D03*
X302198D02*
D03*
X292198Y207088D02*
D03*
X277198Y149088D02*
D03*
X297198Y149088D02*
D03*
D51*
X260698Y160588D02*
D03*
X318698Y185588D02*
D03*
X318698Y175588D02*
D03*
X318698Y200588D02*
D03*
Y180588D02*
D03*
X318698Y190588D02*
D03*
Y195588D02*
D03*
Y155588D02*
D03*
X260698Y200588D02*
D03*
X260698Y195588D02*
D03*
X260698Y190588D02*
D03*
Y185588D02*
D03*
X260698Y175588D02*
D03*
X260698Y170588D02*
D03*
X260698Y165588D02*
D03*
Y155588D02*
D03*
Y180588D02*
D03*
X318698Y170588D02*
D03*
Y160588D02*
D03*
X318698Y165588D02*
D03*
D52*
X488790Y136578D02*
D03*
D53*
X536300Y430518D02*
D03*
X507300D02*
D03*
D54*
X541612Y377249D02*
D03*
Y408249D02*
D03*
X547833Y483791D02*
D03*
Y452791D02*
D03*
X513543Y483791D02*
D03*
Y452791D02*
D03*
D55*
X23432Y191140D02*
D03*
Y231140D02*
D03*
X468331Y430252D02*
D03*
Y470252D02*
D03*
X602996Y340548D02*
D03*
Y300548D02*
D03*
D56*
X7764Y96060D02*
D03*
X36264D02*
D03*
D57*
X19086Y120210D02*
D03*
X24086D02*
D03*
X29086D02*
D03*
X34086D02*
D03*
Y148110D02*
D03*
X29086D02*
D03*
X24086D02*
D03*
X19086D02*
D03*
D58*
X32742Y50038D02*
D03*
D59*
X134242D02*
D03*
D60*
X172700Y141021D02*
D03*
X335353Y339508D02*
D03*
X170350Y481922D02*
D03*
X172700Y515176D02*
D03*
X357214Y470492D02*
D03*
X604480Y383450D02*
D03*
X91747Y105418D02*
D03*
D61*
X113200Y437904D02*
D03*
X125900D02*
D03*
X138600D02*
D03*
X151300D02*
D03*
Y490904D02*
D03*
X138600D02*
D03*
X125900D02*
D03*
X113200D02*
D03*
D62*
X184476Y406202D02*
D03*
X190976D02*
D03*
X197476D02*
D03*
X203976D02*
D03*
Y466202D02*
D03*
X197476D02*
D03*
X190976D02*
D03*
X184476D02*
D03*
D63*
X234746Y497675D02*
D03*
X219746D02*
D03*
Y482425D02*
D03*
X234746D02*
D03*
X229746Y497550D02*
D03*
X224746D02*
D03*
X229746Y482550D02*
D03*
X224746D02*
D03*
D64*
X234746Y487550D02*
D03*
Y492550D02*
D03*
X219746Y487550D02*
D03*
Y492550D02*
D03*
D65*
X450651Y375522D02*
D03*
X450652Y400521D02*
D03*
D66*
X365412Y366706D02*
D03*
X365412Y375705D02*
D03*
X378118Y375733D02*
D03*
X378118Y366733D02*
D03*
X-52916Y417842D02*
D03*
Y408842D02*
D03*
X-40911Y448902D02*
D03*
Y457902D02*
D03*
X390883Y375699D02*
D03*
X390883Y366699D02*
D03*
D67*
X101262Y264879D02*
D03*
D68*
Y282379D02*
D03*
D69*
X86262Y255629D02*
D03*
X116262D02*
D03*
X101262Y255629D02*
D03*
D70*
X488657Y354882D02*
D03*
Y339882D02*
D03*
X511511Y339882D02*
D03*
Y354882D02*
D03*
X473411Y401872D02*
D03*
Y386872D02*
D03*
X571995Y312423D02*
D03*
Y327423D02*
D03*
X536435Y312423D02*
D03*
Y327423D02*
D03*
X566585Y273532D02*
D03*
Y288532D02*
D03*
X549059Y273532D02*
D03*
Y288532D02*
D03*
X554215Y327423D02*
D03*
Y312423D02*
D03*
X531787Y273532D02*
D03*
Y288532D02*
D03*
D71*
X456241Y494702D02*
D03*
X437241D02*
D03*
X456241Y518832D02*
D03*
X437241Y518832D02*
D03*
D72*
X183254Y67076D02*
D03*
X183254Y86526D02*
D03*
D73*
X158951Y86392D02*
D03*
Y55392D02*
D03*
X-17864Y410034D02*
D03*
Y441034D02*
D03*
D74*
X498201Y380372D02*
D03*
X507701D02*
D03*
X517201D02*
D03*
X498201Y408372D02*
D03*
X507701D02*
D03*
X517201D02*
D03*
D75*
X65966Y226670D02*
D03*
X75466Y206670D02*
D03*
X56466D02*
D03*
D76*
X123734Y213876D02*
D03*
D77*
Y221376D02*
D03*
Y206376D02*
D03*
X105734D02*
D03*
Y221376D02*
D03*
D78*
X102542Y123702D02*
D03*
X77142D02*
D03*
X102542Y186702D02*
D03*
X77142Y186702D02*
D03*
X149024Y123702D02*
D03*
X123624Y123702D02*
D03*
X149024Y186702D02*
D03*
X123624D02*
D03*
D79*
X60412Y381372D02*
D03*
X50412D02*
D03*
X40412D02*
D03*
X30412D02*
D03*
X20412D02*
D03*
X10412D02*
D03*
X412D02*
D03*
X-9588D02*
D03*
X-19588D02*
D03*
X-29588D02*
D03*
X-39588D02*
D03*
X-49588D02*
D03*
X60412Y290372D02*
D03*
X50412D02*
D03*
X40412D02*
D03*
X30412D02*
D03*
X20412D02*
D03*
X10412D02*
D03*
X412D02*
D03*
X-9588D02*
D03*
X-19588D02*
D03*
X-29588D02*
D03*
X-39588D02*
D03*
X-49588D02*
D03*
D80*
X-61088Y381372D02*
D03*
Y290372D02*
D03*
D81*
X67162Y335872D02*
D03*
Y325872D02*
D03*
Y355872D02*
D03*
Y315872D02*
D03*
Y345872D02*
D03*
D82*
X600473Y233844D02*
D03*
Y273468D02*
D03*
D83*
X409911Y470252D02*
D03*
Y430252D02*
D03*
D84*
X335660Y314030D02*
D03*
X345660Y314030D02*
D03*
D85*
X604040Y412580D02*
D03*
Y445280D02*
D03*
D86*
X450626Y234909D02*
D03*
X234556Y234909D02*
D03*
X234556Y97429D02*
D03*
X450626Y97429D02*
D03*
D87*
X456877Y228658D02*
D03*
X228308D02*
D03*
Y103680D02*
D03*
X456877Y103680D02*
D03*
D88*
X216878Y132039D02*
D03*
X216878Y144739D02*
D03*
X216878Y119339D02*
D03*
X216878Y182839D02*
D03*
X216878Y170139D02*
D03*
X254978Y86339D02*
D03*
X267678D02*
D03*
X216878Y157439D02*
D03*
X242278Y86339D02*
D03*
X216878Y195539D02*
D03*
X216878Y220939D02*
D03*
X216878Y208239D02*
D03*
X267678Y246339D02*
D03*
X280378D02*
D03*
X242278Y246339D02*
D03*
X254978Y246339D02*
D03*
X293078Y86339D02*
D03*
X280378Y86339D02*
D03*
X305778Y86339D02*
D03*
X318478Y86339D02*
D03*
X331178Y86339D02*
D03*
X343878Y86339D02*
D03*
X293078Y246339D02*
D03*
X305778Y246339D02*
D03*
X343878D02*
D03*
X318478Y246339D02*
D03*
X331178Y246339D02*
D03*
M02*
