G04*
G04 #@! TF.GenerationSoftware,Altium Limited,Altium Designer,20.2.4 (192)*
G04*
G04 Layer_Color=16711935*
%FSLAX44Y44*%
%MOMM*%
G71*
G04*
G04 #@! TF.SameCoordinates,742EB62A-7AE8-4A69-8DF3-B4F61E8DB2E3*
G04*
G04*
G04 #@! TF.FilePolarity,Positive*
G04*
G01*
G75*
%ADD10C,0.2540*%
%ADD11C,0.1000*%
%ADD12C,0.2400*%
%ADD14C,0.4000*%
%ADD15C,0.3500*%
%ADD16C,0.2000*%
%ADD18C,0.1270*%
%ADD19C,0.1200*%
%ADD20C,0.1500*%
%ADD21C,0.2140*%
%ADD24R,2.9200X0.5080*%
%ADD25R,1.2500X0.2540*%
%ADD27R,1.7000X0.3810*%
%ADD28R,2.6000X0.5080*%
%ADD165C,0.2032*%
%ADD168C,0.3000*%
%ADD187C,0.0254*%
%ADD188C,0.0305*%
%ADD189C,0.0406*%
%ADD190C,0.0584*%
%ADD191R,3.9400X0.6822*%
G36*
X195941Y41290D02*
X185782Y37227D01*
X185782Y45354D01*
X195941Y41290D01*
D02*
G37*
G36*
X463423Y283790D02*
X473582Y287854D01*
X473582Y279726D01*
X463423Y283790D01*
D02*
G37*
G36*
X659529Y212700D02*
X648418Y208256D01*
X648418Y217145D01*
X659529Y212700D01*
D02*
G37*
G36*
X660399Y410106D02*
X649287Y405662D01*
X649288Y414551D01*
X660399Y410106D01*
D02*
G37*
G36*
X18060Y95835D02*
Y92583D01*
X17039D01*
Y95835D01*
X14075Y100264D01*
X15307D01*
X16817Y97933D01*
Y97922D01*
X16839Y97900D01*
X16861Y97866D01*
X16883Y97822D01*
X16927Y97767D01*
X16972Y97700D01*
X17072Y97534D01*
X17194Y97334D01*
X17327Y97112D01*
X17471Y96879D01*
X17605Y96634D01*
Y96645D01*
X17616Y96668D01*
X17638Y96701D01*
X17671Y96745D01*
X17704Y96801D01*
X17749Y96868D01*
X17849Y97034D01*
X17971Y97234D01*
X18115Y97467D01*
X18282Y97722D01*
X18459Y98000D01*
X19936Y100264D01*
X21123D01*
X18060Y95835D01*
D02*
G37*
G36*
X25208Y92583D02*
X24265D01*
Y98588D01*
X24253Y98577D01*
X24198Y98532D01*
X24131Y98466D01*
X24020Y98388D01*
X23898Y98288D01*
X23743Y98177D01*
X23565Y98055D01*
X23365Y97933D01*
X23354D01*
X23343Y97922D01*
X23277Y97878D01*
X23166Y97822D01*
X23032Y97755D01*
X22877Y97678D01*
X22710Y97600D01*
X22544Y97522D01*
X22378Y97456D01*
Y98366D01*
X22389D01*
X22411Y98388D01*
X22455Y98399D01*
X22511Y98433D01*
X22577Y98466D01*
X22655Y98510D01*
X22844Y98621D01*
X23066Y98743D01*
X23288Y98899D01*
X23521Y99076D01*
X23754Y99265D01*
X23765Y99276D01*
X23776Y99287D01*
X23809Y99321D01*
X23854Y99354D01*
X23954Y99465D01*
X24087Y99598D01*
X24220Y99754D01*
X24364Y99931D01*
X24486Y100109D01*
X24597Y100297D01*
X25208D01*
Y92583D01*
D02*
G37*
G36*
X26076Y143766D02*
X26209D01*
X26354Y143755D01*
X26509Y143744D01*
X26864Y143710D01*
X27231Y143655D01*
X27586Y143588D01*
X27752Y143544D01*
X27919Y143489D01*
X27930D01*
X27952Y143477D01*
X27996Y143455D01*
X28052Y143433D01*
X28130Y143411D01*
X28207Y143366D01*
X28396Y143278D01*
X28596Y143167D01*
X28818Y143022D01*
X29018Y142856D01*
X29206Y142656D01*
Y142645D01*
X29228Y142634D01*
X29251Y142600D01*
X29273Y142556D01*
X29306Y142501D01*
X29351Y142445D01*
X29428Y142279D01*
X29506Y142079D01*
X29584Y141846D01*
X29628Y141568D01*
X29650Y141269D01*
Y141158D01*
X29639Y141080D01*
X29628Y140991D01*
X29606Y140880D01*
X29584Y140758D01*
X29550Y140625D01*
X29506Y140492D01*
X29462Y140347D01*
X29395Y140203D01*
X29317Y140059D01*
X29228Y139914D01*
X29117Y139770D01*
X28995Y139637D01*
X28862Y139515D01*
X28851Y139504D01*
X28818Y139481D01*
X28762Y139448D01*
X28674Y139393D01*
X28574Y139337D01*
X28440Y139282D01*
X28285Y139204D01*
X28107Y139137D01*
X27908Y139071D01*
X27675Y139004D01*
X27419Y138938D01*
X27131Y138882D01*
X26820Y138827D01*
X26487Y138793D01*
X26121Y138771D01*
X25732Y138760D01*
X25721D01*
X25677D01*
X25599D01*
X25510D01*
X25388Y138771D01*
X25255D01*
X25110Y138782D01*
X24944Y138793D01*
X24600Y138827D01*
X24234Y138882D01*
X23867Y138949D01*
X23701Y138993D01*
X23534Y139038D01*
X23523D01*
X23501Y139049D01*
X23456Y139071D01*
X23401Y139093D01*
X23323Y139115D01*
X23246Y139160D01*
X23057Y139248D01*
X22857Y139359D01*
X22646Y139504D01*
X22435Y139670D01*
X22258Y139870D01*
Y139881D01*
X22236Y139892D01*
X22213Y139925D01*
X22191Y139970D01*
X22147Y140025D01*
X22113Y140092D01*
X22025Y140258D01*
X21947Y140458D01*
X21869Y140691D01*
X21825Y140969D01*
X21803Y141269D01*
Y141368D01*
X21814Y141490D01*
X21836Y141635D01*
X21869Y141801D01*
X21914Y141979D01*
X21969Y142168D01*
X22058Y142345D01*
Y142356D01*
X22069Y142367D01*
X22102Y142423D01*
X22158Y142512D01*
X22236Y142623D01*
X22347Y142745D01*
X22469Y142878D01*
X22613Y143000D01*
X22780Y143122D01*
X22802Y143133D01*
X22857Y143178D01*
X22957Y143222D01*
X23101Y143300D01*
X23268Y143366D01*
X23456Y143455D01*
X23679Y143533D01*
X23923Y143600D01*
X23934D01*
X23956Y143611D01*
X23989Y143622D01*
X24045Y143633D01*
X24111Y143644D01*
X24189Y143655D01*
X24289Y143677D01*
X24400Y143688D01*
X24522Y143710D01*
X24655Y143722D01*
X24811Y143733D01*
X24966Y143755D01*
X25144Y143766D01*
X25321D01*
X25521Y143777D01*
X25732D01*
X25743D01*
X25787D01*
X25865D01*
X25954D01*
X26076Y143766D01*
D02*
G37*
G36*
X29517Y135397D02*
X23512D01*
X23523Y135386D01*
X23568Y135330D01*
X23634Y135264D01*
X23712Y135153D01*
X23812Y135030D01*
X23923Y134875D01*
X24045Y134697D01*
X24167Y134498D01*
Y134487D01*
X24178Y134475D01*
X24222Y134409D01*
X24278Y134298D01*
X24344Y134165D01*
X24422Y134009D01*
X24500Y133843D01*
X24578Y133676D01*
X24644Y133510D01*
X23734D01*
Y133521D01*
X23712Y133543D01*
X23701Y133588D01*
X23667Y133643D01*
X23634Y133710D01*
X23590Y133787D01*
X23479Y133976D01*
X23357Y134198D01*
X23201Y134420D01*
X23024Y134653D01*
X22835Y134886D01*
X22824Y134897D01*
X22813Y134908D01*
X22780Y134942D01*
X22746Y134986D01*
X22635Y135086D01*
X22502Y135219D01*
X22347Y135352D01*
X22169Y135497D01*
X21991Y135619D01*
X21803Y135730D01*
Y136340D01*
X29517D01*
Y135397D01*
D02*
G37*
G36*
X26565Y131467D02*
X26676D01*
X26809Y131456D01*
X26942Y131445D01*
X27242Y131412D01*
X27552Y131368D01*
X27852Y131301D01*
X27996Y131257D01*
X28130Y131212D01*
X28141D01*
X28163Y131201D01*
X28196Y131179D01*
X28241Y131157D01*
X28363Y131090D01*
X28518Y130990D01*
X28696Y130857D01*
X28873Y130702D01*
X29062Y130502D01*
X29228Y130258D01*
Y130246D01*
X29251Y130224D01*
X29262Y130191D01*
X29295Y130135D01*
X29328Y130069D01*
X29362Y129980D01*
X29395Y129891D01*
X29439Y129780D01*
X29484Y129658D01*
X29517Y129525D01*
X29550Y129381D01*
X29584Y129214D01*
X29606Y129048D01*
X29628Y128870D01*
X29650Y128470D01*
Y128371D01*
X29639Y128293D01*
Y128204D01*
X29628Y128093D01*
X29617Y127971D01*
X29606Y127849D01*
X29561Y127571D01*
X29495Y127272D01*
X29406Y126983D01*
X29284Y126706D01*
Y126694D01*
X29262Y126672D01*
X29239Y126639D01*
X29217Y126595D01*
X29128Y126473D01*
X29006Y126328D01*
X28851Y126162D01*
X28674Y126006D01*
X28451Y125851D01*
X28207Y125729D01*
X28196D01*
X28174Y125718D01*
X28130Y125707D01*
X28074Y125684D01*
X28008Y125662D01*
X27919Y125640D01*
X27819Y125607D01*
X27697Y125584D01*
X27564Y125562D01*
X27419Y125529D01*
X27264Y125507D01*
X27097Y125485D01*
X26909Y125462D01*
X26709Y125451D01*
X26498Y125440D01*
X26276D01*
X21836D01*
Y126461D01*
X26276D01*
X26287D01*
X26320D01*
X26376D01*
X26442D01*
X26520Y126473D01*
X26620D01*
X26831Y126484D01*
X27075Y126506D01*
X27319Y126539D01*
X27552Y126583D01*
X27652Y126606D01*
X27752Y126639D01*
X27774Y126650D01*
X27830Y126672D01*
X27908Y126728D01*
X28019Y126794D01*
X28130Y126872D01*
X28252Y126983D01*
X28374Y127116D01*
X28474Y127272D01*
X28485Y127294D01*
X28518Y127349D01*
X28551Y127449D01*
X28596Y127583D01*
X28651Y127738D01*
X28685Y127938D01*
X28718Y128149D01*
X28729Y128382D01*
Y128493D01*
X28718Y128559D01*
Y128659D01*
X28707Y128759D01*
X28662Y129003D01*
X28607Y129270D01*
X28518Y129525D01*
X28396Y129769D01*
X28318Y129880D01*
X28229Y129980D01*
X28218Y129991D01*
X28207Y130002D01*
X28174Y130024D01*
X28130Y130058D01*
X28063Y130091D01*
X27996Y130135D01*
X27896Y130180D01*
X27797Y130224D01*
X27675Y130269D01*
X27530Y130302D01*
X27364Y130346D01*
X27186Y130380D01*
X26986Y130413D01*
X26775Y130435D01*
X26531Y130457D01*
X26276D01*
X21836D01*
Y131479D01*
X26276D01*
X26287D01*
X26331D01*
X26387D01*
X26465D01*
X26565Y131467D01*
D02*
G37*
%LPC*%
G36*
X26076Y142811D02*
X25732D01*
X25721D01*
X25710D01*
X25654D01*
X25554D01*
X25421Y142800D01*
X25277D01*
X25099Y142789D01*
X24911Y142778D01*
X24700Y142756D01*
X24278Y142700D01*
X24067Y142667D01*
X23867Y142623D01*
X23679Y142578D01*
X23501Y142512D01*
X23345Y142445D01*
X23212Y142367D01*
X23201D01*
X23190Y142345D01*
X23157Y142323D01*
X23112Y142290D01*
X23013Y142190D01*
X22891Y142068D01*
X22780Y141901D01*
X22680Y141713D01*
X22635Y141613D01*
X22602Y141502D01*
X22591Y141379D01*
X22580Y141257D01*
Y141191D01*
X22591Y141146D01*
X22613Y141024D01*
X22646Y140880D01*
X22713Y140714D01*
X22813Y140536D01*
X22879Y140447D01*
X22946Y140358D01*
X23035Y140281D01*
X23135Y140203D01*
X23146D01*
X23168Y140181D01*
X23212Y140159D01*
X23268Y140125D01*
X23357Y140092D01*
X23456Y140048D01*
X23579Y140014D01*
X23723Y139970D01*
X23889Y139925D01*
X24078Y139881D01*
X24289Y139837D01*
X24522Y139803D01*
X24788Y139770D01*
X25077Y139748D01*
X25388Y139737D01*
X25732Y139726D01*
X25754D01*
X25810D01*
X25910D01*
X26043Y139737D01*
X26187D01*
X26365Y139748D01*
X26553Y139759D01*
X26753Y139781D01*
X27186Y139837D01*
X27397Y139870D01*
X27597Y139914D01*
X27785Y139959D01*
X27963Y140025D01*
X28119Y140092D01*
X28252Y140170D01*
X28263D01*
X28274Y140192D01*
X28352Y140247D01*
X28451Y140347D01*
X28563Y140469D01*
X28674Y140636D01*
X28773Y140824D01*
X28851Y141035D01*
X28862Y141146D01*
X28873Y141269D01*
Y141335D01*
X28862Y141379D01*
X28840Y141490D01*
X28795Y141646D01*
X28718Y141812D01*
X28607Y142001D01*
X28540Y142090D01*
X28451Y142179D01*
X28363Y142268D01*
X28252Y142356D01*
X28241D01*
X28218Y142379D01*
X28185Y142401D01*
X28130Y142423D01*
X28052Y142467D01*
X27952Y142501D01*
X27841Y142545D01*
X27708Y142589D01*
X27541Y142623D01*
X27364Y142667D01*
X27153Y142711D01*
X26931Y142745D01*
X26664Y142767D01*
X26387Y142789D01*
X26076Y142811D01*
D02*
G37*
%LPD*%
D10*
X411939Y145703D02*
G03*
X411939Y145703I-568J0D01*
G01*
X377701Y145869D02*
G03*
X377701Y145869I-568J0D01*
G01*
X280604Y98824D02*
G03*
X280604Y98824I-359J0D01*
G01*
X390507Y197699D02*
G03*
X390507Y197699I-254J0D01*
G01*
X267092Y142020D02*
G03*
X267092Y142020I-254J0D01*
G01*
X185463Y141021D02*
G03*
X185463Y141021I-12763J0D01*
G01*
X348117Y339508D02*
G03*
X348117Y339508I-12763J0D01*
G01*
X183113Y481922D02*
G03*
X183113Y481922I-12763J0D01*
G01*
X185463Y515176D02*
G03*
X185463Y515176I-12763J0D01*
G01*
X369977Y470492D02*
G03*
X369977Y470492I-12763J0D01*
G01*
X617243Y383450D02*
G03*
X617243Y383450I-12763J0D01*
G01*
X220896Y476080D02*
G03*
X220896Y476080I-1270J0D01*
G01*
X498811Y390562D02*
G03*
X498811Y390562I-1270J0D01*
G01*
X104510Y105418D02*
G03*
X104510Y105418I-12763J0D01*
G01*
X496832Y122606D02*
G03*
X496832Y122606I-252J0D01*
G01*
X493622Y259250D02*
Y288250D01*
Y259250D02*
X506622D01*
X493622Y288250D02*
X506622D01*
Y259250D02*
Y288250D01*
X465762Y55878D02*
X487516D01*
Y23561D02*
Y55878D01*
X465762Y23561D02*
X487516D01*
X465762D02*
Y55878D01*
X532818Y68265D02*
Y112461D01*
Y68265D02*
X571844D01*
Y112461D01*
X532818D02*
X571844D01*
X596669Y134686D02*
Y160594D01*
X535321Y134686D02*
X596669D01*
X535321D02*
Y160594D01*
X596669D01*
X579719Y78166D02*
X608995D01*
Y55364D02*
Y78166D01*
X579719Y55364D02*
X608995D01*
X579719D02*
Y78166D01*
X620352Y230737D02*
X620352Y276843D01*
X580952D02*
X620352D01*
X580952Y230737D02*
Y276843D01*
Y230737D02*
X620353D01*
X598880Y88317D02*
Y117317D01*
X585880D02*
X598880D01*
X585880Y88317D02*
X598880D01*
X585880D02*
X585880Y117317D01*
X8832Y236540D02*
X38032D01*
X38032Y185740D01*
X8832D02*
Y236540D01*
Y185740D02*
X38032D01*
X453731Y475652D02*
X482931D01*
X482931Y424852D01*
X453731Y424852D02*
Y475652D01*
Y424852D02*
X482931Y424852D01*
X69662Y287872D02*
Y383872D01*
X-70338D02*
X69662D01*
X-70338Y287872D02*
X69662D01*
X-70338D02*
Y383872D01*
X595540Y444304D02*
X612540D01*
X595540Y415804D02*
X612540D01*
Y444304D01*
X595540Y415804D02*
Y444304D01*
X516878Y86339D02*
X516878Y246339D01*
X216878Y86339D02*
Y246339D01*
Y86339D02*
X516878Y86339D01*
X216878Y246339D02*
X516878D01*
X359500Y276770D02*
Y291765D01*
X366998D01*
X369497Y289266D01*
Y284268D01*
X366998Y281768D01*
X359500D01*
X374495Y276770D02*
X379493D01*
X376994D01*
Y291765D01*
X374495Y289266D01*
X386991D02*
X389490Y291765D01*
X394489D01*
X396988Y289266D01*
Y279269D01*
X394489Y276770D01*
X389490D01*
X386991Y279269D01*
Y289266D01*
X401986Y291765D02*
X411983D01*
Y289266D01*
X401986Y279269D01*
Y276770D01*
X244682Y33790D02*
Y48785D01*
X252180D01*
X254679Y46286D01*
Y41288D01*
X252180Y38788D01*
X244682D01*
X259677Y33790D02*
X264676D01*
X262176D01*
Y48785D01*
X259677Y46286D01*
X272173D02*
X274672Y48785D01*
X279671D01*
X282170Y46286D01*
Y36289D01*
X279671Y33790D01*
X274672D01*
X272173Y36289D01*
Y46286D01*
X297165Y48785D02*
X287168D01*
Y41288D01*
X292167Y43787D01*
X294666D01*
X297165Y41288D01*
Y36289D01*
X294666Y33790D01*
X289667D01*
X287168Y36289D01*
X277204Y187104D02*
Y174407D01*
X278050Y171868D01*
X279743Y170175D01*
X282283Y169328D01*
X283976D01*
X286515Y170175D01*
X288208Y171868D01*
X289055Y174407D01*
Y187104D01*
X304122Y184565D02*
X303276Y186258D01*
X300736Y187104D01*
X299043D01*
X296504Y186258D01*
X294811Y183718D01*
X293964Y179486D01*
Y175253D01*
X294811Y171868D01*
X296504Y170175D01*
X299043Y169328D01*
X299890D01*
X302429Y170175D01*
X304122Y171868D01*
X304969Y174407D01*
Y175253D01*
X304122Y177793D01*
X302429Y179486D01*
X299890Y180332D01*
X299043D01*
X296504Y179486D01*
X294811Y177793D01*
X293964Y175253D01*
X119550Y470788D02*
Y459958D01*
X121716Y457792D01*
X126048D01*
X128214Y459958D01*
Y470788D01*
X132546Y468622D02*
X134712Y470788D01*
X139044D01*
X141210Y468622D01*
Y466456D01*
X139044Y464290D01*
X141210Y462124D01*
Y459958D01*
X139044Y457792D01*
X134712D01*
X132546Y459958D01*
Y462124D01*
X134712Y464290D01*
X132546Y466456D01*
Y468622D01*
X134712Y464290D02*
X139044D01*
X716000Y512123D02*
G03*
X777123Y451000I61123J0D01*
G01*
X0Y23877D02*
G03*
X-61123Y85000I-61123J-0D01*
G01*
X-85000Y536000D02*
X716000D01*
X0Y0D02*
X801000D01*
X-85000Y85000D02*
X-61123D01*
X777123Y451000D02*
X801000D01*
X801000Y0D02*
Y451000D01*
X-85000Y85000D02*
Y536000D01*
X0Y0D02*
Y23877D01*
X716000Y512123D02*
Y536000D01*
D11*
X525862Y371499D02*
X557362Y371499D01*
X525862Y371499D02*
Y413999D01*
X557362Y371499D02*
Y413999D01*
X525862D02*
X557362D01*
X26342Y89408D02*
X32692D01*
X29517Y86233D02*
Y92583D01*
X107250Y444404D02*
X157250D01*
Y484404D01*
X107250Y444404D02*
Y484404D01*
X157250D01*
X532083Y489541D02*
X563583Y489541D01*
Y447041D02*
Y489541D01*
X532083Y447041D02*
X532083Y489541D01*
X532083Y447041D02*
X563583D01*
X497793Y489541D02*
X529293Y489541D01*
Y447041D02*
Y489541D01*
X497793Y489541D02*
X497793Y447041D01*
X529293Y447041D01*
X379411Y419752D02*
Y480752D01*
X440411D01*
X379411Y419752D02*
X440411D01*
Y480752D01*
X-39989Y271690D02*
Y275689D01*
X-37989D01*
X-37323Y275022D01*
Y273689D01*
X-37989Y273023D01*
X-39989D01*
X-38656D02*
X-37323Y271690D01*
X-35990Y275022D02*
X-35324Y275689D01*
X-33991D01*
X-33324Y275022D01*
Y274356D01*
X-33991Y273689D01*
X-34657D01*
X-33991D01*
X-33324Y273023D01*
Y272356D01*
X-33991Y271690D01*
X-35324D01*
X-35990Y272356D01*
X-31991Y271690D02*
X-30659D01*
X-31325D01*
Y275689D01*
X-31991Y275022D01*
X-39989Y258011D02*
Y262009D01*
X-37989D01*
X-37323Y261343D01*
Y260010D01*
X-37989Y259344D01*
X-39989D01*
X-38656D02*
X-37323Y258011D01*
X-35990Y261343D02*
X-35324Y262009D01*
X-33991D01*
X-33324Y261343D01*
Y260676D01*
X-33991Y260010D01*
X-34657D01*
X-33991D01*
X-33324Y259344D01*
Y258677D01*
X-33991Y258011D01*
X-35324D01*
X-35990Y258677D01*
X-31991Y261343D02*
X-31325Y262009D01*
X-29992D01*
X-29326Y261343D01*
Y260676D01*
X-29992Y260010D01*
X-30659D01*
X-29992D01*
X-29326Y259344D01*
Y258677D01*
X-29992Y258011D01*
X-31325D01*
X-31991Y258677D01*
X615871Y92419D02*
X611872D01*
Y94418D01*
X612539Y95085D01*
X613872D01*
X614538Y94418D01*
Y92419D01*
Y93752D02*
X615871Y95085D01*
X612539Y96418D02*
X611872Y97084D01*
Y98417D01*
X612539Y99084D01*
X613205D01*
X613872Y98417D01*
Y97751D01*
Y98417D01*
X614538Y99084D01*
X615205D01*
X615871Y98417D01*
Y97084D01*
X615205Y96418D01*
X612539Y100416D02*
X611872Y101083D01*
Y102416D01*
X612539Y103082D01*
X615205D01*
X615871Y102416D01*
Y101083D01*
X615205Y100416D01*
X612539D01*
X432290Y41290D02*
Y45289D01*
X434290D01*
X434956Y44622D01*
Y43289D01*
X434290Y42623D01*
X432290D01*
X433623D02*
X434956Y41290D01*
X438955D02*
X436289D01*
X438955Y43956D01*
Y44622D01*
X438288Y45289D01*
X436955D01*
X436289Y44622D01*
X440288Y41290D02*
X441620D01*
X440954D01*
Y45289D01*
X440288Y44622D01*
X124514Y90023D02*
Y94022D01*
X126513D01*
X127180Y93355D01*
Y92022D01*
X126513Y91356D01*
X124514D01*
X125847D02*
X127180Y90023D01*
X128513D02*
X129846D01*
X129179D01*
Y94022D01*
X128513Y93355D01*
X131845Y90690D02*
X132511Y90023D01*
X133844D01*
X134511Y90690D01*
Y93355D01*
X133844Y94022D01*
X132511D01*
X131845Y93355D01*
Y92689D01*
X132511Y92022D01*
X134511D01*
X-36994Y224094D02*
Y218096D01*
X-32995D01*
X-30996Y224094D02*
X-26997D01*
Y223094D01*
X-30996Y219096D01*
Y218096D01*
X-41088Y239304D02*
X-41755Y238637D01*
Y237304D01*
X-41088Y236638D01*
X-38423D01*
X-37756Y237304D01*
Y238637D01*
X-38423Y239304D01*
X-41088Y240637D02*
X-41755Y241303D01*
Y242636D01*
X-41088Y243302D01*
X-40422D01*
X-39755Y242636D01*
Y241970D01*
Y242636D01*
X-39089Y243302D01*
X-38423D01*
X-37756Y242636D01*
Y241303D01*
X-38423Y240637D01*
Y244635D02*
X-37756Y245302D01*
Y246635D01*
X-38423Y247301D01*
X-41088D01*
X-41755Y246635D01*
Y245302D01*
X-41088Y244635D01*
X-40422D01*
X-39755Y245302D01*
Y247301D01*
X507830Y424852D02*
Y434849D01*
X512828D01*
X514495Y433183D01*
Y429850D01*
X512828Y428184D01*
X507830D01*
X511162D02*
X514495Y424852D01*
X524491D02*
X517827D01*
X524491Y431516D01*
Y433183D01*
X522825Y434849D01*
X519493D01*
X517827Y433183D01*
X527824Y426518D02*
X529490Y424852D01*
X532822D01*
X534488Y426518D01*
Y433183D01*
X532822Y434849D01*
X529490D01*
X527824Y433183D01*
Y431516D01*
X529490Y429850D01*
X534488D01*
X537360Y396099D02*
X535694Y397765D01*
X532362D01*
X530696Y396099D01*
Y389434D01*
X532362Y387768D01*
X535694D01*
X537360Y389434D01*
X547357Y387768D02*
X540693D01*
X547357Y394432D01*
Y396099D01*
X545691Y397765D01*
X542359D01*
X540693Y396099D01*
X550690Y387768D02*
X554022D01*
X552356D01*
Y397765D01*
X550690Y396099D01*
X52146Y108994D02*
Y112992D01*
X54145D01*
X54812Y112326D01*
Y110993D01*
X54145Y110326D01*
X52146D01*
X53479D02*
X54812Y108994D01*
X58811D02*
X56145D01*
X58811Y111659D01*
Y112326D01*
X58144Y112992D01*
X56811D01*
X56145Y112326D01*
X60143D02*
X60810Y112992D01*
X62143D01*
X62809Y112326D01*
Y111659D01*
X62143Y110993D01*
X62809Y110326D01*
Y109660D01*
X62143Y108994D01*
X60810D01*
X60143Y109660D01*
Y110326D01*
X60810Y110993D01*
X60143Y111659D01*
Y112326D01*
X60810Y110993D02*
X62143D01*
X19086Y159765D02*
Y163764D01*
X21085D01*
X21752Y163098D01*
Y161765D01*
X21085Y161098D01*
X19086D01*
X20419D02*
X21752Y159765D01*
X25751D02*
X23085D01*
X25751Y162431D01*
Y163098D01*
X25084Y163764D01*
X23751D01*
X23085Y163098D01*
X27083Y163764D02*
X29749D01*
Y163098D01*
X27083Y160432D01*
Y159765D01*
X17017Y202856D02*
X27014D01*
Y207854D01*
X25348Y209520D01*
X18683D01*
X17017Y207854D01*
Y202856D01*
X27014Y212853D02*
Y216185D01*
Y214519D01*
X17017D01*
X18683Y212853D01*
X27014Y227848D02*
Y221183D01*
X20350Y227848D01*
X18683D01*
X17017Y226182D01*
Y222850D01*
X18683Y221183D01*
X5502Y142022D02*
X4836Y141355D01*
Y140022D01*
X5502Y139356D01*
X8168D01*
X8834Y140022D01*
Y141355D01*
X8168Y142022D01*
X8834Y146020D02*
Y143355D01*
X6169Y146020D01*
X5502D01*
X4836Y145354D01*
Y144021D01*
X5502Y143355D01*
Y147353D02*
X4836Y148020D01*
Y149353D01*
X5502Y150019D01*
X8168D01*
X8834Y149353D01*
Y148020D01*
X8168Y147353D01*
X5502D01*
X140552Y398690D02*
X136553D01*
Y400689D01*
X137220Y401356D01*
X138553D01*
X139219Y400689D01*
Y398690D01*
Y400023D02*
X140552Y401356D01*
Y405354D02*
Y402689D01*
X137886Y405354D01*
X137220D01*
X136553Y404688D01*
Y403355D01*
X137220Y402689D01*
X136553Y409353D02*
X137220Y408020D01*
X138553Y406687D01*
X139886D01*
X140552Y407354D01*
Y408687D01*
X139886Y409353D01*
X139219D01*
X138553Y408687D01*
Y406687D01*
X128106Y398690D02*
X124107D01*
Y400689D01*
X124774Y401356D01*
X126107D01*
X126773Y400689D01*
Y398690D01*
Y400023D02*
X128106Y401356D01*
Y405354D02*
Y402689D01*
X125440Y405354D01*
X124774D01*
X124107Y404688D01*
Y403355D01*
X124774Y402689D01*
X124107Y409353D02*
Y406687D01*
X126107D01*
X125440Y408020D01*
Y408687D01*
X126107Y409353D01*
X127439D01*
X128106Y408687D01*
Y407354D01*
X127439Y406687D01*
X115152Y399452D02*
X111153D01*
Y401451D01*
X111820Y402118D01*
X113153D01*
X113819Y401451D01*
Y399452D01*
Y400785D02*
X115152Y402118D01*
Y403451D02*
Y404784D01*
Y404117D01*
X111153D01*
X111820Y403451D01*
Y406783D02*
X111153Y407449D01*
Y408782D01*
X111820Y409449D01*
X112486D01*
X113153Y408782D01*
Y408116D01*
Y408782D01*
X113819Y409449D01*
X114486D01*
X115152Y408782D01*
Y407449D01*
X114486Y406783D01*
X164543Y143977D02*
X168775D01*
X166659D01*
Y137629D01*
X170891D02*
Y143977D01*
X174065D01*
X175123Y142919D01*
Y140803D01*
X174065Y139745D01*
X170891D01*
X177239Y143977D02*
X181471D01*
Y142919D01*
X177239Y138687D01*
Y137629D01*
X326734Y342808D02*
X330966D01*
X328850D01*
Y336460D01*
X333082D02*
Y342808D01*
X336256D01*
X337314Y341750D01*
Y339634D01*
X336256Y338576D01*
X333082D01*
X343662Y342808D02*
X339430D01*
Y339634D01*
X341546Y340692D01*
X342604D01*
X343662Y339634D01*
Y337518D01*
X342604Y336460D01*
X340488D01*
X339430Y337518D01*
X162730Y484714D02*
X166962D01*
X164846D01*
Y478366D01*
X169078D02*
Y484714D01*
X172252D01*
X173310Y483656D01*
Y481540D01*
X172252Y480482D01*
X169078D01*
X178600Y478366D02*
Y484714D01*
X175426Y481540D01*
X179658D01*
X163810Y518058D02*
X168042D01*
X165926D01*
Y511710D01*
X170158D02*
Y518058D01*
X173332D01*
X174390Y517000D01*
Y514884D01*
X173332Y513826D01*
X170158D01*
X176506Y517000D02*
X177564Y518058D01*
X179680D01*
X180738Y517000D01*
Y515942D01*
X179680Y514884D01*
X178622D01*
X179680D01*
X180738Y513826D01*
Y512768D01*
X179680Y511710D01*
X177564D01*
X176506Y512768D01*
X349848Y473618D02*
X354080D01*
X351964D01*
Y467270D01*
X356196D02*
Y473618D01*
X359370D01*
X360428Y472560D01*
Y470444D01*
X359370Y469386D01*
X356196D01*
X366776Y467270D02*
X362544D01*
X366776Y471502D01*
Y472560D01*
X365718Y473618D01*
X363602D01*
X362544Y472560D01*
X596228Y386720D02*
X600460D01*
X598344D01*
Y380372D01*
X602576D02*
Y386720D01*
X605750D01*
X606808Y385662D01*
Y383546D01*
X605750Y382488D01*
X602576D01*
X608924Y380372D02*
X611040D01*
X609982D01*
Y386720D01*
X608924Y385662D01*
X462279Y444664D02*
X472276D01*
Y449662D01*
X470610Y451329D01*
X463945D01*
X462279Y449662D01*
Y444664D01*
X472276Y461325D02*
Y454661D01*
X465611Y461325D01*
X463945D01*
X462279Y459659D01*
Y456327D01*
X463945Y454661D01*
X222420Y492271D02*
Y488938D01*
X223086Y488272D01*
X224419D01*
X225086Y488938D01*
Y492271D01*
X226419Y488272D02*
X227752D01*
X227085D01*
Y492271D01*
X226419Y491604D01*
X232417Y488272D02*
X229751D01*
X232417Y490938D01*
Y491604D01*
X231750Y492271D01*
X230417D01*
X229751Y491604D01*
X447640Y385736D02*
X452718D01*
Y388275D01*
X451872Y389122D01*
X448486D01*
X447640Y388275D01*
Y385736D01*
X451872Y390814D02*
X452718Y391661D01*
Y393354D01*
X451872Y394200D01*
X448486D01*
X447640Y393354D01*
Y391661D01*
X448486Y390814D01*
X449332D01*
X450179Y391661D01*
Y394200D01*
X373473Y334876D02*
X369474D01*
Y336875D01*
X370141Y337542D01*
X371474D01*
X372140Y336875D01*
Y334876D01*
Y336209D02*
X373473Y337542D01*
Y338874D02*
Y340207D01*
Y339541D01*
X369474D01*
X370141Y338874D01*
X369474Y342207D02*
Y344872D01*
X370141D01*
X372807Y342207D01*
X373473D01*
X362697Y367541D02*
X367696D01*
Y370040D01*
X366862Y370873D01*
X363530D01*
X362697Y370040D01*
Y367541D01*
Y372539D02*
Y375871D01*
X363530D01*
X366862Y372539D01*
X367696D01*
X99085Y272690D02*
Y276688D01*
X98085Y277688D01*
X96086D01*
X95086Y276688D01*
Y272690D01*
X96086Y271690D01*
X98085D01*
X97085Y273689D02*
X99085Y271690D01*
X98085D02*
X99085Y272690D01*
X105083Y271690D02*
X101084D01*
X105083Y275689D01*
Y276688D01*
X104083Y277688D01*
X102084D01*
X101084Y276688D01*
X182588Y51502D02*
X181921Y52169D01*
X180588D01*
X179922Y51502D01*
Y48836D01*
X180588Y48170D01*
X181921D01*
X182588Y48836D01*
X183921Y52169D02*
X186586D01*
Y51502D01*
X183921Y48836D01*
Y48170D01*
X491580Y342810D02*
X485582D01*
Y345809D01*
X486582Y346809D01*
X488581D01*
X489581Y345809D01*
Y342810D01*
Y344809D02*
X491580Y346809D01*
Y352807D02*
Y348808D01*
X487581Y352807D01*
X486582D01*
X485582Y351807D01*
Y349808D01*
X486582Y348808D01*
X446557Y496652D02*
X445557Y497652D01*
X443558D01*
X442558Y496652D01*
Y492654D01*
X443558Y491654D01*
X445557D01*
X446557Y492654D01*
X452555Y491654D02*
X448556D01*
X452555Y495653D01*
Y496652D01*
X451555Y497652D01*
X449556D01*
X448556Y496652D01*
X405340Y34534D02*
X401342D01*
Y36533D01*
X402008Y37200D01*
X403341D01*
X404007Y36533D01*
Y34534D01*
Y35867D02*
X405340Y37200D01*
Y38533D02*
Y39866D01*
Y39199D01*
X401342D01*
X402008Y38533D01*
X401342Y44531D02*
X402008Y43198D01*
X403341Y41865D01*
X404674D01*
X405340Y42531D01*
Y43864D01*
X404674Y44531D01*
X404007D01*
X403341Y43864D01*
Y41865D01*
X177389Y66923D02*
X187385D01*
Y73587D01*
Y83584D02*
Y76919D01*
X180721Y83584D01*
X179055D01*
X177389Y81918D01*
Y78586D01*
X179055Y76919D01*
X389824Y39001D02*
X389157Y38335D01*
Y37002D01*
X389824Y36335D01*
X392490D01*
X393156Y37002D01*
Y38335D01*
X392490Y39001D01*
Y40334D02*
X393156Y41000D01*
Y42333D01*
X392490Y43000D01*
X389824D01*
X389157Y42333D01*
Y41000D01*
X389824Y40334D01*
X390490D01*
X391157Y41000D01*
Y43000D01*
X375204Y367359D02*
X380202D01*
Y369858D01*
X379369Y370691D01*
X376037D01*
X375204Y369858D01*
Y367359D01*
Y375690D02*
X376037Y374024D01*
X377703Y372357D01*
X379369D01*
X380202Y373190D01*
Y374857D01*
X379369Y375690D01*
X378536D01*
X377703Y374857D01*
Y372357D01*
X548536Y472045D02*
X546870Y473711D01*
X543538D01*
X541872Y472045D01*
Y465380D01*
X543538Y463714D01*
X546870D01*
X548536Y465380D01*
X551869Y463714D02*
X555201D01*
X553535D01*
Y473711D01*
X551869Y472045D01*
X366104Y33184D02*
X362105D01*
Y35183D01*
X362772Y35850D01*
X364105D01*
X364771Y35183D01*
Y33184D01*
Y34517D02*
X366104Y35850D01*
X362772Y37183D02*
X362105Y37849D01*
Y39182D01*
X362772Y39848D01*
X363438D01*
X364105Y39182D01*
Y38516D01*
Y39182D01*
X364771Y39848D01*
X365438D01*
X366104Y39182D01*
Y37849D01*
X365438Y37183D01*
X362105Y41181D02*
Y43847D01*
X362772D01*
X365438Y41181D01*
X366104D01*
X514082Y342148D02*
X508084D01*
Y345147D01*
X509084Y346147D01*
X511083D01*
X512083Y345147D01*
Y342148D01*
Y344147D02*
X514082Y346147D01*
X509084Y348146D02*
X508084Y349146D01*
Y351145D01*
X509084Y352145D01*
X510084D01*
X511083Y351145D01*
Y350145D01*
Y351145D01*
X512083Y352145D01*
X513083D01*
X514082Y351145D01*
Y349146D01*
X513083Y348146D01*
X503264Y399035D02*
Y390704D01*
X504930Y389038D01*
X508262D01*
X509929Y390704D01*
Y399035D01*
X513261Y389038D02*
X516593D01*
X514927D01*
Y399035D01*
X513261Y397369D01*
X470792Y391767D02*
X469792Y390767D01*
Y388768D01*
X470792Y387768D01*
X474790D01*
X475790Y388768D01*
Y390767D01*
X474790Y391767D01*
X470792Y393766D02*
X469792Y394766D01*
Y396765D01*
X470792Y397765D01*
X471791D01*
X472791Y396765D01*
Y395765D01*
Y396765D01*
X473791Y397765D01*
X474790D01*
X475790Y396765D01*
Y394766D01*
X474790Y393766D01*
X61384Y218350D02*
Y212352D01*
X64383D01*
X65383Y213352D01*
Y217350D01*
X64383Y218350D01*
X61384D01*
X67382Y217350D02*
X68382Y218350D01*
X70381D01*
X71381Y217350D01*
Y216351D01*
X70381Y215351D01*
X69381D01*
X70381D01*
X71381Y214351D01*
Y213352D01*
X70381Y212352D01*
X68382D01*
X67382Y213352D01*
X93642Y211336D02*
X89643D01*
Y213335D01*
X90310Y214002D01*
X91643D01*
X92309Y213335D01*
Y211336D01*
Y212669D02*
X93642Y214002D01*
X89643Y215335D02*
Y218001D01*
X90310D01*
X92976Y215335D01*
X93642D01*
X109898Y103640D02*
Y107639D01*
X111897D01*
X112564Y106972D01*
Y105639D01*
X111897Y104973D01*
X109898D01*
X111231D02*
X112564Y103640D01*
X113897Y106972D02*
X114563Y107639D01*
X115896D01*
X116562Y106972D01*
Y106306D01*
X115896Y105639D01*
X116562Y104973D01*
Y104306D01*
X115896Y103640D01*
X114563D01*
X113897Y104306D01*
Y104973D01*
X114563Y105639D01*
X113897Y106306D01*
Y106972D01*
X114563Y105639D02*
X115896D01*
X105290Y235222D02*
Y239221D01*
X107289D01*
X107956Y238554D01*
Y237222D01*
X107289Y236555D01*
X105290D01*
X106623D02*
X107956Y235222D01*
X109289Y235889D02*
X109955Y235222D01*
X111288D01*
X111954Y235889D01*
Y238554D01*
X111288Y239221D01*
X109955D01*
X109289Y238554D01*
Y237888D01*
X109955Y237222D01*
X111954D01*
X135044Y103386D02*
Y107385D01*
X137043D01*
X137710Y106718D01*
Y105385D01*
X137043Y104719D01*
X135044D01*
X136377D02*
X137710Y103386D01*
X139043D02*
X140376D01*
X139709D01*
Y107385D01*
X139043Y106718D01*
X142375D02*
X143041Y107385D01*
X144374D01*
X145041Y106718D01*
Y104052D01*
X144374Y103386D01*
X143041D01*
X142375Y104052D01*
Y106718D01*
X138092Y210066D02*
X134093D01*
Y212065D01*
X134760Y212732D01*
X136093D01*
X136759Y212065D01*
Y210066D01*
Y211399D02*
X138092Y212732D01*
Y214065D02*
Y215398D01*
Y214731D01*
X134093D01*
X134760Y214065D01*
X138092Y217397D02*
Y218730D01*
Y218063D01*
X134093D01*
X134760Y217397D01*
X111266Y208542D02*
X116264D01*
X117264Y209542D01*
Y211541D01*
X116264Y212541D01*
X111266D01*
X117264Y218539D02*
Y214540D01*
X113265Y218539D01*
X112266D01*
X111266Y217539D01*
Y215540D01*
X112266Y214540D01*
X87644Y148088D02*
X92642D01*
X93642Y149088D01*
Y151087D01*
X92642Y152087D01*
X87644D01*
X88644Y154086D02*
X87644Y155086D01*
Y157085D01*
X88644Y158085D01*
X89643D01*
X90643Y157085D01*
Y156086D01*
Y157085D01*
X91643Y158085D01*
X92642D01*
X93642Y157085D01*
Y155086D01*
X92642Y154086D01*
X134126Y149106D02*
X139124D01*
X140124Y150106D01*
Y152105D01*
X139124Y153105D01*
X134126D01*
X140124Y158103D02*
X134126D01*
X137125Y155104D01*
Y159103D01*
X513231Y471283D02*
X511564Y472949D01*
X508232D01*
X506566Y471283D01*
Y464618D01*
X508232Y462952D01*
X511564D01*
X513231Y464618D01*
X521561Y462952D02*
Y472949D01*
X516563Y467950D01*
X523227D01*
X822Y412278D02*
X155Y411611D01*
Y410279D01*
X822Y409612D01*
X3487D01*
X4154Y410279D01*
Y411611D01*
X3487Y412278D01*
X155Y416277D02*
X822Y414944D01*
X2155Y413611D01*
X3487D01*
X4154Y414277D01*
Y415610D01*
X3487Y416277D01*
X2821D01*
X2155Y415610D01*
Y413611D01*
X-55200Y409104D02*
X-50202D01*
Y411603D01*
X-51035Y412436D01*
X-54367D01*
X-55200Y411603D01*
Y409104D01*
X-50202Y416602D02*
X-55200D01*
X-52701Y414102D01*
Y417435D01*
X-43342Y449236D02*
X-38264D01*
Y451775D01*
X-39110Y452622D01*
X-42496D01*
X-43342Y451775D01*
Y449236D01*
Y457700D02*
Y454314D01*
X-40803D01*
X-41650Y456007D01*
Y456853D01*
X-40803Y457700D01*
X-39110D01*
X-38264Y456853D01*
Y455161D01*
X-39110Y454314D01*
X193210Y495892D02*
Y499891D01*
X195209D01*
X195876Y499224D01*
Y497891D01*
X195209Y497225D01*
X193210D01*
X194543D02*
X195876Y495892D01*
X197209Y499224D02*
X197875Y499891D01*
X199208D01*
X199874Y499224D01*
Y498558D01*
X199208Y497891D01*
X198542D01*
X199208D01*
X199874Y497225D01*
Y496558D01*
X199208Y495892D01*
X197875D01*
X197209Y496558D01*
X203873Y499891D02*
X202540Y499224D01*
X201207Y497891D01*
Y496558D01*
X201874Y495892D01*
X203207D01*
X203873Y496558D01*
Y497225D01*
X203207Y497891D01*
X201207D01*
X574600Y310779D02*
X568602D01*
Y313778D01*
X569602Y314778D01*
X571601D01*
X572601Y313778D01*
Y310779D01*
Y312778D02*
X574600Y314778D01*
Y320776D02*
Y316777D01*
X570601Y320776D01*
X569602D01*
X568602Y319776D01*
Y317777D01*
X569602Y316777D01*
Y322775D02*
X568602Y323775D01*
Y325774D01*
X569602Y326774D01*
X573600D01*
X574600Y325774D01*
Y323775D01*
X573600Y322775D01*
X569602D01*
X-35470Y410628D02*
X-39469D01*
Y412627D01*
X-38802Y413294D01*
X-37469D01*
X-36803Y412627D01*
Y410628D01*
Y411961D02*
X-35470Y413294D01*
Y414627D02*
Y415960D01*
Y415293D01*
X-39469D01*
X-38802Y414627D01*
X-35470Y419958D02*
X-39469D01*
X-37469Y417959D01*
Y420625D01*
X-22795Y455997D02*
Y459996D01*
X-20795D01*
X-20129Y459329D01*
Y457996D01*
X-20795Y457330D01*
X-22795D01*
X-21462D02*
X-20129Y455997D01*
X-18796D02*
X-17463D01*
X-18130D01*
Y459996D01*
X-18796Y459329D01*
X-12798Y459996D02*
X-15464D01*
Y457996D01*
X-14131Y458663D01*
X-13464D01*
X-12798Y457996D01*
Y456664D01*
X-13464Y455997D01*
X-14797D01*
X-15464Y456664D01*
X340040Y316817D02*
X338041D01*
X339041D01*
Y311819D01*
X338041Y310819D01*
X337041D01*
X336042Y311819D01*
X345039Y310819D02*
Y316817D01*
X342040Y313818D01*
X346039D01*
X533789Y315349D02*
X532789Y314350D01*
Y312350D01*
X533789Y311351D01*
X537787D01*
X538787Y312350D01*
Y314350D01*
X537787Y315349D01*
X538787Y317349D02*
Y319348D01*
Y318348D01*
X532789D01*
X533789Y317349D01*
X538787Y322347D02*
Y324347D01*
Y323347D01*
X532789D01*
X533789Y322347D01*
X599276Y428564D02*
Y422566D01*
X602275D01*
X603275Y423566D01*
Y427564D01*
X602275Y428564D01*
X599276D01*
X605274Y422566D02*
X607273D01*
X606274D01*
Y428564D01*
X605274Y427564D01*
X570643Y273238D02*
X564645D01*
Y276237D01*
X565645Y277236D01*
X567644D01*
X568644Y276237D01*
Y273238D01*
Y275237D02*
X570643Y277236D01*
Y283235D02*
Y279236D01*
X566644Y283235D01*
X565645D01*
X564645Y282235D01*
Y280236D01*
X565645Y279236D01*
Y285234D02*
X564645Y286234D01*
Y288233D01*
X565645Y289233D01*
X566644D01*
X567644Y288233D01*
Y287233D01*
Y288233D01*
X568644Y289233D01*
X569643D01*
X570643Y288233D01*
Y286234D01*
X569643Y285234D01*
X382925Y334991D02*
X378926D01*
Y336991D01*
X379593Y337657D01*
X380926D01*
X381592Y336991D01*
Y334991D01*
Y336324D02*
X382925Y337657D01*
Y338990D02*
Y340323D01*
Y339656D01*
X378926D01*
X379593Y338990D01*
Y342322D02*
X378926Y342989D01*
Y344322D01*
X379593Y344988D01*
X380259D01*
X380926Y344322D01*
X381592Y344988D01*
X382259D01*
X382925Y344322D01*
Y342989D01*
X382259Y342322D01*
X381592D01*
X380926Y342989D01*
X380259Y342322D01*
X379593D01*
X380926Y342989D02*
Y344322D01*
X552435Y273750D02*
X546437D01*
Y276749D01*
X547437Y277749D01*
X549436D01*
X550436Y276749D01*
Y273750D01*
Y275749D02*
X552435Y277749D01*
Y283747D02*
Y279748D01*
X548436Y283747D01*
X547437D01*
X546437Y282747D01*
Y280748D01*
X547437Y279748D01*
X552435Y288745D02*
X546437D01*
X549436Y285746D01*
Y289745D01*
X379058Y33790D02*
X375059D01*
Y35789D01*
X375726Y36456D01*
X377059D01*
X377725Y35789D01*
Y33790D01*
Y35123D02*
X379058Y36456D01*
X375726Y37789D02*
X375059Y38455D01*
Y39788D01*
X375726Y40455D01*
X376392D01*
X377059Y39788D01*
Y39122D01*
Y39788D01*
X377725Y40455D01*
X378391D01*
X379058Y39788D01*
Y38455D01*
X378391Y37789D01*
X375726Y41787D02*
X375059Y42454D01*
Y43787D01*
X375726Y44453D01*
X376392D01*
X377059Y43787D01*
X377725Y44453D01*
X378391D01*
X379058Y43787D01*
Y42454D01*
X378391Y41787D01*
X377725D01*
X377059Y42454D01*
X376392Y41787D01*
X375726D01*
X377059Y42454D02*
Y43787D01*
X557362Y310779D02*
X551364D01*
Y313778D01*
X552364Y314778D01*
X554363D01*
X555363Y313778D01*
Y310779D01*
Y312778D02*
X557362Y314778D01*
Y320776D02*
Y316777D01*
X553363Y320776D01*
X552364D01*
X551364Y319776D01*
Y317777D01*
X552364Y316777D01*
X557362Y326774D02*
Y322775D01*
X553363Y326774D01*
X552364D01*
X551364Y325774D01*
Y323775D01*
X552364Y322775D01*
X528815Y278471D02*
X527815Y277471D01*
Y275472D01*
X528815Y274472D01*
X532813D01*
X533813Y275472D01*
Y277471D01*
X532813Y278471D01*
X533813Y280470D02*
Y282469D01*
Y281470D01*
X527815D01*
X528815Y280470D01*
X533813Y289467D02*
Y285468D01*
X529814Y289467D01*
X528815D01*
X527815Y288468D01*
Y286468D01*
X528815Y285468D01*
X444410Y520825D02*
X443410Y521825D01*
X441411D01*
X440411Y520825D01*
Y516826D01*
X441411Y515827D01*
X443410D01*
X444410Y516826D01*
X446409Y515827D02*
X448409D01*
X447409D01*
Y521825D01*
X446409Y520825D01*
X451408D02*
X452407Y521825D01*
X454407D01*
X455406Y520825D01*
Y519825D01*
X454407Y518826D01*
X453407D01*
X454407D01*
X455406Y517826D01*
Y516826D01*
X454407Y515827D01*
X452407D01*
X451408Y516826D01*
X229248Y456742D02*
X228581Y456075D01*
Y454743D01*
X229248Y454076D01*
X231914D01*
X232580Y454743D01*
Y456075D01*
X231914Y456742D01*
X229248Y458075D02*
X228581Y458741D01*
Y460074D01*
X229248Y460741D01*
X229914D01*
X230581Y460074D01*
Y459408D01*
Y460074D01*
X231247Y460741D01*
X231914D01*
X232580Y460074D01*
Y458741D01*
X231914Y458075D01*
X232580Y464073D02*
X228581D01*
X230581Y462073D01*
Y464739D01*
X233031Y517227D02*
X232365Y516560D01*
Y515228D01*
X233031Y514561D01*
X235697D01*
X236363Y515228D01*
Y516560D01*
X235697Y517227D01*
X233031Y518560D02*
X232365Y519226D01*
Y520559D01*
X233031Y521226D01*
X233697D01*
X234364Y520559D01*
Y519893D01*
Y520559D01*
X235030Y521226D01*
X235697D01*
X236363Y520559D01*
Y519226D01*
X235697Y518560D01*
X232365Y525224D02*
Y522558D01*
X234364D01*
X233697Y523891D01*
Y524558D01*
X234364Y525224D01*
X235697D01*
X236363Y524558D01*
Y523225D01*
X235697Y522558D01*
X169732Y441234D02*
X169065Y440567D01*
Y439235D01*
X169732Y438568D01*
X172397D01*
X173064Y439235D01*
Y440567D01*
X172397Y441234D01*
X169732Y442567D02*
X169065Y443233D01*
Y444566D01*
X169732Y445233D01*
X170398D01*
X171065Y444566D01*
Y443900D01*
Y444566D01*
X171731Y445233D01*
X172397D01*
X173064Y444566D01*
Y443233D01*
X172397Y442567D01*
X169065Y446565D02*
Y449231D01*
X169732D01*
X172397Y446565D01*
X173064D01*
X252146Y508294D02*
Y512293D01*
X254145D01*
X254811Y511627D01*
Y510294D01*
X254145Y509627D01*
X252146D01*
X253478D02*
X254811Y508294D01*
X256144Y511627D02*
X256811Y512293D01*
X258144D01*
X258810Y511627D01*
Y510960D01*
X258144Y510294D01*
X257477D01*
X258144D01*
X258810Y509627D01*
Y508961D01*
X258144Y508294D01*
X256811D01*
X256144Y508961D01*
X260143D02*
X260809Y508294D01*
X262142D01*
X262809Y508961D01*
Y511627D01*
X262142Y512293D01*
X260809D01*
X260143Y511627D01*
Y510960D01*
X260809Y510294D01*
X262809D01*
X251710Y474850D02*
Y478849D01*
X253709D01*
X254376Y478182D01*
Y476849D01*
X253709Y476183D01*
X251710D01*
X253043D02*
X254376Y474850D01*
X257708D02*
Y478849D01*
X255709Y476849D01*
X258375D01*
X259707Y478182D02*
X260374Y478849D01*
X261707D01*
X262373Y478182D01*
Y475516D01*
X261707Y474850D01*
X260374D01*
X259707Y475516D01*
Y478182D01*
X252146Y490558D02*
Y494557D01*
X254145D01*
X254811Y493890D01*
Y492557D01*
X254145Y491891D01*
X252146D01*
X253478D02*
X254811Y490558D01*
X258144D02*
Y494557D01*
X256144Y492557D01*
X258810D01*
X260143Y490558D02*
X261476D01*
X260809D01*
Y494557D01*
X260143Y493890D01*
X594757Y321348D02*
X601422D01*
X598089D01*
Y311351D01*
X611418D02*
X604754D01*
X611418Y318015D01*
Y319681D01*
X609752Y321348D01*
X606420D01*
X604754Y319681D01*
X392898Y336566D02*
X388900D01*
Y338565D01*
X389566Y339231D01*
X390899D01*
X391565Y338565D01*
Y336566D01*
Y337898D02*
X392898Y339231D01*
Y340564D02*
Y341897D01*
Y341231D01*
X388900D01*
X389566Y340564D01*
X388223Y365662D02*
X393301D01*
Y368202D01*
X392454Y369048D01*
X389069D01*
X388223Y368202D01*
Y365662D01*
X393301Y370741D02*
Y372434D01*
Y371587D01*
X388223D01*
X389069Y370741D01*
Y374973D02*
X388223Y375819D01*
Y377512D01*
X389069Y378358D01*
X392454D01*
X393301Y377512D01*
Y375819D01*
X392454Y374973D01*
X389069D01*
X87929Y97417D02*
Y101649D01*
Y99533D01*
X94277D01*
Y103765D02*
X87929D01*
Y106939D01*
X88987Y107997D01*
X91103D01*
X92161Y106939D01*
Y103765D01*
X87929Y114345D02*
X88987Y112229D01*
X91103Y110113D01*
X93219D01*
X94277Y111171D01*
Y113287D01*
X93219Y114345D01*
X92161D01*
X91103Y113287D01*
Y110113D01*
D12*
X500122Y283910D02*
G03*
X500122Y283910I-1270J0D01*
G01*
X592380Y112977D02*
G03*
X592380Y112977I-1270J0D01*
G01*
D14*
X693002Y113956D02*
Y143946D01*
X707997D01*
X712996Y138948D01*
Y128951D01*
X707997Y123953D01*
X693002D01*
X742986Y113956D02*
X722992D01*
X742986Y133949D01*
Y138948D01*
X737987Y143946D01*
X727991D01*
X722992Y138948D01*
X711036Y347382D02*
Y377372D01*
X726031D01*
X731030Y372374D01*
Y362377D01*
X726031Y357379D01*
X711036D01*
X741026Y347382D02*
X751023D01*
X746025D01*
Y377372D01*
X741026Y372374D01*
D15*
X104836Y436464D02*
G03*
X104836Y436464I-1796J0D01*
G01*
X61892Y367622D02*
G03*
X61892Y367622I-1270J0D01*
G01*
D16*
X185066Y418422D02*
G03*
X185066Y418422I-1000J0D01*
G01*
X554561Y196537D02*
X596669D01*
X530241Y252042D02*
X572349D01*
X663600Y7610D02*
Y232610D01*
Y7610D02*
X783600D01*
X663600Y232610D02*
X783600D01*
Y7610D02*
Y232610D01*
X663600Y272606D02*
Y427606D01*
Y272606D02*
X783600D01*
Y427606D01*
X663600D02*
X783600D01*
X308482Y271340D02*
X308482Y296240D01*
X460882Y296240D01*
Y271340D02*
Y296240D01*
X308482Y271340D02*
X460882D01*
X350882Y28840D02*
X350882Y53740D01*
X198482Y28840D02*
X350882Y28840D01*
X198482Y28840D02*
Y53740D01*
X350882D01*
X-34708Y231888D02*
Y251888D01*
X-44708D02*
X-34708D01*
X-44708Y231888D02*
Y251888D01*
Y231888D02*
X-34708D01*
X160000Y313688D02*
X312400Y313688D01*
Y364488D01*
X160000Y313688D02*
Y364488D01*
X312400D01*
X500210Y420358D02*
Y440678D01*
X543390D01*
X500210Y420358D02*
X543390D01*
Y440678D01*
X1868Y133050D02*
X11868D01*
X1868D02*
Y153050D01*
X11868D01*
Y133050D02*
Y153050D01*
X359062Y361045D02*
X371762Y361045D01*
X359062Y361045D02*
Y381366D01*
X371762Y381366D02*
X371762Y361045D01*
X359062Y381366D02*
X371762Y381366D01*
X371762Y383905D01*
X359062Y381366D02*
X359062Y383905D01*
X371762Y383905D01*
X173254Y54694D02*
X193254D01*
X173254Y44694D02*
Y54694D01*
Y44694D02*
X193254D01*
Y54694D01*
X495657Y333382D02*
Y361382D01*
X481657D02*
X495657D01*
X481657Y333382D02*
Y361382D01*
Y333382D02*
X495657D01*
X428961Y484542D02*
X464521D01*
Y504862D01*
X428961D02*
X464521D01*
X428961Y484542D02*
X428961Y504862D01*
X173094Y57751D02*
X193414D01*
Y95851D01*
X173094D02*
X193414D01*
X173094Y57751D02*
X173094Y95851D01*
X395495Y29062D02*
Y49062D01*
X385495D02*
X395495D01*
X385495Y29062D02*
Y49062D01*
Y29062D02*
X395495D01*
X147521Y48032D02*
Y93752D01*
X170381D01*
Y48032D02*
Y93752D01*
X147521Y48032D02*
X170381D01*
X371768Y383933D02*
X384468Y383933D01*
X371768Y381393D02*
X371768Y383933D01*
X384468Y381393D02*
X384468Y383933D01*
X371768Y381393D02*
X384468Y381393D01*
X384468Y361073D01*
X371768Y381393D02*
X371768Y361073D01*
X384468D01*
X466411Y380372D02*
Y408372D01*
X480411D01*
X480411Y380372D01*
X466411Y380372D02*
X480411Y380372D01*
X-6434Y402674D02*
Y448394D01*
X-29294Y402674D02*
X-6434D01*
X-29294D02*
Y448394D01*
X-6434D01*
X-59266Y426042D02*
X-46566D01*
X-59266Y423502D02*
Y426042D01*
X-46566Y423502D02*
Y426042D01*
X-59266Y423502D02*
X-46566D01*
Y403182D02*
Y423502D01*
X-59266Y403182D02*
Y423502D01*
Y403182D02*
X-46566D01*
X-47261Y440702D02*
X-34561D01*
Y443242D01*
X-47261Y440702D02*
Y443242D01*
X-34561D01*
X-47261D02*
Y463562D01*
X-34561Y443242D02*
Y463562D01*
X-47261D02*
X-34561D01*
X564995Y305923D02*
X578995D01*
X564995D02*
Y333923D01*
X578995D01*
Y305923D02*
Y333923D01*
X326660Y307029D02*
X326660Y321030D01*
X354660D01*
Y307029D02*
Y321030D01*
X326660Y307029D02*
X354660Y307029D01*
X529435Y305923D02*
X543435D01*
Y333923D01*
X529435D02*
X543435D01*
X529435Y305923D02*
Y333923D01*
X559585Y267032D02*
X573585D01*
X559585D02*
Y295032D01*
X573585D01*
Y267032D02*
Y295032D01*
X542059Y267032D02*
X556059D01*
X542059D02*
Y295032D01*
X556059D01*
Y267032D02*
Y295032D01*
X547215Y333923D02*
X561215D01*
Y305923D02*
Y333923D01*
X547215Y305923D02*
X561215D01*
X547215D02*
Y333923D01*
X428961Y508672D02*
X464521D01*
Y528992D01*
X428961D02*
X464521D01*
X428961Y508672D02*
Y528992D01*
X235040Y449110D02*
Y469110D01*
X225040D02*
X235040D01*
X225040Y449110D02*
Y469110D01*
Y449110D02*
X235040D01*
X229746Y510176D02*
Y530176D01*
Y510176D02*
X239746D01*
Y530176D01*
X229746D02*
X239746D01*
X175350Y434076D02*
Y454076D01*
X165350D02*
X175350D01*
X165350Y434076D02*
Y454076D01*
Y434076D02*
X175350D01*
X384533Y383899D02*
X397233D01*
X384533Y381359D02*
X384533Y383899D01*
X397233Y381359D02*
Y383899D01*
X384533Y381359D02*
X397233Y381359D01*
X397233Y361039D01*
X384533Y361039D02*
Y381359D01*
Y361039D02*
X397233Y361039D01*
X524562Y295008D02*
X538562D01*
X504640Y360924D02*
X518640D01*
X78262Y262298D02*
X124262D01*
X78262D02*
Y288298D01*
X124262D01*
Y262298D02*
Y288298D01*
X503336Y273639D02*
X498005D01*
X496672Y272306D01*
Y269641D01*
X498005Y268308D01*
X503336D01*
X504669Y269641D01*
Y272306D01*
X502004Y270973D02*
X504669Y273639D01*
Y272306D02*
X503336Y273639D01*
X504669Y276305D02*
Y278971D01*
Y277638D01*
X496672D01*
X498005Y276305D01*
X594825Y98715D02*
X589493D01*
X588161Y97382D01*
Y94716D01*
X589493Y93383D01*
X594825D01*
X596158Y94716D01*
Y97382D01*
X593492Y96049D02*
X596158Y98715D01*
Y97382D02*
X594825Y98715D01*
X589493Y101380D02*
X588161Y102713D01*
Y105379D01*
X589493Y106712D01*
X590826D01*
X592159Y105379D01*
Y104046D01*
Y105379D01*
X593492Y106712D01*
X594825D01*
X596158Y105379D01*
Y102713D01*
X594825Y101380D01*
X-40998Y189739D02*
X-44330D01*
X-42664D01*
Y181408D01*
X-44330Y179742D01*
X-45996D01*
X-47662Y181408D01*
X-37665Y188073D02*
X-35999Y189739D01*
X-32667D01*
X-31001Y188073D01*
Y186406D01*
X-32667Y184740D01*
X-34333D01*
X-32667D01*
X-31001Y183074D01*
Y181408D01*
X-32667Y179742D01*
X-35999D01*
X-37665Y181408D01*
X483024Y164401D02*
Y161069D01*
Y162735D01*
X491354D01*
X493021Y161069D01*
Y159403D01*
X491354Y157737D01*
X493021Y174398D02*
Y167734D01*
X486356Y174398D01*
X484690D01*
X483024Y172732D01*
Y169400D01*
X484690Y167734D01*
X181780Y441119D02*
Y432788D01*
X183446Y431122D01*
X186778D01*
X188444Y432788D01*
Y441119D01*
X191777Y431122D02*
X195109D01*
X193443D01*
Y441119D01*
X191777Y439453D01*
X205106Y431122D02*
Y441119D01*
X200107Y436120D01*
X206772D01*
X398362Y460086D02*
Y440092D01*
X411691D01*
X418356D02*
X425020D01*
X421688D01*
Y460086D01*
X418356Y456753D01*
D18*
X-26708Y171912D02*
Y197912D01*
X-52708D02*
X-26708D01*
X-52708Y171912D02*
X-26708D01*
X-52708D02*
Y197912D01*
X501790Y179296D02*
X501790Y153296D01*
X475790Y179296D02*
X501790D01*
X475790Y153296D02*
X501790D01*
X475790D02*
X475790Y179296D01*
X24992Y16038D02*
X141992D01*
X24992D02*
Y84038D01*
X141992D01*
Y16038D02*
Y84038D01*
X24992Y16038D02*
X141992D01*
X24992D02*
Y84038D01*
X141992D01*
Y16038D02*
Y84038D01*
X571039Y185146D02*
X569981Y186204D01*
X567865D01*
X566807Y185146D01*
Y180914D01*
X567865Y179856D01*
X569981D01*
X571039Y180914D01*
X576329Y179856D02*
Y186204D01*
X573155Y183030D01*
X577387D01*
X579503Y185146D02*
X580561Y186204D01*
X582677D01*
X583735Y185146D01*
Y180914D01*
X582677Y179856D01*
X580561D01*
X579503Y180914D01*
Y185146D01*
X546719Y240651D02*
X545661Y241709D01*
X543545D01*
X542487Y240651D01*
Y236420D01*
X543545Y235362D01*
X545661D01*
X546719Y236420D01*
X548835Y240651D02*
X549893Y241709D01*
X552009D01*
X553067Y240651D01*
Y239594D01*
X552009Y238535D01*
X550951D01*
X552009D01*
X553067Y237477D01*
Y236420D01*
X552009Y235362D01*
X549893D01*
X548835Y236420D01*
X559415Y241709D02*
X557299Y240651D01*
X555183Y238535D01*
Y236420D01*
X556241Y235362D01*
X558357D01*
X559415Y236420D01*
Y237477D01*
X558357Y238535D01*
X555183D01*
X468974Y44358D02*
Y39068D01*
X470032Y38010D01*
X472148D01*
X473206Y39068D01*
Y44358D01*
X475322Y38010D02*
X477438D01*
X476380D01*
Y44358D01*
X475322Y43300D01*
X484844Y44358D02*
X480612D01*
Y41184D01*
X482728Y42242D01*
X483786D01*
X484844Y41184D01*
Y39068D01*
X483786Y38010D01*
X481670D01*
X480612Y39068D01*
X542931Y93957D02*
Y87609D01*
X546105D01*
X547163Y88667D01*
Y92899D01*
X546105Y93957D01*
X542931D01*
X549279Y87609D02*
X551395D01*
X550337D01*
Y93957D01*
X549279Y92899D01*
X554569D02*
X555627Y93957D01*
X557743D01*
X558801Y92899D01*
Y91841D01*
X557743Y90783D01*
X556685D01*
X557743D01*
X558801Y89725D01*
Y88667D01*
X557743Y87609D01*
X555627D01*
X554569Y88667D01*
X556028Y144010D02*
Y150357D01*
X559202D01*
X560260Y149299D01*
Y147183D01*
X559202Y146125D01*
X556028D01*
X558144D02*
X560260Y144010D01*
X562376Y149299D02*
X563434Y150357D01*
X565550D01*
X566608Y149299D01*
Y148241D01*
X565550Y147183D01*
X564492D01*
X565550D01*
X566608Y146125D01*
Y145068D01*
X565550Y144010D01*
X563434D01*
X562376Y145068D01*
X572956Y144010D02*
X568724D01*
X572956Y148241D01*
Y149299D01*
X571898Y150357D01*
X569782D01*
X568724Y149299D01*
X586375Y69795D02*
Y63447D01*
X589549D01*
X590607Y64505D01*
Y68737D01*
X589549Y69795D01*
X586375D01*
X592723Y63447D02*
X594839D01*
X593781D01*
Y69795D01*
X592723Y68737D01*
X598013Y63447D02*
X600129D01*
X599071D01*
Y69795D01*
X598013Y68737D01*
X405982Y190408D02*
Y184967D01*
X406345Y183878D01*
X407070Y183153D01*
X408159Y182790D01*
X408884D01*
X409973Y183153D01*
X410698Y183878D01*
X411061Y184967D01*
Y190408D01*
X417881Y187869D02*
X417518Y186781D01*
X416793Y186055D01*
X415704Y185692D01*
X415342D01*
X414253Y186055D01*
X413528Y186781D01*
X413165Y187869D01*
Y188232D01*
X413528Y189320D01*
X414253Y190046D01*
X415342Y190408D01*
X415704D01*
X416793Y190046D01*
X417518Y189320D01*
X417881Y187869D01*
Y186055D01*
X417518Y184241D01*
X416793Y183153D01*
X415704Y182790D01*
X414979D01*
X413891Y183153D01*
X413528Y183878D01*
D19*
X6014Y103560D02*
X38014D01*
X6014Y88560D02*
Y103560D01*
Y88560D02*
X38014D01*
Y103560D01*
X23086Y118660D02*
X37086D01*
X16086Y125660D02*
X23086Y118660D01*
X16086Y125660D02*
Y149660D01*
X37086D01*
Y118660D02*
Y149660D01*
X179226Y458202D02*
X209226D01*
X179226Y414202D02*
X209226D01*
Y458202D01*
X179226Y414202D02*
Y458202D01*
X217246Y480050D02*
Y500050D01*
X237246D01*
X217246Y480050D02*
X237246D01*
Y500050D01*
D20*
X-44628Y268642D02*
Y278642D01*
Y268642D02*
X-24628D01*
Y278642D01*
X-44628D02*
X-24628D01*
X-44628Y268642D02*
Y278642D01*
Y268642D02*
X-24628D01*
Y278642D01*
X-44628D02*
X-24628D01*
X-24628Y255096D02*
Y265096D01*
X-44628D02*
X-24628D01*
X-44628Y255096D02*
Y265096D01*
Y255096D02*
X-24628D01*
Y265096D01*
X-44628D02*
X-24628D01*
X-44628Y255096D02*
Y265096D01*
Y255096D02*
X-24628D01*
X608453Y107705D02*
X618453D01*
X608453D02*
X608453Y87705D01*
X618453D01*
X618453Y107705D02*
X618453Y87705D01*
X608453Y107705D02*
X618453D01*
X608453D02*
X608453Y87705D01*
X618453D01*
X618453Y107705D02*
X618453Y87705D01*
X426627Y38128D02*
Y48128D01*
Y38128D02*
X446627D01*
Y48128D01*
X426627D02*
X446627D01*
X426627Y38128D02*
Y48128D01*
Y38128D02*
X446627D01*
Y48128D01*
X426627D02*
X446627D01*
X122514Y87023D02*
Y97023D01*
Y87023D02*
X142514D01*
Y97023D01*
X122514D02*
X142514D01*
X122514Y87023D02*
Y97023D01*
Y87023D02*
X142514D01*
Y97023D01*
X122514D02*
X142514D01*
X-46208Y214742D02*
X-18208D01*
X-46208D02*
Y228742D01*
X-18208D01*
Y214742D02*
Y228742D01*
X-46208Y214742D02*
X-18208D01*
X-46208D02*
Y228742D01*
X-18208D01*
Y214742D02*
Y228742D01*
X47602Y115974D02*
X67602D01*
Y105974D02*
Y115974D01*
X47602Y105974D02*
X67602D01*
X47602D02*
Y115974D01*
X67602D01*
Y105974D02*
Y115974D01*
X47602Y105974D02*
X67602D01*
X47602D02*
Y115974D01*
X14086Y166923D02*
X34086D01*
Y156923D02*
Y166923D01*
X14086Y156923D02*
X34086D01*
X14086D02*
Y166923D01*
X34086D01*
Y156923D02*
Y166923D01*
X14086Y156923D02*
X34086D01*
X14086D02*
Y166923D01*
X133600Y394364D02*
Y414364D01*
X143600D01*
Y394364D02*
Y414364D01*
X133600Y394364D02*
X143600D01*
X133600D02*
Y414364D01*
X143600D01*
Y394364D02*
Y414364D01*
X133600Y394364D02*
X143600D01*
X120900D02*
Y414364D01*
X130900D01*
Y394364D02*
Y414364D01*
X120900Y394364D02*
X130900D01*
X120900D02*
Y414364D01*
X130900D01*
Y394364D02*
Y414364D01*
X120900Y394364D02*
X130900D01*
X108200D02*
Y414364D01*
X118200D01*
Y394364D02*
Y414364D01*
X108200Y394364D02*
X118200D01*
X108200D02*
Y414364D01*
X118200D01*
Y394364D02*
Y414364D01*
X108200Y394364D02*
X118200D01*
X444301Y396522D02*
X456801D01*
X456801Y379522D02*
X456801Y396522D01*
X444301Y379522D02*
Y396522D01*
Y379522D02*
X456801D01*
X375912Y350091D02*
X375912Y330091D01*
X365912D02*
X375912D01*
X365912Y350091D02*
X365912Y330091D01*
X365912Y350091D02*
X375912Y350091D01*
X375912Y330091D01*
X365912D02*
X375912D01*
X365912Y350091D02*
X365912Y330091D01*
X365912Y350091D02*
X375912Y350091D01*
X408473Y29133D02*
Y49133D01*
X398473Y29133D02*
X408473D01*
X398473D02*
Y49133D01*
X408473D01*
Y29133D02*
Y49133D01*
X398473Y29133D02*
X408473D01*
X398473D02*
Y49133D01*
X408473D01*
X359590Y28668D02*
Y48668D01*
X369590D01*
Y28668D02*
Y48668D01*
X359590Y28668D02*
X369590D01*
X359590D02*
Y48668D01*
X369590D01*
Y28668D02*
Y48668D01*
X359590Y28668D02*
X369590D01*
X493071Y402122D02*
X522071Y402122D01*
Y386622D02*
Y402122D01*
X493071Y386622D02*
Y402122D01*
Y386622D02*
X522071Y386622D01*
X50726Y223670D02*
X80726D01*
X50726D02*
X50726Y209670D01*
X80726D01*
Y223670D01*
X86366Y204130D02*
X96366D01*
X86366Y224130D02*
X96366D01*
X86366D02*
X86366Y204130D01*
X96366D02*
Y224130D01*
X123972Y100418D02*
Y110418D01*
X103972D02*
X123972D01*
X103972Y100418D02*
Y110418D01*
Y100418D02*
X123972Y100418D01*
X99136Y242762D02*
X119136D01*
Y232762D02*
Y242762D01*
X99136Y232762D02*
X119136D01*
X99136D02*
Y242762D01*
X119136D01*
Y232762D02*
Y242762D01*
X99136Y232762D02*
X119136D01*
X99136D02*
Y242762D01*
X131150Y100418D02*
X151150D01*
X131150D02*
Y110418D01*
X151150D01*
Y100418D02*
Y110418D01*
X141324Y204638D02*
Y224638D01*
X131324Y204638D02*
X141324D01*
X131324D02*
Y224638D01*
X141324D01*
Y204638D02*
Y224638D01*
X131324Y204638D02*
X141324D01*
X131324D02*
Y224638D01*
X141324D01*
X107114Y225306D02*
X121084D01*
Y202446D02*
Y225306D01*
X107114Y202446D02*
X121084D01*
X107114D02*
X107114Y225306D01*
X70792Y132342D02*
X108892Y132342D01*
X108892Y178062D02*
X108892Y132342D01*
X70792Y132342D02*
Y178062D01*
X108892D01*
X117274Y132342D02*
X155374Y132342D01*
X155374Y178062D01*
X117274Y132342D02*
X117274Y178062D01*
X155374Y178062D01*
X-2798Y404104D02*
X7202D01*
Y424104D01*
X-2798D02*
X7202D01*
X-2798Y404104D02*
Y424104D01*
Y404104D02*
X7202D01*
Y424104D01*
X-2798D02*
X7202D01*
X-2798Y404104D02*
Y424104D01*
X188798Y492670D02*
X208798D01*
X188798D02*
Y502670D01*
X208798D01*
Y492670D02*
Y502670D01*
X188798Y492670D02*
X208798D01*
X188798D02*
Y502670D01*
X208798D01*
Y492670D02*
Y502670D01*
X-42676Y405120D02*
Y425120D01*
X-32676D01*
Y405120D02*
Y425120D01*
X-42676Y405120D02*
X-32676D01*
X-42676D02*
Y425120D01*
X-32676D01*
Y405120D02*
Y425120D01*
X-42676Y405120D02*
X-32676D01*
X-28251Y462902D02*
X-8251D01*
Y452902D02*
Y462902D01*
X-28251Y452902D02*
X-8251D01*
X-28251D02*
Y462902D01*
X-8251D01*
Y452902D02*
Y462902D01*
X-28251Y452902D02*
X-8251D01*
X-28251D02*
Y462902D01*
X385795Y330098D02*
X385795Y350098D01*
X375795Y330098D02*
X385795Y330098D01*
X375795Y330098D02*
X375795Y350098D01*
X385795Y350098D01*
X385795Y330098D02*
X385795Y350098D01*
X375795Y330098D02*
X385795Y330098D01*
X375795Y330098D02*
X375795Y350098D01*
X385795Y350098D01*
X372504Y28757D02*
Y48757D01*
X382504D01*
Y28757D02*
Y48757D01*
X372504Y28757D02*
X382504D01*
X372504D02*
Y48757D01*
X382504D01*
Y28757D02*
Y48757D01*
X372504Y28757D02*
X382504D01*
X246797Y505827D02*
X266798D01*
X246797D02*
Y515827D01*
X266798D01*
Y505827D02*
Y515827D01*
X246797Y505827D02*
X266798D01*
X246797D02*
Y515827D01*
X266798D01*
Y505827D02*
Y515827D01*
X246710Y481842D02*
X266710D01*
Y471842D02*
Y481842D01*
X246710Y471842D02*
X266710D01*
X246710D02*
Y481842D01*
X266710D01*
Y471842D02*
Y481842D01*
X246710Y471842D02*
X266710D01*
X246710D02*
Y481842D01*
Y497550D02*
X266710D01*
Y487550D02*
Y497550D01*
X246710Y487550D02*
X266710D01*
X246710D02*
Y497550D01*
X266710D01*
Y487550D02*
Y497550D01*
X246710Y487550D02*
X266710D01*
X246710D02*
Y497550D01*
X385856Y350091D02*
X395855Y350091D01*
X385856Y350091D02*
X385856Y330091D01*
X395856D01*
X395855Y350091D02*
X395856Y330091D01*
X385856Y350091D02*
X395855Y350091D01*
X385856Y350091D02*
X385856Y330091D01*
X395856D01*
X395855Y350091D02*
X395856Y330091D01*
X156518Y67289D02*
X154852Y65623D01*
Y62291D01*
X156518Y60625D01*
X163182D01*
X164848Y62291D01*
Y65623D01*
X163182Y67289D01*
X156518Y70622D02*
X154852Y72288D01*
Y75620D01*
X156518Y77286D01*
X158184D01*
X159850Y75620D01*
X161516Y77286D01*
X163182D01*
X164848Y75620D01*
Y72288D01*
X163182Y70622D01*
X161516D01*
X159850Y72288D01*
X158184Y70622D01*
X156518D01*
X159850Y72288D02*
Y75620D01*
X-19153Y428865D02*
X-20820Y430531D01*
X-24152D01*
X-25818Y428865D01*
Y422200D01*
X-24152Y420534D01*
X-20820D01*
X-19153Y422200D01*
X-9157Y430531D02*
X-15821D01*
Y425532D01*
X-12489Y427198D01*
X-10823D01*
X-9157Y425532D01*
Y422200D01*
X-10823Y420534D01*
X-14155D01*
X-15821Y422200D01*
D21*
X615996Y298948D02*
Y342148D01*
X589996D02*
X615996D01*
X589996Y298948D02*
X615996D01*
X589996D02*
Y342148D01*
D24*
X23435Y194632D02*
D03*
X468331Y433743D02*
D03*
D25*
X450553Y382939D02*
D03*
D27*
X604040Y435917D02*
D03*
D28*
X602996Y325881D02*
D03*
D165*
X596669Y171624D02*
Y196537D01*
X554561Y171624D02*
X596669D01*
X554561D02*
Y196537D01*
X530241Y227130D02*
Y252042D01*
Y227130D02*
X572349D01*
Y252042D01*
X538562Y267466D02*
Y295008D01*
X524562Y267466D02*
X538562D01*
X524562D02*
Y295008D01*
X504640Y333382D02*
Y360924D01*
Y333382D02*
X518640D01*
Y360924D01*
X592979Y253182D02*
Y244295D01*
X597423D01*
X598904Y245776D01*
Y251701D01*
X597423Y253182D01*
X592979D01*
X601866Y251701D02*
X603348Y253182D01*
X606310D01*
X607791Y251701D01*
Y250219D01*
X606310Y248738D01*
X607791Y247257D01*
Y245776D01*
X606310Y244295D01*
X603348D01*
X601866Y245776D01*
Y247257D01*
X603348Y248738D01*
X601866Y250219D01*
Y251701D01*
X603348Y248738D02*
X606310D01*
D168*
X103812Y172982D02*
G03*
X103812Y172982I-1270J0D01*
G01*
X124894Y137422D02*
G03*
X124894Y137422I-1270J0D01*
G01*
X228741Y347654D02*
X222077D01*
X225409D01*
Y330992D01*
X222077Y327660D01*
X218745D01*
X215412Y330992D01*
X235406Y327660D02*
X242071D01*
X238738D01*
Y347654D01*
X235406Y344321D01*
X62949Y55687D02*
X59617Y59020D01*
X52952D01*
X49620Y55687D01*
Y42358D01*
X52952Y39026D01*
X59617D01*
X62949Y42358D01*
X69614Y39026D02*
X76278D01*
X72946D01*
Y59020D01*
X69614Y55687D01*
X86275Y42358D02*
X89607Y39026D01*
X96272D01*
X99604Y42358D01*
Y55687D01*
X96272Y59020D01*
X89607D01*
X86275Y55687D01*
Y52355D01*
X89607Y49023D01*
X99604D01*
X-30818Y350622D02*
Y325630D01*
X-25820Y320632D01*
X-15823D01*
X-10825Y325630D01*
Y350622D01*
X19166D02*
X-828D01*
Y335627D01*
X9169Y340626D01*
X14167D01*
X19166Y335627D01*
Y325630D01*
X14167Y320632D01*
X4171D01*
X-828Y325630D01*
D187*
X338281Y111058D02*
Y116058D01*
X328281Y111058D02*
X338281Y111058D01*
X328281Y111058D02*
Y116058D01*
X338281Y116058D01*
X340991Y121543D02*
Y126543D01*
X330991Y121543D02*
X340991D01*
X330991D02*
Y126543D01*
X340991Y126543D01*
X237711Y153692D02*
X242711Y153692D01*
X237711Y153692D02*
X237711Y163692D01*
X242711D01*
X242711Y153692D01*
X338215Y131088D02*
Y136088D01*
X328215Y131088D02*
X338215Y131088D01*
X328215Y131088D02*
Y136088D01*
X338215Y136088D01*
X239748Y195909D02*
X244748Y195909D01*
X239748Y195909D02*
Y205909D01*
X244748D01*
X244748Y195909D01*
X288698Y223180D02*
Y228180D01*
X298698Y228180D01*
Y223180D02*
Y228180D01*
X288698Y223180D02*
X298698D01*
X350323Y146137D02*
Y151137D01*
X340323Y146137D02*
X350323D01*
X340323D02*
Y151137D01*
X350323Y151137D01*
X421894Y217878D02*
X426894Y217878D01*
X421894Y217878D02*
Y227878D01*
X426894D01*
X426894Y217878D01*
X408741Y218711D02*
X413741D01*
X408741D02*
X408741Y228711D01*
X413741D01*
Y218711D02*
Y228711D01*
X432702Y218214D02*
X437702D01*
X432702D02*
X432702Y228214D01*
X437702D01*
Y218214D02*
Y228214D01*
X358642Y159255D02*
X363642D01*
Y149255D02*
Y159255D01*
X358642Y149255D02*
X363642D01*
X358642Y159255D02*
X358642Y149255D01*
X333536Y179710D02*
X338536D01*
X338536Y169710D02*
X338536Y179710D01*
X333536Y169710D02*
X338536Y169710D01*
X333536Y179710D02*
X333536Y169710D01*
X354140Y190318D02*
X359140Y190318D01*
X359140Y180318D02*
X359140Y190318D01*
X354140Y180318D02*
X359140D01*
X354140D02*
Y190318D01*
X375751Y176048D02*
Y181048D01*
X385751Y181048D01*
Y176048D02*
Y181048D01*
X375751Y176048D02*
X385751D01*
X432290Y160811D02*
X437290D01*
X432290D02*
X432290Y170811D01*
X437290D01*
X437290Y160811D02*
X437290Y170811D01*
X442847Y160854D02*
X447847D01*
X442847Y170854D02*
X442847Y160854D01*
X442847Y170854D02*
X447847D01*
X447847Y160854D01*
X264500Y108666D02*
X269500D01*
X264500D02*
Y118666D01*
X269500D01*
Y108666D02*
Y118666D01*
X315627Y116820D02*
X320627D01*
Y106820D02*
Y116820D01*
X315627Y106820D02*
X320627D01*
X315627D02*
Y116820D01*
X349694Y157653D02*
X349694Y162653D01*
X339694Y157653D02*
X349694Y157653D01*
X339694Y157653D02*
Y162653D01*
X349694D01*
X344209Y180318D02*
X349209Y180318D01*
X344209Y180318D02*
Y190318D01*
X349209D01*
X349209Y180318D02*
X349209Y190318D01*
X384871Y169011D02*
X389871D01*
Y159011D02*
Y169011D01*
X384871Y159011D02*
X389871D01*
X384871D02*
Y169011D01*
X445738Y179147D02*
Y184147D01*
X435738Y179147D02*
X445738D01*
X435738D02*
Y184147D01*
X445738D01*
X443839Y126468D02*
X448839Y126468D01*
X443839Y126468D02*
Y136468D01*
X448839D01*
Y126468D02*
Y136468D01*
X351468Y124159D02*
X356468D01*
X351468D02*
Y134159D01*
X356468D01*
Y124159D02*
Y134159D01*
X385114Y210529D02*
X390114Y210529D01*
Y200529D02*
Y210529D01*
X385114Y200529D02*
X390114D01*
X385114D02*
Y210529D01*
X376234Y201481D02*
X381234D01*
Y191481D02*
Y201481D01*
X376234Y191481D02*
X381234D01*
X376234D02*
Y201481D01*
X238042Y111630D02*
X238042Y131630D01*
X238042Y111630D02*
X250542D01*
Y131630D01*
X238042D02*
X250542D01*
X417325Y141467D02*
X431325D01*
Y119967D02*
Y141467D01*
X417325Y119967D02*
X431325Y119967D01*
X417325Y141467D02*
X417325Y119967D01*
X383087Y120133D02*
X383087Y141633D01*
X383087Y120133D02*
X397087Y120133D01*
Y141633D01*
X383087Y141633D02*
X397087Y141633D01*
X276184Y104613D02*
X308182D01*
Y129611D01*
X276184D02*
X308182D01*
X276184Y104613D02*
Y129611D01*
X396081Y205507D02*
X426081Y205507D01*
X396081Y165507D02*
X396081Y205507D01*
X396081Y165507D02*
X426081Y165507D01*
Y205507D01*
X259698Y148088D02*
Y208088D01*
Y148088D02*
X319698D01*
X319698Y208088D01*
X259698D02*
X319698D01*
D188*
X331002Y114532D02*
X330821Y114895D01*
X330458Y115258D01*
X330095Y115439D01*
X329370D01*
X329007Y115258D01*
X328644Y114895D01*
X328463Y114532D01*
X328281Y113988D01*
Y113081D01*
X328463Y112537D01*
X328644Y112174D01*
X329007Y111812D01*
X329370Y111630D01*
X330095D01*
X330458Y111812D01*
X330821Y112174D01*
X331002Y112537D01*
X332072Y114714D02*
X332435Y114895D01*
X332979Y115439D01*
Y111630D01*
X335954Y115439D02*
X335410Y115258D01*
X335047Y114714D01*
X334866Y113807D01*
Y113263D01*
X335047Y112356D01*
X335410Y111812D01*
X335954Y111630D01*
X336317D01*
X336861Y111812D01*
X337224Y112356D01*
X337405Y113263D01*
Y113807D01*
X337224Y114714D01*
X336861Y115258D01*
X336317Y115439D01*
X335954D01*
X334027Y124986D02*
X333845Y125349D01*
X333483Y125712D01*
X333120Y125893D01*
X332394D01*
X332032Y125712D01*
X331669Y125349D01*
X331487Y124986D01*
X331306Y124442D01*
Y123535D01*
X331487Y122991D01*
X331669Y122628D01*
X332032Y122265D01*
X332394Y122084D01*
X333120D01*
X333483Y122265D01*
X333845Y122628D01*
X334027Y122991D01*
X335097Y125168D02*
X335460Y125349D01*
X336004Y125893D01*
Y122084D01*
X339704Y125893D02*
X337890Y123354D01*
X340611D01*
X339704Y125893D02*
Y122084D01*
X239250Y157063D02*
X238887Y156882D01*
X238524Y156519D01*
X238343Y156156D01*
Y155430D01*
X238524Y155068D01*
X238887Y154705D01*
X239250Y154523D01*
X239794Y154342D01*
X240701D01*
X241245Y154523D01*
X241608Y154705D01*
X241971Y155068D01*
X242152Y155430D01*
Y156156D01*
X241971Y156519D01*
X241608Y156882D01*
X241245Y157063D01*
X239068Y158133D02*
X238887Y158496D01*
X238343Y159040D01*
X242152D01*
X238343Y163103D02*
Y161289D01*
X239975Y161108D01*
X239794Y161289D01*
X239613Y161833D01*
Y162378D01*
X239794Y162922D01*
X240157Y163284D01*
X240701Y163466D01*
X241064D01*
X241608Y163284D01*
X241971Y162922D01*
X242152Y162378D01*
Y161833D01*
X241971Y161289D01*
X241789Y161108D01*
X241426Y160926D01*
X331002Y134532D02*
X330821Y134895D01*
X330458Y135258D01*
X330095Y135439D01*
X329370D01*
X329007Y135258D01*
X328644Y134895D01*
X328463Y134532D01*
X328281Y133988D01*
Y133081D01*
X328463Y132537D01*
X328644Y132174D01*
X329007Y131812D01*
X329370Y131630D01*
X330095D01*
X330458Y131812D01*
X330821Y132174D01*
X331002Y132537D01*
X332072Y134714D02*
X332435Y134895D01*
X332979Y135439D01*
Y131630D01*
X337405Y135439D02*
X335591Y131630D01*
X334866Y135439D02*
X337405D01*
X241282Y198973D02*
X240919Y198792D01*
X240556Y198429D01*
X240375Y198066D01*
Y197340D01*
X240556Y196978D01*
X240919Y196615D01*
X241282Y196433D01*
X241826Y196252D01*
X242733D01*
X243277Y196433D01*
X243640Y196615D01*
X244003Y196978D01*
X244184Y197340D01*
Y198066D01*
X244003Y198429D01*
X243640Y198792D01*
X243277Y198973D01*
X241100Y200043D02*
X240919Y200406D01*
X240375Y200950D01*
X244184D01*
X240375Y203743D02*
X240556Y203199D01*
X240919Y203018D01*
X241282D01*
X241644Y203199D01*
X241826Y203562D01*
X242007Y204288D01*
X242189Y204832D01*
X242551Y205194D01*
X242914Y205376D01*
X243458D01*
X243821Y205194D01*
X244003Y205013D01*
X244184Y204469D01*
Y203743D01*
X244003Y203199D01*
X243821Y203018D01*
X243458Y202836D01*
X242914D01*
X242551Y203018D01*
X242189Y203381D01*
X242007Y203925D01*
X241826Y204650D01*
X241644Y205013D01*
X241282Y205194D01*
X240919D01*
X240556Y205013D01*
X240375Y204469D01*
Y203743D01*
X291419Y227032D02*
X291238Y227395D01*
X290875Y227758D01*
X290512Y227939D01*
X289786D01*
X289424Y227758D01*
X289061Y227395D01*
X288880Y227032D01*
X288698Y226488D01*
Y225581D01*
X288880Y225037D01*
X289061Y224674D01*
X289424Y224311D01*
X289786Y224130D01*
X290512D01*
X290875Y224311D01*
X291238Y224674D01*
X291419Y225037D01*
X292671Y227032D02*
Y227214D01*
X292852Y227577D01*
X293033Y227758D01*
X293396Y227939D01*
X294122D01*
X294485Y227758D01*
X294666Y227577D01*
X294847Y227214D01*
Y226851D01*
X294666Y226488D01*
X294303Y225944D01*
X292489Y224130D01*
X295029D01*
X296063Y227032D02*
Y227214D01*
X296244Y227577D01*
X296425Y227758D01*
X296788Y227939D01*
X297514D01*
X297876Y227758D01*
X298058Y227577D01*
X298239Y227214D01*
Y226851D01*
X298058Y226488D01*
X297695Y225944D01*
X295881Y224130D01*
X298421D01*
X343044Y149624D02*
X342863Y149987D01*
X342500Y150350D01*
X342137Y150531D01*
X341412D01*
X341049Y150350D01*
X340686Y149987D01*
X340505Y149624D01*
X340323Y149080D01*
Y148173D01*
X340505Y147629D01*
X340686Y147266D01*
X341049Y146903D01*
X341412Y146722D01*
X342137D01*
X342500Y146903D01*
X342863Y147266D01*
X343044Y147629D01*
X344296Y149624D02*
Y149806D01*
X344477Y150168D01*
X344658Y150350D01*
X345021Y150531D01*
X345747D01*
X346110Y150350D01*
X346291Y150168D01*
X346472Y149806D01*
Y149443D01*
X346291Y149080D01*
X345928Y148536D01*
X344114Y146722D01*
X346654D01*
X347869Y150531D02*
X349864D01*
X348776Y149080D01*
X349320D01*
X349683Y148899D01*
X349864Y148717D01*
X350046Y148173D01*
Y147810D01*
X349864Y147266D01*
X349501Y146903D01*
X348957Y146722D01*
X348413D01*
X347869Y146903D01*
X347688Y147085D01*
X347506Y147448D01*
X423179Y220599D02*
X422816Y220418D01*
X422453Y220055D01*
X422272Y219692D01*
Y218967D01*
X422453Y218604D01*
X422816Y218241D01*
X423179Y218060D01*
X423723Y217878D01*
X424630D01*
X425174Y218060D01*
X425537Y218241D01*
X425900Y218604D01*
X426081Y218967D01*
Y219692D01*
X425900Y220055D01*
X425537Y220418D01*
X425174Y220599D01*
X423179Y221851D02*
X422998D01*
X422635Y222032D01*
X422453Y222213D01*
X422272Y222576D01*
Y223302D01*
X422453Y223665D01*
X422635Y223846D01*
X422998Y224027D01*
X423360D01*
X423723Y223846D01*
X424267Y223483D01*
X426081Y221669D01*
Y224209D01*
X422272Y227601D02*
X426081Y225787D01*
X422272Y225061D02*
Y227601D01*
X410192Y221432D02*
X409829Y221251D01*
X409466Y220888D01*
X409285Y220525D01*
Y219799D01*
X409466Y219437D01*
X409829Y219074D01*
X410192Y218893D01*
X410736Y218711D01*
X411643D01*
X412187Y218893D01*
X412550Y219074D01*
X412913Y219437D01*
X413094Y219799D01*
Y220525D01*
X412913Y220888D01*
X412550Y221251D01*
X412187Y221432D01*
X410192Y222684D02*
X410010D01*
X409648Y222865D01*
X409466Y223046D01*
X409285Y223409D01*
Y224135D01*
X409466Y224498D01*
X409648Y224679D01*
X410010Y224860D01*
X410373D01*
X410736Y224679D01*
X411280Y224316D01*
X413094Y222502D01*
Y225042D01*
X409285Y226801D02*
X409466Y226257D01*
X409829Y226076D01*
X410192D01*
X410555Y226257D01*
X410736Y226620D01*
X410917Y227345D01*
X411099Y227889D01*
X411461Y228252D01*
X411824Y228434D01*
X412368D01*
X412731Y228252D01*
X412913Y228071D01*
X413094Y227527D01*
Y226801D01*
X412913Y226257D01*
X412731Y226076D01*
X412368Y225894D01*
X411824D01*
X411461Y226076D01*
X411099Y226438D01*
X410917Y226983D01*
X410736Y227708D01*
X410555Y228071D01*
X410192Y228252D01*
X409829D01*
X409466Y228071D01*
X409285Y227527D01*
Y226801D01*
X434388Y221432D02*
X434025Y221251D01*
X433662Y220888D01*
X433481Y220525D01*
Y219799D01*
X433662Y219437D01*
X434025Y219074D01*
X434388Y218893D01*
X434932Y218711D01*
X435839D01*
X436383Y218893D01*
X436746Y219074D01*
X437109Y219437D01*
X437290Y219799D01*
Y220525D01*
X437109Y220888D01*
X436746Y221251D01*
X436383Y221432D01*
X434388Y222684D02*
X434207D01*
X433844Y222865D01*
X433662Y223046D01*
X433481Y223409D01*
Y224135D01*
X433662Y224498D01*
X433844Y224679D01*
X434207Y224860D01*
X434569D01*
X434932Y224679D01*
X435476Y224316D01*
X437290Y222502D01*
Y225042D01*
X434751Y228252D02*
X435295Y228071D01*
X435658Y227708D01*
X435839Y227164D01*
Y226983D01*
X435658Y226438D01*
X435295Y226076D01*
X434751Y225894D01*
X434569D01*
X434025Y226076D01*
X433662Y226438D01*
X433481Y226983D01*
Y227164D01*
X433662Y227708D01*
X434025Y228071D01*
X434751Y228252D01*
X435658D01*
X436565Y228071D01*
X437109Y227708D01*
X437290Y227164D01*
Y226801D01*
X437109Y226257D01*
X436746Y226076D01*
X359900Y152237D02*
X359537Y152056D01*
X359174Y151693D01*
X358993Y151330D01*
Y150604D01*
X359174Y150242D01*
X359537Y149879D01*
X359900Y149697D01*
X360444Y149516D01*
X361351D01*
X361895Y149697D01*
X362258Y149879D01*
X362621Y150242D01*
X362802Y150604D01*
Y151330D01*
X362621Y151693D01*
X362258Y152056D01*
X361895Y152237D01*
X359900Y153488D02*
X359718D01*
X359356Y153670D01*
X359174Y153851D01*
X358993Y154214D01*
Y154940D01*
X359174Y155302D01*
X359356Y155484D01*
X359718Y155665D01*
X360081D01*
X360444Y155484D01*
X360988Y155121D01*
X362802Y153307D01*
Y155847D01*
X358993Y158513D02*
X361532Y156699D01*
Y159420D01*
X358993Y158513D02*
X362802D01*
X335313Y172431D02*
X334950Y172250D01*
X334587Y171887D01*
X334406Y171524D01*
Y170799D01*
X334587Y170436D01*
X334950Y170073D01*
X335313Y169892D01*
X335857Y169710D01*
X336764D01*
X337308Y169892D01*
X337671Y170073D01*
X338034Y170436D01*
X338215Y170799D01*
Y171524D01*
X338034Y171887D01*
X337671Y172250D01*
X337308Y172431D01*
X335313Y173683D02*
X335131D01*
X334769Y173864D01*
X334587Y174045D01*
X334406Y174408D01*
Y175134D01*
X334587Y175497D01*
X334769Y175678D01*
X335131Y175859D01*
X335494D01*
X335857Y175678D01*
X336401Y175315D01*
X338215Y173501D01*
Y176041D01*
X334406Y179070D02*
Y177256D01*
X336039Y177075D01*
X335857Y177256D01*
X335676Y177800D01*
Y178344D01*
X335857Y178889D01*
X336220Y179251D01*
X336764Y179433D01*
X337127D01*
X337671Y179251D01*
X338034Y178889D01*
X338215Y178344D01*
Y177800D01*
X338034Y177256D01*
X337852Y177075D01*
X337490Y176893D01*
X355740Y183039D02*
X355377Y182858D01*
X355014Y182495D01*
X354833Y182132D01*
Y181407D01*
X355014Y181044D01*
X355377Y180681D01*
X355740Y180500D01*
X356284Y180318D01*
X357191D01*
X357735Y180500D01*
X358098Y180681D01*
X358461Y181044D01*
X358642Y181407D01*
Y182132D01*
X358461Y182495D01*
X358098Y182858D01*
X357735Y183039D01*
X355740Y184291D02*
X355559D01*
X355196Y184472D01*
X355014Y184653D01*
X354833Y185016D01*
Y185742D01*
X355014Y186105D01*
X355196Y186286D01*
X355559Y186467D01*
X355921D01*
X356284Y186286D01*
X356828Y185923D01*
X358642Y184109D01*
Y186649D01*
X355377Y189678D02*
X355014Y189497D01*
X354833Y188952D01*
Y188590D01*
X355014Y188045D01*
X355559Y187683D01*
X356465Y187501D01*
X357373D01*
X358098Y187683D01*
X358461Y188045D01*
X358642Y188590D01*
Y188771D01*
X358461Y189315D01*
X358098Y189678D01*
X357554Y189859D01*
X357373D01*
X356828Y189678D01*
X356465Y189315D01*
X356284Y188771D01*
Y188590D01*
X356465Y188045D01*
X356828Y187683D01*
X357373Y187501D01*
X378472Y179823D02*
X378291Y180185D01*
X377928Y180548D01*
X377565Y180730D01*
X376840D01*
X376477Y180548D01*
X376114Y180185D01*
X375933Y179823D01*
X375751Y179279D01*
Y178372D01*
X375933Y177827D01*
X376114Y177465D01*
X376477Y177102D01*
X376840Y176920D01*
X377565D01*
X377928Y177102D01*
X378291Y177465D01*
X378472Y177827D01*
X379905Y180730D02*
X381900D01*
X380812Y179279D01*
X381356D01*
X381719Y179097D01*
X381900Y178916D01*
X382082Y178372D01*
Y178009D01*
X381900Y177465D01*
X381538Y177102D01*
X380993Y176920D01*
X380449D01*
X379905Y177102D01*
X379724Y177283D01*
X379542Y177646D01*
X384023Y180730D02*
X383478Y180548D01*
X383116Y180004D01*
X382934Y179097D01*
Y178553D01*
X383116Y177646D01*
X383478Y177102D01*
X384023Y176920D01*
X384385D01*
X384930Y177102D01*
X385292Y177646D01*
X385474Y178553D01*
Y179097D01*
X385292Y180004D01*
X384930Y180548D01*
X384385Y180730D01*
X384023D01*
X433560Y164175D02*
X433197Y163993D01*
X432834Y163631D01*
X432653Y163268D01*
Y162542D01*
X432834Y162180D01*
X433197Y161817D01*
X433560Y161635D01*
X434104Y161454D01*
X435011D01*
X435555Y161635D01*
X435918Y161817D01*
X436281Y162180D01*
X436462Y162542D01*
Y163268D01*
X436281Y163631D01*
X435918Y163993D01*
X435555Y164175D01*
X432653Y165608D02*
Y167603D01*
X434104Y166515D01*
Y167059D01*
X434285Y167422D01*
X434467Y167603D01*
X435011Y167785D01*
X435374D01*
X435918Y167603D01*
X436281Y167240D01*
X436462Y166696D01*
Y166152D01*
X436281Y165608D01*
X436099Y165426D01*
X435736Y165245D01*
X433378Y168637D02*
X433197Y169000D01*
X432653Y169544D01*
X436462D01*
X443725Y163575D02*
X443362Y163394D01*
X442999Y163031D01*
X442818Y162668D01*
Y161943D01*
X442999Y161580D01*
X443362Y161217D01*
X443725Y161036D01*
X444269Y160854D01*
X445176D01*
X445720Y161036D01*
X446083Y161217D01*
X446446Y161580D01*
X446627Y161943D01*
Y162668D01*
X446446Y163031D01*
X446083Y163394D01*
X445720Y163575D01*
X442818Y165008D02*
Y167003D01*
X444269Y165915D01*
Y166459D01*
X444450Y166822D01*
X444632Y167003D01*
X445176Y167185D01*
X445539D01*
X446083Y167003D01*
X446446Y166641D01*
X446627Y166096D01*
Y165552D01*
X446446Y165008D01*
X446264Y164827D01*
X445902Y164645D01*
X443725Y168219D02*
X443544D01*
X443181Y168400D01*
X442999Y168582D01*
X442818Y168944D01*
Y169670D01*
X442999Y170033D01*
X443181Y170214D01*
X443544Y170395D01*
X443906D01*
X444269Y170214D01*
X444813Y169851D01*
X446627Y168037D01*
Y170577D01*
X266174Y111387D02*
X265811Y111206D01*
X265448Y110843D01*
X265267Y110480D01*
Y109755D01*
X265448Y109392D01*
X265811Y109029D01*
X266174Y108848D01*
X266718Y108666D01*
X267625D01*
X268169Y108848D01*
X268532Y109029D01*
X268895Y109392D01*
X269076Y109755D01*
Y110480D01*
X268895Y110843D01*
X268532Y111206D01*
X268169Y111387D01*
X265267Y112820D02*
Y114815D01*
X266718Y113727D01*
Y114271D01*
X266899Y114634D01*
X267081Y114815D01*
X267625Y114997D01*
X267988D01*
X268532Y114815D01*
X268895Y114453D01*
X269076Y113908D01*
Y113364D01*
X268895Y112820D01*
X268713Y112639D01*
X268350Y112457D01*
X265267Y116212D02*
Y118207D01*
X266718Y117119D01*
Y117663D01*
X266899Y118026D01*
X267081Y118207D01*
X267625Y118389D01*
X267988D01*
X268532Y118207D01*
X268895Y117845D01*
X269076Y117300D01*
Y116756D01*
X268895Y116212D01*
X268713Y116031D01*
X268350Y115849D01*
X316796Y109541D02*
X316433Y109360D01*
X316070Y108997D01*
X315889Y108634D01*
Y107909D01*
X316070Y107546D01*
X316433Y107183D01*
X316796Y107002D01*
X317340Y106820D01*
X318247D01*
X318791Y107002D01*
X319154Y107183D01*
X319517Y107546D01*
X319698Y107909D01*
Y108634D01*
X319517Y108997D01*
X319154Y109360D01*
X318791Y109541D01*
X315889Y110974D02*
Y112969D01*
X317340Y111881D01*
Y112425D01*
X317521Y112788D01*
X317703Y112969D01*
X318247Y113151D01*
X318610D01*
X319154Y112969D01*
X319517Y112607D01*
X319698Y112062D01*
Y111518D01*
X319517Y110974D01*
X319335Y110793D01*
X318973Y110611D01*
X315889Y114910D02*
X316070Y114366D01*
X316433Y114185D01*
X316796D01*
X317159Y114366D01*
X317340Y114729D01*
X317521Y115454D01*
X317703Y115999D01*
X318066Y116361D01*
X318428Y116543D01*
X318973D01*
X319335Y116361D01*
X319517Y116180D01*
X319698Y115636D01*
Y114910D01*
X319517Y114366D01*
X319335Y114185D01*
X318973Y114003D01*
X318428D01*
X318066Y114185D01*
X317703Y114548D01*
X317521Y115092D01*
X317340Y115817D01*
X317159Y116180D01*
X316796Y116361D01*
X316433D01*
X316070Y116180D01*
X315889Y115636D01*
Y114910D01*
X342228Y161961D02*
Y158152D01*
X344405D01*
X345185Y161961D02*
X347180D01*
X346092Y160510D01*
X346636D01*
X346998Y160329D01*
X347180Y160147D01*
X347361Y159603D01*
Y159240D01*
X347180Y158696D01*
X346817Y158333D01*
X346273Y158152D01*
X345729D01*
X345185Y158333D01*
X345003Y158515D01*
X344822Y158878D01*
X344678Y182270D02*
X348487D01*
Y184447D01*
X344678Y186678D02*
X347217Y184864D01*
Y187585D01*
X344678Y186678D02*
X348487D01*
X385409Y161962D02*
X389218D01*
Y164139D01*
X385409Y166733D02*
Y164919D01*
X387041Y164737D01*
X386860Y164919D01*
X386679Y165463D01*
Y166007D01*
X386860Y166551D01*
X387223Y166914D01*
X387767Y167095D01*
X388130D01*
X388674Y166914D01*
X389037Y166551D01*
X389218Y166007D01*
Y165463D01*
X389037Y164919D01*
X388855Y164737D01*
X388492Y164556D01*
X438494Y183519D02*
Y179710D01*
X440671D01*
X443265Y182975D02*
X443083Y183338D01*
X442539Y183519D01*
X442176D01*
X441632Y183338D01*
X441269Y182794D01*
X441088Y181887D01*
Y180980D01*
X441269Y180254D01*
X441632Y179892D01*
X442176Y179710D01*
X442358D01*
X442902Y179892D01*
X443265Y180254D01*
X443446Y180799D01*
Y180980D01*
X443265Y181524D01*
X442902Y181887D01*
X442358Y182068D01*
X442176D01*
X441632Y181887D01*
X441269Y181524D01*
X441088Y180980D01*
X444308Y128420D02*
X448117D01*
X444308D02*
Y130053D01*
X444489Y130597D01*
X444671Y130778D01*
X445034Y130960D01*
X445396D01*
X445759Y130778D01*
X445941Y130597D01*
X446122Y130053D01*
Y128420D01*
Y129690D02*
X448117Y130960D01*
X444308Y133989D02*
Y132175D01*
X445941Y131994D01*
X445759Y132175D01*
X445578Y132719D01*
Y133263D01*
X445759Y133807D01*
X446122Y134170D01*
X446666Y134352D01*
X447029D01*
X447573Y134170D01*
X447936Y133807D01*
X448117Y133263D01*
Y132719D01*
X447936Y132175D01*
X447754Y131994D01*
X447392Y131812D01*
X351937Y126111D02*
X355746D01*
X351937D02*
Y127744D01*
X352118Y128288D01*
X352300Y128469D01*
X352663Y128651D01*
X353025D01*
X353388Y128469D01*
X353569Y128288D01*
X353751Y127744D01*
Y126111D01*
Y127381D02*
X355746Y128651D01*
X351937Y131317D02*
X354477Y129503D01*
Y132224D01*
X351937Y131317D02*
X355746D01*
X385663Y202602D02*
X389472D01*
X385663D02*
Y204235D01*
X385844Y204779D01*
X386026Y204960D01*
X386388Y205142D01*
X386751D01*
X387114Y204960D01*
X387295Y204779D01*
X387477Y204235D01*
Y202602D01*
Y203872D02*
X389472Y205142D01*
X386207Y208171D02*
X385844Y207989D01*
X385663Y207445D01*
Y207082D01*
X385844Y206538D01*
X386388Y206175D01*
X387295Y205994D01*
X388202D01*
X388928Y206175D01*
X389291Y206538D01*
X389472Y207082D01*
Y207264D01*
X389291Y207808D01*
X388928Y208171D01*
X388384Y208352D01*
X388202D01*
X387658Y208171D01*
X387295Y207808D01*
X387114Y207264D01*
Y207082D01*
X387295Y206538D01*
X387658Y206175D01*
X388202Y205994D01*
X376773Y191934D02*
X380582D01*
X376773D02*
Y193566D01*
X376954Y194111D01*
X377136Y194292D01*
X377498Y194473D01*
X377861D01*
X378224Y194292D01*
X378405Y194111D01*
X378587Y193566D01*
Y191934D01*
Y193204D02*
X380582Y194473D01*
X377498Y195326D02*
X377317Y195689D01*
X376773Y196233D01*
X380582D01*
X377680Y198301D02*
X377498D01*
X377136Y198482D01*
X376954Y198664D01*
X376773Y199026D01*
Y199752D01*
X376954Y200115D01*
X377136Y200296D01*
X377498Y200478D01*
X377861D01*
X378224Y200296D01*
X378768Y199933D01*
X380582Y198119D01*
Y200659D01*
D189*
X242649Y118491D02*
X242044Y118188D01*
X241440Y117584D01*
X241137Y116979D01*
Y115770D01*
X241440Y115165D01*
X242044Y114561D01*
X242649Y114258D01*
X243556Y113956D01*
X245068D01*
X245974Y114258D01*
X246579Y114561D01*
X247184Y115165D01*
X247486Y115770D01*
Y116979D01*
X247184Y117584D01*
X246579Y118188D01*
X245974Y118491D01*
X242347Y120274D02*
X242044Y120879D01*
X241137Y121786D01*
X247486D01*
X242044Y128558D02*
X241440Y128256D01*
X241137Y127349D01*
Y126744D01*
X241440Y125837D01*
X242347Y125232D01*
X243858Y124930D01*
X245370D01*
X246579Y125232D01*
X247184Y125837D01*
X247486Y126744D01*
Y127046D01*
X247184Y127953D01*
X246579Y128558D01*
X245672Y128860D01*
X245370D01*
X244463Y128558D01*
X243858Y127953D01*
X243556Y127046D01*
Y126744D01*
X243858Y125837D01*
X244463Y125232D01*
X245370Y124930D01*
X420055Y135555D02*
Y131020D01*
X420357Y130113D01*
X420961Y129509D01*
X421868Y129206D01*
X422473D01*
X423380Y129509D01*
X423985Y130113D01*
X424287Y131020D01*
Y135555D01*
X430273D02*
X427250Y129206D01*
X426040Y135555D02*
X430273D01*
X383859Y135545D02*
Y131010D01*
X384162Y130103D01*
X384767Y129498D01*
X385673Y129196D01*
X386278D01*
X387185Y129498D01*
X387790Y130103D01*
X388092Y131010D01*
Y135545D01*
X389845Y134335D02*
X390450Y134638D01*
X391357Y135545D01*
Y129196D01*
X394501Y134335D02*
X395106Y134638D01*
X396013Y135545D01*
Y129196D01*
D190*
X282277Y123207D02*
X285276Y119458D01*
Y115334D01*
X288275Y123207D02*
X285276Y119458D01*
X289662Y121332D02*
Y121707D01*
X290037Y122457D01*
X290412Y122832D01*
X291162Y123207D01*
X292661D01*
X293411Y122832D01*
X293786Y122457D01*
X294161Y121707D01*
Y120957D01*
X293786Y120208D01*
X293036Y119083D01*
X289287Y115334D01*
X294536D01*
D191*
X552144Y103941D02*
D03*
X600652Y265682D02*
D03*
M02*
