G04*
G04 #@! TF.GenerationSoftware,Altium Limited,Altium Designer,20.1.14 (287)*
G04*
G04 Layer_Color=32896*
%FSLAX44Y44*%
%MOMM*%
G71*
G04*
G04 #@! TF.SameCoordinates,26D83F00-FBC8-424C-8E9F-EDBCECB59CF3*
G04*
G04*
G04 #@! TF.FilePolarity,Positive*
G04*
G01*
G75*
%ADD12C,0.2000*%
%ADD16C,0.2540*%
%ADD25C,0.0900*%
%ADD147C,0.1524*%
G36*
X138323Y454800D02*
X136829D01*
Y457638D01*
X134893Y454800D01*
X133389D01*
Y459950D01*
X134893D01*
Y457093D01*
X136848Y459950D01*
X138323D01*
Y454800D01*
D02*
G37*
G36*
X115345Y460025D02*
X115561Y460007D01*
X115759Y459969D01*
X115947Y459931D01*
X116116Y459875D01*
X116276Y459819D01*
X116426Y459753D01*
X116548Y459697D01*
X116670Y459631D01*
X116764Y459565D01*
X116849Y459509D01*
X116924Y459452D01*
X116971Y459415D01*
X117018Y459377D01*
X117037Y459358D01*
X117046Y459349D01*
X117168Y459217D01*
X117272Y459067D01*
X117356Y458917D01*
X117441Y458757D01*
X117507Y458588D01*
X117554Y458428D01*
X117601Y458268D01*
X117638Y458108D01*
X117667Y457958D01*
X117685Y457826D01*
X117704Y457704D01*
X117713Y457591D01*
Y457507D01*
X117723Y457441D01*
Y457403D01*
Y457385D01*
X117704Y457046D01*
X117685Y456887D01*
X117667Y456736D01*
X117629Y456595D01*
X117601Y456464D01*
X117563Y456342D01*
X117526Y456238D01*
X117497Y456135D01*
X117460Y456050D01*
X117422Y455975D01*
X117394Y455919D01*
X117375Y455872D01*
X117356Y455834D01*
X117338Y455815D01*
Y455806D01*
X117187Y455590D01*
X117037Y455411D01*
X116877Y455270D01*
X116736Y455148D01*
X116614Y455063D01*
X116511Y454998D01*
X116473Y454979D01*
X116445Y454960D01*
X116435Y454951D01*
X116426D01*
X116210Y454875D01*
X115984Y454819D01*
X115749Y454772D01*
X115533Y454744D01*
X115430Y454734D01*
X115336Y454725D01*
X115261D01*
X115185Y454716D01*
X115044D01*
X114800Y454725D01*
X114575Y454744D01*
X114377Y454781D01*
X114217Y454819D01*
X114086Y454847D01*
X113982Y454885D01*
X113954Y454894D01*
X113926Y454904D01*
X113917Y454913D01*
X113907D01*
X113748Y454998D01*
X113597Y455092D01*
X113475Y455186D01*
X113362Y455280D01*
X113278Y455373D01*
X113212Y455439D01*
X113165Y455486D01*
X113155Y455505D01*
X113043Y455665D01*
X112958Y455825D01*
X112873Y455984D01*
X112817Y456144D01*
X112761Y456276D01*
X112733Y456389D01*
X112723Y456426D01*
X112714Y456454D01*
X112704Y456473D01*
Y456482D01*
X114095Y456915D01*
X114142Y456736D01*
X114199Y456586D01*
X114255Y456454D01*
X114311Y456351D01*
X114358Y456266D01*
X114405Y456210D01*
X114434Y456172D01*
X114443Y456163D01*
X114537Y456078D01*
X114650Y456013D01*
X114762Y455975D01*
X114875Y455937D01*
X114979Y455919D01*
X115063Y455909D01*
X115139D01*
X115308Y455919D01*
X115449Y455956D01*
X115580Y456003D01*
X115683Y456069D01*
X115759Y456125D01*
X115824Y456172D01*
X115862Y456210D01*
X115871Y456219D01*
X115919Y456285D01*
X115956Y456360D01*
X116022Y456539D01*
X116060Y456736D01*
X116097Y456924D01*
X116116Y457103D01*
Y457187D01*
X116125Y457253D01*
Y457309D01*
Y457356D01*
Y457385D01*
Y457394D01*
X116116Y457638D01*
X116088Y457845D01*
X116060Y458014D01*
X116012Y458155D01*
X115975Y458259D01*
X115947Y458343D01*
X115919Y458381D01*
X115909Y458400D01*
X115853Y458475D01*
X115796Y458550D01*
X115665Y458653D01*
X115524Y458738D01*
X115392Y458785D01*
X115270Y458823D01*
X115167Y458832D01*
X115139Y458841D01*
X114998D01*
X114913Y458823D01*
X114838Y458813D01*
X114772Y458794D01*
X114725Y458776D01*
X114678Y458757D01*
X114659Y458747D01*
X114650Y458738D01*
X114518Y458653D01*
X114415Y458559D01*
X114377Y458522D01*
X114340Y458484D01*
X114330Y458465D01*
X114321Y458456D01*
X114293Y458409D01*
X114264Y458362D01*
X114208Y458249D01*
X114189Y458202D01*
X114171Y458155D01*
X114161Y458127D01*
Y458118D01*
X112751Y458428D01*
X112808Y458578D01*
X112864Y458719D01*
X112930Y458841D01*
X112996Y458964D01*
X113062Y459076D01*
X113137Y459170D01*
X113202Y459264D01*
X113268Y459339D01*
X113334Y459415D01*
X113390Y459471D01*
X113447Y459527D01*
X113494Y459565D01*
X113531Y459603D01*
X113560Y459621D01*
X113578Y459640D01*
X113588D01*
X113701Y459706D01*
X113813Y459772D01*
X114058Y459866D01*
X114311Y459941D01*
X114565Y459988D01*
X114678Y460007D01*
X114781Y460016D01*
X114875Y460025D01*
X114960D01*
X115026Y460035D01*
X115120D01*
X115345Y460025D01*
D02*
G37*
G36*
X142064D02*
X142205Y460016D01*
X142346Y459997D01*
X142468Y459978D01*
X142581Y459950D01*
X142693Y459931D01*
X142787Y459913D01*
X142872Y459884D01*
X142947Y459866D01*
X143013Y459837D01*
X143069Y459819D01*
X143107Y459809D01*
X143135Y459790D01*
X143154Y459781D01*
X143163D01*
X143398Y459650D01*
X143605Y459499D01*
X143774Y459339D01*
X143925Y459189D01*
X144037Y459048D01*
X144113Y458935D01*
X144141Y458888D01*
X144159Y458860D01*
X144178Y458841D01*
Y458832D01*
X144291Y458588D01*
X144376Y458343D01*
X144441Y458099D01*
X144479Y457873D01*
X144498Y457770D01*
X144507Y457676D01*
X144517Y457591D01*
Y457516D01*
X144526Y457460D01*
Y457413D01*
Y457385D01*
Y457375D01*
X144517Y457084D01*
X144479Y456811D01*
X144432Y456567D01*
X144404Y456454D01*
X144366Y456360D01*
X144338Y456266D01*
X144310Y456182D01*
X144291Y456116D01*
X144263Y456059D01*
X144244Y456013D01*
X144225Y455975D01*
X144216Y455956D01*
Y455947D01*
X144084Y455731D01*
X143943Y455543D01*
X143793Y455383D01*
X143652Y455261D01*
X143520Y455157D01*
X143417Y455082D01*
X143379Y455063D01*
X143351Y455045D01*
X143333Y455026D01*
X143323D01*
X143088Y454922D01*
X142844Y454847D01*
X142590Y454791D01*
X142355Y454753D01*
X142242Y454744D01*
X142139Y454734D01*
X142054Y454725D01*
X141970D01*
X141904Y454716D01*
X141819D01*
X141547Y454725D01*
X141302Y454744D01*
X141077Y454772D01*
X140889Y454800D01*
X140814Y454819D01*
X140739Y454828D01*
X140682Y454847D01*
X140626Y454857D01*
X140588Y454866D01*
X140560Y454875D01*
X140541Y454885D01*
X140532D01*
X140325Y454960D01*
X140109Y455063D01*
X139893Y455176D01*
X139695Y455280D01*
X139526Y455383D01*
X139451Y455430D01*
X139395Y455467D01*
X139338Y455496D01*
X139301Y455524D01*
X139282Y455533D01*
X139272Y455543D01*
Y457742D01*
X141735D01*
Y456670D01*
X140663D01*
Y456182D01*
X140776Y456116D01*
X140889Y456059D01*
X140983Y456013D01*
X141067Y455984D01*
X141133Y455956D01*
X141180Y455937D01*
X141218Y455919D01*
X141227D01*
X141406Y455872D01*
X141490Y455862D01*
X141575Y455853D01*
X141641Y455843D01*
X141735D01*
X141932Y455862D01*
X142111Y455900D01*
X142261Y455956D01*
X142383Y456022D01*
X142487Y456088D01*
X142562Y456144D01*
X142599Y456182D01*
X142618Y456200D01*
X142675Y456276D01*
X142722Y456351D01*
X142797Y456539D01*
X142853Y456736D01*
X142891Y456934D01*
X142909Y457112D01*
X142919Y457187D01*
Y457262D01*
X142928Y457319D01*
Y457356D01*
Y457385D01*
Y457394D01*
Y457535D01*
X142919Y457667D01*
X142900Y457789D01*
X142881Y457901D01*
X142853Y458005D01*
X142834Y458099D01*
X142769Y458259D01*
X142712Y458381D01*
X142665Y458475D01*
X142628Y458522D01*
X142618Y458541D01*
X142496Y458663D01*
X142355Y458757D01*
X142214Y458823D01*
X142083Y458860D01*
X141960Y458888D01*
X141866Y458898D01*
X141829Y458907D01*
X141782D01*
X141650Y458898D01*
X141537Y458879D01*
X141444Y458860D01*
X141359Y458832D01*
X141293Y458794D01*
X141237Y458776D01*
X141208Y458757D01*
X141199Y458747D01*
X141124Y458682D01*
X141049Y458616D01*
X140992Y458541D01*
X140945Y458475D01*
X140917Y458409D01*
X140889Y458353D01*
X140870Y458315D01*
Y458306D01*
X139338Y458578D01*
X139395Y458757D01*
X139460Y458917D01*
X139536Y459058D01*
X139601Y459170D01*
X139667Y459264D01*
X139714Y459339D01*
X139752Y459377D01*
X139761Y459396D01*
X139874Y459509D01*
X139987Y459612D01*
X140109Y459697D01*
X140222Y459762D01*
X140316Y459809D01*
X140391Y459847D01*
X140447Y459866D01*
X140457Y459875D01*
X140466D01*
X140551Y459903D01*
X140645Y459931D01*
X140842Y459969D01*
X141058Y459997D01*
X141265Y460016D01*
X141453Y460025D01*
X141528Y460035D01*
X141744D01*
X142064Y460025D01*
D02*
G37*
G36*
X132318Y454800D02*
X129959D01*
X129790Y454810D01*
X129630Y454819D01*
X129461Y454838D01*
X129320Y454866D01*
X129188Y454894D01*
X129085Y454913D01*
X129047Y454922D01*
X129019D01*
X129010Y454932D01*
X129001D01*
X128860Y454979D01*
X128728Y455045D01*
X128615Y455110D01*
X128502Y455176D01*
X128418Y455242D01*
X128352Y455298D01*
X128315Y455336D01*
X128296Y455345D01*
X128174Y455467D01*
X128070Y455599D01*
X127976Y455721D01*
X127901Y455843D01*
X127844Y455947D01*
X127807Y456031D01*
X127779Y456088D01*
X127769Y456097D01*
Y456106D01*
X127704Y456295D01*
X127657Y456501D01*
X127619Y456717D01*
X127600Y456915D01*
X127581Y457103D01*
Y457178D01*
X127572Y457253D01*
Y457309D01*
Y457347D01*
Y457375D01*
Y457385D01*
X127581Y457582D01*
X127591Y457761D01*
X127610Y457930D01*
X127638Y458080D01*
X127666Y458202D01*
X127685Y458296D01*
X127694Y458334D01*
Y458362D01*
X127704Y458371D01*
Y458381D01*
X127760Y458550D01*
X127816Y458710D01*
X127882Y458851D01*
X127948Y458973D01*
X128014Y459076D01*
X128061Y459142D01*
X128098Y459189D01*
X128108Y459208D01*
X128221Y459330D01*
X128333Y459443D01*
X128455Y459537D01*
X128568Y459612D01*
X128672Y459678D01*
X128747Y459715D01*
X128803Y459744D01*
X128813Y459753D01*
X128822D01*
X128991Y459819D01*
X129179Y459866D01*
X129367Y459903D01*
X129555Y459922D01*
X129715Y459941D01*
X129781D01*
X129846Y459950D01*
X132318D01*
Y454800D01*
D02*
G37*
G36*
X123653D02*
X122027D01*
X121773Y455646D01*
X119969D01*
X119715Y454800D01*
X118042D01*
X119978Y459950D01*
X121727D01*
X123653Y454800D01*
D02*
G37*
G36*
X127299Y453898D02*
X123625D01*
Y454255D01*
X127299D01*
Y453898D01*
D02*
G37*
G36*
X16013Y486178D02*
X16154Y486169D01*
X16286Y486141D01*
X16408Y486112D01*
X16521Y486084D01*
X16624Y486056D01*
X16709Y486028D01*
X16793Y485990D01*
X16868Y485962D01*
X16925Y485934D01*
X16972Y485906D01*
X17019Y485877D01*
X17047Y485868D01*
X17056Y485849D01*
X17066D01*
X17235Y485708D01*
X17366Y485548D01*
X17479Y485379D01*
X17564Y485219D01*
X17630Y485079D01*
X17648Y485013D01*
X17677Y484956D01*
X17686Y484919D01*
X17695Y484881D01*
X17705Y484862D01*
Y484853D01*
X16351Y484618D01*
X16323Y484750D01*
X16295Y484862D01*
X16257Y484947D01*
X16229Y485022D01*
X16192Y485079D01*
X16173Y485116D01*
X16154Y485135D01*
X16145Y485144D01*
X16079Y485201D01*
X16013Y485238D01*
X15947Y485266D01*
X15882Y485285D01*
X15816Y485295D01*
X15769Y485304D01*
X15731D01*
X15637Y485295D01*
X15562Y485285D01*
X15496Y485257D01*
X15440Y485238D01*
X15393Y485210D01*
X15365Y485182D01*
X15346Y485173D01*
X15337Y485163D01*
X15289Y485107D01*
X15252Y485041D01*
X15233Y484985D01*
X15214Y484919D01*
X15205Y484872D01*
X15196Y484825D01*
Y484797D01*
Y484787D01*
X15205Y484703D01*
X15224Y484618D01*
X15261Y484543D01*
X15289Y484487D01*
X15327Y484430D01*
X15365Y484393D01*
X15383Y484374D01*
X15393Y484364D01*
X15468Y484308D01*
X15543Y484270D01*
X15628Y484233D01*
X15694Y484214D01*
X15759Y484204D01*
X15816Y484195D01*
X15919D01*
X15985Y484204D01*
X16051D01*
X16117Y483190D01*
X16013Y483218D01*
X15919Y483237D01*
X15844Y483255D01*
X15778Y483265D01*
X15722Y483274D01*
X15656D01*
X15543Y483265D01*
X15440Y483246D01*
X15355Y483208D01*
X15280Y483180D01*
X15224Y483143D01*
X15186Y483105D01*
X15158Y483086D01*
X15149Y483077D01*
X15083Y482992D01*
X15036Y482908D01*
X15008Y482814D01*
X14979Y482729D01*
X14970Y482644D01*
X14961Y482579D01*
Y482541D01*
Y482522D01*
X14970Y482400D01*
X14989Y482287D01*
X15026Y482184D01*
X15055Y482109D01*
X15092Y482043D01*
X15130Y481996D01*
X15149Y481968D01*
X15158Y481958D01*
X15233Y481893D01*
X15308Y481836D01*
X15393Y481799D01*
X15468Y481780D01*
X15534Y481761D01*
X15590Y481752D01*
X15637D01*
X15741Y481761D01*
X15825Y481780D01*
X15910Y481799D01*
X15976Y481836D01*
X16023Y481864D01*
X16070Y481883D01*
X16088Y481902D01*
X16098Y481911D01*
X16154Y481987D01*
X16211Y482081D01*
X16286Y482278D01*
X16314Y482372D01*
X16333Y482447D01*
X16351Y482494D01*
Y482513D01*
X17780Y482315D01*
X17724Y482146D01*
X17658Y481987D01*
X17601Y481855D01*
X17536Y481733D01*
X17479Y481639D01*
X17432Y481573D01*
X17395Y481535D01*
X17385Y481517D01*
X17282Y481404D01*
X17169Y481310D01*
X17056Y481225D01*
X16953Y481160D01*
X16859Y481103D01*
X16784Y481066D01*
X16737Y481047D01*
X16718Y481037D01*
X16549Y480981D01*
X16370Y480943D01*
X16182Y480915D01*
X16004Y480896D01*
X15853Y480887D01*
X15778D01*
X15722Y480878D01*
X15609D01*
X15355Y480887D01*
X15120Y480915D01*
X14923Y480943D01*
X14754Y480990D01*
X14622Y481028D01*
X14566Y481047D01*
X14528Y481056D01*
X14491Y481075D01*
X14462Y481084D01*
X14453Y481094D01*
X14444D01*
X14284Y481188D01*
X14152Y481291D01*
X14040Y481395D01*
X13936Y481498D01*
X13861Y481592D01*
X13814Y481667D01*
X13777Y481714D01*
X13767Y481733D01*
X13683Y481893D01*
X13626Y482043D01*
X13579Y482184D01*
X13551Y482325D01*
X13532Y482438D01*
X13523Y482522D01*
Y482579D01*
Y482588D01*
Y482598D01*
X13532Y482729D01*
X13542Y482842D01*
X13570Y482945D01*
X13598Y483039D01*
X13626Y483105D01*
X13645Y483161D01*
X13664Y483199D01*
X13673Y483208D01*
X13729Y483302D01*
X13795Y483387D01*
X13861Y483462D01*
X13927Y483518D01*
X13983Y483565D01*
X14030Y483603D01*
X14058Y483622D01*
X14068Y483631D01*
X14134Y483669D01*
X14209Y483697D01*
X14350Y483753D01*
X14416Y483772D01*
X14472Y483791D01*
X14510Y483800D01*
X14519D01*
X14387Y483876D01*
X14274Y483960D01*
X14181Y484045D01*
X14105Y484110D01*
X14049Y484176D01*
X14011Y484223D01*
X13983Y484261D01*
X13974Y484270D01*
X13908Y484374D01*
X13861Y484477D01*
X13833Y484580D01*
X13805Y484674D01*
X13795Y484750D01*
X13786Y484815D01*
Y484853D01*
Y484872D01*
X13795Y484975D01*
X13805Y485079D01*
X13852Y485266D01*
X13927Y485426D01*
X14011Y485558D01*
X14096Y485671D01*
X14162Y485755D01*
X14218Y485802D01*
X14228Y485821D01*
X14237D01*
X14331Y485887D01*
X14425Y485943D01*
X14660Y486037D01*
X14895Y486103D01*
X15139Y486150D01*
X15252Y486169D01*
X15355Y486178D01*
X15449Y486188D01*
X15534D01*
X15609Y486197D01*
X15703D01*
X16013Y486178D01*
D02*
G37*
G36*
X5610D02*
X5751Y486169D01*
X5882Y486141D01*
X6004Y486112D01*
X6117Y486084D01*
X6220Y486056D01*
X6305Y486028D01*
X6390Y485990D01*
X6465Y485962D01*
X6521Y485934D01*
X6568Y485906D01*
X6615Y485877D01*
X6643Y485868D01*
X6653Y485849D01*
X6662D01*
X6831Y485708D01*
X6963Y485548D01*
X7076Y485379D01*
X7160Y485219D01*
X7226Y485079D01*
X7245Y485013D01*
X7273Y484956D01*
X7282Y484919D01*
X7292Y484881D01*
X7301Y484862D01*
Y484853D01*
X5948Y484618D01*
X5920Y484750D01*
X5892Y484862D01*
X5854Y484947D01*
X5826Y485022D01*
X5788Y485079D01*
X5769Y485116D01*
X5751Y485135D01*
X5741Y485144D01*
X5675Y485201D01*
X5610Y485238D01*
X5544Y485266D01*
X5478Y485285D01*
X5412Y485295D01*
X5365Y485304D01*
X5328D01*
X5234Y485295D01*
X5159Y485285D01*
X5093Y485257D01*
X5036Y485238D01*
X4989Y485210D01*
X4961Y485182D01*
X4942Y485173D01*
X4933Y485163D01*
X4886Y485107D01*
X4848Y485041D01*
X4830Y484985D01*
X4811Y484919D01*
X4801Y484872D01*
X4792Y484825D01*
Y484797D01*
Y484787D01*
X4801Y484703D01*
X4820Y484618D01*
X4858Y484543D01*
X4886Y484487D01*
X4924Y484430D01*
X4961Y484393D01*
X4980Y484374D01*
X4989Y484364D01*
X5064Y484308D01*
X5140Y484270D01*
X5224Y484233D01*
X5290Y484214D01*
X5356Y484204D01*
X5412Y484195D01*
X5516D01*
X5581Y484204D01*
X5647D01*
X5713Y483190D01*
X5610Y483218D01*
X5516Y483237D01*
X5440Y483255D01*
X5375Y483265D01*
X5318Y483274D01*
X5253D01*
X5140Y483265D01*
X5036Y483246D01*
X4952Y483208D01*
X4877Y483180D01*
X4820Y483143D01*
X4783Y483105D01*
X4754Y483086D01*
X4745Y483077D01*
X4679Y482992D01*
X4632Y482908D01*
X4604Y482814D01*
X4576Y482729D01*
X4566Y482644D01*
X4557Y482579D01*
Y482541D01*
Y482522D01*
X4566Y482400D01*
X4585Y482287D01*
X4623Y482184D01*
X4651Y482109D01*
X4689Y482043D01*
X4726Y481996D01*
X4745Y481968D01*
X4754Y481958D01*
X4830Y481893D01*
X4905Y481836D01*
X4989Y481799D01*
X5064Y481780D01*
X5130Y481761D01*
X5187Y481752D01*
X5234D01*
X5337Y481761D01*
X5422Y481780D01*
X5506Y481799D01*
X5572Y481836D01*
X5619Y481864D01*
X5666Y481883D01*
X5685Y481902D01*
X5694Y481911D01*
X5751Y481987D01*
X5807Y482081D01*
X5882Y482278D01*
X5910Y482372D01*
X5929Y482447D01*
X5948Y482494D01*
Y482513D01*
X7376Y482315D01*
X7320Y482146D01*
X7254Y481987D01*
X7198Y481855D01*
X7132Y481733D01*
X7076Y481639D01*
X7029Y481573D01*
X6991Y481535D01*
X6982Y481517D01*
X6878Y481404D01*
X6765Y481310D01*
X6653Y481225D01*
X6549Y481160D01*
X6455Y481103D01*
X6380Y481066D01*
X6333Y481047D01*
X6314Y481037D01*
X6145Y480981D01*
X5967Y480943D01*
X5779Y480915D01*
X5600Y480896D01*
X5450Y480887D01*
X5375D01*
X5318Y480878D01*
X5206D01*
X4952Y480887D01*
X4717Y480915D01*
X4519Y480943D01*
X4350Y480990D01*
X4219Y481028D01*
X4162Y481047D01*
X4125Y481056D01*
X4087Y481075D01*
X4059Y481084D01*
X4049Y481094D01*
X4040D01*
X3880Y481188D01*
X3749Y481291D01*
X3636Y481395D01*
X3533Y481498D01*
X3457Y481592D01*
X3410Y481667D01*
X3373Y481714D01*
X3363Y481733D01*
X3279Y481893D01*
X3223Y482043D01*
X3176Y482184D01*
X3147Y482325D01*
X3128Y482438D01*
X3119Y482522D01*
Y482579D01*
Y482588D01*
Y482598D01*
X3128Y482729D01*
X3138Y482842D01*
X3166Y482945D01*
X3194Y483039D01*
X3223Y483105D01*
X3241Y483161D01*
X3260Y483199D01*
X3270Y483208D01*
X3326Y483302D01*
X3392Y483387D01*
X3457Y483462D01*
X3523Y483518D01*
X3580Y483565D01*
X3627Y483603D01*
X3655Y483622D01*
X3664Y483631D01*
X3730Y483669D01*
X3805Y483697D01*
X3946Y483753D01*
X4012Y483772D01*
X4068Y483791D01*
X4106Y483800D01*
X4115D01*
X3984Y483876D01*
X3871Y483960D01*
X3777Y484045D01*
X3702Y484110D01*
X3645Y484176D01*
X3608Y484223D01*
X3580Y484261D01*
X3570Y484270D01*
X3504Y484374D01*
X3457Y484477D01*
X3429Y484580D01*
X3401Y484674D01*
X3392Y484750D01*
X3382Y484815D01*
Y484853D01*
Y484872D01*
X3392Y484975D01*
X3401Y485079D01*
X3448Y485266D01*
X3523Y485426D01*
X3608Y485558D01*
X3692Y485671D01*
X3758Y485755D01*
X3815Y485802D01*
X3824Y485821D01*
X3833D01*
X3927Y485887D01*
X4021Y485943D01*
X4256Y486037D01*
X4491Y486103D01*
X4736Y486150D01*
X4848Y486169D01*
X4952Y486178D01*
X5046Y486188D01*
X5130D01*
X5206Y486197D01*
X5300D01*
X5610Y486178D01*
D02*
G37*
G36*
X11267Y480962D02*
X9547D01*
X7630Y486112D01*
X9247D01*
X10393Y482400D01*
X11549Y486112D01*
X13213D01*
X11267Y480962D01*
D02*
G37*
G36*
X-9089Y486188D02*
X-8873Y486169D01*
X-8675Y486131D01*
X-8487Y486093D01*
X-8318Y486037D01*
X-8159Y485981D01*
X-8008Y485915D01*
X-7886Y485859D01*
X-7764Y485793D01*
X-7670Y485727D01*
X-7585Y485671D01*
X-7510Y485614D01*
X-7463Y485577D01*
X-7416Y485539D01*
X-7397Y485520D01*
X-7388Y485511D01*
X-7266Y485379D01*
X-7162Y485229D01*
X-7078Y485079D01*
X-6993Y484919D01*
X-6927Y484750D01*
X-6880Y484590D01*
X-6833Y484430D01*
X-6796Y484270D01*
X-6768Y484120D01*
X-6749Y483988D01*
X-6730Y483866D01*
X-6721Y483753D01*
Y483669D01*
X-6711Y483603D01*
Y483565D01*
Y483547D01*
X-6730Y483208D01*
X-6749Y483049D01*
X-6768Y482898D01*
X-6805Y482757D01*
X-6833Y482626D01*
X-6871Y482504D01*
X-6909Y482400D01*
X-6937Y482297D01*
X-6974Y482212D01*
X-7012Y482137D01*
X-7040Y482081D01*
X-7059Y482034D01*
X-7078Y481996D01*
X-7096Y481977D01*
Y481968D01*
X-7247Y481752D01*
X-7397Y481573D01*
X-7557Y481432D01*
X-7698Y481310D01*
X-7820Y481225D01*
X-7923Y481160D01*
X-7961Y481141D01*
X-7989Y481122D01*
X-7999Y481113D01*
X-8008D01*
X-8224Y481037D01*
X-8450Y480981D01*
X-8685Y480934D01*
X-8901Y480906D01*
X-9004Y480896D01*
X-9098Y480887D01*
X-9173D01*
X-9249Y480878D01*
X-9390D01*
X-9634Y480887D01*
X-9859Y480906D01*
X-10057Y480943D01*
X-10217Y480981D01*
X-10348Y481009D01*
X-10452Y481047D01*
X-10480Y481056D01*
X-10508Y481066D01*
X-10517Y481075D01*
X-10527D01*
X-10687Y481160D01*
X-10837Y481254D01*
X-10959Y481348D01*
X-11072Y481441D01*
X-11156Y481535D01*
X-11222Y481601D01*
X-11269Y481648D01*
X-11279Y481667D01*
X-11391Y481827D01*
X-11476Y481987D01*
X-11561Y482146D01*
X-11617Y482306D01*
X-11673Y482438D01*
X-11702Y482551D01*
X-11711Y482588D01*
X-11720Y482616D01*
X-11730Y482635D01*
Y482644D01*
X-10339Y483077D01*
X-10292Y482898D01*
X-10235Y482748D01*
X-10179Y482616D01*
X-10123Y482513D01*
X-10076Y482428D01*
X-10029Y482372D01*
X-10000Y482334D01*
X-9991Y482325D01*
X-9897Y482240D01*
X-9784Y482175D01*
X-9672Y482137D01*
X-9559Y482099D01*
X-9455Y482081D01*
X-9371Y482071D01*
X-9296D01*
X-9126Y482081D01*
X-8985Y482118D01*
X-8854Y482165D01*
X-8751Y482231D01*
X-8675Y482287D01*
X-8610Y482334D01*
X-8572Y482372D01*
X-8563Y482381D01*
X-8516Y482447D01*
X-8478Y482522D01*
X-8412Y482701D01*
X-8375Y482898D01*
X-8337Y483086D01*
X-8318Y483265D01*
Y483349D01*
X-8309Y483415D01*
Y483471D01*
Y483518D01*
Y483547D01*
Y483556D01*
X-8318Y483800D01*
X-8346Y484007D01*
X-8375Y484176D01*
X-8422Y484317D01*
X-8459Y484421D01*
X-8487Y484505D01*
X-8516Y484543D01*
X-8525Y484562D01*
X-8581Y484637D01*
X-8638Y484712D01*
X-8769Y484815D01*
X-8910Y484900D01*
X-9042Y484947D01*
X-9164Y484985D01*
X-9267Y484994D01*
X-9296Y485003D01*
X-9437D01*
X-9521Y484985D01*
X-9596Y484975D01*
X-9662Y484956D01*
X-9709Y484938D01*
X-9756Y484919D01*
X-9775Y484909D01*
X-9784Y484900D01*
X-9916Y484815D01*
X-10019Y484721D01*
X-10057Y484684D01*
X-10094Y484646D01*
X-10104Y484627D01*
X-10113Y484618D01*
X-10142Y484571D01*
X-10170Y484524D01*
X-10226Y484411D01*
X-10245Y484364D01*
X-10264Y484317D01*
X-10273Y484289D01*
Y484280D01*
X-11683Y484590D01*
X-11626Y484740D01*
X-11570Y484881D01*
X-11504Y485003D01*
X-11438Y485126D01*
X-11373Y485238D01*
X-11297Y485332D01*
X-11232Y485426D01*
X-11166Y485501D01*
X-11100Y485577D01*
X-11044Y485633D01*
X-10987Y485689D01*
X-10940Y485727D01*
X-10903Y485765D01*
X-10875Y485783D01*
X-10856Y485802D01*
X-10846D01*
X-10733Y485868D01*
X-10621Y485934D01*
X-10376Y486028D01*
X-10123Y486103D01*
X-9869Y486150D01*
X-9756Y486169D01*
X-9653Y486178D01*
X-9559Y486188D01*
X-9474D01*
X-9408Y486197D01*
X-9314D01*
X-9089Y486188D01*
D02*
G37*
G36*
X-781Y480962D02*
X-2407D01*
X-2661Y481808D01*
X-4465D01*
X-4719Y480962D01*
X-6392D01*
X-4456Y486112D01*
X-2708D01*
X-781Y480962D01*
D02*
G37*
G36*
X2865Y480060D02*
X-809D01*
Y480417D01*
X2865D01*
Y480060D01*
D02*
G37*
%LPC*%
G36*
X130730Y458785D02*
X130335D01*
X130119Y458776D01*
X129931Y458738D01*
X129781Y458691D01*
X129658Y458635D01*
X129564Y458569D01*
X129499Y458522D01*
X129452Y458484D01*
X129442Y458475D01*
X129395Y458409D01*
X129348Y458343D01*
X129282Y458174D01*
X129235Y457986D01*
X129207Y457808D01*
X129179Y457629D01*
Y457554D01*
X129170Y457488D01*
Y457432D01*
Y457394D01*
Y457366D01*
Y457356D01*
X129179Y457140D01*
X129188Y456962D01*
X129207Y456802D01*
X129226Y456680D01*
X129254Y456586D01*
X129273Y456520D01*
X129282Y456473D01*
X129292Y456464D01*
X129339Y456370D01*
X129395Y456285D01*
X129452Y456219D01*
X129508Y456172D01*
X129555Y456125D01*
X129593Y456097D01*
X129621Y456088D01*
X129630Y456078D01*
X129724Y456041D01*
X129827Y456022D01*
X129950Y456003D01*
X130063Y455984D01*
X130175D01*
X130260Y455975D01*
X130730D01*
Y458785D01*
D02*
G37*
G36*
X120871Y458606D02*
X120307Y456764D01*
X121435D01*
X120871Y458606D01*
D02*
G37*
G36*
X-3563Y484768D02*
X-4127Y482926D01*
X-2999D01*
X-3563Y484768D01*
D02*
G37*
%LPD*%
D12*
X-154940Y-55880D02*
G03*
X-164940Y-55880I-5000J0D01*
G01*
X66501Y-180197D02*
G03*
X59430Y-173125I-3536J3536D01*
G01*
X248801Y299011D02*
G03*
X241730Y291940I-3536J-3536D01*
G01*
X198374Y113124D02*
G03*
X198374Y103124I0J-5000D01*
G01*
X48768Y-128270D02*
G03*
X48768Y-138270I0J-5000D01*
G01*
X176370Y121412D02*
G03*
X166370Y121412I-5000J0D01*
G01*
X-153147Y-16430D02*
G03*
X-146076Y-9359I3536J3536D01*
G01*
X-222297Y100363D02*
G03*
X-229368Y93292I-3536J-3536D01*
G01*
X-254915Y67804D02*
G03*
X-254915Y77804I0J5000D01*
G01*
X-174264Y307868D02*
G03*
X-181336Y314940I-3536J3536D01*
G01*
X-42164Y466598D02*
G03*
X-49235Y473669I-3536J3536D01*
G01*
X-151216Y277454D02*
G03*
X-144350Y270588I3433J-3433D01*
G01*
X308004Y380662D02*
G03*
X332652Y359489I12544J-10330D01*
G01*
X-207616Y-443945D02*
G03*
X-236516Y-429099I-14634J7065D01*
G01*
X49167Y-183388D02*
X59430Y-173125D01*
X-58928Y-183388D02*
X49167D01*
X-154940Y-87376D02*
Y-55880D01*
X53404Y-193294D02*
X66501Y-180196D01*
X-154940Y-87376D02*
X-58928Y-183388D01*
X-164940Y-91518D02*
X-63164Y-193294D01*
X53404D01*
X-164940Y-91518D02*
Y-55880D01*
X248801Y299011D02*
X334026Y213786D01*
X324026Y148176D02*
Y209644D01*
X198374Y103124D02*
X293116D01*
X198374Y113124D02*
X288974D01*
X241730Y291940D02*
X324026Y209644D01*
X334026Y144034D02*
Y213786D01*
X293116Y103124D02*
X334026Y144034D01*
X288974Y113124D02*
X324026Y148176D01*
X166370Y-51562D02*
Y121412D01*
X48768Y-128270D02*
X89662D01*
X48768Y-138270D02*
X93804D01*
X176370Y-55704D02*
Y121412D01*
X93804Y-138270D02*
X176370Y-55704D01*
X89662Y-128270D02*
X166370Y-51562D01*
X-212360Y76284D02*
X-190226Y54150D01*
X-229368Y93292D02*
X-212360Y76284D01*
X-222297Y100363D02*
X-202360Y80427D01*
X-179832Y24397D02*
Y57899D01*
Y24397D02*
X-146076Y-9359D01*
X-202360Y80427D02*
X-179832Y57899D01*
X-190226Y20649D02*
X-153147Y-16430D01*
X-190226Y20649D02*
Y54150D01*
X-195834Y258998D02*
Y300441D01*
X-278968Y77804D02*
X-254915D01*
X-295910Y93462D02*
Y144780D01*
X-305910Y89320D02*
Y148922D01*
Y89320D02*
X-285973Y69383D01*
X-284394Y67804D02*
X-282437D01*
X-283110D02*
X-254915D01*
X-285973Y69383D02*
X-284394Y67804D01*
X-185166Y296967D02*
X-174264Y307868D01*
X-305910Y148922D02*
X-195834Y258998D01*
X-280252Y77804D02*
X-278968D01*
X-185166Y255524D02*
Y296967D01*
X-295910Y93462D02*
X-280252Y77804D01*
X-295910Y144780D02*
X-185166Y255524D01*
X-195834Y300441D02*
X-181336Y314940D01*
X-144350Y270588D02*
X-52070Y362868D01*
X-151216Y277454D02*
X-62070Y366600D01*
X-52070Y362868D02*
Y456692D01*
X-62070Y366600D02*
Y460834D01*
X-52070Y456692D02*
X-42164Y466598D01*
X-62070Y460834D02*
X-49235Y473669D01*
X308004Y380662D02*
X320548Y370332D01*
X-236516Y-429099D02*
X-222250Y-436880D01*
X-207616Y-443945D01*
X320548Y370332D02*
X332652Y359489D01*
D16*
X489746Y0D02*
G03*
X489746Y0I-490000J0D01*
G01*
D25*
X156972Y359156D02*
Y363155D01*
X154973D01*
X154306Y362488D01*
Y361155D01*
X154973Y360489D01*
X156972D01*
X152973Y359156D02*
X151640D01*
X152307D01*
Y363155D01*
X152973Y362488D01*
X149641D02*
X148975Y363155D01*
X147642D01*
X146975Y362488D01*
Y359822D01*
X147642Y359156D01*
X148975D01*
X149641Y359822D01*
Y362488D01*
X145642D02*
X144976Y363155D01*
X143643D01*
X142977Y362488D01*
Y359822D01*
X143643Y359156D01*
X144976D01*
X145642Y359822D01*
Y362488D01*
D147*
X380000Y0D02*
G03*
X380000Y0I-380000J0D01*
G01*
M02*
