G04*
G04 #@! TF.GenerationSoftware,Altium Limited,Altium Designer,20.1.14 (287)*
G04*
G04 Layer_Color=128*
%FSLAX44Y44*%
%MOMM*%
G71*
G04*
G04 #@! TF.SameCoordinates,26D83F00-FBC8-424C-8E9F-EDBCECB59CF3*
G04*
G04*
G04 #@! TF.FilePolarity,Positive*
G04*
G01*
G75*
%ADD12C,0.2000*%
%ADD16C,0.2540*%
D12*
X-154940Y-55880D02*
G03*
X-164940Y-55880I-5000J0D01*
G01*
X66501Y-180197D02*
G03*
X59430Y-173125I-3536J3536D01*
G01*
X248801Y299011D02*
G03*
X241730Y291940I-3536J-3536D01*
G01*
X198374Y113124D02*
G03*
X198374Y103124I0J-5000D01*
G01*
X48768Y-128270D02*
G03*
X48768Y-138270I0J-5000D01*
G01*
X176370Y121412D02*
G03*
X166370Y121412I-5000J0D01*
G01*
X-153147Y-16430D02*
G03*
X-146076Y-9359I3536J3536D01*
G01*
X-222297Y100363D02*
G03*
X-229368Y93292I-3536J-3536D01*
G01*
X-254915Y67804D02*
G03*
X-254915Y77804I0J5000D01*
G01*
X-174264Y307868D02*
G03*
X-181336Y314940I-3536J3536D01*
G01*
X-42164Y466598D02*
G03*
X-49235Y473669I-3536J3536D01*
G01*
X-151216Y277454D02*
G03*
X-144350Y270588I3433J-3433D01*
G01*
X308004Y380662D02*
G03*
X332652Y359489I12544J-10330D01*
G01*
X-207616Y-443945D02*
G03*
X-236516Y-429099I-14634J7065D01*
G01*
X49167Y-183388D02*
X59430Y-173125D01*
X-58928Y-183388D02*
X49167D01*
X-154940Y-87376D02*
Y-55880D01*
X53404Y-193294D02*
X66501Y-180196D01*
X-154940Y-87376D02*
X-58928Y-183388D01*
X-164940Y-91518D02*
X-63164Y-193294D01*
X53404D01*
X-164940Y-91518D02*
Y-55880D01*
X248801Y299011D02*
X334026Y213786D01*
X324026Y148176D02*
Y209644D01*
X198374Y103124D02*
X293116D01*
X198374Y113124D02*
X288974D01*
X241730Y291940D02*
X324026Y209644D01*
X334026Y144034D02*
Y213786D01*
X293116Y103124D02*
X334026Y144034D01*
X288974Y113124D02*
X324026Y148176D01*
X166370Y-51562D02*
Y121412D01*
X48768Y-128270D02*
X89662D01*
X48768Y-138270D02*
X93804D01*
X176370Y-55704D02*
Y121412D01*
X93804Y-138270D02*
X176370Y-55704D01*
X89662Y-128270D02*
X166370Y-51562D01*
X-212360Y76284D02*
X-190226Y54150D01*
X-229368Y93292D02*
X-212360Y76284D01*
X-222297Y100363D02*
X-202360Y80427D01*
X-179832Y24397D02*
Y57899D01*
Y24397D02*
X-146076Y-9359D01*
X-202360Y80427D02*
X-179832Y57899D01*
X-190226Y20649D02*
X-153147Y-16430D01*
X-190226Y20649D02*
Y54150D01*
X-195834Y258998D02*
Y300441D01*
X-278968Y77804D02*
X-254915D01*
X-295910Y93462D02*
Y144780D01*
X-305910Y89320D02*
Y148922D01*
Y89320D02*
X-285973Y69383D01*
X-284394Y67804D02*
X-282437D01*
X-283110D02*
X-254915D01*
X-285973Y69383D02*
X-284394Y67804D01*
X-185166Y296967D02*
X-174264Y307868D01*
X-305910Y148922D02*
X-195834Y258998D01*
X-280252Y77804D02*
X-278968D01*
X-185166Y255524D02*
Y296967D01*
X-295910Y93462D02*
X-280252Y77804D01*
X-295910Y144780D02*
X-185166Y255524D01*
X-195834Y300441D02*
X-181336Y314940D01*
X-144350Y270588D02*
X-52070Y362868D01*
X-151216Y277454D02*
X-62070Y366600D01*
X-52070Y362868D02*
Y456692D01*
X-62070Y366600D02*
Y460834D01*
X-52070Y456692D02*
X-42164Y466598D01*
X-62070Y460834D02*
X-49235Y473669D01*
X308004Y380662D02*
X320548Y370332D01*
X-236516Y-429099D02*
X-222250Y-436880D01*
X-207616Y-443945D01*
X320548Y370332D02*
X332652Y359489D01*
D16*
X489746Y0D02*
G03*
X489746Y0I-490000J0D01*
G01*
M02*
