G04*
G04 #@! TF.GenerationSoftware,Altium Limited,Altium Designer,20.1.14 (287)*
G04*
G04 Layer_Color=16711935*
%FSLAX44Y44*%
%MOMM*%
G71*
G04*
G04 #@! TF.SameCoordinates,26D83F00-FBC8-424C-8E9F-EDBCECB59CF3*
G04*
G04*
G04 #@! TF.FilePolarity,Positive*
G04*
G01*
G75*
%ADD10C,0.3400*%
%ADD11C,0.2400*%
%ADD12C,0.2000*%
%ADD13C,0.4000*%
%ADD15C,0.3500*%
%ADD16C,0.2540*%
%ADD17C,0.5000*%
%ADD19C,0.1000*%
%ADD20C,0.1270*%
%ADD21C,0.0500*%
%ADD22C,0.1500*%
%ADD23C,0.1200*%
%ADD24C,0.2140*%
G04:AMPARAMS|DCode=26|XSize=0.254mm|YSize=1.25mm|CornerRadius=0mm|HoleSize=0mm|Usage=FLASHONLY|Rotation=315.000|XOffset=0mm|YOffset=0mm|HoleType=Round|Shape=Rectangle|*
%AMROTATEDRECTD26*
4,1,4,-0.5317,-0.3521,0.3521,0.5317,0.5317,0.3521,-0.3521,-0.5317,-0.5317,-0.3521,0.0*
%
%ADD26ROTATEDRECTD26*%

G04:AMPARAMS|DCode=27|XSize=0.381mm|YSize=1.7mm|CornerRadius=0mm|HoleSize=0mm|Usage=FLASHONLY|Rotation=45.000|XOffset=0mm|YOffset=0mm|HoleType=Round|Shape=Rectangle|*
%AMROTATEDRECTD27*
4,1,4,0.4663,-0.7357,-0.7357,0.4663,-0.4663,0.7357,0.7357,-0.4663,0.4663,-0.7357,0.0*
%
%ADD27ROTATEDRECTD27*%

%ADD28R,2.6000X0.5080*%
%ADD29R,0.7620X3.9400*%
%ADD145C,0.2032*%
%ADD153C,0.3000*%
%ADD173C,0.1016*%
%ADD174C,0.0508*%
G36*
X117856Y-454660D02*
X112776Y-457200D01*
X117856Y-459740D01*
Y-454660D01*
D02*
G37*
D10*
X59864Y-360172D02*
G03*
X59864Y-360172I-1270J0D01*
G01*
D11*
X-353822Y36228D02*
G03*
X-353822Y36228I-1270J0D01*
G01*
D12*
X-368412Y85835D02*
G03*
X-368412Y85835I-1000J0D01*
G01*
X32082Y-350012D02*
G03*
X32082Y-350012I-1000J0D01*
G01*
X204948Y-186070D02*
X232948D01*
Y-172070D01*
X204948D02*
X232948D01*
X204948Y-186070D02*
Y-172070D01*
Y-202834D02*
X232948D01*
Y-188834D01*
X204948D02*
X232948D01*
X204948Y-202834D02*
Y-188834D01*
X227932Y-95932D02*
Y-85932D01*
X207932Y-95932D02*
X227932D01*
X207932D02*
Y-85932D01*
X227932D01*
X365307Y82496D02*
X390452Y107641D01*
X365307Y82496D02*
X379676Y68127D01*
X404821Y93272D01*
X390452Y107641D02*
X404821Y93272D01*
X216835Y-322960D02*
X225815Y-313979D01*
X224019Y-312183D02*
X225815Y-313979D01*
X215039Y-321164D02*
X216835Y-322960D01*
X215039Y-321164D02*
X224019Y-312183D01*
X200670Y-306795D02*
X215039Y-321164D01*
X209650Y-297815D02*
X224019Y-312183D01*
X200670Y-306795D02*
X209650Y-297815D01*
X357743Y-235576D02*
X377542Y-255375D01*
X347843Y-245475D02*
X357743Y-235576D01*
X347843Y-245475D02*
X367642Y-265274D01*
X377542Y-255375D01*
X206077Y-333761D02*
X215057Y-324781D01*
X213261Y-322985D02*
X215057Y-324781D01*
X204281Y-331965D02*
X206077Y-333761D01*
X204281Y-331965D02*
X213261Y-322985D01*
X189912Y-317597D02*
X204281Y-331965D01*
X198893Y-308617D02*
X213261Y-322985D01*
X189912Y-317597D02*
X198893Y-308617D01*
X268007Y-379168D02*
X284171Y-363003D01*
X251842Y-330674D02*
X284171Y-363003D01*
X235678Y-346839D02*
X251842Y-330674D01*
X235678Y-346839D02*
X268007Y-379168D01*
X-53594Y-391217D02*
Y-378517D01*
X-56134D02*
X-53594D01*
X-56134Y-391217D02*
X-53594D01*
X-56134D02*
Y-378517D01*
X-76454Y-391217D02*
X-56134D01*
X-76454Y-378517D02*
X-56134D01*
X-76454Y-391217D02*
Y-378517D01*
X-361472Y96647D02*
X-333472D01*
Y82647D02*
Y96647D01*
X-361472Y82647D02*
X-333472D01*
X-361472D02*
Y96647D01*
X-418368Y70423D02*
X-390368D01*
X-418368D02*
Y84423D01*
X-390368D01*
Y70423D02*
Y84423D01*
X-275912Y291092D02*
X-72266Y87446D01*
X-187524Y379481D02*
X16123Y175834D01*
X-275912Y291092D02*
X-187524Y379481D01*
X-72266Y87446D02*
X16123Y175834D01*
X-165324Y170297D02*
X-150956Y155929D01*
X-181489Y125396D02*
X-150956Y155929D01*
X-195857Y139764D02*
X-165324Y170297D01*
X-195857Y139764D02*
X-181489Y125396D01*
X-195468Y-401116D02*
X-181468D01*
Y-429116D02*
Y-401116D01*
X-195468Y-429116D02*
X-181468D01*
X-195468D02*
Y-401116D01*
X309509Y29023D02*
X323878Y43391D01*
X349022Y18247D01*
X334654Y3878D02*
X349022Y18247D01*
X309509Y29023D02*
X334654Y3878D01*
X80532Y-289988D02*
Y-279988D01*
X60532Y-289988D02*
X80532D01*
X60532D02*
Y-279988D01*
X80532D01*
X46750Y-290242D02*
Y-280242D01*
X26750Y-290242D02*
X46750D01*
X26750D02*
Y-280242D01*
X46750D01*
X-38448Y-232684D02*
Y-222684D01*
X-18448D01*
Y-232684D02*
Y-222684D01*
X-38448Y-232684D02*
X-18448D01*
X-45640Y-280576D02*
X-35640D01*
Y-300576D02*
Y-280576D01*
X-45640Y-300576D02*
X-35640D01*
X-45640D02*
Y-280576D01*
X-2220Y-326230D02*
X7780D01*
X-2220D02*
Y-306230D01*
X7780D01*
Y-326230D02*
Y-306230D01*
X-277855Y343816D02*
X-263713Y329674D01*
X-284927Y336745D02*
X-277855Y343816D01*
X-284927Y336745D02*
X-270784Y322603D01*
X-263713Y329674D01*
X397948Y-6487D02*
Y29073D01*
X377628D02*
X397948D01*
X377628Y-6487D02*
Y29073D01*
Y-6487D02*
X397948D01*
X432580Y140352D02*
X457725Y115208D01*
X418212Y125984D02*
X432580Y140352D01*
X443356Y100839D02*
X457725Y115208D01*
X418212Y125984D02*
X443356Y100839D01*
X-50068Y-413400D02*
Y-399400D01*
X-22068D01*
Y-413400D02*
Y-399400D01*
X-50068Y-413400D02*
X-22068D01*
X46443Y455858D02*
X95940Y406361D01*
X120689Y431110D01*
X46443Y455858D02*
X71192Y480607D01*
X120689Y431110D01*
X8292Y395478D02*
X36576Y367194D01*
X64860Y395478D01*
X8292D02*
X36576Y423762D01*
X64860Y395478D01*
X-116703Y53210D02*
X-96904Y33411D01*
X-87005Y43310D01*
X-116703Y53210D02*
X-106804Y63109D01*
X-87005Y43310D01*
X48651Y357502D02*
X68450Y337703D01*
X78349Y347602D01*
X48651Y357502D02*
X58550Y367401D01*
X78349Y347602D01*
X-146391Y83151D02*
X-126592Y63352D01*
X-116692Y73252D01*
X-146391Y83151D02*
X-136491Y93051D01*
X-116692Y73252D01*
X36459Y345818D02*
X56258Y326019D01*
X66157Y335918D01*
X36459Y345818D02*
X46358Y355717D01*
X66157Y335918D01*
X-85468Y297317D02*
X-65669Y317116D01*
X-75568Y327015D02*
X-65669Y317116D01*
X-95367Y307216D02*
X-85468Y297317D01*
X-95367Y307216D02*
X-75568Y327015D01*
X20245Y337058D02*
X34388Y322916D01*
X41459Y329987D01*
X27317Y344129D02*
X41459Y329987D01*
X20245Y337058D02*
X27317Y344129D01*
X-21000Y359308D02*
X-6858Y345165D01*
X213Y352237D01*
X-13929Y366379D02*
X213Y352237D01*
X-21000Y359308D02*
X-13929Y366379D01*
X87691Y362224D02*
X101834Y376367D01*
X87691Y362224D02*
X94762Y355153D01*
X108905Y369296D01*
X101834Y376367D02*
X108905Y369296D01*
X413918Y7075D02*
X443918Y7075D01*
X443918Y-22925D02*
X443918Y7075D01*
X413918Y-22925D02*
X443918Y-22925D01*
X413918Y-22925D02*
Y7075D01*
X431988Y34299D02*
X431988Y14299D01*
X411988Y34299D02*
X431988Y34299D01*
X411988Y14299D02*
X431988Y14299D01*
X411988Y14299D02*
Y34299D01*
X400569Y-6430D02*
Y13570D01*
Y-6430D02*
X410569D01*
Y13570D01*
X400569D02*
X410569D01*
X415407Y123180D02*
X440552Y98035D01*
X401039Y108811D02*
X415407Y123180D01*
X426183Y83666D02*
X440552Y98035D01*
X401039Y108811D02*
X426183Y83666D01*
X-151892Y-437642D02*
X-139192D01*
Y-435102D01*
X-151892Y-437642D02*
Y-435102D01*
X-139192D01*
X-151892D02*
Y-414782D01*
X-139192Y-435102D02*
Y-414782D01*
X-151892D02*
X-139192D01*
X415264Y46259D02*
X460984D01*
X415264D02*
Y69119D01*
X460984D01*
Y46259D02*
Y69119D01*
X-113746Y-352669D02*
X-81417Y-320340D01*
X-129911Y-336504D02*
X-113746Y-352669D01*
X-129911Y-336504D02*
X-97582Y-304175D01*
X-81417Y-320340D01*
X-138623Y-225278D02*
X-124480Y-211135D01*
X-138623Y-225278D02*
X-131552Y-232349D01*
X-117409Y-218206D01*
X-124480Y-211135D02*
X-117409Y-218206D01*
X-84138Y-329357D02*
X-69769Y-343726D01*
X-111079Y-356298D02*
X-84138Y-329357D01*
X-111079Y-356298D02*
X-96710Y-370667D01*
X-69769Y-343726D01*
X-81219Y-326664D02*
X-67076Y-340807D01*
X-60005Y-333736D01*
X-74148Y-319593D02*
X-60005Y-333736D01*
X-81219Y-326664D02*
X-74148Y-319593D01*
X10963Y327660D02*
X25105Y313518D01*
X32176Y320589D01*
X18034Y334731D02*
X32176Y320589D01*
X10963Y327660D02*
X18034Y334731D01*
X2052Y350713D02*
X16195Y336570D01*
X-5019Y343642D02*
X2052Y350713D01*
X-5019Y343642D02*
X9124Y329499D01*
X16195Y336570D01*
X11258Y360149D02*
X25400Y346007D01*
X4187Y353078D02*
X11258Y360149D01*
X4187Y353078D02*
X18329Y338936D01*
X25400Y346007D01*
X-11877Y368788D02*
X2266Y354645D01*
X9337Y361716D01*
X-4806Y375859D02*
X9337Y361716D01*
X-11877Y368788D02*
X-4806Y375859D01*
X-28622Y378446D02*
Y398446D01*
Y378446D02*
X-18622D01*
Y398446D01*
X-28622D02*
X-18622D01*
X-336426Y148473D02*
X-326527Y158372D01*
X-346326Y178171D02*
X-326527Y158372D01*
X-356225Y168272D02*
X-346326Y178171D01*
X-356225Y168272D02*
X-336426Y148473D01*
X-180803Y181083D02*
X-170904Y171184D01*
X-200602Y161284D02*
X-180803Y181083D01*
X-200602Y161284D02*
X-190703Y151385D01*
X-170904Y171184D01*
X-167894Y-414782D02*
X-155194D01*
Y-435102D02*
Y-414782D01*
X-167894Y-435102D02*
Y-414782D01*
Y-435102D02*
X-155194D01*
X-167894Y-437642D02*
Y-435102D01*
X-155194Y-437642D02*
Y-435102D01*
X-167894Y-437642D02*
X-155194D01*
X187452Y-127508D02*
X201452D01*
X201452Y-155508D02*
X201452Y-127508D01*
X187452Y-155508D02*
X201452Y-155508D01*
X187452Y-155508D02*
Y-127508D01*
X246634Y-127568D02*
X260634D01*
X246634D02*
X246634Y-99568D01*
X260634Y-99568D01*
Y-127568D02*
Y-99568D01*
X-263528Y-365135D02*
X-253629Y-375034D01*
X-273428Y-394833D02*
X-253629Y-375034D01*
X-283327Y-384934D02*
X-273428Y-394833D01*
X-283327Y-384934D02*
X-263528Y-365135D01*
X-276228Y-352943D02*
X-266329Y-362842D01*
X-286128Y-382641D02*
X-266329Y-362842D01*
X-296027Y-372742D02*
X-286128Y-382641D01*
X-296027Y-372742D02*
X-276228Y-352943D01*
X-288420Y-340497D02*
X-278521Y-350396D01*
X-298320Y-370195D02*
X-278521Y-350396D01*
X-308219Y-360296D02*
X-298320Y-370195D01*
X-308219Y-360296D02*
X-288420Y-340497D01*
X-300866Y-328051D02*
X-290967Y-337950D01*
X-310766Y-357749D02*
X-290967Y-337950D01*
X-320665Y-347850D02*
X-310766Y-357749D01*
X-320665Y-347850D02*
X-300866Y-328051D01*
X-313312Y-315605D02*
X-303413Y-325504D01*
X-323212Y-345303D02*
X-303413Y-325504D01*
X-333111Y-335404D02*
X-323212Y-345303D01*
X-333111Y-335404D02*
X-313312Y-315605D01*
X-325728Y-303382D02*
X-315828Y-313282D01*
X-335627Y-333081D02*
X-315828Y-313282D01*
X-345527Y-323181D02*
X-335627Y-333081D01*
X-345527Y-323181D02*
X-325728Y-303382D01*
X-205108Y-118501D02*
X-195209Y-128400D01*
X-215008Y-148199D02*
X-195209Y-128400D01*
X-224907Y-138300D02*
X-215008Y-148199D01*
X-224907Y-138300D02*
X-205108Y-118501D01*
X-217554Y-106055D02*
X-207655Y-115954D01*
X-227454Y-135753D02*
X-207655Y-115954D01*
X-237353Y-125854D02*
X-227454Y-135753D01*
X-237353Y-125854D02*
X-217554Y-106055D01*
X-229707Y-94117D02*
X-219807Y-104016D01*
X-239606Y-123815D02*
X-219807Y-104016D01*
X-249506Y-113916D02*
X-239606Y-123815D01*
X-249506Y-113916D02*
X-229707Y-94117D01*
X-109712Y-462770D02*
Y-390670D01*
X-133112D02*
X-109712D01*
X-133112Y-462770D02*
Y-390670D01*
Y-462770D02*
X-109712D01*
X-297729Y281809D02*
X-290658Y288880D01*
X-304800Y303022D02*
X-290658Y288880D01*
X-311871Y295951D02*
X-304800Y303022D01*
X-311871Y295951D02*
X-297729Y281809D01*
X325003Y45590D02*
X334902Y55489D01*
X354701Y35690D01*
X344802Y25791D02*
X354701Y35690D01*
X325003Y45590D02*
X344802Y25791D01*
X317624Y-6975D02*
X327523Y2924D01*
X297825Y12824D02*
X317624Y-6975D01*
X297825Y12824D02*
X307724Y22723D01*
X327523Y2924D01*
X217424Y-114955D02*
Y-122452D01*
X218923Y-123952D01*
X221922D01*
X223422Y-122452D01*
Y-114955D01*
X232419Y-123952D02*
X226421D01*
X232419Y-117954D01*
Y-116454D01*
X230920Y-114955D01*
X227921D01*
X226421Y-116454D01*
X-146653Y278266D02*
X-167859Y257059D01*
X-160791Y264128D01*
X-132516D01*
X-153722D01*
Y242922D01*
X-143119Y239387D02*
Y232319D01*
X-136050Y225250D01*
X-128981D01*
X-114844Y239387D01*
X-114844Y246456D01*
X-121912Y253525D01*
X-128981D01*
X-132516Y249991D01*
Y242922D01*
X-121912Y232319D01*
X-107775Y232319D02*
X-100706Y232319D01*
X-93637Y225250D01*
X-93637Y218181D01*
X-107775Y204044D01*
X-114844D01*
X-121912Y211112D01*
Y218181D01*
X-107775Y232319D01*
X-104241Y193440D02*
X-97172Y186371D01*
X-100706Y189906D01*
X-79500Y211112D01*
X-86568Y211112D01*
X47763Y-320294D02*
X39432D01*
X37766Y-321960D01*
Y-325292D01*
X39432Y-326959D01*
X47763D01*
X37766Y-330291D02*
Y-333623D01*
Y-331957D01*
X47763D01*
X46097Y-330291D01*
X37766Y-343620D02*
X47763D01*
X42764Y-338621D01*
Y-345286D01*
X418533Y-3556D02*
Y-9904D01*
X422765D01*
X428055D02*
Y-3556D01*
X424881Y-6730D01*
X429113D01*
X431229Y-4614D02*
X432287Y-3556D01*
X434403D01*
X435461Y-4614D01*
Y-8846D01*
X434403Y-9904D01*
X432287D01*
X431229Y-8846D01*
Y-4614D01*
X437577Y-9904D02*
X439693D01*
X438635D01*
Y-3556D01*
X437577Y-4614D01*
X-97219Y364112D02*
Y347450D01*
X-93887Y344118D01*
X-87222D01*
X-83890Y347450D01*
Y364112D01*
X-77225Y344118D02*
X-70561D01*
X-73893D01*
Y364112D01*
X-77225Y360779D01*
X-101641Y409150D02*
Y392488D01*
X-98309Y389156D01*
X-91644D01*
X-88312Y392488D01*
Y409150D01*
X-81647Y392488D02*
X-78315Y389156D01*
X-71651D01*
X-68318Y392488D01*
Y405817D01*
X-71651Y409150D01*
X-78315D01*
X-81647Y405817D01*
Y402485D01*
X-78315Y399153D01*
X-68318D01*
X-110737Y454616D02*
Y437954D01*
X-107405Y434622D01*
X-100740D01*
X-97408Y437954D01*
Y454616D01*
X-90744Y434622D02*
X-84079D01*
X-87411D01*
Y454616D01*
X-90744Y451283D01*
X-74082D02*
X-70750Y454616D01*
X-64086D01*
X-60753Y451283D01*
Y437954D01*
X-64086Y434622D01*
X-70750D01*
X-74082Y437954D01*
Y451283D01*
X-115733Y-425003D02*
Y-421670D01*
Y-423336D01*
X-124064D01*
X-125730Y-421670D01*
Y-420004D01*
X-124064Y-418338D01*
X-125730Y-434999D02*
Y-428335D01*
X-119066Y-434999D01*
X-117399D01*
X-115733Y-433333D01*
Y-430001D01*
X-117399Y-428335D01*
X-154940Y-55880D02*
G03*
X-164940Y-55880I-5000J0D01*
G01*
X66501Y-180197D02*
G03*
X59430Y-173125I-3536J3536D01*
G01*
X248801Y299011D02*
G03*
X241730Y291940I-3536J-3536D01*
G01*
X198374Y113124D02*
G03*
X198374Y103124I0J-5000D01*
G01*
X48768Y-128270D02*
G03*
X48768Y-138270I0J-5000D01*
G01*
X176370Y121412D02*
G03*
X166370Y121412I-5000J0D01*
G01*
X-153147Y-16430D02*
G03*
X-146076Y-9359I3536J3536D01*
G01*
X-222297Y100363D02*
G03*
X-229368Y93292I-3536J-3536D01*
G01*
X-254915Y67804D02*
G03*
X-254915Y77804I0J5000D01*
G01*
X-174264Y307868D02*
G03*
X-181336Y314940I-3536J3536D01*
G01*
X-42164Y466598D02*
G03*
X-49235Y473669I-3536J3536D01*
G01*
X-151216Y277454D02*
G03*
X-144350Y270588I3433J-3433D01*
G01*
X308004Y380662D02*
G03*
X332652Y359489I12544J-10330D01*
G01*
X-207616Y-443945D02*
G03*
X-236516Y-429099I-14634J7065D01*
G01*
X49167Y-183388D02*
X59430Y-173125D01*
X-58928Y-183388D02*
X49167D01*
X-154940Y-87376D02*
Y-55880D01*
X53404Y-193294D02*
X66501Y-180196D01*
X-154940Y-87376D02*
X-58928Y-183388D01*
X-164940Y-91518D02*
X-63164Y-193294D01*
X53404D01*
X-164940Y-91518D02*
Y-55880D01*
X248801Y299011D02*
X334026Y213786D01*
X324026Y148176D02*
Y209644D01*
X198374Y103124D02*
X293116D01*
X198374Y113124D02*
X288974D01*
X241730Y291940D02*
X324026Y209644D01*
X334026Y144034D02*
Y213786D01*
X293116Y103124D02*
X334026Y144034D01*
X288974Y113124D02*
X324026Y148176D01*
X166370Y-51562D02*
Y121412D01*
X48768Y-128270D02*
X89662D01*
X48768Y-138270D02*
X93804D01*
X176370Y-55704D02*
Y121412D01*
X93804Y-138270D02*
X176370Y-55704D01*
X89662Y-128270D02*
X166370Y-51562D01*
X-212360Y76284D02*
X-190226Y54150D01*
X-229368Y93292D02*
X-212360Y76284D01*
X-222297Y100363D02*
X-202360Y80427D01*
X-179832Y24397D02*
Y57899D01*
Y24397D02*
X-146076Y-9359D01*
X-202360Y80427D02*
X-179832Y57899D01*
X-190226Y20649D02*
X-153147Y-16430D01*
X-190226Y20649D02*
Y54150D01*
X-195834Y258998D02*
Y300441D01*
X-278968Y77804D02*
X-254915D01*
X-295910Y93462D02*
Y144780D01*
X-305910Y89320D02*
Y148922D01*
Y89320D02*
X-285973Y69383D01*
X-284394Y67804D02*
X-282437D01*
X-283110D02*
X-254915D01*
X-285973Y69383D02*
X-284394Y67804D01*
X-185166Y296967D02*
X-174264Y307868D01*
X-305910Y148922D02*
X-195834Y258998D01*
X-280252Y77804D02*
X-278968D01*
X-185166Y255524D02*
Y296967D01*
X-295910Y93462D02*
X-280252Y77804D01*
X-295910Y144780D02*
X-185166Y255524D01*
X-195834Y300441D02*
X-181336Y314940D01*
X-144350Y270588D02*
X-52070Y362868D01*
X-151216Y277454D02*
X-62070Y366600D01*
X-52070Y362868D02*
Y456692D01*
X-62070Y366600D02*
Y460834D01*
X-52070Y456692D02*
X-42164Y466598D01*
X-62070Y460834D02*
X-49235Y473669D01*
X308004Y380662D02*
X320548Y370332D01*
X-236516Y-429099D02*
X-222250Y-436880D01*
X-207616Y-443945D01*
X320548Y370332D02*
X332652Y359489D01*
D13*
X212844Y-124968D02*
G03*
X212844Y-124968I-500J0D01*
G01*
X6126Y-429496D02*
X-3871D01*
X1127D01*
Y-454488D01*
X-3871Y-459486D01*
X-8869D01*
X-13868Y-454488D01*
X16122Y-434494D02*
X21121Y-429496D01*
X31118D01*
X36116Y-434494D01*
Y-439493D01*
X31118Y-444491D01*
X26119D01*
X31118D01*
X36116Y-449489D01*
Y-454488D01*
X31118Y-459486D01*
X21121D01*
X16122Y-454488D01*
D15*
X225667Y-254735D02*
G03*
X225667Y-254735I-1270J0D01*
G01*
D16*
X-29972Y-282682D02*
G03*
X-29972Y-282682I-1270J0D01*
G01*
X-280196Y292275D02*
G03*
X-280196Y292275I-1270J0D01*
G01*
X-90905Y-50873D02*
G03*
X-134038Y-94007I-21567J-21567D01*
G01*
X-64035Y-164011D02*
G03*
X-20902Y-120877I21567J21567D01*
G01*
X42336Y364047D02*
G03*
X42336Y364047I-1270J0D01*
G01*
X430116Y39539D02*
G03*
X430116Y39539I-254J0D01*
G01*
X-359432Y30998D02*
X-330432D01*
Y43998D01*
X-359432Y30998D02*
Y43998D01*
X-330432D01*
X305509Y-358829D02*
X373391Y-290946D01*
X274396Y-191951D02*
X373391Y-290946D01*
X206514Y-259834D02*
X305509Y-358829D01*
X206514Y-259834D02*
X274396Y-191951D01*
X-41526Y-260588D02*
X-15526D01*
X-41526D02*
Y-238588D01*
X-15526Y-260588D02*
Y-238588D01*
X-41526D02*
X-15526D01*
X-248135Y332626D02*
X-227983Y352779D01*
X-260156Y344647D02*
X-240003Y364800D01*
X-227983Y352779D01*
X-260156Y344647D02*
X-248135Y332626D01*
X-302602Y307273D02*
X-282096Y327779D01*
X-302602Y307273D02*
X-293410Y298080D01*
X-282096Y327779D02*
X-272903Y318586D01*
X-293410Y298080D02*
X-272903Y318586D01*
X-90905Y-50873D02*
X-20902Y-120877D01*
X-134038Y-94007D02*
X-64035Y-164011D01*
X-86526Y288239D02*
X-70969Y303796D01*
X-86526Y288239D02*
X-53999Y255712D01*
X-38442Y271269D01*
X-70969Y303796D02*
X-38442Y271269D01*
X-20956Y222315D02*
X-5399Y237871D01*
X-20956Y222315D02*
X11571Y189788D01*
X27128Y205345D01*
X-5399Y237871D02*
X27128Y205345D01*
X21878Y220109D02*
X37435Y235665D01*
X69962Y203139D01*
X21878Y220109D02*
X54405Y187582D01*
X69962Y203139D01*
X12000Y-26580D02*
X97000D01*
Y16420D01*
X12000D02*
X97000D01*
X12000Y-26580D02*
Y16420D01*
X41746Y192418D02*
X77102Y157062D01*
X-50178Y100494D02*
X-14822Y65138D01*
X-50178Y100494D02*
X41746Y192418D01*
X-14822Y65138D02*
X77102Y157062D01*
X-49114Y332814D02*
Y373814D01*
X-124114Y332814D02*
X-49114D01*
X-124114Y373814D02*
X-49114D01*
X-124114Y332814D02*
Y373814D01*
X-49114Y378026D02*
X-49114Y419026D01*
X-124114Y378026D02*
X-49114D01*
X-124114Y419026D02*
X-49114D01*
X-124114Y378026D02*
X-124114Y419026D01*
X-48606Y422730D02*
Y463730D01*
X-123606Y422730D02*
Y463730D01*
X-48606D01*
X-123606Y422730D02*
X-48606D01*
X-292393Y132385D02*
X-209775Y215003D01*
X-319334Y159326D02*
X-292393Y132385D01*
X-319334Y159326D02*
X-236716Y241944D01*
X-209775Y215003D01*
X-285061Y281634D02*
X-188046Y184619D01*
X-359024Y207671D02*
X-285061Y281634D01*
X-262009Y110655D02*
X-188046Y184619D01*
X-359024Y207671D02*
X-262009Y110655D01*
X-309473Y4756D02*
X-262473D01*
X-309473Y-34644D02*
Y4756D01*
X-262473Y-34644D02*
Y4756D01*
X-309473Y-34644D02*
X-262473D01*
X-425605Y-183995D02*
X-312468Y-70857D01*
X-213473Y-396127D02*
X-100336Y-282990D01*
X-312468Y-70857D02*
X-100336Y-282990D01*
X-425605Y-183995D02*
X-213473Y-396127D01*
X191274Y445030D02*
X452904Y183400D01*
X283198Y13694D02*
X452904Y183400D01*
X21568Y275324D02*
X191274Y445030D01*
X21568Y275324D02*
X283198Y13694D01*
X81322Y-316738D02*
X70492D01*
X68326Y-318904D01*
Y-323236D01*
X70492Y-325402D01*
X81322D01*
X68326Y-329734D02*
Y-334066D01*
Y-331900D01*
X81322D01*
X79156Y-329734D01*
X81322Y-349227D02*
X79156Y-344896D01*
X74824Y-340564D01*
X70492D01*
X68326Y-342730D01*
Y-347062D01*
X70492Y-349227D01*
X72658D01*
X74824Y-347062D01*
Y-340564D01*
X-88533Y-89727D02*
X-95601Y-96796D01*
Y-103864D01*
X-88533D01*
X-81464Y-96796D01*
X-86765Y-109166D02*
Y-112700D01*
X-83231Y-116235D01*
X-79697D01*
X-72628Y-109166D01*
Y-105632D01*
X-76162Y-102097D01*
X-79697D01*
X-81464Y-103864D01*
Y-107399D01*
X-76162Y-112700D01*
X-69093D02*
X-65559D01*
X-62025Y-116235D01*
Y-119769D01*
X-69093Y-126838D01*
X-72628D01*
X-76162Y-123303D01*
Y-119769D01*
X-69093Y-112700D01*
X-67326Y-132140D02*
X-63792Y-135674D01*
X-65559Y-133907D01*
X-54956Y-123303D01*
X-58490D01*
X82739Y456326D02*
X79205Y438654D01*
X89808Y449257D02*
X72136Y445723D01*
X89808Y428051D02*
X82739Y435120D01*
X96877D01*
X98644Y436887D01*
Y440421D01*
X95110Y443956D01*
X91575D01*
X24892Y404377D02*
Y391881D01*
X27391Y389382D01*
X32390D01*
X34889Y391881D01*
Y404377D01*
X49884D02*
X44886Y401878D01*
X39887Y396880D01*
Y391881D01*
X42386Y389382D01*
X47385D01*
X49884Y391881D01*
Y394380D01*
X47385Y396880D01*
X39887D01*
X-283105Y-202587D02*
X-292083Y-211565D01*
Y-215156D01*
X-288492Y-218746D01*
X-284901D01*
X-275923Y-209769D01*
Y-231315D02*
X-283105Y-224133D01*
X-268741D01*
X-266946Y-222337D01*
Y-218746D01*
X-270537Y-215156D01*
X-274128D01*
X-263355Y-225928D02*
X-259764D01*
X-256173Y-229519D01*
Y-233110D01*
X-263355Y-240292D01*
X-266946D01*
X-270537Y-236701D01*
Y-233110D01*
X-263355Y-225928D01*
X-261560Y-245679D02*
X-257969Y-249269D01*
X-259764Y-247474D01*
X-248991Y-236701D01*
X-252582D01*
X489746Y0D02*
G03*
X489746Y0I-490000J0D01*
G01*
D17*
X-117094Y366014D02*
G03*
X-117094Y366014I-1270J0D01*
G01*
Y411226D02*
G03*
X-117094Y411226I-1270J0D01*
G01*
X-53086Y430530D02*
G03*
X-53086Y430530I-1270J0D01*
G01*
D19*
X59604Y-354732D02*
X90604D01*
Y-309732D01*
X59604Y-354732D02*
Y-309732D01*
X90604D01*
X211328Y-181610D02*
Y-175612D01*
X214327D01*
X215327Y-176612D01*
Y-178611D01*
X214327Y-179611D01*
X211328D01*
X213327D02*
X215327Y-181610D01*
X217326Y-180610D02*
X218326Y-181610D01*
X220325D01*
X221325Y-180610D01*
Y-176612D01*
X220325Y-175612D01*
X218326D01*
X217326Y-176612D01*
Y-177611D01*
X218326Y-178611D01*
X221325D01*
X211328Y-198374D02*
Y-192376D01*
X214327D01*
X215327Y-193376D01*
Y-195375D01*
X214327Y-196375D01*
X211328D01*
X213327D02*
X215327Y-198374D01*
X217326D02*
X219325D01*
X218326D01*
Y-192376D01*
X217326Y-193376D01*
X222324D02*
X223324Y-192376D01*
X225324D01*
X226323Y-193376D01*
Y-197374D01*
X225324Y-198374D01*
X223324D01*
X222324Y-197374D01*
Y-193376D01*
X-382270Y45212D02*
X-378271D01*
Y43213D01*
X-378938Y42546D01*
X-380271D01*
X-380937Y43213D01*
Y45212D01*
Y43879D02*
X-382270Y42546D01*
X-378271Y41213D02*
Y38547D01*
X-378938D01*
X-381604Y41213D01*
X-382270D01*
X-375382Y68651D02*
Y71983D01*
X-376215Y72816D01*
X-377881D01*
X-378714Y71983D01*
Y68651D01*
X-377881Y67818D01*
X-376215D01*
X-377048Y69484D02*
X-375382Y67818D01*
X-376215D02*
X-375382Y68651D01*
X-373716Y67818D02*
X-372049D01*
X-372883D01*
Y72816D01*
X-373716Y71983D01*
X-353328Y72644D02*
Y76643D01*
X-351328D01*
X-350662Y75976D01*
Y74643D01*
X-351328Y73977D01*
X-353328D01*
X-351995D02*
X-350662Y72644D01*
X-349329Y75976D02*
X-348662Y76643D01*
X-347330D01*
X-346663Y75976D01*
Y75310D01*
X-347330Y74643D01*
X-346663Y73977D01*
Y73310D01*
X-347330Y72644D01*
X-348662D01*
X-349329Y73310D01*
Y73977D01*
X-348662Y74643D01*
X-349329Y75310D01*
Y75976D01*
X-348662Y74643D02*
X-347330D01*
X217042Y-89378D02*
X216375Y-88711D01*
X215042D01*
X214376Y-89378D01*
Y-92044D01*
X215042Y-92710D01*
X216375D01*
X217042Y-92044D01*
X218375Y-89378D02*
X219041Y-88711D01*
X220374D01*
X221040Y-89378D01*
Y-90044D01*
X220374Y-90711D01*
X221040Y-91377D01*
Y-92044D01*
X220374Y-92710D01*
X219041D01*
X218375Y-92044D01*
Y-91377D01*
X219041Y-90711D01*
X218375Y-90044D01*
Y-89378D01*
X219041Y-90711D02*
X220374D01*
X380238Y90424D02*
X384479Y94665D01*
X386600Y92545D01*
X386600Y91131D01*
X385186Y89717D01*
X383772D01*
X381652Y91838D01*
X383065Y90424D02*
X383065Y87597D01*
X391548D02*
X389427Y88303D01*
X386600D01*
X385186Y86890D01*
Y85476D01*
X386600Y84062D01*
X388014D01*
X388721Y84769D01*
Y86183D01*
X386600Y88303D01*
X211407Y-305082D02*
X207873Y-308617D01*
X209640Y-310384D01*
X210818D01*
X213175Y-308028D01*
X213175Y-306850D01*
X211407Y-305082D01*
X211996Y-311562D02*
Y-312740D01*
X213175Y-313918D01*
X214353D01*
X216709Y-311562D01*
Y-310384D01*
X215531Y-309206D01*
X214353Y-309206D01*
X213764Y-309795D01*
Y-310973D01*
X215531Y-312740D01*
X358648Y-249682D02*
X361880Y-246450D01*
X363496Y-248066D01*
Y-249143D01*
X362419Y-250221D01*
X361341D01*
X359725Y-248605D01*
X360803Y-249682D02*
X360803Y-251837D01*
X364034Y-255068D02*
X361880Y-252914D01*
X366189D01*
X366728Y-252375D01*
Y-251298D01*
X365650Y-250221D01*
X364573D01*
X366728Y-257762D02*
X369959Y-254530D01*
X366728D01*
X368882Y-256684D01*
X178816Y-300228D02*
X181644Y-297400D01*
X183057Y-298814D01*
Y-299757D01*
X182115Y-300699D01*
X181172Y-300699D01*
X179758Y-299286D01*
X180701Y-300228D02*
X180701Y-302113D01*
X183057Y-304469D02*
X185885Y-301642D01*
X183057Y-301642D01*
X184942Y-303527D01*
X189184Y-304940D02*
X187770Y-304469D01*
X185885D01*
X184942Y-305412D01*
Y-306354D01*
X185885Y-307297D01*
X186827D01*
X187299Y-306826D01*
X187299Y-305883D01*
X185885Y-304469D01*
X190754Y-290242D02*
X193582Y-287414D01*
X194995Y-288828D01*
Y-289771D01*
X194053Y-290713D01*
X193110Y-290713D01*
X191696Y-289300D01*
X192639Y-290242D02*
X192639Y-292127D01*
X194995Y-294483D02*
X197823Y-291656D01*
X194995Y-291656D01*
X196880Y-293541D01*
X199237Y-293069D02*
X201122Y-294954D01*
X200650Y-295426D01*
X196880D01*
X196409Y-295897D01*
X200384Y-315236D02*
X196850Y-318770D01*
X198617Y-320537D01*
X199795D01*
X202152Y-318181D01*
X202152Y-317003D01*
X200384Y-315236D01*
X203330Y-319359D02*
X204508Y-319359D01*
X205686Y-320537D01*
Y-321715D01*
X205097Y-322304D01*
X203919D01*
Y-323483D01*
X203330Y-324072D01*
X202152D01*
X200973Y-322893D01*
Y-321715D01*
X201562Y-321126D01*
X202741D01*
Y-319948D01*
X203330Y-319359D01*
X202741Y-321126D02*
X203919Y-322304D01*
X230254Y-323053D02*
Y-322110D01*
X229312Y-321168D01*
X228369D01*
X226484Y-323053D01*
Y-323995D01*
X227427Y-324938D01*
X228369D01*
X230726Y-328237D02*
X228841Y-326352D01*
X232611D01*
X233082Y-325880D01*
Y-324938D01*
X232139Y-323995D01*
X231197D01*
X234496Y-326352D02*
X236381Y-328237D01*
X235909Y-328708D01*
X232139D01*
X231668Y-329179D01*
X-75184Y-379893D02*
Y-389890D01*
X-70186D01*
X-68520Y-388224D01*
Y-381559D01*
X-70186Y-379893D01*
X-75184D01*
X-58523Y-389890D02*
X-65187D01*
X-58523Y-383226D01*
Y-381559D01*
X-60189Y-379893D01*
X-63521D01*
X-65187Y-381559D01*
X-353328Y58913D02*
Y62912D01*
X-351328D01*
X-350662Y62245D01*
Y60912D01*
X-351328Y60246D01*
X-353328D01*
X-351995D02*
X-350662Y58913D01*
X-346663Y62912D02*
X-349329D01*
Y60912D01*
X-347996Y61579D01*
X-347330D01*
X-346663Y60912D01*
Y59580D01*
X-347330Y58913D01*
X-348662D01*
X-349329Y59580D01*
X-162782Y439038D02*
X-158783D01*
Y437039D01*
X-159450Y436372D01*
X-160783D01*
X-161449Y437039D01*
Y439038D01*
Y437705D02*
X-162782Y436372D01*
X-159450Y435039D02*
X-158783Y434373D01*
Y433040D01*
X-159450Y432374D01*
X-160116D01*
X-160783Y433040D01*
Y433706D01*
Y433040D01*
X-161449Y432374D01*
X-162116D01*
X-162782Y433040D01*
Y434373D01*
X-162116Y435039D01*
X-162782Y428375D02*
Y431041D01*
X-160116Y428375D01*
X-159450D01*
X-158783Y429041D01*
Y430374D01*
X-159450Y431041D01*
X-13929Y423762D02*
X-9930D01*
Y421763D01*
X-10597Y421096D01*
X-11930D01*
X-12596Y421763D01*
Y423762D01*
Y422429D02*
X-13929Y421096D01*
X-10597Y419764D02*
X-9930Y419097D01*
Y417764D01*
X-10597Y417098D01*
X-11263D01*
X-11930Y417764D01*
Y418431D01*
Y417764D01*
X-12596Y417098D01*
X-13263D01*
X-13929Y417764D01*
Y419097D01*
X-13263Y419764D01*
X-13929Y415765D02*
Y414432D01*
Y415098D01*
X-9930D01*
X-10597Y415765D01*
X-348553Y91866D02*
X-349553Y92866D01*
X-351552D01*
X-352552Y91866D01*
Y87868D01*
X-351552Y86868D01*
X-349553D01*
X-348553Y87868D01*
X-346554Y91866D02*
X-345554Y92866D01*
X-343555D01*
X-342555Y91866D01*
Y90867D01*
X-343555Y89867D01*
X-344555D01*
X-343555D01*
X-342555Y88867D01*
Y87868D01*
X-343555Y86868D01*
X-345554D01*
X-346554Y87868D01*
X-405195Y79674D02*
X-406195Y80674D01*
X-408194D01*
X-409194Y79674D01*
Y75676D01*
X-408194Y74676D01*
X-406195D01*
X-405195Y75676D01*
X-403196Y80674D02*
X-399197D01*
Y79674D01*
X-403196Y75676D01*
Y74676D01*
X-179149Y134992D02*
X-186218Y142061D01*
X-182684Y145595D01*
X-180327D01*
X-177971Y143239D01*
Y140883D01*
X-181506Y137348D01*
X-179149Y139705D02*
X-174437D01*
Y153842D02*
X-179149Y149130D01*
X-175615Y145595D01*
X-174437Y149129D01*
X-173258Y150308D01*
X-170902D01*
X-168546Y147951D01*
Y145595D01*
X-170902Y143239D01*
X-173259D01*
X-172080Y156198D02*
X-167368Y160911D01*
X-166190Y159733D01*
Y150308D01*
X-165012Y149130D01*
X-100255Y-263120D02*
X-103082Y-260292D01*
X-101668Y-258878D01*
X-100726D01*
X-99783Y-259821D01*
X-99783Y-260763D01*
X-101197Y-262177D01*
X-100255Y-261235D02*
X-98370Y-261235D01*
X-97427Y-260292D02*
X-96485Y-259350D01*
X-96956Y-259821D01*
X-99783Y-256994D01*
Y-257936D01*
X-95542Y-257465D02*
X-94600D01*
X-93657Y-256522D01*
Y-255580D01*
X-95542Y-253695D01*
X-96485D01*
X-97427Y-254637D01*
Y-255580D01*
X-96956Y-256051D01*
X-96013D01*
X-94600Y-254637D01*
X-185010Y-411495D02*
Y-409495D01*
Y-410495D01*
X-190008D01*
X-191008Y-409495D01*
Y-408496D01*
X-190008Y-407496D01*
X-191008Y-416493D02*
X-185010D01*
X-188009Y-413494D01*
Y-417493D01*
X299501Y-727D02*
X295910Y-4318D01*
X297705Y-6113D01*
X298902Y-6113D01*
X301296Y-3720D01*
Y-2523D01*
X299501Y-727D01*
Y-7909D02*
X300698Y-9106D01*
X300099Y-8507D01*
X303690Y-4916D01*
X302493Y-4916D01*
X328444Y27934D02*
X328444Y29348D01*
X327030Y30761D01*
X325616D01*
X322789Y27934D01*
Y26520D01*
X324202Y25106D01*
X325616D01*
X329857Y26520D02*
X331271D01*
X332685Y25106D01*
X332685Y23693D01*
X331978Y22986D01*
X330564D01*
X329857Y23693D01*
X330564Y22986D01*
Y21572D01*
X329857Y20865D01*
X328444D01*
X327030Y22279D01*
Y23693D01*
X333392Y15917D02*
X330564Y18744D01*
X336219D01*
X336926Y19451D01*
X336926Y20865D01*
X335512Y22279D01*
X334099D01*
X-38448Y-246257D02*
Y-252921D01*
X-37115Y-254254D01*
X-34449D01*
X-33116Y-252921D01*
Y-246257D01*
X-30451Y-254254D02*
X-27785D01*
X-29118D01*
Y-246257D01*
X-30451Y-247589D01*
X-18454Y-246257D02*
X-23786D01*
Y-250255D01*
X-21120Y-248922D01*
X-19787D01*
X-18454Y-250255D01*
Y-252921D01*
X-19787Y-254254D01*
X-22453D01*
X-23786Y-252921D01*
X-20448Y-287593D02*
Y-290926D01*
X-19782Y-291592D01*
X-18449D01*
X-17782Y-290926D01*
Y-287593D01*
X-16449D02*
X-13784D01*
Y-288260D01*
X-16449Y-290926D01*
Y-291592D01*
X1270Y-248666D02*
X5269D01*
Y-250665D01*
X4602Y-251332D01*
X3269D01*
X2603Y-250665D01*
Y-248666D01*
Y-249999D02*
X1270Y-251332D01*
X5269Y-255331D02*
Y-252665D01*
X3269D01*
X3936Y-253998D01*
Y-254664D01*
X3269Y-255331D01*
X1936D01*
X1270Y-254664D01*
Y-253331D01*
X1936Y-252665D01*
X5269Y-259329D02*
Y-256663D01*
X3269D01*
X3936Y-257996D01*
Y-258663D01*
X3269Y-259329D01*
X1936D01*
X1270Y-258663D01*
Y-257330D01*
X1936Y-256663D01*
X-24225Y-308230D02*
X-20227D01*
Y-310229D01*
X-20893Y-310896D01*
X-22226D01*
X-22893Y-310229D01*
Y-308230D01*
Y-309563D02*
X-24225Y-310896D01*
X-20227Y-314895D02*
Y-312229D01*
X-22226D01*
X-21560Y-313562D01*
Y-314228D01*
X-22226Y-314895D01*
X-23559D01*
X-24225Y-314228D01*
Y-312895D01*
X-23559Y-312229D01*
X-24225Y-318227D02*
X-20227D01*
X-22226Y-316227D01*
Y-318893D01*
X-257810Y-393700D02*
X-260637Y-390872D01*
X-259224Y-389459D01*
X-258281D01*
X-257339Y-390401D01*
X-257339Y-391344D01*
X-258752Y-392757D01*
X-257810Y-391815D02*
X-255925Y-391815D01*
Y-386160D02*
X-257810Y-388045D01*
X-256396Y-389459D01*
X-255925Y-388045D01*
X-255454Y-387574D01*
X-254511D01*
X-253569Y-388516D01*
Y-389459D01*
X-254511Y-390401D01*
X-255454D01*
X-254511Y-385689D02*
Y-384746D01*
X-253569Y-383804D01*
X-252626D01*
X-252155Y-384275D01*
Y-385218D01*
X-252626Y-385689D01*
X-252155Y-385218D01*
X-251213Y-385218D01*
X-250741Y-385689D01*
Y-386631D01*
X-251684Y-387574D01*
X-252626D01*
X-159183Y-201127D02*
X-162010Y-198300D01*
X-160596Y-196886D01*
X-159654D01*
X-158711Y-197828D01*
X-158711Y-198771D01*
X-160125Y-200185D01*
X-159183Y-199242D02*
X-157298Y-199242D01*
Y-193587D02*
X-159183Y-195472D01*
X-157769Y-196886D01*
X-157298Y-195472D01*
X-156826Y-195001D01*
X-155884D01*
X-154941Y-195943D01*
Y-196886D01*
X-155884Y-197828D01*
X-156826D01*
X-151643Y-193587D02*
X-153528Y-195472D01*
Y-191702D01*
X-153999Y-191231D01*
X-154941D01*
X-155884Y-192173D01*
Y-193116D01*
X-168757Y-192471D02*
X-171585Y-189643D01*
X-170171Y-188229D01*
X-169229D01*
X-168286Y-189172D01*
X-168286Y-190114D01*
X-169700Y-191528D01*
X-168757Y-190586D02*
X-166873Y-190586D01*
Y-184931D02*
X-168757Y-186816D01*
X-167344Y-188229D01*
X-166873Y-186816D01*
X-166401Y-186344D01*
X-165459D01*
X-164516Y-187287D01*
Y-188229D01*
X-165459Y-189172D01*
X-166401D01*
X-163102Y-186816D02*
X-162160Y-185873D01*
X-162631Y-186344D01*
X-165459Y-183517D01*
Y-184459D01*
X780Y-285750D02*
X4779D01*
Y-287749D01*
X4112Y-288416D01*
X2779D01*
X2113Y-287749D01*
Y-285750D01*
Y-287083D02*
X780Y-288416D01*
Y-291748D02*
X4779D01*
X2779Y-289749D01*
Y-292414D01*
X780Y-295747D02*
X4779D01*
X2779Y-293747D01*
Y-296413D01*
X-11780Y-308230D02*
X-7781D01*
Y-310229D01*
X-8447Y-310896D01*
X-9780D01*
X-10447Y-310229D01*
Y-308230D01*
Y-309563D02*
X-11780Y-310896D01*
Y-314228D02*
X-7781D01*
X-9780Y-312229D01*
Y-314895D01*
X-11780Y-316227D02*
Y-317560D01*
Y-316894D01*
X-7781D01*
X-8447Y-316227D01*
X67436Y-283688D02*
X66769Y-283021D01*
X65436D01*
X64770Y-283688D01*
Y-286354D01*
X65436Y-287020D01*
X66769D01*
X67436Y-286354D01*
X68769Y-283688D02*
X69435Y-283021D01*
X70768D01*
X71434Y-283688D01*
Y-284354D01*
X70768Y-285021D01*
X70102D01*
X70768D01*
X71434Y-285687D01*
Y-286354D01*
X70768Y-287020D01*
X69435D01*
X68769Y-286354D01*
X72767Y-283688D02*
X73434Y-283021D01*
X74767D01*
X75433Y-283688D01*
Y-284354D01*
X74767Y-285021D01*
X75433Y-285687D01*
Y-286354D01*
X74767Y-287020D01*
X73434D01*
X72767Y-286354D01*
Y-285687D01*
X73434Y-285021D01*
X72767Y-284354D01*
Y-283688D01*
X73434Y-285021D02*
X74767D01*
X34748Y-284450D02*
X34081Y-283783D01*
X32748D01*
X32082Y-284450D01*
Y-287116D01*
X32748Y-287782D01*
X34081D01*
X34748Y-287116D01*
X36081Y-284450D02*
X36747Y-283783D01*
X38080D01*
X38747Y-284450D01*
Y-285116D01*
X38080Y-285783D01*
X37414D01*
X38080D01*
X38747Y-286449D01*
Y-287116D01*
X38080Y-287782D01*
X36747D01*
X36081Y-287116D01*
X40079Y-283783D02*
X42745D01*
Y-284450D01*
X40079Y-287116D01*
Y-287782D01*
X-31116Y-226538D02*
X-31783Y-225871D01*
X-33116D01*
X-33782Y-226538D01*
Y-229204D01*
X-33116Y-229870D01*
X-31783D01*
X-31116Y-229204D01*
X-29783Y-226538D02*
X-29117Y-225871D01*
X-27784D01*
X-27118Y-226538D01*
Y-227204D01*
X-27784Y-227871D01*
X-28450D01*
X-27784D01*
X-27118Y-228537D01*
Y-229204D01*
X-27784Y-229870D01*
X-29117D01*
X-29783Y-229204D01*
X-23119Y-225871D02*
X-24452Y-226538D01*
X-25785Y-227871D01*
Y-229204D01*
X-25118Y-229870D01*
X-23785D01*
X-23119Y-229204D01*
Y-228537D01*
X-23785Y-227871D01*
X-25785D01*
X-39308Y-288416D02*
X-38641Y-287749D01*
Y-286416D01*
X-39308Y-285750D01*
X-41974D01*
X-42640Y-286416D01*
Y-287749D01*
X-41974Y-288416D01*
X-39308Y-289749D02*
X-38641Y-290415D01*
Y-291748D01*
X-39308Y-292414D01*
X-39974D01*
X-40641Y-291748D01*
Y-291082D01*
Y-291748D01*
X-41307Y-292414D01*
X-41974D01*
X-42640Y-291748D01*
Y-290415D01*
X-41974Y-289749D01*
X-38641Y-296413D02*
Y-293747D01*
X-40641D01*
X-39974Y-295080D01*
Y-295747D01*
X-40641Y-296413D01*
X-41974D01*
X-42640Y-295747D01*
Y-294414D01*
X-41974Y-293747D01*
X4112Y-310896D02*
X4779Y-310229D01*
Y-308896D01*
X4112Y-308230D01*
X1446D01*
X780Y-308896D01*
Y-310229D01*
X1446Y-310896D01*
X4112Y-312229D02*
X4779Y-312895D01*
Y-314228D01*
X4112Y-314895D01*
X3446D01*
X2779Y-314228D01*
Y-313562D01*
Y-314228D01*
X2113Y-314895D01*
X1446D01*
X780Y-314228D01*
Y-312895D01*
X1446Y-312229D01*
X780Y-318227D02*
X4779D01*
X2779Y-316227D01*
Y-318893D01*
X-276171Y337618D02*
Y338561D01*
X-277114Y339503D01*
X-278056D01*
X-279941Y337618D01*
Y336676D01*
X-278999Y335733D01*
X-278056D01*
X-274757Y337147D02*
X-272873Y335262D01*
X-273344Y334791D01*
X-277114D01*
X-277585Y334319D01*
X-272401Y333848D02*
X-271459D01*
X-270516Y332906D01*
Y331963D01*
X-272401Y330078D01*
X-273344D01*
X-274286Y331021D01*
Y331963D01*
X-272401Y333848D01*
X-271930Y328664D02*
X-270987Y327722D01*
X-271459Y328193D01*
X-268631Y331021D01*
X-269574D01*
X-249209Y347977D02*
X-245618Y344386D01*
X-243822Y346181D01*
X-243823Y347378D01*
X-246217Y349772D01*
X-247413D01*
X-249209Y347977D01*
X-242626Y348575D02*
X-241429D01*
X-240232Y349772D01*
Y350969D01*
X-242626Y353363D01*
X-243822D01*
X-245019Y352166D01*
X-245019Y350969D01*
X-244421Y350371D01*
X-243224D01*
X-241429Y352166D01*
Y354560D02*
Y355757D01*
X-240232Y356954D01*
X-239035D01*
X-236641Y354560D01*
X-236641Y353363D01*
X-237838Y352166D01*
X-239035D01*
X-241429Y354560D01*
X-234845Y355159D02*
X-233648Y356356D01*
X-234247Y355757D01*
X-237838Y359348D01*
X-237838Y358151D01*
X-308936Y296985D02*
X-306109Y299813D01*
X-304695Y298399D01*
Y297457D01*
X-305637Y296514D01*
X-306580Y296514D01*
X-307994Y297928D01*
X-307051Y296985D02*
X-307051Y295100D01*
X-306109Y294158D02*
X-305166Y293215D01*
X-305637Y293687D01*
X-302810Y296514D01*
X-303752D01*
X-300925Y294629D02*
X-299040Y292744D01*
X-299511Y292273D01*
X-303281D01*
X-303752Y291802D01*
X-298097D02*
X-296212Y289917D01*
X-296684Y289445D01*
X-300454D01*
X-300925Y288974D01*
X-295270D02*
X-293385Y287089D01*
X-293856Y286618D01*
X-297626D01*
X-298097Y286147D01*
X389300Y12099D02*
X390300Y13098D01*
Y15098D01*
X389300Y16098D01*
X385302D01*
X384302Y15098D01*
Y13098D01*
X385302Y12099D01*
X384302Y6101D02*
Y10100D01*
X388301Y6101D01*
X389300D01*
X390300Y7100D01*
Y9100D01*
X389300Y10100D01*
X385302Y4101D02*
X384302Y3102D01*
Y1102D01*
X385302Y103D01*
X389300D01*
X390300Y1102D01*
Y3102D01*
X389300Y4101D01*
X388301D01*
X387301Y3102D01*
Y103D01*
X437331Y125253D02*
X437331Y126667D01*
X435918Y128081D01*
X434504D01*
X431676Y125253D01*
Y123839D01*
X433090Y122426D01*
X434504D01*
X435211Y120305D02*
X436625Y118891D01*
X435918Y119598D01*
X440159Y123839D01*
X438745D01*
X441573Y113943D02*
X438745Y116771D01*
X444400D01*
X445107Y117478D01*
Y118891D01*
X443693Y120305D01*
X442280Y120305D01*
X-43688Y-408940D02*
Y-402942D01*
X-40689D01*
X-39689Y-403942D01*
Y-405941D01*
X-40689Y-406941D01*
X-43688D01*
X-41689D02*
X-39689Y-408940D01*
X-37690Y-403942D02*
X-36690Y-402942D01*
X-34691D01*
X-33691Y-403942D01*
Y-404941D01*
X-34691Y-405941D01*
X-35691D01*
X-34691D01*
X-33691Y-406941D01*
Y-407940D01*
X-34691Y-408940D01*
X-36690D01*
X-37690Y-407940D01*
X-31692Y-403942D02*
X-30692Y-402942D01*
X-28693D01*
X-27693Y-403942D01*
Y-407940D01*
X-28693Y-408940D01*
X-30692D01*
X-31692Y-407940D01*
Y-403942D01*
X-96012Y-386842D02*
Y-382843D01*
X-94013D01*
X-93346Y-383510D01*
Y-384843D01*
X-94013Y-385509D01*
X-96012D01*
X-94679D02*
X-93346Y-386842D01*
X-92013D02*
X-90680D01*
X-91347D01*
Y-382843D01*
X-92013Y-383510D01*
X76944Y374585D02*
X79771Y377413D01*
X81185Y375999D01*
Y375057D01*
X80243Y374114D01*
X79300Y374114D01*
X77886Y375528D01*
X78829Y374585D02*
X78829Y372700D01*
X81656Y369873D02*
X79771Y371758D01*
X83541D01*
X84013Y372229D01*
Y373172D01*
X83070Y374114D01*
X82128D01*
X87311Y369873D02*
X85426Y371758D01*
X84013Y370344D01*
X85426Y369873D01*
X85898Y369402D01*
Y368459D01*
X84955Y367517D01*
X84013D01*
X83070Y368459D01*
Y369402D01*
X87039Y383565D02*
X89867Y386393D01*
X91280Y384979D01*
Y384036D01*
X90338Y383094D01*
X89395Y383094D01*
X87982Y384507D01*
X88924Y383565D02*
X88924Y381680D01*
X91280Y379324D02*
X94108Y382151D01*
X91280Y382151D01*
X93165Y380266D01*
X67513Y366510D02*
X70341Y369337D01*
X71754Y367923D01*
Y366981D01*
X70812Y366038D01*
X69869Y366038D01*
X68456Y367452D01*
X69398Y366510D02*
X69398Y364624D01*
X72226Y361797D02*
X70341Y363682D01*
X74111D01*
X74582Y364153D01*
Y365096D01*
X73639Y366038D01*
X72697D01*
X37592Y448818D02*
X40420Y451646D01*
X41833Y450232D01*
Y449289D01*
X40891Y448347D01*
X39948Y448347D01*
X38535Y449761D01*
X39477Y448818D02*
X39477Y446933D01*
X42305Y444105D02*
X40420Y445990D01*
X44190D01*
X44661Y446462D01*
Y447404D01*
X43718Y448347D01*
X42776D01*
X46075Y445990D02*
X47959Y444105D01*
X47488Y443634D01*
X43718D01*
X43247Y443163D01*
X48902D02*
X50787Y441278D01*
X50316Y440807D01*
X46546D01*
X46075Y440336D01*
X-109934Y51635D02*
X-105693Y55876D01*
X-103572Y53756D01*
X-103572Y52342D01*
X-104986Y50928D01*
X-106399D01*
X-108520Y53049D01*
X-107106Y51635D02*
X-107106Y48808D01*
X-105693Y47394D02*
X-104279Y45980D01*
X-104986Y46687D01*
X-100744Y50928D01*
X-102158D01*
X-98624Y47394D02*
X-97210Y47394D01*
X-95796Y45980D01*
Y44566D01*
X-96503Y43859D01*
X-97917D01*
Y42446D01*
X-98624Y41739D01*
X-100038D01*
X-101451Y43153D01*
Y44566D01*
X-100744Y45273D01*
X-99331D01*
Y46687D01*
X-98624Y47394D01*
X-99331Y45273D02*
X-97917Y43859D01*
X55586Y354962D02*
X59827Y359203D01*
X61948Y357082D01*
X61948Y355669D01*
X60534Y354255D01*
X59120D01*
X57000Y356376D01*
X58414Y354962D02*
X58413Y352134D01*
X59827Y350721D02*
X61241Y349307D01*
X60534Y350014D01*
X64775Y354255D01*
X63362D01*
X67603Y351427D02*
X70430Y348600D01*
X69724Y347893D01*
X64068D01*
X63362Y347186D01*
X-138903Y82295D02*
X-134662Y86536D01*
X-132541Y84416D01*
X-132541Y83002D01*
X-133955Y81588D01*
X-135368D01*
X-137489Y83709D01*
X-136075Y82295D02*
X-136075Y79467D01*
X-134662Y78054D02*
X-133248Y76640D01*
X-133955Y77347D01*
X-129713Y81588D01*
X-131127D01*
X-124058Y75933D02*
X-126179Y76640D01*
X-129007Y76640D01*
X-130420Y75226D01*
Y73812D01*
X-129007Y72399D01*
X-127593D01*
X-126886Y73105D01*
Y74519D01*
X-129007Y76640D01*
X43200Y344521D02*
X47441Y348762D01*
X49562Y346641D01*
X49562Y345228D01*
X48148Y343814D01*
X46734D01*
X44614Y345934D01*
X46028Y344521D02*
X46027Y341693D01*
X47441Y340280D02*
X48855Y338866D01*
X48148Y339573D01*
X52389Y343814D01*
X50976D01*
X58045Y338159D02*
X55217Y340986D01*
X53096Y338866D01*
X55217Y338159D01*
X55924Y337452D01*
Y336038D01*
X54510Y334624D01*
X53096D01*
X51683Y336038D01*
Y337452D01*
X-105918Y87630D02*
X-101677Y91871D01*
X-99556Y89751D01*
X-99556Y88337D01*
X-100970Y86923D01*
X-102384D01*
X-104504Y89044D01*
X-103090Y87630D02*
X-103090Y84803D01*
X-101677Y83389D02*
X-100263Y81975D01*
X-100970Y82682D01*
X-96729Y86923D01*
X-98142D01*
X-94608Y83389D02*
X-93194Y83389D01*
X-91781Y81975D01*
Y80561D01*
X-92487Y79854D01*
X-93901D01*
X-94608Y80561D01*
X-93901Y79854D01*
Y78441D01*
X-94608Y77734D01*
X-96022D01*
X-97436Y79148D01*
Y80561D01*
X-83566Y305308D02*
X-87807Y309549D01*
X-85687Y311670D01*
X-84273Y311670D01*
X-82859Y310256D01*
Y308842D01*
X-84980Y306722D01*
X-83566Y308136D02*
X-80738Y308136D01*
X-79325Y309549D02*
X-77911Y310963D01*
X-78618Y310256D01*
X-82859Y314497D01*
Y313084D01*
X-72963Y315911D02*
X-75790Y313084D01*
Y318739D01*
X-76497Y319445D01*
X-77911D01*
X-79325Y318032D01*
X-79325Y316618D01*
X57073Y435319D02*
Y436262D01*
X56131Y437204D01*
X55188D01*
X53303Y435319D01*
Y434377D01*
X54246Y433434D01*
X55188D01*
X57544Y430135D02*
X55659Y432020D01*
X59429D01*
X59901Y432492D01*
Y433434D01*
X58958Y434377D01*
X58016D01*
X60843Y431549D02*
X61786D01*
X62728Y430607D01*
Y429664D01*
X60843Y427779D01*
X59901D01*
X58958Y428722D01*
Y429664D01*
X60843Y431549D01*
X73014Y418809D02*
Y419752D01*
X72071Y420694D01*
X71129D01*
X69244Y418809D01*
Y417867D01*
X70186Y416924D01*
X71129D01*
X71600Y415510D02*
X72543Y414568D01*
X72071Y415039D01*
X74899Y417867D01*
X73956D01*
X74428Y413625D02*
Y412683D01*
X75370Y411740D01*
X76313D01*
X78198Y413625D01*
Y414568D01*
X77255Y415510D01*
X76313D01*
X75841Y415039D01*
Y414097D01*
X77255Y412683D01*
X29941Y336651D02*
Y337593D01*
X28999Y338536D01*
X28056D01*
X26171Y336651D01*
Y335709D01*
X27114Y334766D01*
X28056D01*
X28527Y333352D02*
X29470Y332410D01*
X28999Y332881D01*
X31826Y335709D01*
X30884D01*
X33240Y333352D02*
X34182D01*
X35125Y332410D01*
Y331467D01*
X34654Y330996D01*
X33711D01*
X33711Y330053D01*
X33240Y329582D01*
X32297D01*
X31355Y330525D01*
Y331467D01*
X31826Y331939D01*
X32769Y331939D01*
Y332881D01*
X33240Y333352D01*
X32769Y331939D02*
X33711Y330996D01*
X-10065Y358189D02*
Y359131D01*
X-11007Y360074D01*
X-11950D01*
X-13835Y358189D01*
Y357246D01*
X-12892Y356304D01*
X-11950D01*
X-6766Y355832D02*
X-8651Y357718D01*
X-10065Y356304D01*
X-8651Y355832D01*
X-8180Y355361D01*
Y354419D01*
X-9122Y353476D01*
X-10065D01*
X-11007Y354419D01*
Y355361D01*
X97319Y366699D02*
X96376D01*
X95434Y365757D01*
Y364814D01*
X97319Y362929D01*
X98261D01*
X99204Y363872D01*
Y364814D01*
X100618Y365285D02*
X101560Y366228D01*
X101089Y365757D01*
X98261Y368584D01*
Y367642D01*
X251714Y-133604D02*
X255713D01*
Y-135603D01*
X255046Y-136270D01*
X253713D01*
X253047Y-135603D01*
Y-133604D01*
Y-134937D02*
X251714Y-136270D01*
X255046Y-137603D02*
X255713Y-138269D01*
Y-139602D01*
X255046Y-140268D01*
X254380D01*
X253713Y-139602D01*
X253047Y-140268D01*
X252380D01*
X251714Y-139602D01*
Y-138269D01*
X252380Y-137603D01*
X253047D01*
X253713Y-138269D01*
X254380Y-137603D01*
X255046D01*
X253713Y-138269D02*
Y-139602D01*
X255046Y-141601D02*
X255713Y-142268D01*
Y-143601D01*
X255046Y-144267D01*
X252380D01*
X251714Y-143601D01*
Y-142268D01*
X252380Y-141601D01*
X255046D01*
X251714Y-145600D02*
Y-146933D01*
Y-146266D01*
X255713D01*
X255046Y-145600D01*
X-324612Y-339344D02*
X-328853Y-335103D01*
X-326733Y-332982D01*
X-325319Y-332982D01*
X-323905Y-334396D01*
Y-335810D01*
X-326026Y-337930D01*
X-324612Y-336516D02*
X-321785Y-336516D01*
Y-328034D02*
X-322491Y-330155D01*
Y-332982D01*
X-321078Y-334396D01*
X-319664D01*
X-318250Y-332982D01*
Y-331568D01*
X-318957Y-330862D01*
X-320371D01*
X-322491Y-332982D01*
X-319664Y-327327D02*
Y-325913D01*
X-318250Y-324500D01*
X-316836Y-324500D01*
X-314009Y-327327D01*
Y-328741D01*
X-315423Y-330155D01*
X-316836D01*
X-319664Y-327327D01*
X-313302Y-319551D02*
X-314009Y-321672D01*
Y-324500D01*
X-312595Y-325913D01*
X-311181D01*
X-309768Y-324500D01*
Y-323086D01*
X-310474Y-322379D01*
X-311888D01*
X-314009Y-324500D01*
X-336042Y-328422D02*
X-340283Y-324181D01*
X-338163Y-322060D01*
X-336749Y-322060D01*
X-335335Y-323474D01*
Y-324888D01*
X-337456Y-327008D01*
X-336042Y-325594D02*
X-333214Y-325594D01*
Y-317112D02*
X-333921Y-319233D01*
Y-322060D01*
X-332508Y-323474D01*
X-331094D01*
X-329680Y-322060D01*
Y-320646D01*
X-330387Y-319939D01*
X-331801D01*
X-333921Y-322060D01*
X-331094Y-316405D02*
Y-314991D01*
X-329680Y-313578D01*
X-328266Y-313578D01*
X-325439Y-316405D01*
Y-317819D01*
X-326853Y-319233D01*
X-328266D01*
X-331094Y-316405D01*
X-324732Y-308629D02*
X-327560Y-311457D01*
X-325439Y-313578D01*
X-324732Y-311457D01*
X-324025Y-310750D01*
X-322611D01*
X-321198Y-312164D01*
Y-313578D01*
X-322611Y-314991D01*
X-324025D01*
X443918Y29073D02*
X447916D01*
Y27073D01*
X447250Y26407D01*
X445917D01*
X445251Y27073D01*
Y29073D01*
Y27740D02*
X443918Y26407D01*
Y23075D02*
X447916D01*
X445917Y25074D01*
Y22408D01*
X447250Y21075D02*
X447916Y20409D01*
Y19076D01*
X447250Y18410D01*
X444584D01*
X443918Y19076D01*
Y20409D01*
X444584Y21075D01*
X447250D01*
X443918Y17077D02*
Y15744D01*
Y16410D01*
X447916D01*
X447250Y17077D01*
X406938Y8256D02*
X407605Y8923D01*
Y10256D01*
X406938Y10922D01*
X404272D01*
X403606Y10256D01*
Y8923D01*
X404272Y8256D01*
X403606Y4924D02*
X407605D01*
X405605Y6923D01*
Y4257D01*
X406938Y2925D02*
X407605Y2258D01*
Y925D01*
X406938Y259D01*
X404272D01*
X403606Y925D01*
Y2258D01*
X404272Y2925D01*
X406938D01*
X407605Y-3740D02*
X406938Y-2407D01*
X405605Y-1074D01*
X404272D01*
X403606Y-1741D01*
Y-3074D01*
X404272Y-3740D01*
X404939D01*
X405605Y-3074D01*
Y-1074D01*
X266066Y-108133D02*
Y-104134D01*
X268065D01*
X268732Y-104801D01*
Y-106133D01*
X268065Y-106800D01*
X266066D01*
X267399D02*
X268732Y-108133D01*
X270065Y-104801D02*
X270731Y-104134D01*
X272064D01*
X272731Y-104801D01*
Y-105467D01*
X272064Y-106133D01*
X272731Y-106800D01*
Y-107466D01*
X272064Y-108133D01*
X270731D01*
X270065Y-107466D01*
Y-106800D01*
X270731Y-106133D01*
X270065Y-105467D01*
Y-104801D01*
X270731Y-106133D02*
X272064D01*
X274063Y-104801D02*
X274730Y-104134D01*
X276063D01*
X276729Y-104801D01*
Y-107466D01*
X276063Y-108133D01*
X274730D01*
X274063Y-107466D01*
Y-104801D01*
X280728Y-104134D02*
X279395Y-104801D01*
X278062Y-106133D01*
Y-107466D01*
X278729Y-108133D01*
X280061D01*
X280728Y-107466D01*
Y-106800D01*
X280061Y-106133D01*
X278062D01*
X250626Y-102399D02*
X256624D01*
Y-105398D01*
X255625Y-106398D01*
X253625D01*
X252626Y-105398D01*
Y-102399D01*
Y-104398D02*
X250626Y-106398D01*
X255625Y-108397D02*
X256624Y-109397D01*
Y-111396D01*
X255625Y-112396D01*
X254625D01*
X253625Y-111396D01*
X252626Y-112396D01*
X251626D01*
X250626Y-111396D01*
Y-109397D01*
X251626Y-108397D01*
X252626D01*
X253625Y-109397D01*
X254625Y-108397D01*
X255625D01*
X253625Y-109397D02*
Y-111396D01*
X255625Y-114395D02*
X256624Y-115395D01*
Y-117394D01*
X255625Y-118394D01*
X251626D01*
X250626Y-117394D01*
Y-115395D01*
X251626Y-114395D01*
X255625D01*
X250626Y-124392D02*
Y-120393D01*
X254625Y-124392D01*
X255625D01*
X256624Y-123392D01*
Y-121393D01*
X255625Y-120393D01*
X-149070Y-391039D02*
X-145071D01*
Y-393038D01*
X-145738Y-393704D01*
X-147071D01*
X-147737Y-393038D01*
Y-391039D01*
Y-392371D02*
X-149070Y-393704D01*
Y-395037D02*
Y-396370D01*
Y-395704D01*
X-145071D01*
X-145738Y-395037D01*
Y-398369D02*
X-145071Y-399036D01*
Y-400369D01*
X-145738Y-401035D01*
X-148404D01*
X-149070Y-400369D01*
Y-399036D01*
X-148404Y-398369D01*
X-145738D01*
X-145071Y-405034D02*
Y-402368D01*
X-147071D01*
X-146404Y-403701D01*
Y-404368D01*
X-147071Y-405034D01*
X-148404D01*
X-149070Y-404368D01*
Y-403035D01*
X-148404Y-402368D01*
X417166Y110888D02*
X417166Y112302D01*
X415752Y113716D01*
X414338D01*
X411511Y110888D01*
Y109475D01*
X412924Y108061D01*
X414338D01*
X417166Y103820D02*
X421407Y108061D01*
X417166D01*
X419993Y105233D01*
X422821D02*
X424235D01*
X425648Y103820D01*
X425648Y102406D01*
X422821Y99578D01*
X421407D01*
X419993Y100992D01*
Y102406D01*
X422821Y105233D01*
X430596Y98871D02*
X427769Y101699D01*
X425648Y99578D01*
X427769Y98871D01*
X428476Y98165D01*
Y96751D01*
X427062Y95337D01*
X425648D01*
X424235Y96751D01*
Y98165D01*
X-142830Y-417068D02*
X-147828D01*
Y-419567D01*
X-146995Y-420400D01*
X-143663D01*
X-142830Y-419567D01*
Y-417068D01*
X-147828Y-422066D02*
Y-423732D01*
Y-422899D01*
X-142830D01*
X-143663Y-422066D01*
Y-426232D02*
X-142830Y-427065D01*
Y-428731D01*
X-143663Y-429564D01*
X-146995D01*
X-147828Y-428731D01*
Y-427065D01*
X-146995Y-426232D01*
X-143663D01*
X-147828Y-431230D02*
Y-432896D01*
Y-432063D01*
X-142830D01*
X-143663Y-431230D01*
X-239377Y-117842D02*
X-243618Y-113600D01*
X-241497Y-111480D01*
X-240084Y-111480D01*
X-238670Y-112893D01*
Y-114307D01*
X-240791Y-116428D01*
X-239377Y-115014D02*
X-236549Y-115014D01*
Y-106532D02*
X-237256Y-108652D01*
Y-111480D01*
X-235842Y-112893D01*
X-234429D01*
X-233015Y-111480D01*
Y-110066D01*
X-233722Y-109359D01*
X-235135D01*
X-237256Y-111480D01*
X-234429Y-105825D02*
Y-104411D01*
X-233015Y-102997D01*
X-231601Y-102997D01*
X-228774Y-105825D01*
Y-107238D01*
X-230187Y-108652D01*
X-231601D01*
X-234429Y-105825D01*
X-226653Y-105118D02*
X-225239Y-103704D01*
X-225946Y-104411D01*
X-230187Y-100170D01*
Y-101583D01*
X-228085Y-130714D02*
X-232327Y-126473D01*
X-230206Y-124353D01*
X-228792Y-124353D01*
X-227378Y-125766D01*
Y-127180D01*
X-229499Y-129301D01*
X-228085Y-127887D02*
X-225258Y-127887D01*
Y-119404D02*
X-225965Y-121525D01*
Y-124353D01*
X-224551Y-125766D01*
X-223137D01*
X-221723Y-124353D01*
Y-122939D01*
X-222430Y-122232D01*
X-223844D01*
X-225965Y-124353D01*
X-223137Y-118698D02*
Y-117284D01*
X-221723Y-115870D01*
X-220310Y-115870D01*
X-217482Y-118698D01*
Y-120111D01*
X-218896Y-121525D01*
X-220310D01*
X-223137Y-118698D01*
X-212534Y-115163D02*
X-215361Y-117991D01*
Y-112336D01*
X-216068Y-111629D01*
X-217482Y-111629D01*
X-218896Y-113042D01*
Y-114456D01*
X-215826Y-136960D02*
X-217239Y-136960D01*
X-218653Y-138373D01*
Y-139787D01*
X-215826Y-142615D01*
X-214412D01*
X-212998Y-141201D01*
Y-139787D01*
X-212291Y-132012D02*
X-212998Y-134132D01*
Y-136960D01*
X-211584Y-138373D01*
X-210171D01*
X-208757Y-136960D01*
Y-135546D01*
X-209464Y-134839D01*
X-210878D01*
X-212998Y-136960D01*
X-210171Y-131305D02*
Y-129891D01*
X-208757Y-128477D01*
X-207343Y-128477D01*
X-204516Y-131305D01*
Y-132718D01*
X-205929Y-134132D01*
X-207343D01*
X-210171Y-131305D01*
X-202395Y-130598D02*
X-200981Y-129184D01*
X-201688Y-129891D01*
X-205929Y-125650D01*
Y-127063D01*
X-312111Y-345428D02*
X-313525Y-345428D01*
X-314938Y-346842D01*
Y-348256D01*
X-312111Y-351083D01*
X-310697D01*
X-309283Y-349669D01*
Y-348256D01*
X-308577Y-340480D02*
X-309283Y-342601D01*
Y-345428D01*
X-307870Y-346842D01*
X-306456D01*
X-305042Y-345428D01*
Y-344014D01*
X-305749Y-343307D01*
X-307163D01*
X-309283Y-345428D01*
X-306456Y-339773D02*
Y-338359D01*
X-305042Y-336946D01*
X-303628Y-336946D01*
X-300801Y-339773D01*
Y-341187D01*
X-302215Y-342601D01*
X-303628D01*
X-306456Y-339773D01*
X-302215Y-335532D02*
Y-334118D01*
X-300801Y-332704D01*
X-299387Y-332704D01*
X-298680Y-333411D01*
Y-334825D01*
X-299387Y-335532D01*
X-298680Y-334825D01*
X-297267D01*
X-296560Y-335532D01*
Y-336946D01*
X-297973Y-338359D01*
X-299387D01*
X290576Y-47500D02*
Y-52578D01*
X293115D01*
X293962Y-51732D01*
Y-48346D01*
X293115Y-47500D01*
X290576D01*
X295654Y-48346D02*
X296501Y-47500D01*
X298193D01*
X299040Y-48346D01*
Y-49192D01*
X298193Y-50039D01*
X299040Y-50885D01*
Y-51732D01*
X298193Y-52578D01*
X296501D01*
X295654Y-51732D01*
Y-50885D01*
X296501Y-50039D01*
X295654Y-49192D01*
Y-48346D01*
X296501Y-50039D02*
X298193D01*
X300733Y-48346D02*
X301579Y-47500D01*
X303272D01*
X304118Y-48346D01*
Y-51732D01*
X303272Y-52578D01*
X301579D01*
X300733Y-51732D01*
Y-48346D01*
X305811Y-52578D02*
X307504D01*
X306658D01*
Y-47500D01*
X305811Y-48346D01*
X-132730Y-224572D02*
X-133672D01*
X-134615Y-225514D01*
Y-226457D01*
X-132730Y-228342D01*
X-131787D01*
X-130845Y-227399D01*
Y-226457D01*
X-127546Y-224101D02*
X-129431Y-225986D01*
Y-222216D01*
X-129902Y-221744D01*
X-130845D01*
X-131787Y-222687D01*
Y-223629D01*
X-128960Y-220802D02*
Y-219859D01*
X-128017Y-218917D01*
X-127075D01*
X-125190Y-220802D01*
Y-221744D01*
X-126132Y-222687D01*
X-127075D01*
X-128960Y-220802D01*
X-126132Y-217974D02*
Y-217032D01*
X-125190Y-216089D01*
X-124247D01*
X-123776Y-216561D01*
Y-217503D01*
X-124247Y-217974D01*
X-123776Y-217503D01*
X-122834Y-217503D01*
X-122362Y-217974D01*
Y-218917D01*
X-123305Y-219859D01*
X-124247D01*
X-105113Y-357929D02*
X-98044Y-364998D01*
X-93331Y-360285D01*
X-86263Y-353217D02*
X-90975Y-357929D01*
Y-348504D01*
X-92153Y-347326D01*
X-94510Y-347326D01*
X-96866Y-349682D01*
Y-352039D01*
X-89797Y-344970D02*
Y-342613D01*
X-87441Y-340257D01*
X-85085Y-340257D01*
X-80372Y-344970D01*
X-80372Y-347326D01*
X-82728Y-349682D01*
X-85085D01*
X-89797Y-344970D01*
X-76838Y-343792D02*
X-74481Y-341435D01*
X-75659Y-342613D01*
X-82728Y-335545D01*
Y-337901D01*
X-123115Y-237703D02*
X-125942Y-234876D01*
X-124528Y-233462D01*
X-123586D01*
X-122643Y-234404D01*
X-122643Y-235347D01*
X-124057Y-236761D01*
X-123115Y-235818D02*
X-121230Y-235818D01*
X-118402Y-232991D02*
X-120287Y-234876D01*
Y-231106D01*
X-120758Y-230634D01*
X-121701D01*
X-122643Y-231577D01*
Y-232519D01*
X-119816Y-229692D02*
Y-228749D01*
X-118873Y-227807D01*
X-117931D01*
X-116046Y-229692D01*
Y-230634D01*
X-116988Y-231577D01*
X-117931D01*
X-119816Y-229692D01*
X-114632Y-229221D02*
X-113690Y-228278D01*
X-114161Y-228749D01*
X-116988Y-225922D01*
Y-226864D01*
X196281Y-134809D02*
X197281Y-133809D01*
Y-131810D01*
X196281Y-130810D01*
X192282D01*
X191282Y-131810D01*
Y-133809D01*
X192282Y-134809D01*
X191282Y-136808D02*
Y-138807D01*
Y-137808D01*
X197281D01*
X196281Y-136808D01*
Y-141806D02*
X197281Y-142806D01*
Y-144805D01*
X196281Y-145805D01*
X192282D01*
X191282Y-144805D01*
Y-142806D01*
X192282Y-141806D01*
X196281D01*
X191282Y-150803D02*
X197281D01*
X194282Y-147804D01*
Y-151803D01*
X176022Y-132080D02*
X180021D01*
Y-134079D01*
X179354Y-134746D01*
X178021D01*
X177355Y-134079D01*
Y-132080D01*
Y-133413D02*
X176022Y-134746D01*
Y-136079D02*
Y-137412D01*
Y-136745D01*
X180021D01*
X179354Y-136079D01*
Y-139411D02*
X180021Y-140077D01*
Y-141410D01*
X179354Y-142077D01*
X176688D01*
X176022Y-141410D01*
Y-140077D01*
X176688Y-139411D01*
X179354D01*
Y-143410D02*
X180021Y-144076D01*
Y-145409D01*
X179354Y-146075D01*
X178688D01*
X178021Y-145409D01*
X177355Y-146075D01*
X176688D01*
X176022Y-145409D01*
Y-144076D01*
X176688Y-143410D01*
X177355D01*
X178021Y-144076D01*
X178688Y-143410D01*
X179354D01*
X178021Y-144076D02*
Y-145409D01*
X-163347Y391132D02*
X-159348D01*
Y389132D01*
X-160014Y388466D01*
X-161347D01*
X-162014Y389132D01*
Y391132D01*
Y389799D02*
X-163347Y388466D01*
X-160014Y387133D02*
X-159348Y386467D01*
Y385134D01*
X-160014Y384467D01*
X-160681D01*
X-161347Y385134D01*
Y385800D01*
Y385134D01*
X-162014Y384467D01*
X-162680D01*
X-163347Y385134D01*
Y386467D01*
X-162680Y387133D01*
X-160014Y383134D02*
X-159348Y382468D01*
Y381135D01*
X-160014Y380469D01*
X-160681D01*
X-161347Y381135D01*
Y381802D01*
Y381135D01*
X-162014Y380469D01*
X-162680D01*
X-163347Y381135D01*
Y382468D01*
X-162680Y383134D01*
X-162814Y414020D02*
X-158815D01*
Y412021D01*
X-159482Y411354D01*
X-160815D01*
X-161481Y412021D01*
Y414020D01*
Y412687D02*
X-162814Y411354D01*
X-159482Y410021D02*
X-158815Y409355D01*
Y408022D01*
X-159482Y407355D01*
X-160148D01*
X-160815Y408022D01*
Y408688D01*
Y408022D01*
X-161481Y407355D01*
X-162148D01*
X-162814Y408022D01*
Y409355D01*
X-162148Y410021D01*
X-158815Y403357D02*
X-159482Y404690D01*
X-160815Y406023D01*
X-162148D01*
X-162814Y405356D01*
Y404023D01*
X-162148Y403357D01*
X-161481D01*
X-160815Y404023D01*
Y406023D01*
X-13085Y445723D02*
X-9086D01*
Y443724D01*
X-9752Y443057D01*
X-11085D01*
X-11752Y443724D01*
Y445723D01*
Y444390D02*
X-13085Y443057D01*
X-9752Y441724D02*
X-9086Y441058D01*
Y439725D01*
X-9752Y439058D01*
X-10419D01*
X-11085Y439725D01*
Y440391D01*
Y439725D01*
X-11752Y439058D01*
X-12418D01*
X-13085Y439725D01*
Y441058D01*
X-12418Y441724D01*
X-9086Y437726D02*
Y435060D01*
X-9752D01*
X-12418Y437726D01*
X-13085D01*
X-72870Y-326642D02*
Y-325700D01*
X-73812Y-324757D01*
X-74755D01*
X-76640Y-326642D01*
Y-327585D01*
X-75697Y-328527D01*
X-74755D01*
X-72399Y-331826D02*
X-74283Y-329941D01*
X-70514D01*
X-70042Y-329470D01*
Y-328527D01*
X-70985Y-327585D01*
X-71927D01*
X-69100Y-330412D02*
X-68157D01*
X-67215Y-331355D01*
Y-332297D01*
X-69100Y-334182D01*
X-70042D01*
X-70985Y-333240D01*
Y-332297D01*
X-69100Y-330412D01*
X-68157Y-335125D02*
Y-336067D01*
X-67215Y-337010D01*
X-66272D01*
X-64387Y-335125D01*
Y-334182D01*
X-65330Y-333240D01*
X-66272D01*
X-66743Y-333711D01*
Y-334654D01*
X-65330Y-336067D01*
X20885Y326402D02*
Y327344D01*
X19943Y328287D01*
X19000D01*
X17115Y326402D01*
Y325459D01*
X18058Y324517D01*
X19000D01*
X19471Y323103D02*
X20414Y322160D01*
X19943Y322632D01*
X22770Y325459D01*
X21827D01*
X24655Y323574D02*
X26540Y321689D01*
X26069Y321218D01*
X22299D01*
X21827Y320747D01*
X4696Y342609D02*
Y343551D01*
X3754Y344494D01*
X2811D01*
X926Y342609D01*
Y341666D01*
X1869Y340724D01*
X2811D01*
X3283Y339310D02*
X4225Y338368D01*
X3754Y338839D01*
X6581Y341666D01*
X5639D01*
X10351Y337896D02*
X8938Y338368D01*
X7053D01*
X6110Y337425D01*
Y336483D01*
X7053Y335540D01*
X7995D01*
X8466Y336011D01*
X8466Y336954D01*
X7053Y338368D01*
X13879Y352023D02*
Y352965D01*
X12936Y353908D01*
X11994D01*
X10109Y352023D01*
Y351080D01*
X11051Y350137D01*
X11994D01*
X12465Y348724D02*
X13407Y347781D01*
X12936Y348252D01*
X15764Y351080D01*
X14821D01*
X19534Y347310D02*
X17649Y349195D01*
X16235Y347781D01*
X17649Y347310D01*
X18120Y346839D01*
Y345896D01*
X17178Y344954D01*
X16235D01*
X15293Y345896D01*
Y346839D01*
X-13208Y392938D02*
X-9209D01*
Y390939D01*
X-9876Y390272D01*
X-11209D01*
X-11875Y390939D01*
Y392938D01*
Y391605D02*
X-13208Y390272D01*
X-9876Y388939D02*
X-9209Y388273D01*
Y386940D01*
X-9876Y386273D01*
X-10542D01*
X-11209Y386940D01*
Y387606D01*
Y386940D01*
X-11875Y386273D01*
X-12542D01*
X-13208Y386940D01*
Y388273D01*
X-12542Y388939D01*
X-710Y366171D02*
Y367114D01*
X-1652Y368056D01*
X-2595D01*
X-4480Y366171D01*
Y365229D01*
X-3537Y364286D01*
X-2595D01*
X-710Y361459D02*
X2118Y364286D01*
X-710Y364286D01*
X1175Y362402D01*
X-22576Y391034D02*
X-21909Y391701D01*
Y393034D01*
X-22576Y393700D01*
X-25242D01*
X-25908Y393034D01*
Y391701D01*
X-25242Y391034D01*
X-25908Y389701D02*
Y388368D01*
Y389035D01*
X-21909D01*
X-22576Y389701D01*
Y386369D02*
X-21909Y385703D01*
Y384370D01*
X-22576Y383703D01*
X-23242D01*
X-23909Y384370D01*
Y385036D01*
Y384370D01*
X-24575Y383703D01*
X-25242D01*
X-25908Y384370D01*
Y385703D01*
X-25242Y386369D01*
X-341110Y165045D02*
X-341110Y166459D01*
X-342524Y167872D01*
X-343938D01*
X-346765Y165045D01*
Y163631D01*
X-345351Y162217D01*
X-343938D01*
X-340403Y157269D02*
X-343231Y160097D01*
X-337576D01*
X-336869Y160804D01*
X-336869Y162217D01*
X-338283Y163631D01*
X-339696D01*
X-188492Y165992D02*
X-189906Y165992D01*
X-191320Y164578D01*
Y163164D01*
X-188492Y160337D01*
X-187078D01*
X-185665Y161751D01*
Y163164D01*
X-184958Y170940D02*
X-185665Y168819D01*
Y165992D01*
X-184251Y164578D01*
X-182837D01*
X-181423Y165992D01*
Y167406D01*
X-182130Y168113D01*
X-183544D01*
X-185665Y165992D01*
X-272741Y-379464D02*
X-274155Y-379464D01*
X-275568Y-380878D01*
Y-382292D01*
X-272741Y-385119D01*
X-271327D01*
X-269913Y-383705D01*
Y-382292D01*
X-264965Y-378757D02*
X-267793Y-381585D01*
Y-375930D01*
X-268500Y-375223D01*
X-269913Y-375223D01*
X-271327Y-376637D01*
Y-378050D01*
X-267086Y-373809D02*
Y-372395D01*
X-265672Y-370982D01*
X-264258Y-370982D01*
X-263552Y-371688D01*
Y-373102D01*
X-262138D01*
X-261431Y-373809D01*
Y-375223D01*
X-262845Y-376637D01*
X-264258D01*
X-264965Y-375930D01*
Y-374516D01*
X-266379D01*
X-267086Y-373809D01*
X-264965Y-374516D02*
X-263552Y-373102D01*
X-296926Y-363474D02*
X-301167Y-359233D01*
X-299047Y-357112D01*
X-297633Y-357112D01*
X-296219Y-358526D01*
Y-359940D01*
X-298340Y-362060D01*
X-296926Y-360647D02*
X-294098Y-360647D01*
X-290564Y-357112D02*
X-294805Y-352871D01*
Y-357112D01*
X-291978Y-354285D01*
Y-351457D02*
Y-350043D01*
X-290564Y-348630D01*
X-289150Y-348630D01*
X-288444Y-349337D01*
Y-350750D01*
X-287030D01*
X-286323Y-351457D01*
Y-352871D01*
X-287737Y-354285D01*
X-289150D01*
X-289857Y-353578D01*
Y-352164D01*
X-291271D01*
X-291978Y-351457D01*
X-289857Y-352164D02*
X-288444Y-350750D01*
X-284988Y-374142D02*
X-289229Y-369901D01*
X-287109Y-367780D01*
X-285695Y-367780D01*
X-284281Y-369194D01*
Y-370608D01*
X-286402Y-372728D01*
X-284988Y-371315D02*
X-282160Y-371315D01*
X-278626Y-367780D02*
X-282867Y-363539D01*
Y-367780D01*
X-280040Y-364953D01*
X-277212D02*
X-275799D01*
X-274385Y-363539D01*
Y-362125D01*
X-277212Y-359298D01*
X-278626Y-359298D01*
X-280040Y-360711D01*
Y-362125D01*
X-279333Y-362832D01*
X-277919D01*
X-275799Y-360711D01*
X-159086Y-417576D02*
X-164084D01*
Y-420075D01*
X-163251Y-420908D01*
X-159919D01*
X-159086Y-420075D01*
Y-417576D01*
X-164084Y-422574D02*
Y-424240D01*
Y-423407D01*
X-159086D01*
X-159919Y-422574D01*
X-164084Y-429239D02*
X-159086D01*
X-161585Y-426740D01*
Y-430072D01*
X-162278Y-393399D02*
X-158279D01*
Y-395398D01*
X-158946Y-396065D01*
X-160279D01*
X-160945Y-395398D01*
Y-393399D01*
Y-394732D02*
X-162278Y-396065D01*
X-158279Y-400064D02*
Y-397398D01*
X-160279D01*
X-159612Y-398731D01*
Y-399397D01*
X-160279Y-400064D01*
X-161612D01*
X-162278Y-399397D01*
Y-398064D01*
X-161612Y-397398D01*
X-158946Y-401396D02*
X-158279Y-402063D01*
Y-403396D01*
X-158946Y-404062D01*
X-161612D01*
X-162278Y-403396D01*
Y-402063D01*
X-161612Y-401396D01*
X-158946D01*
X116586Y-8291D02*
Y-14956D01*
X119918Y-18288D01*
X123251Y-14956D01*
Y-8291D01*
X126583Y-18288D02*
X129915D01*
X128249D01*
Y-8291D01*
X126583Y-9957D01*
X134913D02*
X136580Y-8291D01*
X139912D01*
X141578Y-9957D01*
Y-16622D01*
X139912Y-18288D01*
X136580D01*
X134913Y-16622D01*
Y-9957D01*
X144910Y-18288D02*
X148243D01*
X146576D01*
Y-8291D01*
X144910Y-9957D01*
X332668Y44232D02*
X336909Y48473D01*
X339030Y46353D01*
X339030Y44939D01*
X337616Y43525D01*
X336202D01*
X334082Y45646D01*
X335495Y44232D02*
X335495Y41405D01*
X339737Y37163D02*
X336909Y39991D01*
X342564D01*
X343271Y40698D01*
X343271Y42111D01*
X341857Y43525D01*
X340443D01*
X341857Y36456D02*
Y35043D01*
X343271Y33629D01*
X344685D01*
X347512Y36456D01*
X347512Y37870D01*
X346099Y39284D01*
X344685D01*
X343978Y38577D01*
Y37163D01*
X346099Y35043D01*
X304800Y10414D02*
X309041Y14655D01*
X311162Y12535D01*
X311162Y11121D01*
X309748Y9707D01*
X308334D01*
X306214Y11828D01*
X307628Y10414D02*
X307628Y7587D01*
X316110D02*
X313283Y10414D01*
X311162Y8293D01*
X313283Y7587D01*
X313989Y6880D01*
Y5466D01*
X312576Y4052D01*
X311162D01*
X309748Y5466D01*
Y6880D01*
X320351Y3345D02*
X318231Y4052D01*
X315403D01*
X313989Y2638D01*
Y1225D01*
X315403Y-189D01*
X316817D01*
X317524Y518D01*
Y1931D01*
X315403Y4052D01*
D20*
X-383412Y75835D02*
X-367412D01*
X-383412Y63835D02*
X-383412Y75835D01*
X-367412Y63835D02*
Y75835D01*
X-383412Y63835D02*
X-367412D01*
X207254Y-128638D02*
Y-111138D01*
X237754Y-128638D02*
Y-111138D01*
X207254Y-128638D02*
Y-111138D01*
Y-128638D02*
X237754D01*
X207254Y-111138D02*
X237754D01*
Y-128638D02*
Y-111138D01*
X-92964Y-419100D02*
X110236D01*
Y-469900D02*
Y-419100D01*
X-92964Y-469900D02*
Y-419100D01*
Y-469900D02*
X110236D01*
X100848Y-119222D02*
X161848D01*
X100848Y95778D02*
X161848Y95778D01*
X100848Y95778D02*
X100848Y-119222D01*
X161848D02*
X161848Y95778D01*
X-286785Y310283D02*
X-290615Y314113D01*
X-292530Y314113D01*
X-294446Y312198D01*
Y310283D01*
X-290615Y306453D01*
X-288700D01*
X-286785Y308368D01*
X-289658Y309325D02*
X-285827D01*
X-286785Y308368D02*
Y310283D01*
X-281040Y314113D02*
X-286785Y319859D01*
X-286785Y314113D01*
X-282955Y317944D01*
D21*
X-165862Y423418D02*
X-155702D01*
X-165862Y441198D02*
X-155702D01*
Y423418D02*
Y441198D01*
X-165862Y423418D02*
Y441198D01*
X-17018Y427929D02*
X-6858D01*
X-17018Y410149D02*
X-6858D01*
X-17018D02*
Y427929D01*
X-6858Y410149D02*
Y427929D01*
D22*
X-375333Y31467D02*
Y51467D01*
X-385333Y31467D02*
X-375333D01*
X-385333D02*
Y51467D01*
X-375333D01*
Y31467D02*
Y51467D01*
X-385333Y31467D02*
X-375333D01*
X-385333D02*
Y51467D01*
X-375333D01*
X-360012Y69661D02*
X-340012D01*
X-360012Y79661D02*
X-360012Y69661D01*
X-360012Y79661D02*
X-340012Y79661D01*
X-340012Y69661D01*
X-360012D02*
X-340012D01*
X-360012Y79661D02*
X-360012Y69661D01*
X-360012Y79661D02*
X-340012Y79661D01*
X-340012Y69661D01*
X187880Y-313656D02*
X194951Y-306585D01*
X180809Y-292442D02*
X194951Y-306585D01*
X173738Y-299513D02*
X180809Y-292442D01*
X173738Y-299513D02*
X187880Y-313656D01*
X194951Y-306585D01*
X180809Y-292442D02*
X194951Y-306585D01*
X173738Y-299513D02*
X180809Y-292442D01*
X173738Y-299513D02*
X187880Y-313656D01*
X198660Y-302876D02*
X205731Y-295805D01*
X191589Y-281663D02*
X205731Y-295805D01*
X184518Y-288734D02*
X191589Y-281663D01*
X184518Y-288734D02*
X198660Y-302876D01*
X205731Y-295805D01*
X191589Y-281663D02*
X205731Y-295805D01*
X184518Y-288734D02*
X191589Y-281663D01*
X184518Y-288734D02*
X198660Y-302876D01*
X221513Y-323581D02*
X235655Y-337723D01*
X221513Y-323581D02*
X228584Y-316509D01*
X242726Y-330652D01*
X235655Y-337723D02*
X242726Y-330652D01*
X221513Y-323581D02*
X235655Y-337723D01*
X221513Y-323581D02*
X228584Y-316509D01*
X242726Y-330652D01*
X235655Y-337723D02*
X242726Y-330652D01*
X-360012Y56707D02*
X-340012D01*
X-360012D02*
Y66707D01*
X-340012D01*
Y56707D02*
Y66707D01*
X-360012Y56707D02*
X-340012D01*
X-360012D02*
Y66707D01*
X-340012D01*
Y56707D02*
Y66707D01*
X-106619Y-259584D02*
X-92476Y-245442D01*
X-85405Y-252513D01*
X-99548Y-266655D02*
X-85405Y-252513D01*
X-106619Y-259584D02*
X-99548Y-266655D01*
X-106619Y-259584D02*
X-92476Y-245442D01*
X-85405Y-252513D01*
X-99548Y-266655D02*
X-85405Y-252513D01*
X-106619Y-259584D02*
X-99548Y-266655D01*
X288100Y-1457D02*
X296939Y7382D01*
X308960Y-4639D01*
X288100Y-1457D02*
X300121Y-13478D01*
X308960Y-4639D01*
X-1952Y-244508D02*
X8048D01*
X-1952Y-264508D02*
Y-244508D01*
Y-264508D02*
X8048D01*
Y-244508D01*
X-1952D02*
X8048D01*
X-1952Y-264508D02*
Y-244508D01*
Y-264508D02*
X8048D01*
Y-244508D01*
X-27225Y-306230D02*
X-17226D01*
X-27225Y-326230D02*
Y-306230D01*
Y-326230D02*
X-17226D01*
Y-306230D01*
X-27225D02*
X-17226D01*
X-27225Y-326230D02*
Y-306230D01*
Y-326230D02*
X-17226D01*
Y-306230D01*
X-251401Y-378521D02*
X-244329Y-385592D01*
X-265543Y-392664D02*
X-251401Y-378521D01*
X-265543Y-392664D02*
X-258472Y-399735D01*
X-244329Y-385592D01*
X-251401Y-378521D02*
X-244329Y-385592D01*
X-265543Y-392664D02*
X-251401Y-378521D01*
X-265543Y-392664D02*
X-258472Y-399735D01*
X-244329Y-385592D01*
X-165547Y-197592D02*
X-158476Y-204663D01*
X-144333Y-190520D01*
X-151404Y-183449D02*
X-144333Y-190520D01*
X-165547Y-197592D02*
X-151404Y-183449D01*
X-165547Y-197592D02*
X-158476Y-204663D01*
X-144333Y-190520D01*
X-151404Y-183449D02*
X-144333Y-190520D01*
X-165547Y-197592D02*
X-151404Y-183449D01*
X-175121Y-188935D02*
X-168050Y-196006D01*
X-153908Y-181864D01*
X-160979Y-174793D02*
X-153908Y-181864D01*
X-175121Y-188935D02*
X-160979Y-174793D01*
X-175121Y-188935D02*
X-168050Y-196006D01*
X-153908Y-181864D01*
X-160979Y-174793D02*
X-153908Y-181864D01*
X-175121Y-188935D02*
X-160979Y-174793D01*
X-2032Y-281084D02*
X7968D01*
X-2032Y-301084D02*
Y-281084D01*
Y-301084D02*
X7968D01*
Y-281084D01*
X-2032D02*
X7968D01*
X-2032Y-301084D02*
Y-281084D01*
Y-301084D02*
X7968D01*
Y-281084D01*
X-14779Y-306230D02*
X-4780D01*
X-14779Y-326230D02*
Y-306230D01*
Y-326230D02*
X-4780D01*
Y-306230D01*
X-14779D02*
X-4780D01*
X-14779Y-326230D02*
Y-306230D01*
Y-326230D02*
X-4780D01*
Y-306230D01*
X-103138Y-389867D02*
X-83138D01*
X-103138D02*
Y-379867D01*
X-83138D01*
Y-389867D02*
Y-379867D01*
X-103138Y-389867D02*
X-83138D01*
X-103138D02*
Y-379867D01*
X-83138D01*
Y-389867D02*
Y-379867D01*
X70165Y377424D02*
X77236Y384495D01*
X70165Y377424D02*
X84308Y363281D01*
X91379Y370352D01*
X77236Y384495D02*
X91379Y370352D01*
X79563Y386060D02*
X86634Y393131D01*
X79563Y386060D02*
X93706Y371917D01*
X100777Y378988D01*
X86634Y393131D02*
X100777Y378988D01*
X60534Y368788D02*
X67605Y375859D01*
X60534Y368788D02*
X74676Y354645D01*
X81747Y361716D01*
X67605Y375859D02*
X81747Y361716D01*
X47559Y435590D02*
X61702Y421447D01*
X54630Y442661D02*
X68773Y428518D01*
X47559Y435590D02*
X54630Y442661D01*
X61702Y421447D02*
X68773Y428518D01*
X-86399Y48377D02*
X-64125Y70651D01*
X-130947Y92925D02*
X-86399Y48377D01*
X-108673Y115199D02*
X-64125Y70651D01*
X-130947Y92925D02*
X-108673Y115199D01*
X61722Y421427D02*
X68793Y428498D01*
X54651Y442640D02*
X68793Y428498D01*
X47580Y435569D02*
X54651Y442640D01*
X47580Y435569D02*
X61722Y421427D01*
X77589Y405466D02*
X84660Y412537D01*
X70518Y426679D02*
X84660Y412537D01*
X63447Y419608D02*
X70518Y426679D01*
X63447Y419608D02*
X77589Y405466D01*
X248746Y-150183D02*
Y-130183D01*
X258746D01*
Y-150183D02*
Y-130183D01*
X248746Y-150183D02*
X258746D01*
X248746D02*
Y-130183D01*
X258746D01*
Y-150183D02*
Y-130183D01*
X248746Y-150183D02*
X258746D01*
X441160Y11889D02*
Y31889D01*
X451160D01*
Y11889D02*
Y31889D01*
X441160Y11889D02*
X451160D01*
X441160D02*
Y31889D01*
X451160D01*
Y11889D02*
Y31889D01*
X441160Y11889D02*
X451160D01*
X264066Y-101133D02*
X284066D01*
Y-111133D02*
Y-101133D01*
X264066Y-111133D02*
X284066D01*
X264066D02*
Y-101133D01*
X284066D01*
Y-111133D02*
Y-101133D01*
X264066Y-111133D02*
X284066D01*
X264066D02*
Y-101133D01*
X-152066Y-409034D02*
Y-389034D01*
X-142066D01*
Y-409034D02*
Y-389034D01*
X-152066Y-409034D02*
X-142066D01*
X-152066D02*
Y-389034D01*
X-142066D01*
Y-409034D02*
Y-389034D01*
X-152066Y-409034D02*
X-142066D01*
X-129479Y-234168D02*
X-115336Y-220025D01*
X-108265Y-227096D01*
X-122408Y-241239D02*
X-108265Y-227096D01*
X-129479Y-234168D02*
X-122408Y-241239D01*
X-129479Y-234168D02*
X-115336Y-220025D01*
X-108265Y-227096D01*
X-122408Y-241239D02*
X-108265Y-227096D01*
X-129479Y-234168D02*
X-122408Y-241239D01*
X173308Y-148978D02*
Y-128978D01*
X183308D01*
Y-148978D02*
Y-128978D01*
X173308Y-148978D02*
X183308D01*
X173308D02*
Y-128978D01*
X183308D01*
Y-148978D02*
Y-128978D01*
X173308Y-148978D02*
X183308D01*
X-166036Y375318D02*
Y395318D01*
X-156036D01*
Y375318D02*
Y395318D01*
X-166036Y375318D02*
X-156036D01*
X-166036D02*
Y395318D01*
X-156036D01*
Y375318D02*
Y395318D01*
X-166036Y375318D02*
X-156036D01*
Y398686D02*
Y418686D01*
X-166036Y398686D02*
X-156036D01*
X-166036D02*
Y418686D01*
X-156036D01*
Y398686D02*
Y418686D01*
X-166036Y398686D02*
X-156036D01*
X-166036D02*
Y418686D01*
X-156036D01*
X-16938Y431532D02*
Y451532D01*
X-6938D01*
Y431532D02*
Y451532D01*
X-16938Y431532D02*
X-6938D01*
X-16938D02*
Y451532D01*
X-6938D01*
Y431532D02*
Y451532D01*
X-16938Y431532D02*
X-6938D01*
X-5160Y378446D02*
Y398446D01*
X-15160Y378446D02*
X-5160D01*
X-15160D02*
Y398446D01*
X-5160D01*
Y378446D02*
Y398446D01*
X-15160Y378446D02*
X-5160D01*
X-15160D02*
Y398446D01*
X-5160D01*
X-165020Y-409114D02*
Y-389114D01*
X-155020D01*
Y-409114D02*
Y-389114D01*
X-165020Y-409114D02*
X-155020D01*
X-165020D02*
Y-389114D01*
X-155020D01*
Y-409114D02*
Y-389114D01*
X-165020Y-409114D02*
X-155020D01*
X258541Y-348427D02*
Y-346071D01*
X256185Y-343715D01*
X253829D01*
X249116Y-348427D01*
Y-350784D01*
X251472Y-353140D01*
X253829D01*
X259719Y-361387D02*
X255007Y-356674D01*
X264432D01*
X265610Y-355496D01*
X265610Y-353140D01*
X263254Y-350784D01*
X260897D01*
X273857Y-361387D02*
X270322Y-360209D01*
X265610D01*
X263254Y-362565D01*
Y-364921D01*
X265610Y-367277D01*
X267966Y-367277D01*
X269144Y-366099D01*
X269144Y-363743D01*
X265610Y-360209D01*
X-72901Y282628D02*
X-65832Y289696D01*
X-62298Y286162D01*
Y283806D01*
X-64654Y281450D01*
X-67010D01*
X-70545Y284984D01*
X-68189Y282628D02*
Y277915D01*
X-61120Y270846D02*
X-65832Y275559D01*
X-56407D01*
X-55229Y276737D01*
X-55229Y279093D01*
X-57585Y281450D01*
X-59942D01*
X-52873Y274381D02*
X-50517D01*
X-48160Y272024D01*
X-48160Y269668D01*
X-49338Y268490D01*
X-51695D01*
X-51695Y266134D01*
X-52873Y264956D01*
X-55229Y264956D01*
X-57585Y267312D01*
Y269668D01*
X-56407Y270846D01*
X-54051D01*
Y273202D01*
X-52873Y274381D01*
X-54051Y270846D02*
X-51695Y268490D01*
X-10084Y219888D02*
X-3015Y226957D01*
X520Y223422D01*
Y221066D01*
X-1837Y218710D01*
X-4193D01*
X-7727Y222244D01*
X-5371Y219888D02*
Y215175D01*
X1698Y208106D02*
X-3015Y212819D01*
X6410D01*
X7588Y213997D01*
X7588Y216353D01*
X5232Y218710D01*
X2876D01*
X11123Y212819D02*
X15835Y208106D01*
X14657Y206928D01*
X5232D01*
X4054Y205750D01*
X33436Y219282D02*
X40504Y226351D01*
X44039Y222816D01*
Y220460D01*
X41683Y218104D01*
X39326D01*
X35792Y221638D01*
X38148Y219282D02*
Y214569D01*
X45217Y207501D02*
X40504Y212213D01*
X49929D01*
X51108Y213391D01*
X51108Y215748D01*
X48751Y218104D01*
X46395D01*
X59355Y207501D02*
X55820Y208679D01*
X51108D01*
X48751Y206323D01*
Y203966D01*
X51108Y201610D01*
X53464Y201610D01*
X54642Y202788D01*
X54642Y205144D01*
X51108Y208679D01*
X426394Y60916D02*
X424728Y62582D01*
X421395D01*
X419729Y60916D01*
Y54251D01*
X421395Y52585D01*
X424728D01*
X426394Y54251D01*
X434724Y52585D02*
Y62582D01*
X429726Y57584D01*
X436390D01*
X439723Y60916D02*
X441389Y62582D01*
X444721D01*
X446387Y60916D01*
Y54251D01*
X444721Y52585D01*
X441389D01*
X439723Y54251D01*
Y60916D01*
X454718Y52585D02*
Y62582D01*
X449719Y57584D01*
X456384D01*
X-115732Y-334583D02*
X-118088D01*
X-120445Y-336939D01*
Y-339295D01*
X-115732Y-344008D01*
X-113376D01*
X-111020Y-341652D01*
Y-339295D01*
X-102773Y-333405D02*
X-107485Y-338117D01*
Y-328692D01*
X-108663Y-327514D01*
X-111020Y-327514D01*
X-113376Y-329870D01*
Y-332227D01*
X-106307Y-325158D02*
Y-322802D01*
X-103951Y-320445D01*
X-101595Y-320445D01*
X-96882Y-325158D01*
X-96882Y-327514D01*
X-99238Y-329870D01*
X-101595D01*
X-106307Y-325158D01*
X-88635Y-319267D02*
X-93348Y-323980D01*
Y-314555D01*
X-94526Y-313377D01*
X-96882Y-313376D01*
X-99238Y-315733D01*
Y-318089D01*
D23*
X26242Y-310232D02*
X56242D01*
X26242Y-354232D02*
X56242D01*
Y-310232D01*
X26242Y-354232D02*
Y-310232D01*
X-27272Y-300302D02*
X-7272D01*
X-27272D02*
Y-280302D01*
X-7272Y-300302D02*
Y-280302D01*
X-27272D02*
X-7272D01*
D24*
X311704Y-77304D02*
Y-34104D01*
X285704Y-77304D02*
X311704D01*
X285704Y-34104D02*
X311704D01*
X285704Y-77304D02*
Y-34104D01*
D26*
X294939Y542D02*
D03*
D27*
X-248214Y344569D02*
D03*
D28*
X298705Y-61035D02*
D03*
D29*
X-279623Y-14944D02*
D03*
D145*
X-307182Y-9331D02*
Y-18218D01*
X-302738D01*
X-301257Y-16737D01*
Y-10812D01*
X-302738Y-9331D01*
X-307182D01*
X-298295Y-18218D02*
X-295333D01*
X-296814D01*
Y-9331D01*
X-298295Y-10812D01*
X-290889D02*
X-289408Y-9331D01*
X-286445D01*
X-284964Y-10812D01*
Y-12293D01*
X-286445Y-13775D01*
X-287927D01*
X-286445D01*
X-284964Y-15256D01*
Y-16737D01*
X-286445Y-18218D01*
X-289408D01*
X-290889Y-16737D01*
D153*
X272459Y-230162D02*
X254787Y-247834D01*
Y-254903D01*
X261856Y-261971D01*
X268925D01*
X286597Y-244300D01*
X272459Y-272575D02*
X279528Y-279643D01*
X275994Y-276109D01*
X297200Y-254903D01*
X290131D01*
X304269Y-304384D02*
X290131Y-290247D01*
X318406D01*
X321941Y-286712D01*
X321941Y-279643D01*
X314872Y-272575D01*
X307803Y-272575D01*
X38365Y4356D02*
X25036D01*
Y-5641D01*
X31700D01*
X25036D01*
Y-15638D01*
X45030D02*
X51694D01*
X48362D01*
Y4356D01*
X45030Y1023D01*
X61691D02*
X65023Y4356D01*
X71688D01*
X75020Y1023D01*
Y-12306D01*
X71688Y-15638D01*
X65023D01*
X61691Y-12306D01*
Y1023D01*
X81684Y-15638D02*
X88349D01*
X85017D01*
Y4356D01*
X81684Y1023D01*
X-3984Y122003D02*
X-8696Y122003D01*
X-13408Y117291D01*
X-13408Y112578D01*
X-3984Y103153D01*
X729D01*
X5442Y107866D01*
Y112578D01*
X12510Y114935D02*
X17223Y119647D01*
X14867Y117291D01*
X729Y131428D01*
X729Y126716D01*
X12510Y138497D02*
X12510Y143210D01*
X17223Y147922D01*
X21935Y147922D01*
X31360Y138497D01*
Y133785D01*
X26648Y129072D01*
X21935D01*
X12510Y138497D01*
X38429Y140854D02*
X43142Y145566D01*
X40785Y143210D01*
X26648Y157347D01*
Y152635D01*
X-333880Y207896D02*
X-316208Y190224D01*
X-309140D01*
X-302071Y197293D01*
Y204362D01*
X-319743Y222034D01*
X-291468Y207896D02*
X-284399Y214965D01*
X-287933Y211431D01*
X-309140Y232637D01*
Y225568D01*
X-291468Y243240D02*
X-291468Y250309D01*
X-284399Y257378D01*
X-277330Y257378D01*
X-273796Y253843D01*
Y246775D01*
X-277330Y243240D01*
X-273796Y246775D01*
X-266727D01*
X-263193Y243240D01*
Y236171D01*
X-270261Y229103D01*
X-277330D01*
X183772Y202562D02*
X201444Y184890D01*
X208512D01*
X215581Y191959D01*
Y199028D01*
X197909Y216700D01*
X236787Y213165D02*
X215581Y234372D01*
Y213165D01*
X229719Y227303D01*
X229719Y241441D02*
X229719Y248509D01*
X236787Y255578D01*
X243856Y255578D01*
X257994Y241441D01*
Y234372D01*
X250925Y227303D01*
X243856D01*
X229719Y241441D01*
X250925Y262647D02*
X250925Y269716D01*
X257994Y276784D01*
X265063Y276784D01*
X268597Y273250D01*
Y266181D01*
X265063Y262647D01*
X268597Y266181D01*
X275666D01*
X279200Y262647D01*
Y255578D01*
X272131Y248509D01*
X265063D01*
D173*
X-342902Y34861D02*
Y40192D01*
X-344235Y41525D01*
X-346901D01*
X-348234Y40192D01*
Y34861D01*
X-346901Y33528D01*
X-344235D01*
X-345568Y36194D02*
X-342902Y33528D01*
X-344235D02*
X-342902Y34861D01*
X-334905Y33528D02*
X-340237D01*
X-334905Y38860D01*
Y40192D01*
X-336238Y41525D01*
X-338904D01*
X-340237Y40192D01*
D174*
X414677Y25621D02*
Y22447D01*
X415312Y21812D01*
X416581D01*
X417216Y22447D01*
Y25621D01*
X420390Y21812D02*
Y25621D01*
X418485Y23717D01*
X421025D01*
X422294Y24986D02*
X422929Y25621D01*
X424199D01*
X424833Y24986D01*
Y22447D01*
X424199Y21812D01*
X422929D01*
X422294Y22447D01*
Y24986D01*
X428642Y21812D02*
X426103D01*
X428642Y24351D01*
Y24986D01*
X428007Y25621D01*
X426738D01*
X426103Y24986D01*
M02*
