G04*
G04 #@! TF.GenerationSoftware,Altium Limited,Altium Designer,20.1.14 (287)*
G04*
G04 Layer_Physical_Order=1*
G04 Layer_Color=255*
%FSLAX44Y44*%
%MOMM*%
G71*
G04*
G04 #@! TF.SameCoordinates,26D83F00-FBC8-424C-8E9F-EDBCECB59CF3*
G04*
G04*
G04 #@! TF.FilePolarity,Positive*
G04*
G01*
G75*
%ADD12C,0.2000*%
%ADD16C,0.2540*%
%ADD18C,0.3810*%
%ADD30R,0.8000X0.8000*%
%ADD31R,0.4000X1.6000*%
%ADD32R,0.8000X0.9000*%
%ADD33R,0.5000X0.5000*%
%ADD34R,0.3100X0.6600*%
%ADD35R,0.5000X0.5000*%
%ADD36R,0.6000X1.1000*%
G04:AMPARAMS|DCode=37|XSize=0.9mm|YSize=1.3mm|CornerRadius=0mm|HoleSize=0mm|Usage=FLASHONLY|Rotation=225.000|XOffset=0mm|YOffset=0mm|HoleType=Round|Shape=Rectangle|*
%AMROTATEDRECTD37*
4,1,4,-0.1414,0.7778,0.7778,-0.1414,0.1414,-0.7778,-0.7778,0.1414,-0.1414,0.7778,0.0*
%
%ADD37ROTATEDRECTD37*%

G04:AMPARAMS|DCode=38|XSize=0.62mm|YSize=0.6mm|CornerRadius=0mm|HoleSize=0mm|Usage=FLASHONLY|Rotation=135.000|XOffset=0mm|YOffset=0mm|HoleType=Round|Shape=Rectangle|*
%AMROTATEDRECTD38*
4,1,4,0.4313,-0.0071,0.0071,-0.4313,-0.4313,0.0071,-0.0071,0.4313,0.4313,-0.0071,0.0*
%
%ADD38ROTATEDRECTD38*%

%ADD39P,1.1314X4X180.0*%
G04:AMPARAMS|DCode=40|XSize=1.5mm|YSize=0.6mm|CornerRadius=0mm|HoleSize=0mm|Usage=FLASHONLY|Rotation=135.000|XOffset=0mm|YOffset=0mm|HoleType=Round|Shape=Rectangle|*
%AMROTATEDRECTD40*
4,1,4,0.7425,-0.3182,0.3182,-0.7425,-0.7425,0.3182,-0.3182,0.7425,0.7425,-0.3182,0.0*
%
%ADD40ROTATEDRECTD40*%

G04:AMPARAMS|DCode=41|XSize=0.9mm|YSize=1.5mm|CornerRadius=0mm|HoleSize=0mm|Usage=FLASHONLY|Rotation=135.000|XOffset=0mm|YOffset=0mm|HoleType=Round|Shape=Rectangle|*
%AMROTATEDRECTD41*
4,1,4,0.8485,0.2121,-0.2121,-0.8485,-0.8485,-0.2121,0.2121,0.8485,0.8485,0.2121,0.0*
%
%ADD41ROTATEDRECTD41*%

G04:AMPARAMS|DCode=42|XSize=1.5mm|YSize=0.6mm|CornerRadius=0mm|HoleSize=0mm|Usage=FLASHONLY|Rotation=45.000|XOffset=0mm|YOffset=0mm|HoleType=Round|Shape=Rectangle|*
%AMROTATEDRECTD42*
4,1,4,-0.3182,-0.7425,-0.7425,-0.3182,0.3182,0.7425,0.7425,0.3182,-0.3182,-0.7425,0.0*
%
%ADD42ROTATEDRECTD42*%

G04:AMPARAMS|DCode=43|XSize=0.62mm|YSize=0.5mm|CornerRadius=0mm|HoleSize=0mm|Usage=FLASHONLY|Rotation=135.000|XOffset=0mm|YOffset=0mm|HoleType=Round|Shape=Rectangle|*
%AMROTATEDRECTD43*
4,1,4,0.3960,-0.0424,0.0424,-0.3960,-0.3960,0.0424,-0.0424,0.3960,0.3960,-0.0424,0.0*
%
%ADD43ROTATEDRECTD43*%

G04:AMPARAMS|DCode=44|XSize=0.9mm|YSize=1.6mm|CornerRadius=0mm|HoleSize=0mm|Usage=FLASHONLY|Rotation=315.000|XOffset=0mm|YOffset=0mm|HoleType=Round|Shape=Rectangle|*
%AMROTATEDRECTD44*
4,1,4,-0.8839,-0.2475,0.2475,0.8839,0.8839,0.2475,-0.2475,-0.8839,-0.8839,-0.2475,0.0*
%
%ADD44ROTATEDRECTD44*%

%ADD45R,0.5000X0.6000*%
%ADD46R,0.6000X0.5400*%
G04:AMPARAMS|DCode=47|XSize=0.9mm|YSize=1.6mm|CornerRadius=0mm|HoleSize=0mm|Usage=FLASHONLY|Rotation=225.000|XOffset=0mm|YOffset=0mm|HoleType=Round|Shape=Rectangle|*
%AMROTATEDRECTD47*
4,1,4,-0.2475,0.8839,0.8839,-0.2475,0.2475,-0.8839,-0.8839,0.2475,-0.2475,0.8839,0.0*
%
%ADD47ROTATEDRECTD47*%

G04:AMPARAMS|DCode=48|XSize=0.62mm|YSize=0.5mm|CornerRadius=0mm|HoleSize=0mm|Usage=FLASHONLY|Rotation=45.000|XOffset=0mm|YOffset=0mm|HoleType=Round|Shape=Rectangle|*
%AMROTATEDRECTD48*
4,1,4,-0.0424,-0.3960,-0.3960,-0.0424,0.0424,0.3960,0.3960,0.0424,-0.0424,-0.3960,0.0*
%
%ADD48ROTATEDRECTD48*%

G04:AMPARAMS|DCode=49|XSize=0.8mm|YSize=0.8mm|CornerRadius=0.28mm|HoleSize=0mm|Usage=FLASHONLY|Rotation=270.000|XOffset=0mm|YOffset=0mm|HoleType=Round|Shape=RoundedRectangle|*
%AMROUNDEDRECTD49*
21,1,0.8000,0.2400,0,0,270.0*
21,1,0.2400,0.8000,0,0,270.0*
1,1,0.5600,-0.1200,-0.1200*
1,1,0.5600,-0.1200,0.1200*
1,1,0.5600,0.1200,0.1200*
1,1,0.5600,0.1200,-0.1200*
%
%ADD49ROUNDEDRECTD49*%
%ADD50P,0.8485X4X360.0*%
G04:AMPARAMS|DCode=51|XSize=0.9mm|YSize=1.3mm|CornerRadius=0mm|HoleSize=0mm|Usage=FLASHONLY|Rotation=315.000|XOffset=0mm|YOffset=0mm|HoleType=Round|Shape=Rectangle|*
%AMROTATEDRECTD51*
4,1,4,-0.7778,-0.1414,0.1414,0.7778,0.7778,0.1414,-0.1414,-0.7778,-0.7778,-0.1414,0.0*
%
%ADD51ROTATEDRECTD51*%

%ADD52R,1.1000X0.6000*%
%ADD53R,1.1000X0.7000*%
%ADD54R,0.5000X1.5100*%
%ADD55R,0.3250X0.3000*%
%ADD56R,0.3000X0.3250*%
%ADD57R,0.5000X0.6200*%
%ADD58R,0.6200X0.5000*%
G04:AMPARAMS|DCode=59|XSize=0.91mm|YSize=1.22mm|CornerRadius=0mm|HoleSize=0mm|Usage=FLASHONLY|Rotation=45.000|XOffset=0mm|YOffset=0mm|HoleType=Round|Shape=Rectangle|*
%AMROTATEDRECTD59*
4,1,4,0.1096,-0.7531,-0.7531,0.1096,-0.1096,0.7531,0.7531,-0.1096,0.1096,-0.7531,0.0*
%
%ADD59ROTATEDRECTD59*%

G04:AMPARAMS|DCode=60|XSize=0.8mm|YSize=0.9mm|CornerRadius=0mm|HoleSize=0mm|Usage=FLASHONLY|Rotation=45.000|XOffset=0mm|YOffset=0mm|HoleType=Round|Shape=Rectangle|*
%AMROTATEDRECTD60*
4,1,4,0.0354,-0.6010,-0.6010,0.0354,-0.0354,0.6010,0.6010,-0.0354,0.0354,-0.6010,0.0*
%
%ADD60ROTATEDRECTD60*%

%ADD61R,1.3000X0.9000*%
G04:AMPARAMS|DCode=62|XSize=3.5mm|YSize=1.2mm|CornerRadius=0mm|HoleSize=0mm|Usage=FLASHONLY|Rotation=135.000|XOffset=0mm|YOffset=0mm|HoleType=Round|Shape=Rectangle|*
%AMROTATEDRECTD62*
4,1,4,1.6617,-0.8132,0.8132,-1.6617,-1.6617,0.8132,-0.8132,1.6617,1.6617,-0.8132,0.0*
%
%ADD62ROTATEDRECTD62*%

G04:AMPARAMS|DCode=63|XSize=0.85mm|YSize=0.3mm|CornerRadius=0mm|HoleSize=0mm|Usage=FLASHONLY|Rotation=45.000|XOffset=0mm|YOffset=0mm|HoleType=Round|Shape=Rectangle|*
%AMROTATEDRECTD63*
4,1,4,-0.1945,-0.4066,-0.4066,-0.1945,0.1945,0.4066,0.4066,0.1945,-0.1945,-0.4066,0.0*
%
%ADD63ROTATEDRECTD63*%

G04:AMPARAMS|DCode=64|XSize=0.85mm|YSize=0.3mm|CornerRadius=0mm|HoleSize=0mm|Usage=FLASHONLY|Rotation=135.000|XOffset=0mm|YOffset=0mm|HoleType=Round|Shape=Rectangle|*
%AMROTATEDRECTD64*
4,1,4,0.4066,-0.1945,0.1945,-0.4066,-0.4066,0.1945,-0.1945,0.4066,0.4066,-0.1945,0.0*
%
%ADD64ROTATEDRECTD64*%

%ADD65P,3.6770X4X180.0*%
G04:AMPARAMS|DCode=66|XSize=1mm|YSize=3.2mm|CornerRadius=0mm|HoleSize=0mm|Usage=FLASHONLY|Rotation=135.000|XOffset=0mm|YOffset=0mm|HoleType=Round|Shape=Rectangle|*
%AMROTATEDRECTD66*
4,1,4,1.4849,0.7778,-0.7778,-1.4849,-1.4849,-0.7778,0.7778,1.4849,1.4849,0.7778,0.0*
%
%ADD66ROTATEDRECTD66*%

%ADD67P,1.1314X4X270.0*%
%ADD68R,0.8000X2.7000*%
%ADD69R,0.2800X0.5000*%
%ADD70R,1.6000X0.9000*%
%ADD71R,0.8000X0.8000*%
%ADD72R,0.6000X0.6200*%
%ADD73R,0.9000X1.6000*%
%ADD74R,2.0000X2.0000*%
G04:AMPARAMS|DCode=75|XSize=1.285mm|YSize=1.47mm|CornerRadius=0mm|HoleSize=0mm|Usage=FLASHONLY|Rotation=45.000|XOffset=0mm|YOffset=0mm|HoleType=Round|Shape=Rectangle|*
%AMROTATEDRECTD75*
4,1,4,0.0654,-0.9740,-0.9740,0.0654,-0.0654,0.9740,0.9740,-0.0654,0.0654,-0.9740,0.0*
%
%ADD75ROTATEDRECTD75*%

G04:AMPARAMS|DCode=76|XSize=1.3mm|YSize=0.9mm|CornerRadius=0.225mm|HoleSize=0mm|Usage=FLASHONLY|Rotation=0.000|XOffset=0mm|YOffset=0mm|HoleType=Round|Shape=RoundedRectangle|*
%AMROUNDEDRECTD76*
21,1,1.3000,0.4500,0,0,0.0*
21,1,0.8500,0.9000,0,0,0.0*
1,1,0.4500,0.4250,-0.2250*
1,1,0.4500,-0.4250,-0.2250*
1,1,0.4500,-0.4250,0.2250*
1,1,0.4500,0.4250,0.2250*
%
%ADD76ROUNDEDRECTD76*%
G04:AMPARAMS|DCode=77|XSize=1mm|YSize=2.3mm|CornerRadius=0mm|HoleSize=0mm|Usage=FLASHONLY|Rotation=315.000|XOffset=0mm|YOffset=0mm|HoleType=Round|Shape=Rectangle|*
%AMROTATEDRECTD77*
4,1,4,-1.1667,-0.4596,0.4596,1.1667,1.1667,0.4596,-0.4596,-1.1667,-1.1667,-0.4596,0.0*
%
%ADD77ROTATEDRECTD77*%

%ADD78R,1.2700X2.0828*%
G04:AMPARAMS|DCode=79|XSize=1mm|YSize=1.5mm|CornerRadius=0mm|HoleSize=0mm|Usage=FLASHONLY|Rotation=225.000|XOffset=0mm|YOffset=0mm|HoleType=Round|Shape=Round|*
%AMOVALD79*
21,1,0.5000,1.0000,0.0000,0.0000,315.0*
1,1,1.0000,-0.1768,0.1768*
1,1,1.0000,0.1768,-0.1768*
%
%ADD79OVALD79*%

G04:AMPARAMS|DCode=80|XSize=1mm|YSize=1.5mm|CornerRadius=0mm|HoleSize=0mm|Usage=FLASHONLY|Rotation=135.000|XOffset=0mm|YOffset=0mm|HoleType=Round|Shape=Round|*
%AMOVALD80*
21,1,0.5000,1.0000,0.0000,0.0000,225.0*
1,1,1.0000,0.1768,0.1768*
1,1,1.0000,-0.1768,-0.1768*
%
%ADD80OVALD80*%

%ADD145C,0.2032*%
%ADD146C,0.3048*%
%ADD147C,0.1524*%
%ADD148C,0.1778*%
%ADD149C,2.5400*%
%ADD150C,0.6350*%
%ADD151C,0.5080*%
%ADD152C,0.7620*%
%ADD153C,0.3000*%
%ADD154C,0.3556*%
%ADD155C,0.8890*%
G04:AMPARAMS|DCode=156|XSize=2.3mm|YSize=1.95mm|CornerRadius=0mm|HoleSize=0mm|Usage=FLASHONLY|Rotation=315.000|XOffset=0mm|YOffset=0mm|HoleType=Round|Shape=Round|*
%AMOVALD156*
21,1,0.3500,1.9500,0.0000,0.0000,315.0*
1,1,1.9500,-0.1237,0.1237*
1,1,1.9500,0.1237,-0.1237*
%
%ADD156OVALD156*%

%ADD157C,1.9500*%
%ADD158C,1.5240*%
%ADD159C,1.6500*%
%ADD160C,1.4000*%
%ADD161R,1.4000X1.4000*%
%ADD162C,1.5000*%
%ADD163R,1.6000X1.6000*%
%ADD164C,1.6000*%
%ADD165C,1.9000*%
%ADD166C,4.3660*%
%ADD167C,2.5000*%
%ADD168C,0.5080*%
%ADD169C,0.8128*%
G36*
X-76435Y480075D02*
X-76435Y376955D01*
X-149180Y304210D01*
X-156882Y311912D01*
X-167640D01*
X-169287Y310265D01*
X-171027Y310285D01*
X-171150Y310409D01*
Y312399D01*
X-171276Y312702D01*
Y313030D01*
X-172037Y314867D01*
X-172269Y315100D01*
X-172395Y315403D01*
X-173801Y316809D01*
X-174104Y316935D01*
X-174336Y317167D01*
X-176174Y317928D01*
X-176502D01*
X-176805Y318054D01*
X-178795D01*
X-179098Y317928D01*
X-179426D01*
X-181264Y317167D01*
X-181496Y316935D01*
X-181799Y316809D01*
X-197000Y301607D01*
X-197484Y300441D01*
Y259681D01*
X-307076Y150089D01*
X-307560Y148922D01*
Y145830D01*
X-308610Y144780D01*
X-308610Y77902D01*
X-289636Y58928D01*
X-243363Y58928D01*
X-177816Y-6619D01*
X-177816Y-88415D01*
X-65063Y-201168D01*
X59690Y-201168D01*
X183642Y-77216D01*
X183642Y58928D01*
X197358Y72644D01*
X298704D01*
X346500Y120440D01*
X348221Y120409D01*
X369422Y99208D01*
X368936Y98035D01*
X352697D01*
X332482Y77820D01*
Y65536D01*
X356942Y41076D01*
X413590D01*
X414420Y39806D01*
X414357Y39491D01*
X414672Y37905D01*
X415570Y36561D01*
X416564Y35897D01*
Y29775D01*
X427412D01*
Y37823D01*
X427337D01*
Y42267D01*
X427718Y42838D01*
X427984Y44176D01*
Y47060D01*
X428679Y47348D01*
X429664Y48333D01*
X429952Y49028D01*
X430504Y50069D01*
X445744D01*
Y65309D01*
X435024D01*
Y73992D01*
X416052Y92964D01*
X415892Y93132D01*
X448315Y125555D01*
Y139291D01*
X428348Y159258D01*
X409956D01*
X397637Y171577D01*
Y191135D01*
X412242Y205740D01*
X441656Y205653D01*
X450109Y186441D01*
X457813Y166630D01*
X464646Y146502D01*
X470594Y126095D01*
X475647Y105448D01*
X479793Y84600D01*
X483027Y63592D01*
X485341Y42462D01*
X486731Y21251D01*
X487195Y0D01*
X486731Y-21251D01*
X485341Y-42462D01*
X483027Y-63592D01*
X479793Y-84600D01*
X475647Y-105448D01*
X470594Y-126095D01*
X464646Y-146502D01*
X457813Y-166630D01*
X450109Y-186441D01*
X441549Y-205898D01*
X432147Y-224962D01*
X421923Y-243598D01*
X410896Y-261770D01*
X403307Y-273127D01*
X402043Y-273252D01*
X397536Y-268745D01*
X357667Y-228875D01*
X324825Y-261768D01*
X328082Y-265026D01*
X278043Y-315065D01*
X274573Y-311595D01*
X273900Y-310922D01*
X267727Y-304749D01*
X267502Y-304524D01*
X266604Y-303626D01*
X260656Y-297678D01*
X259758Y-296780D01*
X259533Y-296555D01*
X253360Y-290382D01*
X240598Y-303144D01*
X246771Y-309317D01*
X247669Y-310215D01*
X247894Y-310440D01*
X253842Y-316388D01*
X254067Y-316613D01*
X254844Y-317389D01*
X255107Y-317908D01*
X255107Y-318922D01*
X253895Y-320134D01*
X253221Y-321142D01*
X252985Y-322331D01*
Y-327381D01*
X253221Y-328571D01*
X253895Y-329579D01*
X256334Y-332017D01*
X254697Y-333654D01*
X241038Y-319995D01*
X241038Y-319994D01*
X239871Y-319511D01*
X239864Y-319514D01*
X238705Y-319994D01*
X235175Y-323524D01*
X233916Y-323524D01*
X233916Y-323524D01*
X228528Y-328912D01*
X228528Y-328912D01*
X228528Y-330172D01*
X217842Y-340857D01*
X217359Y-342023D01*
X217359Y-345975D01*
X217842Y-347141D01*
X234186Y-363485D01*
X235352Y-363968D01*
X241751Y-363968D01*
X242917Y-363485D01*
X249680Y-356722D01*
X250950D01*
X259925Y-365697D01*
X270701Y-354921D01*
X261091Y-345311D01*
X261574Y-344145D01*
Y-341214D01*
X261091Y-340048D01*
X259092Y-338049D01*
X267297Y-329843D01*
X268209Y-330755D01*
X280456Y-318508D01*
X324226Y-362278D01*
X324184Y-363547D01*
X313163Y-373213D01*
X296586Y-386518D01*
X279444Y-399087D01*
X261770Y-410896D01*
X243598Y-421923D01*
X224962Y-432147D01*
X205898Y-441549D01*
X186441Y-450109D01*
X166630Y-457813D01*
X146502Y-464646D01*
X126095Y-470594D01*
X105448Y-475647D01*
X84600Y-479793D01*
X63592Y-483027D01*
X42462Y-485341D01*
X21251Y-486731D01*
X0Y-487195D01*
X-21251Y-486731D01*
X-42462Y-485341D01*
X-63592Y-483027D01*
X-84600Y-479793D01*
X-105448Y-475647D01*
X-126095Y-470594D01*
X-146502Y-464646D01*
X-166630Y-457813D01*
X-186441Y-450109D01*
X-196381Y-445736D01*
X-196246Y-445412D01*
X-195235Y-441199D01*
X-194895Y-436880D01*
X-195235Y-432561D01*
X-196246Y-428348D01*
X-197904Y-424346D01*
X-200168Y-420652D01*
X-202981Y-417357D01*
X-206276Y-414544D01*
X-209970Y-412280D01*
X-213972Y-410622D01*
X-218185Y-409611D01*
X-222504Y-409271D01*
X-226823Y-409611D01*
X-231036Y-410622D01*
X-235038Y-412280D01*
X-238732Y-414544D01*
X-242027Y-417357D01*
X-244840Y-420652D01*
X-245071Y-421029D01*
X-261770Y-410896D01*
X-279444Y-399087D01*
X-296586Y-386518D01*
X-313163Y-373213D01*
X-329144Y-359198D01*
X-344499Y-344499D01*
X-359198Y-329144D01*
X-373213Y-313163D01*
X-386518Y-296586D01*
X-399087Y-279444D01*
X-410896Y-261770D01*
X-421923Y-243598D01*
X-432147Y-224962D01*
X-441549Y-205898D01*
X-450109Y-186441D01*
X-457813Y-166630D01*
X-464646Y-146502D01*
X-470594Y-126095D01*
X-475647Y-105448D01*
X-479793Y-84600D01*
X-483027Y-63592D01*
X-485341Y-42462D01*
X-486731Y-21251D01*
X-487195Y0D01*
X-486731Y21251D01*
X-485341Y42462D01*
X-483027Y63592D01*
X-479793Y84600D01*
X-475647Y105448D01*
X-470594Y126095D01*
X-464646Y146502D01*
X-457813Y166630D01*
X-450109Y186441D01*
X-441549Y205898D01*
X-432147Y224962D01*
X-421923Y243598D01*
X-410896Y261770D01*
X-399087Y279444D01*
X-386518Y296586D01*
X-373213Y313163D01*
X-359198Y329144D01*
X-344499Y344499D01*
X-329144Y359198D01*
X-313163Y373213D01*
X-296586Y386518D01*
X-279444Y399087D01*
X-261770Y410896D01*
X-243598Y421923D01*
X-224962Y432147D01*
X-205898Y441549D01*
X-186441Y450109D01*
X-166630Y457813D01*
X-146502Y464646D01*
X-126095Y470594D01*
X-105448Y475647D01*
X-84600Y479793D01*
X-77399Y480902D01*
X-76435Y480075D01*
D02*
G37*
G36*
X-158884Y172854D02*
X-157437Y170492D01*
X-154702Y167290D01*
X-152227Y164815D01*
X-149026Y162081D01*
X-146817Y160728D01*
Y157954D01*
X-157162Y147609D01*
X-161071D01*
X-188214Y174752D01*
X-210312D01*
X-233680Y198120D01*
X-213106Y218694D01*
X-204724D01*
X-158884Y172854D01*
D02*
G37*
G36*
X-231140Y148590D02*
X-218408D01*
X-200628Y166370D01*
X-191516D01*
X-183134Y157988D01*
Y150691D01*
X-185081Y148744D01*
X-173561Y137225D01*
Y134620D01*
X-182070Y126111D01*
X-183560D01*
X-196768Y139318D01*
X-201550D01*
X-214684Y126185D01*
X-259387D01*
X-268478Y117094D01*
X-284734D01*
X-292354Y124714D01*
X-292354Y137666D01*
X-273556Y156464D01*
X-262126Y167894D01*
X-250444D01*
X-231140Y148590D01*
D02*
G37*
G36*
X-41402Y221234D02*
X-19685Y199517D01*
Y195453D01*
X-126492Y88646D01*
X-128016D01*
X-133858Y94360D01*
X-151216Y111718D01*
X-151216Y120564D01*
X-50546Y221234D01*
X-41402Y221234D01*
D02*
G37*
G36*
X387604Y232156D02*
Y171196D01*
X405892Y152908D01*
X425704D01*
X442976Y135636D01*
Y132588D01*
X395732Y85344D01*
X392430D01*
X347726Y130048D01*
Y229870D01*
X354330Y236474D01*
X383286D01*
X387604Y232156D01*
D02*
G37*
G36*
X390398Y76962D02*
X423164D01*
X428498Y71628D01*
Y49499D01*
X427513Y48514D01*
X358394D01*
X338582Y68326D01*
Y74422D01*
X339598Y75692D01*
X355346Y91440D01*
X375920D01*
X390398Y76962D01*
D02*
G37*
G36*
X259925Y-341214D02*
Y-344145D01*
X250046Y-354023D01*
X249148Y-354921D01*
X248250Y-355819D01*
X241751Y-362319D01*
X235352Y-362319D01*
X219009Y-345975D01*
X219009Y-342023D01*
X234699Y-326333D01*
X239871Y-321161D01*
X259925Y-341214D01*
D02*
G37*
%LPC*%
G36*
X-156258Y440852D02*
X-165306D01*
Y439898D01*
X-176553D01*
X-177544Y439701D01*
X-178385Y439139D01*
X-190807Y426717D01*
X-190807Y426717D01*
X-202692Y414832D01*
X-236728D01*
X-237719Y414635D01*
X-238559Y414073D01*
X-344079Y308554D01*
X-344339Y308164D01*
X-350973Y300540D01*
X-364458Y283517D01*
X-377141Y265889D01*
X-388997Y247693D01*
X-400000Y228970D01*
X-410127Y209759D01*
X-419355Y190100D01*
X-427666Y170036D01*
X-435041Y149610D01*
X-441465Y128865D01*
X-446924Y107845D01*
X-451407Y86596D01*
X-454903Y65162D01*
X-457406Y43590D01*
X-458909Y21925D01*
X-459411Y214D01*
X-458909Y-21497D01*
X-457406Y-43162D01*
X-454903Y-64734D01*
X-451407Y-86168D01*
X-446924Y-107417D01*
X-441465Y-128437D01*
X-439994Y-133189D01*
X-439707Y-136093D01*
X-438783Y-139142D01*
X-437280Y-141952D01*
X-435259Y-144416D01*
X-432796Y-146437D01*
X-429986Y-147939D01*
X-426936Y-148864D01*
X-423765Y-149176D01*
Y-149148D01*
X-395333D01*
X-395106Y-149488D01*
X-393762Y-150386D01*
X-392176Y-150702D01*
X-390590Y-150386D01*
X-389246Y-149488D01*
X-388348Y-148144D01*
X-388032Y-146558D01*
X-388348Y-144972D01*
X-389246Y-143628D01*
X-390590Y-142730D01*
X-392176Y-142414D01*
X-393762Y-142730D01*
X-395106Y-143628D01*
X-395201Y-143770D01*
X-396345Y-143750D01*
X-396833Y-142624D01*
X-396097Y-141522D01*
X-395782Y-139937D01*
X-396097Y-138351D01*
X-396996Y-137007D01*
X-398340Y-136109D01*
X-399926Y-135793D01*
X-401511Y-136109D01*
X-402418Y-136714D01*
X-403048Y-136641D01*
X-403520Y-135989D01*
X-403803Y-135350D01*
X-403526Y-133957D01*
X-403842Y-132371D01*
X-404740Y-131027D01*
X-406084Y-130129D01*
X-407670Y-129813D01*
X-409256Y-130129D01*
X-410600Y-131027D01*
X-410838Y-131384D01*
X-414185D01*
X-414547Y-130499D01*
X-414629Y-130114D01*
X-413778Y-128840D01*
X-413462Y-127254D01*
X-413778Y-125668D01*
X-414676Y-124324D01*
X-416020Y-123426D01*
X-416818Y-123267D01*
X-417088Y-122397D01*
X-422178Y-102797D01*
X-426358Y-82983D01*
X-429618Y-62997D01*
X-431952Y-42881D01*
X-433354Y-22679D01*
X-433822Y-2434D01*
X-433354Y17811D01*
X-431952Y38012D01*
X-429618Y58128D01*
X-426358Y78114D01*
X-422178Y97928D01*
X-417088Y117528D01*
X-411097Y136873D01*
X-404220Y155920D01*
X-396471Y174629D01*
X-387865Y192959D01*
X-378423Y210874D01*
X-368163Y228333D01*
X-357108Y245299D01*
X-345280Y261737D01*
X-332707Y277611D01*
X-330746Y279864D01*
X-304543D01*
X-303552Y280061D01*
X-302712Y280623D01*
X-299231Y284104D01*
X-297792Y282665D01*
X-292101Y288356D01*
X-293312Y289566D01*
X-289474Y293404D01*
X-287046Y290975D01*
X-279233Y298787D01*
X-287753Y307307D01*
X-295565Y299494D01*
X-293137Y297066D01*
X-296974Y293228D01*
X-298641Y294895D01*
X-298792Y294744D01*
X-299956Y295908D01*
X-305344Y290520D01*
X-304180Y289356D01*
X-304331Y289204D01*
X-302893Y287766D01*
X-305616Y285043D01*
X-331953D01*
Y285205D01*
X-333061Y286313D01*
Y286313D01*
X-333061Y286313D01*
X-334010Y287262D01*
X-334010Y287262D01*
X-334010D01*
X-335067Y288320D01*
X-334482Y289009D01*
X-328495Y295889D01*
Y295889D01*
X-328498Y295964D01*
X-304215Y320247D01*
X-302990Y320354D01*
X-302651Y320015D01*
X-294470Y311835D01*
X-286658Y319647D01*
X-288608Y321597D01*
X-278503Y331702D01*
X-277431Y330630D01*
X-277280Y330782D01*
X-276116Y329618D01*
X-270728Y335006D01*
X-271892Y336170D01*
X-271740Y336321D01*
X-272812Y337393D01*
X-245948Y364258D01*
X-241103D01*
X-240577Y362988D01*
X-241399Y362165D01*
X-230617Y351383D01*
X-228794Y353206D01*
X-219540Y343951D01*
X-218405Y343193D01*
X-217067Y342927D01*
X-200577D01*
X-199670Y340738D01*
X-197863Y338383D01*
X-195388Y335908D01*
X-193033Y334101D01*
X-190290Y332965D01*
X-187347Y332577D01*
X-184404Y332965D01*
X-181662Y334101D01*
X-179307Y335908D01*
X-177500Y338263D01*
X-176364Y341006D01*
X-175976Y343949D01*
X-176364Y346892D01*
X-177500Y349634D01*
X-179307Y351989D01*
X-181782Y354464D01*
X-184137Y356271D01*
X-186879Y357407D01*
X-189822Y357795D01*
X-192765Y357407D01*
X-195508Y356271D01*
X-197863Y354464D01*
X-199670Y352109D01*
X-200577Y349920D01*
X-215619D01*
X-223850Y358150D01*
X-222027Y359973D01*
X-232809Y370755D01*
X-234632Y368932D01*
X-235926Y370226D01*
X-237060Y370984D01*
X-238398Y371250D01*
X-247396D01*
X-248734Y370984D01*
X-249868Y370226D01*
X-277757Y342337D01*
X-278280Y342860D01*
X-283971Y337169D01*
X-283448Y336646D01*
X-293553Y326541D01*
X-294838Y327827D01*
X-295177Y328166D01*
X-295070Y329392D01*
X-238685Y385776D01*
X-205461D01*
X-158467Y338783D01*
X-157627Y338221D01*
X-156636Y338024D01*
X-142144D01*
X-141919Y336892D01*
X-141085Y335643D01*
X-139837Y334809D01*
X-138364Y334516D01*
X-129864D01*
X-128392Y334809D01*
X-127143Y335643D01*
X-126309Y336892D01*
X-126016Y338364D01*
Y342864D01*
X-126309Y344337D01*
X-127143Y345585D01*
X-128392Y346419D01*
X-129864Y346712D01*
X-138364D01*
X-139837Y346419D01*
X-141085Y345585D01*
X-141919Y344337D01*
X-142144Y343204D01*
X-155563D01*
X-202557Y390197D01*
X-203397Y390759D01*
X-204388Y390956D01*
X-239758D01*
X-240749Y390759D01*
X-241589Y390197D01*
X-332328Y299459D01*
X-332588Y299069D01*
X-339058Y291635D01*
X-352216Y275023D01*
X-364593Y257821D01*
X-376162Y240066D01*
X-386898Y221796D01*
X-396780Y203049D01*
X-405785Y183866D01*
X-413895Y164288D01*
X-421091Y144356D01*
X-427360Y124113D01*
X-432687Y103602D01*
X-437061Y82866D01*
X-440473Y61951D01*
X-442915Y40901D01*
X-444382Y19760D01*
X-444872Y-1426D01*
X-444382Y-22611D01*
X-442915Y-43752D01*
X-440473Y-64802D01*
X-437061Y-85718D01*
X-432687Y-106453D01*
X-427360Y-126964D01*
X-426253Y-130540D01*
X-426111Y-131620D01*
X-425448Y-133220D01*
X-424393Y-134594D01*
X-423139Y-135557D01*
X-423045Y-136118D01*
X-423093Y-136993D01*
X-423463Y-137203D01*
X-424576Y-136982D01*
X-426215Y-135887D01*
X-427310Y-134248D01*
X-427460Y-133495D01*
X-427675Y-132314D01*
X-427752Y-131568D01*
X-427888Y-131126D01*
X-429299Y-126571D01*
X-434523Y-106456D01*
X-438812Y-86123D01*
X-442158Y-65612D01*
X-444553Y-44969D01*
X-445992Y-24238D01*
X-446468Y-3653D01*
X-446430Y-3462D01*
X-446472Y-3250D01*
X-445979Y18097D01*
X-444485Y39609D01*
X-442000Y61029D01*
X-438529Y82312D01*
X-434078Y103412D01*
X-428657Y124283D01*
X-422278Y144882D01*
X-414955Y165165D01*
X-406703Y185087D01*
X-397539Y204607D01*
X-387484Y223684D01*
X-376558Y242275D01*
X-364786Y260342D01*
X-352192Y277846D01*
X-338802Y294750D01*
X-332031Y302532D01*
Y302532D01*
X-332033Y302606D01*
X-240481Y394158D01*
X-180110D01*
X-180110Y394158D01*
X-173217D01*
X-172642Y392888D01*
X-173246Y391984D01*
X-173562Y390398D01*
X-173246Y388812D01*
X-172348Y387468D01*
X-171004Y386570D01*
X-169418Y386254D01*
X-167832Y386570D01*
X-166634Y387370D01*
X-165060D01*
Y385694D01*
X-165060D01*
Y384942D01*
X-165060D01*
Y375694D01*
X-163367D01*
Y371484D01*
X-163189Y370592D01*
X-162684Y369836D01*
X-157214Y364366D01*
X-156458Y363861D01*
X-155566Y363683D01*
X-142196D01*
X-141919Y362291D01*
X-141085Y361043D01*
X-139837Y360209D01*
X-138364Y359916D01*
X-129864D01*
X-128392Y360209D01*
X-127143Y361043D01*
X-126309Y362291D01*
X-126016Y363764D01*
Y368264D01*
X-126309Y369737D01*
X-127143Y370985D01*
X-128392Y371819D01*
X-129864Y372112D01*
X-138364D01*
X-139837Y371819D01*
X-141085Y370985D01*
X-141919Y369737D01*
X-142196Y368345D01*
X-154601D01*
X-158705Y372449D01*
Y375694D01*
X-157012D01*
Y384942D01*
X-157012D01*
Y385694D01*
X-157012D01*
Y394158D01*
X-155251D01*
X-145087Y383995D01*
X-144247Y383433D01*
X-143256Y383236D01*
X-142144D01*
X-141919Y382104D01*
X-141085Y380855D01*
X-139837Y380021D01*
X-138364Y379728D01*
X-129864D01*
X-128392Y380021D01*
X-127143Y380855D01*
X-126309Y382104D01*
X-126016Y383576D01*
Y388076D01*
X-126309Y389548D01*
X-127143Y390797D01*
X-128392Y391631D01*
X-129864Y391924D01*
X-138364D01*
X-139837Y391631D01*
X-141085Y390797D01*
X-141759Y389788D01*
X-142764Y389494D01*
X-143231Y389463D01*
X-152347Y398579D01*
X-153187Y399141D01*
X-154178Y399338D01*
X-157012D01*
Y408310D01*
X-157012D01*
Y409062D01*
X-157012D01*
Y411096D01*
X-152885D01*
X-151183Y409395D01*
X-150343Y408833D01*
X-149352Y408636D01*
X-142144D01*
X-141919Y407504D01*
X-141085Y406255D01*
X-139837Y405421D01*
X-138364Y405128D01*
X-129864D01*
X-128392Y405421D01*
X-127143Y406255D01*
X-126309Y407504D01*
X-126016Y408976D01*
Y413476D01*
X-126309Y414949D01*
X-127143Y416197D01*
X-128392Y417031D01*
X-129864Y417324D01*
X-138364D01*
X-139837Y417031D01*
X-141085Y416197D01*
X-141919Y414949D01*
X-142144Y413816D01*
X-148279D01*
X-149981Y415517D01*
X-150821Y416079D01*
X-151812Y416276D01*
X-157012D01*
Y418310D01*
X-165060D01*
Y409062D01*
X-165060D01*
Y408310D01*
X-165060D01*
Y406540D01*
X-166874D01*
X-167832Y407180D01*
X-169418Y407496D01*
X-171004Y407180D01*
X-172348Y406282D01*
X-173246Y404938D01*
X-173562Y403352D01*
X-173246Y401766D01*
X-172472Y400608D01*
X-172683Y399874D01*
X-173011Y399338D01*
X-180110D01*
X-180110Y399338D01*
X-241554D01*
X-242545Y399141D01*
X-243385Y398579D01*
X-335863Y306101D01*
X-336123Y305712D01*
X-342785Y298057D01*
X-356323Y280965D01*
X-369057Y263267D01*
X-380960Y245000D01*
X-392006Y226202D01*
X-402173Y206915D01*
X-411438Y187178D01*
X-419782Y167035D01*
X-427186Y146527D01*
X-433636Y125700D01*
X-439117Y104597D01*
X-443617Y83263D01*
X-447127Y61744D01*
X-449640Y40086D01*
X-451149Y18336D01*
X-451653Y-3462D01*
X-451648D01*
X-451163Y-24477D01*
X-449707Y-45447D01*
X-447285Y-66327D01*
X-443901Y-87074D01*
X-439562Y-107641D01*
X-434278Y-127987D01*
X-432858Y-132571D01*
X-432543Y-134967D01*
X-431519Y-137439D01*
X-429890Y-139562D01*
X-427767Y-141191D01*
X-425295Y-142215D01*
X-423861Y-142404D01*
X-423859Y-142404D01*
X-423245Y-142527D01*
X-422642Y-142564D01*
X-422642Y-142564D01*
X-422642Y-142564D01*
Y-142527D01*
X-422642Y-142526D01*
X-404238D01*
X-404024Y-142698D01*
X-404124Y-143265D01*
X-404707Y-143968D01*
X-423765D01*
X-423818Y-143979D01*
X-426629Y-143609D01*
X-429297Y-142503D01*
X-431589Y-140745D01*
X-433347Y-138454D01*
X-434452Y-135785D01*
X-434670Y-134133D01*
X-434812Y-132922D01*
X-434890Y-132176D01*
X-435026Y-131735D01*
X-436486Y-127020D01*
X-441885Y-106232D01*
X-446318Y-85217D01*
X-449776Y-64019D01*
X-452251Y-42684D01*
X-453739Y-21258D01*
X-454235Y214D01*
X-453739Y21686D01*
X-452251Y43113D01*
X-449776Y64447D01*
X-446318Y85645D01*
X-441885Y106660D01*
X-436486Y127448D01*
X-430133Y147965D01*
X-422839Y168166D01*
X-414620Y188009D01*
X-405493Y207451D01*
X-395478Y226451D01*
X-384596Y244968D01*
X-372871Y262963D01*
X-360327Y280397D01*
X-346991Y297233D01*
X-340246Y304984D01*
Y304984D01*
X-340249Y305059D01*
X-235655Y409652D01*
X-201619D01*
X-200628Y409849D01*
X-199788Y410411D01*
X-187145Y423054D01*
X-187145Y423054D01*
X-175481Y434718D01*
X-165306D01*
Y432404D01*
X-165306D01*
Y432212D01*
X-165306D01*
Y430416D01*
X-166620D01*
X-167578Y431056D01*
X-169164Y431372D01*
X-170750Y431056D01*
X-172094Y430158D01*
X-172992Y428814D01*
X-173308Y427228D01*
X-172992Y425642D01*
X-172094Y424298D01*
X-170750Y423400D01*
X-169164Y423084D01*
X-167578Y423400D01*
X-166576Y424070D01*
X-165306Y423764D01*
Y423764D01*
X-156258D01*
Y432212D01*
X-156258D01*
Y432404D01*
X-156258D01*
Y434718D01*
X-152631D01*
X-146611Y428699D01*
X-145771Y428137D01*
X-144780Y427940D01*
X-141636D01*
X-141411Y426808D01*
X-140577Y425559D01*
X-139329Y424725D01*
X-137856Y424432D01*
X-129356D01*
X-127884Y424725D01*
X-126635Y425559D01*
X-125801Y426808D01*
X-125508Y428280D01*
Y432780D01*
X-125801Y434253D01*
X-126635Y435501D01*
X-127884Y436335D01*
X-129356Y436628D01*
X-137856D01*
X-139329Y436335D01*
X-140577Y435501D01*
X-141411Y434253D01*
X-141636Y433120D01*
X-143707D01*
X-149727Y439139D01*
X-150567Y439701D01*
X-151558Y439898D01*
X-156258D01*
Y440852D01*
D02*
G37*
G36*
X-255932Y347633D02*
X-264522Y339043D01*
X-253739Y328261D01*
X-251898Y330103D01*
X-244336Y322541D01*
Y304567D01*
X-245798Y304374D01*
X-248541Y303238D01*
X-250896Y301431D01*
X-252703Y299076D01*
X-253839Y296334D01*
X-254226Y293390D01*
X-253839Y290447D01*
X-252703Y287705D01*
X-250896Y285350D01*
X-248421Y282875D01*
X-246066Y281068D01*
X-243323Y279932D01*
X-240380Y279544D01*
X-237437Y279932D01*
X-234695Y281068D01*
X-232340Y282875D01*
X-230532Y285230D01*
X-229396Y287973D01*
X-229009Y290916D01*
X-229396Y293859D01*
X-230532Y296601D01*
X-232340Y298956D01*
X-234814Y301431D01*
X-237170Y303238D01*
X-237344Y303310D01*
Y323989D01*
X-237344Y323989D01*
X-237610Y325327D01*
X-238368Y326461D01*
X-246953Y335047D01*
X-245150Y336851D01*
X-255932Y347633D01*
D02*
G37*
G36*
X-262645Y270142D02*
X-281064Y251723D01*
X-271838Y242497D01*
X-253419Y260916D01*
X-262645Y270142D01*
D02*
G37*
G36*
X-311153Y185714D02*
X-329572Y167295D01*
X-328346Y166069D01*
X-331606Y162810D01*
X-333052D01*
X-336073Y165831D01*
X-336387Y165517D01*
X-339580Y168710D01*
X-346764Y161526D01*
X-343571Y158333D01*
X-343885Y158019D01*
X-343367Y157500D01*
X-347731Y153136D01*
X-348636Y152956D01*
X-350485Y151721D01*
X-351720Y149872D01*
X-352154Y147692D01*
X-351720Y145512D01*
X-350485Y143663D01*
X-348636Y142428D01*
X-346456Y141994D01*
X-344276Y142428D01*
X-342427Y143663D01*
X-341192Y145512D01*
X-341040Y146276D01*
X-336591Y150725D01*
X-336073Y150207D01*
X-333052Y153228D01*
X-329621D01*
X-327788Y153592D01*
X-326234Y154631D01*
X-321571Y159294D01*
X-320345Y158069D01*
X-301926Y176487D01*
X-311153Y185714D01*
D02*
G37*
G36*
X-323850Y129412D02*
X-350683D01*
X-351850Y128928D01*
X-373022Y107756D01*
X-373506Y106589D01*
Y82009D01*
X-383486D01*
Y81901D01*
X-384756Y80858D01*
X-385064Y80920D01*
X-391344D01*
Y82947D01*
X-402392D01*
Y82503D01*
X-406908D01*
Y72343D01*
X-402392Y72343D01*
Y71899D01*
X-401659D01*
Y10933D01*
X-401294Y9100D01*
X-400256Y7546D01*
X-392816Y106D01*
X-391262Y-932D01*
X-389428Y-1297D01*
X-332040D01*
X-330207Y-932D01*
X-328652Y106D01*
X-295704Y33055D01*
X-268008D01*
X-254629Y26956D01*
X-254217Y26859D01*
X-252773Y25750D01*
X-249361Y24337D01*
X-245700Y23855D01*
X-242039Y24337D01*
X-238627Y25750D01*
X-235698Y27998D01*
X-233450Y30928D01*
X-232037Y34339D01*
X-231555Y38000D01*
X-232037Y41661D01*
X-233450Y45072D01*
X-235698Y48002D01*
X-238627Y50250D01*
X-242039Y51663D01*
X-245700Y52145D01*
X-249361Y51663D01*
X-252773Y50250D01*
X-255544Y48123D01*
X-268412Y42637D01*
X-297688D01*
X-299521Y42272D01*
X-301076Y41234D01*
X-334025Y8285D01*
X-387444D01*
X-392077Y12918D01*
Y71899D01*
X-391344D01*
Y73927D01*
X-385064D01*
X-384756Y73988D01*
X-383486Y72946D01*
Y72361D01*
X-380505D01*
X-380019Y71188D01*
X-382243Y68964D01*
X-382805Y68124D01*
X-382967Y67309D01*
X-383486D01*
Y57661D01*
X-382962D01*
Y50491D01*
X-384357D01*
Y42443D01*
X-384143D01*
Y40491D01*
X-384357D01*
Y32443D01*
X-383829D01*
Y31039D01*
X-384161Y30542D01*
X-384476Y28956D01*
X-384161Y27370D01*
X-383263Y26026D01*
X-381918Y25128D01*
X-380333Y24812D01*
X-378747Y25128D01*
X-377403Y26026D01*
X-376505Y27370D01*
X-376189Y28956D01*
X-376505Y30542D01*
X-376837Y31039D01*
Y32443D01*
X-376309D01*
Y40491D01*
X-376523D01*
Y42443D01*
X-376309D01*
Y50491D01*
X-377783D01*
Y54242D01*
X-376513Y54768D01*
X-375973Y54229D01*
X-375133Y53667D01*
X-374142Y53470D01*
X-360659D01*
X-359668Y53667D01*
X-358828Y54229D01*
X-355373Y57683D01*
X-350988D01*
Y57897D01*
X-349036D01*
Y57683D01*
X-347861D01*
Y53522D01*
X-350456D01*
Y41474D01*
X-339408D01*
Y53522D01*
X-342163D01*
Y57683D01*
X-340988D01*
Y65731D01*
X-342163D01*
Y70637D01*
X-340988D01*
Y78685D01*
X-349036D01*
X-349632Y79708D01*
Y80550D01*
X-348846Y81337D01*
X-348362Y82503D01*
Y84567D01*
X-344932D01*
Y94727D01*
X-346020D01*
X-346506Y95900D01*
X-345026Y97380D01*
X-325842D01*
X-324676Y97863D01*
X-320089Y102450D01*
X-319606Y103616D01*
Y125168D01*
X-320089Y126334D01*
X-322684Y128928D01*
X-323850Y129412D01*
D02*
G37*
G36*
X282137Y68595D02*
X279586Y68260D01*
X277208Y67275D01*
X275166Y65708D01*
X273600Y63666D01*
X272615Y61289D01*
X272279Y58737D01*
X272615Y56186D01*
X273600Y53808D01*
X275166Y51766D01*
X277208Y50200D01*
X279586Y49215D01*
X282137Y48879D01*
X284689Y49215D01*
X287066Y50200D01*
X289108Y51766D01*
X290675Y53808D01*
X291660Y56186D01*
X291996Y58737D01*
X291660Y61289D01*
X290675Y63666D01*
X289108Y65708D01*
X287066Y67275D01*
X284689Y68260D01*
X282137Y68595D01*
D02*
G37*
G36*
X325488Y59516D02*
X323902Y59200D01*
X322557Y58302D01*
X321659Y56958D01*
X321344Y55372D01*
X321659Y53786D01*
X322557Y52442D01*
X323902Y51544D01*
X325488Y51228D01*
X325889Y51308D01*
X328995Y48202D01*
X326737Y45943D01*
X334549Y38131D01*
X334863Y38445D01*
X338056Y35252D01*
X345240Y42436D01*
X342047Y45629D01*
X342361Y45943D01*
X334549Y53755D01*
X332658Y51864D01*
X329551Y54971D01*
X329631Y55372D01*
X329316Y56958D01*
X328418Y58302D01*
X327073Y59200D01*
X325488Y59516D01*
D02*
G37*
G36*
X446160Y41479D02*
X444574Y41164D01*
X443230Y40265D01*
X442331Y38921D01*
X442016Y37335D01*
X442331Y35750D01*
X442663Y35253D01*
Y31513D01*
X442136D01*
Y22266D01*
X442136D01*
Y21513D01*
X442136D01*
Y17389D01*
X432412D01*
Y18823D01*
X416564D01*
Y15723D01*
X416380Y14799D01*
Y8337D01*
X414793D01*
X413627Y7854D01*
X412872Y7099D01*
X412394D01*
Y6621D01*
X410251Y4478D01*
X409379Y4840D01*
Y4840D01*
X401759D01*
Y4840D01*
X400904Y4486D01*
X397062Y8328D01*
X395895Y8811D01*
X395408D01*
Y15103D01*
X380168D01*
Y8161D01*
X379824Y7817D01*
X379764D01*
Y7757D01*
X378539Y6532D01*
X378056Y5366D01*
Y-19420D01*
X378539Y-20586D01*
X386801Y-28848D01*
X387968Y-29331D01*
X418501D01*
X419667Y-28848D01*
X425353Y-23162D01*
X425836Y-21996D01*
Y-17690D01*
X425890Y1529D01*
X427064Y2013D01*
X431504Y-2428D01*
Y-20782D01*
X431987Y-21949D01*
X434756Y-24717D01*
X435922Y-25200D01*
X443825D01*
X444991Y-24717D01*
X449481Y-20227D01*
X449964Y-19061D01*
Y5725D01*
X449481Y6891D01*
X445377Y10995D01*
X445903Y12265D01*
X450184D01*
Y21513D01*
X450184D01*
Y22266D01*
X450184D01*
Y31513D01*
X449656D01*
Y35253D01*
X449988Y35750D01*
X450303Y37335D01*
X449988Y38921D01*
X449090Y40265D01*
X447745Y41164D01*
X446160Y41479D01*
D02*
G37*
G36*
X311499Y45546D02*
X309913Y45230D01*
X308569Y44332D01*
X307670Y42988D01*
X307355Y41402D01*
X307670Y39816D01*
X308569Y38472D01*
X309913Y37574D01*
X311499Y37258D01*
X311900Y37338D01*
X316458Y32781D01*
X312615Y28938D01*
X321134Y20419D01*
X321420Y20705D01*
X326572Y15553D01*
X337348Y26329D01*
X332196Y31481D01*
X332482Y31767D01*
X323963Y40286D01*
X320120Y36443D01*
X315562Y41001D01*
X315642Y41402D01*
X315327Y42988D01*
X314429Y44332D01*
X313084Y45230D01*
X311499Y45546D01*
D02*
G37*
G36*
X-348908Y33522D02*
X-359956D01*
Y21474D01*
X-358701D01*
X-358022Y20204D01*
X-358412Y19620D01*
X-358728Y18034D01*
X-358412Y16448D01*
X-357514Y15104D01*
X-356170Y14206D01*
X-354584Y13890D01*
X-352998Y14206D01*
X-351654Y15104D01*
X-350756Y16448D01*
X-350440Y18034D01*
X-350756Y19620D01*
X-351146Y20204D01*
X-350467Y21474D01*
X-348908D01*
Y33522D01*
D02*
G37*
G36*
X295402Y29544D02*
X293816Y29228D01*
X292472Y28330D01*
X291574Y26986D01*
X291258Y25400D01*
X291574Y23814D01*
X292472Y22470D01*
X293816Y21572D01*
X295402Y21256D01*
X295803Y21336D01*
X301760Y15379D01*
X299559Y13177D01*
X307371Y5365D01*
X307685Y5679D01*
X310479Y2885D01*
X310165Y2571D01*
X312738Y-2D01*
X307310Y-5430D01*
X304423Y-2543D01*
X304816Y-2150D01*
X300326Y2340D01*
X299933Y1947D01*
X290752Y11128D01*
X289750Y10127D01*
X288307Y11570D01*
X288054Y12842D01*
X287156Y14186D01*
X285812Y15084D01*
X284226Y15400D01*
X282640Y15084D01*
X281296Y14186D01*
X280398Y12842D01*
X280082Y11256D01*
X280398Y9670D01*
X281296Y8326D01*
X282640Y7428D01*
X283912Y7175D01*
X285355Y5732D01*
X284354Y4730D01*
X293535Y-4451D01*
X293142Y-4844D01*
X297632Y-9334D01*
X298025Y-8941D01*
X306308Y-17224D01*
X312706Y-10826D01*
X311705Y-9825D01*
X317133Y-4397D01*
X317977Y-5241D01*
X325789Y2571D01*
X317977Y10383D01*
X317663Y10069D01*
X314869Y12863D01*
X315183Y13177D01*
X307371Y20989D01*
X305423Y19042D01*
X299466Y24999D01*
X299546Y25400D01*
X299230Y26986D01*
X298332Y28330D01*
X296988Y29228D01*
X295402Y29544D01*
D02*
G37*
G36*
X-258287Y-3006D02*
X-274035D01*
Y-26882D01*
X-258287D01*
Y-18027D01*
X-234112D01*
X-234112Y-18027D01*
X-232932Y-17793D01*
X-231932Y-17125D01*
X-225891Y-11083D01*
X-202827D01*
X-200543Y-13367D01*
X-200522Y-13693D01*
X-200891Y-14815D01*
X-203873Y-16050D01*
X-206802Y-18298D01*
X-209050Y-21228D01*
X-210463Y-24639D01*
X-210945Y-28300D01*
X-210463Y-31961D01*
X-209050Y-35373D01*
X-206923Y-38144D01*
X-199659Y-55183D01*
X-199390Y-55577D01*
Y-70037D01*
X-227279Y-97925D01*
X-229354Y-95851D01*
X-237166Y-103663D01*
X-236852Y-103977D01*
X-239646Y-106771D01*
X-239960Y-106457D01*
X-247772Y-114269D01*
X-239960Y-122081D01*
X-237885Y-120007D01*
X-233652Y-124240D01*
X-235619Y-126207D01*
X-227807Y-134019D01*
X-225732Y-131945D01*
X-221099Y-136579D01*
X-223173Y-138653D01*
X-221099Y-140728D01*
X-295201Y-214831D01*
X-295763Y-215671D01*
X-295960Y-216662D01*
Y-295345D01*
X-299105Y-298490D01*
X-299805Y-298200D01*
X-301508Y-297976D01*
X-303211Y-298200D01*
X-304798Y-298857D01*
X-306161Y-299903D01*
X-309697Y-303439D01*
X-310742Y-304802D01*
X-311400Y-306389D01*
X-311624Y-308092D01*
X-311400Y-309795D01*
X-310742Y-311382D01*
X-309697Y-312745D01*
X-308334Y-313790D01*
X-306747Y-314448D01*
X-305044Y-314672D01*
X-303417Y-314458D01*
X-302861Y-314871D01*
X-302843Y-314890D01*
X-302430Y-315445D01*
X-302644Y-317072D01*
X-302425Y-318731D01*
X-303810Y-319006D01*
X-305154Y-319904D01*
X-306052Y-321248D01*
X-306251Y-322250D01*
X-307589Y-322709D01*
X-312959Y-317339D01*
X-315125Y-319505D01*
X-319632Y-314998D01*
X-317562Y-312928D01*
X-325374Y-305116D01*
X-333186Y-312928D01*
X-332872Y-313242D01*
X-335667Y-316036D01*
X-335981Y-315723D01*
X-337689Y-317431D01*
X-341062Y-314058D01*
Y-311675D01*
X-299046Y-269660D01*
X-298373Y-268651D01*
X-298136Y-267462D01*
Y-212157D01*
X-254851Y-168871D01*
X-254177Y-167863D01*
X-253940Y-166674D01*
Y-113301D01*
X-219142Y-78503D01*
X-217870Y-78250D01*
X-216526Y-77352D01*
X-215628Y-76008D01*
X-215312Y-74422D01*
X-215628Y-72836D01*
X-216526Y-71492D01*
X-217870Y-70594D01*
X-219456Y-70278D01*
X-221042Y-70594D01*
X-222386Y-71492D01*
X-223284Y-72836D01*
X-223537Y-74108D01*
X-224758Y-75329D01*
X-225762Y-74537D01*
X-225590Y-74256D01*
X-223932Y-70254D01*
X-222921Y-66041D01*
X-222581Y-61722D01*
X-222921Y-57403D01*
X-223932Y-53190D01*
X-225590Y-49188D01*
X-227854Y-45494D01*
X-230667Y-42199D01*
X-233962Y-39386D01*
X-237656Y-37122D01*
X-241658Y-35464D01*
X-245871Y-34453D01*
X-250190Y-34113D01*
X-254509Y-34453D01*
X-258722Y-35464D01*
X-262724Y-37122D01*
X-266418Y-39386D01*
X-269713Y-42199D01*
X-272526Y-45494D01*
X-274790Y-49188D01*
X-276448Y-53190D01*
X-277459Y-57403D01*
X-277799Y-61722D01*
X-277459Y-66041D01*
X-276448Y-70254D01*
X-274790Y-74256D01*
X-272526Y-77950D01*
X-269713Y-81245D01*
X-266418Y-84058D01*
X-262724Y-86322D01*
X-258722Y-87980D01*
X-254509Y-88991D01*
X-250190Y-89331D01*
X-245871Y-88991D01*
X-241658Y-87980D01*
X-237656Y-86322D01*
X-237375Y-86150D01*
X-236583Y-87154D01*
X-259245Y-109817D01*
X-259919Y-110825D01*
X-260156Y-112014D01*
Y-165386D01*
X-303442Y-208672D01*
X-304115Y-209680D01*
X-304352Y-210870D01*
Y-266175D01*
X-346367Y-308190D01*
X-347041Y-309199D01*
X-347278Y-310388D01*
Y-315345D01*
X-347041Y-316535D01*
X-346367Y-317543D01*
X-342084Y-321826D01*
X-343793Y-323535D01*
X-335981Y-331347D01*
X-328168Y-323535D01*
X-328483Y-323221D01*
X-325688Y-320426D01*
X-325374Y-320740D01*
X-323111Y-318477D01*
X-318604Y-322984D01*
X-320771Y-325151D01*
X-320457Y-325465D01*
X-323650Y-328658D01*
X-316466Y-335842D01*
X-313273Y-332649D01*
X-312959Y-332963D01*
X-310792Y-330796D01*
X-306158Y-335430D01*
X-308325Y-337597D01*
X-308011Y-337911D01*
X-311204Y-341104D01*
X-304020Y-348288D01*
X-300827Y-345095D01*
X-300513Y-345409D01*
X-295161Y-340057D01*
X-290040D01*
X-288823Y-341274D01*
X-288067Y-342231D01*
X-295879Y-350043D01*
X-295565Y-350357D01*
X-298359Y-353151D01*
X-298673Y-352837D01*
X-300828Y-354992D01*
X-301002Y-355027D01*
X-302977Y-356346D01*
X-303050Y-356455D01*
X-308577Y-361983D01*
X-309897Y-363957D01*
X-310360Y-366286D01*
X-309897Y-368615D01*
X-308577Y-370589D01*
X-306603Y-371909D01*
X-304274Y-372372D01*
X-301945Y-371909D01*
X-299970Y-370589D01*
X-294370Y-364989D01*
X-294370Y-364989D01*
X-293051Y-363014D01*
X-293007Y-362795D01*
X-290861Y-360649D01*
X-291175Y-360335D01*
X-288381Y-357541D01*
X-288067Y-357855D01*
X-285682Y-355470D01*
X-281175Y-359977D01*
X-283687Y-362489D01*
X-283373Y-362803D01*
X-286566Y-365996D01*
X-279382Y-373180D01*
X-276189Y-369987D01*
X-275875Y-370301D01*
X-273363Y-367789D01*
X-268729Y-372423D01*
X-270987Y-374681D01*
X-270673Y-374995D01*
X-273866Y-378188D01*
X-266682Y-385372D01*
X-263489Y-382179D01*
X-263175Y-382493D01*
X-255363Y-374681D01*
X-257621Y-372423D01*
X-253333Y-368135D01*
X-252865Y-368329D01*
X-251162Y-368554D01*
X-249535Y-368339D01*
X-248980Y-368753D01*
X-248962Y-368771D01*
X-248548Y-369327D01*
X-248762Y-370954D01*
X-248538Y-372657D01*
X-247881Y-374244D01*
X-246835Y-375606D01*
X-245472Y-376652D01*
X-243885Y-377310D01*
X-242182Y-377534D01*
X-240555Y-377320D01*
X-240000Y-377733D01*
X-239981Y-377752D01*
X-239568Y-378307D01*
X-239782Y-379934D01*
X-239558Y-381637D01*
X-238900Y-383224D01*
X-237855Y-384587D01*
X-236492Y-385633D01*
X-234905Y-386290D01*
X-233202Y-386514D01*
X-231499Y-386290D01*
X-229912Y-385633D01*
X-228549Y-384587D01*
X-225138Y-381176D01*
X-224616Y-381427D01*
X-224211Y-381752D01*
X-224079Y-381867D01*
X-224362Y-383286D01*
X-224046Y-384872D01*
X-223148Y-386216D01*
X-221804Y-387114D01*
X-220218Y-387430D01*
X-218632Y-387114D01*
X-217288Y-386216D01*
X-215977Y-386540D01*
X-215923Y-386810D01*
X-215390Y-387608D01*
X-212518Y-390480D01*
Y-394520D01*
X-212988Y-394834D01*
X-213886Y-396178D01*
X-214202Y-397764D01*
X-213886Y-399350D01*
X-212988Y-400694D01*
X-211644Y-401592D01*
X-210058Y-401908D01*
X-208472Y-401592D01*
X-207128Y-400694D01*
X-206230Y-399350D01*
X-205914Y-397764D01*
X-206230Y-396178D01*
X-207128Y-394834D01*
X-207598Y-394520D01*
Y-389461D01*
X-207785Y-388519D01*
X-208202Y-387896D01*
X-207215Y-387086D01*
X-201850Y-392451D01*
Y-407220D01*
X-202320Y-407534D01*
X-203218Y-408878D01*
X-203534Y-410464D01*
X-203218Y-412050D01*
X-202320Y-413394D01*
X-200976Y-414292D01*
X-199390Y-414608D01*
X-197804Y-414292D01*
X-196460Y-413394D01*
X-195562Y-412050D01*
X-195246Y-410464D01*
X-195562Y-408878D01*
X-196460Y-407534D01*
X-196930Y-407220D01*
Y-391432D01*
X-197117Y-390490D01*
X-197650Y-389692D01*
X-207090Y-380253D01*
Y-374234D01*
X-205820Y-373555D01*
X-205294Y-373906D01*
X-204731Y-374018D01*
X-203716Y-374646D01*
X-203731Y-375413D01*
X-203861Y-376398D01*
X-203637Y-378101D01*
X-202979Y-379688D01*
X-201934Y-381051D01*
X-198398Y-384587D01*
X-197035Y-385633D01*
X-195448Y-386290D01*
X-193745Y-386514D01*
X-192042Y-386290D01*
X-190455Y-385633D01*
X-189092Y-384587D01*
X-188046Y-383224D01*
X-187389Y-381637D01*
X-187165Y-379934D01*
X-187379Y-378307D01*
X-186966Y-377752D01*
X-186947Y-377733D01*
X-186392Y-377320D01*
X-184765Y-377534D01*
X-183062Y-377310D01*
X-181475Y-376652D01*
X-180112Y-375606D01*
X-179066Y-374244D01*
X-178409Y-372657D01*
X-178185Y-370954D01*
X-178399Y-369327D01*
X-177985Y-368771D01*
X-177967Y-368753D01*
X-177411Y-368339D01*
X-175785Y-368554D01*
X-174289Y-368357D01*
X-173827Y-368553D01*
X-173019Y-369264D01*
Y-377805D01*
X-178432Y-383218D01*
X-178937Y-383975D01*
X-179115Y-384867D01*
Y-427454D01*
X-179714Y-427854D01*
X-180612Y-429198D01*
X-180928Y-430784D01*
X-180612Y-432370D01*
X-179714Y-433714D01*
X-178370Y-434612D01*
X-176784Y-434928D01*
X-175198Y-434612D01*
X-173854Y-433714D01*
X-172956Y-432370D01*
X-172640Y-430784D01*
X-172956Y-429198D01*
X-173854Y-427854D01*
X-174453Y-427454D01*
Y-424660D01*
X-173183Y-424094D01*
X-172267Y-424706D01*
X-170681Y-425022D01*
X-169096Y-424706D01*
X-167752Y-423808D01*
X-167338Y-423189D01*
X-166068Y-423574D01*
Y-425066D01*
X-157020D01*
Y-415818D01*
X-159213D01*
Y-414223D01*
X-158372Y-413382D01*
X-157867Y-412626D01*
X-157689Y-411734D01*
Y-408738D01*
X-155996D01*
Y-400008D01*
X-155996Y-399490D01*
X-155996D01*
Y-398738D01*
X-155996D01*
Y-389490D01*
X-157689D01*
Y-386147D01*
X-150485Y-378943D01*
X-149314Y-379568D01*
X-149397Y-379984D01*
Y-389410D01*
X-151090D01*
Y-398140D01*
X-151090Y-398658D01*
X-151090D01*
Y-399410D01*
X-151090D01*
Y-408658D01*
X-149397D01*
Y-411988D01*
X-149219Y-412880D01*
X-148714Y-413636D01*
X-147873Y-414477D01*
Y-415818D01*
X-150066D01*
Y-425066D01*
X-141018D01*
Y-415818D01*
X-143211D01*
Y-413512D01*
X-143389Y-412620D01*
X-143894Y-411864D01*
X-144735Y-411023D01*
Y-408658D01*
X-143042D01*
Y-399928D01*
X-143042Y-399410D01*
X-143042D01*
Y-398658D01*
X-143042D01*
Y-389410D01*
X-144735D01*
Y-380949D01*
X-141354Y-377568D01*
X-140849Y-376812D01*
X-140671Y-375920D01*
Y-340874D01*
X-140849Y-339982D01*
X-141354Y-339226D01*
X-142885Y-337695D01*
X-142488Y-336736D01*
X-142264Y-335033D01*
X-142478Y-333406D01*
X-142064Y-332850D01*
X-142046Y-332832D01*
X-141490Y-332418D01*
X-139864Y-332633D01*
X-138475Y-332450D01*
X-137205Y-333211D01*
Y-336940D01*
X-137027Y-337832D01*
X-136522Y-338588D01*
X-133582Y-341529D01*
X-134207Y-342699D01*
X-134874Y-342566D01*
X-136460Y-342882D01*
X-137804Y-343780D01*
X-138702Y-345124D01*
X-139018Y-346710D01*
X-138702Y-348296D01*
X-137804Y-349640D01*
X-137205Y-350040D01*
Y-448310D01*
X-137027Y-449202D01*
X-136522Y-449958D01*
X-132712Y-453768D01*
X-131956Y-454273D01*
X-131064Y-454451D01*
X-130936D01*
Y-461644D01*
X-111888D01*
Y-454451D01*
X-110439D01*
X-88262Y-476628D01*
X-87506Y-477133D01*
X-86614Y-477311D01*
X82550D01*
X83442Y-477133D01*
X84198Y-476628D01*
X87833Y-472993D01*
X107188D01*
X108080Y-472815D01*
X108836Y-472310D01*
X121282Y-459864D01*
X121787Y-459108D01*
X121965Y-458216D01*
Y-402112D01*
X122512Y-401782D01*
X123235Y-401577D01*
X124398Y-402354D01*
X125984Y-402670D01*
X127570Y-402354D01*
X128914Y-401456D01*
X129812Y-400112D01*
X130128Y-398526D01*
X129812Y-396940D01*
X128914Y-395596D01*
X128315Y-395196D01*
Y-355304D01*
X178977Y-304642D01*
X180247Y-304642D01*
X181234Y-305629D01*
X181765Y-306160D01*
X188305Y-312700D01*
X189319Y-311686D01*
X193304Y-315671D01*
X191936Y-317038D01*
X198476Y-323578D01*
X204874Y-317180D01*
X198334Y-310641D01*
X196966Y-312008D01*
X192981Y-308023D01*
X193995Y-307009D01*
X186924Y-299938D01*
X180385Y-293398D01*
X179188Y-294596D01*
X173026Y-288434D01*
Y-274918D01*
X226979Y-220965D01*
X232232D01*
X234194Y-222927D01*
X232868Y-224253D01*
X231970Y-225151D01*
X231745Y-225376D01*
X225572Y-231549D01*
X238334Y-244311D01*
X244507Y-238138D01*
X245068Y-237577D01*
X245630Y-237015D01*
X251803Y-230842D01*
X239041Y-218080D01*
X237490Y-219631D01*
X234846Y-216987D01*
X234089Y-216481D01*
X233197Y-216304D01*
X226013D01*
X225121Y-216481D01*
X224365Y-216987D01*
X215139Y-226213D01*
X214876Y-226173D01*
X213779Y-225178D01*
Y-201358D01*
X216972D01*
Y-200914D01*
X220924D01*
Y-201358D01*
X231972D01*
Y-198165D01*
X273070D01*
X273596Y-199435D01*
X269589Y-203442D01*
X275762Y-209615D01*
X276324Y-210176D01*
X276885Y-210738D01*
X282833Y-216686D01*
X283731Y-217584D01*
X283956Y-217809D01*
X289904Y-223757D01*
X290129Y-223982D01*
X291027Y-224880D01*
X297200Y-231053D01*
X309962Y-218291D01*
X308503Y-216832D01*
X310436Y-214899D01*
X310969Y-214101D01*
X311156Y-213159D01*
Y-205146D01*
X310969Y-204204D01*
X310436Y-203406D01*
X273946Y-166916D01*
X273148Y-166383D01*
X272206Y-166196D01*
X155898D01*
X155584Y-165726D01*
X154240Y-164828D01*
X152654Y-164512D01*
X151068Y-164828D01*
X149724Y-165726D01*
X148826Y-167070D01*
X148510Y-168656D01*
X148826Y-170242D01*
X149603Y-171405D01*
X149398Y-172128D01*
X149068Y-172675D01*
X131346D01*
X130946Y-172076D01*
X129602Y-171178D01*
X128016Y-170862D01*
X126430Y-171178D01*
X125086Y-172076D01*
X124188Y-173420D01*
X123872Y-175006D01*
X124188Y-176592D01*
X125086Y-177936D01*
X126430Y-178834D01*
X128016Y-179150D01*
X129602Y-178834D01*
X130946Y-177936D01*
X131346Y-177337D01*
X192329D01*
X195710Y-180718D01*
X196466Y-181223D01*
X197358Y-181401D01*
X205924D01*
Y-184594D01*
X216972D01*
Y-184150D01*
X220924D01*
Y-184594D01*
X231972D01*
Y-181401D01*
X277165D01*
X292309Y-196545D01*
Y-197966D01*
X290973Y-199302D01*
X289647Y-197976D01*
X288749Y-197078D01*
X288524Y-196853D01*
X282351Y-190680D01*
X277618Y-195413D01*
X276392Y-194186D01*
X275635Y-193681D01*
X274743Y-193503D01*
X231972D01*
Y-190310D01*
X220924D01*
Y-190754D01*
X216972D01*
Y-190310D01*
X205924D01*
Y-201358D01*
X209117D01*
Y-224213D01*
X117986Y-315344D01*
X117481Y-316100D01*
X117303Y-316992D01*
Y-457251D01*
X106223Y-468331D01*
X86868D01*
X85976Y-468509D01*
X85220Y-469014D01*
X81585Y-472649D01*
X-85649D01*
X-107826Y-450472D01*
X-108582Y-449967D01*
X-109474Y-449789D01*
X-111888D01*
Y-442596D01*
X-130936D01*
Y-446164D01*
X-132206Y-446822D01*
X-132543Y-446584D01*
Y-350040D01*
X-131944Y-349640D01*
X-131046Y-348296D01*
X-130730Y-346710D01*
X-130863Y-346043D01*
X-129693Y-345418D01*
X-115307Y-359803D01*
Y-381308D01*
X-115129Y-382200D01*
X-114624Y-382956D01*
X-111066Y-386515D01*
X-110309Y-387020D01*
X-109417Y-387197D01*
X-102762D01*
Y-388891D01*
X-93514D01*
Y-388891D01*
X-92762D01*
Y-388891D01*
X-83514D01*
Y-387197D01*
X-74818D01*
Y-389391D01*
X-66770D01*
Y-380343D01*
X-74818D01*
Y-382536D01*
X-83514D01*
Y-380843D01*
X-92762D01*
Y-380843D01*
X-93514D01*
Y-380843D01*
X-102762D01*
Y-382536D01*
X-108452D01*
X-110645Y-380343D01*
Y-358838D01*
X-110823Y-357946D01*
X-111328Y-357190D01*
X-132543Y-335975D01*
Y-331042D01*
X-132721Y-330150D01*
X-133226Y-329394D01*
X-133905Y-328715D01*
X-133507Y-327755D01*
X-133283Y-326052D01*
X-133497Y-324425D01*
X-133084Y-323870D01*
X-133066Y-323852D01*
X-132510Y-323438D01*
X-130883Y-323652D01*
X-130108Y-323550D01*
X-128844Y-324580D01*
X-128838Y-324601D01*
Y-330276D01*
X-128601Y-331466D01*
X-127928Y-332474D01*
X-125556Y-334845D01*
X-127618Y-336907D01*
X-114149Y-350376D01*
X-112087Y-348314D01*
X-109462Y-350939D01*
X-108454Y-351613D01*
X-107264Y-351850D01*
X-106735D01*
X-105773Y-352811D01*
X-109196Y-356235D01*
X-96646Y-368784D01*
X-85405Y-357543D01*
X-97955Y-344993D01*
X-101378Y-348416D01*
X-103250Y-346544D01*
X-104258Y-345871D01*
X-105447Y-345634D01*
X-105977D01*
X-107692Y-343919D01*
X-105630Y-341857D01*
X-119099Y-328388D01*
X-121161Y-330450D01*
X-122622Y-328989D01*
Y-322225D01*
X-122859Y-321036D01*
X-123532Y-320028D01*
X-124603Y-318958D01*
X-124527Y-318775D01*
X-124303Y-317072D01*
X-124527Y-315369D01*
X-125185Y-313782D01*
X-126230Y-312419D01*
X-129766Y-308883D01*
X-131129Y-307838D01*
X-132716Y-307180D01*
X-134419Y-306956D01*
X-136122Y-307180D01*
X-137709Y-307838D01*
X-139072Y-308883D01*
X-140118Y-310246D01*
X-140775Y-311833D01*
X-140999Y-313536D01*
X-140785Y-315163D01*
X-141198Y-315719D01*
X-141217Y-315737D01*
X-141772Y-316151D01*
X-143399Y-315937D01*
X-145102Y-316161D01*
X-146689Y-316818D01*
X-148052Y-317864D01*
X-149098Y-319227D01*
X-149755Y-320814D01*
X-149979Y-322517D01*
X-149765Y-324144D01*
X-150179Y-324699D01*
X-150197Y-324717D01*
X-150752Y-325131D01*
X-152379Y-324917D01*
X-154082Y-325141D01*
X-155669Y-325798D01*
X-157032Y-326844D01*
X-158078Y-328207D01*
X-158735Y-329794D01*
X-158960Y-331497D01*
X-158745Y-333124D01*
X-159159Y-333679D01*
X-159177Y-333698D01*
X-159733Y-334111D01*
X-161360Y-333897D01*
X-163063Y-334121D01*
X-164650Y-334779D01*
X-166013Y-335824D01*
X-167058Y-337187D01*
X-167716Y-338774D01*
X-167940Y-340477D01*
X-167726Y-342104D01*
X-168139Y-342659D01*
X-168158Y-342678D01*
X-168713Y-343091D01*
X-170340Y-342877D01*
X-171681Y-343054D01*
X-172289Y-342849D01*
X-172999Y-342123D01*
X-173210Y-341060D01*
X-174108Y-339716D01*
X-175452Y-338818D01*
X-177038Y-338502D01*
X-178624Y-338818D01*
X-179968Y-339716D01*
X-180866Y-341060D01*
X-181182Y-342646D01*
X-180866Y-344232D01*
X-179968Y-345576D01*
X-178624Y-346474D01*
X-177623Y-346673D01*
X-176840Y-347586D01*
X-176731Y-348023D01*
X-176920Y-349458D01*
X-176706Y-351084D01*
X-177120Y-351640D01*
X-177138Y-351658D01*
X-177693Y-352072D01*
X-179320Y-351857D01*
X-181023Y-352082D01*
X-181954Y-352467D01*
X-183449Y-350973D01*
X-183308Y-350266D01*
X-183624Y-348680D01*
X-184522Y-347336D01*
X-185866Y-346438D01*
X-187452Y-346122D01*
X-189038Y-346438D01*
X-190382Y-347336D01*
X-191280Y-348680D01*
X-191596Y-350266D01*
X-191280Y-351852D01*
X-190382Y-353196D01*
X-189038Y-354094D01*
X-187452Y-354410D01*
X-186745Y-354269D01*
X-185267Y-355747D01*
X-185676Y-356735D01*
X-185900Y-358438D01*
X-185686Y-360065D01*
X-186100Y-360620D01*
X-186118Y-360639D01*
X-186674Y-361052D01*
X-188300Y-360838D01*
X-190004Y-361062D01*
X-190963Y-361459D01*
X-193108Y-359314D01*
X-192967Y-358607D01*
X-193283Y-357022D01*
X-194181Y-355677D01*
X-195525Y-354779D01*
X-197111Y-354464D01*
X-198697Y-354779D01*
X-200041Y-355677D01*
X-200939Y-357022D01*
X-201255Y-358607D01*
X-200939Y-360193D01*
X-200041Y-361537D01*
X-198697Y-362435D01*
X-197111Y-362751D01*
X-196404Y-362610D01*
X-194259Y-364756D01*
X-194657Y-365715D01*
X-194881Y-367418D01*
X-194667Y-369045D01*
X-195080Y-369600D01*
X-195098Y-369619D01*
X-195654Y-370032D01*
X-197281Y-369818D01*
X-198391Y-369964D01*
X-198998Y-370023D01*
X-199779Y-368997D01*
X-199880Y-368492D01*
X-200778Y-367148D01*
X-202122Y-366250D01*
X-203708Y-365934D01*
X-205294Y-366250D01*
X-205820Y-366601D01*
X-207090Y-365922D01*
Y-362163D01*
X-207277Y-361222D01*
X-207810Y-360424D01*
X-242111Y-326123D01*
X-242111Y-326123D01*
X-251712Y-316522D01*
X-252510Y-315989D01*
X-253451Y-315802D01*
X-279293D01*
X-280234Y-315989D01*
X-281009Y-316507D01*
X-281845Y-316161D01*
X-283548Y-315937D01*
X-285175Y-316151D01*
X-285730Y-315737D01*
X-285748Y-315719D01*
X-286162Y-315163D01*
X-285948Y-313536D01*
X-286172Y-311833D01*
X-286829Y-310246D01*
X-287875Y-308883D01*
X-289238Y-307838D01*
X-290825Y-307180D01*
X-292528Y-306956D01*
X-294155Y-307170D01*
X-294710Y-306757D01*
X-294729Y-306738D01*
X-295142Y-306183D01*
X-294928Y-304556D01*
X-295152Y-302853D01*
X-295442Y-302153D01*
X-291539Y-298249D01*
X-290977Y-297409D01*
X-290780Y-296418D01*
Y-217735D01*
X-217436Y-144391D01*
X-215361Y-146465D01*
X-207549Y-138653D01*
X-207863Y-138339D01*
X-204670Y-135146D01*
X-211854Y-127962D01*
X-215047Y-131155D01*
X-215361Y-130841D01*
X-217436Y-132916D01*
X-222070Y-128282D01*
X-219995Y-126207D01*
X-220309Y-125893D01*
X-217116Y-122700D01*
X-224300Y-115516D01*
X-227493Y-118709D01*
X-227807Y-118395D01*
X-229989Y-120577D01*
X-234223Y-116344D01*
X-232148Y-114269D01*
X-232462Y-113955D01*
X-229667Y-111161D01*
X-229354Y-111475D01*
X-221541Y-103663D01*
X-223616Y-101588D01*
X-194969Y-72940D01*
X-194407Y-72100D01*
X-194210Y-71109D01*
Y-55584D01*
X-193972Y-55253D01*
X-191846Y-50588D01*
X-185756Y-37229D01*
X-185659Y-36817D01*
X-184550Y-35373D01*
X-183137Y-31961D01*
X-182655Y-28300D01*
X-183137Y-24639D01*
X-184550Y-21228D01*
X-186798Y-18298D01*
X-189727Y-16050D01*
X-193139Y-14637D01*
X-193717Y-14561D01*
Y-12750D01*
X-193951Y-11570D01*
X-194620Y-10570D01*
X-194620Y-10570D01*
X-199370Y-5820D01*
X-200370Y-5152D01*
X-201550Y-4917D01*
X-201550Y-4917D01*
X-227168D01*
X-227168Y-4917D01*
X-228348Y-5152D01*
X-229348Y-5820D01*
X-229348Y-5820D01*
X-235389Y-11861D01*
X-258287D01*
Y-3006D01*
D02*
G37*
G36*
X245700Y-23855D02*
X242039Y-24337D01*
X238627Y-25750D01*
X235698Y-27998D01*
X233450Y-30928D01*
X232037Y-34339D01*
X231555Y-38000D01*
X232037Y-41661D01*
X233450Y-45072D01*
X235698Y-48002D01*
X238627Y-50250D01*
X242039Y-51663D01*
X245502Y-52119D01*
X256089Y-56377D01*
X256371Y-56798D01*
X279123Y-79550D01*
X280887Y-80729D01*
X282968Y-81143D01*
X287180D01*
Y-87228D01*
X295208D01*
Y-97358D01*
X289929Y-102637D01*
X283690D01*
Y-102109D01*
X274442D01*
Y-102109D01*
X273690D01*
Y-102109D01*
X264442D01*
Y-103025D01*
X259270D01*
Y-100609D01*
X248222D01*
Y-103025D01*
X236528D01*
Y-98864D01*
X227480D01*
Y-112912D01*
X236528D01*
Y-109241D01*
X248222D01*
Y-111657D01*
X248666D01*
Y-115609D01*
X248222D01*
Y-126657D01*
X251286D01*
Y-130560D01*
X249722D01*
Y-132723D01*
X236528D01*
Y-126864D01*
X227480D01*
Y-140912D01*
X236528D01*
Y-137644D01*
X249722D01*
Y-139808D01*
X249936D01*
Y-141454D01*
X257556D01*
Y-139808D01*
X257770D01*
Y-130560D01*
X256206D01*
Y-126657D01*
X259270D01*
Y-115609D01*
X258826D01*
Y-111657D01*
X259270D01*
Y-109241D01*
X264442D01*
Y-110157D01*
X273690D01*
Y-110157D01*
X274442D01*
Y-110157D01*
X283690D01*
Y-109629D01*
X291377D01*
X292715Y-109363D01*
X293849Y-108605D01*
X301176Y-101278D01*
X301934Y-100144D01*
X302200Y-98806D01*
Y-87228D01*
X310228D01*
Y-64180D01*
X287180D01*
Y-70266D01*
X285221D01*
X264815Y-49860D01*
X259823Y-36504D01*
X259601Y-36145D01*
X259363Y-34339D01*
X257950Y-30928D01*
X255702Y-27998D01*
X252773Y-25750D01*
X249361Y-24337D01*
X245700Y-23855D01*
D02*
G37*
G36*
X197358Y-70024D02*
X195772Y-70340D01*
X194428Y-71238D01*
X193530Y-72582D01*
X193214Y-74168D01*
X193530Y-75754D01*
X194428Y-77098D01*
X195772Y-77996D01*
X197358Y-78312D01*
X198944Y-77996D01*
X199441Y-77664D01*
X207020D01*
X209436Y-80080D01*
Y-86908D01*
X208908D01*
Y-94956D01*
X209472D01*
Y-98864D01*
X208480D01*
Y-112912D01*
X217528D01*
Y-98864D01*
X216464D01*
Y-94956D01*
X216956D01*
Y-94742D01*
X219202D01*
Y-87122D01*
X216956D01*
Y-86908D01*
X216428D01*
Y-78632D01*
X216162Y-77294D01*
X215404Y-76160D01*
X210940Y-71696D01*
X209806Y-70938D01*
X208468Y-70672D01*
X199441D01*
X198944Y-70340D01*
X197358Y-70024D01*
D02*
G37*
G36*
X217528Y-126864D02*
X208480D01*
Y-131428D01*
X199854D01*
Y-128454D01*
X188806D01*
Y-131428D01*
X182332D01*
Y-129354D01*
X174284D01*
Y-138084D01*
X174284Y-138602D01*
X174284D01*
Y-139354D01*
X174284D01*
Y-148602D01*
X175977D01*
Y-150340D01*
X175378Y-150740D01*
X174480Y-152084D01*
X174164Y-153670D01*
X174480Y-155256D01*
X175378Y-156600D01*
X176722Y-157498D01*
X178308Y-157814D01*
X179894Y-157498D01*
X181238Y-156600D01*
X182136Y-155256D01*
X182452Y-153670D01*
X182136Y-152084D01*
X181238Y-150740D01*
X180639Y-150340D01*
Y-148602D01*
X182332D01*
Y-139872D01*
X182332Y-139354D01*
X182332D01*
Y-138602D01*
X182332D01*
Y-136348D01*
X188806D01*
Y-139502D01*
X189250D01*
Y-144018D01*
X199410D01*
Y-139502D01*
X199854D01*
Y-136348D01*
X208480D01*
Y-140912D01*
X217528D01*
Y-126864D01*
D02*
G37*
G36*
X-153613Y-170452D02*
X-155199Y-170767D01*
X-156543Y-171666D01*
X-157442Y-173010D01*
X-157558Y-173596D01*
X-160133Y-176171D01*
X-160555Y-175749D01*
X-167094Y-182288D01*
X-167626Y-182820D01*
X-174165Y-189359D01*
X-172998Y-190527D01*
X-176858Y-194387D01*
X-177688Y-194043D01*
X-179391Y-193819D01*
X-181018Y-194033D01*
X-181573Y-193620D01*
X-181591Y-193601D01*
X-182005Y-193046D01*
X-181791Y-191419D01*
X-182015Y-189716D01*
X-182672Y-188129D01*
X-183718Y-186766D01*
X-185081Y-185721D01*
X-186668Y-185063D01*
X-188371Y-184839D01*
X-190074Y-185063D01*
X-191661Y-185721D01*
X-193024Y-186766D01*
X-196560Y-190302D01*
X-197605Y-191665D01*
X-198263Y-193252D01*
X-198487Y-194955D01*
X-198263Y-196658D01*
X-197605Y-198245D01*
X-196560Y-199608D01*
X-195197Y-200653D01*
X-193610Y-201311D01*
X-191907Y-201535D01*
X-190280Y-201321D01*
X-189724Y-201734D01*
X-189706Y-201753D01*
X-189293Y-202308D01*
X-189507Y-203935D01*
X-189282Y-205638D01*
X-188625Y-207225D01*
X-187579Y-208588D01*
X-186217Y-209634D01*
X-184629Y-210291D01*
X-182926Y-210515D01*
X-181299Y-210301D01*
X-180744Y-210714D01*
X-180726Y-210733D01*
X-180312Y-211288D01*
X-180526Y-212915D01*
X-180302Y-214618D01*
X-179645Y-216205D01*
X-178599Y-217568D01*
X-177236Y-218614D01*
X-175649Y-219271D01*
X-173946Y-219495D01*
X-172319Y-219281D01*
X-171764Y-219695D01*
X-171745Y-219713D01*
X-171332Y-220268D01*
X-171546Y-221895D01*
X-171322Y-223598D01*
X-170925Y-224558D01*
X-174368Y-228001D01*
X-174873Y-228758D01*
X-175051Y-229650D01*
Y-257048D01*
X-174873Y-257940D01*
X-174368Y-258696D01*
X-139062Y-294002D01*
X-138306Y-294507D01*
X-137414Y-294685D01*
X-92405D01*
X-62780Y-324310D01*
X-62861Y-324780D01*
X-63281Y-325606D01*
X-64578Y-325864D01*
X-65922Y-326762D01*
X-66179Y-327146D01*
X-67289Y-327545D01*
X-67901Y-327523D01*
X-68816Y-326608D01*
X-74204Y-331996D01*
X-73876Y-332325D01*
X-73191Y-333311D01*
X-73895Y-334404D01*
X-77924D01*
X-79113Y-334641D01*
X-80121Y-335314D01*
X-80124Y-335317D01*
X-84201Y-331240D01*
X-95443Y-342481D01*
X-82893Y-355031D01*
X-71652Y-343789D01*
X-73648Y-341793D01*
X-73162Y-340620D01*
X-70853D01*
X-69664Y-340383D01*
X-68655Y-339709D01*
X-67724Y-338778D01*
X-66652Y-339851D01*
X-60961Y-334160D01*
Y-334160D01*
X-60808Y-333777D01*
X-60497Y-333652D01*
X-59227Y-334510D01*
Y-366032D01*
X-59049Y-366924D01*
X-58544Y-367680D01*
X-46370Y-379854D01*
X-45614Y-380359D01*
X-44722Y-380537D01*
X-22047D01*
X-16301Y-386283D01*
Y-402640D01*
X-17729Y-404069D01*
X-23044D01*
Y-400876D01*
X-34092D01*
Y-401320D01*
X-38044D01*
Y-400876D01*
X-49092D01*
Y-404069D01*
X-99619D01*
X-104016Y-399672D01*
X-104772Y-399167D01*
X-105664Y-398989D01*
X-112113D01*
X-112133Y-398834D01*
X-113093Y-396517D01*
X-114619Y-394527D01*
X-116609Y-393001D01*
X-118926Y-392041D01*
X-121412Y-391714D01*
X-123898Y-392041D01*
X-126215Y-393001D01*
X-128205Y-394527D01*
X-129731Y-396517D01*
X-130691Y-398834D01*
X-131018Y-401320D01*
X-130691Y-403806D01*
X-129731Y-406123D01*
X-128205Y-408113D01*
X-126215Y-409639D01*
X-123898Y-410599D01*
X-121412Y-410926D01*
X-118926Y-410599D01*
X-116609Y-409639D01*
X-114619Y-408113D01*
X-113093Y-406123D01*
X-112133Y-403806D01*
X-112113Y-403651D01*
X-106629D01*
X-102232Y-408048D01*
X-101476Y-408553D01*
X-100584Y-408731D01*
X-49092D01*
Y-411924D01*
X-38044D01*
Y-411480D01*
X-34092D01*
Y-411924D01*
X-23044D01*
Y-408731D01*
X-16764D01*
X-15872Y-408553D01*
X-15116Y-408048D01*
X-12322Y-405254D01*
X-11817Y-404498D01*
X-11639Y-403606D01*
Y-385318D01*
X-11817Y-384426D01*
X-12322Y-383670D01*
X-17443Y-378548D01*
X-17025Y-377170D01*
X-16866Y-377139D01*
X-8173Y-385832D01*
Y-407212D01*
X-25271Y-424311D01*
X-27239Y-423495D01*
X-29464Y-423203D01*
X-31689Y-423495D01*
X-33763Y-424354D01*
X-35543Y-425721D01*
X-36910Y-427501D01*
X-37769Y-429575D01*
X-38061Y-431800D01*
X-37769Y-434025D01*
X-36910Y-436099D01*
X-35543Y-437879D01*
X-33763Y-439246D01*
X-31689Y-440105D01*
X-29464Y-440397D01*
X-27239Y-440105D01*
X-25165Y-439246D01*
X-23385Y-437879D01*
X-22018Y-436099D01*
X-21159Y-434025D01*
X-20866Y-431800D01*
X-21159Y-429575D01*
X-21975Y-427607D01*
X-4194Y-409826D01*
X-3689Y-409070D01*
X-3511Y-408178D01*
Y-384867D01*
X-3689Y-383975D01*
X-3960Y-383568D01*
X-2974Y-382759D01*
X5792Y-391525D01*
Y-431631D01*
X4522Y-431714D01*
X4241Y-429575D01*
X3382Y-427501D01*
X2015Y-425721D01*
X235Y-424354D01*
X-1839Y-423495D01*
X-4064Y-423203D01*
X-6289Y-423495D01*
X-8363Y-424354D01*
X-10143Y-425721D01*
X-11510Y-427501D01*
X-12369Y-429575D01*
X-12661Y-431800D01*
X-12369Y-434025D01*
X-11510Y-436099D01*
X-10143Y-437879D01*
X-8363Y-439246D01*
X-6289Y-440105D01*
X-4064Y-440397D01*
X-1839Y-440105D01*
X235Y-439246D01*
X2015Y-437879D01*
X3382Y-436099D01*
X4241Y-434025D01*
X4522Y-431886D01*
X5792Y-431969D01*
Y-440182D01*
X5989Y-441173D01*
X6551Y-442013D01*
X10361Y-445823D01*
X11201Y-446385D01*
X12192Y-446582D01*
X28401D01*
X28639Y-446534D01*
X34591D01*
X35582Y-446337D01*
X36423Y-445776D01*
X42802Y-439397D01*
X44511Y-440105D01*
X46736Y-440397D01*
X48961Y-440105D01*
X51035Y-439246D01*
X52815Y-437879D01*
X54182Y-436099D01*
X55041Y-434025D01*
X55333Y-431800D01*
X55041Y-429575D01*
X54182Y-427501D01*
X52815Y-425721D01*
X51035Y-424354D01*
X48961Y-423495D01*
X46736Y-423203D01*
X44511Y-423495D01*
X42437Y-424354D01*
X40657Y-425721D01*
X39290Y-427501D01*
X38431Y-429575D01*
X38138Y-431800D01*
X38431Y-434025D01*
X39139Y-435734D01*
X33519Y-441355D01*
X28448D01*
X28210Y-441402D01*
X23434D01*
X23351Y-440132D01*
X23561Y-440105D01*
X25635Y-439246D01*
X27415Y-437879D01*
X28782Y-436099D01*
X29641Y-434025D01*
X29934Y-431800D01*
X29641Y-429575D01*
X28782Y-427501D01*
X27415Y-425721D01*
X25635Y-424354D01*
X23561Y-423495D01*
X21336Y-423203D01*
X19111Y-423495D01*
X17037Y-424354D01*
X15257Y-425721D01*
X13890Y-427501D01*
X13031Y-429575D01*
X12738Y-431800D01*
X13031Y-434025D01*
X13890Y-436099D01*
X15257Y-437879D01*
X17037Y-439246D01*
X19111Y-440105D01*
X19321Y-440132D01*
X19238Y-441402D01*
X13265D01*
X10972Y-439109D01*
Y-390452D01*
X10775Y-389461D01*
X10213Y-388621D01*
X-13247Y-365161D01*
X-12857Y-363754D01*
X-12706Y-363716D01*
X23752Y-400174D01*
X24508Y-400679D01*
X25400Y-400857D01*
X79982D01*
X80382Y-401456D01*
X81726Y-402354D01*
X83312Y-402670D01*
X84898Y-402354D01*
X86242Y-401456D01*
X87140Y-400112D01*
X87456Y-398526D01*
X87140Y-396940D01*
X86242Y-395596D01*
X84898Y-394698D01*
X83312Y-394382D01*
X81726Y-394698D01*
X80382Y-395596D01*
X79982Y-396195D01*
X26365D01*
X-10798Y-359032D01*
X-11554Y-358527D01*
X-12446Y-358349D01*
X-31509D01*
X-35205Y-354654D01*
Y-326719D01*
X-35382Y-325827D01*
X-35887Y-325071D01*
X-83206Y-277752D01*
X-83962Y-277247D01*
X-84854Y-277069D01*
X-107922D01*
X-108322Y-276470D01*
X-109666Y-275572D01*
X-111252Y-275256D01*
X-112838Y-275572D01*
X-114182Y-276470D01*
X-115080Y-277814D01*
X-115396Y-279400D01*
X-115080Y-280986D01*
X-114182Y-282330D01*
X-112838Y-283228D01*
X-111252Y-283544D01*
X-109666Y-283228D01*
X-108322Y-282330D01*
X-107922Y-281731D01*
X-86853D01*
X-86744Y-281912D01*
X-87374Y-283332D01*
X-87946Y-283446D01*
X-89290Y-284344D01*
X-90188Y-285688D01*
X-90504Y-287274D01*
X-90188Y-288860D01*
X-90022Y-289109D01*
X-90126Y-289326D01*
X-90861Y-290138D01*
X-91440Y-290023D01*
X-136449D01*
X-170389Y-256083D01*
Y-230615D01*
X-167628Y-227854D01*
X-166669Y-228251D01*
X-164966Y-228476D01*
X-163339Y-228262D01*
X-162784Y-228675D01*
X-162765Y-228693D01*
X-162352Y-229249D01*
X-162566Y-230876D01*
X-162342Y-232579D01*
X-161944Y-233538D01*
X-164846Y-236440D01*
X-165352Y-237196D01*
X-165529Y-238088D01*
Y-250924D01*
X-166128Y-251324D01*
X-167026Y-252668D01*
X-167342Y-254254D01*
X-167026Y-255840D01*
X-166128Y-257184D01*
X-164784Y-258082D01*
X-163198Y-258398D01*
X-161612Y-258082D01*
X-160268Y-257184D01*
X-159370Y-255840D01*
X-159054Y-254254D01*
X-159370Y-252668D01*
X-160268Y-251324D01*
X-160867Y-250924D01*
Y-239054D01*
X-158648Y-236834D01*
X-157689Y-237232D01*
X-155986Y-237456D01*
X-154359Y-237242D01*
X-153803Y-237655D01*
X-153785Y-237674D01*
X-153371Y-238229D01*
X-153586Y-239856D01*
X-153361Y-241559D01*
X-152704Y-243146D01*
X-151658Y-244509D01*
X-150295Y-245555D01*
X-148708Y-246212D01*
X-147005Y-246436D01*
X-145378Y-246222D01*
X-144823Y-246635D01*
X-144805Y-246654D01*
X-144391Y-247209D01*
X-144605Y-248836D01*
X-144381Y-250539D01*
X-144203Y-250969D01*
X-145072Y-251918D01*
X-145221Y-251888D01*
X-146807Y-252204D01*
X-148151Y-253102D01*
X-149049Y-254446D01*
X-149365Y-256032D01*
X-149049Y-257618D01*
X-148151Y-258962D01*
X-146807Y-259860D01*
X-145221Y-260176D01*
X-143635Y-259860D01*
X-142291Y-258962D01*
X-141393Y-257618D01*
X-141077Y-256032D01*
X-141107Y-255883D01*
X-140158Y-255014D01*
X-139728Y-255192D01*
X-138025Y-255417D01*
X-136398Y-255202D01*
X-135843Y-255616D01*
X-135824Y-255634D01*
X-135411Y-256190D01*
X-135625Y-257817D01*
X-135401Y-259520D01*
X-135289Y-259789D01*
X-136206Y-260896D01*
X-136257Y-260885D01*
X-137843Y-261201D01*
X-139187Y-262099D01*
X-140085Y-263443D01*
X-140401Y-265029D01*
X-140085Y-266615D01*
X-139187Y-267959D01*
X-137843Y-268857D01*
X-136257Y-269173D01*
X-134672Y-268857D01*
X-133327Y-267959D01*
X-132429Y-266615D01*
X-132114Y-265029D01*
X-132124Y-264977D01*
X-131018Y-264061D01*
X-130748Y-264172D01*
X-129045Y-264397D01*
X-127418Y-264183D01*
X-126863Y-264596D01*
X-126844Y-264614D01*
X-126431Y-265170D01*
X-126645Y-266797D01*
X-126421Y-268500D01*
X-125763Y-270087D01*
X-124718Y-271450D01*
X-123355Y-272495D01*
X-121768Y-273153D01*
X-120065Y-273377D01*
X-118362Y-273153D01*
X-116774Y-272495D01*
X-115412Y-271450D01*
X-111876Y-267914D01*
X-110830Y-266551D01*
X-110173Y-264964D01*
X-109949Y-263261D01*
X-110173Y-261558D01*
X-110570Y-260599D01*
X-97158Y-247186D01*
X-96653Y-246430D01*
X-96475Y-245538D01*
Y-222786D01*
X-95876Y-222386D01*
X-94978Y-221042D01*
X-94662Y-219456D01*
X-94978Y-217870D01*
X-95876Y-216526D01*
X-97220Y-215628D01*
X-98806Y-215312D01*
X-100392Y-215628D01*
X-101736Y-216526D01*
X-102634Y-217870D01*
X-102950Y-219456D01*
X-102634Y-221042D01*
X-101736Y-222386D01*
X-101137Y-222786D01*
Y-244573D01*
X-113867Y-257302D01*
X-114826Y-256905D01*
X-116529Y-256681D01*
X-118156Y-256895D01*
X-118711Y-256482D01*
X-118730Y-256463D01*
X-119143Y-255908D01*
X-118929Y-254281D01*
X-119153Y-252578D01*
X-119811Y-250991D01*
X-120856Y-249628D01*
X-122219Y-248582D01*
X-123806Y-247925D01*
X-125509Y-247701D01*
X-127136Y-247915D01*
X-127692Y-247501D01*
X-127710Y-247483D01*
X-128124Y-246928D01*
X-127909Y-245301D01*
X-128133Y-243598D01*
X-128791Y-242010D01*
X-129837Y-240648D01*
X-131199Y-239602D01*
X-132787Y-238945D01*
X-134490Y-238720D01*
X-136117Y-238935D01*
X-136672Y-238521D01*
X-136690Y-238503D01*
X-137104Y-237947D01*
X-136890Y-236320D01*
X-137042Y-235163D01*
X-132624Y-230745D01*
X-131976Y-231393D01*
X-130904Y-230320D01*
X-127577Y-233647D01*
X-128523Y-234592D01*
X-122832Y-240283D01*
X-121393Y-238844D01*
X-116598Y-243639D01*
X-115758Y-244201D01*
X-114767Y-244398D01*
X-110422D01*
X-110194Y-244738D01*
X-108850Y-245636D01*
X-107264Y-245952D01*
X-105679Y-245636D01*
X-104334Y-244738D01*
X-103436Y-243394D01*
X-103121Y-241808D01*
X-103436Y-240222D01*
X-104334Y-238878D01*
X-105679Y-237980D01*
X-107264Y-237664D01*
X-108850Y-237980D01*
X-110194Y-238878D01*
X-110422Y-239218D01*
X-113694D01*
X-117096Y-235817D01*
Y-234547D01*
X-115847Y-233298D01*
X-115549Y-233287D01*
X-114439Y-233686D01*
X-114182Y-234070D01*
X-112838Y-234968D01*
X-111252Y-235284D01*
X-109666Y-234968D01*
X-108322Y-234070D01*
X-107424Y-232726D01*
X-107108Y-231140D01*
X-107424Y-229554D01*
X-108322Y-228210D01*
X-108706Y-227953D01*
X-109221Y-226672D01*
Y-226672D01*
X-114912Y-220981D01*
X-121452Y-227521D01*
X-122547Y-228617D01*
X-123818D01*
X-126509Y-225925D01*
X-125436Y-224853D01*
X-125588Y-224702D01*
X-124424Y-223538D01*
X-129812Y-218150D01*
X-130976Y-219314D01*
X-131127Y-219163D01*
X-137667Y-225702D01*
X-137019Y-226350D01*
X-140965Y-230296D01*
X-141767Y-229964D01*
X-143470Y-229740D01*
X-145097Y-229954D01*
X-145652Y-229541D01*
X-145670Y-229522D01*
X-146084Y-228967D01*
X-145870Y-227340D01*
X-146094Y-225637D01*
X-146751Y-224050D01*
X-147797Y-222687D01*
X-149160Y-221642D01*
X-150747Y-220984D01*
X-152450Y-220760D01*
X-154077Y-220974D01*
X-154632Y-220561D01*
X-154651Y-220542D01*
X-155064Y-219987D01*
X-154850Y-218360D01*
X-155074Y-216657D01*
X-155472Y-215697D01*
X-153252Y-213478D01*
X-144962D01*
X-144561Y-214077D01*
X-143217Y-214976D01*
X-141631Y-215291D01*
X-140046Y-214976D01*
X-138701Y-214077D01*
X-137803Y-212733D01*
X-137488Y-211147D01*
X-137803Y-209562D01*
X-138701Y-208217D01*
X-140046Y-207319D01*
X-141631Y-207004D01*
X-143217Y-207319D01*
X-144561Y-208217D01*
X-144962Y-208817D01*
X-154218D01*
X-155110Y-208994D01*
X-155866Y-209499D01*
X-158768Y-212401D01*
X-159727Y-212004D01*
X-161430Y-211780D01*
X-163057Y-211994D01*
X-163613Y-211580D01*
X-163631Y-211562D01*
X-164044Y-211007D01*
X-163830Y-209380D01*
X-164055Y-207677D01*
X-164355Y-206951D01*
X-160005Y-202601D01*
X-158900Y-203707D01*
X-157370Y-202177D01*
X-155369Y-204178D01*
X-154571Y-204711D01*
X-153629Y-204898D01*
X-149352D01*
X-148411Y-204711D01*
X-147612Y-204178D01*
X-140459Y-197024D01*
X-137767D01*
X-137382Y-198294D01*
X-138058Y-198746D01*
X-138956Y-200090D01*
X-139272Y-201676D01*
X-138956Y-203262D01*
X-138058Y-204606D01*
X-136714Y-205504D01*
X-135128Y-205820D01*
X-133542Y-205504D01*
X-132198Y-204606D01*
X-131884Y-204136D01*
X-92967D01*
X-78406Y-218697D01*
Y-253238D01*
X-78219Y-254179D01*
X-77686Y-254978D01*
X-56858Y-275806D01*
X-56059Y-276339D01*
X-55118Y-276526D01*
X-34994D01*
X-34680Y-276996D01*
X-34081Y-277396D01*
Y-284734D01*
X-33903Y-285626D01*
X-33398Y-286382D01*
X-31183Y-288597D01*
X-31313Y-289481D01*
X-31539Y-290037D01*
X-32388Y-290605D01*
X-34251Y-292468D01*
X-36616D01*
Y-290952D01*
X-36830D01*
Y-289306D01*
X-44450D01*
Y-290517D01*
X-44620Y-290774D01*
X-44962Y-291061D01*
X-45934Y-291418D01*
X-46736Y-291258D01*
X-48322Y-291574D01*
X-49666Y-292472D01*
X-50564Y-293816D01*
X-50880Y-295402D01*
X-50564Y-296988D01*
X-49666Y-298332D01*
X-48322Y-299230D01*
X-46736Y-299546D01*
X-45934Y-299386D01*
X-44664Y-300200D01*
Y-300200D01*
X-36616D01*
Y-298684D01*
X-32964D01*
X-31775Y-298447D01*
X-30766Y-297773D01*
X-28903Y-295910D01*
X-24772D01*
X-24351Y-295826D01*
X-22796D01*
Y-300951D01*
X-22597D01*
X-22307Y-302221D01*
X-23874Y-303787D01*
X-24379Y-304544D01*
X-24556Y-305436D01*
Y-306606D01*
X-26249D01*
Y-315336D01*
X-26249Y-315854D01*
X-26250D01*
Y-316606D01*
X-26249D01*
Y-325854D01*
X-26250Y-325854D01*
X-26249D01*
X-26084Y-327124D01*
X-26242Y-327914D01*
X-25926Y-329500D01*
X-25028Y-330844D01*
X-23684Y-331742D01*
X-22098Y-332058D01*
X-20512Y-331742D01*
X-19168Y-330844D01*
X-18270Y-329500D01*
X-17954Y-327914D01*
X-18118Y-327090D01*
X-18202Y-325854D01*
X-18202Y-325854D01*
X-18202Y-325854D01*
Y-323561D01*
X-13803D01*
Y-325854D01*
X-12240D01*
Y-327609D01*
X-12053Y-328550D01*
X-11519Y-329348D01*
X-8420Y-332448D01*
X-7622Y-332981D01*
X-6680Y-333168D01*
X9652D01*
X10594Y-332981D01*
X11392Y-332448D01*
X16472Y-327368D01*
X17005Y-326570D01*
X17192Y-325628D01*
Y-280894D01*
X18256Y-279972D01*
X18337Y-279988D01*
X19923Y-279672D01*
X21267Y-278774D01*
X22166Y-277430D01*
X22481Y-275844D01*
X22187Y-274365D01*
X22222Y-274055D01*
X22735Y-273095D01*
X42421D01*
X46136Y-276809D01*
Y-287577D01*
X42844Y-290869D01*
X42339Y-291625D01*
X42161Y-292517D01*
Y-293158D01*
X34600D01*
Y-289266D01*
X36374D01*
Y-289052D01*
X38020D01*
Y-281432D01*
X37009D01*
X35930Y-280346D01*
X36068Y-279654D01*
X35752Y-278068D01*
X34854Y-276724D01*
X33510Y-275826D01*
X31924Y-275510D01*
X30338Y-275826D01*
X28994Y-276724D01*
X28096Y-278068D01*
X27780Y-279654D01*
X27903Y-280271D01*
X27126Y-281218D01*
X27126D01*
Y-289266D01*
X28384D01*
Y-293158D01*
X27468D01*
Y-311306D01*
X42161D01*
Y-324480D01*
X42339Y-325372D01*
X42844Y-326128D01*
X44177Y-327461D01*
X44036Y-328168D01*
X44352Y-329754D01*
X45250Y-331098D01*
X46594Y-331996D01*
X48180Y-332312D01*
X49766Y-331996D01*
X51110Y-331098D01*
X51510Y-330499D01*
X73580D01*
X74472Y-330321D01*
X75228Y-329816D01*
X80002Y-325042D01*
X80507Y-324286D01*
X80685Y-323394D01*
Y-316946D01*
X81955Y-316560D01*
X82334Y-317128D01*
X83678Y-318026D01*
X85264Y-318342D01*
X86850Y-318026D01*
X88194Y-317128D01*
X89092Y-315784D01*
X89408Y-314198D01*
X89092Y-312612D01*
X88378Y-311543D01*
Y-293708D01*
X87314D01*
Y-275844D01*
X87127Y-274902D01*
X86594Y-274104D01*
X75525Y-263035D01*
X74727Y-262502D01*
X73785Y-262315D01*
X15345D01*
X14667Y-261045D01*
X14750Y-260920D01*
X15066Y-259334D01*
X14750Y-257748D01*
X13852Y-256404D01*
X12508Y-255506D01*
X10922Y-255190D01*
X9336Y-255506D01*
X8846Y-255833D01*
X7408Y-255456D01*
X7072Y-254884D01*
Y-254132D01*
X7072D01*
Y-244884D01*
X-976D01*
Y-247128D01*
X-9604D01*
X-10502Y-246230D01*
X-10502Y-244564D01*
X-10502Y-243294D01*
Y-235064D01*
X-14418D01*
Y-233606D01*
X-14655Y-232417D01*
X-15329Y-231409D01*
X-18824Y-227913D01*
Y-223660D01*
X-18824D01*
X-19484Y-222390D01*
X-19304Y-221488D01*
X-19620Y-219902D01*
X-20518Y-218558D01*
X-21862Y-217660D01*
X-23448Y-217344D01*
X-25034Y-217660D01*
X-26378Y-218558D01*
X-27276Y-219902D01*
X-27592Y-221488D01*
X-27412Y-222390D01*
X-28072Y-223660D01*
X-29253Y-223874D01*
X-29718D01*
Y-231494D01*
X-28072D01*
Y-231708D01*
X-23819D01*
X-21733Y-233794D01*
X-22259Y-235064D01*
X-24550D01*
Y-243294D01*
X-24550Y-244112D01*
X-24550Y-245382D01*
Y-254612D01*
X-24550D01*
Y-255064D01*
X-24550D01*
Y-264112D01*
X-19857D01*
Y-264668D01*
X-19679Y-265560D01*
X-19174Y-266316D01*
X-17719Y-267771D01*
X-17860Y-268478D01*
X-17544Y-270064D01*
X-16646Y-271408D01*
X-16477Y-271521D01*
X-16862Y-272791D01*
X-18807D01*
X-24768Y-266830D01*
X-25524Y-266325D01*
X-26416Y-266147D01*
X-35103D01*
X-35965Y-265285D01*
X-35478Y-264112D01*
X-32502D01*
Y-255064D01*
X-46550D01*
Y-257128D01*
X-58384D01*
X-68627Y-246885D01*
Y-214102D01*
X-68814Y-213160D01*
X-69348Y-212362D01*
X-88885Y-192824D01*
X-89684Y-192291D01*
X-90625Y-192104D01*
X-141478D01*
X-142420Y-192291D01*
X-143218Y-192824D01*
X-150371Y-199978D01*
X-152253D01*
X-153255Y-198975D01*
Y-198062D01*
X-152360Y-197167D01*
X-151829Y-196635D01*
X-145289Y-190096D01*
X-145614Y-189772D01*
X-143039Y-187197D01*
X-142453Y-187080D01*
X-141109Y-186182D01*
X-140210Y-184838D01*
X-139895Y-183252D01*
X-140210Y-181667D01*
X-140641Y-181022D01*
X-139962Y-179752D01*
X-138377D01*
X-138063Y-180222D01*
X-136719Y-181120D01*
X-135133Y-181436D01*
X-133548Y-181120D01*
X-132203Y-180222D01*
X-131305Y-178878D01*
X-130990Y-177292D01*
X-131305Y-175706D01*
X-132203Y-174362D01*
X-133548Y-173464D01*
X-135133Y-173148D01*
X-136719Y-173464D01*
X-138063Y-174362D01*
X-138377Y-174832D01*
X-147320D01*
X-148261Y-175019D01*
X-148736Y-174853D01*
X-149522Y-174334D01*
X-149785Y-173010D01*
X-150683Y-171666D01*
X-152028Y-170767D01*
X-153613Y-170452D01*
D02*
G37*
G36*
X159004Y-179147D02*
X154685Y-179487D01*
X150472Y-180498D01*
X146470Y-182156D01*
X142776Y-184420D01*
X139481Y-187233D01*
X136668Y-190528D01*
X134404Y-194222D01*
X132746Y-198224D01*
X131735Y-202437D01*
X131395Y-206756D01*
X131735Y-211075D01*
X132746Y-215288D01*
X134404Y-219290D01*
X136668Y-222984D01*
X139481Y-226279D01*
X142776Y-229092D01*
X146470Y-231356D01*
X150472Y-233014D01*
X154685Y-234025D01*
X159004Y-234365D01*
X163323Y-234025D01*
X167536Y-233014D01*
X171538Y-231356D01*
X175232Y-229092D01*
X178527Y-226279D01*
X181340Y-222984D01*
X183604Y-219290D01*
X185262Y-215288D01*
X186273Y-211075D01*
X186613Y-206756D01*
X186273Y-202437D01*
X185262Y-198224D01*
X183604Y-194222D01*
X181340Y-190528D01*
X178527Y-187233D01*
X175232Y-184420D01*
X171538Y-182156D01*
X167536Y-180498D01*
X163323Y-179487D01*
X159004Y-179147D01*
D02*
G37*
G36*
X-83820Y-239696D02*
X-85406Y-240012D01*
X-86750Y-240910D01*
X-87648Y-242254D01*
X-87964Y-243840D01*
X-87881Y-244255D01*
X-91038Y-247412D01*
X-92052Y-246398D01*
X-98591Y-252937D01*
X-99123Y-253469D01*
X-105663Y-260009D01*
X-99972Y-265699D01*
X-99972D01*
X-98583Y-266107D01*
X-97926Y-267090D01*
X-96582Y-267988D01*
X-94996Y-268304D01*
X-93410Y-267988D01*
X-92066Y-267090D01*
X-91168Y-265746D01*
X-90852Y-264160D01*
X-91168Y-262574D01*
X-92066Y-261230D01*
X-93049Y-260573D01*
X-93433Y-259160D01*
X-92901Y-258628D01*
X-86361Y-252089D01*
X-87375Y-251075D01*
X-84207Y-247907D01*
X-83820Y-247984D01*
X-82234Y-247668D01*
X-80890Y-246770D01*
X-79992Y-245426D01*
X-79676Y-243840D01*
X-79992Y-242254D01*
X-80890Y-240910D01*
X-82234Y-240012D01*
X-83820Y-239696D01*
D02*
G37*
G36*
X324778Y-233106D02*
X312016Y-245868D01*
X318414Y-252266D01*
X331175Y-239504D01*
X324778Y-233106D01*
D02*
G37*
G36*
X218004Y-255027D02*
X205243Y-267788D01*
X211416Y-273962D01*
X212314Y-274860D01*
X212539Y-275084D01*
X213864Y-276410D01*
X211469Y-278806D01*
X199186D01*
X198294Y-278984D01*
X197537Y-279489D01*
X192786Y-284240D01*
X191165Y-282619D01*
X185474Y-288309D01*
X191647Y-294483D01*
X192545Y-295381D01*
X192545Y-295381D01*
X199084Y-301920D01*
X200098Y-300906D01*
X204062Y-304869D01*
X202694Y-306237D01*
X209233Y-312776D01*
X215631Y-306378D01*
X209092Y-299839D01*
X207724Y-301206D01*
X203761Y-297243D01*
X204775Y-296229D01*
X198602Y-290056D01*
X197704Y-289158D01*
X197704Y-289158D01*
X196082Y-287537D01*
X200151Y-283468D01*
X212434D01*
X213326Y-283291D01*
X214082Y-282785D01*
X216526Y-280342D01*
X217796D01*
X219048Y-281594D01*
X219610Y-282155D01*
X225783Y-288328D01*
X238545Y-275567D01*
X232372Y-269394D01*
X231810Y-268832D01*
X231249Y-268271D01*
X225300Y-262323D01*
X224402Y-261424D01*
X224178Y-261200D01*
X218004Y-255027D01*
D02*
G37*
G36*
X-175006Y-262048D02*
X-176592Y-262364D01*
X-177936Y-263262D01*
X-178834Y-264606D01*
X-179150Y-266192D01*
X-178834Y-267778D01*
X-177936Y-269122D01*
X-176592Y-270020D01*
X-175006Y-270336D01*
X-174299Y-270195D01*
X-146497Y-297997D01*
X-146638Y-298704D01*
X-146322Y-300290D01*
X-145424Y-301634D01*
X-144080Y-302532D01*
X-142494Y-302848D01*
X-140908Y-302532D01*
X-139564Y-301634D01*
X-138666Y-300290D01*
X-138350Y-298704D01*
X-138666Y-297118D01*
X-139564Y-295774D01*
X-140908Y-294876D01*
X-142494Y-294560D01*
X-143201Y-294701D01*
X-171003Y-266899D01*
X-170862Y-266192D01*
X-171178Y-264606D01*
X-172076Y-263262D01*
X-173420Y-262364D01*
X-175006Y-262048D01*
D02*
G37*
G36*
X-105664Y-317646D02*
X-116440Y-328422D01*
X-105664Y-339198D01*
X-94888Y-328422D01*
X-105664Y-317646D01*
D02*
G37*
G36*
X48516Y-353158D02*
X27468D01*
Y-371306D01*
X48516D01*
Y-353158D01*
D02*
G37*
G36*
X-250976Y-379477D02*
X-257516Y-386017D01*
X-258047Y-386549D01*
X-264587Y-393088D01*
X-258896Y-398779D01*
X-258896D01*
X-258251Y-398842D01*
X-257692Y-399678D01*
X-256348Y-400576D01*
X-254762Y-400892D01*
X-253176Y-400576D01*
X-251832Y-399678D01*
X-250934Y-398334D01*
X-250618Y-396748D01*
X-250934Y-395162D01*
X-251832Y-393818D01*
X-252260Y-393532D01*
X-252385Y-392268D01*
X-252356Y-392239D01*
X-251825Y-391707D01*
X-250203Y-390086D01*
X-241892Y-398397D01*
X-241136Y-398902D01*
X-240244Y-399080D01*
X-225580D01*
X-225180Y-399679D01*
X-223836Y-400577D01*
X-222250Y-400892D01*
X-220664Y-400577D01*
X-219320Y-399679D01*
X-218422Y-398334D01*
X-218106Y-396749D01*
X-218422Y-395163D01*
X-219320Y-393819D01*
X-220664Y-392920D01*
X-222250Y-392605D01*
X-223836Y-392920D01*
X-225180Y-393819D01*
X-225580Y-394418D01*
X-239279D01*
X-246907Y-386790D01*
X-245285Y-385168D01*
X-250976Y-379477D01*
D02*
G37*
G36*
X-187268Y-414507D02*
X-189668D01*
X-191355Y-414843D01*
X-192785Y-415799D01*
X-193741Y-417229D01*
X-194077Y-418916D01*
Y-421316D01*
X-193741Y-423003D01*
X-192785Y-424433D01*
X-191576Y-425242D01*
Y-425834D01*
X-192296Y-426912D01*
X-192612Y-428498D01*
X-192296Y-430084D01*
X-191398Y-431428D01*
X-190054Y-432326D01*
X-188468Y-432642D01*
X-186882Y-432326D01*
X-185538Y-431428D01*
X-184640Y-430084D01*
X-184324Y-428498D01*
X-184640Y-426912D01*
X-185360Y-425834D01*
Y-425242D01*
X-184151Y-424433D01*
X-183195Y-423003D01*
X-182859Y-421316D01*
Y-418916D01*
X-183195Y-417229D01*
X-184151Y-415799D01*
X-185581Y-414843D01*
X-187268Y-414507D01*
D02*
G37*
G36*
X97536Y-423203D02*
X95311Y-423495D01*
X93237Y-424354D01*
X91457Y-425721D01*
X90090Y-427501D01*
X89231Y-429575D01*
X88939Y-431800D01*
X89231Y-434025D01*
X90090Y-436099D01*
X91457Y-437879D01*
X93237Y-439246D01*
X95311Y-440105D01*
X97536Y-440397D01*
X99761Y-440105D01*
X101835Y-439246D01*
X103615Y-437879D01*
X104982Y-436099D01*
X105841Y-434025D01*
X106133Y-431800D01*
X105841Y-429575D01*
X104982Y-427501D01*
X103615Y-425721D01*
X101835Y-424354D01*
X99761Y-423495D01*
X97536Y-423203D01*
D02*
G37*
G36*
X72136D02*
X69911Y-423495D01*
X67837Y-424354D01*
X66057Y-425721D01*
X64690Y-427501D01*
X63831Y-429575D01*
X63538Y-431800D01*
X63831Y-434025D01*
X64690Y-436099D01*
X66057Y-437879D01*
X67837Y-439246D01*
X69911Y-440105D01*
X72136Y-440397D01*
X74361Y-440105D01*
X76435Y-439246D01*
X78215Y-437879D01*
X79582Y-436099D01*
X80441Y-434025D01*
X80733Y-431800D01*
X80441Y-429575D01*
X79582Y-427501D01*
X78215Y-425721D01*
X76435Y-424354D01*
X74361Y-423495D01*
X72136Y-423203D01*
D02*
G37*
G36*
X-54864D02*
X-57089Y-423495D01*
X-59163Y-424354D01*
X-60943Y-425721D01*
X-62310Y-427501D01*
X-63169Y-429575D01*
X-63461Y-431800D01*
X-63169Y-434025D01*
X-62310Y-436099D01*
X-60943Y-437879D01*
X-59163Y-439246D01*
X-57089Y-440105D01*
X-54864Y-440397D01*
X-52639Y-440105D01*
X-50565Y-439246D01*
X-48785Y-437879D01*
X-47418Y-436099D01*
X-46559Y-434025D01*
X-46266Y-431800D01*
X-46559Y-429575D01*
X-47418Y-427501D01*
X-48785Y-425721D01*
X-50565Y-424354D01*
X-52639Y-423495D01*
X-54864Y-423203D01*
D02*
G37*
G36*
X106060Y-448676D02*
X89012D01*
Y-465724D01*
X106060D01*
Y-448676D01*
D02*
G37*
G36*
X72136Y-448602D02*
X69911Y-448895D01*
X67837Y-449754D01*
X66057Y-451121D01*
X64690Y-452901D01*
X63831Y-454975D01*
X63538Y-457200D01*
X63831Y-459425D01*
X64690Y-461499D01*
X66057Y-463279D01*
X67837Y-464646D01*
X69911Y-465505D01*
X72136Y-465798D01*
X74361Y-465505D01*
X76435Y-464646D01*
X78215Y-463279D01*
X79582Y-461499D01*
X80441Y-459425D01*
X80733Y-457200D01*
X80441Y-454975D01*
X79582Y-452901D01*
X78215Y-451121D01*
X76435Y-449754D01*
X74361Y-448895D01*
X72136Y-448602D01*
D02*
G37*
G36*
X46736D02*
X44511Y-448895D01*
X42437Y-449754D01*
X40657Y-451121D01*
X39290Y-452901D01*
X38431Y-454975D01*
X38138Y-457200D01*
X38431Y-459425D01*
X39290Y-461499D01*
X40657Y-463279D01*
X42437Y-464646D01*
X44511Y-465505D01*
X46736Y-465798D01*
X48961Y-465505D01*
X51035Y-464646D01*
X52815Y-463279D01*
X54182Y-461499D01*
X55041Y-459425D01*
X55333Y-457200D01*
X55041Y-454975D01*
X54182Y-452901D01*
X52815Y-451121D01*
X51035Y-449754D01*
X48961Y-448895D01*
X46736Y-448602D01*
D02*
G37*
G36*
X21336D02*
X19111Y-448895D01*
X17037Y-449754D01*
X15257Y-451121D01*
X13890Y-452901D01*
X13031Y-454975D01*
X12738Y-457200D01*
X13031Y-459425D01*
X13890Y-461499D01*
X15257Y-463279D01*
X17037Y-464646D01*
X19111Y-465505D01*
X21336Y-465798D01*
X23561Y-465505D01*
X25635Y-464646D01*
X27415Y-463279D01*
X28782Y-461499D01*
X29641Y-459425D01*
X29934Y-457200D01*
X29641Y-454975D01*
X28782Y-452901D01*
X27415Y-451121D01*
X25635Y-449754D01*
X23561Y-448895D01*
X21336Y-448602D01*
D02*
G37*
G36*
X-4064D02*
X-6289Y-448895D01*
X-8363Y-449754D01*
X-10143Y-451121D01*
X-11510Y-452901D01*
X-12369Y-454975D01*
X-12661Y-457200D01*
X-12369Y-459425D01*
X-11510Y-461499D01*
X-10143Y-463279D01*
X-8363Y-464646D01*
X-6289Y-465505D01*
X-4064Y-465798D01*
X-1839Y-465505D01*
X235Y-464646D01*
X2015Y-463279D01*
X3382Y-461499D01*
X4241Y-459425D01*
X4534Y-457200D01*
X4241Y-454975D01*
X3382Y-452901D01*
X2015Y-451121D01*
X235Y-449754D01*
X-1839Y-448895D01*
X-4064Y-448602D01*
D02*
G37*
G36*
X-29464D02*
X-31689Y-448895D01*
X-33763Y-449754D01*
X-35543Y-451121D01*
X-36910Y-452901D01*
X-37769Y-454975D01*
X-38061Y-457200D01*
X-37769Y-459425D01*
X-36910Y-461499D01*
X-35543Y-463279D01*
X-33763Y-464646D01*
X-31689Y-465505D01*
X-29464Y-465798D01*
X-27239Y-465505D01*
X-25165Y-464646D01*
X-23385Y-463279D01*
X-22018Y-461499D01*
X-21159Y-459425D01*
X-20866Y-457200D01*
X-21159Y-454975D01*
X-22018Y-452901D01*
X-23385Y-451121D01*
X-25165Y-449754D01*
X-27239Y-448895D01*
X-29464Y-448602D01*
D02*
G37*
G36*
X-54864D02*
X-57089Y-448895D01*
X-59163Y-449754D01*
X-60943Y-451121D01*
X-62310Y-452901D01*
X-63169Y-454975D01*
X-63461Y-457200D01*
X-63169Y-459425D01*
X-62310Y-461499D01*
X-60943Y-463279D01*
X-59163Y-464646D01*
X-57089Y-465505D01*
X-54864Y-465798D01*
X-52639Y-465505D01*
X-50565Y-464646D01*
X-48785Y-463279D01*
X-47418Y-461499D01*
X-46559Y-459425D01*
X-46266Y-457200D01*
X-46559Y-454975D01*
X-47418Y-452901D01*
X-48785Y-451121D01*
X-50565Y-449754D01*
X-52639Y-448895D01*
X-54864Y-448602D01*
D02*
G37*
%LPD*%
G36*
X-321256Y125168D02*
Y103616D01*
X-325842Y99030D01*
X-345709D01*
X-350012Y94727D01*
Y84567D01*
Y82503D01*
X-351282Y81233D01*
Y71809D01*
X-371533D01*
X-371856Y72133D01*
Y106589D01*
X-350683Y127762D01*
X-323850D01*
X-321256Y125168D01*
D02*
G37*
G36*
X448315Y5725D02*
Y-19061D01*
X443825Y-23551D01*
X435922D01*
X433154Y-20782D01*
Y-1744D01*
X425326Y6084D01*
Y8958D01*
X425318Y9310D01*
X426403Y10395D01*
X443645D01*
X448315Y5725D01*
D02*
G37*
G36*
X401643Y1414D02*
X409520D01*
X414793Y6688D01*
X421848D01*
X424248Y4288D01*
X424186Y-17686D01*
Y-21996D01*
X418501Y-27682D01*
X387968D01*
X379706Y-19420D01*
Y5366D01*
X381502Y7162D01*
X395895D01*
X401643Y1414D01*
D02*
G37*
G36*
X167267Y-272958D02*
X168364Y-273953D01*
Y-289399D01*
X168541Y-290291D01*
X169047Y-291047D01*
X175891Y-297892D01*
X174694Y-299089D01*
X176316Y-300711D01*
X124336Y-352691D01*
X123831Y-353447D01*
X123653Y-354339D01*
Y-394310D01*
X123235Y-394662D01*
X122007Y-394090D01*
X121965Y-394030D01*
Y-317957D01*
X167004Y-272918D01*
X167267Y-272958D01*
D02*
G37*
G36*
X82394Y-276863D02*
Y-293708D01*
X68462D01*
Y-289012D01*
X70156D01*
Y-288798D01*
X71802D01*
Y-281178D01*
X70791D01*
X69712Y-280092D01*
X69850Y-279400D01*
X69534Y-277814D01*
X68636Y-276470D01*
X67292Y-275572D01*
X65706Y-275256D01*
X64120Y-275572D01*
X62776Y-276470D01*
X61878Y-277814D01*
X61562Y-279400D01*
X61685Y-280017D01*
X60908Y-280964D01*
X60908D01*
Y-289012D01*
X62246D01*
Y-293708D01*
X61830D01*
Y-312756D01*
X76023D01*
Y-322429D01*
X72615Y-325837D01*
X51510D01*
X51110Y-325238D01*
X49766Y-324340D01*
X48180Y-324024D01*
X47855Y-324089D01*
X46823Y-323188D01*
Y-316698D01*
X48093Y-316313D01*
X48298Y-316620D01*
X49642Y-317518D01*
X51228Y-317834D01*
X52814Y-317518D01*
X54158Y-316620D01*
X55056Y-315276D01*
X55372Y-313690D01*
X55140Y-312525D01*
X55016Y-311306D01*
X55016Y-311306D01*
X55016Y-311306D01*
Y-293158D01*
X48806D01*
X48320Y-291985D01*
X50115Y-290190D01*
X50620Y-289434D01*
X50797Y-288542D01*
Y-275844D01*
X50620Y-274952D01*
X50115Y-274196D01*
X45035Y-269116D01*
X44278Y-268611D01*
X43749Y-268505D01*
X43874Y-267235D01*
X72766D01*
X82394Y-276863D01*
D02*
G37*
G36*
X-6498Y-285826D02*
X-5384Y-286202D01*
X-3854Y-287732D01*
X-3098Y-288237D01*
X-2206Y-288415D01*
X-1056D01*
Y-290190D01*
X-1056Y-290708D01*
X-1056D01*
Y-291460D01*
X-1056D01*
Y-292976D01*
X-3302D01*
X-4491Y-293213D01*
X-5500Y-293887D01*
X-6307Y-294694D01*
X-9647D01*
X-10068Y-294778D01*
X-11748D01*
Y-294653D01*
X-21623D01*
Y-285951D01*
X-11748D01*
Y-285826D01*
X-6498D01*
Y-285826D01*
D02*
G37*
G36*
X-1056Y-299943D02*
Y-300708D01*
X-140D01*
Y-306606D01*
X-1244D01*
Y-315854D01*
X-1030D01*
Y-317500D01*
X6590D01*
Y-316363D01*
X7619Y-315272D01*
X8128Y-315374D01*
X9714Y-315058D01*
X11002Y-314198D01*
X11325Y-314263D01*
X12272Y-314629D01*
Y-324609D01*
X8633Y-328248D01*
X-5661D01*
X-6785Y-327124D01*
X-6259Y-325854D01*
X-5756D01*
Y-317124D01*
X-5756Y-316606D01*
X-5756D01*
Y-315854D01*
X-5756D01*
Y-306606D01*
X-7494D01*
X-7626Y-305940D01*
X-8131Y-305184D01*
X-11219Y-302096D01*
X-10693Y-300826D01*
X-10068D01*
X-9647Y-300910D01*
X-5020D01*
X-3831Y-300673D01*
X-2823Y-300000D01*
X-2326Y-299503D01*
X-1056Y-299943D01*
D02*
G37*
D12*
X-331953Y282454D02*
G03*
X-418904Y-125252I336491J-284888D01*
G01*
X-330497Y297627D02*
G03*
X-423756Y-129903I344358J-299053D01*
G01*
X-334032Y304270D02*
G03*
X-449003Y-3462I354352J-307732D01*
G01*
X-342248Y306722D02*
G03*
X-437402Y-132922I352943J-306508D01*
G01*
X-423756Y-129903D02*
G03*
X-419702Y-133957I4054J0D01*
G01*
X-449003Y-3462D02*
G03*
X-430265Y-132314I452386J-0D01*
G01*
X-418582Y-125749D02*
X-417606Y-127254D01*
X-418904Y-125252D02*
X-418582Y-125749D01*
X-419702Y-133957D02*
X-407670D01*
X-154940Y-55880D02*
G03*
X-164940Y-55880I-5000J0D01*
G01*
X66501Y-180197D02*
G03*
X59430Y-173125I-3536J3536D01*
G01*
X248801Y299011D02*
G03*
X241730Y291940I-3536J-3536D01*
G01*
X198374Y113124D02*
G03*
X198374Y103124I0J-5000D01*
G01*
X48768Y-128270D02*
G03*
X48768Y-138270I0J-5000D01*
G01*
X176370Y121412D02*
G03*
X166370Y121412I-5000J0D01*
G01*
X-153147Y-16430D02*
G03*
X-146076Y-9359I3536J3536D01*
G01*
X-222297Y100363D02*
G03*
X-229368Y93292I-3536J-3536D01*
G01*
X-254915Y67804D02*
G03*
X-254915Y77804I0J5000D01*
G01*
X-174264Y307868D02*
G03*
X-181336Y314940I-3536J3536D01*
G01*
X-42164Y466598D02*
G03*
X-49235Y473669I-3536J3536D01*
G01*
X-151216Y277454D02*
G03*
X-144350Y270588I3433J-3433D01*
G01*
X308004Y380662D02*
G03*
X332652Y359489I12544J-10330D01*
G01*
X-207616Y-443945D02*
G03*
X-236516Y-429099I-14634J7065D01*
G01*
X49167Y-183388D02*
X59430Y-173125D01*
X-58928Y-183388D02*
X49167D01*
X-154940Y-87376D02*
Y-55880D01*
X53404Y-193294D02*
X66501Y-180196D01*
X-154940Y-87376D02*
X-58928Y-183388D01*
X-164940Y-91518D02*
X-63164Y-193294D01*
X53404D01*
X-164940Y-91518D02*
Y-55880D01*
X248801Y299011D02*
X334026Y213786D01*
X324026Y148176D02*
Y209644D01*
X198374Y103124D02*
X293116D01*
X198374Y113124D02*
X288974D01*
X241730Y291940D02*
X324026Y209644D01*
X334026Y144034D02*
Y213786D01*
X293116Y103124D02*
X334026Y144034D01*
X288974Y113124D02*
X324026Y148176D01*
X166370Y-51562D02*
Y121412D01*
X48768Y-128270D02*
X89662D01*
X48768Y-138270D02*
X93804D01*
X176370Y-55704D02*
Y121412D01*
X93804Y-138270D02*
X176370Y-55704D01*
X89662Y-128270D02*
X166370Y-51562D01*
X-212360Y76284D02*
X-190226Y54150D01*
X-229368Y93292D02*
X-212360Y76284D01*
X-222297Y100363D02*
X-202360Y80427D01*
X-179832Y24397D02*
Y57899D01*
Y24397D02*
X-146076Y-9359D01*
X-202360Y80427D02*
X-179832Y57899D01*
X-190226Y20649D02*
X-153147Y-16430D01*
X-190226Y20649D02*
Y54150D01*
X-195834Y258998D02*
Y300441D01*
X-278968Y77804D02*
X-254915D01*
X-295910Y93462D02*
Y144780D01*
X-305910Y89320D02*
Y148922D01*
Y89320D02*
X-285973Y69383D01*
X-284394Y67804D02*
X-282437D01*
X-283110D02*
X-254915D01*
X-285973Y69383D02*
X-284394Y67804D01*
X-185166Y296967D02*
X-174264Y307868D01*
X-305910Y148922D02*
X-195834Y258998D01*
X-280252Y77804D02*
X-278968D01*
X-185166Y255524D02*
Y296967D01*
X-295910Y93462D02*
X-280252Y77804D01*
X-295910Y144780D02*
X-185166Y255524D01*
X-195834Y300441D02*
X-181336Y314940D01*
X-144350Y270588D02*
X-52070Y362868D01*
X-151216Y277454D02*
X-62070Y366600D01*
X-52070Y362868D02*
Y456692D01*
X-62070Y366600D02*
Y460834D01*
X-52070Y456692D02*
X-42164Y466598D01*
X-62070Y460834D02*
X-49235Y473669D01*
X308004Y380662D02*
X320548Y370332D01*
X-236516Y-429099D02*
X-222250Y-436880D01*
X-207616Y-443945D01*
X320548Y370332D02*
X332652Y359489D01*
D16*
X-345012Y61707D02*
Y74661D01*
Y47578D02*
Y61707D01*
Y47578D02*
X-344932Y47498D01*
X-385064Y77423D02*
X-380650D01*
X-380412Y77185D01*
X424488Y33799D02*
Y44176D01*
X489746Y0D02*
G03*
X489746Y0I-490000J0D01*
G01*
D18*
X-380333Y28956D02*
Y36467D01*
X-396868Y77423D02*
X-385064D01*
X197358Y-74168D02*
X208468D01*
X212932Y-90932D02*
Y-78632D01*
X208468Y-74168D02*
X212932Y-78632D01*
Y-90932D02*
X212968Y-90968D01*
Y-105852D02*
X213004Y-105888D01*
X212968Y-105852D02*
Y-90968D01*
X298704Y-98806D02*
Y-75704D01*
X291377Y-106133D02*
X298704Y-98806D01*
X279066Y-106133D02*
X291377D01*
X90221Y357683D02*
X94762Y362225D01*
X74676Y361716D02*
X79217Y357175D01*
X68803Y347249D02*
X73345Y342707D01*
X56611Y335565D02*
X61153Y331023D01*
X2265Y361716D02*
X10861Y353121D01*
X34388Y329987D02*
X38929Y325446D01*
X25105Y320589D02*
X29646Y316048D01*
X-6858Y352237D02*
X1737Y343642D01*
X-254816Y337966D02*
X-240840Y323989D01*
Y292639D02*
Y323989D01*
X-189822Y346423D02*
X-188585Y345186D01*
X-217067Y346423D02*
X-189822D01*
X-231713Y361069D02*
X-217067Y346423D01*
X-294767Y320383D02*
X-247396Y367754D01*
X422624Y57689D02*
X424488Y55825D01*
Y44176D02*
Y55825D01*
X-217189Y-115686D02*
X-209835Y-108332D01*
X-204743Y-128132D02*
X-197389Y-120778D01*
X-151392Y-190606D02*
X-144038Y-183252D01*
X-160967Y-181950D02*
X-153613Y-174596D01*
X93706Y378988D02*
X98247Y383530D01*
X101834Y369296D02*
X106375Y373837D01*
X84307Y370353D02*
X88849Y365811D01*
X-74930Y317754D02*
X-66802Y325882D01*
Y326009D01*
X-51524Y268440D02*
Y268794D01*
Y268440D02*
X-7874Y224790D01*
X464555Y57689D02*
X467684Y54561D01*
X453624Y57689D02*
X464555D01*
X446160Y26889D02*
Y37335D01*
X-238398Y367754D02*
X-231713Y361069D01*
X-247396Y367754D02*
X-238398D01*
X1737Y343642D02*
X2052D01*
X-96551Y42957D02*
X-92263Y47244D01*
X-88239D01*
X-75616Y59868D01*
X-136845Y83505D02*
X-132080Y88269D01*
Y91085D01*
X-119456Y103708D01*
D30*
X226448Y-179070D02*
D03*
X211448D02*
D03*
X226448Y-195834D02*
D03*
X211448D02*
D03*
X-339972Y89647D02*
D03*
X-354972Y89647D02*
D03*
X-411868Y77423D02*
D03*
X-396868D02*
D03*
X-43568Y-406400D02*
D03*
X-28568D02*
D03*
D31*
X65354Y-303232D02*
D03*
X71854D02*
D03*
X78354D02*
D03*
X84854D02*
D03*
Y-361232D02*
D03*
X78354D02*
D03*
X71854D02*
D03*
X65354D02*
D03*
D32*
X-344932Y47498D02*
D03*
X-335432Y27498D02*
D03*
X-354432D02*
D03*
D33*
X-380333Y36467D02*
D03*
X-380333Y46467D02*
D03*
D34*
X-370412Y62485D02*
D03*
X-375412D02*
D03*
X-380412D02*
D03*
Y77185D02*
D03*
X-375412D02*
D03*
X-370412Y77185D02*
D03*
D35*
X-355012Y74661D02*
D03*
X-345012Y74661D02*
D03*
X222932Y-90932D02*
D03*
X212932D02*
D03*
X-355012Y61707D02*
D03*
X-345012D02*
D03*
D36*
X213004Y-133888D02*
D03*
X222504D02*
D03*
X232004D02*
D03*
Y-105888D02*
D03*
X213004D02*
D03*
D37*
X378346Y81166D02*
D03*
X391782Y94601D02*
D03*
D38*
X215527Y-312671D02*
D03*
X209163Y-306307D02*
D03*
X204769Y-323473D02*
D03*
X198405Y-317109D02*
D03*
D39*
X357389Y-245121D02*
D03*
X367996Y-255728D02*
D03*
X-96551Y42957D02*
D03*
X-107157Y53563D02*
D03*
X68803Y347249D02*
D03*
X58197Y357855D02*
D03*
X-126238Y72898D02*
D03*
X-136845Y83505D02*
D03*
X56611Y335565D02*
D03*
X46005Y346171D02*
D03*
X-336073Y158019D02*
D03*
X-346679Y168625D02*
D03*
X334549Y45943D02*
D03*
X345155Y35337D02*
D03*
X317977Y2571D02*
D03*
X307371Y13177D02*
D03*
D40*
X235152Y-234731D02*
D03*
X256365Y-213518D02*
D03*
X228081Y-241802D02*
D03*
X249294Y-220589D02*
D03*
X242223Y-227660D02*
D03*
D41*
X365083Y-286173D02*
D03*
X300736Y-350520D02*
D03*
D42*
X356951Y-278041D02*
D03*
X349880Y-270970D02*
D03*
X342809Y-263899D02*
D03*
X335738Y-256828D02*
D03*
X328667Y-249757D02*
D03*
X321596Y-242686D02*
D03*
X314524Y-235615D02*
D03*
X307453Y-228544D02*
D03*
X300382Y-221473D02*
D03*
X293311Y-214402D02*
D03*
X286240Y-207331D02*
D03*
X279169Y-200260D02*
D03*
X292604Y-342388D02*
D03*
X285533Y-335317D02*
D03*
X278462Y-328246D02*
D03*
X271391Y-321175D02*
D03*
X264320Y-314104D02*
D03*
X257249Y-307033D02*
D03*
X250178Y-299962D02*
D03*
X243107Y-292891D02*
D03*
X236036Y-285820D02*
D03*
X228965Y-278749D02*
D03*
X221894Y-271678D02*
D03*
X214823Y-264606D02*
D03*
D43*
X187880Y-306585D02*
D03*
X180809Y-299513D02*
D03*
X198660Y-295805D02*
D03*
X191589Y-288734D02*
D03*
X228584Y-323581D02*
D03*
X235655Y-330652D02*
D03*
X-277855Y336745D02*
D03*
X-270784Y329674D02*
D03*
X-298216Y288780D02*
D03*
X-305287Y295851D02*
D03*
X84307Y370353D02*
D03*
X77236Y377424D02*
D03*
X93706Y378988D02*
D03*
X86634Y386060D02*
D03*
X74676Y361716D02*
D03*
X67605Y368788D02*
D03*
X54630Y435590D02*
D03*
X61701Y428518D02*
D03*
X54651Y435569D02*
D03*
X61722Y428498D02*
D03*
X70518Y419608D02*
D03*
X77589Y412537D02*
D03*
X34388Y329987D02*
D03*
X27317Y337058D02*
D03*
X-6858Y352237D02*
D03*
X-13929Y359308D02*
D03*
X-67077Y-333736D02*
D03*
X-74148Y-326664D02*
D03*
X25105Y320589D02*
D03*
X18034Y327660D02*
D03*
X2052Y343642D02*
D03*
X9124Y336570D02*
D03*
X11258Y353078D02*
D03*
X18329Y346007D02*
D03*
X2265Y361716D02*
D03*
X-4806Y368788D02*
D03*
D44*
X270885Y-365881D02*
D03*
X248965Y-343961D02*
D03*
X-73444Y290714D02*
D03*
X-51524Y268794D02*
D03*
X-7874Y224790D02*
D03*
X14046Y202870D02*
D03*
X34960Y222584D02*
D03*
X56880Y200664D02*
D03*
D45*
X-61794Y-384867D02*
D03*
X-70794D02*
D03*
D46*
X-160782Y436628D02*
D03*
Y427988D02*
D03*
X-11938Y414719D02*
D03*
Y423359D02*
D03*
D47*
X-183660Y137593D02*
D03*
X-163154Y158099D02*
D03*
X-116624Y-339382D02*
D03*
X-94704Y-317462D02*
D03*
D48*
X-92476Y-252513D02*
D03*
X-99548Y-259584D02*
D03*
X-251401Y-385592D02*
D03*
X-258472Y-392664D02*
D03*
X-158476Y-197591D02*
D03*
X-151404Y-190520D02*
D03*
X-168050Y-188935D02*
D03*
X-160979Y-181864D02*
D03*
X94762Y362225D02*
D03*
X101834Y369296D02*
D03*
X-131552Y-225278D02*
D03*
X-124480Y-218206D02*
D03*
X-115336Y-227096D02*
D03*
X-122408Y-234167D02*
D03*
D49*
X-188468Y-410116D02*
D03*
Y-420116D02*
D03*
D50*
X306308Y-10826D02*
D03*
X290752Y4730D02*
D03*
D51*
X322548Y30352D02*
D03*
X335983Y16917D02*
D03*
X431250Y127313D02*
D03*
X444686Y113878D02*
D03*
X414078Y110140D02*
D03*
X427513Y96706D02*
D03*
D52*
X-17526Y-259588D02*
D03*
Y-239588D02*
D03*
X-39526D02*
D03*
Y-259588D02*
D03*
D53*
X-17526Y-249588D02*
D03*
X-39526D02*
D03*
D54*
X31492Y-362232D02*
D03*
X37992D02*
D03*
X44492D02*
D03*
X50992D02*
D03*
Y-302232D02*
D03*
X44492D02*
D03*
X37992D02*
D03*
X31492D02*
D03*
D55*
X-24772Y-287802D02*
D03*
Y-292802D02*
D03*
X-9772Y-287802D02*
D03*
Y-292802D02*
D03*
X-24897Y-297802D02*
D03*
Y-282802D02*
D03*
X-9647D02*
D03*
Y-297802D02*
D03*
D56*
X-14772Y-282802D02*
D03*
X-19772D02*
D03*
X-14772Y-297802D02*
D03*
X-19772D02*
D03*
D57*
X3048Y-249508D02*
D03*
Y-259508D02*
D03*
X-22225Y-311230D02*
D03*
Y-321230D02*
D03*
X2968Y-286084D02*
D03*
Y-296084D02*
D03*
X-9779Y-311230D02*
D03*
Y-321230D02*
D03*
X-40640Y-285576D02*
D03*
Y-295576D02*
D03*
X2780Y-321230D02*
D03*
Y-311230D02*
D03*
X253746Y-135183D02*
D03*
Y-145183D02*
D03*
X446160Y26889D02*
D03*
Y16889D02*
D03*
X405569Y-1430D02*
D03*
Y8570D02*
D03*
X-147066Y-394034D02*
D03*
Y-404034D02*
D03*
X178308Y-133978D02*
D03*
Y-143978D02*
D03*
X-161036Y390318D02*
D03*
Y380318D02*
D03*
Y403686D02*
D03*
Y413686D02*
D03*
X-11938Y446532D02*
D03*
Y436532D02*
D03*
X-10160Y383446D02*
D03*
Y393446D02*
D03*
X-23622Y383446D02*
D03*
Y393446D02*
D03*
X-160020Y-394114D02*
D03*
Y-404114D02*
D03*
D58*
X75532Y-284988D02*
D03*
X65532D02*
D03*
X41750Y-285242D02*
D03*
X31750D02*
D03*
X-33448Y-227684D02*
D03*
X-23448D02*
D03*
X-98138Y-384867D02*
D03*
X-88138D02*
D03*
X279066Y-106133D02*
D03*
X269066D02*
D03*
D59*
X-254836Y337947D02*
D03*
X-231713Y361069D02*
D03*
D60*
X-287399Y299141D02*
D03*
X-273964Y312576D02*
D03*
X-294824Y320001D02*
D03*
D61*
X387788Y20793D02*
D03*
Y1793D02*
D03*
D62*
X103011Y424039D02*
D03*
X64121Y462929D02*
D03*
D63*
X27914Y376209D02*
D03*
X24378Y379745D02*
D03*
X31449Y372674D02*
D03*
X17307Y386816D02*
D03*
X13772Y390351D02*
D03*
X20843Y383280D02*
D03*
X45238Y414747D02*
D03*
X52309Y407676D02*
D03*
X59380Y400605D02*
D03*
X48774Y411211D02*
D03*
X55845Y404140D02*
D03*
X41702Y418282D02*
D03*
D64*
X48774Y379745D02*
D03*
X45238Y376209D02*
D03*
X52309Y383280D02*
D03*
X41702Y372674D02*
D03*
X13772Y400605D02*
D03*
X17307Y404140D02*
D03*
X20843Y407676D02*
D03*
X24378Y411211D02*
D03*
X59380Y390351D02*
D03*
X55845Y386816D02*
D03*
X27914Y414747D02*
D03*
X31449Y418282D02*
D03*
D65*
X36576Y395478D02*
D03*
D66*
X-75616Y59868D02*
D03*
X-119456Y103708D02*
D03*
D67*
X-75215Y317469D02*
D03*
X-85821Y306863D02*
D03*
X-312959Y-325151D02*
D03*
X-323565Y-335757D02*
D03*
X-325374Y-312928D02*
D03*
X-335981Y-323535D02*
D03*
X-239960Y-114269D02*
D03*
X-229354Y-103663D02*
D03*
X-227807Y-126207D02*
D03*
X-217201Y-115601D02*
D03*
X-204755Y-128047D02*
D03*
X-215361Y-138653D02*
D03*
X-311119Y-348203D02*
D03*
X-300513Y-337597D02*
D03*
X-180450Y171537D02*
D03*
X-191056Y160931D02*
D03*
X-273781Y-385287D02*
D03*
X-263175Y-374681D02*
D03*
X-288067Y-350043D02*
D03*
X-298673Y-360649D02*
D03*
X-275875Y-362489D02*
D03*
X-286481Y-373095D02*
D03*
D68*
X439917Y-7925D02*
D03*
X417918D02*
D03*
D69*
X429488Y33799D02*
D03*
X419488Y33799D02*
D03*
X424488D02*
D03*
X429488Y14799D02*
D03*
X419488D02*
D03*
X424488D02*
D03*
X414488Y33799D02*
D03*
Y14799D02*
D03*
D70*
X421988Y24299D02*
D03*
D71*
X253746Y-106133D02*
D03*
Y-121133D02*
D03*
X194330Y-148978D02*
D03*
Y-133978D02*
D03*
D72*
X-145542Y-429442D02*
D03*
Y-420442D02*
D03*
X-161544D02*
D03*
Y-429442D02*
D03*
D73*
X422624Y57689D02*
D03*
X453624D02*
D03*
D74*
X298704Y-75704D02*
D03*
Y-35704D02*
D03*
D75*
X-83547Y-343135D02*
D03*
X-97301Y-356889D02*
D03*
D76*
X-39114Y366014D02*
D03*
Y340614D02*
D03*
X-134114Y366014D02*
D03*
Y340614D02*
D03*
X-39114Y411226D02*
D03*
Y385826D02*
D03*
X-134114Y411226D02*
D03*
Y385826D02*
D03*
X-38606Y455930D02*
D03*
Y430530D02*
D03*
X-133606Y455930D02*
D03*
Y430530D02*
D03*
D77*
X-315749Y171891D02*
D03*
X-333710Y189851D02*
D03*
X-279828Y135970D02*
D03*
X-267241Y256320D02*
D03*
X-213360Y202438D02*
D03*
D78*
X-305785Y-14944D02*
D03*
X-266161D02*
D03*
D79*
X-132651Y-315304D02*
D03*
X-141631Y-324285D02*
D03*
X-123671Y-306324D02*
D03*
X-168572Y-351225D02*
D03*
X-159592Y-342245D02*
D03*
X-150612Y-333265D02*
D03*
X-177552Y-360205D02*
D03*
X-195513Y-378166D02*
D03*
X-186533Y-369186D02*
D03*
D80*
X-127277Y-256049D02*
D03*
X-136257Y-247068D02*
D03*
X-118297Y-265029D02*
D03*
X-249394Y-360205D02*
D03*
X-258375Y-351225D02*
D03*
X-231434Y-378166D02*
D03*
X-240414Y-369186D02*
D03*
X-154218Y-229108D02*
D03*
X-145238Y-238088D02*
D03*
X-163198Y-220128D02*
D03*
X-172178Y-211147D02*
D03*
X-181159Y-202167D02*
D03*
X-190139Y-193187D02*
D03*
X-267355Y-342245D02*
D03*
X-276335Y-333265D02*
D03*
X-303276Y-306324D02*
D03*
X-285315Y-324285D02*
D03*
X-294296Y-315304D02*
D03*
D145*
X-437402Y-132922D02*
G03*
X-423765Y-146558I13636J0D01*
G01*
X-430265Y-132314D02*
G03*
X-422642Y-139937I7623J-0D01*
G01*
X-145221Y-256032D02*
X-136257Y-247068D01*
X-380412Y62485D02*
X-380372Y62446D01*
Y46507D02*
Y62446D01*
Y46507D02*
X-380333Y46467D01*
X-380412Y62485D02*
Y67133D01*
X-375412Y72133D01*
Y77185D01*
X-370412Y56060D02*
X-360659D01*
X-374142D02*
X-370412D01*
X-360659D02*
X-355012Y61707D01*
X-375412Y57330D02*
Y62485D01*
Y57330D02*
X-374142Y56060D01*
X-375412Y62485D02*
X-375412Y62485D01*
X-370412Y56060D02*
Y62485D01*
X-370412Y62485D01*
X-331953Y282454D02*
X-304543D01*
X-298010Y288530D02*
X-287399Y299141D01*
X-298216Y288780D02*
X-298216D01*
X-304543Y282454D02*
X-298216Y288780D01*
X-330497Y297627D02*
X-239758Y388366D01*
X-204388D01*
X-241554Y396748D02*
X-180110D01*
X-334032Y304270D02*
X-241554Y396748D01*
X-236728Y412242D02*
X-201619D01*
X-342248Y306722D02*
X-236728Y412242D01*
X-204388Y388366D02*
X-156636Y340614D01*
X-180110Y396748D02*
X-180110Y396748D01*
X-201619Y412242D02*
X-188976Y424885D01*
Y424885D01*
X-176553Y437308D01*
X-160782D02*
X-151558D01*
X-176553D02*
X-160782D01*
X-92476Y-252513D02*
X-83812Y-243848D01*
X34591Y-443945D02*
X46736Y-431800D01*
X28448Y-443945D02*
X34591D01*
X12192Y-443992D02*
X28401D01*
X28448Y-443945D01*
X8382Y-440182D02*
X12192Y-443992D01*
X8382Y-440182D02*
Y-390452D01*
X-38608Y-366268D02*
X-15802D01*
X8382Y-390452D01*
X-44176Y-360700D02*
Y-329458D01*
Y-360700D02*
X-38608Y-366268D01*
X-86360Y-287274D02*
X-44176Y-329458D01*
X-122408Y-234167D02*
X-122408D01*
X-114767Y-241808D01*
X-107264D01*
X-203708Y-370078D02*
X-195620Y-378166D01*
X-156636Y340614D02*
X-134114D01*
X-302224Y-322834D02*
X-294694Y-315304D01*
X-294296D01*
X325488Y55372D02*
X336684Y44176D01*
X-423765Y-146558D02*
X-392176D01*
X-422642Y-139937D02*
X-399926D01*
X-423245D02*
X-422642D01*
X307371Y13177D02*
Y13431D01*
X295402Y25400D02*
X307371Y13431D01*
X-196800Y-53964D02*
Y-28300D01*
Y-71109D02*
Y-53964D01*
X187880Y-306585D02*
X198405Y-317109D01*
X198660Y-295805D02*
X209163Y-306307D01*
Y-306307D02*
Y-306307D01*
X-99548Y-259584D02*
X-94996Y-264136D01*
Y-264160D02*
Y-264136D01*
X311499Y41402D02*
X322548Y30352D01*
X418501Y39491D02*
X419488Y38503D01*
Y33799D02*
Y38503D01*
X-73444Y294485D02*
X-71597Y292639D01*
X-85821Y306863D02*
X-73444Y294485D01*
X-45720Y318516D02*
X-34544D01*
X-71597Y292639D02*
X-45720Y318516D01*
X-73444Y290714D02*
Y294485D01*
X-34544Y318516D02*
X-18694Y334366D01*
Y354543D01*
X15494Y370974D02*
X24322Y379801D01*
X0Y327660D02*
X9144Y336804D01*
X-116332Y44450D02*
X-107188Y53594D01*
X-4806Y368788D02*
X41Y373634D01*
X1424D01*
X7620Y379830D01*
Y384200D01*
X13772Y390351D01*
X444070Y14799D02*
X446160Y16889D01*
X429488Y14799D02*
X444070D01*
X424488Y11232D02*
X426403Y9317D01*
X424488Y11232D02*
Y14799D01*
X15494Y363220D02*
X26769Y351945D01*
Y349071D02*
Y351945D01*
X15494Y363220D02*
Y370974D01*
X18329Y346007D02*
X23705D01*
X26769Y349071D01*
X18329Y345776D02*
Y346007D01*
X9124Y336570D02*
X18329Y345776D01*
X20574Y365324D02*
X31849Y354049D01*
X27317Y342434D02*
X31849Y346967D01*
X20574Y365324D02*
Y368869D01*
X27914Y376209D01*
X31849Y346967D02*
Y354049D01*
X27317Y337058D02*
Y342434D01*
Y336942D02*
Y337058D01*
X18034Y327660D02*
X27317Y336942D01*
X9144Y318770D02*
X18034Y327660D01*
X-135382Y63754D02*
X-126238Y72898D01*
X-303276Y-306324D02*
X-293370Y-296418D01*
Y-216662D01*
X-215361Y-138653D01*
X-215361D02*
X-215361D01*
X-227807Y-126207D02*
X-215361Y-138653D01*
X-228022Y-126207D02*
X-227807D01*
X-239960Y-114269D02*
X-228022Y-126207D01*
X-229354Y-103663D02*
X-196800Y-71109D01*
X-180110Y396748D02*
X-154178D01*
X-143256Y385826D01*
X-134114D01*
X-149352Y411226D02*
X-134114D01*
X-151812Y413686D02*
X-149352Y411226D01*
X-161036Y413686D02*
X-151812D01*
X-144780Y430530D02*
X-133606D01*
X-151558Y437308D02*
X-144780Y430530D01*
X82804Y389890D02*
X86634Y386060D01*
X76708Y389890D02*
X82804D01*
X72878Y386060D02*
X76708Y389890D01*
X63672Y386060D02*
X72878D01*
X59380Y390351D02*
X63672Y386060D01*
X73914Y380746D02*
X77236Y377424D01*
X61915Y380746D02*
X73914D01*
X55845Y386816D02*
X61915Y380746D01*
X61234Y375158D02*
X67605Y368788D01*
X53360Y375158D02*
X61234D01*
X48774Y379745D02*
X53360Y375158D01*
X56521Y357855D02*
X58197D01*
X41702Y372674D02*
X56521Y357855D01*
X31449Y372674D02*
X39878Y364245D01*
Y352298D02*
Y364245D01*
Y352298D02*
X46005Y346171D01*
X-18694Y354543D02*
X-13929Y359308D01*
Y359664D01*
X-4806Y368788D01*
X-195620Y-378166D02*
X-195513D01*
D146*
X-271364Y38000D02*
X-266699Y35873D01*
X-253340Y29783D01*
X-271364Y38000D02*
X-251023Y46672D01*
X-266308Y36730D02*
X-254372Y34139D01*
X-265879Y38437D02*
X-254992Y41421D01*
X-265276Y38525D02*
X-253340Y35934D01*
X232004Y-105888D02*
X232249Y-106133D01*
X253746D01*
X269066D01*
X-11938Y424039D02*
X-6209D01*
X284226Y11256D02*
X290752Y4730D01*
X-197325Y-47876D02*
X-194734Y-35940D01*
X-200221Y-37592D02*
X-197237Y-48479D01*
X-195530Y-48908D02*
X-192939Y-36972D01*
X-205472Y-33623D02*
X-196800Y-53964D01*
X-194673Y-49299D02*
X-188583Y-35940D01*
X-196800Y-53964D02*
X-194673Y-49299D01*
X271391Y-321355D02*
Y-321175D01*
X248965Y-343781D02*
X271391Y-321355D01*
X248965Y-343961D02*
Y-343781D01*
X256093Y-322331D02*
X264320Y-314104D01*
X256093Y-327381D02*
Y-322331D01*
Y-327381D02*
X260639Y-331927D01*
X264320Y-314104D02*
X264320D01*
X-420045Y77423D02*
X-411868D01*
X-61794Y-395099D02*
Y-384867D01*
X245700Y-38000D02*
X259750Y-52049D01*
X256912Y-37592D02*
X262052Y-51345D01*
X243332Y-47896D02*
X258860Y-54141D01*
X249851Y-46990D02*
X259660Y-52578D01*
X254562Y-41402D02*
X261170Y-51674D01*
X-188468Y-428498D02*
Y-420116D01*
X-9772Y-290302D02*
X-5334D01*
X-146478Y456264D02*
X-133096D01*
X-270950Y329726D02*
X-265079Y323856D01*
X-274021Y312519D02*
X-268150Y306649D01*
X-311101Y301778D02*
X-305231Y295908D01*
X-169338Y390478D02*
X-161036D01*
X-169338Y403432D02*
X-161036D01*
X306308Y-10826D02*
X317977Y843D01*
Y2571D01*
X-257048Y-112014D02*
X-219456Y-74422D01*
X417918Y-7925D02*
X419488Y-6355D01*
Y14799D01*
X69596Y402844D02*
Y402910D01*
X63672Y408833D02*
X69596Y402910D01*
X60538Y408833D02*
X63672D01*
X55845Y404140D02*
X60538Y408833D01*
X-6110Y436532D02*
X-6096Y436546D01*
X-11938Y436532D02*
X-6110D01*
X-6209Y424039D02*
X-6096Y423926D01*
X15504Y377942D02*
X20843Y383280D01*
X9672Y372110D02*
X15504Y377942D01*
Y377985D01*
X12997Y380492D02*
X15504Y377985D01*
X12997Y380492D02*
Y382506D01*
X17307Y386816D01*
X9652Y372110D02*
X9672D01*
X-301244Y-267462D02*
Y-210870D01*
X-344170Y-310388D02*
X-301244Y-267462D01*
X-344170Y-315345D02*
Y-310388D01*
X-301244Y-210870D02*
X-257048Y-166674D01*
Y-112014D01*
X-344170Y-315345D02*
X-335981Y-323535D01*
X-33448Y-227684D02*
Y-221488D01*
X-39526Y-233762D02*
X-33448Y-227684D01*
X-39526Y-239588D02*
Y-233762D01*
X-23448Y-227684D02*
Y-221488D01*
Y-227684D02*
X-17526Y-233606D01*
Y-239588D02*
Y-233606D01*
X432869Y40209D02*
X435383D01*
X429488Y36828D02*
X432869Y40209D01*
X429488Y33799D02*
Y36828D01*
X-169164Y427228D02*
X-169084Y427308D01*
X-160782D01*
X-10158Y383540D02*
X1524D01*
X-39116Y385828D02*
Y397510D01*
X-39114Y340614D02*
X-27432D01*
X66040Y424086D02*
Y424180D01*
Y424086D02*
X70518Y419608D01*
X61722Y428498D02*
X66040Y424180D01*
X51054Y420563D02*
Y420624D01*
X45238Y414747D02*
X51054Y420563D01*
X51877Y369570D02*
X57288D01*
X45238Y376209D02*
X51877Y369570D01*
X-23622Y393194D02*
Y393446D01*
Y404876D01*
X-132651Y-315304D02*
X-125730Y-322225D01*
Y-330276D02*
Y-322225D01*
Y-330276D02*
X-116624Y-339382D01*
X-107264Y-348742D01*
X-105447D01*
X-97301Y-356889D01*
X-123671Y-306324D02*
X-118083Y-300736D01*
X-111052D01*
X-94704Y-317084D01*
Y-317462D02*
Y-317084D01*
X-83547Y-343135D02*
X-77924Y-337512D01*
X-70853D01*
X-67077Y-333736D01*
X-63033Y-329692D01*
X-9647Y-297802D02*
X-5020D01*
X-3302Y-296084D01*
X2968D01*
Y-311042D02*
Y-296084D01*
X2780Y-311230D02*
X2968Y-311042D01*
X2780Y-311230D02*
X8128D01*
X-30190Y-292802D02*
X-24772D01*
X-32964Y-295576D02*
X-30190Y-292802D01*
X-40640Y-295576D02*
X-32964D01*
X-46562D02*
X-40640D01*
X-46736Y-295402D02*
X-46562Y-295576D01*
X-24897Y-282802D02*
Y-277928D01*
X-9772Y-292802D02*
Y-290302D01*
Y-287802D01*
X-279382Y-390888D02*
X-273781Y-385287D01*
X-279382Y-390924D02*
Y-390888D01*
X-292082Y-378732D02*
Y-378696D01*
X-286481Y-373095D01*
X-316720Y-353840D02*
Y-353804D01*
X-311119Y-348203D01*
X-329166Y-341394D02*
Y-341358D01*
X-323565Y-335757D01*
X2780Y-321230D02*
X8048D01*
X8128Y-321310D01*
X-74148Y-326664D02*
X-70317Y-322834D01*
X-94704Y-317462D02*
X-89408Y-312166D01*
X-88900D01*
X-145238Y-238088D02*
X-144362D01*
X-131552Y-225278D01*
X-122662Y-234167D01*
X-122408D01*
X-161544Y-443484D02*
Y-429442D01*
X-145542Y-439674D02*
Y-429442D01*
X-258472Y-392664D02*
X-254762Y-396373D01*
Y-396748D02*
Y-396373D01*
X-40640Y-285576D02*
Y-279908D01*
X-48608Y-249588D02*
X-39526D01*
X-48768Y-249428D02*
X-48608Y-249588D01*
X-115336Y-227096D02*
X-111293Y-231140D01*
X-111252D01*
X-128524Y-214163D02*
X-124480Y-218206D01*
X-128524Y-214163D02*
Y-213868D01*
X31492Y-302232D02*
Y-285500D01*
X31750Y-285242D01*
X41750D02*
Y-279480D01*
X41830Y-279400D01*
X31750Y-285242D02*
X31924Y-285068D01*
Y-279654D01*
X65354Y-303232D02*
Y-285166D01*
X65532Y-284988D01*
Y-279574D01*
X65706Y-279400D01*
X75532Y-284988D02*
Y-279320D01*
X75358Y-279146D02*
X75532Y-279320D01*
X84854Y-373534D02*
Y-361232D01*
X78354Y-373534D02*
Y-361232D01*
X71854Y-373534D02*
Y-361232D01*
X65354Y-373534D02*
Y-361232D01*
X50992Y-374396D02*
Y-362232D01*
X-29101Y-302006D02*
X-24897Y-297802D01*
X-29210Y-302006D02*
X-29101D01*
X-80518Y-431546D02*
X-80264Y-431800D01*
X194330Y-148978D02*
X202003D01*
X253746Y-150518D02*
Y-145183D01*
D147*
X-98806Y-245538D02*
Y-219456D01*
X-118297Y-265029D02*
X-98806Y-245538D01*
X193294Y-175006D02*
X197358Y-179070D01*
X128016Y-175006D02*
X193294D01*
X-275621Y-362235D02*
X-263175Y-374681D01*
X211448Y-225178D02*
Y-195834D01*
X119634Y-316992D02*
X211448Y-225178D01*
X197358Y-179070D02*
X211448D01*
X278130D02*
X294640Y-195580D01*
X226448Y-179070D02*
X278130D01*
X119634Y-458216D02*
Y-316992D01*
X226448Y-195834D02*
X274743D01*
X279169Y-200260D01*
X-354592Y27338D02*
X-354584Y27330D01*
Y18034D02*
Y27330D01*
X-354592Y27338D02*
X-354432Y27498D01*
X-37535Y-355619D02*
Y-326719D01*
Y-355619D02*
X-32474Y-360680D01*
X-12446D01*
X-84854Y-279400D02*
X-37535Y-326719D01*
X-111252Y-279400D02*
X-84854D01*
X180809Y-299513D02*
Y-299513D01*
X125984Y-354339D02*
X180809Y-299513D01*
X125984Y-398526D02*
Y-354339D01*
X-12446Y-360680D02*
X25400Y-398526D01*
X83312D01*
X-220218Y-383286D02*
Y-366268D01*
X-257842Y-335026D02*
X-251460D01*
X-220218Y-366268D01*
X-267355Y-342245D02*
X-265061D01*
X-257842Y-335026D01*
X-197111Y-358607D02*
X-186533Y-369186D01*
X-240244Y-396749D02*
X-222250D01*
X-251401Y-385592D02*
X-240244Y-396749D01*
X-423262Y-139937D02*
X-423245Y-139937D01*
X-56896Y-366032D02*
Y-326898D01*
X-137414Y-292354D02*
X-91440D01*
X-56896Y-326898D01*
X-172720Y-257048D02*
X-137414Y-292354D01*
X-51054Y-363220D02*
Y-338074D01*
Y-363220D02*
X-40303Y-373971D01*
X-16738D01*
X-5842Y-384867D01*
X-56896Y-366032D02*
X-44722Y-378206D01*
X-127277Y-256049D02*
Y-256049D01*
X-136257Y-265029D02*
X-127277Y-256049D01*
X294640Y-198931D02*
Y-195580D01*
X286240Y-207331D02*
Y-207331D01*
X294640Y-198931D01*
X279169Y-200260D02*
X279169D01*
X170695Y-289399D02*
X180809Y-299513D01*
X170695Y-289399D02*
Y-273953D01*
X226013Y-218635D01*
X233197D01*
X242223Y-227660D01*
X191589Y-288734D02*
X199186Y-281137D01*
X212434D02*
X221894Y-271678D01*
X199186Y-281137D02*
X212434D01*
X178308Y-153670D02*
Y-143978D01*
X-154218Y-211147D02*
X-141631D01*
X-163198Y-220128D02*
X-163198D01*
X-154218Y-211147D01*
X44492Y-292517D02*
X48467Y-288542D01*
Y-275844D01*
X43387Y-270764D02*
X48467Y-275844D01*
X14224Y-270764D02*
X43387D01*
X-121412Y-401320D02*
X-105664D01*
X-100584Y-406400D02*
X-43568D01*
X-105664Y-401320D02*
X-100584Y-406400D01*
X-88138Y-384867D02*
X-70794D01*
X-109417D02*
X-98138D01*
X-112976Y-381308D02*
Y-358838D01*
Y-381308D02*
X-109417Y-384867D01*
X54651Y435569D02*
X57912Y438830D01*
X51308Y432226D02*
X54651Y435569D01*
X-287813Y-350043D02*
X-275621Y-362235D01*
X-161036Y371484D02*
Y380318D01*
Y371484D02*
X-155566Y366014D01*
X-134114D01*
X6613Y393446D02*
X13772Y400605D01*
X-10160Y393446D02*
X6613D01*
X-15240D02*
X-10160D01*
X-16764Y391922D02*
X-15240Y393446D01*
X-16764Y384810D02*
Y391922D01*
X-18128Y383446D02*
X-16764Y384810D01*
X-23622Y383446D02*
X-18128D01*
X-23622Y371838D02*
Y383446D01*
X-29446Y366014D02*
X-23622Y371838D01*
X-39114Y366014D02*
X-29446D01*
X-20574Y446532D02*
X-11938D01*
X-25654Y441452D02*
X-20574Y446532D01*
X-25654Y434086D02*
Y441452D01*
X-29210Y430530D02*
X-25654Y434086D01*
X-38606Y430530D02*
X-29210D01*
X-22841Y414039D02*
X-11938D01*
X-25654Y411226D02*
X-22841Y414039D01*
X-39114Y411226D02*
X-25654D01*
X-11938Y414039D02*
X19D01*
X10414Y424434D01*
X25298D01*
X31449Y418282D01*
X38354Y421631D02*
X41702Y418282D01*
X38354Y421631D02*
Y441452D01*
X23876Y455930D02*
X38354Y441452D01*
X-38606Y455930D02*
X23876D01*
X57912Y456721D02*
X64121Y462929D01*
X57912Y438830D02*
Y456721D01*
X77589Y412537D02*
X82628Y417576D01*
X96549D01*
X103011Y424039D01*
X74754Y409702D02*
X77589Y412537D01*
X70612Y409702D02*
X74754D01*
X64770Y415544D02*
X70612Y409702D01*
X60177Y415544D02*
X64770D01*
X52309Y407676D02*
X60177Y415544D01*
X51308Y428737D02*
Y432226D01*
Y428737D02*
X56896Y423149D01*
Y419333D02*
Y423149D01*
X48774Y411211D02*
X56896Y419333D01*
X-131064Y-452120D02*
X-109474D01*
X-86614Y-474980D01*
X82550D01*
X86868Y-470662D01*
X107188D01*
X119634Y-458216D01*
X-150612Y-333265D02*
X-143002Y-340874D01*
Y-375920D02*
Y-340874D01*
X-147066Y-379984D02*
X-143002Y-375920D01*
X-147066Y-394034D02*
Y-379984D01*
X-159592Y-342245D02*
X-148844Y-352993D01*
X-160020Y-394114D02*
Y-385182D01*
X-148844Y-374006D01*
Y-352993D01*
X-160020Y-411734D02*
Y-404114D01*
X-161544Y-413258D02*
X-160020Y-411734D01*
X-161544Y-420442D02*
Y-413258D01*
X-147066Y-411988D02*
Y-404034D01*
Y-411988D02*
X-145542Y-413512D01*
Y-420442D02*
Y-413512D01*
X-141631Y-324285D02*
X-134874Y-331042D01*
X-19772Y-302982D02*
Y-297802D01*
X-22225Y-305436D02*
X-19772Y-302982D01*
X-22225Y-311230D02*
Y-305436D01*
X-14772Y-301840D02*
Y-297802D01*
Y-301840D02*
X-9779Y-306832D01*
Y-311230D02*
Y-306832D01*
X-2206Y-286084D02*
X2968D01*
X-5488Y-282802D02*
X-2206Y-286084D01*
X-9647Y-282802D02*
X-5488D01*
X-39526Y-265020D02*
X-36068Y-268478D01*
X-39526Y-265020D02*
Y-259588D01*
X-28682Y-287802D02*
X-24772D01*
X-31750Y-284734D02*
X-28682Y-287802D01*
X-31750Y-284734D02*
Y-274066D01*
X-17526Y-264668D02*
X-13716Y-268478D01*
X-17526Y-264668D02*
Y-259588D01*
X-249394Y-360900D02*
Y-360205D01*
X-263175Y-374681D02*
X-249394Y-360900D01*
X-288067Y-350043D02*
X-287813D01*
X-22225Y-321230D02*
X-9779D01*
X-28568Y-406400D02*
X-16764D01*
X-13970Y-403606D01*
Y-385318D01*
X-21082Y-378206D02*
X-13970Y-385318D01*
X-44722Y-378206D02*
X-21082D01*
X-172720Y-229650D02*
X-163198Y-220128D01*
X-172720Y-257048D02*
Y-229650D01*
X-177552Y-360205D02*
X-170688Y-367070D01*
X-176784Y-430784D02*
Y-384867D01*
X-170688Y-378771D01*
Y-367070D01*
X-163198Y-238088D02*
X-154218Y-229108D01*
X-163198Y-254254D02*
Y-238088D01*
X-134874Y-448310D02*
X-131064Y-452120D01*
X-134874Y-448310D02*
Y-346710D01*
Y-336940D02*
X-112976Y-358838D01*
X-134874Y-336940D02*
Y-331042D01*
X-175006Y-266192D02*
X-142494Y-298704D01*
X-187452Y-350266D02*
X-177552Y-360166D01*
Y-360205D02*
Y-360166D01*
X-22098Y-327914D02*
Y-321357D01*
X-22225Y-321230D02*
X-22098Y-321357D01*
X-36068Y-268478D02*
X-26416D01*
X-19772Y-275122D01*
Y-282802D02*
Y-275122D01*
X9866D01*
X14224Y-270764D01*
X44492Y-302232D02*
Y-292517D01*
X-29464Y-431800D02*
X-5842Y-408178D01*
Y-384867D01*
X44492Y-324480D02*
X48180Y-328168D01*
X44492Y-324480D02*
Y-302232D01*
X78354Y-323394D02*
Y-303232D01*
X73580Y-328168D02*
X78354Y-323394D01*
X48180Y-328168D02*
X73580D01*
X50992Y-302232D02*
X51228Y-302468D01*
Y-313690D02*
Y-302468D01*
X85264Y-314198D02*
Y-303642D01*
X84854Y-303232D02*
X85264Y-303642D01*
D148*
X308696Y-213159D02*
Y-205146D01*
X272206Y-168656D02*
X308696Y-205146D01*
X152654Y-168656D02*
X272206D01*
X-312959Y-325151D02*
X-300513Y-337597D01*
X178398Y-133888D02*
X213004D01*
X178308Y-133978D02*
X178398Y-133888D01*
X253746Y-135183D02*
Y-121133D01*
X233300Y-135183D02*
X253746D01*
X232004Y-133888D02*
X233300Y-135183D01*
X300382Y-221473D02*
X308696Y-213159D01*
X300382Y-221473D02*
Y-221473D01*
X-75946Y-253238D02*
Y-217678D01*
X-55118Y-274066D02*
X-31750D01*
X-75946Y-253238D02*
X-55118Y-274066D01*
X-71087Y-247904D02*
Y-214102D01*
X-59403Y-259588D02*
X-39526D01*
X-71087Y-247904D02*
X-59403Y-259588D01*
X-270313Y-327242D02*
X-252366D01*
X-213650Y-385869D02*
Y-365958D01*
X-252366Y-327242D02*
X-213650Y-365958D01*
Y-385869D02*
X-210058Y-389461D01*
X-209550Y-381272D02*
X-199390Y-391432D01*
X-243850Y-327863D02*
X-209550Y-362163D01*
Y-381272D02*
Y-362163D01*
X-199390Y-410464D02*
Y-391432D01*
X-210058Y-397764D02*
Y-389461D01*
X-91948Y-201676D02*
X-75946Y-217678D01*
X-90625Y-194564D02*
X-71087Y-214102D01*
X-276335Y-333265D02*
X-270313Y-327242D01*
X-279293Y-318262D02*
X-253451D01*
X-243851Y-327863D02*
X-243850D01*
X-253451Y-318262D02*
X-243851Y-327863D01*
X84854Y-303232D02*
Y-275844D01*
X7210Y-271018D02*
X13453Y-264775D01*
X73785D01*
X84854Y-275844D01*
X-325181Y-312928D02*
X-312959Y-325151D01*
X14732Y-279449D02*
X18337Y-275844D01*
X14732Y-325628D02*
Y-279449D01*
X9652Y-330708D02*
X14732Y-325628D01*
X-6680Y-330708D02*
X9652D01*
X-172178Y-211147D02*
X-172031D01*
X-158476Y-197591D01*
X-153629Y-202438D01*
X-149352D01*
X-141478Y-194564D01*
X-90625D01*
X-181159Y-202167D02*
X-168050Y-189059D01*
Y-188935D01*
X-164961Y-192024D01*
X-162052D01*
X-147320Y-177292D01*
X-17526Y-249588D02*
X2968D01*
X3048Y-249508D01*
X-135128Y-201676D02*
X-91948D01*
X-147320Y-177292D02*
X-135133D01*
X-9779Y-327609D02*
Y-321230D01*
Y-327609D02*
X-6680Y-330708D01*
X3222Y-259334D02*
X10922D01*
X3048Y-259508D02*
X3222Y-259334D01*
X-168572Y-351225D02*
X-160923Y-358875D01*
X-170681Y-420878D02*
Y-386073D01*
X-160923Y-376315D01*
Y-358875D01*
X-264781Y-357632D02*
X-258375Y-351225D01*
X-268986Y-357632D02*
X-264781D01*
X-289021Y-337597D02*
X-268986Y-357632D01*
X-300513Y-337597D02*
X-289021D01*
X-325374Y-312928D02*
X-325181D01*
X-285315Y-324285D02*
X-279293Y-318262D01*
X-177038Y-342646D02*
X-168572Y-351112D01*
Y-351225D02*
Y-351112D01*
X-13716Y-268478D02*
X-11176Y-271018D01*
X7210D01*
D149*
X-89758Y-70926D02*
Y-2758D01*
X70153Y150163D02*
X145318Y74999D01*
X56183Y164133D02*
X70153Y150163D01*
X145318Y37554D02*
Y74999D01*
Y32915D02*
Y37554D01*
X48817Y164133D02*
X56183D01*
X-69596Y54610D02*
X-43327Y28341D01*
X-28448Y13462D01*
Y-52578D02*
X-1304Y-81500D01*
X-28448Y-52578D02*
Y13462D01*
X-1304Y-81500D02*
X29500D01*
X98264D01*
X-145005Y90199D02*
X-125476Y109728D01*
X-60706Y54610D02*
X-21893Y93423D01*
X-69596Y54610D02*
X-60706D01*
X83058Y-5334D02*
X107069D01*
X145318Y32915D01*
X29100Y37159D02*
X54500Y62559D01*
X29100Y-5080D02*
Y37159D01*
X54500Y62559D02*
Y67500D01*
X51006Y64006D02*
X54500Y67500D01*
X98264Y-81500D02*
X117318Y-62446D01*
D150*
X-396868Y10933D02*
Y77423D01*
X-332040Y3494D02*
X-297688Y37846D01*
X-389428Y3494D02*
X-332040D01*
X-396868Y10933D02*
X-389428Y3494D01*
X-252984Y37592D02*
X-246108D01*
X-287376Y37846D02*
X-252984D01*
X-297688D02*
X-287376D01*
X74422Y154432D02*
X102532Y182542D01*
Y238342D01*
X61153Y163612D02*
X72878Y175336D01*
Y184666D01*
X56880Y200664D02*
X72878Y184666D01*
X14046Y202870D02*
X15245D01*
X34960Y222584D01*
X-246108Y37592D02*
X-245700Y38000D01*
X-357006Y158299D02*
X-346679Y168625D01*
Y176882D02*
X-333710Y189851D01*
X-346679Y168625D02*
Y176882D01*
X-346456Y147692D02*
X-346399D01*
X-336073Y158019D01*
X-329621D02*
X-315749Y171891D01*
X-336073Y158019D02*
X-329621D01*
D151*
X335087Y-256828D02*
X335738D01*
X321554Y-270361D02*
X335087Y-256828D01*
X320845Y-270361D02*
X321554D01*
X365083Y-286173D02*
X373638Y-277618D01*
X356951Y-278041D02*
Y-277949D01*
X365506Y-269394D01*
X423779Y134785D02*
X431250Y127313D01*
X196800Y28300D02*
X247051D01*
X298704Y-23353D01*
Y-35704D02*
Y-23353D01*
X406606Y117612D02*
X414078Y110140D01*
D152*
X282968Y-75704D02*
X298704D01*
X260217Y-52953D02*
X282968Y-75704D01*
D153*
X-266161Y-14944D02*
X-234112D01*
X-227168Y-8000D01*
X-196800Y-28300D02*
Y-12750D01*
X-201550Y-8000D02*
X-196800Y-12750D01*
X-227168Y-8000D02*
X-201550D01*
D154*
X360452Y-260398D02*
X363326D01*
X342809Y-263899D02*
X352720Y-253989D01*
Y-249791D01*
X363326Y-260398D02*
X367996Y-255728D01*
X352720Y-249791D02*
X357389Y-245121D01*
X349880Y-270970D02*
X360452Y-260398D01*
X349880Y-270970D02*
Y-270970D01*
D155*
X-304274Y-366286D02*
X-298673Y-360685D01*
Y-360649D01*
D156*
X-63780Y114316D02*
D03*
X-10747Y167349D02*
D03*
X-134491Y185026D02*
D03*
X-241618Y292153D02*
D03*
X-81458Y238059D02*
D03*
X-188585Y345186D02*
D03*
D157*
X-99136Y149671D02*
D03*
X-46103Y202704D02*
D03*
D158*
X1524Y470134D02*
D03*
X124714Y444246D02*
D03*
X79900Y-5080D02*
D03*
X29100D02*
D03*
D159*
X-63328Y-146333D02*
D03*
X-91612Y-68551D02*
D03*
X371940Y220382D02*
D03*
X66611Y274263D02*
D03*
X407861Y184461D02*
D03*
X102532Y238342D02*
D03*
X282137Y58737D02*
D03*
D160*
X-29464Y-431800D02*
D03*
Y-457200D02*
D03*
X-80264D02*
D03*
Y-431800D02*
D03*
X-54864D02*
D03*
Y-457200D02*
D03*
X21336D02*
D03*
Y-431800D02*
D03*
X-4064D02*
D03*
Y-457200D02*
D03*
X46736D02*
D03*
Y-431800D02*
D03*
X72136D02*
D03*
Y-457200D02*
D03*
X97536Y-431800D02*
D03*
D161*
Y-457200D02*
D03*
D162*
X48817Y164133D02*
D03*
X-21893Y93423D02*
D03*
D163*
X-121412Y-452120D02*
D03*
D164*
Y-426720D02*
D03*
Y-401320D02*
D03*
D165*
X145348Y38278D02*
D03*
X117348Y-61722D02*
D03*
D166*
X-87000Y0D02*
D03*
X29500Y-81500D02*
D03*
X54500Y67500D02*
D03*
D167*
X196800Y28300D02*
D03*
X245700Y-38000D02*
D03*
X-245700Y38000D02*
D03*
X-196800Y-28300D02*
D03*
D168*
X-98806Y-219456D02*
D03*
X128016Y-175006D02*
D03*
X152654Y-168656D02*
D03*
X-188468Y-390924D02*
D03*
X-145221Y-256032D02*
D03*
X-354584Y18034D02*
D03*
X264320Y-87122D02*
D03*
X239776Y-88900D02*
D03*
X232249Y-73152D02*
D03*
X-368603Y23622D02*
D03*
X-324612Y35814D02*
D03*
X-356108Y103886D02*
D03*
X-380333Y28956D02*
D03*
X-326898Y105156D02*
D03*
X197358Y-74168D02*
D03*
X178308Y-153670D02*
D03*
X-326898Y113777D02*
D03*
Y122398D02*
D03*
X125984Y-398526D02*
D03*
X83312D02*
D03*
X-111252Y-279400D02*
D03*
X-86360Y-287274D02*
D03*
X-107264Y-241808D02*
D03*
X-83820Y-243840D02*
D03*
X-220218Y-383286D02*
D03*
X-203708Y-370078D02*
D03*
X-197111Y-358607D02*
D03*
X-222250Y-396749D02*
D03*
X-199390Y-410464D02*
D03*
X-302224Y-322834D02*
D03*
X373638Y-277618D02*
D03*
X365506Y-269394D02*
D03*
X-311658Y-41910D02*
D03*
X-353568Y-36068D02*
D03*
X-383540Y-34453D02*
D03*
X-345694Y239522D02*
D03*
X-362966Y209786D02*
D03*
X-379730Y173990D02*
D03*
X-393954Y136906D02*
D03*
X-405638Y102870D02*
D03*
X-418338Y32258D02*
D03*
Y-1270D02*
D03*
X-415798Y-35306D02*
D03*
X264320Y-124905D02*
D03*
X272457Y-155448D02*
D03*
X313571Y-108553D02*
D03*
X334464Y-27682D02*
D03*
X366268Y26329D02*
D03*
X364489Y-7089D02*
D03*
X358394Y-51345D02*
D03*
X341246Y-110236D02*
D03*
X311499Y-168148D02*
D03*
X390144Y-109220D02*
D03*
X403797Y-48768D02*
D03*
X375920Y-148336D02*
D03*
X363982Y-182372D02*
D03*
X341884Y-224536D02*
D03*
X436880Y-56896D02*
D03*
X430276Y-94996D02*
D03*
X419488Y-144780D02*
D03*
X403234Y-182372D02*
D03*
X386080Y-216916D02*
D03*
X411480Y-234696D02*
D03*
X432308Y-198120D02*
D03*
X448315Y-161036D02*
D03*
X461264Y-121920D02*
D03*
X470916Y-82296D02*
D03*
X477012Y-43688D02*
D03*
X331470Y-196850D02*
D03*
X134620Y-249174D02*
D03*
X159766Y-371856D02*
D03*
X194226Y-349533D02*
D03*
X235152Y-370078D02*
D03*
X204978Y-386334D02*
D03*
X166624Y-408178D02*
D03*
X266954Y-393192D02*
D03*
X234188Y-413512D02*
D03*
X197819Y-431800D02*
D03*
X153416Y-450088D02*
D03*
Y-302094D02*
D03*
X136144Y-355673D02*
D03*
X108458Y-391414D02*
D03*
X111252Y-354600D02*
D03*
Y-313690D02*
D03*
X112014Y-276098D02*
D03*
X64262Y-252984D02*
D03*
X-386334Y-128778D02*
D03*
X-365252Y-108332D02*
D03*
X-402082D02*
D03*
X-378968Y-79248D02*
D03*
X-344170Y-77978D02*
D03*
X-408940Y-80772D02*
D03*
X-356108Y-320426D02*
D03*
X-383794Y-288798D02*
D03*
X-408178Y-251968D02*
D03*
X-425958Y-214618D02*
D03*
X-446781Y-170688D02*
D03*
X-459740Y-130114D02*
D03*
X-469392Y-87884D02*
D03*
X-476250Y-41148D02*
D03*
X-479552Y1524D02*
D03*
X-478282Y42164D02*
D03*
X-473710Y79351D02*
D03*
X-464646Y116586D02*
D03*
X-454600Y150368D02*
D03*
X-442722Y184912D02*
D03*
X-425450Y219202D02*
D03*
X-406654Y251723D02*
D03*
X-386334Y281940D02*
D03*
X-364616Y308572D02*
D03*
X463296Y126746D02*
D03*
X454914Y90578D02*
D03*
X470594Y92374D02*
D03*
X467684Y108057D02*
D03*
X471678Y75057D02*
D03*
X458470D02*
D03*
X446160D02*
D03*
X435922Y83394D02*
D03*
X348488Y65688D02*
D03*
X355092Y59084D02*
D03*
X361696Y52480D02*
D03*
X357378Y67769D02*
D03*
X363982Y61165D02*
D03*
X370586Y54561D02*
D03*
X379476Y56642D02*
D03*
X372872Y63246D02*
D03*
X366268Y69850D02*
D03*
X359664Y76454D02*
D03*
X-392176Y-146558D02*
D03*
X-399926Y-139937D02*
D03*
X-407670Y-133957D02*
D03*
X-417606Y-127254D02*
D03*
X284226Y11256D02*
D03*
X295402Y25400D02*
D03*
X-51054Y-338074D02*
D03*
X-136257Y-265029D02*
D03*
X233377Y-355673D02*
D03*
X238585Y-350465D02*
D03*
X228168D02*
D03*
X233377Y-345256D02*
D03*
X222960D02*
D03*
X228168Y-340048D02*
D03*
X277287Y-226803D02*
D03*
X244619Y-259471D02*
D03*
X255508Y-248582D02*
D03*
X266397Y-237693D02*
D03*
X288176D02*
D03*
X255508Y-270361D02*
D03*
X266397Y-259471D02*
D03*
X277287Y-248582D02*
D03*
X299066D02*
D03*
X266397Y-281250D02*
D03*
X277287Y-270361D02*
D03*
X288176Y-259471D02*
D03*
X299066Y-270361D02*
D03*
X288176Y-281250D02*
D03*
X277287Y-292140D02*
D03*
X309955Y-259471D02*
D03*
X288176Y-303029D02*
D03*
X299066Y-292140D02*
D03*
X309955Y-281250D02*
D03*
X320845Y-270361D02*
D03*
X-210058Y-397764D02*
D03*
X-141631Y-211147D02*
D03*
X-420045Y77329D02*
D03*
X-61794Y-395099D02*
D03*
X-188468Y-428498D02*
D03*
X-94996Y-264160D02*
D03*
X325488Y55372D02*
D03*
X311499Y41402D02*
D03*
X418501Y39491D02*
D03*
X-66802Y326009D02*
D03*
X-276098Y-87066D02*
D03*
X69596Y402844D02*
D03*
X-6096Y436546D02*
D03*
Y423926D02*
D03*
X9652Y372110D02*
D03*
X-272288Y391668D02*
D03*
X-298450Y369062D02*
D03*
X-321256Y350266D02*
D03*
X-342900Y330708D02*
D03*
X-239960Y-410210D02*
D03*
X480285Y-1252D02*
D03*
Y31588D02*
D03*
X-165413Y-300308D02*
D03*
X-181102Y-287020D02*
D03*
X-181356Y-311296D02*
D03*
X-196342Y-298958D02*
D03*
X-198882Y-330454D02*
D03*
X-216408Y-318262D02*
D03*
X-183134Y-246380D02*
D03*
X-201422Y-264668D02*
D03*
X-216408Y-282956D02*
D03*
X-232156Y-302768D02*
D03*
X-192278Y-230378D02*
D03*
X-210058Y-246634D02*
D03*
X-228854Y-265176D02*
D03*
X-248412Y-283464D02*
D03*
X-265938Y-261620D02*
D03*
X-248158Y-244856D02*
D03*
X-228346Y-227584D02*
D03*
X-209550Y-210058D02*
D03*
X-226314Y-194310D02*
D03*
X-244856Y-214884D02*
D03*
X-263652Y-232428D02*
D03*
X-279146Y-245110D02*
D03*
Y-216154D02*
D03*
X-262890Y-200660D02*
D03*
X-246634Y-185674D02*
D03*
X-230378Y-171196D02*
D03*
X-313690Y-236728D02*
D03*
X-275336Y-163068D02*
D03*
X-288798Y-178308D02*
D03*
X-303530Y-192786D02*
D03*
X-317500Y-207808D02*
D03*
X-330200Y-219456D02*
D03*
X-346202Y-201422D02*
D03*
X-333248Y-188468D02*
D03*
X-318770Y-172720D02*
D03*
X-304546Y-158242D02*
D03*
X-284480Y-143434D02*
D03*
X-276098Y-129758D02*
D03*
X-288798Y-116078D02*
D03*
X-304020Y-130810D02*
D03*
X-317246Y-143764D02*
D03*
X-331724Y-157480D02*
D03*
X-345440Y-170688D02*
D03*
X-348488Y-139954D02*
D03*
X-334269Y-127254D02*
D03*
X-318516Y-114046D02*
D03*
X-302224Y-102108D02*
D03*
X-219456Y-74422D02*
D03*
X-33448Y-221488D02*
D03*
X-23448D02*
D03*
X435383Y40209D02*
D03*
X467684Y54561D02*
D03*
X446160Y37335D02*
D03*
X0Y327660D02*
D03*
X9144Y318770D02*
D03*
X-116332Y44450D02*
D03*
X-135382Y63754D02*
D03*
X-209550Y184912D02*
D03*
X-139954Y-277114D02*
D03*
X-144038Y-183252D02*
D03*
X-153613Y-174596D02*
D03*
X-197389Y-120778D02*
D03*
X-209835Y-108332D02*
D03*
X-264966Y323856D02*
D03*
X-311215Y301778D02*
D03*
X-268037Y306649D02*
D03*
X-146558Y456184D02*
D03*
X-169418Y390398D02*
D03*
Y403352D02*
D03*
X-169164Y427228D02*
D03*
X-202692Y191262D02*
D03*
X-197358Y185674D02*
D03*
X-203708Y179578D02*
D03*
X-239014Y143510D02*
D03*
X-244856Y150368D02*
D03*
X-250952Y156464D02*
D03*
X1524Y383540D02*
D03*
X-23622Y404876D02*
D03*
X-39116Y397510D02*
D03*
X-27432Y340614D02*
D03*
X66040Y424180D02*
D03*
X51054Y420624D02*
D03*
X57288Y369570D02*
D03*
X106344Y373868D02*
D03*
X98216Y383560D02*
D03*
X88879Y365842D02*
D03*
X90252Y357653D02*
D03*
X79248Y357206D02*
D03*
X73375Y342738D02*
D03*
X61183Y331054D02*
D03*
X38960Y325476D02*
D03*
X29677Y316078D02*
D03*
X6837Y357206D02*
D03*
X-2286Y347726D02*
D03*
X128778Y-427482D02*
D03*
X-62992Y-329692D02*
D03*
X8128Y-311230D02*
D03*
X-46736Y-295402D02*
D03*
X-24897Y-277928D02*
D03*
X-31750Y-274066D02*
D03*
X-13716Y-268478D02*
D03*
X-5334Y-290302D02*
D03*
X-279382Y-390924D02*
D03*
X-292082Y-378732D02*
D03*
X-316720Y-353840D02*
D03*
X-329166Y-341394D02*
D03*
X-135128Y-201676D02*
D03*
X-135133Y-177292D02*
D03*
X18337Y-275844D02*
D03*
X10922Y-259334D02*
D03*
X8128Y-321310D02*
D03*
X-70317Y-322834D02*
D03*
X-88900Y-312166D02*
D03*
X-170681Y-420878D02*
D03*
X-176784Y-430784D02*
D03*
X-161544Y-443484D02*
D03*
X-145542Y-439674D02*
D03*
X-254762Y-396748D02*
D03*
X-163198Y-254254D02*
D03*
X-175006Y-266192D02*
D03*
X-134874Y-346710D02*
D03*
X-142494Y-298704D02*
D03*
X-40640Y-279908D02*
D03*
X-48768Y-249428D02*
D03*
X-187452Y-350266D02*
D03*
X-177038Y-342646D02*
D03*
X-3048Y-350774D02*
D03*
X-111252Y-231140D02*
D03*
X-128524Y-213868D02*
D03*
X41830Y-279400D02*
D03*
X31924Y-279654D02*
D03*
X65706Y-279400D02*
D03*
X75358Y-279146D02*
D03*
X84854Y-373534D02*
D03*
X78354D02*
D03*
X71854D02*
D03*
X65354D02*
D03*
X50992Y-374396D02*
D03*
X-29210Y-302006D02*
D03*
X-22098Y-327914D02*
D03*
X48180Y-328168D02*
D03*
X51228Y-313690D02*
D03*
X85264Y-314198D02*
D03*
X202204Y-148776D02*
D03*
X339598Y-164084D02*
D03*
X253746Y-150518D02*
D03*
D169*
X386416Y-14994D02*
D03*
X395152Y-20138D02*
D03*
X405210Y-19779D02*
D03*
X405030Y31409D02*
D03*
X404826Y21147D02*
D03*
X421988Y24299D02*
D03*
X-357063Y158299D02*
D03*
X-346456Y147692D02*
D03*
X-304274Y-366286D02*
D03*
M02*
