G04*
G04 #@! TF.GenerationSoftware,Altium Limited,Altium Designer,20.1.14 (287)*
G04*
G04 Layer_Physical_Order=3*
G04 Layer_Color=16440176*
%FSLAX44Y44*%
%MOMM*%
G71*
G04*
G04 #@! TF.SameCoordinates,26D83F00-FBC8-424C-8E9F-EDBCECB59CF3*
G04*
G04*
G04 #@! TF.FilePolarity,Positive*
G04*
G01*
G75*
%ADD12C,0.2000*%
%ADD16C,0.2540*%
G04:AMPARAMS|DCode=156|XSize=2.3mm|YSize=1.95mm|CornerRadius=0mm|HoleSize=0mm|Usage=FLASHONLY|Rotation=315.000|XOffset=0mm|YOffset=0mm|HoleType=Round|Shape=Round|*
%AMOVALD156*
21,1,0.3500,1.9500,0.0000,0.0000,315.0*
1,1,1.9500,-0.1237,0.1237*
1,1,1.9500,0.1237,-0.1237*
%
%ADD156OVALD156*%

%ADD158C,1.5240*%
%ADD161R,1.4000X1.4000*%
%ADD162C,1.5000*%
%ADD168C,0.5080*%
%ADD169C,0.8128*%
%ADD170C,1.2700*%
G36*
X131064Y420370D02*
Y382778D01*
X58420Y310134D01*
X23622D01*
X10973Y297485D01*
X8216Y299174D01*
X4214Y300832D01*
X1Y301843D01*
X-4318Y302183D01*
X-8637Y301843D01*
X-12850Y300832D01*
X-16852Y299174D01*
X-20546Y296910D01*
X-23841Y294097D01*
X-26654Y290802D01*
X-28918Y287108D01*
X-30576Y283106D01*
X-31587Y278893D01*
X-31927Y274574D01*
X-31647Y271018D01*
X-32646Y269748D01*
X-42672D01*
X-58456Y253964D01*
X-59725Y254014D01*
X-61247Y255795D01*
X-63722Y258270D01*
X-66924Y261005D01*
X-70514Y263205D01*
X-74404Y264816D01*
X-78498Y265799D01*
X-82696Y266129D01*
X-86893Y265799D01*
X-90987Y264816D01*
X-94877Y263205D01*
X-98467Y261005D01*
X-101669Y258270D01*
X-104404Y255069D01*
X-106604Y251479D01*
X-108215Y247589D01*
X-109198Y243494D01*
X-109528Y239297D01*
X-109198Y235099D01*
X-108215Y231005D01*
X-106604Y227115D01*
X-104404Y223525D01*
X-101669Y220323D01*
X-99194Y217848D01*
X-95992Y215114D01*
X-92402Y212914D01*
X-88512Y211303D01*
X-84418Y210319D01*
X-80221Y209989D01*
X-76023Y210319D01*
X-71929Y211303D01*
X-71339Y211547D01*
X16764Y123444D01*
X16764Y94488D01*
X-8636Y69088D01*
X-90424D01*
X-201422Y180086D01*
Y198374D01*
X-43688Y356108D01*
Y394752D01*
X-42418Y395137D01*
X-42046Y394580D01*
X-40702Y393682D01*
X-39116Y393366D01*
X-37530Y393682D01*
X-36186Y394580D01*
X-35288Y395924D01*
X-34972Y397510D01*
X-35288Y399096D01*
X-36186Y400440D01*
X-37530Y401338D01*
X-39116Y401654D01*
X-40702Y401338D01*
X-42046Y400440D01*
X-42418Y399883D01*
X-43688Y400269D01*
Y458216D01*
X-26770Y475134D01*
X76300D01*
X131064Y420370D01*
D02*
G37*
G36*
X-76474Y480069D02*
X-76474Y376490D01*
X-140544Y312420D01*
X-170123Y312420D01*
X-171276Y313030D01*
X-172037Y314867D01*
X-172269Y315100D01*
X-172395Y315403D01*
X-173801Y316809D01*
X-174104Y316935D01*
X-174336Y317167D01*
X-176174Y317928D01*
X-176502D01*
X-176805Y318054D01*
X-178795D01*
X-179098Y317928D01*
X-179426D01*
X-181264Y317167D01*
X-181496Y316935D01*
X-181799Y316809D01*
X-186188Y312420D01*
X-250952Y312420D01*
X-260858Y302514D01*
X-260858Y245364D01*
X-341376Y164846D01*
X-341376Y22098D01*
X-273004Y-46274D01*
X-274790Y-49188D01*
X-276448Y-53190D01*
X-277459Y-57403D01*
X-277799Y-61722D01*
X-277459Y-66041D01*
X-276448Y-70254D01*
X-274790Y-74256D01*
X-272526Y-77950D01*
X-269713Y-81245D01*
X-266418Y-84058D01*
X-262724Y-86322D01*
X-258722Y-87980D01*
X-254509Y-88991D01*
X-250190Y-89331D01*
X-245871Y-88991D01*
X-241658Y-87980D01*
X-237656Y-86322D01*
X-234742Y-84536D01*
X-213210Y-106068D01*
X-213663Y-106747D01*
X-213978Y-108332D01*
X-213663Y-109918D01*
X-212765Y-111262D01*
X-211420Y-112161D01*
X-209835Y-112476D01*
X-208249Y-112161D01*
X-207571Y-111707D01*
X-200764Y-118514D01*
X-201217Y-119193D01*
X-201532Y-120778D01*
X-201217Y-122364D01*
X-200319Y-123708D01*
X-198974Y-124607D01*
X-197389Y-124922D01*
X-195803Y-124607D01*
X-195125Y-124153D01*
X-102143Y-217135D01*
X-102634Y-217870D01*
X-102950Y-219456D01*
X-102634Y-221042D01*
X-101736Y-222386D01*
X-100392Y-223284D01*
X-98806Y-223600D01*
X-97220Y-223284D01*
X-95876Y-222386D01*
X-94978Y-221042D01*
X-94662Y-219456D01*
X-94246Y-218948D01*
X-38050Y-218948D01*
X-37339Y-220218D01*
X-37592Y-221488D01*
X-37276Y-223074D01*
X-36378Y-224418D01*
X-35034Y-225316D01*
X-33448Y-225632D01*
X-31862Y-225316D01*
X-30518Y-224418D01*
X-29620Y-223074D01*
X-29304Y-221488D01*
X-29557Y-220218D01*
X-28846Y-218948D01*
X84582Y-218948D01*
X125391Y-178139D01*
X126430Y-178834D01*
X128016Y-179150D01*
X129602Y-178834D01*
X130946Y-177936D01*
X131844Y-176592D01*
X132160Y-175006D01*
X131844Y-173420D01*
X131150Y-172381D01*
X227862Y-75668D01*
X229126Y-75793D01*
X229319Y-76082D01*
X230663Y-76980D01*
X232249Y-77296D01*
X233834Y-76980D01*
X235179Y-76082D01*
X236077Y-74738D01*
X236392Y-73152D01*
X236077Y-71566D01*
X235179Y-70222D01*
X234890Y-70029D01*
X234765Y-68765D01*
X254954Y-48576D01*
X255702Y-48002D01*
X256276Y-47254D01*
X298450Y-5080D01*
X338217Y-5080D01*
X365613Y22316D01*
X366268Y22185D01*
X367854Y22501D01*
X369198Y23399D01*
X370096Y24743D01*
X370412Y26329D01*
X370281Y26984D01*
X392684Y49387D01*
Y144272D01*
X444653Y196241D01*
X445901Y196006D01*
X450109Y186441D01*
X457813Y166630D01*
X464646Y146502D01*
X470594Y126095D01*
X475647Y105448D01*
X479793Y84600D01*
X483027Y63592D01*
X485341Y42462D01*
X486731Y21251D01*
X487195Y0D01*
X486731Y-21251D01*
X485341Y-42462D01*
X483027Y-63592D01*
X479793Y-84600D01*
X475647Y-105448D01*
X470594Y-126095D01*
X464646Y-146502D01*
X457813Y-166630D01*
X450109Y-186441D01*
X441549Y-205898D01*
X432147Y-224962D01*
X421923Y-243598D01*
X410896Y-261770D01*
X399087Y-279444D01*
X386518Y-296586D01*
X375465Y-310357D01*
X374197Y-310426D01*
X328440Y-264668D01*
X325245Y-267864D01*
X323981Y-267739D01*
X323775Y-267431D01*
X322430Y-266533D01*
X320845Y-266217D01*
X319259Y-266533D01*
X317915Y-267431D01*
X317017Y-268775D01*
X316701Y-270361D01*
X317017Y-271947D01*
X317915Y-273291D01*
X318223Y-273497D01*
X318347Y-274761D01*
X314355Y-278753D01*
X313091Y-278629D01*
X312885Y-278320D01*
X311541Y-277422D01*
X309955Y-277107D01*
X308370Y-277422D01*
X307025Y-278320D01*
X306127Y-279665D01*
X305812Y-281250D01*
X306127Y-282836D01*
X307025Y-284180D01*
X307334Y-284386D01*
X307458Y-285650D01*
X303466Y-289643D01*
X302202Y-289518D01*
X301996Y-289210D01*
X300651Y-288312D01*
X299066Y-287996D01*
X297480Y-288312D01*
X296136Y-289210D01*
X295238Y-290554D01*
X294922Y-292140D01*
X295238Y-293725D01*
X296136Y-295070D01*
X296444Y-295276D01*
X296569Y-296540D01*
X292576Y-300532D01*
X291312Y-300408D01*
X291106Y-300099D01*
X289762Y-299201D01*
X288176Y-298886D01*
X286591Y-299201D01*
X285246Y-300099D01*
X284348Y-301444D01*
X284033Y-303029D01*
X284348Y-304615D01*
X285246Y-305959D01*
X285555Y-306165D01*
X285679Y-307429D01*
X277528Y-315580D01*
X324226Y-362278D01*
X324184Y-363547D01*
X313163Y-373213D01*
X296586Y-386518D01*
X279444Y-399087D01*
X261770Y-410896D01*
X243598Y-421923D01*
X224962Y-432147D01*
X205898Y-441549D01*
X186441Y-450109D01*
X166630Y-457813D01*
X146502Y-464646D01*
X126095Y-470594D01*
X105448Y-475647D01*
X84600Y-479793D01*
X63592Y-483027D01*
X42462Y-485341D01*
X21251Y-486731D01*
X0Y-487195D01*
X-21251Y-486731D01*
X-42462Y-485341D01*
X-63592Y-483027D01*
X-84600Y-479793D01*
X-105448Y-475647D01*
X-126095Y-470594D01*
X-146502Y-464646D01*
X-166630Y-457813D01*
X-186441Y-450109D01*
X-196381Y-445736D01*
X-196246Y-445412D01*
X-195235Y-441199D01*
X-194895Y-436880D01*
X-195235Y-432561D01*
X-196246Y-428348D01*
X-197904Y-424346D01*
X-200168Y-420652D01*
X-202981Y-417357D01*
X-206276Y-414544D01*
X-209970Y-412280D01*
X-213972Y-410622D01*
X-218185Y-409611D01*
X-222504Y-409271D01*
X-226823Y-409611D01*
X-231036Y-410622D01*
X-235031Y-412277D01*
X-235088Y-412253D01*
X-236056Y-411414D01*
X-235816Y-410210D01*
X-236132Y-408624D01*
X-237030Y-407280D01*
X-238374Y-406382D01*
X-239960Y-406066D01*
X-241546Y-406382D01*
X-242890Y-407280D01*
X-243788Y-408624D01*
X-244104Y-410210D01*
X-243788Y-411796D01*
X-242890Y-413140D01*
X-241546Y-414038D01*
X-240370Y-414272D01*
X-239923Y-415463D01*
X-239920Y-415558D01*
X-242027Y-417357D01*
X-244840Y-420652D01*
X-245071Y-421029D01*
X-261770Y-410896D01*
X-279444Y-399087D01*
X-296586Y-386518D01*
X-313163Y-373213D01*
X-329144Y-359198D01*
X-344499Y-344499D01*
X-359198Y-329144D01*
X-373213Y-313163D01*
X-386518Y-296586D01*
X-399087Y-279444D01*
X-410896Y-261770D01*
X-421923Y-243598D01*
X-432147Y-224962D01*
X-441549Y-205898D01*
X-450109Y-186441D01*
X-457813Y-166630D01*
X-464646Y-146502D01*
X-470594Y-126095D01*
X-475647Y-105448D01*
X-479793Y-84600D01*
X-483027Y-63592D01*
X-485341Y-42462D01*
X-486731Y-21251D01*
X-487195Y0D01*
X-486731Y21251D01*
X-485341Y42462D01*
X-483027Y63592D01*
X-479793Y84600D01*
X-475647Y105448D01*
X-470594Y126095D01*
X-464646Y146502D01*
X-457813Y166630D01*
X-450109Y186441D01*
X-441549Y205898D01*
X-432147Y224962D01*
X-421923Y243598D01*
X-410896Y261770D01*
X-399087Y279444D01*
X-386518Y296586D01*
X-373213Y313163D01*
X-359198Y329144D01*
X-344499Y344499D01*
X-329144Y359198D01*
X-313163Y373213D01*
X-296586Y386518D01*
X-279444Y399087D01*
X-261770Y410896D01*
X-243598Y421923D01*
X-224962Y432147D01*
X-205898Y441549D01*
X-186441Y450109D01*
X-166630Y457813D01*
X-146502Y464646D01*
X-126095Y470594D01*
X-105448Y475647D01*
X-84600Y479793D01*
X-77438Y480896D01*
X-76474Y480069D01*
D02*
G37*
G36*
X364490Y83566D02*
X386080Y61976D01*
Y53848D01*
X374396Y42164D01*
X361950Y42164D01*
X339090Y65024D01*
X357632Y83566D01*
X364490Y83566D01*
D02*
G37*
%LPC*%
G36*
X66040Y428324D02*
X64454Y428008D01*
X63110Y427110D01*
X62212Y425766D01*
X61896Y424180D01*
X62212Y422594D01*
X63110Y421250D01*
X64454Y420352D01*
X66040Y420036D01*
X67626Y420352D01*
X68970Y421250D01*
X69868Y422594D01*
X70184Y424180D01*
X69868Y425766D01*
X68970Y427110D01*
X67626Y428008D01*
X66040Y428324D01*
D02*
G37*
G36*
X51054Y424768D02*
X49468Y424452D01*
X48124Y423554D01*
X47226Y422210D01*
X46910Y420624D01*
X47226Y419038D01*
X48124Y417694D01*
X49468Y416796D01*
X51054Y416480D01*
X52640Y416796D01*
X53984Y417694D01*
X54882Y419038D01*
X55198Y420624D01*
X54882Y422210D01*
X53984Y423554D01*
X52640Y424452D01*
X51054Y424768D01*
D02*
G37*
G36*
X-23622Y409020D02*
X-25208Y408704D01*
X-26552Y407806D01*
X-27450Y406462D01*
X-27766Y404876D01*
X-27450Y403290D01*
X-26552Y401946D01*
X-25208Y401048D01*
X-23622Y400732D01*
X-22036Y401048D01*
X-20692Y401946D01*
X-19794Y403290D01*
X-19478Y404876D01*
X-19794Y406462D01*
X-20692Y407806D01*
X-22036Y408704D01*
X-23622Y409020D01*
D02*
G37*
G36*
X98216Y387704D02*
X96630Y387389D01*
X95286Y386491D01*
X94388Y385146D01*
X94073Y383560D01*
X94388Y381975D01*
X95286Y380630D01*
X96630Y379732D01*
X98216Y379417D01*
X99802Y379732D01*
X101146Y380630D01*
X102044Y381975D01*
X102360Y383560D01*
X102044Y385146D01*
X101146Y386491D01*
X99802Y387389D01*
X98216Y387704D01*
D02*
G37*
G36*
X106344Y378011D02*
X104758Y377696D01*
X103414Y376797D01*
X102516Y375453D01*
X102200Y373868D01*
X102516Y372282D01*
X103414Y370938D01*
X104758Y370039D01*
X106344Y369724D01*
X107930Y370039D01*
X109274Y370938D01*
X110172Y372282D01*
X110488Y373868D01*
X110172Y375453D01*
X109274Y376797D01*
X107930Y377696D01*
X106344Y378011D01*
D02*
G37*
G36*
X57288Y373714D02*
X55703Y373398D01*
X54358Y372500D01*
X53460Y371156D01*
X53145Y369570D01*
X53460Y367984D01*
X54358Y366640D01*
X55703Y365742D01*
X57288Y365426D01*
X58874Y365742D01*
X60218Y366640D01*
X61117Y367984D01*
X61432Y369570D01*
X61117Y371156D01*
X60218Y372500D01*
X58874Y373398D01*
X57288Y373714D01*
D02*
G37*
G36*
X88879Y369986D02*
X87294Y369670D01*
X85949Y368772D01*
X85051Y367428D01*
X84736Y365842D01*
X85051Y364256D01*
X85949Y362912D01*
X87294Y362014D01*
X88879Y361698D01*
X90465Y362014D01*
X91810Y362912D01*
X92708Y364256D01*
X93023Y365842D01*
X92708Y367428D01*
X91810Y368772D01*
X90465Y369670D01*
X88879Y369986D01*
D02*
G37*
G36*
X-27432Y344758D02*
X-29018Y344442D01*
X-30362Y343544D01*
X-31260Y342200D01*
X-31576Y340614D01*
X-31260Y339028D01*
X-30362Y337684D01*
X-29018Y336786D01*
X-27432Y336470D01*
X-25846Y336786D01*
X-24502Y337684D01*
X-23604Y339028D01*
X-23288Y340614D01*
X-23604Y342200D01*
X-24502Y343544D01*
X-25846Y344442D01*
X-27432Y344758D01*
D02*
G37*
G36*
X0Y331804D02*
X-1586Y331488D01*
X-2930Y330590D01*
X-3828Y329246D01*
X-4144Y327660D01*
X-3828Y326074D01*
X-2930Y324730D01*
X-1586Y323832D01*
X0Y323516D01*
X1586Y323832D01*
X2930Y324730D01*
X3828Y326074D01*
X4144Y327660D01*
X3828Y329246D01*
X2930Y330590D01*
X1586Y331488D01*
X0Y331804D01*
D02*
G37*
G36*
X9144Y322914D02*
X7558Y322598D01*
X6214Y321700D01*
X5316Y320356D01*
X5000Y318770D01*
X5316Y317184D01*
X6214Y315840D01*
X7558Y314942D01*
X9144Y314626D01*
X10730Y314942D01*
X12074Y315840D01*
X12972Y317184D01*
X13288Y318770D01*
X12972Y320356D01*
X12074Y321700D01*
X10730Y322598D01*
X9144Y322914D01*
D02*
G37*
G36*
X-135729Y213097D02*
X-139926Y212766D01*
X-144020Y211783D01*
X-147910Y210172D01*
X-151500Y207972D01*
X-154702Y205237D01*
X-157437Y202036D01*
X-159637Y198446D01*
X-161248Y194555D01*
X-162231Y190461D01*
X-162561Y186264D01*
X-162231Y182066D01*
X-161248Y177972D01*
X-159637Y174082D01*
X-157437Y170492D01*
X-154702Y167290D01*
X-152227Y164815D01*
X-149026Y162081D01*
X-145435Y159881D01*
X-141545Y158270D01*
X-137451Y157287D01*
X-133254Y156956D01*
X-129056Y157287D01*
X-124962Y158270D01*
X-121072Y159881D01*
X-117482Y162081D01*
X-114280Y164815D01*
X-111545Y168017D01*
X-109346Y171607D01*
X-107734Y175497D01*
X-106751Y179591D01*
X-106421Y183789D01*
X-106751Y187986D01*
X-107734Y192081D01*
X-109346Y195971D01*
X-111545Y199561D01*
X-114280Y202763D01*
X-116755Y205237D01*
X-119957Y207972D01*
X-123547Y210172D01*
X-127437Y211783D01*
X-131531Y212766D01*
X-135729Y213097D01*
D02*
G37*
G36*
X-99136Y161042D02*
X-102079Y160655D01*
X-104821Y159519D01*
X-107177Y157712D01*
X-108984Y155357D01*
X-110120Y152614D01*
X-110507Y149671D01*
X-110120Y146728D01*
X-108984Y143985D01*
X-107177Y141630D01*
X-104821Y139823D01*
X-102079Y138687D01*
X-99136Y138300D01*
X-96193Y138687D01*
X-93450Y139823D01*
X-91095Y141630D01*
X-89288Y143985D01*
X-88152Y146728D01*
X-87765Y149671D01*
X-88152Y152614D01*
X-89288Y155357D01*
X-91095Y157712D01*
X-93450Y159519D01*
X-96193Y160655D01*
X-99136Y161042D01*
D02*
G37*
G36*
X-65018Y126924D02*
X-67961Y126537D01*
X-70704Y125401D01*
X-73059Y123594D01*
X-74866Y121239D01*
X-76002Y118496D01*
X-76389Y115553D01*
X-76002Y112610D01*
X-74866Y109867D01*
X-73059Y107512D01*
X-70584Y105037D01*
X-68229Y103230D01*
X-65486Y102094D01*
X-62543Y101707D01*
X-59600Y102094D01*
X-56857Y103230D01*
X-54502Y105037D01*
X-52695Y107393D01*
X-51559Y110135D01*
X-51172Y113078D01*
X-51559Y116021D01*
X-52695Y118764D01*
X-54502Y121119D01*
X-56977Y123594D01*
X-59332Y125401D01*
X-62075Y126537D01*
X-65018Y126924D01*
D02*
G37*
G36*
X-146558Y460328D02*
X-148144Y460012D01*
X-149488Y459114D01*
X-150386Y457770D01*
X-150702Y456184D01*
X-150386Y454598D01*
X-149488Y453254D01*
X-148144Y452356D01*
X-146558Y452040D01*
X-144972Y452356D01*
X-143628Y453254D01*
X-142730Y454598D01*
X-142414Y456184D01*
X-142730Y457770D01*
X-143628Y459114D01*
X-144972Y460012D01*
X-146558Y460328D01*
D02*
G37*
G36*
X-272288Y395812D02*
X-273874Y395496D01*
X-275218Y394598D01*
X-276116Y393254D01*
X-276432Y391668D01*
X-276116Y390082D01*
X-275218Y388738D01*
X-273874Y387840D01*
X-272288Y387524D01*
X-270702Y387840D01*
X-269358Y388738D01*
X-268460Y390082D01*
X-268144Y391668D01*
X-268460Y393254D01*
X-269358Y394598D01*
X-270702Y395496D01*
X-272288Y395812D01*
D02*
G37*
G36*
X-298450Y373206D02*
X-300036Y372890D01*
X-301380Y371992D01*
X-302278Y370648D01*
X-302594Y369062D01*
X-302278Y367476D01*
X-301380Y366132D01*
X-300036Y365234D01*
X-298450Y364918D01*
X-296864Y365234D01*
X-295520Y366132D01*
X-294622Y367476D01*
X-294306Y369062D01*
X-294622Y370648D01*
X-295520Y371992D01*
X-296864Y372890D01*
X-298450Y373206D01*
D02*
G37*
G36*
X-321256Y354410D02*
X-322841Y354094D01*
X-324186Y353196D01*
X-325084Y351852D01*
X-325400Y350266D01*
X-325084Y348680D01*
X-324186Y347336D01*
X-322841Y346438D01*
X-321256Y346122D01*
X-319670Y346438D01*
X-318326Y347336D01*
X-317428Y348680D01*
X-317112Y350266D01*
X-317428Y351852D01*
X-318326Y353196D01*
X-319670Y354094D01*
X-321256Y354410D01*
D02*
G37*
G36*
X-189822Y357795D02*
X-192765Y357407D01*
X-195508Y356271D01*
X-197863Y354464D01*
X-199670Y352109D01*
X-200806Y349366D01*
X-201194Y346423D01*
X-200806Y343480D01*
X-199670Y340738D01*
X-197863Y338383D01*
X-195388Y335908D01*
X-193033Y334101D01*
X-190290Y332965D01*
X-187347Y332577D01*
X-184404Y332965D01*
X-181662Y334101D01*
X-179307Y335908D01*
X-177500Y338263D01*
X-176364Y341006D01*
X-175976Y343949D01*
X-176364Y346892D01*
X-177500Y349634D01*
X-179307Y351989D01*
X-181782Y354464D01*
X-184137Y356271D01*
X-186879Y357407D01*
X-189822Y357795D01*
D02*
G37*
G36*
X-342900Y334852D02*
X-344486Y334536D01*
X-345830Y333638D01*
X-346728Y332294D01*
X-347044Y330708D01*
X-346728Y329122D01*
X-345830Y327778D01*
X-344486Y326880D01*
X-342900Y326564D01*
X-341314Y326880D01*
X-339970Y327778D01*
X-339072Y329122D01*
X-338756Y330708D01*
X-339072Y332294D01*
X-339970Y333638D01*
X-341314Y334536D01*
X-342900Y334852D01*
D02*
G37*
G36*
X-264966Y328000D02*
X-266552Y327684D01*
X-267896Y326786D01*
X-268795Y325442D01*
X-269110Y323856D01*
X-268795Y322271D01*
X-267896Y320926D01*
X-266552Y320028D01*
X-264966Y319713D01*
X-263381Y320028D01*
X-262036Y320926D01*
X-261138Y322271D01*
X-260823Y323856D01*
X-261138Y325442D01*
X-262036Y326786D01*
X-263381Y327684D01*
X-264966Y328000D01*
D02*
G37*
G36*
X-364616Y312715D02*
X-366201Y312400D01*
X-367546Y311502D01*
X-368444Y310157D01*
X-368759Y308572D01*
X-368444Y306986D01*
X-367546Y305642D01*
X-366201Y304743D01*
X-364616Y304428D01*
X-363030Y304743D01*
X-361686Y305642D01*
X-360787Y306986D01*
X-360472Y308572D01*
X-360787Y310157D01*
X-361686Y311502D01*
X-363030Y312400D01*
X-364616Y312715D01*
D02*
G37*
G36*
X-268037Y310793D02*
X-269623Y310477D01*
X-270967Y309579D01*
X-271865Y308235D01*
X-272181Y306649D01*
X-271865Y305063D01*
X-270967Y303719D01*
X-269623Y302821D01*
X-268037Y302505D01*
X-266451Y302821D01*
X-265107Y303719D01*
X-264209Y305063D01*
X-263894Y306649D01*
X-264209Y308235D01*
X-265107Y309579D01*
X-266451Y310477D01*
X-268037Y310793D01*
D02*
G37*
G36*
X-311215Y305922D02*
X-312800Y305606D01*
X-314144Y304708D01*
X-315043Y303364D01*
X-315358Y301778D01*
X-315043Y300193D01*
X-314144Y298848D01*
X-312800Y297950D01*
X-311215Y297635D01*
X-309629Y297950D01*
X-308284Y298848D01*
X-307386Y300193D01*
X-307071Y301778D01*
X-307386Y303364D01*
X-308284Y304708D01*
X-309629Y305606D01*
X-311215Y305922D01*
D02*
G37*
G36*
X-386334Y286084D02*
X-387920Y285768D01*
X-389264Y284870D01*
X-390162Y283526D01*
X-390478Y281940D01*
X-390162Y280354D01*
X-389264Y279010D01*
X-387920Y278112D01*
X-386334Y277796D01*
X-384748Y278112D01*
X-383404Y279010D01*
X-382506Y280354D01*
X-382190Y281940D01*
X-382506Y283526D01*
X-383404Y284870D01*
X-384748Y285768D01*
X-386334Y286084D01*
D02*
G37*
G36*
X-406654Y255867D02*
X-408240Y255551D01*
X-409584Y254653D01*
X-410482Y253309D01*
X-410798Y251723D01*
X-410482Y250138D01*
X-409584Y248793D01*
X-408240Y247895D01*
X-406654Y247580D01*
X-405068Y247895D01*
X-403724Y248793D01*
X-402826Y250138D01*
X-402510Y251723D01*
X-402826Y253309D01*
X-403724Y254653D01*
X-405068Y255551D01*
X-406654Y255867D01*
D02*
G37*
G36*
X-345694Y243666D02*
X-347280Y243350D01*
X-348624Y242452D01*
X-349522Y241108D01*
X-349838Y239522D01*
X-349522Y237936D01*
X-348624Y236592D01*
X-347280Y235694D01*
X-345694Y235378D01*
X-344108Y235694D01*
X-342764Y236592D01*
X-341866Y237936D01*
X-341550Y239522D01*
X-341866Y241108D01*
X-342764Y242452D01*
X-344108Y243350D01*
X-345694Y243666D01*
D02*
G37*
G36*
X-425450Y223346D02*
X-427036Y223030D01*
X-428380Y222132D01*
X-429278Y220788D01*
X-429594Y219202D01*
X-429278Y217616D01*
X-428380Y216272D01*
X-427036Y215374D01*
X-425450Y215058D01*
X-423864Y215374D01*
X-422520Y216272D01*
X-421622Y217616D01*
X-421306Y219202D01*
X-421622Y220788D01*
X-422520Y222132D01*
X-423864Y223030D01*
X-425450Y223346D01*
D02*
G37*
G36*
X-362966Y213930D02*
X-364552Y213614D01*
X-365896Y212716D01*
X-366794Y211372D01*
X-367110Y209786D01*
X-366794Y208200D01*
X-365896Y206856D01*
X-364552Y205958D01*
X-362966Y205643D01*
X-361380Y205958D01*
X-360036Y206856D01*
X-359138Y208200D01*
X-358822Y209786D01*
X-359138Y211372D01*
X-360036Y212716D01*
X-361380Y213614D01*
X-362966Y213930D01*
D02*
G37*
G36*
X-442722Y189056D02*
X-444308Y188740D01*
X-445652Y187842D01*
X-446550Y186498D01*
X-446866Y184912D01*
X-446550Y183326D01*
X-445652Y181982D01*
X-444308Y181084D01*
X-442722Y180768D01*
X-441136Y181084D01*
X-439792Y181982D01*
X-438894Y183326D01*
X-438578Y184912D01*
X-438894Y186498D01*
X-439792Y187842D01*
X-441136Y188740D01*
X-442722Y189056D01*
D02*
G37*
G36*
X-379730Y178134D02*
X-381316Y177818D01*
X-382660Y176920D01*
X-383558Y175576D01*
X-383874Y173990D01*
X-383558Y172404D01*
X-382660Y171060D01*
X-381316Y170162D01*
X-379730Y169846D01*
X-378144Y170162D01*
X-376800Y171060D01*
X-375902Y172404D01*
X-375586Y173990D01*
X-375902Y175576D01*
X-376800Y176920D01*
X-378144Y177818D01*
X-379730Y178134D01*
D02*
G37*
G36*
X-357063Y163996D02*
X-359243Y163562D01*
X-361091Y162327D01*
X-362326Y160479D01*
X-362760Y158299D01*
X-362326Y156118D01*
X-361091Y154270D01*
X-359243Y153035D01*
X-357063Y152601D01*
X-354882Y153035D01*
X-353034Y154270D01*
X-351799Y156118D01*
X-351365Y158299D01*
X-351799Y160479D01*
X-353034Y162327D01*
X-354882Y163562D01*
X-357063Y163996D01*
D02*
G37*
G36*
X-454600Y154512D02*
X-456185Y154196D01*
X-457530Y153298D01*
X-458428Y151954D01*
X-458744Y150368D01*
X-458428Y148782D01*
X-457530Y147438D01*
X-456185Y146540D01*
X-454600Y146224D01*
X-453014Y146540D01*
X-451670Y147438D01*
X-450772Y148782D01*
X-450456Y150368D01*
X-450772Y151954D01*
X-451670Y153298D01*
X-453014Y154196D01*
X-454600Y154512D01*
D02*
G37*
G36*
X-393954Y141050D02*
X-395540Y140734D01*
X-396884Y139836D01*
X-397782Y138492D01*
X-398098Y136906D01*
X-397782Y135320D01*
X-396884Y133976D01*
X-395540Y133078D01*
X-393954Y132762D01*
X-392368Y133078D01*
X-391024Y133976D01*
X-390126Y135320D01*
X-389810Y136906D01*
X-390126Y138492D01*
X-391024Y139836D01*
X-392368Y140734D01*
X-393954Y141050D01*
D02*
G37*
G36*
X463296Y130890D02*
X461710Y130574D01*
X460366Y129676D01*
X459468Y128332D01*
X459152Y126746D01*
X459468Y125160D01*
X460366Y123816D01*
X461710Y122918D01*
X463296Y122602D01*
X464882Y122918D01*
X466226Y123816D01*
X467124Y125160D01*
X467440Y126746D01*
X467124Y128332D01*
X466226Y129676D01*
X464882Y130574D01*
X463296Y130890D01*
D02*
G37*
G36*
X-464646Y120730D02*
X-466232Y120414D01*
X-467576Y119516D01*
X-468474Y118172D01*
X-468790Y116586D01*
X-468474Y115000D01*
X-467576Y113656D01*
X-466232Y112758D01*
X-464646Y112442D01*
X-463060Y112758D01*
X-461716Y113656D01*
X-460818Y115000D01*
X-460503Y116586D01*
X-460818Y118172D01*
X-461716Y119516D01*
X-463060Y120414D01*
X-464646Y120730D01*
D02*
G37*
G36*
X467684Y112201D02*
X466098Y111886D01*
X464754Y110988D01*
X463855Y109643D01*
X463540Y108057D01*
X463855Y106472D01*
X464754Y105127D01*
X466098Y104229D01*
X467684Y103914D01*
X469269Y104229D01*
X470614Y105127D01*
X471512Y106472D01*
X471827Y108057D01*
X471512Y109643D01*
X470614Y110988D01*
X469269Y111886D01*
X467684Y112201D01*
D02*
G37*
G36*
X-356108Y108030D02*
X-357694Y107714D01*
X-359038Y106816D01*
X-359936Y105472D01*
X-360252Y103886D01*
X-359936Y102300D01*
X-359038Y100956D01*
X-357694Y100058D01*
X-356108Y99742D01*
X-354522Y100058D01*
X-353178Y100956D01*
X-352280Y102300D01*
X-351964Y103886D01*
X-352280Y105472D01*
X-353178Y106816D01*
X-354522Y107714D01*
X-356108Y108030D01*
D02*
G37*
G36*
X-405638Y107014D02*
X-407224Y106698D01*
X-408568Y105800D01*
X-409466Y104456D01*
X-409782Y102870D01*
X-409466Y101284D01*
X-408568Y99940D01*
X-407224Y99042D01*
X-405638Y98726D01*
X-404052Y99042D01*
X-402708Y99940D01*
X-401810Y101284D01*
X-401494Y102870D01*
X-401810Y104456D01*
X-402708Y105800D01*
X-404052Y106698D01*
X-405638Y107014D01*
D02*
G37*
G36*
X470594Y96518D02*
X469008Y96202D01*
X467664Y95304D01*
X466766Y93960D01*
X466451Y92374D01*
X466766Y90788D01*
X467664Y89444D01*
X469008Y88546D01*
X470594Y88230D01*
X472180Y88546D01*
X473524Y89444D01*
X474422Y90788D01*
X474738Y92374D01*
X474422Y93960D01*
X473524Y95304D01*
X472180Y96202D01*
X470594Y96518D01*
D02*
G37*
G36*
X454914Y94722D02*
X453328Y94406D01*
X451984Y93508D01*
X451086Y92164D01*
X450770Y90578D01*
X451086Y88992D01*
X451984Y87648D01*
X453328Y86750D01*
X454914Y86434D01*
X456500Y86750D01*
X457844Y87648D01*
X458742Y88992D01*
X459058Y90578D01*
X458742Y92164D01*
X457844Y93508D01*
X456500Y94406D01*
X454914Y94722D01*
D02*
G37*
G36*
X435922Y87537D02*
X434337Y87222D01*
X432992Y86324D01*
X432094Y84980D01*
X431778Y83394D01*
X432094Y81808D01*
X432992Y80464D01*
X434337Y79566D01*
X435922Y79250D01*
X437508Y79566D01*
X438852Y80464D01*
X439750Y81808D01*
X440066Y83394D01*
X439750Y84980D01*
X438852Y86324D01*
X437508Y87222D01*
X435922Y87537D01*
D02*
G37*
G36*
X-473710Y83495D02*
X-475296Y83180D01*
X-476640Y82281D01*
X-477538Y80937D01*
X-477854Y79351D01*
X-477538Y77766D01*
X-476640Y76421D01*
X-475296Y75523D01*
X-473710Y75208D01*
X-472124Y75523D01*
X-470780Y76421D01*
X-469882Y77766D01*
X-469566Y79351D01*
X-469882Y80937D01*
X-470780Y82281D01*
X-472124Y83180D01*
X-473710Y83495D01*
D02*
G37*
G36*
X-420045Y81472D02*
X-421631Y81157D01*
X-422975Y80259D01*
X-423873Y78914D01*
X-424188Y77329D01*
X-423873Y75743D01*
X-422975Y74399D01*
X-421631Y73500D01*
X-420045Y73185D01*
X-418459Y73500D01*
X-417115Y74399D01*
X-416217Y75743D01*
X-415901Y77329D01*
X-416217Y78914D01*
X-417115Y80259D01*
X-418459Y81157D01*
X-420045Y81472D01*
D02*
G37*
G36*
X471678Y79201D02*
X470092Y78885D01*
X468748Y77987D01*
X467850Y76643D01*
X467534Y75057D01*
X467850Y73471D01*
X468748Y72127D01*
X470092Y71229D01*
X471678Y70913D01*
X473264Y71229D01*
X474608Y72127D01*
X475506Y73471D01*
X475822Y75057D01*
X475506Y76643D01*
X474608Y77987D01*
X473264Y78885D01*
X471678Y79201D01*
D02*
G37*
G36*
X458470D02*
X456884Y78885D01*
X455540Y77987D01*
X454642Y76643D01*
X454326Y75057D01*
X454642Y73471D01*
X455540Y72127D01*
X456884Y71229D01*
X458470Y70913D01*
X460056Y71229D01*
X461400Y72127D01*
X462298Y73471D01*
X462614Y75057D01*
X462298Y76643D01*
X461400Y77987D01*
X460056Y78885D01*
X458470Y79201D01*
D02*
G37*
G36*
X446160D02*
X444574Y78885D01*
X443230Y77987D01*
X442331Y76643D01*
X442016Y75057D01*
X442331Y73471D01*
X443230Y72127D01*
X444574Y71229D01*
X446160Y70913D01*
X447745Y71229D01*
X449090Y72127D01*
X449988Y73471D01*
X450303Y75057D01*
X449988Y76643D01*
X449090Y77987D01*
X447745Y78885D01*
X446160Y79201D01*
D02*
G37*
G36*
X467684Y58705D02*
X466098Y58389D01*
X464754Y57491D01*
X463855Y56147D01*
X463540Y54561D01*
X463855Y52975D01*
X464754Y51631D01*
X466098Y50733D01*
X467684Y50417D01*
X469269Y50733D01*
X470614Y51631D01*
X471512Y52975D01*
X471827Y54561D01*
X471512Y56147D01*
X470614Y57491D01*
X469269Y58389D01*
X467684Y58705D01*
D02*
G37*
G36*
X-478282Y46308D02*
X-479868Y45992D01*
X-481212Y45094D01*
X-482110Y43750D01*
X-482426Y42164D01*
X-482110Y40578D01*
X-481212Y39234D01*
X-479868Y38336D01*
X-478282Y38020D01*
X-476696Y38336D01*
X-475352Y39234D01*
X-474454Y40578D01*
X-474138Y42164D01*
X-474454Y43750D01*
X-475352Y45094D01*
X-476696Y45992D01*
X-478282Y46308D01*
D02*
G37*
G36*
X435383Y44353D02*
X433798Y44037D01*
X432453Y43139D01*
X431555Y41795D01*
X431240Y40209D01*
X431555Y38623D01*
X432453Y37279D01*
X433798Y36381D01*
X435383Y36065D01*
X436969Y36381D01*
X438313Y37279D01*
X439212Y38623D01*
X439527Y40209D01*
X439212Y41795D01*
X438313Y43139D01*
X436969Y44037D01*
X435383Y44353D01*
D02*
G37*
G36*
X418501Y43634D02*
X416915Y43319D01*
X415570Y42421D01*
X414672Y41076D01*
X414357Y39491D01*
X414672Y37905D01*
X415570Y36561D01*
X416915Y35663D01*
X418501Y35347D01*
X420086Y35663D01*
X421431Y36561D01*
X422329Y37905D01*
X422644Y39491D01*
X422329Y41076D01*
X421431Y42421D01*
X420086Y43319D01*
X418501Y43634D01*
D02*
G37*
G36*
X-418338Y36402D02*
X-419924Y36086D01*
X-421268Y35188D01*
X-422166Y33844D01*
X-422482Y32258D01*
X-422166Y30672D01*
X-421268Y29328D01*
X-419924Y28430D01*
X-418338Y28114D01*
X-416752Y28430D01*
X-415408Y29328D01*
X-414510Y30672D01*
X-414194Y32258D01*
X-414510Y33844D01*
X-415408Y35188D01*
X-416752Y36086D01*
X-418338Y36402D01*
D02*
G37*
G36*
X480285Y35732D02*
X478699Y35416D01*
X477355Y34518D01*
X476456Y33174D01*
X476141Y31588D01*
X476456Y30002D01*
X477355Y28658D01*
X478699Y27760D01*
X480285Y27444D01*
X481870Y27760D01*
X483215Y28658D01*
X484113Y30002D01*
X484428Y31588D01*
X484113Y33174D01*
X483215Y34518D01*
X481870Y35416D01*
X480285Y35732D01*
D02*
G37*
G36*
X-380333Y33100D02*
X-381918Y32784D01*
X-383263Y31886D01*
X-384161Y30542D01*
X-384476Y28956D01*
X-384161Y27370D01*
X-383263Y26026D01*
X-381918Y25128D01*
X-380333Y24812D01*
X-378747Y25128D01*
X-377403Y26026D01*
X-376505Y27370D01*
X-376189Y28956D01*
X-376505Y30542D01*
X-377403Y31886D01*
X-378747Y32784D01*
X-380333Y33100D01*
D02*
G37*
G36*
X-368603Y27766D02*
X-370189Y27450D01*
X-371533Y26552D01*
X-372431Y25208D01*
X-372747Y23622D01*
X-372431Y22036D01*
X-371533Y20692D01*
X-370189Y19794D01*
X-368603Y19478D01*
X-367018Y19794D01*
X-365673Y20692D01*
X-364775Y22036D01*
X-364460Y23622D01*
X-364775Y25208D01*
X-365673Y26552D01*
X-367018Y27450D01*
X-368603Y27766D01*
D02*
G37*
G36*
X421988Y29997D02*
X419808Y29563D01*
X417959Y28328D01*
X416724Y26480D01*
X416291Y24299D01*
X416724Y22119D01*
X417959Y20271D01*
X419808Y19036D01*
X421988Y18602D01*
X424168Y19036D01*
X426017Y20271D01*
X427252Y22119D01*
X427685Y24299D01*
X427252Y26480D01*
X426017Y28328D01*
X424168Y29563D01*
X421988Y29997D01*
D02*
G37*
G36*
X405030Y37106D02*
X402850Y36672D01*
X401001Y35437D01*
X399766Y33589D01*
X399333Y31409D01*
X399766Y29228D01*
X401001Y27380D01*
X401599Y26981D01*
Y25711D01*
X400797Y25175D01*
X399562Y23327D01*
X399129Y21147D01*
X399562Y18966D01*
X400797Y17118D01*
X402646Y15883D01*
X404826Y15449D01*
X407006Y15883D01*
X408855Y17118D01*
X410090Y18966D01*
X410524Y21147D01*
X410090Y23327D01*
X408855Y25175D01*
X408258Y25574D01*
Y26844D01*
X409059Y27380D01*
X410294Y29228D01*
X410728Y31409D01*
X410294Y33589D01*
X409059Y35437D01*
X407210Y36672D01*
X405030Y37106D01*
D02*
G37*
G36*
X-354584Y22178D02*
X-356170Y21862D01*
X-357514Y20964D01*
X-358412Y19620D01*
X-358728Y18034D01*
X-358412Y16448D01*
X-357514Y15104D01*
X-356170Y14206D01*
X-354584Y13890D01*
X-352998Y14206D01*
X-351654Y15104D01*
X-350756Y16448D01*
X-350440Y18034D01*
X-350756Y19620D01*
X-351654Y20964D01*
X-352998Y21862D01*
X-354584Y22178D01*
D02*
G37*
G36*
X-479552Y5668D02*
X-481138Y5352D01*
X-482482Y4454D01*
X-483380Y3110D01*
X-483696Y1524D01*
X-483380Y-62D01*
X-482482Y-1406D01*
X-481138Y-2304D01*
X-479552Y-2620D01*
X-477966Y-2304D01*
X-476622Y-1406D01*
X-475724Y-62D01*
X-475408Y1524D01*
X-475724Y3110D01*
X-476622Y4454D01*
X-477966Y5352D01*
X-479552Y5668D01*
D02*
G37*
G36*
X480285Y2892D02*
X478699Y2576D01*
X477355Y1678D01*
X476456Y334D01*
X476141Y-1252D01*
X476456Y-2838D01*
X477355Y-4182D01*
X478699Y-5080D01*
X480285Y-5396D01*
X481870Y-5080D01*
X483215Y-4182D01*
X484113Y-2838D01*
X484428Y-1252D01*
X484113Y334D01*
X483215Y1678D01*
X481870Y2576D01*
X480285Y2892D01*
D02*
G37*
G36*
X-418338Y2874D02*
X-419924Y2558D01*
X-421268Y1660D01*
X-422166Y316D01*
X-422482Y-1270D01*
X-422166Y-2856D01*
X-421268Y-4200D01*
X-419924Y-5098D01*
X-418338Y-5414D01*
X-416752Y-5098D01*
X-415408Y-4200D01*
X-414510Y-2856D01*
X-414194Y-1270D01*
X-414510Y316D01*
X-415408Y1660D01*
X-416752Y2558D01*
X-418338Y2874D01*
D02*
G37*
G36*
X364489Y-2946D02*
X362903Y-3261D01*
X361559Y-4159D01*
X360661Y-5503D01*
X360345Y-7089D01*
X360661Y-8675D01*
X361559Y-10019D01*
X362903Y-10917D01*
X364489Y-11233D01*
X366074Y-10917D01*
X367419Y-10019D01*
X368317Y-8675D01*
X368632Y-7089D01*
X368317Y-5503D01*
X367419Y-4159D01*
X366074Y-3261D01*
X364489Y-2946D01*
D02*
G37*
G36*
X334464Y-23538D02*
X332878Y-23853D01*
X331534Y-24752D01*
X330636Y-26096D01*
X330320Y-27682D01*
X330636Y-29267D01*
X331534Y-30612D01*
X332878Y-31510D01*
X334464Y-31825D01*
X336049Y-31510D01*
X337394Y-30612D01*
X338292Y-29267D01*
X338607Y-27682D01*
X338292Y-26096D01*
X337394Y-24752D01*
X336049Y-23853D01*
X334464Y-23538D01*
D02*
G37*
G36*
X-383540Y-30309D02*
X-385126Y-30625D01*
X-386470Y-31523D01*
X-387368Y-32867D01*
X-387684Y-34453D01*
X-387368Y-36038D01*
X-386470Y-37383D01*
X-385126Y-38281D01*
X-383540Y-38596D01*
X-381954Y-38281D01*
X-380610Y-37383D01*
X-379712Y-36038D01*
X-379396Y-34453D01*
X-379712Y-32867D01*
X-380610Y-31523D01*
X-381954Y-30625D01*
X-383540Y-30309D01*
D02*
G37*
G36*
X-415798Y-31162D02*
X-417384Y-31478D01*
X-418728Y-32376D01*
X-419626Y-33720D01*
X-419942Y-35306D01*
X-419626Y-36892D01*
X-418728Y-38236D01*
X-417384Y-39134D01*
X-415798Y-39450D01*
X-414212Y-39134D01*
X-412868Y-38236D01*
X-411970Y-36892D01*
X-411654Y-35306D01*
X-411970Y-33720D01*
X-412868Y-32376D01*
X-414212Y-31478D01*
X-415798Y-31162D01*
D02*
G37*
G36*
X-353568Y-31924D02*
X-355154Y-32240D01*
X-356498Y-33138D01*
X-357396Y-34482D01*
X-357712Y-36068D01*
X-357396Y-37654D01*
X-356498Y-38998D01*
X-355154Y-39896D01*
X-353568Y-40212D01*
X-351982Y-39896D01*
X-350638Y-38998D01*
X-349740Y-37654D01*
X-349424Y-36068D01*
X-349740Y-34482D01*
X-350638Y-33138D01*
X-351982Y-32240D01*
X-353568Y-31924D01*
D02*
G37*
G36*
X-476250Y-37004D02*
X-477836Y-37320D01*
X-479180Y-38218D01*
X-480078Y-39562D01*
X-480394Y-41148D01*
X-480078Y-42734D01*
X-479180Y-44078D01*
X-477836Y-44976D01*
X-476250Y-45292D01*
X-474664Y-44976D01*
X-473320Y-44078D01*
X-472422Y-42734D01*
X-472106Y-41148D01*
X-472422Y-39562D01*
X-473320Y-38218D01*
X-474664Y-37320D01*
X-476250Y-37004D01*
D02*
G37*
G36*
X-311658Y-37766D02*
X-313244Y-38082D01*
X-314588Y-38980D01*
X-315486Y-40324D01*
X-315802Y-41910D01*
X-315486Y-43496D01*
X-314588Y-44840D01*
X-313244Y-45738D01*
X-311658Y-46054D01*
X-310072Y-45738D01*
X-308728Y-44840D01*
X-307830Y-43496D01*
X-307514Y-41910D01*
X-307830Y-40324D01*
X-308728Y-38980D01*
X-310072Y-38082D01*
X-311658Y-37766D01*
D02*
G37*
G36*
X477012Y-39544D02*
X475426Y-39860D01*
X474082Y-40758D01*
X473184Y-42102D01*
X472868Y-43688D01*
X473184Y-45274D01*
X474082Y-46618D01*
X475426Y-47516D01*
X477012Y-47832D01*
X478598Y-47516D01*
X479942Y-46618D01*
X480840Y-45274D01*
X481156Y-43688D01*
X480840Y-42102D01*
X479942Y-40758D01*
X478598Y-39860D01*
X477012Y-39544D01*
D02*
G37*
G36*
X403797Y-44624D02*
X402211Y-44940D01*
X400867Y-45838D01*
X399968Y-47182D01*
X399653Y-48768D01*
X399968Y-50354D01*
X400867Y-51698D01*
X402211Y-52596D01*
X403797Y-52912D01*
X405382Y-52596D01*
X406726Y-51698D01*
X407625Y-50354D01*
X407940Y-48768D01*
X407625Y-47182D01*
X406726Y-45838D01*
X405382Y-44940D01*
X403797Y-44624D01*
D02*
G37*
G36*
X358394Y-47201D02*
X356808Y-47516D01*
X355464Y-48415D01*
X354566Y-49759D01*
X354250Y-51345D01*
X354566Y-52930D01*
X355464Y-54275D01*
X356808Y-55173D01*
X358394Y-55488D01*
X359980Y-55173D01*
X361324Y-54275D01*
X362222Y-52930D01*
X362538Y-51345D01*
X362222Y-49759D01*
X361324Y-48415D01*
X359980Y-47516D01*
X358394Y-47201D01*
D02*
G37*
G36*
X436880Y-52752D02*
X435294Y-53068D01*
X433950Y-53966D01*
X433052Y-55310D01*
X432736Y-56896D01*
X433052Y-58482D01*
X433950Y-59826D01*
X435294Y-60724D01*
X436880Y-61040D01*
X438466Y-60724D01*
X439810Y-59826D01*
X440708Y-58482D01*
X441024Y-56896D01*
X440708Y-55310D01*
X439810Y-53966D01*
X438466Y-53068D01*
X436880Y-52752D01*
D02*
G37*
G36*
X-344170Y-73834D02*
X-345756Y-74150D01*
X-347100Y-75048D01*
X-347998Y-76392D01*
X-348314Y-77978D01*
X-347998Y-79564D01*
X-347100Y-80908D01*
X-345756Y-81806D01*
X-344170Y-82122D01*
X-342584Y-81806D01*
X-341240Y-80908D01*
X-340342Y-79564D01*
X-340026Y-77978D01*
X-340342Y-76392D01*
X-341240Y-75048D01*
X-342584Y-74150D01*
X-344170Y-73834D01*
D02*
G37*
G36*
X-378968Y-75104D02*
X-380554Y-75420D01*
X-381898Y-76318D01*
X-382796Y-77662D01*
X-383112Y-79248D01*
X-382796Y-80834D01*
X-381898Y-82178D01*
X-380554Y-83076D01*
X-378968Y-83392D01*
X-377382Y-83076D01*
X-376038Y-82178D01*
X-375140Y-80834D01*
X-374824Y-79248D01*
X-375140Y-77662D01*
X-376038Y-76318D01*
X-377382Y-75420D01*
X-378968Y-75104D01*
D02*
G37*
G36*
X-408940Y-76628D02*
X-410526Y-76944D01*
X-411870Y-77842D01*
X-412768Y-79186D01*
X-413084Y-80772D01*
X-412768Y-82358D01*
X-411870Y-83702D01*
X-410526Y-84600D01*
X-408940Y-84916D01*
X-407354Y-84600D01*
X-406010Y-83702D01*
X-405112Y-82358D01*
X-404796Y-80772D01*
X-405112Y-79186D01*
X-406010Y-77842D01*
X-407354Y-76944D01*
X-408940Y-76628D01*
D02*
G37*
G36*
X470916Y-78152D02*
X469330Y-78468D01*
X467986Y-79366D01*
X467088Y-80710D01*
X466772Y-82296D01*
X467088Y-83882D01*
X467986Y-85226D01*
X469330Y-86124D01*
X470916Y-86440D01*
X472502Y-86124D01*
X473846Y-85226D01*
X474744Y-83882D01*
X475060Y-82296D01*
X474744Y-80710D01*
X473846Y-79366D01*
X472502Y-78468D01*
X470916Y-78152D01*
D02*
G37*
G36*
X-276098Y-82923D02*
X-277684Y-83238D01*
X-279028Y-84136D01*
X-279926Y-85481D01*
X-280242Y-87066D01*
X-279926Y-88652D01*
X-279028Y-89996D01*
X-277684Y-90894D01*
X-276098Y-91210D01*
X-274512Y-90894D01*
X-273168Y-89996D01*
X-272270Y-88652D01*
X-271954Y-87066D01*
X-272270Y-85481D01*
X-273168Y-84136D01*
X-274512Y-83238D01*
X-276098Y-82923D01*
D02*
G37*
G36*
X264320Y-82978D02*
X262734Y-83294D01*
X261390Y-84192D01*
X260492Y-85536D01*
X260176Y-87122D01*
X260492Y-88708D01*
X261390Y-90052D01*
X262734Y-90950D01*
X264320Y-91266D01*
X265906Y-90950D01*
X267250Y-90052D01*
X268148Y-88708D01*
X268464Y-87122D01*
X268148Y-85536D01*
X267250Y-84192D01*
X265906Y-83294D01*
X264320Y-82978D01*
D02*
G37*
G36*
X-469392Y-83740D02*
X-470978Y-84056D01*
X-472322Y-84954D01*
X-473220Y-86298D01*
X-473536Y-87884D01*
X-473220Y-89470D01*
X-472322Y-90814D01*
X-470978Y-91712D01*
X-469392Y-92028D01*
X-467806Y-91712D01*
X-466462Y-90814D01*
X-465564Y-89470D01*
X-465248Y-87884D01*
X-465564Y-86298D01*
X-466462Y-84954D01*
X-467806Y-84056D01*
X-469392Y-83740D01*
D02*
G37*
G36*
X239776Y-84756D02*
X238190Y-85072D01*
X236846Y-85970D01*
X235948Y-87314D01*
X235632Y-88900D01*
X235948Y-90486D01*
X236846Y-91830D01*
X238190Y-92728D01*
X239776Y-93044D01*
X241362Y-92728D01*
X242706Y-91830D01*
X243604Y-90486D01*
X243920Y-88900D01*
X243604Y-87314D01*
X242706Y-85970D01*
X241362Y-85072D01*
X239776Y-84756D01*
D02*
G37*
G36*
X430276Y-90852D02*
X428690Y-91168D01*
X427346Y-92066D01*
X426448Y-93410D01*
X426132Y-94996D01*
X426448Y-96582D01*
X427346Y-97926D01*
X428690Y-98824D01*
X430276Y-99140D01*
X431862Y-98824D01*
X433206Y-97926D01*
X434104Y-96582D01*
X434420Y-94996D01*
X434104Y-93410D01*
X433206Y-92066D01*
X431862Y-91168D01*
X430276Y-90852D01*
D02*
G37*
G36*
X-302224Y-97964D02*
X-303810Y-98280D01*
X-305154Y-99178D01*
X-306052Y-100522D01*
X-306367Y-102108D01*
X-306052Y-103694D01*
X-305154Y-105038D01*
X-303810Y-105936D01*
X-302224Y-106252D01*
X-300638Y-105936D01*
X-299294Y-105038D01*
X-298396Y-103694D01*
X-298080Y-102108D01*
X-298396Y-100522D01*
X-299294Y-99178D01*
X-300638Y-98280D01*
X-302224Y-97964D01*
D02*
G37*
G36*
X-365252Y-104189D02*
X-366838Y-104504D01*
X-368182Y-105402D01*
X-369080Y-106747D01*
X-369396Y-108332D01*
X-369080Y-109918D01*
X-368182Y-111262D01*
X-366838Y-112161D01*
X-365252Y-112476D01*
X-363666Y-112161D01*
X-362322Y-111262D01*
X-361424Y-109918D01*
X-361108Y-108332D01*
X-361424Y-106747D01*
X-362322Y-105402D01*
X-363666Y-104504D01*
X-365252Y-104189D01*
D02*
G37*
G36*
X-402082D02*
X-403668Y-104504D01*
X-405012Y-105402D01*
X-405910Y-106747D01*
X-406226Y-108332D01*
X-405910Y-109918D01*
X-405012Y-111262D01*
X-403668Y-112161D01*
X-402082Y-112476D01*
X-400496Y-112161D01*
X-399152Y-111262D01*
X-398254Y-109918D01*
X-397938Y-108332D01*
X-398254Y-106747D01*
X-399152Y-105402D01*
X-400496Y-104504D01*
X-402082Y-104189D01*
D02*
G37*
G36*
X313571Y-104409D02*
X311985Y-104725D01*
X310641Y-105623D01*
X309743Y-106967D01*
X309427Y-108553D01*
X309743Y-110139D01*
X310641Y-111483D01*
X311985Y-112381D01*
X313571Y-112697D01*
X315157Y-112381D01*
X316501Y-111483D01*
X317399Y-110139D01*
X317715Y-108553D01*
X317399Y-106967D01*
X316501Y-105623D01*
X315157Y-104725D01*
X313571Y-104409D01*
D02*
G37*
G36*
X390144Y-105076D02*
X388558Y-105392D01*
X387214Y-106290D01*
X386316Y-107634D01*
X386000Y-109220D01*
X386316Y-110806D01*
X387214Y-112150D01*
X388558Y-113048D01*
X390144Y-113364D01*
X391730Y-113048D01*
X393074Y-112150D01*
X393972Y-110806D01*
X394288Y-109220D01*
X393972Y-107634D01*
X393074Y-106290D01*
X391730Y-105392D01*
X390144Y-105076D01*
D02*
G37*
G36*
X341246Y-106092D02*
X339660Y-106408D01*
X338316Y-107306D01*
X337418Y-108650D01*
X337102Y-110236D01*
X337418Y-111822D01*
X338316Y-113166D01*
X339660Y-114064D01*
X341246Y-114380D01*
X342831Y-114064D01*
X344176Y-113166D01*
X345074Y-111822D01*
X345390Y-110236D01*
X345074Y-108650D01*
X344176Y-107306D01*
X342831Y-106408D01*
X341246Y-106092D01*
D02*
G37*
G36*
X-318516Y-109902D02*
X-320102Y-110218D01*
X-321446Y-111116D01*
X-322344Y-112460D01*
X-322660Y-114046D01*
X-322344Y-115632D01*
X-321446Y-116976D01*
X-320102Y-117874D01*
X-318516Y-118190D01*
X-316930Y-117874D01*
X-315586Y-116976D01*
X-314688Y-115632D01*
X-314372Y-114046D01*
X-314688Y-112460D01*
X-315586Y-111116D01*
X-316930Y-110218D01*
X-318516Y-109902D01*
D02*
G37*
G36*
X-288798Y-111934D02*
X-290384Y-112250D01*
X-291728Y-113148D01*
X-292626Y-114492D01*
X-292942Y-116078D01*
X-292626Y-117664D01*
X-291728Y-119008D01*
X-290384Y-119906D01*
X-288798Y-120222D01*
X-287212Y-119906D01*
X-285868Y-119008D01*
X-284970Y-117664D01*
X-284654Y-116078D01*
X-284970Y-114492D01*
X-285868Y-113148D01*
X-287212Y-112250D01*
X-288798Y-111934D01*
D02*
G37*
G36*
X461264Y-117776D02*
X459678Y-118092D01*
X458334Y-118990D01*
X457436Y-120334D01*
X457120Y-121920D01*
X457436Y-123506D01*
X458334Y-124850D01*
X459678Y-125748D01*
X461264Y-126064D01*
X462850Y-125748D01*
X464194Y-124850D01*
X465092Y-123506D01*
X465408Y-121920D01*
X465092Y-120334D01*
X464194Y-118990D01*
X462850Y-118092D01*
X461264Y-117776D01*
D02*
G37*
G36*
X264320Y-120761D02*
X262734Y-121077D01*
X261390Y-121975D01*
X260492Y-123319D01*
X260176Y-124905D01*
X260492Y-126491D01*
X261390Y-127835D01*
X262734Y-128733D01*
X264320Y-129049D01*
X265906Y-128733D01*
X267250Y-127835D01*
X268148Y-126491D01*
X268464Y-124905D01*
X268148Y-123319D01*
X267250Y-121975D01*
X265906Y-121077D01*
X264320Y-120761D01*
D02*
G37*
G36*
X-334269Y-123110D02*
X-335855Y-123426D01*
X-337199Y-124324D01*
X-338098Y-125668D01*
X-338413Y-127254D01*
X-338098Y-128840D01*
X-337199Y-130184D01*
X-335855Y-131082D01*
X-334269Y-131398D01*
X-332684Y-131082D01*
X-331339Y-130184D01*
X-330441Y-128840D01*
X-330126Y-127254D01*
X-330441Y-125668D01*
X-331339Y-124324D01*
X-332684Y-123426D01*
X-334269Y-123110D01*
D02*
G37*
G36*
X-417606D02*
X-419192Y-123426D01*
X-420536Y-124324D01*
X-421434Y-125668D01*
X-421750Y-127254D01*
X-421434Y-128840D01*
X-420536Y-130184D01*
X-419192Y-131082D01*
X-417606Y-131398D01*
X-416020Y-131082D01*
X-414676Y-130184D01*
X-413778Y-128840D01*
X-413462Y-127254D01*
X-413778Y-125668D01*
X-414676Y-124324D01*
X-416020Y-123426D01*
X-417606Y-123110D01*
D02*
G37*
G36*
X-386334Y-124634D02*
X-387920Y-124950D01*
X-389264Y-125848D01*
X-390162Y-127192D01*
X-390478Y-128778D01*
X-390162Y-130364D01*
X-389264Y-131708D01*
X-387920Y-132606D01*
X-386334Y-132922D01*
X-384748Y-132606D01*
X-383404Y-131708D01*
X-382506Y-130364D01*
X-382190Y-128778D01*
X-382506Y-127192D01*
X-383404Y-125848D01*
X-384748Y-124950D01*
X-386334Y-124634D01*
D02*
G37*
G36*
X-276098Y-125614D02*
X-277684Y-125930D01*
X-279028Y-126828D01*
X-279926Y-128172D01*
X-280242Y-129758D01*
X-279926Y-131344D01*
X-279028Y-132688D01*
X-277684Y-133586D01*
X-276098Y-133902D01*
X-274512Y-133586D01*
X-273168Y-132688D01*
X-272270Y-131344D01*
X-271954Y-129758D01*
X-272270Y-128172D01*
X-273168Y-126828D01*
X-274512Y-125930D01*
X-276098Y-125614D01*
D02*
G37*
G36*
X-459740Y-125970D02*
X-461326Y-126285D01*
X-462670Y-127184D01*
X-463568Y-128528D01*
X-463884Y-130114D01*
X-463568Y-131699D01*
X-462670Y-133044D01*
X-461326Y-133942D01*
X-459740Y-134257D01*
X-458154Y-133942D01*
X-456810Y-133044D01*
X-455912Y-131699D01*
X-455596Y-130114D01*
X-455912Y-128528D01*
X-456810Y-127184D01*
X-458154Y-126285D01*
X-459740Y-125970D01*
D02*
G37*
G36*
X-304020Y-126666D02*
X-305606Y-126982D01*
X-306950Y-127880D01*
X-307848Y-129224D01*
X-308164Y-130810D01*
X-307848Y-132396D01*
X-306950Y-133740D01*
X-305606Y-134638D01*
X-304020Y-134954D01*
X-302434Y-134638D01*
X-301090Y-133740D01*
X-300192Y-132396D01*
X-299876Y-130810D01*
X-300192Y-129224D01*
X-301090Y-127880D01*
X-302434Y-126982D01*
X-304020Y-126666D01*
D02*
G37*
G36*
X-407670Y-129813D02*
X-409256Y-130129D01*
X-410600Y-131027D01*
X-411498Y-132371D01*
X-411814Y-133957D01*
X-411498Y-135543D01*
X-410600Y-136887D01*
X-409256Y-137785D01*
X-407670Y-138101D01*
X-406084Y-137785D01*
X-404740Y-136887D01*
X-403842Y-135543D01*
X-403526Y-133957D01*
X-403842Y-132371D01*
X-404740Y-131027D01*
X-406084Y-130129D01*
X-407670Y-129813D01*
D02*
G37*
G36*
X-399926Y-135793D02*
X-401511Y-136109D01*
X-402856Y-137007D01*
X-403754Y-138351D01*
X-404069Y-139937D01*
X-403754Y-141522D01*
X-402856Y-142867D01*
X-401511Y-143765D01*
X-399926Y-144080D01*
X-398340Y-143765D01*
X-396996Y-142867D01*
X-396097Y-141522D01*
X-395782Y-139937D01*
X-396097Y-138351D01*
X-396996Y-137007D01*
X-398340Y-136109D01*
X-399926Y-135793D01*
D02*
G37*
G36*
X-348488Y-135810D02*
X-350074Y-136126D01*
X-351418Y-137024D01*
X-352316Y-138368D01*
X-352632Y-139954D01*
X-352316Y-141540D01*
X-351418Y-142884D01*
X-350074Y-143782D01*
X-348488Y-144098D01*
X-346902Y-143782D01*
X-345558Y-142884D01*
X-344660Y-141540D01*
X-344344Y-139954D01*
X-344660Y-138368D01*
X-345558Y-137024D01*
X-346902Y-136126D01*
X-348488Y-135810D01*
D02*
G37*
G36*
X-284480Y-139290D02*
X-286066Y-139605D01*
X-287410Y-140504D01*
X-288308Y-141848D01*
X-288624Y-143434D01*
X-288308Y-145019D01*
X-287410Y-146363D01*
X-286066Y-147262D01*
X-284480Y-147577D01*
X-282894Y-147262D01*
X-281550Y-146363D01*
X-280652Y-145019D01*
X-280336Y-143434D01*
X-280652Y-141848D01*
X-281550Y-140504D01*
X-282894Y-139605D01*
X-284480Y-139290D01*
D02*
G37*
G36*
X-317246Y-139620D02*
X-318832Y-139936D01*
X-320176Y-140834D01*
X-321074Y-142178D01*
X-321390Y-143764D01*
X-321074Y-145350D01*
X-320176Y-146694D01*
X-318832Y-147592D01*
X-317246Y-147908D01*
X-315660Y-147592D01*
X-314316Y-146694D01*
X-313418Y-145350D01*
X-313102Y-143764D01*
X-313418Y-142178D01*
X-314316Y-140834D01*
X-315660Y-139936D01*
X-317246Y-139620D01*
D02*
G37*
G36*
X419488Y-140636D02*
X417902Y-140952D01*
X416558Y-141850D01*
X415660Y-143194D01*
X415344Y-144780D01*
X415660Y-146366D01*
X416558Y-147710D01*
X417902Y-148608D01*
X419488Y-148924D01*
X421074Y-148608D01*
X422418Y-147710D01*
X423316Y-146366D01*
X423632Y-144780D01*
X423316Y-143194D01*
X422418Y-141850D01*
X421074Y-140952D01*
X419488Y-140636D01*
D02*
G37*
G36*
X-392176Y-142414D02*
X-393762Y-142730D01*
X-395106Y-143628D01*
X-396004Y-144972D01*
X-396320Y-146558D01*
X-396004Y-148144D01*
X-395106Y-149488D01*
X-393762Y-150386D01*
X-392176Y-150702D01*
X-390590Y-150386D01*
X-389246Y-149488D01*
X-388348Y-148144D01*
X-388032Y-146558D01*
X-388348Y-144972D01*
X-389246Y-143628D01*
X-390590Y-142730D01*
X-392176Y-142414D01*
D02*
G37*
G36*
X375920Y-144192D02*
X374334Y-144508D01*
X372990Y-145406D01*
X372092Y-146750D01*
X371776Y-148336D01*
X372092Y-149922D01*
X372990Y-151266D01*
X374334Y-152164D01*
X375920Y-152480D01*
X377506Y-152164D01*
X378850Y-151266D01*
X379748Y-149922D01*
X380064Y-148336D01*
X379748Y-146750D01*
X378850Y-145406D01*
X377506Y-144508D01*
X375920Y-144192D01*
D02*
G37*
G36*
X202204Y-144633D02*
X200619Y-144948D01*
X199274Y-145846D01*
X198376Y-147191D01*
X198061Y-148776D01*
X198376Y-150362D01*
X199274Y-151706D01*
X200619Y-152604D01*
X202204Y-152920D01*
X203790Y-152604D01*
X205134Y-151706D01*
X206033Y-150362D01*
X206348Y-148776D01*
X206033Y-147191D01*
X205134Y-145846D01*
X203790Y-144948D01*
X202204Y-144633D01*
D02*
G37*
G36*
X253746Y-146374D02*
X252160Y-146689D01*
X250816Y-147587D01*
X249918Y-148932D01*
X249602Y-150518D01*
X249918Y-152103D01*
X250816Y-153447D01*
X252160Y-154346D01*
X253746Y-154661D01*
X255332Y-154346D01*
X256676Y-153447D01*
X257574Y-152103D01*
X257890Y-150518D01*
X257574Y-148932D01*
X256676Y-147587D01*
X255332Y-146689D01*
X253746Y-146374D01*
D02*
G37*
G36*
X178308Y-149526D02*
X176722Y-149842D01*
X175378Y-150740D01*
X174480Y-152084D01*
X174164Y-153670D01*
X174480Y-155256D01*
X175378Y-156600D01*
X176722Y-157498D01*
X178308Y-157814D01*
X179894Y-157498D01*
X181238Y-156600D01*
X182136Y-155256D01*
X182452Y-153670D01*
X182136Y-152084D01*
X181238Y-150740D01*
X179894Y-149842D01*
X178308Y-149526D01*
D02*
G37*
G36*
X272457Y-151304D02*
X270872Y-151620D01*
X269527Y-152518D01*
X268629Y-153862D01*
X268314Y-155448D01*
X268629Y-157034D01*
X269527Y-158378D01*
X270872Y-159276D01*
X272457Y-159592D01*
X274043Y-159276D01*
X275387Y-158378D01*
X276286Y-157034D01*
X276601Y-155448D01*
X276286Y-153862D01*
X275387Y-152518D01*
X274043Y-151620D01*
X272457Y-151304D01*
D02*
G37*
G36*
X-331724Y-153336D02*
X-333310Y-153652D01*
X-334654Y-154550D01*
X-335552Y-155894D01*
X-335868Y-157480D01*
X-335552Y-159066D01*
X-334654Y-160410D01*
X-333310Y-161308D01*
X-331724Y-161624D01*
X-330138Y-161308D01*
X-328794Y-160410D01*
X-327896Y-159066D01*
X-327580Y-157480D01*
X-327896Y-155894D01*
X-328794Y-154550D01*
X-330138Y-153652D01*
X-331724Y-153336D01*
D02*
G37*
G36*
X-304546Y-154098D02*
X-306132Y-154414D01*
X-307476Y-155312D01*
X-308374Y-156656D01*
X-308690Y-158242D01*
X-308374Y-159828D01*
X-307476Y-161172D01*
X-306132Y-162070D01*
X-304546Y-162386D01*
X-302960Y-162070D01*
X-301616Y-161172D01*
X-300718Y-159828D01*
X-300402Y-158242D01*
X-300718Y-156656D01*
X-301616Y-155312D01*
X-302960Y-154414D01*
X-304546Y-154098D01*
D02*
G37*
G36*
X448315Y-156892D02*
X446729Y-157208D01*
X445385Y-158106D01*
X444487Y-159450D01*
X444171Y-161036D01*
X444487Y-162622D01*
X445385Y-163966D01*
X446729Y-164864D01*
X448315Y-165180D01*
X449901Y-164864D01*
X451245Y-163966D01*
X452143Y-162622D01*
X452458Y-161036D01*
X452143Y-159450D01*
X451245Y-158106D01*
X449901Y-157208D01*
X448315Y-156892D01*
D02*
G37*
G36*
X-275336Y-158924D02*
X-276922Y-159240D01*
X-278266Y-160138D01*
X-279164Y-161482D01*
X-279480Y-163068D01*
X-279164Y-164654D01*
X-278266Y-165998D01*
X-276922Y-166896D01*
X-275336Y-167212D01*
X-273750Y-166896D01*
X-272406Y-165998D01*
X-271508Y-164654D01*
X-271192Y-163068D01*
X-271508Y-161482D01*
X-272406Y-160138D01*
X-273750Y-159240D01*
X-275336Y-158924D01*
D02*
G37*
G36*
X339598Y-159940D02*
X338012Y-160256D01*
X336668Y-161154D01*
X335770Y-162498D01*
X335454Y-164084D01*
X335770Y-165670D01*
X336668Y-167014D01*
X338012Y-167912D01*
X339598Y-168228D01*
X341184Y-167912D01*
X342528Y-167014D01*
X343426Y-165670D01*
X343742Y-164084D01*
X343426Y-162498D01*
X342528Y-161154D01*
X341184Y-160256D01*
X339598Y-159940D01*
D02*
G37*
G36*
X311499Y-164004D02*
X309913Y-164320D01*
X308569Y-165218D01*
X307670Y-166562D01*
X307355Y-168148D01*
X307670Y-169734D01*
X308569Y-171078D01*
X309913Y-171976D01*
X311499Y-172292D01*
X313084Y-171976D01*
X314429Y-171078D01*
X315327Y-169734D01*
X315642Y-168148D01*
X315327Y-166562D01*
X314429Y-165218D01*
X313084Y-164320D01*
X311499Y-164004D01*
D02*
G37*
G36*
X152654Y-164512D02*
X151068Y-164828D01*
X149724Y-165726D01*
X148826Y-167070D01*
X148510Y-168656D01*
X148826Y-170242D01*
X149724Y-171586D01*
X151068Y-172484D01*
X152654Y-172800D01*
X154240Y-172484D01*
X155584Y-171586D01*
X156482Y-170242D01*
X156798Y-168656D01*
X156482Y-167070D01*
X155584Y-165726D01*
X154240Y-164828D01*
X152654Y-164512D01*
D02*
G37*
G36*
X-345440Y-166544D02*
X-347026Y-166860D01*
X-348370Y-167758D01*
X-349268Y-169102D01*
X-349584Y-170688D01*
X-349268Y-172274D01*
X-348370Y-173618D01*
X-347026Y-174516D01*
X-345440Y-174832D01*
X-343854Y-174516D01*
X-342510Y-173618D01*
X-341612Y-172274D01*
X-341296Y-170688D01*
X-341612Y-169102D01*
X-342510Y-167758D01*
X-343854Y-166860D01*
X-345440Y-166544D01*
D02*
G37*
G36*
X-446781D02*
X-448367Y-166860D01*
X-449711Y-167758D01*
X-450610Y-169102D01*
X-450925Y-170688D01*
X-450610Y-172274D01*
X-449711Y-173618D01*
X-448367Y-174516D01*
X-446781Y-174832D01*
X-445196Y-174516D01*
X-443851Y-173618D01*
X-442953Y-172274D01*
X-442638Y-170688D01*
X-442953Y-169102D01*
X-443851Y-167758D01*
X-445196Y-166860D01*
X-446781Y-166544D01*
D02*
G37*
G36*
X-230378Y-167052D02*
X-231964Y-167368D01*
X-233308Y-168266D01*
X-234206Y-169610D01*
X-234522Y-171196D01*
X-234206Y-172782D01*
X-233308Y-174126D01*
X-231964Y-175024D01*
X-230378Y-175340D01*
X-228792Y-175024D01*
X-227448Y-174126D01*
X-226550Y-172782D01*
X-226234Y-171196D01*
X-226550Y-169610D01*
X-227448Y-168266D01*
X-228792Y-167368D01*
X-230378Y-167052D01*
D02*
G37*
G36*
X-318770Y-168576D02*
X-320356Y-168892D01*
X-321700Y-169790D01*
X-322598Y-171134D01*
X-322914Y-172720D01*
X-322598Y-174306D01*
X-321700Y-175650D01*
X-320356Y-176548D01*
X-318770Y-176864D01*
X-317184Y-176548D01*
X-315840Y-175650D01*
X-314942Y-174306D01*
X-314626Y-172720D01*
X-314942Y-171134D01*
X-315840Y-169790D01*
X-317184Y-168892D01*
X-318770Y-168576D01*
D02*
G37*
G36*
X-288798Y-174164D02*
X-290384Y-174480D01*
X-291728Y-175378D01*
X-292626Y-176722D01*
X-292942Y-178308D01*
X-292626Y-179894D01*
X-291728Y-181238D01*
X-290384Y-182136D01*
X-288798Y-182452D01*
X-287212Y-182136D01*
X-285868Y-181238D01*
X-284970Y-179894D01*
X-284654Y-178308D01*
X-284970Y-176722D01*
X-285868Y-175378D01*
X-287212Y-174480D01*
X-288798Y-174164D01*
D02*
G37*
G36*
X403234Y-178228D02*
X401648Y-178544D01*
X400304Y-179442D01*
X399406Y-180786D01*
X399090Y-182372D01*
X399406Y-183958D01*
X400304Y-185302D01*
X401648Y-186200D01*
X403234Y-186516D01*
X404820Y-186200D01*
X406164Y-185302D01*
X407062Y-183958D01*
X407378Y-182372D01*
X407062Y-180786D01*
X406164Y-179442D01*
X404820Y-178544D01*
X403234Y-178228D01*
D02*
G37*
G36*
X363982D02*
X362396Y-178544D01*
X361052Y-179442D01*
X360154Y-180786D01*
X359838Y-182372D01*
X360154Y-183958D01*
X361052Y-185302D01*
X362396Y-186200D01*
X363982Y-186516D01*
X365568Y-186200D01*
X366912Y-185302D01*
X367810Y-183958D01*
X368126Y-182372D01*
X367810Y-180786D01*
X366912Y-179442D01*
X365568Y-178544D01*
X363982Y-178228D01*
D02*
G37*
G36*
X-246634Y-181530D02*
X-248220Y-181846D01*
X-249564Y-182744D01*
X-250462Y-184088D01*
X-250778Y-185674D01*
X-250462Y-187260D01*
X-249564Y-188604D01*
X-248220Y-189502D01*
X-246634Y-189818D01*
X-245048Y-189502D01*
X-243704Y-188604D01*
X-242806Y-187260D01*
X-242490Y-185674D01*
X-242806Y-184088D01*
X-243704Y-182744D01*
X-245048Y-181846D01*
X-246634Y-181530D01*
D02*
G37*
G36*
X-333248Y-184324D02*
X-334834Y-184640D01*
X-336178Y-185538D01*
X-337076Y-186882D01*
X-337392Y-188468D01*
X-337076Y-190054D01*
X-336178Y-191398D01*
X-334834Y-192296D01*
X-333248Y-192612D01*
X-331662Y-192296D01*
X-330318Y-191398D01*
X-329420Y-190054D01*
X-329104Y-188468D01*
X-329420Y-186882D01*
X-330318Y-185538D01*
X-331662Y-184640D01*
X-333248Y-184324D01*
D02*
G37*
G36*
X-303530Y-188642D02*
X-305116Y-188958D01*
X-306460Y-189856D01*
X-307358Y-191200D01*
X-307674Y-192786D01*
X-307358Y-194372D01*
X-306460Y-195716D01*
X-305116Y-196614D01*
X-303530Y-196930D01*
X-301944Y-196614D01*
X-300600Y-195716D01*
X-299702Y-194372D01*
X-299386Y-192786D01*
X-299702Y-191200D01*
X-300600Y-189856D01*
X-301944Y-188958D01*
X-303530Y-188642D01*
D02*
G37*
G36*
X-226314Y-190166D02*
X-227900Y-190482D01*
X-229244Y-191380D01*
X-230142Y-192724D01*
X-230458Y-194310D01*
X-230142Y-195896D01*
X-229244Y-197240D01*
X-227900Y-198138D01*
X-226314Y-198454D01*
X-224728Y-198138D01*
X-223384Y-197240D01*
X-222486Y-195896D01*
X-222170Y-194310D01*
X-222486Y-192724D01*
X-223384Y-191380D01*
X-224728Y-190482D01*
X-226314Y-190166D01*
D02*
G37*
G36*
X331470Y-192706D02*
X329884Y-193022D01*
X328540Y-193920D01*
X327642Y-195264D01*
X327326Y-196850D01*
X327642Y-198436D01*
X328540Y-199780D01*
X329884Y-200678D01*
X331470Y-200994D01*
X333056Y-200678D01*
X334400Y-199780D01*
X335298Y-198436D01*
X335614Y-196850D01*
X335298Y-195264D01*
X334400Y-193920D01*
X333056Y-193022D01*
X331470Y-192706D01*
D02*
G37*
G36*
X432308Y-193976D02*
X430722Y-194292D01*
X429378Y-195190D01*
X428480Y-196534D01*
X428164Y-198120D01*
X428480Y-199706D01*
X429378Y-201050D01*
X430722Y-201948D01*
X432308Y-202264D01*
X433894Y-201948D01*
X435238Y-201050D01*
X436136Y-199706D01*
X436452Y-198120D01*
X436136Y-196534D01*
X435238Y-195190D01*
X433894Y-194292D01*
X432308Y-193976D01*
D02*
G37*
G36*
X-262890Y-196516D02*
X-264476Y-196832D01*
X-265820Y-197730D01*
X-266718Y-199074D01*
X-267034Y-200660D01*
X-266718Y-202246D01*
X-265820Y-203590D01*
X-264476Y-204488D01*
X-262890Y-204804D01*
X-261304Y-204488D01*
X-259960Y-203590D01*
X-259062Y-202246D01*
X-258746Y-200660D01*
X-259062Y-199074D01*
X-259960Y-197730D01*
X-261304Y-196832D01*
X-262890Y-196516D01*
D02*
G37*
G36*
X-346202Y-197278D02*
X-347788Y-197594D01*
X-349132Y-198492D01*
X-350030Y-199836D01*
X-350346Y-201422D01*
X-350030Y-203008D01*
X-349132Y-204352D01*
X-347788Y-205250D01*
X-346202Y-205566D01*
X-344616Y-205250D01*
X-343272Y-204352D01*
X-342374Y-203008D01*
X-342058Y-201422D01*
X-342374Y-199836D01*
X-343272Y-198492D01*
X-344616Y-197594D01*
X-346202Y-197278D01*
D02*
G37*
G36*
X-135128Y-197532D02*
X-136714Y-197848D01*
X-138058Y-198746D01*
X-138956Y-200090D01*
X-139272Y-201676D01*
X-138956Y-203262D01*
X-138058Y-204606D01*
X-136714Y-205504D01*
X-135128Y-205820D01*
X-133542Y-205504D01*
X-132198Y-204606D01*
X-131300Y-203262D01*
X-130984Y-201676D01*
X-131300Y-200090D01*
X-132198Y-198746D01*
X-133542Y-197848D01*
X-135128Y-197532D01*
D02*
G37*
G36*
X-317500Y-203665D02*
X-319086Y-203980D01*
X-320430Y-204879D01*
X-321328Y-206223D01*
X-321644Y-207808D01*
X-321328Y-209394D01*
X-320430Y-210738D01*
X-319086Y-211637D01*
X-317500Y-211952D01*
X-315914Y-211637D01*
X-314570Y-210738D01*
X-313672Y-209394D01*
X-313356Y-207808D01*
X-313672Y-206223D01*
X-314570Y-204879D01*
X-315914Y-203980D01*
X-317500Y-203665D01*
D02*
G37*
G36*
X-209550Y-205914D02*
X-211136Y-206230D01*
X-212480Y-207128D01*
X-213378Y-208472D01*
X-213694Y-210058D01*
X-213378Y-211644D01*
X-212480Y-212988D01*
X-211136Y-213886D01*
X-209550Y-214202D01*
X-207964Y-213886D01*
X-206620Y-212988D01*
X-205722Y-211644D01*
X-205406Y-210058D01*
X-205722Y-208472D01*
X-206620Y-207128D01*
X-207964Y-206230D01*
X-209550Y-205914D01*
D02*
G37*
G36*
X-141631Y-207004D02*
X-143217Y-207319D01*
X-144561Y-208217D01*
X-145460Y-209562D01*
X-145775Y-211147D01*
X-145460Y-212733D01*
X-144561Y-214077D01*
X-143217Y-214976D01*
X-141631Y-215291D01*
X-140046Y-214976D01*
X-138701Y-214077D01*
X-137803Y-212733D01*
X-137488Y-211147D01*
X-137803Y-209562D01*
X-138701Y-208217D01*
X-140046Y-207319D01*
X-141631Y-207004D01*
D02*
G37*
G36*
X-128524Y-209724D02*
X-130110Y-210040D01*
X-131454Y-210938D01*
X-132352Y-212282D01*
X-132668Y-213868D01*
X-132352Y-215454D01*
X-131454Y-216798D01*
X-130110Y-217696D01*
X-128524Y-218012D01*
X-126938Y-217696D01*
X-125594Y-216798D01*
X-124696Y-215454D01*
X-124380Y-213868D01*
X-124696Y-212282D01*
X-125594Y-210938D01*
X-126938Y-210040D01*
X-128524Y-209724D01*
D02*
G37*
G36*
X-425958Y-210475D02*
X-427544Y-210790D01*
X-428888Y-211688D01*
X-429786Y-213033D01*
X-430102Y-214618D01*
X-429786Y-216204D01*
X-428888Y-217548D01*
X-427544Y-218447D01*
X-425958Y-218762D01*
X-424372Y-218447D01*
X-423028Y-217548D01*
X-422130Y-216204D01*
X-421814Y-214618D01*
X-422130Y-213033D01*
X-423028Y-211688D01*
X-424372Y-210790D01*
X-425958Y-210475D01*
D02*
G37*
G36*
X-244856Y-210740D02*
X-246442Y-211056D01*
X-247786Y-211954D01*
X-248684Y-213298D01*
X-249000Y-214884D01*
X-248684Y-216470D01*
X-247786Y-217814D01*
X-246442Y-218712D01*
X-244856Y-219028D01*
X-243270Y-218712D01*
X-241926Y-217814D01*
X-241028Y-216470D01*
X-240712Y-214884D01*
X-241028Y-213298D01*
X-241926Y-211954D01*
X-243270Y-211056D01*
X-244856Y-210740D01*
D02*
G37*
G36*
X-279146Y-212010D02*
X-280732Y-212326D01*
X-282076Y-213224D01*
X-282974Y-214568D01*
X-283290Y-216154D01*
X-282974Y-217740D01*
X-282076Y-219084D01*
X-280732Y-219982D01*
X-279146Y-220298D01*
X-277560Y-219982D01*
X-276216Y-219084D01*
X-275318Y-217740D01*
X-275002Y-216154D01*
X-275318Y-214568D01*
X-276216Y-213224D01*
X-277560Y-212326D01*
X-279146Y-212010D01*
D02*
G37*
G36*
X386080Y-212772D02*
X384494Y-213088D01*
X383150Y-213986D01*
X382252Y-215330D01*
X381936Y-216916D01*
X382252Y-218502D01*
X383150Y-219846D01*
X384494Y-220744D01*
X386080Y-221060D01*
X387666Y-220744D01*
X389010Y-219846D01*
X389908Y-218502D01*
X390224Y-216916D01*
X389908Y-215330D01*
X389010Y-213986D01*
X387666Y-213088D01*
X386080Y-212772D01*
D02*
G37*
G36*
X-330200Y-215312D02*
X-331786Y-215628D01*
X-333130Y-216526D01*
X-334028Y-217870D01*
X-334344Y-219456D01*
X-334028Y-221042D01*
X-333130Y-222386D01*
X-331786Y-223284D01*
X-330200Y-223600D01*
X-328614Y-223284D01*
X-327270Y-222386D01*
X-326372Y-221042D01*
X-326056Y-219456D01*
X-326372Y-217870D01*
X-327270Y-216526D01*
X-328614Y-215628D01*
X-330200Y-215312D01*
D02*
G37*
G36*
X341884Y-220392D02*
X340298Y-220708D01*
X338954Y-221606D01*
X338056Y-222950D01*
X337740Y-224536D01*
X338056Y-226122D01*
X338954Y-227466D01*
X340298Y-228364D01*
X341884Y-228680D01*
X343470Y-228364D01*
X344814Y-227466D01*
X345712Y-226122D01*
X346028Y-224536D01*
X345712Y-222950D01*
X344814Y-221606D01*
X343470Y-220708D01*
X341884Y-220392D01*
D02*
G37*
G36*
X277287Y-222659D02*
X275701Y-222975D01*
X274357Y-223873D01*
X273459Y-225217D01*
X273143Y-226803D01*
X273459Y-228389D01*
X274357Y-229733D01*
X275701Y-230631D01*
X277287Y-230947D01*
X278873Y-230631D01*
X280217Y-229733D01*
X281115Y-228389D01*
X281431Y-226803D01*
X281115Y-225217D01*
X280217Y-223873D01*
X278873Y-222975D01*
X277287Y-222659D01*
D02*
G37*
G36*
X-228346Y-223440D02*
X-229932Y-223756D01*
X-231276Y-224654D01*
X-232174Y-225998D01*
X-232490Y-227584D01*
X-232174Y-229170D01*
X-231276Y-230514D01*
X-229932Y-231412D01*
X-228346Y-231728D01*
X-226760Y-231412D01*
X-225416Y-230514D01*
X-224518Y-229170D01*
X-224202Y-227584D01*
X-224518Y-225998D01*
X-225416Y-224654D01*
X-226760Y-223756D01*
X-228346Y-223440D01*
D02*
G37*
G36*
X159004Y-179147D02*
X154685Y-179487D01*
X150472Y-180498D01*
X146470Y-182156D01*
X142776Y-184420D01*
X139481Y-187233D01*
X136668Y-190528D01*
X134404Y-194222D01*
X132746Y-198224D01*
X131735Y-202437D01*
X131395Y-206756D01*
X131735Y-211075D01*
X132746Y-215288D01*
X134404Y-219290D01*
X136668Y-222984D01*
X139481Y-226279D01*
X142776Y-229092D01*
X146470Y-231356D01*
X150472Y-233014D01*
X154685Y-234025D01*
X159004Y-234365D01*
X163323Y-234025D01*
X167536Y-233014D01*
X171538Y-231356D01*
X175232Y-229092D01*
X178527Y-226279D01*
X181340Y-222984D01*
X183604Y-219290D01*
X185262Y-215288D01*
X186273Y-211075D01*
X186613Y-206756D01*
X186273Y-202437D01*
X185262Y-198224D01*
X183604Y-194222D01*
X181340Y-190528D01*
X178527Y-187233D01*
X175232Y-184420D01*
X171538Y-182156D01*
X167536Y-180498D01*
X163323Y-179487D01*
X159004Y-179147D01*
D02*
G37*
G36*
X-192278Y-226234D02*
X-193864Y-226550D01*
X-195208Y-227448D01*
X-196106Y-228792D01*
X-196422Y-230378D01*
X-196106Y-231964D01*
X-195208Y-233308D01*
X-193864Y-234206D01*
X-192278Y-234522D01*
X-190692Y-234206D01*
X-189348Y-233308D01*
X-188450Y-231964D01*
X-188134Y-230378D01*
X-188450Y-228792D01*
X-189348Y-227448D01*
X-190692Y-226550D01*
X-192278Y-226234D01*
D02*
G37*
G36*
X-263652Y-228284D02*
X-265238Y-228600D01*
X-266582Y-229498D01*
X-267480Y-230842D01*
X-267796Y-232428D01*
X-267480Y-234014D01*
X-266582Y-235358D01*
X-265238Y-236256D01*
X-263652Y-236572D01*
X-262066Y-236256D01*
X-260722Y-235358D01*
X-259824Y-234014D01*
X-259508Y-232428D01*
X-259824Y-230842D01*
X-260722Y-229498D01*
X-262066Y-228600D01*
X-263652Y-228284D01*
D02*
G37*
G36*
X411480Y-230552D02*
X409894Y-230868D01*
X408550Y-231766D01*
X407652Y-233110D01*
X407336Y-234696D01*
X407652Y-236282D01*
X408550Y-237626D01*
X409894Y-238524D01*
X411480Y-238840D01*
X413066Y-238524D01*
X414410Y-237626D01*
X415308Y-236282D01*
X415624Y-234696D01*
X415308Y-233110D01*
X414410Y-231766D01*
X413066Y-230868D01*
X411480Y-230552D01*
D02*
G37*
G36*
X-313690Y-232584D02*
X-315276Y-232900D01*
X-316620Y-233798D01*
X-317518Y-235142D01*
X-317834Y-236728D01*
X-317518Y-238314D01*
X-316620Y-239658D01*
X-315276Y-240556D01*
X-313690Y-240872D01*
X-312104Y-240556D01*
X-310760Y-239658D01*
X-309862Y-238314D01*
X-309546Y-236728D01*
X-309862Y-235142D01*
X-310760Y-233798D01*
X-312104Y-232900D01*
X-313690Y-232584D01*
D02*
G37*
G36*
X288176Y-233549D02*
X286591Y-233864D01*
X285246Y-234763D01*
X284348Y-236107D01*
X284033Y-237693D01*
X284348Y-239278D01*
X285246Y-240623D01*
X286591Y-241521D01*
X288176Y-241836D01*
X289762Y-241521D01*
X291106Y-240623D01*
X292005Y-239278D01*
X292320Y-237693D01*
X292005Y-236107D01*
X291106Y-234763D01*
X289762Y-233864D01*
X288176Y-233549D01*
D02*
G37*
G36*
X266397D02*
X264812Y-233864D01*
X263468Y-234763D01*
X262569Y-236107D01*
X262254Y-237693D01*
X262569Y-239278D01*
X263468Y-240623D01*
X264812Y-241521D01*
X266397Y-241836D01*
X267983Y-241521D01*
X269328Y-240623D01*
X270226Y-239278D01*
X270541Y-237693D01*
X270226Y-236107D01*
X269328Y-234763D01*
X267983Y-233864D01*
X266397Y-233549D01*
D02*
G37*
G36*
X-107264Y-237664D02*
X-108850Y-237980D01*
X-110194Y-238878D01*
X-111093Y-240222D01*
X-111408Y-241808D01*
X-111093Y-243394D01*
X-110194Y-244738D01*
X-108850Y-245636D01*
X-107264Y-245952D01*
X-105679Y-245636D01*
X-104334Y-244738D01*
X-103436Y-243394D01*
X-103121Y-241808D01*
X-103436Y-240222D01*
X-104334Y-238878D01*
X-105679Y-237980D01*
X-107264Y-237664D01*
D02*
G37*
G36*
X-83820Y-239696D02*
X-85406Y-240012D01*
X-86750Y-240910D01*
X-87648Y-242254D01*
X-87964Y-243840D01*
X-87648Y-245426D01*
X-86750Y-246770D01*
X-85406Y-247668D01*
X-83820Y-247984D01*
X-82234Y-247668D01*
X-80890Y-246770D01*
X-79992Y-245426D01*
X-79676Y-243840D01*
X-79992Y-242254D01*
X-80890Y-240910D01*
X-82234Y-240012D01*
X-83820Y-239696D01*
D02*
G37*
G36*
X-248158Y-240712D02*
X-249744Y-241028D01*
X-251088Y-241926D01*
X-251986Y-243270D01*
X-252302Y-244856D01*
X-251986Y-246442D01*
X-251088Y-247786D01*
X-249744Y-248684D01*
X-248158Y-249000D01*
X-246572Y-248684D01*
X-245228Y-247786D01*
X-244330Y-246442D01*
X-244014Y-244856D01*
X-244330Y-243270D01*
X-245228Y-241926D01*
X-246572Y-241028D01*
X-248158Y-240712D01*
D02*
G37*
G36*
X-279146Y-240966D02*
X-280732Y-241282D01*
X-282076Y-242180D01*
X-282974Y-243524D01*
X-283290Y-245110D01*
X-282974Y-246696D01*
X-282076Y-248040D01*
X-280732Y-248938D01*
X-279146Y-249254D01*
X-277560Y-248938D01*
X-276216Y-248040D01*
X-275318Y-246696D01*
X-275002Y-245110D01*
X-275318Y-243524D01*
X-276216Y-242180D01*
X-277560Y-241282D01*
X-279146Y-240966D01*
D02*
G37*
G36*
X-183134Y-242236D02*
X-184720Y-242552D01*
X-186064Y-243450D01*
X-186962Y-244794D01*
X-187278Y-246380D01*
X-186962Y-247966D01*
X-186064Y-249310D01*
X-184720Y-250208D01*
X-183134Y-250524D01*
X-181548Y-250208D01*
X-180204Y-249310D01*
X-179306Y-247966D01*
X-178990Y-246380D01*
X-179306Y-244794D01*
X-180204Y-243450D01*
X-181548Y-242552D01*
X-183134Y-242236D01*
D02*
G37*
G36*
X-210058Y-242490D02*
X-211644Y-242806D01*
X-212988Y-243704D01*
X-213886Y-245048D01*
X-214202Y-246634D01*
X-213886Y-248220D01*
X-212988Y-249564D01*
X-211644Y-250462D01*
X-210058Y-250778D01*
X-208472Y-250462D01*
X-207128Y-249564D01*
X-206230Y-248220D01*
X-205914Y-246634D01*
X-206230Y-245048D01*
X-207128Y-243704D01*
X-208472Y-242806D01*
X-210058Y-242490D01*
D02*
G37*
G36*
X299066Y-244438D02*
X297480Y-244754D01*
X296136Y-245652D01*
X295238Y-246996D01*
X294922Y-248582D01*
X295238Y-250168D01*
X296136Y-251512D01*
X297480Y-252410D01*
X299066Y-252726D01*
X300651Y-252410D01*
X301996Y-251512D01*
X302894Y-250168D01*
X303209Y-248582D01*
X302894Y-246996D01*
X301996Y-245652D01*
X300651Y-244754D01*
X299066Y-244438D01*
D02*
G37*
G36*
X277287D02*
X275701Y-244754D01*
X274357Y-245652D01*
X273459Y-246996D01*
X273143Y-248582D01*
X273459Y-250168D01*
X274357Y-251512D01*
X275701Y-252410D01*
X277287Y-252726D01*
X278873Y-252410D01*
X280217Y-251512D01*
X281115Y-250168D01*
X281431Y-248582D01*
X281115Y-246996D01*
X280217Y-245652D01*
X278873Y-244754D01*
X277287Y-244438D01*
D02*
G37*
G36*
X255508D02*
X253922Y-244754D01*
X252578Y-245652D01*
X251680Y-246996D01*
X251364Y-248582D01*
X251680Y-250168D01*
X252578Y-251512D01*
X253922Y-252410D01*
X255508Y-252726D01*
X257094Y-252410D01*
X258438Y-251512D01*
X259336Y-250168D01*
X259652Y-248582D01*
X259336Y-246996D01*
X258438Y-245652D01*
X257094Y-244754D01*
X255508Y-244438D01*
D02*
G37*
G36*
X134620Y-245030D02*
X133034Y-245346D01*
X131690Y-246244D01*
X130792Y-247588D01*
X130476Y-249174D01*
X130792Y-250760D01*
X131690Y-252104D01*
X133034Y-253002D01*
X134620Y-253318D01*
X136206Y-253002D01*
X137550Y-252104D01*
X138448Y-250760D01*
X138764Y-249174D01*
X138448Y-247588D01*
X137550Y-246244D01*
X136206Y-245346D01*
X134620Y-245030D01*
D02*
G37*
G36*
X-48768Y-245284D02*
X-50354Y-245600D01*
X-51698Y-246498D01*
X-52596Y-247842D01*
X-52912Y-249428D01*
X-52596Y-251014D01*
X-51698Y-252358D01*
X-50354Y-253256D01*
X-48768Y-253572D01*
X-47182Y-253256D01*
X-45838Y-252358D01*
X-44940Y-251014D01*
X-44624Y-249428D01*
X-44940Y-247842D01*
X-45838Y-246498D01*
X-47182Y-245600D01*
X-48768Y-245284D01*
D02*
G37*
G36*
X-408178Y-247824D02*
X-409764Y-248140D01*
X-411108Y-249038D01*
X-412006Y-250382D01*
X-412322Y-251968D01*
X-412006Y-253554D01*
X-411108Y-254898D01*
X-409764Y-255796D01*
X-408178Y-256112D01*
X-406592Y-255796D01*
X-405248Y-254898D01*
X-404350Y-253554D01*
X-404034Y-251968D01*
X-404350Y-250382D01*
X-405248Y-249038D01*
X-406592Y-248140D01*
X-408178Y-247824D01*
D02*
G37*
G36*
X64262Y-248840D02*
X62676Y-249156D01*
X61332Y-250054D01*
X60434Y-251398D01*
X60118Y-252984D01*
X60434Y-254570D01*
X61332Y-255914D01*
X62676Y-256812D01*
X64262Y-257128D01*
X65848Y-256812D01*
X67192Y-255914D01*
X68090Y-254570D01*
X68406Y-252984D01*
X68090Y-251398D01*
X67192Y-250054D01*
X65848Y-249156D01*
X64262Y-248840D01*
D02*
G37*
G36*
X-163198Y-250110D02*
X-164784Y-250426D01*
X-166128Y-251324D01*
X-167026Y-252668D01*
X-167342Y-254254D01*
X-167026Y-255840D01*
X-166128Y-257184D01*
X-164784Y-258082D01*
X-163198Y-258398D01*
X-161612Y-258082D01*
X-160268Y-257184D01*
X-159370Y-255840D01*
X-159054Y-254254D01*
X-159370Y-252668D01*
X-160268Y-251324D01*
X-161612Y-250426D01*
X-163198Y-250110D01*
D02*
G37*
G36*
X-145221Y-251888D02*
X-146807Y-252204D01*
X-148151Y-253102D01*
X-149049Y-254446D01*
X-149365Y-256032D01*
X-149049Y-257618D01*
X-148151Y-258962D01*
X-146807Y-259860D01*
X-145221Y-260176D01*
X-143635Y-259860D01*
X-142291Y-258962D01*
X-141393Y-257618D01*
X-141077Y-256032D01*
X-141393Y-254446D01*
X-142291Y-253102D01*
X-143635Y-252204D01*
X-145221Y-251888D01*
D02*
G37*
G36*
X10922Y-255190D02*
X9336Y-255506D01*
X7992Y-256404D01*
X7094Y-257748D01*
X6778Y-259334D01*
X7094Y-260920D01*
X7992Y-262264D01*
X9336Y-263162D01*
X10922Y-263478D01*
X12508Y-263162D01*
X13852Y-262264D01*
X14750Y-260920D01*
X15066Y-259334D01*
X14750Y-257748D01*
X13852Y-256404D01*
X12508Y-255506D01*
X10922Y-255190D01*
D02*
G37*
G36*
X309955Y-255328D02*
X308370Y-255643D01*
X307025Y-256542D01*
X306127Y-257886D01*
X305812Y-259471D01*
X306127Y-261057D01*
X307025Y-262402D01*
X308370Y-263300D01*
X309955Y-263615D01*
X311541Y-263300D01*
X312885Y-262402D01*
X313783Y-261057D01*
X314099Y-259471D01*
X313783Y-257886D01*
X312885Y-256542D01*
X311541Y-255643D01*
X309955Y-255328D01*
D02*
G37*
G36*
X288176D02*
X286591Y-255643D01*
X285246Y-256542D01*
X284348Y-257886D01*
X284033Y-259471D01*
X284348Y-261057D01*
X285246Y-262402D01*
X286591Y-263300D01*
X288176Y-263615D01*
X289762Y-263300D01*
X291106Y-262402D01*
X292005Y-261057D01*
X292320Y-259471D01*
X292005Y-257886D01*
X291106Y-256542D01*
X289762Y-255643D01*
X288176Y-255328D01*
D02*
G37*
G36*
X266397D02*
X264812Y-255643D01*
X263468Y-256542D01*
X262569Y-257886D01*
X262254Y-259471D01*
X262569Y-261057D01*
X263468Y-262402D01*
X264812Y-263300D01*
X266397Y-263615D01*
X267983Y-263300D01*
X269328Y-262402D01*
X270226Y-261057D01*
X270541Y-259471D01*
X270226Y-257886D01*
X269328Y-256542D01*
X267983Y-255643D01*
X266397Y-255328D01*
D02*
G37*
G36*
X244619D02*
X243033Y-255643D01*
X241689Y-256542D01*
X240790Y-257886D01*
X240475Y-259471D01*
X240790Y-261057D01*
X241689Y-262402D01*
X243033Y-263300D01*
X244619Y-263615D01*
X246204Y-263300D01*
X247549Y-262402D01*
X248447Y-261057D01*
X248762Y-259471D01*
X248447Y-257886D01*
X247549Y-256542D01*
X246204Y-255643D01*
X244619Y-255328D01*
D02*
G37*
G36*
X-265938Y-257476D02*
X-267524Y-257792D01*
X-268868Y-258690D01*
X-269766Y-260034D01*
X-270082Y-261620D01*
X-269766Y-263206D01*
X-268868Y-264550D01*
X-267524Y-265448D01*
X-265938Y-265764D01*
X-264352Y-265448D01*
X-263008Y-264550D01*
X-262110Y-263206D01*
X-261794Y-261620D01*
X-262110Y-260034D01*
X-263008Y-258690D01*
X-264352Y-257792D01*
X-265938Y-257476D01*
D02*
G37*
G36*
X-94996Y-260016D02*
X-96582Y-260332D01*
X-97926Y-261230D01*
X-98824Y-262574D01*
X-99140Y-264160D01*
X-98824Y-265746D01*
X-97926Y-267090D01*
X-96582Y-267988D01*
X-94996Y-268304D01*
X-93410Y-267988D01*
X-92066Y-267090D01*
X-91168Y-265746D01*
X-90852Y-264160D01*
X-91168Y-262574D01*
X-92066Y-261230D01*
X-93410Y-260332D01*
X-94996Y-260016D01*
D02*
G37*
G36*
X-201422Y-260524D02*
X-203008Y-260840D01*
X-204352Y-261738D01*
X-205250Y-263082D01*
X-205566Y-264668D01*
X-205250Y-266254D01*
X-204352Y-267598D01*
X-203008Y-268496D01*
X-201422Y-268812D01*
X-199836Y-268496D01*
X-198492Y-267598D01*
X-197594Y-266254D01*
X-197278Y-264668D01*
X-197594Y-263082D01*
X-198492Y-261738D01*
X-199836Y-260840D01*
X-201422Y-260524D01*
D02*
G37*
G36*
X-136257Y-260885D02*
X-137843Y-261201D01*
X-139187Y-262099D01*
X-140085Y-263443D01*
X-140401Y-265029D01*
X-140085Y-266615D01*
X-139187Y-267959D01*
X-137843Y-268857D01*
X-136257Y-269173D01*
X-134672Y-268857D01*
X-133327Y-267959D01*
X-132429Y-266615D01*
X-132114Y-265029D01*
X-132429Y-263443D01*
X-133327Y-262099D01*
X-134672Y-261201D01*
X-136257Y-260885D01*
D02*
G37*
G36*
X-228854Y-261032D02*
X-230440Y-261348D01*
X-231784Y-262246D01*
X-232682Y-263590D01*
X-232998Y-265176D01*
X-232682Y-266762D01*
X-231784Y-268106D01*
X-230440Y-269004D01*
X-228854Y-269320D01*
X-227268Y-269004D01*
X-225924Y-268106D01*
X-225026Y-266762D01*
X-224710Y-265176D01*
X-225026Y-263590D01*
X-225924Y-262246D01*
X-227268Y-261348D01*
X-228854Y-261032D01*
D02*
G37*
G36*
X-175006Y-262048D02*
X-176592Y-262364D01*
X-177936Y-263262D01*
X-178834Y-264606D01*
X-179150Y-266192D01*
X-178834Y-267778D01*
X-177936Y-269122D01*
X-176592Y-270020D01*
X-175006Y-270336D01*
X-173420Y-270020D01*
X-172076Y-269122D01*
X-171178Y-267778D01*
X-170862Y-266192D01*
X-171178Y-264606D01*
X-172076Y-263262D01*
X-173420Y-262364D01*
X-175006Y-262048D01*
D02*
G37*
G36*
X-13716Y-264334D02*
X-15302Y-264650D01*
X-16646Y-265548D01*
X-17544Y-266892D01*
X-17860Y-268478D01*
X-17544Y-270064D01*
X-16646Y-271408D01*
X-15302Y-272306D01*
X-13716Y-272622D01*
X-12130Y-272306D01*
X-10786Y-271408D01*
X-9888Y-270064D01*
X-9572Y-268478D01*
X-9888Y-266892D01*
X-10786Y-265548D01*
X-12130Y-264650D01*
X-13716Y-264334D01*
D02*
G37*
G36*
X365506Y-265250D02*
X363920Y-265565D01*
X362576Y-266464D01*
X361678Y-267808D01*
X361362Y-269394D01*
X361678Y-270979D01*
X362576Y-272324D01*
X363920Y-273222D01*
X365506Y-273537D01*
X367092Y-273222D01*
X368436Y-272324D01*
X369334Y-270979D01*
X369650Y-269394D01*
X369334Y-267808D01*
X368436Y-266464D01*
X367092Y-265565D01*
X365506Y-265250D01*
D02*
G37*
G36*
X299066Y-266217D02*
X297480Y-266533D01*
X296136Y-267431D01*
X295238Y-268775D01*
X294922Y-270361D01*
X295238Y-271947D01*
X296136Y-273291D01*
X297480Y-274189D01*
X299066Y-274505D01*
X300651Y-274189D01*
X301996Y-273291D01*
X302894Y-271947D01*
X303209Y-270361D01*
X302894Y-268775D01*
X301996Y-267431D01*
X300651Y-266533D01*
X299066Y-266217D01*
D02*
G37*
G36*
X277287D02*
X275701Y-266533D01*
X274357Y-267431D01*
X273459Y-268775D01*
X273143Y-270361D01*
X273459Y-271947D01*
X274357Y-273291D01*
X275701Y-274189D01*
X277287Y-274505D01*
X278873Y-274189D01*
X280217Y-273291D01*
X281115Y-271947D01*
X281431Y-270361D01*
X281115Y-268775D01*
X280217Y-267431D01*
X278873Y-266533D01*
X277287Y-266217D01*
D02*
G37*
G36*
X255508D02*
X253922Y-266533D01*
X252578Y-267431D01*
X251680Y-268775D01*
X251364Y-270361D01*
X251680Y-271947D01*
X252578Y-273291D01*
X253922Y-274189D01*
X255508Y-274505D01*
X257094Y-274189D01*
X258438Y-273291D01*
X259336Y-271947D01*
X259652Y-270361D01*
X259336Y-268775D01*
X258438Y-267431D01*
X257094Y-266533D01*
X255508Y-266217D01*
D02*
G37*
G36*
X18337Y-271700D02*
X16752Y-272016D01*
X15407Y-272914D01*
X14509Y-274258D01*
X14194Y-275844D01*
X14509Y-277430D01*
X15407Y-278774D01*
X16752Y-279672D01*
X18337Y-279988D01*
X19923Y-279672D01*
X21267Y-278774D01*
X22166Y-277430D01*
X22481Y-275844D01*
X22166Y-274258D01*
X21267Y-272914D01*
X19923Y-272016D01*
X18337Y-271700D01*
D02*
G37*
G36*
X112014Y-271954D02*
X110428Y-272270D01*
X109084Y-273168D01*
X108186Y-274512D01*
X107870Y-276098D01*
X108186Y-277684D01*
X109084Y-279028D01*
X110428Y-279926D01*
X112014Y-280242D01*
X113600Y-279926D01*
X114944Y-279028D01*
X115842Y-277684D01*
X116158Y-276098D01*
X115842Y-274512D01*
X114944Y-273168D01*
X113600Y-272270D01*
X112014Y-271954D01*
D02*
G37*
G36*
X-139954Y-272970D02*
X-141540Y-273286D01*
X-142884Y-274184D01*
X-143782Y-275528D01*
X-144098Y-277114D01*
X-143782Y-278700D01*
X-142884Y-280044D01*
X-141540Y-280942D01*
X-139954Y-281258D01*
X-138368Y-280942D01*
X-137024Y-280044D01*
X-136126Y-278700D01*
X-135810Y-277114D01*
X-136126Y-275528D01*
X-137024Y-274184D01*
X-138368Y-273286D01*
X-139954Y-272970D01*
D02*
G37*
G36*
X373638Y-273475D02*
X372052Y-273790D01*
X370708Y-274688D01*
X369810Y-276032D01*
X369494Y-277618D01*
X369810Y-279204D01*
X370708Y-280548D01*
X372052Y-281446D01*
X373638Y-281762D01*
X375224Y-281446D01*
X376568Y-280548D01*
X377466Y-279204D01*
X377781Y-277618D01*
X377466Y-276032D01*
X376568Y-274688D01*
X375224Y-273790D01*
X373638Y-273475D01*
D02*
G37*
G36*
X-31750Y-269922D02*
X-33336Y-270238D01*
X-34680Y-271136D01*
X-35578Y-272480D01*
X-35894Y-274066D01*
X-35578Y-275652D01*
X-34680Y-276996D01*
X-33336Y-277894D01*
X-31750Y-278210D01*
X-30241Y-277909D01*
X-30134Y-277911D01*
X-28910Y-278584D01*
X-28725Y-279514D01*
X-27827Y-280858D01*
X-26483Y-281756D01*
X-24897Y-282072D01*
X-23311Y-281756D01*
X-21967Y-280858D01*
X-21069Y-279514D01*
X-20753Y-277928D01*
X-21069Y-276342D01*
X-21967Y-274998D01*
X-23311Y-274100D01*
X-24897Y-273784D01*
X-26406Y-274085D01*
X-26513Y-274083D01*
X-27737Y-273410D01*
X-27922Y-272480D01*
X-28820Y-271136D01*
X-30164Y-270238D01*
X-31750Y-269922D01*
D02*
G37*
G36*
X75358Y-275002D02*
X73772Y-275318D01*
X72428Y-276216D01*
X71530Y-277560D01*
X71214Y-279146D01*
X71530Y-280732D01*
X72428Y-282076D01*
X73772Y-282974D01*
X75358Y-283290D01*
X76944Y-282974D01*
X78288Y-282076D01*
X79186Y-280732D01*
X79502Y-279146D01*
X79186Y-277560D01*
X78288Y-276216D01*
X76944Y-275318D01*
X75358Y-275002D01*
D02*
G37*
G36*
X41830Y-275256D02*
X40244Y-275572D01*
X38900Y-276470D01*
X38002Y-277814D01*
X37686Y-279400D01*
X38002Y-280986D01*
X38900Y-282330D01*
X40244Y-283228D01*
X41830Y-283544D01*
X43416Y-283228D01*
X44760Y-282330D01*
X45658Y-280986D01*
X45974Y-279400D01*
X45658Y-277814D01*
X44760Y-276470D01*
X43416Y-275572D01*
X41830Y-275256D01*
D02*
G37*
G36*
X-111252D02*
X-112838Y-275572D01*
X-114182Y-276470D01*
X-115080Y-277814D01*
X-115396Y-279400D01*
X-115080Y-280986D01*
X-114182Y-282330D01*
X-112838Y-283228D01*
X-111252Y-283544D01*
X-109666Y-283228D01*
X-108322Y-282330D01*
X-107424Y-280986D01*
X-107108Y-279400D01*
X-107424Y-277814D01*
X-108322Y-276470D01*
X-109666Y-275572D01*
X-111252Y-275256D01*
D02*
G37*
G36*
X-40640Y-275764D02*
X-42226Y-276080D01*
X-43570Y-276978D01*
X-44468Y-278322D01*
X-44784Y-279908D01*
X-44468Y-281494D01*
X-43570Y-282838D01*
X-42226Y-283736D01*
X-40640Y-284052D01*
X-39054Y-283736D01*
X-37710Y-282838D01*
X-36812Y-281494D01*
X-36496Y-279908D01*
X-36812Y-278322D01*
X-37710Y-276978D01*
X-39054Y-276080D01*
X-40640Y-275764D01*
D02*
G37*
G36*
X288176Y-277107D02*
X286591Y-277422D01*
X285246Y-278320D01*
X284348Y-279665D01*
X284033Y-281250D01*
X284348Y-282836D01*
X285246Y-284180D01*
X286591Y-285079D01*
X288176Y-285394D01*
X289762Y-285079D01*
X291106Y-284180D01*
X292005Y-282836D01*
X292320Y-281250D01*
X292005Y-279665D01*
X291106Y-278320D01*
X289762Y-277422D01*
X288176Y-277107D01*
D02*
G37*
G36*
X266397D02*
X264812Y-277422D01*
X263468Y-278320D01*
X262569Y-279665D01*
X262254Y-281250D01*
X262569Y-282836D01*
X263468Y-284180D01*
X264812Y-285079D01*
X266397Y-285394D01*
X267983Y-285079D01*
X269328Y-284180D01*
X270226Y-282836D01*
X270541Y-281250D01*
X270226Y-279665D01*
X269328Y-278320D01*
X267983Y-277422D01*
X266397Y-277107D01*
D02*
G37*
G36*
X-216408Y-278812D02*
X-217994Y-279128D01*
X-219338Y-280026D01*
X-220236Y-281370D01*
X-220552Y-282956D01*
X-220236Y-284542D01*
X-219338Y-285886D01*
X-217994Y-286784D01*
X-216408Y-287100D01*
X-214822Y-286784D01*
X-213478Y-285886D01*
X-212580Y-284542D01*
X-212264Y-282956D01*
X-212580Y-281370D01*
X-213478Y-280026D01*
X-214822Y-279128D01*
X-216408Y-278812D01*
D02*
G37*
G36*
X-248412Y-279320D02*
X-249998Y-279636D01*
X-251342Y-280534D01*
X-252240Y-281878D01*
X-252556Y-283464D01*
X-252240Y-285050D01*
X-251342Y-286394D01*
X-249998Y-287292D01*
X-248412Y-287608D01*
X-246826Y-287292D01*
X-245482Y-286394D01*
X-244584Y-285050D01*
X-244268Y-283464D01*
X-244584Y-281878D01*
X-245482Y-280534D01*
X-246826Y-279636D01*
X-248412Y-279320D01*
D02*
G37*
G36*
X-181102Y-282876D02*
X-182688Y-283192D01*
X-184032Y-284090D01*
X-184930Y-285434D01*
X-185246Y-287020D01*
X-184930Y-288606D01*
X-184032Y-289950D01*
X-182688Y-290848D01*
X-181102Y-291164D01*
X-179516Y-290848D01*
X-178172Y-289950D01*
X-177274Y-288606D01*
X-176958Y-287020D01*
X-177274Y-285434D01*
X-178172Y-284090D01*
X-179516Y-283192D01*
X-181102Y-282876D01*
D02*
G37*
G36*
X-86360Y-283130D02*
X-87946Y-283446D01*
X-89290Y-284344D01*
X-90188Y-285688D01*
X-90504Y-287274D01*
X-90188Y-288860D01*
X-89290Y-290204D01*
X-87946Y-291102D01*
X-86360Y-291418D01*
X-84774Y-291102D01*
X-83430Y-290204D01*
X-82532Y-288860D01*
X-82216Y-287274D01*
X-82532Y-285688D01*
X-83430Y-284344D01*
X-84774Y-283446D01*
X-86360Y-283130D01*
D02*
G37*
G36*
X-383794Y-284654D02*
X-385380Y-284970D01*
X-386724Y-285868D01*
X-387622Y-287212D01*
X-387938Y-288798D01*
X-387622Y-290384D01*
X-386724Y-291728D01*
X-385380Y-292626D01*
X-383794Y-292942D01*
X-382208Y-292626D01*
X-380864Y-291728D01*
X-379966Y-290384D01*
X-379650Y-288798D01*
X-379966Y-287212D01*
X-380864Y-285868D01*
X-382208Y-284970D01*
X-383794Y-284654D01*
D02*
G37*
G36*
X-5334Y-286159D02*
X-6920Y-286474D01*
X-8264Y-287372D01*
X-9162Y-288716D01*
X-9478Y-290302D01*
X-9162Y-291888D01*
X-8264Y-293232D01*
X-6920Y-294130D01*
X-5334Y-294446D01*
X-3748Y-294130D01*
X-2404Y-293232D01*
X-1506Y-291888D01*
X-1190Y-290302D01*
X-1506Y-288716D01*
X-2404Y-287372D01*
X-3748Y-286474D01*
X-5334Y-286159D01*
D02*
G37*
G36*
X277287Y-287996D02*
X275701Y-288312D01*
X274357Y-289210D01*
X273459Y-290554D01*
X273143Y-292140D01*
X273459Y-293725D01*
X274357Y-295070D01*
X275701Y-295968D01*
X277287Y-296283D01*
X278873Y-295968D01*
X280217Y-295070D01*
X281115Y-293725D01*
X281431Y-292140D01*
X281115Y-290554D01*
X280217Y-289210D01*
X278873Y-288312D01*
X277287Y-287996D01*
D02*
G37*
G36*
X-142494Y-294560D02*
X-144080Y-294876D01*
X-145424Y-295774D01*
X-146322Y-297118D01*
X-146638Y-298704D01*
X-146322Y-300290D01*
X-145424Y-301634D01*
X-144080Y-302532D01*
X-142494Y-302848D01*
X-140908Y-302532D01*
X-139564Y-301634D01*
X-138666Y-300290D01*
X-138350Y-298704D01*
X-138666Y-297118D01*
X-139564Y-295774D01*
X-140908Y-294876D01*
X-142494Y-294560D01*
D02*
G37*
G36*
X-196342Y-294814D02*
X-197928Y-295130D01*
X-199272Y-296028D01*
X-200170Y-297372D01*
X-200486Y-298958D01*
X-200170Y-300544D01*
X-199272Y-301888D01*
X-197928Y-302786D01*
X-196342Y-303102D01*
X-194756Y-302786D01*
X-193412Y-301888D01*
X-192514Y-300544D01*
X-192198Y-298958D01*
X-192514Y-297372D01*
X-193412Y-296028D01*
X-194756Y-295130D01*
X-196342Y-294814D01*
D02*
G37*
G36*
X-165413Y-296164D02*
X-166999Y-296480D01*
X-168343Y-297378D01*
X-169241Y-298722D01*
X-169557Y-300308D01*
X-169241Y-301894D01*
X-168343Y-303238D01*
X-166999Y-304136D01*
X-165413Y-304452D01*
X-163827Y-304136D01*
X-162483Y-303238D01*
X-161585Y-301894D01*
X-161269Y-300308D01*
X-161585Y-298722D01*
X-162483Y-297378D01*
X-163827Y-296480D01*
X-165413Y-296164D01*
D02*
G37*
G36*
X-29210Y-297862D02*
X-30796Y-298178D01*
X-32140Y-299076D01*
X-33038Y-300420D01*
X-33354Y-302006D01*
X-33038Y-303592D01*
X-32140Y-304936D01*
X-30796Y-305834D01*
X-29210Y-306150D01*
X-27624Y-305834D01*
X-26280Y-304936D01*
X-25382Y-303592D01*
X-25066Y-302006D01*
X-25382Y-300420D01*
X-26280Y-299076D01*
X-27624Y-298178D01*
X-29210Y-297862D01*
D02*
G37*
G36*
X153416Y-297950D02*
X151830Y-298265D01*
X150486Y-299163D01*
X149588Y-300508D01*
X149272Y-302094D01*
X149588Y-303679D01*
X150486Y-305023D01*
X151830Y-305922D01*
X153416Y-306237D01*
X155002Y-305922D01*
X156346Y-305023D01*
X157244Y-303679D01*
X157560Y-302094D01*
X157244Y-300508D01*
X156346Y-299163D01*
X155002Y-298265D01*
X153416Y-297950D01*
D02*
G37*
G36*
X-232156Y-298624D02*
X-233742Y-298940D01*
X-235086Y-299838D01*
X-235984Y-301182D01*
X-236300Y-302768D01*
X-235984Y-304354D01*
X-235086Y-305698D01*
X-233742Y-306596D01*
X-232156Y-306912D01*
X-230570Y-306596D01*
X-229226Y-305698D01*
X-228328Y-304354D01*
X-228012Y-302768D01*
X-228328Y-301182D01*
X-229226Y-299838D01*
X-230570Y-298940D01*
X-232156Y-298624D01*
D02*
G37*
G36*
X-181356Y-307152D02*
X-182942Y-307468D01*
X-184286Y-308366D01*
X-185184Y-309710D01*
X-185500Y-311296D01*
X-185184Y-312882D01*
X-184286Y-314226D01*
X-182942Y-315124D01*
X-181356Y-315440D01*
X-179770Y-315124D01*
X-178426Y-314226D01*
X-177528Y-312882D01*
X-177212Y-311296D01*
X-177528Y-309710D01*
X-178426Y-308366D01*
X-179770Y-307468D01*
X-181356Y-307152D01*
D02*
G37*
G36*
X-88900Y-308022D02*
X-90486Y-308338D01*
X-91830Y-309236D01*
X-92728Y-310580D01*
X-93044Y-312166D01*
X-92728Y-313752D01*
X-91830Y-315096D01*
X-90486Y-315994D01*
X-88900Y-316310D01*
X-87314Y-315994D01*
X-85970Y-315096D01*
X-85072Y-313752D01*
X-84756Y-312166D01*
X-85072Y-310580D01*
X-85970Y-309236D01*
X-87314Y-308338D01*
X-88900Y-308022D01*
D02*
G37*
G36*
X111252Y-309546D02*
X109666Y-309862D01*
X108322Y-310760D01*
X107424Y-312104D01*
X107108Y-313690D01*
X107424Y-315276D01*
X108322Y-316620D01*
X109666Y-317518D01*
X111252Y-317834D01*
X112838Y-317518D01*
X114182Y-316620D01*
X115080Y-315276D01*
X115396Y-313690D01*
X115080Y-312104D01*
X114182Y-310760D01*
X112838Y-309862D01*
X111252Y-309546D01*
D02*
G37*
G36*
X51228D02*
X49642Y-309862D01*
X48298Y-310760D01*
X47400Y-312104D01*
X47084Y-313690D01*
X47400Y-315276D01*
X48298Y-316620D01*
X49642Y-317518D01*
X51228Y-317834D01*
X52814Y-317518D01*
X54158Y-316620D01*
X55056Y-315276D01*
X55372Y-313690D01*
X55056Y-312104D01*
X54158Y-310760D01*
X52814Y-309862D01*
X51228Y-309546D01*
D02*
G37*
G36*
X85264Y-310054D02*
X83678Y-310370D01*
X82334Y-311268D01*
X81436Y-312612D01*
X81120Y-314198D01*
X81436Y-315784D01*
X82334Y-317128D01*
X83678Y-318026D01*
X85264Y-318342D01*
X86850Y-318026D01*
X88194Y-317128D01*
X89092Y-315784D01*
X89408Y-314198D01*
X89092Y-312612D01*
X88194Y-311268D01*
X86850Y-310370D01*
X85264Y-310054D01*
D02*
G37*
G36*
X-216408Y-314118D02*
X-217994Y-314434D01*
X-219338Y-315332D01*
X-220236Y-316676D01*
X-220552Y-318262D01*
X-220236Y-319848D01*
X-219338Y-321192D01*
X-217994Y-322090D01*
X-216408Y-322406D01*
X-214822Y-322090D01*
X-213478Y-321192D01*
X-212580Y-319848D01*
X-212264Y-318262D01*
X-212580Y-316676D01*
X-213478Y-315332D01*
X-214822Y-314434D01*
X-216408Y-314118D01*
D02*
G37*
G36*
X-356108Y-316283D02*
X-357694Y-316598D01*
X-359038Y-317496D01*
X-359936Y-318841D01*
X-360252Y-320426D01*
X-359936Y-322012D01*
X-359038Y-323356D01*
X-357694Y-324254D01*
X-356108Y-324570D01*
X-354522Y-324254D01*
X-353178Y-323356D01*
X-352280Y-322012D01*
X-351964Y-320426D01*
X-352280Y-318841D01*
X-353178Y-317496D01*
X-354522Y-316598D01*
X-356108Y-316283D01*
D02*
G37*
G36*
X8128Y-317166D02*
X6542Y-317482D01*
X5198Y-318380D01*
X4300Y-319724D01*
X3984Y-321310D01*
X4300Y-322896D01*
X5198Y-324240D01*
X6542Y-325138D01*
X8128Y-325454D01*
X9714Y-325138D01*
X11058Y-324240D01*
X11956Y-322896D01*
X12272Y-321310D01*
X11956Y-319724D01*
X11058Y-318380D01*
X9714Y-317482D01*
X8128Y-317166D01*
D02*
G37*
G36*
X-70317Y-318690D02*
X-71903Y-319006D01*
X-73247Y-319904D01*
X-74145Y-321248D01*
X-74461Y-322834D01*
X-74145Y-324420D01*
X-73247Y-325764D01*
X-71903Y-326662D01*
X-70317Y-326978D01*
X-68731Y-326662D01*
X-67387Y-325764D01*
X-66489Y-324420D01*
X-66174Y-322834D01*
X-66489Y-321248D01*
X-67387Y-319904D01*
X-68731Y-319006D01*
X-70317Y-318690D01*
D02*
G37*
G36*
X-302224D02*
X-303810Y-319006D01*
X-305154Y-319904D01*
X-306052Y-321248D01*
X-306367Y-322834D01*
X-306052Y-324420D01*
X-305154Y-325764D01*
X-303810Y-326662D01*
X-302224Y-326978D01*
X-300638Y-326662D01*
X-299294Y-325764D01*
X-298396Y-324420D01*
X-298080Y-322834D01*
X-298396Y-321248D01*
X-299294Y-319904D01*
X-300638Y-319006D01*
X-302224Y-318690D01*
D02*
G37*
G36*
X-22098Y-323770D02*
X-23684Y-324086D01*
X-25028Y-324984D01*
X-25926Y-326328D01*
X-26242Y-327914D01*
X-25926Y-329500D01*
X-25028Y-330844D01*
X-23684Y-331742D01*
X-22098Y-332058D01*
X-20512Y-331742D01*
X-19168Y-330844D01*
X-18270Y-329500D01*
X-17954Y-327914D01*
X-18270Y-326328D01*
X-19168Y-324984D01*
X-20512Y-324086D01*
X-22098Y-323770D01*
D02*
G37*
G36*
X48180Y-324024D02*
X46594Y-324340D01*
X45250Y-325238D01*
X44352Y-326582D01*
X44036Y-328168D01*
X44352Y-329754D01*
X45250Y-331098D01*
X46594Y-331996D01*
X48180Y-332312D01*
X49766Y-331996D01*
X51110Y-331098D01*
X52008Y-329754D01*
X52324Y-328168D01*
X52008Y-326582D01*
X51110Y-325238D01*
X49766Y-324340D01*
X48180Y-324024D01*
D02*
G37*
G36*
X-198882Y-326310D02*
X-200468Y-326626D01*
X-201812Y-327524D01*
X-202710Y-328868D01*
X-203026Y-330454D01*
X-202710Y-332040D01*
X-201812Y-333384D01*
X-200468Y-334282D01*
X-198882Y-334598D01*
X-197296Y-334282D01*
X-195952Y-333384D01*
X-195054Y-332040D01*
X-194738Y-330454D01*
X-195054Y-328868D01*
X-195952Y-327524D01*
X-197296Y-326626D01*
X-198882Y-326310D01*
D02*
G37*
G36*
X-51054Y-333930D02*
X-52640Y-334246D01*
X-53984Y-335144D01*
X-54882Y-336488D01*
X-55198Y-338074D01*
X-54882Y-339660D01*
X-53984Y-341004D01*
X-52640Y-341902D01*
X-51054Y-342218D01*
X-49468Y-341902D01*
X-48124Y-341004D01*
X-47226Y-339660D01*
X-46910Y-338074D01*
X-47226Y-336488D01*
X-48124Y-335144D01*
X-49468Y-334246D01*
X-51054Y-333930D01*
D02*
G37*
G36*
X-329166Y-337250D02*
X-330752Y-337566D01*
X-332096Y-338464D01*
X-332994Y-339808D01*
X-333310Y-341394D01*
X-332994Y-342980D01*
X-332096Y-344324D01*
X-330752Y-345222D01*
X-329166Y-345538D01*
X-327580Y-345222D01*
X-326236Y-344324D01*
X-325338Y-342980D01*
X-325022Y-341394D01*
X-325338Y-339808D01*
X-326236Y-338464D01*
X-327580Y-337566D01*
X-329166Y-337250D01*
D02*
G37*
G36*
X-177038Y-338502D02*
X-178624Y-338818D01*
X-179968Y-339716D01*
X-180866Y-341060D01*
X-181182Y-342646D01*
X-180866Y-344232D01*
X-179968Y-345576D01*
X-178624Y-346474D01*
X-177038Y-346790D01*
X-175452Y-346474D01*
X-174108Y-345576D01*
X-173210Y-344232D01*
X-172894Y-342646D01*
X-173210Y-341060D01*
X-174108Y-339716D01*
X-175452Y-338818D01*
X-177038Y-338502D01*
D02*
G37*
G36*
X-134874Y-342566D02*
X-136460Y-342882D01*
X-137804Y-343780D01*
X-138702Y-345124D01*
X-139018Y-346710D01*
X-138702Y-348296D01*
X-137804Y-349640D01*
X-136460Y-350538D01*
X-134874Y-350854D01*
X-133288Y-350538D01*
X-131944Y-349640D01*
X-131046Y-348296D01*
X-130730Y-346710D01*
X-131046Y-345124D01*
X-131944Y-343780D01*
X-133288Y-342882D01*
X-134874Y-342566D01*
D02*
G37*
G36*
X194226Y-345389D02*
X192641Y-345705D01*
X191297Y-346603D01*
X190398Y-347947D01*
X190083Y-349533D01*
X190398Y-351119D01*
X191297Y-352463D01*
X192641Y-353361D01*
X194226Y-353676D01*
X195812Y-353361D01*
X197157Y-352463D01*
X198055Y-351119D01*
X198370Y-349533D01*
X198055Y-347947D01*
X197157Y-346603D01*
X195812Y-345705D01*
X194226Y-345389D01*
D02*
G37*
G36*
X-187452Y-346122D02*
X-189038Y-346438D01*
X-190382Y-347336D01*
X-191280Y-348680D01*
X-191596Y-350266D01*
X-191280Y-351852D01*
X-190382Y-353196D01*
X-189038Y-354094D01*
X-187452Y-354410D01*
X-185866Y-354094D01*
X-184522Y-353196D01*
X-183624Y-351852D01*
X-183308Y-350266D01*
X-183624Y-348680D01*
X-184522Y-347336D01*
X-185866Y-346438D01*
X-187452Y-346122D01*
D02*
G37*
G36*
X-3048Y-346630D02*
X-4634Y-346946D01*
X-5978Y-347844D01*
X-6876Y-349188D01*
X-7192Y-350774D01*
X-6876Y-352360D01*
X-5978Y-353704D01*
X-4634Y-354602D01*
X-3048Y-354918D01*
X-1462Y-354602D01*
X-118Y-353704D01*
X780Y-352360D01*
X1096Y-350774D01*
X780Y-349188D01*
X-118Y-347844D01*
X-1462Y-346946D01*
X-3048Y-346630D01*
D02*
G37*
G36*
X-316720Y-349696D02*
X-318306Y-350012D01*
X-319650Y-350910D01*
X-320548Y-352254D01*
X-320864Y-353840D01*
X-320548Y-355426D01*
X-319650Y-356770D01*
X-318306Y-357668D01*
X-316720Y-357984D01*
X-315134Y-357668D01*
X-313790Y-356770D01*
X-312892Y-355426D01*
X-312576Y-353840D01*
X-312892Y-352254D01*
X-313790Y-350910D01*
X-315134Y-350012D01*
X-316720Y-349696D01*
D02*
G37*
G36*
X111252Y-350457D02*
X109666Y-350772D01*
X108322Y-351670D01*
X107424Y-353015D01*
X107108Y-354600D01*
X107424Y-356186D01*
X108322Y-357530D01*
X109666Y-358428D01*
X111252Y-358744D01*
X112838Y-358428D01*
X114182Y-357530D01*
X115080Y-356186D01*
X115396Y-354600D01*
X115080Y-353015D01*
X114182Y-351670D01*
X112838Y-350772D01*
X111252Y-350457D01*
D02*
G37*
G36*
X136144Y-351530D02*
X134558Y-351845D01*
X133214Y-352743D01*
X132316Y-354088D01*
X132000Y-355673D01*
X132316Y-357259D01*
X133214Y-358603D01*
X134558Y-359502D01*
X136144Y-359817D01*
X137730Y-359502D01*
X139074Y-358603D01*
X139972Y-357259D01*
X140288Y-355673D01*
X139972Y-354088D01*
X139074Y-352743D01*
X137730Y-351845D01*
X136144Y-351530D01*
D02*
G37*
G36*
X-197111Y-354464D02*
X-198697Y-354779D01*
X-200041Y-355677D01*
X-200939Y-357022D01*
X-201255Y-358607D01*
X-200939Y-360193D01*
X-200041Y-361537D01*
X-198697Y-362435D01*
X-197111Y-362751D01*
X-195525Y-362435D01*
X-194181Y-361537D01*
X-193283Y-360193D01*
X-192967Y-358607D01*
X-193283Y-357022D01*
X-194181Y-355677D01*
X-195525Y-354779D01*
X-197111Y-354464D01*
D02*
G37*
G36*
X84854Y-369390D02*
X83268Y-369705D01*
X82537Y-370194D01*
X81604Y-370499D01*
X80670Y-370194D01*
X79940Y-369705D01*
X78354Y-369390D01*
X76768Y-369705D01*
X76038Y-370194D01*
X75104Y-370499D01*
X74170Y-370194D01*
X73440Y-369705D01*
X71854Y-369390D01*
X70268Y-369705D01*
X69538Y-370194D01*
X68604Y-370499D01*
X67670Y-370194D01*
X66940Y-369705D01*
X65354Y-369390D01*
X63768Y-369705D01*
X62424Y-370604D01*
X61526Y-371948D01*
X61210Y-373534D01*
X61526Y-375119D01*
X62424Y-376464D01*
X63768Y-377362D01*
X65354Y-377677D01*
X66940Y-377362D01*
X67670Y-376874D01*
X68604Y-376568D01*
X69538Y-376874D01*
X70268Y-377362D01*
X71854Y-377677D01*
X73440Y-377362D01*
X74170Y-376874D01*
X75104Y-376568D01*
X76038Y-376874D01*
X76768Y-377362D01*
X78354Y-377677D01*
X79940Y-377362D01*
X80670Y-376874D01*
X81604Y-376568D01*
X82537Y-376874D01*
X83268Y-377362D01*
X84854Y-377677D01*
X86440Y-377362D01*
X87784Y-376464D01*
X88682Y-375119D01*
X88998Y-373534D01*
X88682Y-371948D01*
X87784Y-370604D01*
X86440Y-369705D01*
X84854Y-369390D01*
D02*
G37*
G36*
X-304274Y-360589D02*
X-306454Y-361022D01*
X-308303Y-362257D01*
X-309538Y-364106D01*
X-309971Y-366286D01*
X-309538Y-368466D01*
X-308303Y-370315D01*
X-306454Y-371550D01*
X-304274Y-371983D01*
X-302094Y-371550D01*
X-300245Y-370315D01*
X-299010Y-368466D01*
X-298577Y-366286D01*
X-299010Y-364106D01*
X-300245Y-362257D01*
X-302094Y-361022D01*
X-304274Y-360589D01*
D02*
G37*
G36*
X235152Y-365934D02*
X233566Y-366250D01*
X232222Y-367148D01*
X231324Y-368492D01*
X231008Y-370078D01*
X231324Y-371664D01*
X232222Y-373008D01*
X233566Y-373906D01*
X235152Y-374222D01*
X236737Y-373906D01*
X238082Y-373008D01*
X238980Y-371664D01*
X239295Y-370078D01*
X238980Y-368492D01*
X238082Y-367148D01*
X236737Y-366250D01*
X235152Y-365934D01*
D02*
G37*
G36*
X-203708D02*
X-205294Y-366250D01*
X-206638Y-367148D01*
X-207536Y-368492D01*
X-207852Y-370078D01*
X-207536Y-371664D01*
X-206638Y-373008D01*
X-205294Y-373906D01*
X-203708Y-374222D01*
X-202122Y-373906D01*
X-200778Y-373008D01*
X-199880Y-371664D01*
X-199564Y-370078D01*
X-199880Y-368492D01*
X-200778Y-367148D01*
X-202122Y-366250D01*
X-203708Y-365934D01*
D02*
G37*
G36*
X159766Y-367712D02*
X158180Y-368028D01*
X156836Y-368926D01*
X155938Y-370270D01*
X155622Y-371856D01*
X155938Y-373442D01*
X156836Y-374786D01*
X158180Y-375684D01*
X159766Y-376000D01*
X161352Y-375684D01*
X162696Y-374786D01*
X163594Y-373442D01*
X163910Y-371856D01*
X163594Y-370270D01*
X162696Y-368926D01*
X161352Y-368028D01*
X159766Y-367712D01*
D02*
G37*
G36*
X50992Y-370252D02*
X49406Y-370568D01*
X48062Y-371466D01*
X47164Y-372810D01*
X46848Y-374396D01*
X47164Y-375982D01*
X48062Y-377326D01*
X49406Y-378224D01*
X50992Y-378540D01*
X52578Y-378224D01*
X53922Y-377326D01*
X54820Y-375982D01*
X55136Y-374396D01*
X54820Y-372810D01*
X53922Y-371466D01*
X52578Y-370568D01*
X50992Y-370252D01*
D02*
G37*
G36*
X-292082Y-374588D02*
X-293668Y-374904D01*
X-295012Y-375802D01*
X-295910Y-377146D01*
X-296226Y-378732D01*
X-295910Y-380318D01*
X-295012Y-381662D01*
X-293668Y-382560D01*
X-292082Y-382876D01*
X-290496Y-382560D01*
X-289152Y-381662D01*
X-288254Y-380318D01*
X-287938Y-378732D01*
X-288254Y-377146D01*
X-289152Y-375802D01*
X-290496Y-374904D01*
X-292082Y-374588D01*
D02*
G37*
G36*
X-220218Y-379142D02*
X-221804Y-379458D01*
X-223148Y-380356D01*
X-224046Y-381700D01*
X-224362Y-383286D01*
X-224046Y-384872D01*
X-223148Y-386216D01*
X-221804Y-387114D01*
X-220218Y-387430D01*
X-218632Y-387114D01*
X-217288Y-386216D01*
X-216390Y-384872D01*
X-216074Y-383286D01*
X-216390Y-381700D01*
X-217288Y-380356D01*
X-218632Y-379458D01*
X-220218Y-379142D01*
D02*
G37*
G36*
X204978Y-382190D02*
X203392Y-382506D01*
X202048Y-383404D01*
X201150Y-384748D01*
X200834Y-386334D01*
X201150Y-387920D01*
X202048Y-389264D01*
X203392Y-390162D01*
X204978Y-390478D01*
X206564Y-390162D01*
X207908Y-389264D01*
X208806Y-387920D01*
X209122Y-386334D01*
X208806Y-384748D01*
X207908Y-383404D01*
X206564Y-382506D01*
X204978Y-382190D01*
D02*
G37*
G36*
X-188468Y-386780D02*
X-190054Y-387096D01*
X-191398Y-387994D01*
X-192296Y-389338D01*
X-192612Y-390924D01*
X-192296Y-392510D01*
X-191398Y-393854D01*
X-190054Y-394752D01*
X-188468Y-395068D01*
X-186882Y-394752D01*
X-185538Y-393854D01*
X-184640Y-392510D01*
X-184324Y-390924D01*
X-184640Y-389338D01*
X-185538Y-387994D01*
X-186882Y-387096D01*
X-188468Y-386780D01*
D02*
G37*
G36*
X-279382D02*
X-280968Y-387096D01*
X-282312Y-387994D01*
X-283210Y-389338D01*
X-283526Y-390924D01*
X-283210Y-392510D01*
X-282312Y-393854D01*
X-280968Y-394752D01*
X-279382Y-395068D01*
X-277796Y-394752D01*
X-276452Y-393854D01*
X-275554Y-392510D01*
X-275238Y-390924D01*
X-275554Y-389338D01*
X-276452Y-387994D01*
X-277796Y-387096D01*
X-279382Y-386780D01*
D02*
G37*
G36*
X108458Y-387270D02*
X106872Y-387586D01*
X105528Y-388484D01*
X104630Y-389828D01*
X104314Y-391414D01*
X104630Y-393000D01*
X105528Y-394344D01*
X106872Y-395242D01*
X108458Y-395558D01*
X110044Y-395242D01*
X111388Y-394344D01*
X112286Y-393000D01*
X112602Y-391414D01*
X112286Y-389828D01*
X111388Y-388484D01*
X110044Y-387586D01*
X108458Y-387270D01*
D02*
G37*
G36*
X266954Y-389048D02*
X265368Y-389364D01*
X264024Y-390262D01*
X263126Y-391606D01*
X262810Y-393192D01*
X263126Y-394778D01*
X264024Y-396122D01*
X265368Y-397020D01*
X266954Y-397336D01*
X268540Y-397020D01*
X269884Y-396122D01*
X270782Y-394778D01*
X271098Y-393192D01*
X270782Y-391606D01*
X269884Y-390262D01*
X268540Y-389364D01*
X266954Y-389048D01*
D02*
G37*
G36*
X-61794Y-390955D02*
X-63380Y-391270D01*
X-64724Y-392169D01*
X-65622Y-393513D01*
X-65938Y-395099D01*
X-65622Y-396684D01*
X-64724Y-398029D01*
X-63380Y-398927D01*
X-61794Y-399242D01*
X-60208Y-398927D01*
X-58864Y-398029D01*
X-57966Y-396684D01*
X-57650Y-395099D01*
X-57966Y-393513D01*
X-58864Y-392169D01*
X-60208Y-391270D01*
X-61794Y-390955D01*
D02*
G37*
G36*
X-222250Y-392605D02*
X-223836Y-392920D01*
X-225180Y-393819D01*
X-226078Y-395163D01*
X-226394Y-396749D01*
X-226078Y-398334D01*
X-225180Y-399679D01*
X-223836Y-400577D01*
X-222250Y-400892D01*
X-220664Y-400577D01*
X-219320Y-399679D01*
X-218422Y-398334D01*
X-218106Y-396749D01*
X-218422Y-395163D01*
X-219320Y-393819D01*
X-220664Y-392920D01*
X-222250Y-392605D01*
D02*
G37*
G36*
X-210058Y-393620D02*
X-211644Y-393936D01*
X-212988Y-394834D01*
X-213886Y-396178D01*
X-214202Y-397764D01*
X-213886Y-399350D01*
X-212988Y-400694D01*
X-211644Y-401592D01*
X-210058Y-401908D01*
X-208472Y-401592D01*
X-207128Y-400694D01*
X-206230Y-399350D01*
X-205914Y-397764D01*
X-206230Y-396178D01*
X-207128Y-394834D01*
X-208472Y-393936D01*
X-210058Y-393620D01*
D02*
G37*
G36*
X125984Y-394382D02*
X124398Y-394698D01*
X123054Y-395596D01*
X122156Y-396940D01*
X121840Y-398526D01*
X122156Y-400112D01*
X123054Y-401456D01*
X124398Y-402354D01*
X125984Y-402670D01*
X127570Y-402354D01*
X128914Y-401456D01*
X129812Y-400112D01*
X130128Y-398526D01*
X129812Y-396940D01*
X128914Y-395596D01*
X127570Y-394698D01*
X125984Y-394382D01*
D02*
G37*
G36*
X83312D02*
X81726Y-394698D01*
X80382Y-395596D01*
X79484Y-396940D01*
X79168Y-398526D01*
X79484Y-400112D01*
X80382Y-401456D01*
X81726Y-402354D01*
X83312Y-402670D01*
X84898Y-402354D01*
X86242Y-401456D01*
X87140Y-400112D01*
X87456Y-398526D01*
X87140Y-396940D01*
X86242Y-395596D01*
X84898Y-394698D01*
X83312Y-394382D01*
D02*
G37*
G36*
X-121412Y-391714D02*
X-123898Y-392041D01*
X-126215Y-393001D01*
X-128205Y-394527D01*
X-129731Y-396517D01*
X-130691Y-398834D01*
X-131018Y-401320D01*
X-130691Y-403806D01*
X-129731Y-406123D01*
X-128205Y-408113D01*
X-126215Y-409639D01*
X-123898Y-410599D01*
X-121412Y-410926D01*
X-118926Y-410599D01*
X-116609Y-409639D01*
X-114619Y-408113D01*
X-113093Y-406123D01*
X-112133Y-403806D01*
X-111806Y-401320D01*
X-112133Y-398834D01*
X-113093Y-396517D01*
X-114619Y-394527D01*
X-116609Y-393001D01*
X-118926Y-392041D01*
X-121412Y-391714D01*
D02*
G37*
G36*
X166624Y-404034D02*
X165038Y-404350D01*
X163694Y-405248D01*
X162796Y-406592D01*
X162480Y-408178D01*
X162796Y-409764D01*
X163694Y-411108D01*
X165038Y-412006D01*
X166624Y-412322D01*
X168210Y-412006D01*
X169554Y-411108D01*
X170452Y-409764D01*
X170768Y-408178D01*
X170452Y-406592D01*
X169554Y-405248D01*
X168210Y-404350D01*
X166624Y-404034D01*
D02*
G37*
G36*
X-199390Y-406320D02*
X-200976Y-406636D01*
X-202320Y-407534D01*
X-203218Y-408878D01*
X-203534Y-410464D01*
X-203218Y-412050D01*
X-202320Y-413394D01*
X-200976Y-414292D01*
X-199390Y-414608D01*
X-197804Y-414292D01*
X-196460Y-413394D01*
X-195562Y-412050D01*
X-195246Y-410464D01*
X-195562Y-408878D01*
X-196460Y-407534D01*
X-197804Y-406636D01*
X-199390Y-406320D01*
D02*
G37*
G36*
X234188Y-409368D02*
X232602Y-409684D01*
X231258Y-410582D01*
X230360Y-411926D01*
X230044Y-413512D01*
X230360Y-415098D01*
X231258Y-416442D01*
X232602Y-417340D01*
X234188Y-417656D01*
X235774Y-417340D01*
X237118Y-416442D01*
X238016Y-415098D01*
X238332Y-413512D01*
X238016Y-411926D01*
X237118Y-410582D01*
X235774Y-409684D01*
X234188Y-409368D01*
D02*
G37*
G36*
X-170681Y-416734D02*
X-172267Y-417050D01*
X-173612Y-417948D01*
X-174510Y-419292D01*
X-174825Y-420878D01*
X-174510Y-422464D01*
X-173612Y-423808D01*
X-172267Y-424706D01*
X-170681Y-425022D01*
X-169096Y-424706D01*
X-167752Y-423808D01*
X-166853Y-422464D01*
X-166538Y-420878D01*
X-166853Y-419292D01*
X-167752Y-417948D01*
X-169096Y-417050D01*
X-170681Y-416734D01*
D02*
G37*
G36*
X128778Y-423338D02*
X127192Y-423654D01*
X125848Y-424552D01*
X124950Y-425896D01*
X124634Y-427482D01*
X124950Y-429068D01*
X125848Y-430412D01*
X127192Y-431310D01*
X128778Y-431626D01*
X130364Y-431310D01*
X131708Y-430412D01*
X132606Y-429068D01*
X132922Y-427482D01*
X132606Y-425896D01*
X131708Y-424552D01*
X130364Y-423654D01*
X128778Y-423338D01*
D02*
G37*
G36*
X-188468Y-424354D02*
X-190054Y-424670D01*
X-191398Y-425568D01*
X-192296Y-426912D01*
X-192612Y-428498D01*
X-192296Y-430084D01*
X-191398Y-431428D01*
X-190054Y-432326D01*
X-188468Y-432642D01*
X-186882Y-432326D01*
X-185538Y-431428D01*
X-184640Y-430084D01*
X-184324Y-428498D01*
X-184640Y-426912D01*
X-185538Y-425568D01*
X-186882Y-424670D01*
X-188468Y-424354D01*
D02*
G37*
G36*
X-176784Y-426640D02*
X-178370Y-426956D01*
X-179714Y-427854D01*
X-180612Y-429198D01*
X-180928Y-430784D01*
X-180612Y-432370D01*
X-179714Y-433714D01*
X-178370Y-434612D01*
X-176784Y-434928D01*
X-175198Y-434612D01*
X-173854Y-433714D01*
X-172956Y-432370D01*
X-172640Y-430784D01*
X-172956Y-429198D01*
X-173854Y-427854D01*
X-175198Y-426956D01*
X-176784Y-426640D01*
D02*
G37*
G36*
X197819Y-427656D02*
X196233Y-427972D01*
X194889Y-428870D01*
X193990Y-430214D01*
X193675Y-431800D01*
X193990Y-433386D01*
X194889Y-434730D01*
X196233Y-435628D01*
X197819Y-435944D01*
X199404Y-435628D01*
X200749Y-434730D01*
X201647Y-433386D01*
X201962Y-431800D01*
X201647Y-430214D01*
X200749Y-428870D01*
X199404Y-427972D01*
X197819Y-427656D01*
D02*
G37*
G36*
X-121412Y-417114D02*
X-123898Y-417441D01*
X-126215Y-418401D01*
X-128205Y-419927D01*
X-129731Y-421917D01*
X-130691Y-424234D01*
X-131018Y-426720D01*
X-130691Y-429206D01*
X-129731Y-431523D01*
X-128205Y-433513D01*
X-126215Y-435039D01*
X-123898Y-435999D01*
X-121412Y-436326D01*
X-118926Y-435999D01*
X-116609Y-435039D01*
X-114619Y-433513D01*
X-113093Y-431523D01*
X-112133Y-429206D01*
X-111806Y-426720D01*
X-112133Y-424234D01*
X-113093Y-421917D01*
X-114619Y-419927D01*
X-116609Y-418401D01*
X-118926Y-417441D01*
X-121412Y-417114D01*
D02*
G37*
G36*
X97536Y-423203D02*
X95311Y-423495D01*
X93237Y-424354D01*
X91457Y-425721D01*
X90090Y-427501D01*
X89231Y-429575D01*
X88939Y-431800D01*
X89231Y-434025D01*
X90090Y-436099D01*
X91457Y-437879D01*
X93237Y-439246D01*
X95311Y-440105D01*
X97536Y-440397D01*
X99761Y-440105D01*
X101835Y-439246D01*
X103615Y-437879D01*
X104982Y-436099D01*
X105841Y-434025D01*
X106133Y-431800D01*
X105841Y-429575D01*
X104982Y-427501D01*
X103615Y-425721D01*
X101835Y-424354D01*
X99761Y-423495D01*
X97536Y-423203D01*
D02*
G37*
G36*
X72136D02*
X69911Y-423495D01*
X67837Y-424354D01*
X66057Y-425721D01*
X64690Y-427501D01*
X63831Y-429575D01*
X63538Y-431800D01*
X63831Y-434025D01*
X64690Y-436099D01*
X66057Y-437879D01*
X67837Y-439246D01*
X69911Y-440105D01*
X72136Y-440397D01*
X74361Y-440105D01*
X76435Y-439246D01*
X78215Y-437879D01*
X79582Y-436099D01*
X80441Y-434025D01*
X80733Y-431800D01*
X80441Y-429575D01*
X79582Y-427501D01*
X78215Y-425721D01*
X76435Y-424354D01*
X74361Y-423495D01*
X72136Y-423203D01*
D02*
G37*
G36*
X46736D02*
X44511Y-423495D01*
X42437Y-424354D01*
X40657Y-425721D01*
X39290Y-427501D01*
X38431Y-429575D01*
X38138Y-431800D01*
X38431Y-434025D01*
X39290Y-436099D01*
X40657Y-437879D01*
X42437Y-439246D01*
X44511Y-440105D01*
X46736Y-440397D01*
X48961Y-440105D01*
X51035Y-439246D01*
X52815Y-437879D01*
X54182Y-436099D01*
X55041Y-434025D01*
X55333Y-431800D01*
X55041Y-429575D01*
X54182Y-427501D01*
X52815Y-425721D01*
X51035Y-424354D01*
X48961Y-423495D01*
X46736Y-423203D01*
D02*
G37*
G36*
X21336D02*
X19111Y-423495D01*
X17037Y-424354D01*
X15257Y-425721D01*
X13890Y-427501D01*
X13031Y-429575D01*
X12738Y-431800D01*
X13031Y-434025D01*
X13890Y-436099D01*
X15257Y-437879D01*
X17037Y-439246D01*
X19111Y-440105D01*
X21336Y-440397D01*
X23561Y-440105D01*
X25635Y-439246D01*
X27415Y-437879D01*
X28782Y-436099D01*
X29641Y-434025D01*
X29934Y-431800D01*
X29641Y-429575D01*
X28782Y-427501D01*
X27415Y-425721D01*
X25635Y-424354D01*
X23561Y-423495D01*
X21336Y-423203D01*
D02*
G37*
G36*
X-4064D02*
X-6289Y-423495D01*
X-8363Y-424354D01*
X-10143Y-425721D01*
X-11510Y-427501D01*
X-12369Y-429575D01*
X-12661Y-431800D01*
X-12369Y-434025D01*
X-11510Y-436099D01*
X-10143Y-437879D01*
X-8363Y-439246D01*
X-6289Y-440105D01*
X-4064Y-440397D01*
X-1839Y-440105D01*
X235Y-439246D01*
X2015Y-437879D01*
X3382Y-436099D01*
X4241Y-434025D01*
X4534Y-431800D01*
X4241Y-429575D01*
X3382Y-427501D01*
X2015Y-425721D01*
X235Y-424354D01*
X-1839Y-423495D01*
X-4064Y-423203D01*
D02*
G37*
G36*
X-29464D02*
X-31689Y-423495D01*
X-33763Y-424354D01*
X-35543Y-425721D01*
X-36910Y-427501D01*
X-37769Y-429575D01*
X-38061Y-431800D01*
X-37769Y-434025D01*
X-36910Y-436099D01*
X-35543Y-437879D01*
X-33763Y-439246D01*
X-31689Y-440105D01*
X-29464Y-440397D01*
X-27239Y-440105D01*
X-25165Y-439246D01*
X-23385Y-437879D01*
X-22018Y-436099D01*
X-21159Y-434025D01*
X-20866Y-431800D01*
X-21159Y-429575D01*
X-22018Y-427501D01*
X-23385Y-425721D01*
X-25165Y-424354D01*
X-27239Y-423495D01*
X-29464Y-423203D01*
D02*
G37*
G36*
X-54864D02*
X-57089Y-423495D01*
X-59163Y-424354D01*
X-60943Y-425721D01*
X-62310Y-427501D01*
X-63169Y-429575D01*
X-63461Y-431800D01*
X-63169Y-434025D01*
X-62310Y-436099D01*
X-60943Y-437879D01*
X-59163Y-439246D01*
X-57089Y-440105D01*
X-54864Y-440397D01*
X-52639Y-440105D01*
X-50565Y-439246D01*
X-48785Y-437879D01*
X-47418Y-436099D01*
X-46559Y-434025D01*
X-46266Y-431800D01*
X-46559Y-429575D01*
X-47418Y-427501D01*
X-48785Y-425721D01*
X-50565Y-424354D01*
X-52639Y-423495D01*
X-54864Y-423203D01*
D02*
G37*
G36*
X-80264D02*
X-82489Y-423495D01*
X-84563Y-424354D01*
X-86343Y-425721D01*
X-87710Y-427501D01*
X-88569Y-429575D01*
X-88862Y-431800D01*
X-88569Y-434025D01*
X-87710Y-436099D01*
X-86343Y-437879D01*
X-84563Y-439246D01*
X-82489Y-440105D01*
X-80264Y-440397D01*
X-78039Y-440105D01*
X-75965Y-439246D01*
X-74185Y-437879D01*
X-72818Y-436099D01*
X-71959Y-434025D01*
X-71666Y-431800D01*
X-71959Y-429575D01*
X-72818Y-427501D01*
X-74185Y-425721D01*
X-75965Y-424354D01*
X-78039Y-423495D01*
X-80264Y-423203D01*
D02*
G37*
G36*
X-145542Y-435530D02*
X-147128Y-435846D01*
X-148472Y-436744D01*
X-149370Y-438088D01*
X-149686Y-439674D01*
X-149370Y-441260D01*
X-148472Y-442604D01*
X-147128Y-443502D01*
X-145542Y-443818D01*
X-143956Y-443502D01*
X-142612Y-442604D01*
X-141714Y-441260D01*
X-141398Y-439674D01*
X-141714Y-438088D01*
X-142612Y-436744D01*
X-143956Y-435846D01*
X-145542Y-435530D01*
D02*
G37*
G36*
X-161544Y-439340D02*
X-163130Y-439656D01*
X-164474Y-440554D01*
X-165372Y-441898D01*
X-165688Y-443484D01*
X-165372Y-445070D01*
X-164474Y-446414D01*
X-163130Y-447312D01*
X-161544Y-447628D01*
X-159958Y-447312D01*
X-158614Y-446414D01*
X-157716Y-445070D01*
X-157400Y-443484D01*
X-157716Y-441898D01*
X-158614Y-440554D01*
X-159958Y-439656D01*
X-161544Y-439340D01*
D02*
G37*
G36*
X153416Y-445944D02*
X151830Y-446260D01*
X150486Y-447158D01*
X149588Y-448502D01*
X149272Y-450088D01*
X149588Y-451674D01*
X150486Y-453018D01*
X151830Y-453916D01*
X153416Y-454232D01*
X155002Y-453916D01*
X156346Y-453018D01*
X157244Y-451674D01*
X157560Y-450088D01*
X157244Y-448502D01*
X156346Y-447158D01*
X155002Y-446260D01*
X153416Y-445944D01*
D02*
G37*
G36*
X-111888Y-442596D02*
X-130936D01*
Y-461644D01*
X-111888D01*
Y-442596D01*
D02*
G37*
G36*
X72136Y-448602D02*
X69911Y-448895D01*
X67837Y-449754D01*
X66057Y-451121D01*
X64690Y-452901D01*
X63831Y-454975D01*
X63538Y-457200D01*
X63831Y-459425D01*
X64690Y-461499D01*
X66057Y-463279D01*
X67837Y-464646D01*
X69911Y-465505D01*
X72136Y-465798D01*
X74361Y-465505D01*
X76435Y-464646D01*
X78215Y-463279D01*
X79582Y-461499D01*
X80441Y-459425D01*
X80733Y-457200D01*
X80441Y-454975D01*
X79582Y-452901D01*
X78215Y-451121D01*
X76435Y-449754D01*
X74361Y-448895D01*
X72136Y-448602D01*
D02*
G37*
G36*
X46736D02*
X44511Y-448895D01*
X42437Y-449754D01*
X40657Y-451121D01*
X39290Y-452901D01*
X38431Y-454975D01*
X38138Y-457200D01*
X38431Y-459425D01*
X39290Y-461499D01*
X40657Y-463279D01*
X42437Y-464646D01*
X44511Y-465505D01*
X46736Y-465798D01*
X48961Y-465505D01*
X51035Y-464646D01*
X52815Y-463279D01*
X54182Y-461499D01*
X55041Y-459425D01*
X55333Y-457200D01*
X55041Y-454975D01*
X54182Y-452901D01*
X52815Y-451121D01*
X51035Y-449754D01*
X48961Y-448895D01*
X46736Y-448602D01*
D02*
G37*
G36*
X21336D02*
X19111Y-448895D01*
X17037Y-449754D01*
X15257Y-451121D01*
X13890Y-452901D01*
X13031Y-454975D01*
X12738Y-457200D01*
X13031Y-459425D01*
X13890Y-461499D01*
X15257Y-463279D01*
X17037Y-464646D01*
X19111Y-465505D01*
X21336Y-465798D01*
X23561Y-465505D01*
X25635Y-464646D01*
X27415Y-463279D01*
X28782Y-461499D01*
X29641Y-459425D01*
X29934Y-457200D01*
X29641Y-454975D01*
X28782Y-452901D01*
X27415Y-451121D01*
X25635Y-449754D01*
X23561Y-448895D01*
X21336Y-448602D01*
D02*
G37*
G36*
X-4064D02*
X-6289Y-448895D01*
X-8363Y-449754D01*
X-10143Y-451121D01*
X-11510Y-452901D01*
X-12369Y-454975D01*
X-12661Y-457200D01*
X-12369Y-459425D01*
X-11510Y-461499D01*
X-10143Y-463279D01*
X-8363Y-464646D01*
X-6289Y-465505D01*
X-4064Y-465798D01*
X-1839Y-465505D01*
X235Y-464646D01*
X2015Y-463279D01*
X3382Y-461499D01*
X4241Y-459425D01*
X4534Y-457200D01*
X4241Y-454975D01*
X3382Y-452901D01*
X2015Y-451121D01*
X235Y-449754D01*
X-1839Y-448895D01*
X-4064Y-448602D01*
D02*
G37*
G36*
X-29464D02*
X-31689Y-448895D01*
X-33763Y-449754D01*
X-35543Y-451121D01*
X-36910Y-452901D01*
X-37769Y-454975D01*
X-38061Y-457200D01*
X-37769Y-459425D01*
X-36910Y-461499D01*
X-35543Y-463279D01*
X-33763Y-464646D01*
X-31689Y-465505D01*
X-29464Y-465798D01*
X-27239Y-465505D01*
X-25165Y-464646D01*
X-23385Y-463279D01*
X-22018Y-461499D01*
X-21159Y-459425D01*
X-20866Y-457200D01*
X-21159Y-454975D01*
X-22018Y-452901D01*
X-23385Y-451121D01*
X-25165Y-449754D01*
X-27239Y-448895D01*
X-29464Y-448602D01*
D02*
G37*
G36*
X-54864D02*
X-57089Y-448895D01*
X-59163Y-449754D01*
X-60943Y-451121D01*
X-62310Y-452901D01*
X-63169Y-454975D01*
X-63461Y-457200D01*
X-63169Y-459425D01*
X-62310Y-461499D01*
X-60943Y-463279D01*
X-59163Y-464646D01*
X-57089Y-465505D01*
X-54864Y-465798D01*
X-52639Y-465505D01*
X-50565Y-464646D01*
X-48785Y-463279D01*
X-47418Y-461499D01*
X-46559Y-459425D01*
X-46266Y-457200D01*
X-46559Y-454975D01*
X-47418Y-452901D01*
X-48785Y-451121D01*
X-50565Y-449754D01*
X-52639Y-448895D01*
X-54864Y-448602D01*
D02*
G37*
G36*
X-80264D02*
X-82489Y-448895D01*
X-84563Y-449754D01*
X-86343Y-451121D01*
X-87710Y-452901D01*
X-88569Y-454975D01*
X-88862Y-457200D01*
X-88569Y-459425D01*
X-87710Y-461499D01*
X-86343Y-463279D01*
X-84563Y-464646D01*
X-82489Y-465505D01*
X-80264Y-465798D01*
X-78039Y-465505D01*
X-75965Y-464646D01*
X-74185Y-463279D01*
X-72818Y-461499D01*
X-71959Y-459425D01*
X-71666Y-457200D01*
X-71959Y-454975D01*
X-72818Y-452901D01*
X-74185Y-451121D01*
X-75965Y-449754D01*
X-78039Y-448895D01*
X-80264Y-448602D01*
D02*
G37*
%LPD*%
D12*
X-154940Y-55880D02*
G03*
X-164940Y-55880I-5000J0D01*
G01*
X66501Y-180197D02*
G03*
X59430Y-173125I-3536J3536D01*
G01*
X248801Y299011D02*
G03*
X241730Y291940I-3536J-3536D01*
G01*
X198374Y113124D02*
G03*
X198374Y103124I0J-5000D01*
G01*
X48768Y-128270D02*
G03*
X48768Y-138270I0J-5000D01*
G01*
X176370Y121412D02*
G03*
X166370Y121412I-5000J0D01*
G01*
X-153147Y-16430D02*
G03*
X-146076Y-9359I3536J3536D01*
G01*
X-222297Y100363D02*
G03*
X-229368Y93292I-3536J-3536D01*
G01*
X-254915Y67804D02*
G03*
X-254915Y77804I0J5000D01*
G01*
X-174264Y307868D02*
G03*
X-181336Y314940I-3536J3536D01*
G01*
X-42164Y466598D02*
G03*
X-49235Y473669I-3536J3536D01*
G01*
X-151216Y277454D02*
G03*
X-144350Y270588I3433J-3433D01*
G01*
X308004Y380662D02*
G03*
X332652Y359489I12544J-10330D01*
G01*
X-207616Y-443945D02*
G03*
X-236516Y-429099I-14634J7065D01*
G01*
X49167Y-183388D02*
X59430Y-173125D01*
X-58928Y-183388D02*
X49167D01*
X-154940Y-87376D02*
Y-55880D01*
X53404Y-193294D02*
X66501Y-180196D01*
X-154940Y-87376D02*
X-58928Y-183388D01*
X-164940Y-91518D02*
X-63164Y-193294D01*
X53404D01*
X-164940Y-91518D02*
Y-55880D01*
X248801Y299011D02*
X334026Y213786D01*
X324026Y148176D02*
Y209644D01*
X198374Y103124D02*
X293116D01*
X198374Y113124D02*
X288974D01*
X241730Y291940D02*
X324026Y209644D01*
X334026Y144034D02*
Y213786D01*
X293116Y103124D02*
X334026Y144034D01*
X288974Y113124D02*
X324026Y148176D01*
X166370Y-51562D02*
Y121412D01*
X48768Y-128270D02*
X89662D01*
X48768Y-138270D02*
X93804D01*
X176370Y-55704D02*
Y121412D01*
X93804Y-138270D02*
X176370Y-55704D01*
X89662Y-128270D02*
X166370Y-51562D01*
X-212360Y76284D02*
X-190226Y54150D01*
X-229368Y93292D02*
X-212360Y76284D01*
X-222297Y100363D02*
X-202360Y80427D01*
X-179832Y24397D02*
Y57899D01*
Y24397D02*
X-146076Y-9359D01*
X-202360Y80427D02*
X-179832Y57899D01*
X-190226Y20649D02*
X-153147Y-16430D01*
X-190226Y20649D02*
Y54150D01*
X-195834Y258998D02*
Y300441D01*
X-278968Y77804D02*
X-254915D01*
X-295910Y93462D02*
Y144780D01*
X-305910Y89320D02*
Y148922D01*
Y89320D02*
X-285973Y69383D01*
X-284394Y67804D02*
X-282437D01*
X-283110D02*
X-254915D01*
X-285973Y69383D02*
X-284394Y67804D01*
X-185166Y296967D02*
X-174264Y307868D01*
X-305910Y148922D02*
X-195834Y258998D01*
X-280252Y77804D02*
X-278968D01*
X-185166Y255524D02*
Y296967D01*
X-295910Y93462D02*
X-280252Y77804D01*
X-295910Y144780D02*
X-185166Y255524D01*
X-195834Y300441D02*
X-181336Y314940D01*
X-144350Y270588D02*
X-52070Y362868D01*
X-151216Y277454D02*
X-62070Y366600D01*
X-52070Y362868D02*
Y456692D01*
X-62070Y366600D02*
Y460834D01*
X-52070Y456692D02*
X-42164Y466598D01*
X-62070Y460834D02*
X-49235Y473669D01*
X308004Y380662D02*
X320548Y370332D01*
X-236516Y-429099D02*
X-222250Y-436880D01*
X-207616Y-443945D01*
X320548Y370332D02*
X332652Y359489D01*
D16*
X489746Y0D02*
G03*
X489746Y0I-490000J0D01*
G01*
D156*
X-241618Y292153D02*
D03*
D158*
X1524Y470134D02*
D03*
D161*
X97536Y-457200D02*
D03*
D162*
X-21893Y93423D02*
D03*
D168*
X-326898Y105156D02*
D03*
X197358Y-74168D02*
D03*
X-326898Y113777D02*
D03*
Y122398D02*
D03*
X348488Y65688D02*
D03*
X355092Y59084D02*
D03*
X361696Y52480D02*
D03*
X357378Y67769D02*
D03*
X363982Y61165D02*
D03*
X370586Y54561D02*
D03*
X379476Y56642D02*
D03*
X372872Y63246D02*
D03*
X366268Y69850D02*
D03*
X359664Y76454D02*
D03*
X284226Y11256D02*
D03*
X233377Y-355673D02*
D03*
X238585Y-350465D02*
D03*
X228168D02*
D03*
X233377Y-345256D02*
D03*
X222960D02*
D03*
X228168Y-340048D02*
D03*
X-66802Y326009D02*
D03*
X69596Y402844D02*
D03*
X-6096Y436546D02*
D03*
Y423926D02*
D03*
X9652Y372110D02*
D03*
X-23448Y-221488D02*
D03*
X446160Y37335D02*
D03*
X-144038Y-183252D02*
D03*
X-153613Y-174596D02*
D03*
X-169418Y390398D02*
D03*
Y403352D02*
D03*
X-169164Y427228D02*
D03*
X-202692Y191262D02*
D03*
X-197358Y185674D02*
D03*
X-203708Y179578D02*
D03*
X1524Y383540D02*
D03*
X90252Y357653D02*
D03*
X79248Y357206D02*
D03*
X73375Y342738D02*
D03*
X61183Y331054D02*
D03*
X38960Y325476D02*
D03*
X29677Y316078D02*
D03*
X6837Y357206D02*
D03*
X-2286Y347726D02*
D03*
X-62992Y-329692D02*
D03*
X8128Y-311230D02*
D03*
X-46736Y-295402D02*
D03*
X-254762Y-396748D02*
D03*
X-111252Y-231140D02*
D03*
X31924Y-279654D02*
D03*
X65706Y-279400D02*
D03*
D169*
X386416Y-14994D02*
D03*
X395152Y-20138D02*
D03*
X405210Y-19779D02*
D03*
X-346456Y147692D02*
D03*
D170*
X-326766Y63288D02*
Y105156D01*
X284226Y9652D02*
X332994D01*
X-326766Y122398D02*
Y156088D01*
X-79502Y-205232D02*
X66294D01*
X-195152Y-89583D02*
X-79502Y-205232D01*
X66294D02*
X197104Y-74422D01*
X-326766Y113777D02*
Y122398D01*
Y105156D02*
Y113777D01*
X235712Y9652D02*
X284226D01*
X-195152Y-89583D02*
Y-68326D01*
X-326766Y63288D02*
X-195152Y-68326D01*
X203962Y-22098D02*
X235712Y9652D01*
X197358Y-74168D02*
X203962Y-67564D01*
Y-22098D01*
X-241046Y241808D02*
Y292153D01*
X-326766Y156088D02*
X-241046Y241808D01*
X332994Y9652D02*
X371348Y48006D01*
M02*
