G04*
G04 #@! TF.GenerationSoftware,Altium Limited,Altium Designer,20.1.14 (287)*
G04*
G04 Layer_Physical_Order=2*
G04 Layer_Color=36540*
%FSLAX44Y44*%
%MOMM*%
G71*
G04*
G04 #@! TF.SameCoordinates,26D83F00-FBC8-424C-8E9F-EDBCECB59CF3*
G04*
G04*
G04 #@! TF.FilePolarity,Positive*
G04*
G01*
G75*
%ADD12C,0.2000*%
%ADD16C,0.2540*%
%ADD145C,0.2032*%
%ADD158C,1.5240*%
%ADD159C,1.6500*%
%ADD160C,1.4000*%
%ADD164C,1.6000*%
%ADD167C,2.5000*%
%ADD168C,0.5080*%
%ADD169C,0.8128*%
G36*
X102552Y469432D02*
X107175Y467517D01*
X111334Y464737D01*
X113103Y462968D01*
X113103Y462968D01*
X159004Y417068D01*
X159004Y411226D01*
X57912Y310134D01*
X40894D01*
X33540Y317488D01*
X33505Y317664D01*
X32607Y319008D01*
X31263Y319907D01*
X31086Y319942D01*
X17526Y333502D01*
X-3774D01*
X-52542Y284734D01*
X-95422Y284734D01*
X-180833Y199323D01*
X-180399Y160469D01*
X-217932Y122936D01*
X-230378D01*
X-257516Y150073D01*
X-257516Y167173D01*
X-168656Y256032D01*
X-143510Y256032D01*
X-71920Y327622D01*
X-70749Y326997D01*
X-70946Y326009D01*
X-70630Y324423D01*
X-69732Y323079D01*
X-68388Y322181D01*
X-66802Y321865D01*
X-65216Y322181D01*
X-63872Y323079D01*
X-62974Y324423D01*
X-62658Y326009D01*
X-62974Y327595D01*
X-63872Y328939D01*
X-65216Y329837D01*
X-66802Y330153D01*
X-67790Y329956D01*
X-68415Y331127D01*
X-43688Y355854D01*
Y458216D01*
X-31496Y470408D01*
X-12192Y470408D01*
X-5547Y463763D01*
X-4820Y463104D01*
X-3190Y462015D01*
X-1379Y461265D01*
X544Y460882D01*
X1524Y460834D01*
X2504Y460882D01*
X4427Y461265D01*
X6238Y462015D01*
X7868Y463104D01*
X8595Y463763D01*
X13970Y469138D01*
X14272Y469440D01*
X14982Y469915D01*
X15771Y470241D01*
X16609Y470408D01*
X17036Y470408D01*
X17036Y470408D01*
X22098Y470408D01*
X90252Y470408D01*
X95143Y470408D01*
X97645Y470408D01*
X102552Y469432D01*
D02*
G37*
G36*
X-76435Y480075D02*
X-76435Y376955D01*
X-149352Y304038D01*
X-157226Y311912D01*
X-167521Y311912D01*
X-169307Y310126D01*
X-171000Y310230D01*
X-171150Y310409D01*
Y312399D01*
X-171276Y312702D01*
Y313030D01*
X-172037Y314867D01*
X-172269Y315100D01*
X-172395Y315403D01*
X-173801Y316809D01*
X-174104Y316935D01*
X-174336Y317167D01*
X-176174Y317928D01*
X-176502D01*
X-176805Y318054D01*
X-178795D01*
X-179098Y317928D01*
X-179426D01*
X-181264Y317167D01*
X-181496Y316935D01*
X-181799Y316809D01*
X-197000Y301607D01*
X-197484Y300441D01*
Y259681D01*
X-307076Y150089D01*
X-307560Y148922D01*
Y145830D01*
X-308610Y144780D01*
X-308610Y78740D01*
X-289052Y59182D01*
X-242885Y59182D01*
X-177292Y-6412D01*
X-177292Y-92202D01*
X-66802Y-202692D01*
X59260Y-202692D01*
X183896Y-78056D01*
X183896Y59182D01*
X197358Y72644D01*
X298704D01*
X350266Y124206D01*
Y275082D01*
X315722Y309626D01*
Y328168D01*
X329438Y341884D01*
X347002D01*
X359198Y329144D01*
X373213Y313163D01*
X386518Y296586D01*
X399087Y279444D01*
X410896Y261770D01*
X421923Y243598D01*
X432147Y224962D01*
X441549Y205898D01*
X450109Y186441D01*
X457813Y166630D01*
X464646Y146502D01*
X470594Y126095D01*
X475647Y105448D01*
X479793Y84600D01*
X483027Y63592D01*
X485341Y42462D01*
X486731Y21251D01*
X487195Y0D01*
X486731Y-21251D01*
X485341Y-42462D01*
X483027Y-63592D01*
X479793Y-84600D01*
X475647Y-105448D01*
X470594Y-126095D01*
X464646Y-146502D01*
X457813Y-166630D01*
X450109Y-186441D01*
X441549Y-205898D01*
X432147Y-224962D01*
X421923Y-243598D01*
X410896Y-261770D01*
X399087Y-279444D01*
X386518Y-296586D01*
X375465Y-310357D01*
X374197Y-310426D01*
X328440Y-264668D01*
X277528Y-315580D01*
X324226Y-362278D01*
X324184Y-363547D01*
X313163Y-373213D01*
X296586Y-386518D01*
X279444Y-399087D01*
X261770Y-410896D01*
X243598Y-421923D01*
X224962Y-432147D01*
X205898Y-441549D01*
X186441Y-450109D01*
X166630Y-457813D01*
X146502Y-464646D01*
X126095Y-470594D01*
X105448Y-475647D01*
X84600Y-479793D01*
X63592Y-483027D01*
X42462Y-485341D01*
X21251Y-486731D01*
X0Y-487195D01*
X-21251Y-486731D01*
X-42462Y-485341D01*
X-63592Y-483027D01*
X-84600Y-479793D01*
X-105448Y-475647D01*
X-126095Y-470594D01*
X-146502Y-464646D01*
X-166630Y-457813D01*
X-186441Y-450109D01*
X-196381Y-445736D01*
X-196246Y-445412D01*
X-195235Y-441199D01*
X-194895Y-436880D01*
X-195235Y-432561D01*
X-196246Y-428348D01*
X-197904Y-424346D01*
X-200168Y-420652D01*
X-202981Y-417357D01*
X-206276Y-414544D01*
X-209970Y-412280D01*
X-213972Y-410622D01*
X-218185Y-409611D01*
X-222504Y-409271D01*
X-226823Y-409611D01*
X-231036Y-410622D01*
X-235038Y-412280D01*
X-238732Y-414544D01*
X-242027Y-417357D01*
X-244840Y-420652D01*
X-245071Y-421029D01*
X-261770Y-410896D01*
X-279444Y-399087D01*
X-296586Y-386518D01*
X-313163Y-373213D01*
X-329144Y-359198D01*
X-344499Y-344499D01*
X-359198Y-329144D01*
X-373213Y-313163D01*
X-386518Y-296586D01*
X-399087Y-279444D01*
X-410896Y-261770D01*
X-421923Y-243598D01*
X-432147Y-224962D01*
X-441549Y-205898D01*
X-450109Y-186441D01*
X-457813Y-166630D01*
X-464646Y-146502D01*
X-470594Y-126095D01*
X-475647Y-105448D01*
X-479793Y-84600D01*
X-483027Y-63592D01*
X-485341Y-42462D01*
X-486731Y-21251D01*
X-487195Y0D01*
X-486731Y21251D01*
X-485341Y42462D01*
X-483027Y63592D01*
X-479793Y84600D01*
X-475647Y105448D01*
X-470594Y126095D01*
X-464646Y146502D01*
X-457813Y166630D01*
X-450109Y186441D01*
X-441549Y205898D01*
X-432147Y224962D01*
X-421923Y243598D01*
X-410896Y261770D01*
X-399087Y279444D01*
X-386518Y296586D01*
X-373213Y313163D01*
X-359198Y329144D01*
X-344499Y344499D01*
X-329144Y359198D01*
X-313163Y373213D01*
X-296586Y386518D01*
X-279444Y399087D01*
X-261770Y410896D01*
X-243598Y421923D01*
X-224962Y432147D01*
X-205898Y441549D01*
X-186441Y450109D01*
X-166630Y457813D01*
X-146502Y464646D01*
X-126095Y470594D01*
X-105448Y475647D01*
X-84600Y479793D01*
X-77399Y480902D01*
X-76435Y480075D01*
D02*
G37*
%LPC*%
G36*
X-6096Y440690D02*
X-7682Y440374D01*
X-9026Y439476D01*
X-9924Y438132D01*
X-10240Y436546D01*
X-9924Y434961D01*
X-9026Y433616D01*
X-7682Y432718D01*
X-6096Y432403D01*
X-4510Y432718D01*
X-3166Y433616D01*
X-2268Y434961D01*
X-1952Y436546D01*
X-2268Y438132D01*
X-3166Y439476D01*
X-4510Y440374D01*
X-6096Y440690D01*
D02*
G37*
G36*
Y428070D02*
X-7682Y427754D01*
X-9026Y426856D01*
X-9924Y425512D01*
X-10240Y423926D01*
X-9924Y422340D01*
X-9026Y420996D01*
X-7682Y420098D01*
X-6096Y419782D01*
X-4510Y420098D01*
X-3166Y420996D01*
X-2268Y422340D01*
X-1952Y423926D01*
X-2268Y425512D01*
X-3166Y426856D01*
X-4510Y427754D01*
X-6096Y428070D01*
D02*
G37*
G36*
X69596Y406988D02*
X68010Y406672D01*
X66666Y405774D01*
X65768Y404430D01*
X65452Y402844D01*
X65768Y401258D01*
X66666Y399914D01*
X68010Y399016D01*
X69596Y398700D01*
X71182Y399016D01*
X72526Y399914D01*
X73424Y401258D01*
X73740Y402844D01*
X73424Y404430D01*
X72526Y405774D01*
X71182Y406672D01*
X69596Y406988D01*
D02*
G37*
G36*
X1524Y387684D02*
X-62Y387368D01*
X-1406Y386470D01*
X-2304Y385126D01*
X-2620Y383540D01*
X-2304Y381954D01*
X-1406Y380610D01*
X-62Y379712D01*
X1524Y379396D01*
X3110Y379712D01*
X4454Y380610D01*
X5352Y381954D01*
X5668Y383540D01*
X5352Y385126D01*
X4454Y386470D01*
X3110Y387368D01*
X1524Y387684D01*
D02*
G37*
G36*
X9652Y376254D02*
X8066Y375938D01*
X6722Y375040D01*
X5824Y373696D01*
X5508Y372110D01*
X5824Y370524D01*
X6722Y369180D01*
X8066Y368282D01*
X9652Y367966D01*
X11238Y368282D01*
X12582Y369180D01*
X13480Y370524D01*
X13796Y372110D01*
X13480Y373696D01*
X12582Y375040D01*
X11238Y375938D01*
X9652Y376254D01*
D02*
G37*
G36*
X90252Y361796D02*
X88666Y361481D01*
X87322Y360583D01*
X86424Y359238D01*
X86108Y357653D01*
X86424Y356067D01*
X87322Y354723D01*
X88666Y353824D01*
X90252Y353509D01*
X91838Y353824D01*
X93182Y354723D01*
X94080Y356067D01*
X94396Y357653D01*
X94080Y359238D01*
X93182Y360583D01*
X91838Y361481D01*
X90252Y361796D01*
D02*
G37*
G36*
X79248Y361349D02*
X77662Y361034D01*
X76318Y360136D01*
X75420Y358792D01*
X75104Y357206D01*
X75420Y355620D01*
X76318Y354276D01*
X77662Y353378D01*
X79248Y353062D01*
X80834Y353378D01*
X82178Y354276D01*
X83076Y355620D01*
X83392Y357206D01*
X83076Y358792D01*
X82178Y360136D01*
X80834Y361034D01*
X79248Y361349D01*
D02*
G37*
G36*
X6837D02*
X5252Y361034D01*
X3907Y360136D01*
X3009Y358792D01*
X2694Y357206D01*
X3009Y355620D01*
X3907Y354276D01*
X5252Y353378D01*
X6837Y353062D01*
X8423Y353378D01*
X9768Y354276D01*
X10666Y355620D01*
X10981Y357206D01*
X10666Y358792D01*
X9768Y360136D01*
X8423Y361034D01*
X6837Y361349D01*
D02*
G37*
G36*
X-2286Y351870D02*
X-3872Y351554D01*
X-5216Y350656D01*
X-6114Y349312D01*
X-6430Y347726D01*
X-6114Y346140D01*
X-5216Y344796D01*
X-3872Y343898D01*
X-2286Y343582D01*
X-700Y343898D01*
X644Y344796D01*
X1542Y346140D01*
X1858Y347726D01*
X1542Y349312D01*
X644Y350656D01*
X-700Y351554D01*
X-2286Y351870D01*
D02*
G37*
G36*
X73375Y346882D02*
X71790Y346566D01*
X70445Y345668D01*
X69547Y344324D01*
X69232Y342738D01*
X69547Y341152D01*
X70445Y339808D01*
X71790Y338910D01*
X73375Y338595D01*
X74961Y338910D01*
X76305Y339808D01*
X77203Y341152D01*
X77519Y342738D01*
X77203Y344324D01*
X76305Y345668D01*
X74961Y346566D01*
X73375Y346882D01*
D02*
G37*
G36*
X61183Y335198D02*
X59598Y334882D01*
X58253Y333984D01*
X57355Y332640D01*
X57040Y331054D01*
X57355Y329468D01*
X58253Y328124D01*
X59598Y327226D01*
X61183Y326911D01*
X62769Y327226D01*
X64113Y328124D01*
X65012Y329468D01*
X65327Y331054D01*
X65012Y332640D01*
X64113Y333984D01*
X62769Y334882D01*
X61183Y335198D01*
D02*
G37*
G36*
X38960Y329620D02*
X37374Y329305D01*
X36030Y328406D01*
X35131Y327062D01*
X34816Y325476D01*
X35131Y323891D01*
X36030Y322546D01*
X37374Y321648D01*
X38960Y321333D01*
X40545Y321648D01*
X41890Y322546D01*
X42788Y323891D01*
X43103Y325476D01*
X42788Y327062D01*
X41890Y328406D01*
X40545Y329305D01*
X38960Y329620D01*
D02*
G37*
G36*
X-202692Y195406D02*
X-204278Y195090D01*
X-205622Y194192D01*
X-206520Y192848D01*
X-206836Y191262D01*
X-206520Y189676D01*
X-206080Y189017D01*
X-206069Y189001D01*
X-206985Y188086D01*
X-207027Y188114D01*
X-207964Y188740D01*
X-209550Y189056D01*
X-211136Y188740D01*
X-212480Y187842D01*
X-213378Y186498D01*
X-213694Y184912D01*
X-213378Y183326D01*
X-212480Y181982D01*
X-211136Y181084D01*
X-209550Y180768D01*
X-208883Y180901D01*
X-207803Y179821D01*
X-207852Y179578D01*
X-207536Y177992D01*
X-206638Y176648D01*
X-205294Y175750D01*
X-203708Y175434D01*
X-202122Y175750D01*
X-200778Y176648D01*
X-199880Y177992D01*
X-199564Y179578D01*
X-199829Y180910D01*
X-199183Y181593D01*
X-198814Y181820D01*
X-197358Y181530D01*
X-195772Y181846D01*
X-194428Y182744D01*
X-193530Y184088D01*
X-193214Y185674D01*
X-193530Y187260D01*
X-194428Y188604D01*
X-195772Y189502D01*
X-197358Y189818D01*
X-197548Y189780D01*
X-198628Y190860D01*
X-198548Y191262D01*
X-198864Y192848D01*
X-199762Y194192D01*
X-201106Y195090D01*
X-202692Y195406D01*
D02*
G37*
G36*
X-169164Y431372D02*
X-170750Y431056D01*
X-172094Y430158D01*
X-172992Y428814D01*
X-173308Y427228D01*
X-172992Y425642D01*
X-172094Y424298D01*
X-170750Y423400D01*
X-169164Y423084D01*
X-167578Y423400D01*
X-166234Y424298D01*
X-165336Y425642D01*
X-165020Y427228D01*
X-165336Y428814D01*
X-166234Y430158D01*
X-167578Y431056D01*
X-169164Y431372D01*
D02*
G37*
G36*
X-169418Y407496D02*
X-171004Y407180D01*
X-172348Y406282D01*
X-173246Y404938D01*
X-173562Y403352D01*
X-173246Y401766D01*
X-172348Y400422D01*
X-171004Y399524D01*
X-169418Y399208D01*
X-167832Y399524D01*
X-166488Y400422D01*
X-165590Y401766D01*
X-165274Y403352D01*
X-165590Y404938D01*
X-166488Y406282D01*
X-167832Y407180D01*
X-169418Y407496D01*
D02*
G37*
G36*
Y394542D02*
X-171004Y394226D01*
X-172348Y393328D01*
X-173246Y391984D01*
X-173562Y390398D01*
X-173246Y388812D01*
X-172348Y387468D01*
X-171004Y386570D01*
X-169418Y386254D01*
X-167832Y386570D01*
X-166488Y387468D01*
X-165590Y388812D01*
X-165274Y390398D01*
X-165590Y391984D01*
X-166488Y393328D01*
X-167832Y394226D01*
X-169418Y394542D01*
D02*
G37*
G36*
X-189822Y357795D02*
X-192765Y357407D01*
X-195508Y356271D01*
X-197863Y354464D01*
X-199670Y352109D01*
X-200806Y349366D01*
X-201194Y346423D01*
X-200806Y343480D01*
X-199670Y340738D01*
X-197863Y338383D01*
X-195388Y335908D01*
X-193033Y334101D01*
X-190290Y332965D01*
X-187347Y332577D01*
X-184404Y332965D01*
X-181662Y334101D01*
X-179307Y335908D01*
X-177500Y338263D01*
X-176364Y341006D01*
X-175976Y343949D01*
X-176364Y346892D01*
X-177500Y349634D01*
X-179307Y351989D01*
X-181782Y354464D01*
X-184137Y356271D01*
X-186879Y357407D01*
X-189822Y357795D01*
D02*
G37*
G36*
X-242855Y304762D02*
X-245798Y304374D01*
X-248541Y303238D01*
X-250896Y301431D01*
X-252703Y299076D01*
X-253839Y296334D01*
X-254226Y293390D01*
X-253839Y290447D01*
X-252703Y287705D01*
X-250896Y285350D01*
X-248421Y282875D01*
X-246066Y281068D01*
X-243323Y279932D01*
X-240380Y279544D01*
X-237437Y279932D01*
X-234695Y281068D01*
X-232340Y282875D01*
X-230532Y285230D01*
X-229396Y287973D01*
X-229009Y290916D01*
X-229396Y293859D01*
X-230532Y296601D01*
X-232340Y298956D01*
X-234814Y301431D01*
X-237170Y303238D01*
X-239912Y304374D01*
X-242855Y304762D01*
D02*
G37*
G36*
X371940Y230240D02*
X369388Y229904D01*
X367011Y228919D01*
X364969Y227353D01*
X363402Y225311D01*
X362417Y222933D01*
X362081Y220382D01*
X362417Y217830D01*
X363402Y215453D01*
X364969Y213411D01*
X367011Y211844D01*
X369388Y210859D01*
X371940Y210523D01*
X374491Y210859D01*
X376869Y211844D01*
X378911Y213411D01*
X380477Y215453D01*
X381462Y217830D01*
X381798Y220382D01*
X381462Y222933D01*
X380477Y225311D01*
X378911Y227353D01*
X376869Y228919D01*
X374491Y229904D01*
X371940Y230240D01*
D02*
G37*
G36*
X-346456Y153390D02*
X-348636Y152956D01*
X-350485Y151721D01*
X-351720Y149872D01*
X-352154Y147692D01*
X-351720Y145512D01*
X-350485Y143663D01*
X-348636Y142428D01*
X-346456Y141994D01*
X-344276Y142428D01*
X-342427Y143663D01*
X-341192Y145512D01*
X-340759Y147692D01*
X-341192Y149872D01*
X-342427Y151721D01*
X-344276Y152956D01*
X-346456Y153390D01*
D02*
G37*
G36*
X-326898Y126542D02*
X-328484Y126226D01*
X-329828Y125328D01*
X-330726Y123984D01*
X-331042Y122398D01*
X-330726Y120812D01*
X-329828Y119468D01*
X-328818Y118793D01*
X-328751Y118555D01*
Y117620D01*
X-328818Y117382D01*
X-329828Y116707D01*
X-330726Y115363D01*
X-331042Y113777D01*
X-330726Y112191D01*
X-329828Y110847D01*
X-328818Y110172D01*
X-328751Y109934D01*
Y108999D01*
X-328818Y108761D01*
X-329828Y108086D01*
X-330726Y106742D01*
X-331042Y105156D01*
X-330726Y103570D01*
X-329828Y102226D01*
X-328484Y101328D01*
X-326898Y101012D01*
X-325312Y101328D01*
X-323968Y102226D01*
X-323070Y103570D01*
X-322754Y105156D01*
X-323070Y106742D01*
X-323968Y108086D01*
X-324978Y108761D01*
X-325045Y108999D01*
Y109934D01*
X-324978Y110172D01*
X-323968Y110847D01*
X-323070Y112191D01*
X-322754Y113777D01*
X-323070Y115363D01*
X-323968Y116707D01*
X-324978Y117382D01*
X-325045Y117620D01*
Y118555D01*
X-324978Y118793D01*
X-323968Y119468D01*
X-323070Y120812D01*
X-322754Y122398D01*
X-323070Y123984D01*
X-323968Y125328D01*
X-325312Y126226D01*
X-326898Y126542D01*
D02*
G37*
G36*
X-356108Y108030D02*
X-357694Y107714D01*
X-359038Y106816D01*
X-359936Y105472D01*
X-360252Y103886D01*
X-359936Y102300D01*
X-359038Y100956D01*
X-357694Y100058D01*
X-356108Y99742D01*
X-354522Y100058D01*
X-353178Y100956D01*
X-352280Y102300D01*
X-351964Y103886D01*
X-352280Y105472D01*
X-353178Y106816D01*
X-354522Y107714D01*
X-356108Y108030D01*
D02*
G37*
G36*
X359664Y80598D02*
X358078Y80282D01*
X356734Y79384D01*
X355836Y78040D01*
X355520Y76454D01*
X355836Y74868D01*
X356734Y73524D01*
X357346Y73115D01*
X356979Y71833D01*
X355792Y71597D01*
X354448Y70699D01*
X353550Y69355D01*
X353298Y68090D01*
X352238Y67719D01*
X352026Y67708D01*
X351418Y68618D01*
X350074Y69516D01*
X348488Y69832D01*
X346902Y69516D01*
X345558Y68618D01*
X344660Y67274D01*
X344344Y65688D01*
X344660Y64102D01*
X345558Y62758D01*
X346902Y61860D01*
X348488Y61544D01*
X350074Y61860D01*
X350862Y62386D01*
X350901Y62412D01*
X351816Y61497D01*
X351790Y61458D01*
X351264Y60670D01*
X350948Y59084D01*
X351264Y57498D01*
X352162Y56154D01*
X353506Y55256D01*
X355092Y54940D01*
X356678Y55256D01*
X357466Y55782D01*
X357505Y55808D01*
X358420Y54893D01*
X358394Y54854D01*
X357868Y54066D01*
X357552Y52480D01*
X357868Y50894D01*
X358766Y49550D01*
X360110Y48652D01*
X361696Y48336D01*
X363282Y48652D01*
X364626Y49550D01*
X365524Y50894D01*
X365776Y52159D01*
X366836Y52530D01*
X367048Y52541D01*
X367656Y51631D01*
X369000Y50733D01*
X370586Y50417D01*
X372172Y50733D01*
X373516Y51631D01*
X374414Y52975D01*
X374666Y54240D01*
X375726Y54611D01*
X375938Y54622D01*
X376546Y53712D01*
X377890Y52814D01*
X379476Y52498D01*
X381062Y52814D01*
X382406Y53712D01*
X383304Y55056D01*
X383620Y56642D01*
X383304Y58228D01*
X382406Y59572D01*
X381062Y60470D01*
X379476Y60786D01*
X377890Y60470D01*
X377102Y59944D01*
X377063Y59918D01*
X376148Y60833D01*
X376174Y60872D01*
X376700Y61660D01*
X377016Y63246D01*
X376700Y64832D01*
X375802Y66176D01*
X374458Y67074D01*
X372872Y67390D01*
X371286Y67074D01*
X370498Y66548D01*
X370459Y66522D01*
X369544Y67437D01*
X369570Y67476D01*
X370096Y68264D01*
X370412Y69850D01*
X370096Y71436D01*
X369198Y72780D01*
X367854Y73678D01*
X366268Y73994D01*
X364682Y73678D01*
X363894Y73152D01*
X363855Y73126D01*
X362940Y74041D01*
X362966Y74080D01*
X363492Y74868D01*
X363808Y76454D01*
X363492Y78040D01*
X362594Y79384D01*
X361250Y80282D01*
X359664Y80598D01*
D02*
G37*
G36*
X325488Y59516D02*
X323902Y59200D01*
X322557Y58302D01*
X321659Y56958D01*
X321344Y55372D01*
X321659Y53786D01*
X322557Y52442D01*
X323902Y51544D01*
X325488Y51228D01*
X327073Y51544D01*
X328418Y52442D01*
X329316Y53786D01*
X329631Y55372D01*
X329316Y56958D01*
X328418Y58302D01*
X327073Y59200D01*
X325488Y59516D01*
D02*
G37*
G36*
X282137Y68595D02*
X279586Y68260D01*
X277208Y67275D01*
X275166Y65708D01*
X273600Y63666D01*
X272615Y61289D01*
X272279Y58737D01*
X272615Y56186D01*
X273600Y53808D01*
X275166Y51766D01*
X277208Y50200D01*
X279586Y49215D01*
X282137Y48879D01*
X284689Y49215D01*
X287066Y50200D01*
X289108Y51766D01*
X290675Y53808D01*
X291660Y56186D01*
X291996Y58737D01*
X291660Y61289D01*
X290675Y63666D01*
X289108Y65708D01*
X287066Y67275D01*
X284689Y68260D01*
X282137Y68595D01*
D02*
G37*
G36*
X311499Y45546D02*
X309913Y45230D01*
X308569Y44332D01*
X307670Y42988D01*
X307355Y41402D01*
X307670Y39816D01*
X308569Y38472D01*
X309913Y37574D01*
X311499Y37258D01*
X313084Y37574D01*
X314429Y38472D01*
X315327Y39816D01*
X315642Y41402D01*
X315327Y42988D01*
X314429Y44332D01*
X313084Y45230D01*
X311499Y45546D01*
D02*
G37*
G36*
X418501Y43634D02*
X416915Y43319D01*
X415570Y42421D01*
X414672Y41076D01*
X414357Y39491D01*
X414672Y37905D01*
X415570Y36561D01*
X416915Y35663D01*
X418501Y35347D01*
X420086Y35663D01*
X421431Y36561D01*
X422329Y37905D01*
X422644Y39491D01*
X422329Y41076D01*
X421431Y42421D01*
X420086Y43319D01*
X418501Y43634D01*
D02*
G37*
G36*
X446160Y41479D02*
X444574Y41164D01*
X443230Y40265D01*
X442331Y38921D01*
X442016Y37335D01*
X442331Y35750D01*
X443230Y34405D01*
X444574Y33507D01*
X446160Y33192D01*
X447745Y33507D01*
X449090Y34405D01*
X449988Y35750D01*
X450303Y37335D01*
X449988Y38921D01*
X449090Y40265D01*
X447745Y41164D01*
X446160Y41479D01*
D02*
G37*
G36*
X-380333Y33100D02*
X-381918Y32784D01*
X-383263Y31886D01*
X-384161Y30542D01*
X-384476Y28956D01*
X-384161Y27370D01*
X-383263Y26026D01*
X-381918Y25128D01*
X-380333Y24812D01*
X-378747Y25128D01*
X-377403Y26026D01*
X-376505Y27370D01*
X-376189Y28956D01*
X-376505Y30542D01*
X-377403Y31886D01*
X-378747Y32784D01*
X-380333Y33100D01*
D02*
G37*
G36*
X-245700Y52145D02*
X-249361Y51663D01*
X-252773Y50250D01*
X-255702Y48002D01*
X-257950Y45072D01*
X-259363Y41661D01*
X-259845Y38000D01*
X-259363Y34339D01*
X-257950Y30928D01*
X-255702Y27998D01*
X-252773Y25750D01*
X-249361Y24337D01*
X-245700Y23855D01*
X-242039Y24337D01*
X-238627Y25750D01*
X-235698Y27998D01*
X-233450Y30928D01*
X-232037Y34339D01*
X-231555Y38000D01*
X-232037Y41661D01*
X-233450Y45072D01*
X-235698Y48002D01*
X-238627Y50250D01*
X-242039Y51663D01*
X-245700Y52145D01*
D02*
G37*
G36*
X295402Y29544D02*
X293816Y29228D01*
X292472Y28330D01*
X291574Y26986D01*
X291258Y25400D01*
X291574Y23814D01*
X292472Y22470D01*
X293816Y21572D01*
X295402Y21256D01*
X296988Y21572D01*
X298332Y22470D01*
X299230Y23814D01*
X299546Y25400D01*
X299230Y26986D01*
X298332Y28330D01*
X296988Y29228D01*
X295402Y29544D01*
D02*
G37*
G36*
X-354584Y22178D02*
X-356170Y21862D01*
X-357514Y20964D01*
X-358412Y19620D01*
X-358728Y18034D01*
X-358412Y16448D01*
X-357514Y15104D01*
X-356170Y14206D01*
X-354584Y13890D01*
X-352998Y14206D01*
X-351654Y15104D01*
X-350756Y16448D01*
X-350440Y18034D01*
X-350756Y19620D01*
X-351654Y20964D01*
X-352998Y21862D01*
X-354584Y22178D01*
D02*
G37*
G36*
X284226Y15400D02*
X282640Y15084D01*
X281296Y14186D01*
X280398Y12842D01*
X280082Y11256D01*
X280398Y9670D01*
X281296Y8326D01*
X282640Y7428D01*
X284226Y7112D01*
X285812Y7428D01*
X287156Y8326D01*
X288054Y9670D01*
X288370Y11256D01*
X288054Y12842D01*
X287156Y14186D01*
X285812Y15084D01*
X284226Y15400D01*
D02*
G37*
G36*
X386416Y-9297D02*
X384235Y-9730D01*
X382387Y-10965D01*
X381152Y-12814D01*
X380718Y-14994D01*
X381152Y-17175D01*
X382387Y-19023D01*
X384235Y-20258D01*
X386416Y-20692D01*
X388294Y-20318D01*
X388610Y-20269D01*
X389643Y-21086D01*
X389888Y-22318D01*
X391123Y-24167D01*
X392971Y-25402D01*
X395152Y-25836D01*
X397332Y-25402D01*
X399180Y-24167D01*
X399666Y-23441D01*
X400936D01*
X401181Y-23808D01*
X403029Y-25043D01*
X405210Y-25477D01*
X407390Y-25043D01*
X409238Y-23808D01*
X410473Y-21959D01*
X410907Y-19779D01*
X410473Y-17599D01*
X409238Y-15750D01*
X407390Y-14515D01*
X405210Y-14081D01*
X403029Y-14515D01*
X401181Y-15750D01*
X400696Y-16477D01*
X399426D01*
X399180Y-16109D01*
X397332Y-14874D01*
X395152Y-14441D01*
X393274Y-14814D01*
X392957Y-14863D01*
X391925Y-14046D01*
X391679Y-12814D01*
X390444Y-10965D01*
X388596Y-9730D01*
X386416Y-9297D01*
D02*
G37*
G36*
X-196800Y-14155D02*
X-200461Y-14637D01*
X-203873Y-16050D01*
X-206802Y-18298D01*
X-209050Y-21228D01*
X-210463Y-24639D01*
X-210945Y-28300D01*
X-210463Y-31961D01*
X-209050Y-35373D01*
X-206802Y-38302D01*
X-203873Y-40550D01*
X-200461Y-41963D01*
X-196800Y-42445D01*
X-193139Y-41963D01*
X-189727Y-40550D01*
X-186798Y-38302D01*
X-184550Y-35373D01*
X-183137Y-31961D01*
X-182655Y-28300D01*
X-183137Y-24639D01*
X-184550Y-21228D01*
X-186798Y-18298D01*
X-189727Y-16050D01*
X-193139Y-14637D01*
X-196800Y-14155D01*
D02*
G37*
G36*
X245700Y-23855D02*
X242039Y-24337D01*
X238627Y-25750D01*
X235698Y-27998D01*
X233450Y-30928D01*
X232037Y-34339D01*
X231555Y-38000D01*
X232037Y-41661D01*
X233450Y-45072D01*
X235698Y-48002D01*
X238627Y-50250D01*
X242039Y-51663D01*
X245700Y-52145D01*
X249361Y-51663D01*
X252773Y-50250D01*
X255702Y-48002D01*
X257950Y-45072D01*
X259363Y-41661D01*
X259845Y-38000D01*
X259363Y-34339D01*
X257950Y-30928D01*
X255702Y-27998D01*
X252773Y-25750D01*
X249361Y-24337D01*
X245700Y-23855D01*
D02*
G37*
G36*
X197358Y-70024D02*
X195772Y-70340D01*
X194428Y-71238D01*
X193530Y-72582D01*
X193214Y-74168D01*
X193530Y-75754D01*
X194428Y-77098D01*
X195772Y-77996D01*
X197358Y-78312D01*
X198944Y-77996D01*
X200288Y-77098D01*
X201186Y-75754D01*
X201502Y-74168D01*
X201186Y-72582D01*
X200288Y-71238D01*
X198944Y-70340D01*
X197358Y-70024D01*
D02*
G37*
G36*
X-219456Y-70278D02*
X-221042Y-70594D01*
X-222386Y-71492D01*
X-223284Y-72836D01*
X-223600Y-74422D01*
X-223284Y-76008D01*
X-222386Y-77352D01*
X-221042Y-78250D01*
X-219456Y-78566D01*
X-217870Y-78250D01*
X-216526Y-77352D01*
X-215628Y-76008D01*
X-215312Y-74422D01*
X-215628Y-72836D01*
X-216526Y-71492D01*
X-217870Y-70594D01*
X-219456Y-70278D01*
D02*
G37*
G36*
X-250190Y-34113D02*
X-254509Y-34453D01*
X-258722Y-35464D01*
X-262724Y-37122D01*
X-266418Y-39386D01*
X-269713Y-42199D01*
X-272526Y-45494D01*
X-274790Y-49188D01*
X-276448Y-53190D01*
X-277459Y-57403D01*
X-277799Y-61722D01*
X-277459Y-66041D01*
X-276448Y-70254D01*
X-274790Y-74256D01*
X-272526Y-77950D01*
X-269713Y-81245D01*
X-266418Y-84058D01*
X-262724Y-86322D01*
X-258722Y-87980D01*
X-254509Y-88991D01*
X-250190Y-89331D01*
X-245871Y-88991D01*
X-241658Y-87980D01*
X-237656Y-86322D01*
X-233962Y-84058D01*
X-230667Y-81245D01*
X-227854Y-77950D01*
X-225590Y-74256D01*
X-223932Y-70254D01*
X-222921Y-66041D01*
X-222581Y-61722D01*
X-222921Y-57403D01*
X-223932Y-53190D01*
X-225590Y-49188D01*
X-227854Y-45494D01*
X-230667Y-42199D01*
X-233962Y-39386D01*
X-237656Y-37122D01*
X-241658Y-35464D01*
X-245871Y-34453D01*
X-250190Y-34113D01*
D02*
G37*
G36*
X-417606Y-123110D02*
X-419192Y-123426D01*
X-420536Y-124324D01*
X-421434Y-125668D01*
X-421750Y-127254D01*
X-421434Y-128840D01*
X-420536Y-130184D01*
X-419192Y-131082D01*
X-417606Y-131398D01*
X-416020Y-131082D01*
X-414676Y-130184D01*
X-413778Y-128840D01*
X-413462Y-127254D01*
X-413778Y-125668D01*
X-414676Y-124324D01*
X-416020Y-123426D01*
X-417606Y-123110D01*
D02*
G37*
G36*
X-407670Y-129813D02*
X-409256Y-130129D01*
X-410600Y-131027D01*
X-411498Y-132371D01*
X-411814Y-133957D01*
X-411498Y-135543D01*
X-410600Y-136887D01*
X-409256Y-137785D01*
X-407670Y-138101D01*
X-406084Y-137785D01*
X-404740Y-136887D01*
X-403842Y-135543D01*
X-403526Y-133957D01*
X-403842Y-132371D01*
X-404740Y-131027D01*
X-406084Y-130129D01*
X-407670Y-129813D01*
D02*
G37*
G36*
X-399926Y-135793D02*
X-401511Y-136109D01*
X-402856Y-137007D01*
X-403754Y-138351D01*
X-404069Y-139937D01*
X-403754Y-141522D01*
X-402856Y-142867D01*
X-401511Y-143765D01*
X-399926Y-144080D01*
X-398340Y-143765D01*
X-396996Y-142867D01*
X-396097Y-141522D01*
X-395782Y-139937D01*
X-396097Y-138351D01*
X-396996Y-137007D01*
X-398340Y-136109D01*
X-399926Y-135793D01*
D02*
G37*
G36*
X-392176Y-142414D02*
X-393762Y-142730D01*
X-395106Y-143628D01*
X-396004Y-144972D01*
X-396320Y-146558D01*
X-396004Y-148144D01*
X-395106Y-149488D01*
X-393762Y-150386D01*
X-392176Y-150702D01*
X-390590Y-150386D01*
X-389246Y-149488D01*
X-388348Y-148144D01*
X-388032Y-146558D01*
X-388348Y-144972D01*
X-389246Y-143628D01*
X-390590Y-142730D01*
X-392176Y-142414D01*
D02*
G37*
G36*
X178308Y-149526D02*
X176722Y-149842D01*
X175378Y-150740D01*
X174480Y-152084D01*
X174164Y-153670D01*
X174480Y-155256D01*
X175378Y-156600D01*
X176722Y-157498D01*
X178308Y-157814D01*
X179894Y-157498D01*
X181238Y-156600D01*
X182136Y-155256D01*
X182452Y-153670D01*
X182136Y-152084D01*
X181238Y-150740D01*
X179894Y-149842D01*
X178308Y-149526D01*
D02*
G37*
G36*
X152654Y-164512D02*
X151068Y-164828D01*
X149724Y-165726D01*
X148826Y-167070D01*
X148510Y-168656D01*
X148826Y-170242D01*
X149724Y-171586D01*
X151068Y-172484D01*
X152654Y-172800D01*
X154240Y-172484D01*
X155584Y-171586D01*
X156482Y-170242D01*
X156798Y-168656D01*
X156482Y-167070D01*
X155584Y-165726D01*
X154240Y-164828D01*
X152654Y-164512D01*
D02*
G37*
G36*
X-153613Y-170452D02*
X-155199Y-170767D01*
X-156543Y-171666D01*
X-157442Y-173010D01*
X-157757Y-174596D01*
X-157442Y-176181D01*
X-156543Y-177526D01*
X-155199Y-178424D01*
X-153613Y-178739D01*
X-152028Y-178424D01*
X-150683Y-177526D01*
X-149785Y-176181D01*
X-149470Y-174596D01*
X-149785Y-173010D01*
X-150683Y-171666D01*
X-152028Y-170767D01*
X-153613Y-170452D01*
D02*
G37*
G36*
X128016Y-170862D02*
X126430Y-171178D01*
X125086Y-172076D01*
X124188Y-173420D01*
X123872Y-175006D01*
X124188Y-176592D01*
X125086Y-177936D01*
X126430Y-178834D01*
X128016Y-179150D01*
X129602Y-178834D01*
X130946Y-177936D01*
X131844Y-176592D01*
X132160Y-175006D01*
X131844Y-173420D01*
X130946Y-172076D01*
X129602Y-171178D01*
X128016Y-170862D01*
D02*
G37*
G36*
X-135133Y-173148D02*
X-136719Y-173464D01*
X-138063Y-174362D01*
X-138962Y-175706D01*
X-139277Y-177292D01*
X-138962Y-178878D01*
X-138063Y-180222D01*
X-136719Y-181120D01*
X-135133Y-181436D01*
X-133548Y-181120D01*
X-132203Y-180222D01*
X-131305Y-178878D01*
X-130990Y-177292D01*
X-131305Y-175706D01*
X-132203Y-174362D01*
X-133548Y-173464D01*
X-135133Y-173148D01*
D02*
G37*
G36*
X-144038Y-179109D02*
X-145624Y-179424D01*
X-146968Y-180322D01*
X-147867Y-181667D01*
X-148182Y-183252D01*
X-147867Y-184838D01*
X-146968Y-186182D01*
X-145624Y-187080D01*
X-144038Y-187396D01*
X-142453Y-187080D01*
X-141109Y-186182D01*
X-140210Y-184838D01*
X-139895Y-183252D01*
X-140210Y-181667D01*
X-141109Y-180322D01*
X-142453Y-179424D01*
X-144038Y-179109D01*
D02*
G37*
G36*
X-135128Y-197532D02*
X-136714Y-197848D01*
X-138058Y-198746D01*
X-138956Y-200090D01*
X-139272Y-201676D01*
X-138956Y-203262D01*
X-138058Y-204606D01*
X-136714Y-205504D01*
X-135128Y-205820D01*
X-133542Y-205504D01*
X-132198Y-204606D01*
X-131300Y-203262D01*
X-130984Y-201676D01*
X-131300Y-200090D01*
X-132198Y-198746D01*
X-133542Y-197848D01*
X-135128Y-197532D01*
D02*
G37*
G36*
X-141631Y-207004D02*
X-143217Y-207319D01*
X-144561Y-208217D01*
X-145460Y-209562D01*
X-145775Y-211147D01*
X-145460Y-212733D01*
X-144561Y-214077D01*
X-143217Y-214976D01*
X-141631Y-215291D01*
X-140046Y-214976D01*
X-138701Y-214077D01*
X-137803Y-212733D01*
X-137488Y-211147D01*
X-137803Y-209562D01*
X-138701Y-208217D01*
X-140046Y-207319D01*
X-141631Y-207004D01*
D02*
G37*
G36*
X-98806Y-215312D02*
X-100392Y-215628D01*
X-101736Y-216526D01*
X-102634Y-217870D01*
X-102950Y-219456D01*
X-102634Y-221042D01*
X-101736Y-222386D01*
X-100392Y-223284D01*
X-98806Y-223600D01*
X-97220Y-223284D01*
X-95876Y-222386D01*
X-94978Y-221042D01*
X-94662Y-219456D01*
X-94978Y-217870D01*
X-95876Y-216526D01*
X-97220Y-215628D01*
X-98806Y-215312D01*
D02*
G37*
G36*
X-23448Y-217344D02*
X-25034Y-217660D01*
X-26378Y-218558D01*
X-27276Y-219902D01*
X-27592Y-221488D01*
X-27276Y-223074D01*
X-26378Y-224418D01*
X-25034Y-225316D01*
X-23448Y-225632D01*
X-21862Y-225316D01*
X-20518Y-224418D01*
X-19620Y-223074D01*
X-19304Y-221488D01*
X-19620Y-219902D01*
X-20518Y-218558D01*
X-21862Y-217660D01*
X-23448Y-217344D01*
D02*
G37*
G36*
X159004Y-179147D02*
X154685Y-179487D01*
X150472Y-180498D01*
X146470Y-182156D01*
X142776Y-184420D01*
X139481Y-187233D01*
X136668Y-190528D01*
X134404Y-194222D01*
X132746Y-198224D01*
X131735Y-202437D01*
X131395Y-206756D01*
X131735Y-211075D01*
X132746Y-215288D01*
X134404Y-219290D01*
X136668Y-222984D01*
X139481Y-226279D01*
X142776Y-229092D01*
X146470Y-231356D01*
X150472Y-233014D01*
X154685Y-234025D01*
X159004Y-234365D01*
X163323Y-234025D01*
X167536Y-233014D01*
X171538Y-231356D01*
X175232Y-229092D01*
X178527Y-226279D01*
X181340Y-222984D01*
X183604Y-219290D01*
X185262Y-215288D01*
X186273Y-211075D01*
X186613Y-206756D01*
X186273Y-202437D01*
X185262Y-198224D01*
X183604Y-194222D01*
X181340Y-190528D01*
X178527Y-187233D01*
X175232Y-184420D01*
X171538Y-182156D01*
X167536Y-180498D01*
X163323Y-179487D01*
X159004Y-179147D01*
D02*
G37*
G36*
X-111252Y-226996D02*
X-112838Y-227312D01*
X-114182Y-228210D01*
X-115080Y-229554D01*
X-115396Y-231140D01*
X-115080Y-232726D01*
X-114182Y-234070D01*
X-112838Y-234968D01*
X-111252Y-235284D01*
X-109666Y-234968D01*
X-108322Y-234070D01*
X-107424Y-232726D01*
X-107108Y-231140D01*
X-107424Y-229554D01*
X-108322Y-228210D01*
X-109666Y-227312D01*
X-111252Y-226996D01*
D02*
G37*
G36*
X-107264Y-237664D02*
X-108850Y-237980D01*
X-110194Y-238878D01*
X-111093Y-240222D01*
X-111408Y-241808D01*
X-111093Y-243394D01*
X-110194Y-244738D01*
X-108850Y-245636D01*
X-107264Y-245952D01*
X-105679Y-245636D01*
X-104334Y-244738D01*
X-103436Y-243394D01*
X-103121Y-241808D01*
X-103436Y-240222D01*
X-104334Y-238878D01*
X-105679Y-237980D01*
X-107264Y-237664D01*
D02*
G37*
G36*
X-83820Y-239696D02*
X-85406Y-240012D01*
X-86750Y-240910D01*
X-87648Y-242254D01*
X-87964Y-243840D01*
X-87648Y-245426D01*
X-86750Y-246770D01*
X-85406Y-247668D01*
X-83820Y-247984D01*
X-82234Y-247668D01*
X-80890Y-246770D01*
X-79992Y-245426D01*
X-79676Y-243840D01*
X-79992Y-242254D01*
X-80890Y-240910D01*
X-82234Y-240012D01*
X-83820Y-239696D01*
D02*
G37*
G36*
X-163198Y-250110D02*
X-164784Y-250426D01*
X-166128Y-251324D01*
X-167026Y-252668D01*
X-167342Y-254254D01*
X-167026Y-255840D01*
X-166128Y-257184D01*
X-164784Y-258082D01*
X-163198Y-258398D01*
X-161612Y-258082D01*
X-160268Y-257184D01*
X-159370Y-255840D01*
X-159054Y-254254D01*
X-159370Y-252668D01*
X-160268Y-251324D01*
X-161612Y-250426D01*
X-163198Y-250110D01*
D02*
G37*
G36*
X-145221Y-251888D02*
X-146807Y-252204D01*
X-148151Y-253102D01*
X-149049Y-254446D01*
X-149365Y-256032D01*
X-149049Y-257618D01*
X-148151Y-258962D01*
X-146807Y-259860D01*
X-145221Y-260176D01*
X-143635Y-259860D01*
X-142291Y-258962D01*
X-141393Y-257618D01*
X-141077Y-256032D01*
X-141393Y-254446D01*
X-142291Y-253102D01*
X-143635Y-252204D01*
X-145221Y-251888D01*
D02*
G37*
G36*
X10922Y-255190D02*
X9336Y-255506D01*
X7992Y-256404D01*
X7094Y-257748D01*
X6778Y-259334D01*
X7094Y-260920D01*
X7992Y-262264D01*
X9336Y-263162D01*
X10922Y-263478D01*
X12508Y-263162D01*
X13852Y-262264D01*
X14750Y-260920D01*
X15066Y-259334D01*
X14750Y-257748D01*
X13852Y-256404D01*
X12508Y-255506D01*
X10922Y-255190D01*
D02*
G37*
G36*
X-94996Y-260016D02*
X-96582Y-260332D01*
X-97926Y-261230D01*
X-98824Y-262574D01*
X-99140Y-264160D01*
X-98824Y-265746D01*
X-97926Y-267090D01*
X-96582Y-267988D01*
X-94996Y-268304D01*
X-93410Y-267988D01*
X-92066Y-267090D01*
X-91168Y-265746D01*
X-90852Y-264160D01*
X-91168Y-262574D01*
X-92066Y-261230D01*
X-93410Y-260332D01*
X-94996Y-260016D01*
D02*
G37*
G36*
X-136257Y-260885D02*
X-137843Y-261201D01*
X-139187Y-262099D01*
X-140085Y-263443D01*
X-140401Y-265029D01*
X-140085Y-266615D01*
X-139187Y-267959D01*
X-137843Y-268857D01*
X-136257Y-269173D01*
X-134672Y-268857D01*
X-133327Y-267959D01*
X-132429Y-266615D01*
X-132114Y-265029D01*
X-132429Y-263443D01*
X-133327Y-262099D01*
X-134672Y-261201D01*
X-136257Y-260885D01*
D02*
G37*
G36*
X-175006Y-262048D02*
X-176592Y-262364D01*
X-177936Y-263262D01*
X-178834Y-264606D01*
X-179150Y-266192D01*
X-178834Y-267778D01*
X-177936Y-269122D01*
X-176592Y-270020D01*
X-175006Y-270336D01*
X-173420Y-270020D01*
X-172076Y-269122D01*
X-171178Y-267778D01*
X-170862Y-266192D01*
X-171178Y-264606D01*
X-172076Y-263262D01*
X-173420Y-262364D01*
X-175006Y-262048D01*
D02*
G37*
G36*
X-13716Y-264334D02*
X-15302Y-264650D01*
X-16646Y-265548D01*
X-17544Y-266892D01*
X-17860Y-268478D01*
X-17544Y-270064D01*
X-16646Y-271408D01*
X-15302Y-272306D01*
X-13716Y-272622D01*
X-12130Y-272306D01*
X-10786Y-271408D01*
X-9888Y-270064D01*
X-9572Y-268478D01*
X-9888Y-266892D01*
X-10786Y-265548D01*
X-12130Y-264650D01*
X-13716Y-264334D01*
D02*
G37*
G36*
X-31750Y-269922D02*
X-33336Y-270238D01*
X-34680Y-271136D01*
X-35578Y-272480D01*
X-35894Y-274066D01*
X-35578Y-275652D01*
X-34680Y-276996D01*
X-33336Y-277894D01*
X-31750Y-278210D01*
X-30164Y-277894D01*
X-28820Y-276996D01*
X-27922Y-275652D01*
X-27606Y-274066D01*
X-27922Y-272480D01*
X-28820Y-271136D01*
X-30164Y-270238D01*
X-31750Y-269922D01*
D02*
G37*
G36*
X18337Y-271700D02*
X16752Y-272016D01*
X15407Y-272914D01*
X14509Y-274258D01*
X14194Y-275844D01*
X14509Y-277430D01*
X15407Y-278774D01*
X16752Y-279672D01*
X18337Y-279988D01*
X19923Y-279672D01*
X21267Y-278774D01*
X22166Y-277430D01*
X22481Y-275844D01*
X22166Y-274258D01*
X21267Y-272914D01*
X19923Y-272016D01*
X18337Y-271700D01*
D02*
G37*
G36*
X65706Y-275256D02*
X64120Y-275572D01*
X62776Y-276470D01*
X61878Y-277814D01*
X61562Y-279400D01*
X61878Y-280986D01*
X62776Y-282330D01*
X64120Y-283228D01*
X65706Y-283544D01*
X67292Y-283228D01*
X68636Y-282330D01*
X69534Y-280986D01*
X69850Y-279400D01*
X69534Y-277814D01*
X68636Y-276470D01*
X67292Y-275572D01*
X65706Y-275256D01*
D02*
G37*
G36*
X-111252D02*
X-112838Y-275572D01*
X-114182Y-276470D01*
X-115080Y-277814D01*
X-115396Y-279400D01*
X-115080Y-280986D01*
X-114182Y-282330D01*
X-112838Y-283228D01*
X-111252Y-283544D01*
X-109666Y-283228D01*
X-108322Y-282330D01*
X-107424Y-280986D01*
X-107108Y-279400D01*
X-107424Y-277814D01*
X-108322Y-276470D01*
X-109666Y-275572D01*
X-111252Y-275256D01*
D02*
G37*
G36*
X31924Y-275510D02*
X30338Y-275826D01*
X28994Y-276724D01*
X28096Y-278068D01*
X27780Y-279654D01*
X28096Y-281240D01*
X28994Y-282584D01*
X30338Y-283482D01*
X31924Y-283798D01*
X33510Y-283482D01*
X34854Y-282584D01*
X35752Y-281240D01*
X36068Y-279654D01*
X35752Y-278068D01*
X34854Y-276724D01*
X33510Y-275826D01*
X31924Y-275510D01*
D02*
G37*
G36*
X-86360Y-283130D02*
X-87946Y-283446D01*
X-89290Y-284344D01*
X-90188Y-285688D01*
X-90504Y-287274D01*
X-90188Y-288860D01*
X-89290Y-290204D01*
X-87946Y-291102D01*
X-86360Y-291418D01*
X-84774Y-291102D01*
X-83430Y-290204D01*
X-82532Y-288860D01*
X-82216Y-287274D01*
X-82532Y-285688D01*
X-83430Y-284344D01*
X-84774Y-283446D01*
X-86360Y-283130D01*
D02*
G37*
G36*
X-46736Y-291258D02*
X-48322Y-291574D01*
X-49666Y-292472D01*
X-50564Y-293816D01*
X-50880Y-295402D01*
X-50564Y-296988D01*
X-49666Y-298332D01*
X-48322Y-299230D01*
X-46736Y-299546D01*
X-45150Y-299230D01*
X-43806Y-298332D01*
X-42908Y-296988D01*
X-42592Y-295402D01*
X-42908Y-293816D01*
X-43806Y-292472D01*
X-45150Y-291574D01*
X-46736Y-291258D01*
D02*
G37*
G36*
X-142494Y-294560D02*
X-144080Y-294876D01*
X-145424Y-295774D01*
X-146322Y-297118D01*
X-146638Y-298704D01*
X-146322Y-300290D01*
X-145424Y-301634D01*
X-144080Y-302532D01*
X-142494Y-302848D01*
X-140908Y-302532D01*
X-139564Y-301634D01*
X-138666Y-300290D01*
X-138350Y-298704D01*
X-138666Y-297118D01*
X-139564Y-295774D01*
X-140908Y-294876D01*
X-142494Y-294560D01*
D02*
G37*
G36*
X8128Y-307086D02*
X6542Y-307402D01*
X5198Y-308300D01*
X4300Y-309644D01*
X3984Y-311230D01*
X4300Y-312816D01*
X5198Y-314160D01*
X6542Y-315058D01*
X8128Y-315374D01*
X9714Y-315058D01*
X11058Y-314160D01*
X11956Y-312816D01*
X12272Y-311230D01*
X11956Y-309644D01*
X11058Y-308300D01*
X9714Y-307402D01*
X8128Y-307086D01*
D02*
G37*
G36*
X51228Y-309546D02*
X49642Y-309862D01*
X48298Y-310760D01*
X47400Y-312104D01*
X47084Y-313690D01*
X47400Y-315276D01*
X48298Y-316620D01*
X49642Y-317518D01*
X51228Y-317834D01*
X52814Y-317518D01*
X54158Y-316620D01*
X55056Y-315276D01*
X55372Y-313690D01*
X55056Y-312104D01*
X54158Y-310760D01*
X52814Y-309862D01*
X51228Y-309546D01*
D02*
G37*
G36*
X85264Y-310054D02*
X83678Y-310370D01*
X82334Y-311268D01*
X81436Y-312612D01*
X81120Y-314198D01*
X81436Y-315784D01*
X82334Y-317128D01*
X83678Y-318026D01*
X85264Y-318342D01*
X86850Y-318026D01*
X88194Y-317128D01*
X89092Y-315784D01*
X89408Y-314198D01*
X89092Y-312612D01*
X88194Y-311268D01*
X86850Y-310370D01*
X85264Y-310054D01*
D02*
G37*
G36*
X-302224Y-318690D02*
X-303810Y-319006D01*
X-305154Y-319904D01*
X-306052Y-321248D01*
X-306367Y-322834D01*
X-306052Y-324420D01*
X-305154Y-325764D01*
X-303810Y-326662D01*
X-302224Y-326978D01*
X-300638Y-326662D01*
X-299294Y-325764D01*
X-298396Y-324420D01*
X-298080Y-322834D01*
X-298396Y-321248D01*
X-299294Y-319904D01*
X-300638Y-319006D01*
X-302224Y-318690D01*
D02*
G37*
G36*
X-22098Y-323770D02*
X-23684Y-324086D01*
X-25028Y-324984D01*
X-25926Y-326328D01*
X-26242Y-327914D01*
X-25926Y-329500D01*
X-25028Y-330844D01*
X-23684Y-331742D01*
X-22098Y-332058D01*
X-20512Y-331742D01*
X-19168Y-330844D01*
X-18270Y-329500D01*
X-17954Y-327914D01*
X-18270Y-326328D01*
X-19168Y-324984D01*
X-20512Y-324086D01*
X-22098Y-323770D01*
D02*
G37*
G36*
X48180Y-324024D02*
X46594Y-324340D01*
X45250Y-325238D01*
X44352Y-326582D01*
X44036Y-328168D01*
X44352Y-329754D01*
X45250Y-331098D01*
X46594Y-331996D01*
X48180Y-332312D01*
X49766Y-331996D01*
X51110Y-331098D01*
X52008Y-329754D01*
X52324Y-328168D01*
X52008Y-326582D01*
X51110Y-325238D01*
X49766Y-324340D01*
X48180Y-324024D01*
D02*
G37*
G36*
X-62992Y-325548D02*
X-64578Y-325864D01*
X-65922Y-326762D01*
X-66820Y-328106D01*
X-67136Y-329692D01*
X-66820Y-331278D01*
X-65922Y-332622D01*
X-64578Y-333520D01*
X-62992Y-333836D01*
X-61406Y-333520D01*
X-60062Y-332622D01*
X-59164Y-331278D01*
X-58848Y-329692D01*
X-59164Y-328106D01*
X-60062Y-326762D01*
X-61406Y-325864D01*
X-62992Y-325548D01*
D02*
G37*
G36*
X-51054Y-333930D02*
X-52640Y-334246D01*
X-53984Y-335144D01*
X-54882Y-336488D01*
X-55198Y-338074D01*
X-54882Y-339660D01*
X-53984Y-341004D01*
X-52640Y-341902D01*
X-51054Y-342218D01*
X-49468Y-341902D01*
X-48124Y-341004D01*
X-47226Y-339660D01*
X-46910Y-338074D01*
X-47226Y-336488D01*
X-48124Y-335144D01*
X-49468Y-334246D01*
X-51054Y-333930D01*
D02*
G37*
G36*
X-177038Y-338502D02*
X-178624Y-338818D01*
X-179968Y-339716D01*
X-180866Y-341060D01*
X-181182Y-342646D01*
X-180866Y-344232D01*
X-179968Y-345576D01*
X-178624Y-346474D01*
X-177038Y-346790D01*
X-175452Y-346474D01*
X-174108Y-345576D01*
X-173210Y-344232D01*
X-172894Y-342646D01*
X-173210Y-341060D01*
X-174108Y-339716D01*
X-175452Y-338818D01*
X-177038Y-338502D01*
D02*
G37*
G36*
X-134874Y-342566D02*
X-136460Y-342882D01*
X-137804Y-343780D01*
X-138702Y-345124D01*
X-139018Y-346710D01*
X-138702Y-348296D01*
X-137804Y-349640D01*
X-136460Y-350538D01*
X-134874Y-350854D01*
X-133288Y-350538D01*
X-131944Y-349640D01*
X-131046Y-348296D01*
X-130730Y-346710D01*
X-131046Y-345124D01*
X-131944Y-343780D01*
X-133288Y-342882D01*
X-134874Y-342566D01*
D02*
G37*
G36*
X-187452Y-346122D02*
X-189038Y-346438D01*
X-190382Y-347336D01*
X-191280Y-348680D01*
X-191596Y-350266D01*
X-191280Y-351852D01*
X-190382Y-353196D01*
X-189038Y-354094D01*
X-187452Y-354410D01*
X-185866Y-354094D01*
X-184522Y-353196D01*
X-183624Y-351852D01*
X-183308Y-350266D01*
X-183624Y-348680D01*
X-184522Y-347336D01*
X-185866Y-346438D01*
X-187452Y-346122D01*
D02*
G37*
G36*
X228168Y-335904D02*
X226583Y-336219D01*
X225238Y-337118D01*
X224340Y-338462D01*
X224028Y-340030D01*
X223948Y-340375D01*
X223287Y-341035D01*
X222942Y-341116D01*
X221374Y-341428D01*
X220030Y-342326D01*
X219132Y-343671D01*
X218816Y-345256D01*
X219132Y-346842D01*
X220030Y-348186D01*
X221374Y-349085D01*
X222942Y-349396D01*
X223287Y-349477D01*
X223948Y-350138D01*
X224028Y-350482D01*
X224340Y-352051D01*
X225238Y-353395D01*
X226583Y-354293D01*
X228151Y-354605D01*
X228495Y-354686D01*
X229156Y-355346D01*
X229237Y-355691D01*
X229549Y-357259D01*
X230447Y-358603D01*
X231791Y-359502D01*
X233377Y-359817D01*
X234963Y-359502D01*
X236307Y-358603D01*
X237205Y-357259D01*
X237517Y-355691D01*
X237598Y-355346D01*
X238258Y-354686D01*
X238603Y-354605D01*
X240171Y-354293D01*
X241516Y-353395D01*
X242414Y-352051D01*
X242729Y-350465D01*
X242414Y-348879D01*
X241516Y-347535D01*
X240171Y-346637D01*
X238603Y-346325D01*
X238258Y-346244D01*
X237598Y-345583D01*
X237517Y-345239D01*
X237205Y-343671D01*
X236307Y-342326D01*
X234963Y-341428D01*
X233394Y-341116D01*
X233050Y-341035D01*
X232389Y-340375D01*
X232309Y-340030D01*
X231997Y-338462D01*
X231098Y-337118D01*
X229754Y-336219D01*
X228168Y-335904D01*
D02*
G37*
G36*
X-197111Y-354464D02*
X-198697Y-354779D01*
X-200041Y-355677D01*
X-200939Y-357022D01*
X-201255Y-358607D01*
X-200939Y-360193D01*
X-200041Y-361537D01*
X-198697Y-362435D01*
X-197111Y-362751D01*
X-195525Y-362435D01*
X-194181Y-361537D01*
X-193283Y-360193D01*
X-192967Y-358607D01*
X-193283Y-357022D01*
X-194181Y-355677D01*
X-195525Y-354779D01*
X-197111Y-354464D01*
D02*
G37*
G36*
X-304274Y-360589D02*
X-306454Y-361022D01*
X-308303Y-362257D01*
X-309538Y-364106D01*
X-309971Y-366286D01*
X-309538Y-368466D01*
X-308303Y-370315D01*
X-306454Y-371550D01*
X-304274Y-371983D01*
X-302094Y-371550D01*
X-300245Y-370315D01*
X-299010Y-368466D01*
X-298577Y-366286D01*
X-299010Y-364106D01*
X-300245Y-362257D01*
X-302094Y-361022D01*
X-304274Y-360589D01*
D02*
G37*
G36*
X-203708Y-365934D02*
X-205294Y-366250D01*
X-206638Y-367148D01*
X-207536Y-368492D01*
X-207852Y-370078D01*
X-207536Y-371664D01*
X-206638Y-373008D01*
X-205294Y-373906D01*
X-203708Y-374222D01*
X-202122Y-373906D01*
X-200778Y-373008D01*
X-199880Y-371664D01*
X-199564Y-370078D01*
X-199880Y-368492D01*
X-200778Y-367148D01*
X-202122Y-366250D01*
X-203708Y-365934D01*
D02*
G37*
G36*
X-220218Y-379142D02*
X-221804Y-379458D01*
X-223148Y-380356D01*
X-224046Y-381700D01*
X-224362Y-383286D01*
X-224046Y-384872D01*
X-223148Y-386216D01*
X-221804Y-387114D01*
X-220218Y-387430D01*
X-218632Y-387114D01*
X-217288Y-386216D01*
X-216390Y-384872D01*
X-216074Y-383286D01*
X-216390Y-381700D01*
X-217288Y-380356D01*
X-218632Y-379458D01*
X-220218Y-379142D01*
D02*
G37*
G36*
X-254762Y-392604D02*
X-256348Y-392920D01*
X-257692Y-393818D01*
X-258590Y-395162D01*
X-258906Y-396748D01*
X-258590Y-398334D01*
X-257692Y-399678D01*
X-256348Y-400576D01*
X-254762Y-400892D01*
X-253176Y-400576D01*
X-251832Y-399678D01*
X-250934Y-398334D01*
X-250618Y-396748D01*
X-250934Y-395162D01*
X-251832Y-393818D01*
X-253176Y-392920D01*
X-254762Y-392604D01*
D02*
G37*
G36*
X-222250Y-392605D02*
X-223836Y-392920D01*
X-225180Y-393819D01*
X-226078Y-395163D01*
X-226394Y-396749D01*
X-226078Y-398334D01*
X-225180Y-399679D01*
X-223836Y-400577D01*
X-222250Y-400892D01*
X-220664Y-400577D01*
X-219320Y-399679D01*
X-218422Y-398334D01*
X-218106Y-396749D01*
X-218422Y-395163D01*
X-219320Y-393819D01*
X-220664Y-392920D01*
X-222250Y-392605D01*
D02*
G37*
G36*
X-210058Y-393620D02*
X-211644Y-393936D01*
X-212988Y-394834D01*
X-213886Y-396178D01*
X-214202Y-397764D01*
X-213886Y-399350D01*
X-212988Y-400694D01*
X-211644Y-401592D01*
X-210058Y-401908D01*
X-208472Y-401592D01*
X-207128Y-400694D01*
X-206230Y-399350D01*
X-205914Y-397764D01*
X-206230Y-396178D01*
X-207128Y-394834D01*
X-208472Y-393936D01*
X-210058Y-393620D01*
D02*
G37*
G36*
X125984Y-394382D02*
X124398Y-394698D01*
X123054Y-395596D01*
X122156Y-396940D01*
X121840Y-398526D01*
X122156Y-400112D01*
X123054Y-401456D01*
X124398Y-402354D01*
X125984Y-402670D01*
X127570Y-402354D01*
X128914Y-401456D01*
X129812Y-400112D01*
X130128Y-398526D01*
X129812Y-396940D01*
X128914Y-395596D01*
X127570Y-394698D01*
X125984Y-394382D01*
D02*
G37*
G36*
X83312D02*
X81726Y-394698D01*
X80382Y-395596D01*
X79484Y-396940D01*
X79168Y-398526D01*
X79484Y-400112D01*
X80382Y-401456D01*
X81726Y-402354D01*
X83312Y-402670D01*
X84898Y-402354D01*
X86242Y-401456D01*
X87140Y-400112D01*
X87456Y-398526D01*
X87140Y-396940D01*
X86242Y-395596D01*
X84898Y-394698D01*
X83312Y-394382D01*
D02*
G37*
G36*
X-121412Y-391714D02*
X-123898Y-392041D01*
X-126215Y-393001D01*
X-128205Y-394527D01*
X-129731Y-396517D01*
X-130691Y-398834D01*
X-131018Y-401320D01*
X-130691Y-403806D01*
X-129731Y-406123D01*
X-128205Y-408113D01*
X-126215Y-409639D01*
X-123898Y-410599D01*
X-121412Y-410926D01*
X-118926Y-410599D01*
X-116609Y-409639D01*
X-114619Y-408113D01*
X-113093Y-406123D01*
X-112133Y-403806D01*
X-111806Y-401320D01*
X-112133Y-398834D01*
X-113093Y-396517D01*
X-114619Y-394527D01*
X-116609Y-393001D01*
X-118926Y-392041D01*
X-121412Y-391714D01*
D02*
G37*
G36*
X-199390Y-406320D02*
X-200976Y-406636D01*
X-202320Y-407534D01*
X-203218Y-408878D01*
X-203534Y-410464D01*
X-203218Y-412050D01*
X-202320Y-413394D01*
X-200976Y-414292D01*
X-199390Y-414608D01*
X-197804Y-414292D01*
X-196460Y-413394D01*
X-195562Y-412050D01*
X-195246Y-410464D01*
X-195562Y-408878D01*
X-196460Y-407534D01*
X-197804Y-406636D01*
X-199390Y-406320D01*
D02*
G37*
G36*
X-170681Y-416734D02*
X-172267Y-417050D01*
X-173612Y-417948D01*
X-174510Y-419292D01*
X-174825Y-420878D01*
X-174510Y-422464D01*
X-173612Y-423808D01*
X-172267Y-424706D01*
X-170681Y-425022D01*
X-169096Y-424706D01*
X-167752Y-423808D01*
X-166853Y-422464D01*
X-166538Y-420878D01*
X-166853Y-419292D01*
X-167752Y-417948D01*
X-169096Y-417050D01*
X-170681Y-416734D01*
D02*
G37*
G36*
X-188468Y-424354D02*
X-190054Y-424670D01*
X-191398Y-425568D01*
X-192296Y-426912D01*
X-192612Y-428498D01*
X-192296Y-430084D01*
X-191398Y-431428D01*
X-190054Y-432326D01*
X-188468Y-432642D01*
X-186882Y-432326D01*
X-185538Y-431428D01*
X-184640Y-430084D01*
X-184324Y-428498D01*
X-184640Y-426912D01*
X-185538Y-425568D01*
X-186882Y-424670D01*
X-188468Y-424354D01*
D02*
G37*
G36*
X-176784Y-426640D02*
X-178370Y-426956D01*
X-179714Y-427854D01*
X-180612Y-429198D01*
X-180928Y-430784D01*
X-180612Y-432370D01*
X-179714Y-433714D01*
X-178370Y-434612D01*
X-176784Y-434928D01*
X-175198Y-434612D01*
X-173854Y-433714D01*
X-172956Y-432370D01*
X-172640Y-430784D01*
X-172956Y-429198D01*
X-173854Y-427854D01*
X-175198Y-426956D01*
X-176784Y-426640D01*
D02*
G37*
G36*
X97536Y-423203D02*
X95311Y-423495D01*
X93237Y-424354D01*
X91457Y-425721D01*
X90090Y-427501D01*
X89231Y-429575D01*
X88939Y-431800D01*
X89231Y-434025D01*
X90090Y-436099D01*
X91457Y-437879D01*
X93237Y-439246D01*
X95311Y-440105D01*
X97536Y-440397D01*
X99761Y-440105D01*
X101835Y-439246D01*
X103615Y-437879D01*
X104982Y-436099D01*
X105841Y-434025D01*
X106133Y-431800D01*
X105841Y-429575D01*
X104982Y-427501D01*
X103615Y-425721D01*
X101835Y-424354D01*
X99761Y-423495D01*
X97536Y-423203D01*
D02*
G37*
G36*
X72136D02*
X69911Y-423495D01*
X67837Y-424354D01*
X66057Y-425721D01*
X64690Y-427501D01*
X63831Y-429575D01*
X63538Y-431800D01*
X63831Y-434025D01*
X64690Y-436099D01*
X66057Y-437879D01*
X67837Y-439246D01*
X69911Y-440105D01*
X72136Y-440397D01*
X74361Y-440105D01*
X76435Y-439246D01*
X78215Y-437879D01*
X79582Y-436099D01*
X80441Y-434025D01*
X80733Y-431800D01*
X80441Y-429575D01*
X79582Y-427501D01*
X78215Y-425721D01*
X76435Y-424354D01*
X74361Y-423495D01*
X72136Y-423203D01*
D02*
G37*
G36*
X46736D02*
X44511Y-423495D01*
X42437Y-424354D01*
X40657Y-425721D01*
X39290Y-427501D01*
X38431Y-429575D01*
X38138Y-431800D01*
X38431Y-434025D01*
X39290Y-436099D01*
X40657Y-437879D01*
X42437Y-439246D01*
X44511Y-440105D01*
X46736Y-440397D01*
X48961Y-440105D01*
X51035Y-439246D01*
X52815Y-437879D01*
X54182Y-436099D01*
X55041Y-434025D01*
X55333Y-431800D01*
X55041Y-429575D01*
X54182Y-427501D01*
X52815Y-425721D01*
X51035Y-424354D01*
X48961Y-423495D01*
X46736Y-423203D01*
D02*
G37*
G36*
X21336D02*
X19111Y-423495D01*
X17037Y-424354D01*
X15257Y-425721D01*
X13890Y-427501D01*
X13031Y-429575D01*
X12738Y-431800D01*
X13031Y-434025D01*
X13890Y-436099D01*
X15257Y-437879D01*
X17037Y-439246D01*
X19111Y-440105D01*
X21336Y-440397D01*
X23561Y-440105D01*
X25635Y-439246D01*
X27415Y-437879D01*
X28782Y-436099D01*
X29641Y-434025D01*
X29934Y-431800D01*
X29641Y-429575D01*
X28782Y-427501D01*
X27415Y-425721D01*
X25635Y-424354D01*
X23561Y-423495D01*
X21336Y-423203D01*
D02*
G37*
G36*
X-4064D02*
X-6289Y-423495D01*
X-8363Y-424354D01*
X-10143Y-425721D01*
X-11510Y-427501D01*
X-12369Y-429575D01*
X-12661Y-431800D01*
X-12369Y-434025D01*
X-11510Y-436099D01*
X-10143Y-437879D01*
X-8363Y-439246D01*
X-6289Y-440105D01*
X-4064Y-440397D01*
X-1839Y-440105D01*
X235Y-439246D01*
X2015Y-437879D01*
X3382Y-436099D01*
X4241Y-434025D01*
X4534Y-431800D01*
X4241Y-429575D01*
X3382Y-427501D01*
X2015Y-425721D01*
X235Y-424354D01*
X-1839Y-423495D01*
X-4064Y-423203D01*
D02*
G37*
G36*
X-29464D02*
X-31689Y-423495D01*
X-33763Y-424354D01*
X-35543Y-425721D01*
X-36910Y-427501D01*
X-37769Y-429575D01*
X-38061Y-431800D01*
X-37769Y-434025D01*
X-36910Y-436099D01*
X-35543Y-437879D01*
X-33763Y-439246D01*
X-31689Y-440105D01*
X-29464Y-440397D01*
X-27239Y-440105D01*
X-25165Y-439246D01*
X-23385Y-437879D01*
X-22018Y-436099D01*
X-21159Y-434025D01*
X-20866Y-431800D01*
X-21159Y-429575D01*
X-22018Y-427501D01*
X-23385Y-425721D01*
X-25165Y-424354D01*
X-27239Y-423495D01*
X-29464Y-423203D01*
D02*
G37*
G36*
X-54864D02*
X-57089Y-423495D01*
X-59163Y-424354D01*
X-60943Y-425721D01*
X-62310Y-427501D01*
X-63169Y-429575D01*
X-63461Y-431800D01*
X-63169Y-434025D01*
X-62310Y-436099D01*
X-60943Y-437879D01*
X-59163Y-439246D01*
X-57089Y-440105D01*
X-54864Y-440397D01*
X-52639Y-440105D01*
X-50565Y-439246D01*
X-48785Y-437879D01*
X-47418Y-436099D01*
X-46559Y-434025D01*
X-46266Y-431800D01*
X-46559Y-429575D01*
X-47418Y-427501D01*
X-48785Y-425721D01*
X-50565Y-424354D01*
X-52639Y-423495D01*
X-54864Y-423203D01*
D02*
G37*
G36*
X-111888Y-442596D02*
X-130936D01*
Y-461644D01*
X-111888D01*
Y-442596D01*
D02*
G37*
G36*
X106060Y-448676D02*
X89012D01*
Y-465724D01*
X106060D01*
Y-448676D01*
D02*
G37*
G36*
X72136Y-448602D02*
X69911Y-448895D01*
X67837Y-449754D01*
X66057Y-451121D01*
X64690Y-452901D01*
X63831Y-454975D01*
X63538Y-457200D01*
X63831Y-459425D01*
X64690Y-461499D01*
X66057Y-463279D01*
X67837Y-464646D01*
X69911Y-465505D01*
X72136Y-465798D01*
X74361Y-465505D01*
X76435Y-464646D01*
X78215Y-463279D01*
X79582Y-461499D01*
X80441Y-459425D01*
X80733Y-457200D01*
X80441Y-454975D01*
X79582Y-452901D01*
X78215Y-451121D01*
X76435Y-449754D01*
X74361Y-448895D01*
X72136Y-448602D01*
D02*
G37*
G36*
X46736D02*
X44511Y-448895D01*
X42437Y-449754D01*
X40657Y-451121D01*
X39290Y-452901D01*
X38431Y-454975D01*
X38138Y-457200D01*
X38431Y-459425D01*
X39290Y-461499D01*
X40657Y-463279D01*
X42437Y-464646D01*
X44511Y-465505D01*
X46736Y-465798D01*
X48961Y-465505D01*
X51035Y-464646D01*
X52815Y-463279D01*
X54182Y-461499D01*
X55041Y-459425D01*
X55333Y-457200D01*
X55041Y-454975D01*
X54182Y-452901D01*
X52815Y-451121D01*
X51035Y-449754D01*
X48961Y-448895D01*
X46736Y-448602D01*
D02*
G37*
G36*
X21336D02*
X19111Y-448895D01*
X17037Y-449754D01*
X15257Y-451121D01*
X13890Y-452901D01*
X13031Y-454975D01*
X12738Y-457200D01*
X13031Y-459425D01*
X13890Y-461499D01*
X15257Y-463279D01*
X17037Y-464646D01*
X19111Y-465505D01*
X21336Y-465798D01*
X23561Y-465505D01*
X25635Y-464646D01*
X27415Y-463279D01*
X28782Y-461499D01*
X29641Y-459425D01*
X29934Y-457200D01*
X29641Y-454975D01*
X28782Y-452901D01*
X27415Y-451121D01*
X25635Y-449754D01*
X23561Y-448895D01*
X21336Y-448602D01*
D02*
G37*
G36*
X-4064D02*
X-6289Y-448895D01*
X-8363Y-449754D01*
X-10143Y-451121D01*
X-11510Y-452901D01*
X-12369Y-454975D01*
X-12661Y-457200D01*
X-12369Y-459425D01*
X-11510Y-461499D01*
X-10143Y-463279D01*
X-8363Y-464646D01*
X-6289Y-465505D01*
X-4064Y-465798D01*
X-1839Y-465505D01*
X235Y-464646D01*
X2015Y-463279D01*
X3382Y-461499D01*
X4241Y-459425D01*
X4534Y-457200D01*
X4241Y-454975D01*
X3382Y-452901D01*
X2015Y-451121D01*
X235Y-449754D01*
X-1839Y-448895D01*
X-4064Y-448602D01*
D02*
G37*
G36*
X-29464D02*
X-31689Y-448895D01*
X-33763Y-449754D01*
X-35543Y-451121D01*
X-36910Y-452901D01*
X-37769Y-454975D01*
X-38061Y-457200D01*
X-37769Y-459425D01*
X-36910Y-461499D01*
X-35543Y-463279D01*
X-33763Y-464646D01*
X-31689Y-465505D01*
X-29464Y-465798D01*
X-27239Y-465505D01*
X-25165Y-464646D01*
X-23385Y-463279D01*
X-22018Y-461499D01*
X-21159Y-459425D01*
X-20866Y-457200D01*
X-21159Y-454975D01*
X-22018Y-452901D01*
X-23385Y-451121D01*
X-25165Y-449754D01*
X-27239Y-448895D01*
X-29464Y-448602D01*
D02*
G37*
G36*
X-54864D02*
X-57089Y-448895D01*
X-59163Y-449754D01*
X-60943Y-451121D01*
X-62310Y-452901D01*
X-63169Y-454975D01*
X-63461Y-457200D01*
X-63169Y-459425D01*
X-62310Y-461499D01*
X-60943Y-463279D01*
X-59163Y-464646D01*
X-57089Y-465505D01*
X-54864Y-465798D01*
X-52639Y-465505D01*
X-50565Y-464646D01*
X-48785Y-463279D01*
X-47418Y-461499D01*
X-46559Y-459425D01*
X-46266Y-457200D01*
X-46559Y-454975D01*
X-47418Y-452901D01*
X-48785Y-451121D01*
X-50565Y-449754D01*
X-52639Y-448895D01*
X-54864Y-448602D01*
D02*
G37*
%LPD*%
D12*
X-154940Y-55880D02*
G03*
X-164940Y-55880I-5000J0D01*
G01*
X66501Y-180197D02*
G03*
X59430Y-173125I-3536J3536D01*
G01*
X248801Y299011D02*
G03*
X241730Y291940I-3536J-3536D01*
G01*
X198374Y113124D02*
G03*
X198374Y103124I0J-5000D01*
G01*
X48768Y-128270D02*
G03*
X48768Y-138270I0J-5000D01*
G01*
X176370Y121412D02*
G03*
X166370Y121412I-5000J0D01*
G01*
X-153147Y-16430D02*
G03*
X-146076Y-9359I3536J3536D01*
G01*
X-222297Y100363D02*
G03*
X-229368Y93292I-3536J-3536D01*
G01*
X-254915Y67804D02*
G03*
X-254915Y77804I0J5000D01*
G01*
X-174264Y307868D02*
G03*
X-181336Y314940I-3536J3536D01*
G01*
X-42164Y466598D02*
G03*
X-49235Y473669I-3536J3536D01*
G01*
X-151216Y277454D02*
G03*
X-144350Y270588I3433J-3433D01*
G01*
X308004Y380662D02*
G03*
X332652Y359489I12544J-10330D01*
G01*
X-207616Y-443945D02*
G03*
X-236516Y-429099I-14634J7065D01*
G01*
X49167Y-183388D02*
X59430Y-173125D01*
X-58928Y-183388D02*
X49167D01*
X-154940Y-87376D02*
Y-55880D01*
X53404Y-193294D02*
X66501Y-180196D01*
X-154940Y-87376D02*
X-58928Y-183388D01*
X-164940Y-91518D02*
X-63164Y-193294D01*
X53404D01*
X-164940Y-91518D02*
Y-55880D01*
X248801Y299011D02*
X334026Y213786D01*
X324026Y148176D02*
Y209644D01*
X198374Y103124D02*
X293116D01*
X198374Y113124D02*
X288974D01*
X241730Y291940D02*
X324026Y209644D01*
X334026Y144034D02*
Y213786D01*
X293116Y103124D02*
X334026Y144034D01*
X288974Y113124D02*
X324026Y148176D01*
X166370Y-51562D02*
Y121412D01*
X48768Y-128270D02*
X89662D01*
X48768Y-138270D02*
X93804D01*
X176370Y-55704D02*
Y121412D01*
X93804Y-138270D02*
X176370Y-55704D01*
X89662Y-128270D02*
X166370Y-51562D01*
X-212360Y76284D02*
X-190226Y54150D01*
X-229368Y93292D02*
X-212360Y76284D01*
X-222297Y100363D02*
X-202360Y80427D01*
X-179832Y24397D02*
Y57899D01*
Y24397D02*
X-146076Y-9359D01*
X-202360Y80427D02*
X-179832Y57899D01*
X-190226Y20649D02*
X-153147Y-16430D01*
X-190226Y20649D02*
Y54150D01*
X-195834Y258998D02*
Y300441D01*
X-278968Y77804D02*
X-254915D01*
X-295910Y93462D02*
Y144780D01*
X-305910Y89320D02*
Y148922D01*
Y89320D02*
X-285973Y69383D01*
X-284394Y67804D02*
X-282437D01*
X-283110D02*
X-254915D01*
X-285973Y69383D02*
X-284394Y67804D01*
X-185166Y296967D02*
X-174264Y307868D01*
X-305910Y148922D02*
X-195834Y258998D01*
X-280252Y77804D02*
X-278968D01*
X-185166Y255524D02*
Y296967D01*
X-295910Y93462D02*
X-280252Y77804D01*
X-295910Y144780D02*
X-185166Y255524D01*
X-195834Y300441D02*
X-181336Y314940D01*
X-144350Y270588D02*
X-52070Y362868D01*
X-151216Y277454D02*
X-62070Y366600D01*
X-52070Y362868D02*
Y456692D01*
X-62070Y366600D02*
Y460834D01*
X-52070Y456692D02*
X-42164Y466598D01*
X-62070Y460834D02*
X-49235Y473669D01*
X308004Y380662D02*
X320548Y370332D01*
X-236516Y-429099D02*
X-222250Y-436880D01*
X-207616Y-443945D01*
X320548Y370332D02*
X332652Y359489D01*
D16*
X489746Y0D02*
G03*
X489746Y0I-490000J0D01*
G01*
D145*
X-94787Y276307D02*
X-45929D01*
X-171570Y172840D02*
Y199524D01*
X-94787Y276307D01*
X-166490Y174944D02*
Y196476D01*
X-92456Y270510D02*
X-44541D01*
X-166490Y196476D02*
X-92456Y270510D01*
X-171570Y172840D02*
X-102190Y103460D01*
X-166490Y174944D02*
X-97109Y105564D01*
X-45929Y276307D02*
X0Y322235D01*
X-44541Y270510D02*
X3719Y318770D01*
X0Y322235D02*
Y327660D01*
X3719Y318770D02*
X9144D01*
X-116332Y44450D02*
Y60035D01*
X-135382Y63754D02*
X-119797D01*
X-97109Y79257D02*
Y105564D01*
X-116332Y60035D02*
X-97109Y79257D01*
X-102190Y81362D02*
Y103460D01*
X-119797Y63754D02*
X-102190Y81362D01*
D158*
X124714Y444246D02*
D03*
D159*
X407861Y184461D02*
D03*
D160*
X-80264Y-457200D02*
D03*
Y-431800D02*
D03*
D164*
X-121412Y-426720D02*
D03*
D167*
X196800Y28300D02*
D03*
D168*
X-188468Y-390924D02*
D03*
X264320Y-87122D02*
D03*
X239776Y-88900D02*
D03*
X232249Y-73152D02*
D03*
X-368603Y23622D02*
D03*
X-324612Y35814D02*
D03*
X373638Y-277618D02*
D03*
X365506Y-269394D02*
D03*
X-311658Y-41910D02*
D03*
X-353568Y-36068D02*
D03*
X-383540Y-34453D02*
D03*
X-345694Y239522D02*
D03*
X-362966Y209786D02*
D03*
X-379730Y173990D02*
D03*
X-393954Y136906D02*
D03*
X-405638Y102870D02*
D03*
X-418338Y32258D02*
D03*
Y-1270D02*
D03*
X-415798Y-35306D02*
D03*
X264320Y-124905D02*
D03*
X272457Y-155448D02*
D03*
X313571Y-108553D02*
D03*
X334464Y-27682D02*
D03*
X366268Y26329D02*
D03*
X364489Y-7089D02*
D03*
X358394Y-51345D02*
D03*
X341246Y-110236D02*
D03*
X311499Y-168148D02*
D03*
X390144Y-109220D02*
D03*
X403797Y-48768D02*
D03*
X375920Y-148336D02*
D03*
X363982Y-182372D02*
D03*
X341884Y-224536D02*
D03*
X436880Y-56896D02*
D03*
X430276Y-94996D02*
D03*
X419488Y-144780D02*
D03*
X403234Y-182372D02*
D03*
X386080Y-216916D02*
D03*
X411480Y-234696D02*
D03*
X432308Y-198120D02*
D03*
X448315Y-161036D02*
D03*
X461264Y-121920D02*
D03*
X470916Y-82296D02*
D03*
X477012Y-43688D02*
D03*
X331470Y-196850D02*
D03*
X134620Y-249174D02*
D03*
X159766Y-371856D02*
D03*
X194226Y-349533D02*
D03*
X235152Y-370078D02*
D03*
X204978Y-386334D02*
D03*
X166624Y-408178D02*
D03*
X266954Y-393192D02*
D03*
X234188Y-413512D02*
D03*
X197819Y-431800D02*
D03*
X153416Y-450088D02*
D03*
Y-302094D02*
D03*
X136144Y-355673D02*
D03*
X108458Y-391414D02*
D03*
X111252Y-354600D02*
D03*
Y-313690D02*
D03*
X112014Y-276098D02*
D03*
X64262Y-252984D02*
D03*
X-386334Y-128778D02*
D03*
X-365252Y-108332D02*
D03*
X-402082D02*
D03*
X-378968Y-79248D02*
D03*
X-344170Y-77978D02*
D03*
X-408940Y-80772D02*
D03*
X-356108Y-320426D02*
D03*
X-383794Y-288798D02*
D03*
X-408178Y-251968D02*
D03*
X-425958Y-214618D02*
D03*
X-446781Y-170688D02*
D03*
X-459740Y-130114D02*
D03*
X-469392Y-87884D02*
D03*
X-476250Y-41148D02*
D03*
X-479552Y1524D02*
D03*
X-478282Y42164D02*
D03*
X-473710Y79351D02*
D03*
X-464646Y116586D02*
D03*
X-454600Y150368D02*
D03*
X-442722Y184912D02*
D03*
X-425450Y219202D02*
D03*
X-406654Y251723D02*
D03*
X-386334Y281940D02*
D03*
X-364616Y308572D02*
D03*
X463296Y126746D02*
D03*
X454914Y90578D02*
D03*
X470594Y92374D02*
D03*
X467684Y108057D02*
D03*
X471678Y75057D02*
D03*
X458470D02*
D03*
X446160D02*
D03*
X435922Y83394D02*
D03*
X277287Y-226803D02*
D03*
X244619Y-259471D02*
D03*
X255508Y-248582D02*
D03*
X266397Y-237693D02*
D03*
X288176D02*
D03*
X255508Y-270361D02*
D03*
X266397Y-259471D02*
D03*
X277287Y-248582D02*
D03*
X299066D02*
D03*
X266397Y-281250D02*
D03*
X277287Y-270361D02*
D03*
X288176Y-259471D02*
D03*
X299066Y-270361D02*
D03*
X288176Y-281250D02*
D03*
X277287Y-292140D02*
D03*
X309955Y-259471D02*
D03*
X288176Y-303029D02*
D03*
X299066Y-292140D02*
D03*
X309955Y-281250D02*
D03*
X320845Y-270361D02*
D03*
X-420045Y77329D02*
D03*
X-61794Y-395099D02*
D03*
X-276098Y-87066D02*
D03*
X-272288Y391668D02*
D03*
X-298450Y369062D02*
D03*
X-321256Y350266D02*
D03*
X-342900Y330708D02*
D03*
X-239960Y-410210D02*
D03*
X480285Y-1252D02*
D03*
Y31588D02*
D03*
X-165413Y-300308D02*
D03*
X-181102Y-287020D02*
D03*
X-181356Y-311296D02*
D03*
X-196342Y-298958D02*
D03*
X-198882Y-330454D02*
D03*
X-216408Y-318262D02*
D03*
X-183134Y-246380D02*
D03*
X-201422Y-264668D02*
D03*
X-216408Y-282956D02*
D03*
X-232156Y-302768D02*
D03*
X-192278Y-230378D02*
D03*
X-210058Y-246634D02*
D03*
X-228854Y-265176D02*
D03*
X-248412Y-283464D02*
D03*
X-265938Y-261620D02*
D03*
X-248158Y-244856D02*
D03*
X-228346Y-227584D02*
D03*
X-209550Y-210058D02*
D03*
X-226314Y-194310D02*
D03*
X-244856Y-214884D02*
D03*
X-263652Y-232428D02*
D03*
X-279146Y-245110D02*
D03*
Y-216154D02*
D03*
X-262890Y-200660D02*
D03*
X-246634Y-185674D02*
D03*
X-230378Y-171196D02*
D03*
X-313690Y-236728D02*
D03*
X-275336Y-163068D02*
D03*
X-288798Y-178308D02*
D03*
X-303530Y-192786D02*
D03*
X-317500Y-207808D02*
D03*
X-330200Y-219456D02*
D03*
X-346202Y-201422D02*
D03*
X-333248Y-188468D02*
D03*
X-318770Y-172720D02*
D03*
X-304546Y-158242D02*
D03*
X-284480Y-143434D02*
D03*
X-276098Y-129758D02*
D03*
X-288798Y-116078D02*
D03*
X-304020Y-130810D02*
D03*
X-317246Y-143764D02*
D03*
X-331724Y-157480D02*
D03*
X-345440Y-170688D02*
D03*
X-348488Y-139954D02*
D03*
X-334269Y-127254D02*
D03*
X-318516Y-114046D02*
D03*
X-302224Y-102108D02*
D03*
X-33448Y-221488D02*
D03*
X435383Y40209D02*
D03*
X467684Y54561D02*
D03*
X0Y327660D02*
D03*
X9144Y318770D02*
D03*
X-116332Y44450D02*
D03*
X-135382Y63754D02*
D03*
X-139954Y-277114D02*
D03*
X-197389Y-120778D02*
D03*
X-209835Y-108332D02*
D03*
X-264966Y323856D02*
D03*
X-311215Y301778D02*
D03*
X-268037Y306649D02*
D03*
X-146558Y456184D02*
D03*
X-239014Y143510D02*
D03*
X-244856Y150368D02*
D03*
X-250952Y156464D02*
D03*
X-23622Y404876D02*
D03*
X-39116Y397510D02*
D03*
X-27432Y340614D02*
D03*
X66040Y424180D02*
D03*
X51054Y420624D02*
D03*
X57288Y369570D02*
D03*
X106344Y373868D02*
D03*
X98216Y383560D02*
D03*
X88879Y365842D02*
D03*
X128778Y-427482D02*
D03*
X-24897Y-277928D02*
D03*
X-5334Y-290302D02*
D03*
X-279382Y-390924D02*
D03*
X-292082Y-378732D02*
D03*
X-316720Y-353840D02*
D03*
X-329166Y-341394D02*
D03*
X8128Y-321310D02*
D03*
X-70317Y-322834D02*
D03*
X-88900Y-312166D02*
D03*
X-161544Y-443484D02*
D03*
X-145542Y-439674D02*
D03*
X-40640Y-279908D02*
D03*
X-48768Y-249428D02*
D03*
X-3048Y-350774D02*
D03*
X-128524Y-213868D02*
D03*
X41830Y-279400D02*
D03*
X75358Y-279146D02*
D03*
X84854Y-373534D02*
D03*
X78354D02*
D03*
X71854D02*
D03*
X65354D02*
D03*
X50992Y-374396D02*
D03*
X-29210Y-302006D02*
D03*
X202204Y-148776D02*
D03*
X339598Y-164084D02*
D03*
X253746Y-150518D02*
D03*
D169*
X405030Y31409D02*
D03*
X404826Y21147D02*
D03*
X421988Y24299D02*
D03*
X-357063Y158299D02*
D03*
M02*
