M48
;Layer_Color=9474304
;FILE_FORMAT=4:4
METRIC,LZ
;TYPE=PLATED
T1F00S00C0.2000
T2F00S00C0.2032
T3F00S00C0.2540
T4F00S00C0.3048
T6F00S00C1.0000
T7F00S00C1.0200
T8F00S00C1.1000
T9F00S00C1.5000
T10F00S00C3.2000
%
T01
X00419953Y00091589
X00420456Y00112199
X00431013Y00113542
X00438386Y00109015
X00447441Y00106496
X00445256Y00116388
X00457153Y00118985
X00462011Y00131552
X00469049Y00126525
X00469384Y00139427
X0046243Y00144789
X00461677Y00158948
X00459331Y00175704
X00464525Y00175788
X00453801Y00176123
X0045355Y00188356
X00458661Y00187267
X00464107Y00187602
X00469887Y00187518
X00476422Y00187183
X00471898Y00197153
X00463771Y00196902
X00456064Y0019841
X00447769Y00203522
X00440145Y00198661
X00439978Y00189403
X00447351Y00189571
X00446429Y00214916
X00445179Y00226051
X00464358Y0021944
X00472904Y00220779
X00473406Y00207625
X00460253Y0020972
X00488158Y00204316
X00502904Y00204148
X00502569Y00193968
X0050282Y00220653
X00488745Y00220402
X00418237Y00211982
X00411081Y00211894
X00411121Y00197332
X00416854
Y00191463
X00411121
Y00185594
X00416854
Y00179725
X00411121
Y00173856
X00416854
X00424359Y00204478
X00422416Y00137217
X00427244Y00124262
X00431683Y00102062
X00470641Y00097118
X00483124Y00097453
X00493597Y00097286
X00503316Y00097538
X00503819Y00113037
X0049301Y00112785
X00482538Y00112953
X00471563Y00112785
X00444837Y00146298
X00445591Y00154676
X00406633Y00145291
X0037999Y00148392
X00380493Y00160541
X00374754Y0016498
X00369987Y00169706
X00358543Y00169002
X00370606Y0018668
X00370439Y00194471
X00369182Y00206284
X0037446Y00212149
X00378733Y00217511
X00387949Y0021969
X00390798Y0022723
X00397919Y00227229
X00395911Y00208456
X00405388Y00197332
X00405388Y00191463
Y00185594
Y00179725
Y00173856
X00389124Y00186136
X00352091Y00197069
X00351589Y00208212
X0035494Y00217428
X0036005Y002124
X00365747Y00217427
X00360469Y00226308
X00374879Y00227229
X003352Y0022537
X00332494Y00218283
X00325792Y00217421
X00325202Y00209082
X00338723Y00189952
X00326963Y00171783
X00327036Y00158482
X00321088Y00152271
X00318759Y00139469
X00305759Y00162051
Y00170051
X00297759Y00170051
X00289759
Y00178051
Y00186051
X00281759Y00186051
X00281759Y00178051
X00273759Y00178051
X00273759Y00186051
X00273759Y00194051
X00281759Y00194051
X00289759
X00297759
X00305759Y00194051
X00305759Y00186051
Y00178051
X00297759
Y00186051
Y00162051
X00289759Y00162051
X00281759Y00162051
X00273759Y00162051
X00273759Y00170051
X00281759Y00170051
X00283809Y00134477
X00273319Y00138704
X00267428Y00142403
X00259638Y00151699
X00249251Y00140266
X00238323Y00140594
X00238107Y00148475
X00233185Y00136039
X00255907Y00130347
X00255411Y0011806
X00269902Y00124005
X00249621Y00099967
X00244292Y00104949
X00221645Y00106753
X00228598Y00091086
X0029956Y00098794
X0031284Y00099003
X00324863Y00100637
X00337848Y00099967
X00351379Y00099003
X00349159Y0010734
X00357704Y00108597
X00357369Y00091086
X00375802Y00097705
X00387783Y00091421
X00375183Y00115542
X00366544Y00123006
X00364451Y00135449
X00388031Y00130883
X00402778Y00114754
X00251427Y00199169
X00252731Y00207367
X00238653Y00189276
X00234548Y00184166
X00236892Y00226642
X00248706Y00232675
X00261943Y00231837
X00273169Y00232886
X00221644Y00233346
X00229771Y00242227
X00352678Y00229492
X00368847Y00232843
X0037245Y00241054
X00383006Y0023963
X0038242Y00230162
X00392138Y00236614
X00400516Y00236613
X00409739Y00236525
X00423982Y00236525
X00435209Y00236692
X0046419Y00236028
X00472904Y0023653
X00489918Y00236236
X00502736Y00236069
T02
X00423391Y00032168
X00431683Y00030128
X00439969Y00031406
X00515956Y00030128
X0052333Y00057586
Y00082968
X00494842Y00056552
X00572831Y00068236
X00590352Y00093317
X00601866Y00088847
X00613453Y00086831
X00621949Y00102705
X00615871Y00055749
Y00036628
X00390566Y00062694
X00343878Y00077233
X00331178
X00318478
X00305778
X00293078
X00280378Y00069252
X00267672Y00077239
X00254978Y00077233
X00242278
X00138774Y00080174
X00108972Y00097878
X00077935Y00100592
X00108972Y00142403
X00135726Y00161663
X001436Y00168202
X00169508Y00173507
X00163492Y00179643
X00191606Y00167491
X0019781Y00161663
X00206286Y00170139
X00201942Y00187183
X00202528Y00199297
X00206286Y00220939
X00029086Y00168704
X00016974Y00050038
X-00052916Y00425534
X-00049111Y00448902
X001386Y00475572
X00184066Y00481795
X00206578Y0048005
X00221687Y00454076
X00239527Y0045425
X00242946Y00525176
X001132Y00502456
X001595Y00437904
X0017035Y00430876
X00203976Y00394364
X00152236Y00335872
X0014615Y0031868
X00120932Y00311742
X00128065Y00304554
X00158203Y00268771
X00179226Y00286262
X00186689Y00279104
X0020018Y00286262
X00193687Y00292772
X002235Y00286262
X00236437Y00279104
X00218817Y00266356
X00212639Y00272051
X00254978Y00255446
X00267678Y00255446
X00280378Y00255446
X00305778Y0025736
X00318478Y00255446
X00343878Y00255446
X0034566Y00322229
X00397999Y00335098
X00390883Y00383899
X00378118Y00383933
X00365412Y00383905
X00392332Y0048751
X00402492
Y0049767
Y0050783
Y0051799
X00392332Y0050783
Y0049767
X00135994Y00246184
X00477328Y00256201
X00490122Y00257326
X00477898Y00354882
X0052053Y00354882
X00533484Y00368105
X00541612Y0036813
X0054974Y00368155
X00554215Y00335623
X00536435Y00335623
X00580734Y00290672
X0055228Y00499622
X0054212
X0053196
X0053196Y00509782
X0054212
Y00519942
X0053196
X005218
X0051164
X0050148
X0049132
Y00509782
X0048116
Y00519942
Y00499622
X0049132
X0050148
X0050148Y00509782
X0051164
Y00499622
X005218
Y00509782
X0055228
Y00519942
X00422812Y0051799
Y0050783
Y0049767
Y0048751
X00412652
Y0049767
Y0050783
Y0051799
X00444301Y00400611
T03
X00457342Y00024367
X00525971Y00099003
Y00113105
Y0012842
X00525862Y00143711
X00525622Y00157182
Y00170653
Y00184325
Y0019899
X0063255Y00072513
X00638392Y00029062
X00403473Y00028372
X00390495
X00377504Y00049518
X0036459Y00049429
X00188254Y00041102
X00178254Y00042122
X00158951Y00044118
X00110924
Y0006595
X00097372Y0005577
Y00076886
X00118972Y00097878
X00154358Y00105418
X00077142Y00109482
X00068068Y00186702
X00091366Y0019889
X00113968Y00186702
X0014242Y00219638
X00071728Y0022667
X00097372Y0003311
X00001298Y00164502
X00001107Y00182041
X-00011006Y00182395
Y00193204
Y00205748
X-0002442
X-00000226Y00202436
X-00000672Y00219783
X-00053678Y00220382
Y00206376
X-0006849
Y00193204
Y00182041
Y00170222
X-00065696Y00154596
X-0005325Y00162978
X-00040612
X-00027087
X-00013372Y00154596
X-00010894Y00170222
X-00071538Y00220382
Y00233952
Y00246464
Y00259936
X-00053678Y00259667
Y00246464
Y00233952
X-00027087Y0023654
Y00246888
X-00015466Y00251878
Y00263054
Y00274912
X0000006Y00268642
X-00000036Y00255096
X-00000226Y00239178
X-00015276
X-00053678Y00274912
X-00065108
X-00010498Y00310472
X-00000338Y00309202
X00010412Y00305392
X00007282Y00319362
Y00334076
Y00348572
X-00010498Y00341696
Y00356192
Y00326982
X00002202Y00399372
Y00427312
X-00004154Y00441034
X-00023251Y00467899
X-00037676Y00428582
X-00039588Y00396342
X-00049588
X-00061088Y00396622
X-00062558Y00408842
X-00029588Y00396342
X-00072808Y00451268
X-00004798Y00515577
X00098738Y00517863
X00068162Y00446188
X0016148Y00449076
X00186098Y0049767
X00203798Y00506052
X0022115
X00242506Y00515176
X00251797Y00518399
X0025171Y00500892
X00248074Y00469222
X00238967Y00473032
X0021353Y00473413
X00258183Y00460476
X0030362Y0046465
X00336308Y00465412
Y00421628
X0030362Y00421409
X00346709Y00374073
X00408439Y00373
Y00327423
X00338672Y00512402
X0030362
X001386Y00391116
X001259
X001132
X0008137Y00335872
X00041572Y00337142
X00036492Y00324442
X00023673Y00326662
Y00341376
X00030412Y00356872
X00020412Y0036348
X00050782Y00355872
X00020412Y00311742
X00085935Y00282379
X00075752Y00255629
X00091366Y0022802
X00116262Y00246666
X00531787Y0026503
X00549059
X00624168Y00298516
T04
X00023432Y00246446
X00570373Y00437081
X00582363
X00577075Y00443841
X00572944Y00451
X00582363
X00591864
X0060404Y00453554
X0056498Y00443841
T06
X006866Y0004011
Y0011011
Y0018011
X007366Y0014511
Y0007511
Y0021511
Y00340106
Y00410106
X006866Y00375106
Y00305106
T07
X00211182Y0004129
X00236582
X00261982
X00287382
X00312782
X00338182
X00346582Y0028379
X00321182
X00371982
X00397382
X00422782Y0028379
X00448182Y0028379
T08
X001727Y00326388
X001981
X001981Y00351788
X002235
X002489
X002743
X002997
X002997Y00326388
X002743
X002489
X002235
X001727Y00351788
T09
X00711148Y0004011
X00712052Y0007511
X00711148Y0011011
X00712052Y0014511
X00711148Y0018011
X00712052Y0021511
X00669242Y00287748
Y00392464
X00753958Y00427464
Y00322748
T10
X-0005Y0012
Y00501
X00681
M30
