M48
;Layer_Color=9474304
;FILE_FORMAT=4:4
METRIC,LZ
;TYPE=PLATED
T1F00S00C0.2540
T2F00S00C0.4572
T3F00S00C0.4826
T4F00S00C0.7620
T5F00S00C0.9000
T6F00S00C1.0000
T7F00S00C1.1000
T8F00S00C1.1400
T9F00S00C1.2000
T10F00S00C1.3000
T12F00S00C1.4000
T13F00S00C2.7500
;TYPE=NON_PLATED
T14F00S00C3.2000
T15F00S00C4.8000
%
T01
X00470916Y-00082296
X00461264Y-0012192
X00448315Y-00161036
X00419488Y-0014478
X0037592Y-00148336
X00363982Y-00182372
X00403234
X00432308Y-0019812
X0041148Y-00234696
X0038608Y-00216916
X00341884Y-00224536
X0033147Y-0019685
X00339598Y-00164084
X00311499Y-00168148
X00272457Y-00155448
X00253746Y-00150518
X0026432Y-00124905
Y-00087122
X00239776Y-000889
X00232249Y-00073152
X00197358Y-00074168
X00202204Y-00148776
X00178308Y-0015367
X00152654Y-00168656
X00128016Y-00175006
X0013462Y-00249174
X00112014Y-00276098
X00111252Y-0031369
X00085264Y-00314198
X00075358Y-00279146
X00078354Y-00373534
X00071854
X00084854
X00083312Y-00398526
X00108458Y-00391414
X00125984Y-00398526
X00128778Y-00427482
X00153416Y-00450088
X00166624Y-00408178
X00159766Y-00371856
X00136144Y-00355673
X00111252Y-003546
X00194226Y-00349533
X0022296Y-00345256
X00228168Y-00350465
X00233377Y-00355673
X00238585Y-00350465
X00233377Y-00345256
X00228168Y-00340048
X00235152Y-00370078
X00234188Y-00413512
X00266954Y-00393192
X00204978Y-00386334
X00197819Y-004318
X00153416Y-00302094
X00244619Y-00259471
X00255508Y-00248582
Y-00270361
X00266397Y-00259471
X00277287Y-00248582
X00299066
X00288176Y-00259471
X00277287Y-00270361
X00266397Y-0028125
X00288176
X00299066Y-00270361
X00309955Y-00259471
Y-0028125
X00299066Y-0029214
X00277287
X00288176Y-00303029
X00320845Y-00270361
X00365506Y-00269394
X00373638Y-00277618
X00288176Y-00237693
X00277287Y-00226803
X00266397Y-00237693
X00313571Y-00108553
X00341246Y-00110236
X00390144Y-0010922
X00430276Y-00094996
X00064262Y-00252984
X00065706Y-002794
X0004183
X00031924Y-00279654
X00018337Y-00275844
X00010922Y-00259334
X-00013716Y-00268478
X-00024897Y-00277928
X-0003175Y-00274066
X-0004064Y-00279908
X-00046736Y-00295402
X-0002921Y-00302006
X-00022098Y-00327914
X00008128Y-0032131
Y-0031123
X-00005334Y-00290302
X-00003048Y-00350774
X-00051054Y-00338074
X-00062992Y-00329692
X-00070317Y-00322834
X-000889Y-00312166
X-0008636Y-00287274
X-00094996Y-0026416
X-00111252Y-002794
X-00139954Y-00277114
X-00136257Y-00265029
X-00145221Y-00256032
X-00163198Y-00254254
X-00175006Y-00266192
X-00181102Y-0028702
X-00181356Y-00311296
X-00165413Y-00300308
X-00142494Y-00298704
X-00196342Y-00298958
X-00198882Y-00330454
X-00216408Y-00318262
X-00232156Y-00302768
X-00216408Y-00282956
X-00228854Y-00265176
X-00201422Y-00264668
X-00210058Y-00246634
X-00183134Y-0024638
X-00192278Y-00230378
X-0020955Y-00210058
X-00226314Y-0019431
X-00230378Y-00171196
X-00246634Y-00185674
X-00244856Y-00214884
X-00228346Y-00227584
X-00248158Y-00244856
X-00263652Y-00232428
X-00279146Y-0024511
Y-00216154
X-0026289Y-0020066
X-00288798Y-00178308
X-00275336Y-00163068
X-0028448Y-00143434
X-00276098Y-00129758
X-00288798Y-00116078
X-00302224Y-00102108
X-00318516Y-00114046
X-00317246Y-00143764
X-0030402Y-0013081
X-00304546Y-00158242
X-0031877Y-0017272
X-0030353Y-00192786
X-003175Y-00207808
X-003302Y-00219456
X-0031369Y-00236728
X-00265938Y-0026162
X-00248412Y-00283464
X-00302224Y-00322834
X-00329166Y-00341394
X-0031672Y-0035384
X-00292082Y-00378732
X-00279382Y-00390924
X-00254762Y-00396748
X-0023996Y-0041021
X-0022225Y-00396749
X-00210058Y-00397764
X-0019939Y-00410464
X-00188468Y-00428498
X-00176784Y-00430784
X-00170681Y-00420878
X-00161544Y-00443484
X-00145542Y-00439674
X-00188468Y-00390924
X-00203708Y-00370078
X-00197111Y-00358607
X-00187452Y-00350266
X-00177038Y-00342646
X-00134874Y-0034671
X-00061794Y-00395099
X00050992Y-00374396
X00065354Y-00373534
X0004818Y-00328168
X00051228Y-0031369
X-00048768Y-00249428
X-0008382Y-0024384
X-00107264Y-00241808
X-00111252Y-0023114
X-00098806Y-00219456
X-00128524Y-00213868
X-00141631Y-00211147
X-00135128Y-00201676
X-00135133Y-00177292
X-00144038Y-00183252
X-00153613Y-00174596
X-00197389Y-00120778
X-00209835Y-00108332
X-00219456Y-00074422
X-00276098Y-00087066
X-00220218Y-00383286
X-00033448Y-00221488
X-00023448
X-00346202Y-00201422
X-00333248Y-00188468
X-0034544Y-00170688
X-00331724Y-0015748
X-00334269Y-00127254
X-00348488Y-00139954
X-00365252Y-00108332
X-00402082
X-0040767Y-00133957
X-00399926Y-00139937
X-00392176Y-00146558
X-00386334Y-00128778
X-00417606Y-00127254
X-0045974Y-00130114
X-00469392Y-00087884
X-0040894Y-00080772
X-00378968Y-00079248
X-0034417Y-00077978
X-00446781Y-00170688
X-00425958Y-00214618
X-00408178Y-00251968
X-00383794Y-00288798
X-00356108Y-00320426
X-00353568Y-00036068
X-0038354Y-00034453
X-00415798Y-00035306
X-00418338Y-0000127
Y00032258
X-00380333Y00028956
X-00368603Y00023622
X-00354584Y00018034
X-00356108Y00103886
X-00405638Y0010287
X-00420045Y00077329
X-0047371Y00079351
X-00478282Y00042164
X-00479552Y00001524
X-0047625Y-00041148
X-00464646Y00116586
X-004546Y00150368
X-00442722Y00184912
X-0042545Y00219202
X-00406654Y00251723
X-00386334Y0028194
X-00364616Y00308572
X-00345694Y00239522
X-00362966Y00209786
X-0037973Y0017399
X-00393954Y00136906
X-00326898Y00122398
Y00113777
Y00105156
X-00324612Y00035814
X-00311658Y-0004191
X-00239014Y0014351
X-00244856Y00150368
X-00250952Y00156464
X-0020955Y00184912
X-00203708Y00179578
X-00197358Y00185674
X-00202692Y00191262
X-00268037Y00306649
X-00264966Y00323856
X-00311215Y00301778
X00009144Y0031877
X00029677Y00316078
X-00135382Y00063754
X-00116332Y0004445
X00295402Y000254
X00284226Y00011256
X00311499Y00041402
X00325488Y00055372
X00348488Y00065688
X00357378Y00067769
X00355092Y00059084
X00363982Y00061165
X00361696Y0005248
X00370586Y00054561
X00379476Y00056642
X00372872Y00063246
X00366268Y0006985
X00359664Y00076454
X00366268Y00026329
X00364489Y-00007089
X00358394Y-00051345
X00334464Y-00027682
X00403797Y-00048768
X0043688Y-00056896
X00435383Y00040209
X0044616Y00037335
X00418501Y00039491
X00435922Y00083394
X0044616Y00075057
X0045847
X00454914Y00090578
X00470594Y00092374
X00471678Y00075057
X00467684Y00054561
X00480285Y00031588
Y-00001252
X00477012Y-00043688
X00467684Y00108057
X00463296Y00126746
X00090252Y00357653
X00088879Y00365842
X00079248Y00357206
X00073375Y00342738
X00069596Y00402844
X00098216Y0038356
X00106344Y00373868
X00057288Y0036957
X00061183Y00331054
X0003896Y00325476
X0Y0032766
X-00002286Y00347726
X00006837Y00357206
X00009652Y0037211
X00001524Y0038354
X-00023622Y00404876
X-00039116Y0039751
X-00006096Y00423926
Y00436546
X00051054Y00420624
X0006604Y0042418
X-00027432Y00340614
X-00066802Y00326009
X-00169418Y00390398
Y00403352
X-00169164Y00427228
X-00146558Y00456184
X-00272288Y00391668
X-0029845Y00369062
X-00321256Y00350266
X-003429Y00330708
T02
X00124714Y00444246
X00001524Y00470134
T03
X-00304274Y-00366286
X-00346456Y00147692
X-00357063Y00158299
X0040503Y00031409
X00404826Y00021147
X00421988Y00024299
X0040521Y-00019779
X00395152Y-00020138
X00386416Y-00014994
T04
X000291Y-0000508
X000799
T05
X00072136Y-004572
Y-004318
X00097536
Y-004572
X00046736
X00021336
Y-004318
X-00004064
X-00029464
Y-004572
X-00054864
X-00080264
Y-004318
X-00054864
X-00004064Y-004572
X00046736Y-004318
T06
X-00021893Y00093423
X00048817Y00164133
T07
X-00063328Y-00146333
X-00091612Y-00068551
X00102532Y00238342
X00066611Y00274263
X0037194Y00220382
X00407861Y00184461
X00282137Y00058737
T08
X-00121412Y-0045212
Y-0042672
Y-0040132
T09
X-001968Y-000283
X-002457Y00038
X001968Y000283
X002457Y-00038
T10
X-00099136Y00149671
X-00046103Y00202704
T12
X00117348Y-00061722
X00145348Y00038278
T13
X000295Y-000815
X000545Y000675
X-00087Y0
T14
X00159004Y-00206756
X-0025019Y-00061722
X-00004318Y00274574
T15
X00179112Y00287486
X0029536Y00171238
M30
